<svg width="188" height="179" viewBox="0 0 188 179" fill="none" xmlns="http://www.w3.org/2000/svg">
<path d="M63.2678 24.0919L87.7582 58.6731L129.952 62.5919L95.3705 87.0823L91.4517 129.276L66.9612 94.6946L24.7678 90.7758L59.349 66.2853L63.2678 24.0919Z" fill="#F6F8FF"/>
<path d="M91.4518 24.4599L95.3706 66.6534L129.952 91.1439L87.7584 95.0626L63.2679 129.644L59.3491 87.4504L24.7679 62.9599L66.9614 59.0412L91.4518 24.4599Z" fill="#DDE4FF"/>
<path d="M38.8599 38.5L77.3599 56.203L115.86 38.5L98.1569 77L115.86 115.5L77.3599 97.797L38.8599 115.5L56.5629 77L38.8599 38.5Z" fill="#0063CB"/>
<g opacity="0.8">
<path d="M123.711 122.319L140.799 125.238L154.138 114.167L151.219 131.254L162.291 144.593L145.203 141.674L131.864 152.746L134.783 135.658L123.711 122.319Z" fill="#F6F8FF"/>
<path d="M131.97 114.273L145.309 125.345L162.397 122.426L151.325 135.765L154.244 152.853L140.905 141.781L123.818 144.7L134.889 131.361L131.97 114.273Z" fill="#DDE4FF"/>
<path d="M120.818 133.548L137.076 127.532L143.092 111.274L149.108 127.532L165.366 133.548L149.108 139.564L143.092 155.822L137.076 139.564L120.818 133.548Z" fill="#0063CB"/>
</g>
<g opacity="0.2">
<path d="M150.514 61.5175L157.059 59.0957L159.481 52.5507L161.902 59.0957L168.447 61.5175L161.902 63.9394L159.481 70.4844L157.059 63.9394L150.514 61.5175Z" fill="#F6F8FF"/>
<path d="M151.774 57.0497L158.653 58.2248L164.023 53.7676L162.848 60.6466L167.305 66.0165L160.426 64.8414L155.056 69.2986L156.231 62.4196L151.774 57.0497Z" fill="#DDE4FF"/>
<path d="M151.766 66.0143L156.223 60.6444L155.048 53.7653L160.418 58.2225L167.297 57.0474L162.839 62.4173L164.015 69.2964L158.645 64.8392L151.766 66.0143Z" fill="#0063CB"/>
</g>
</svg>
