<svg width="198" height="49" viewBox="0 0 198 49" fill="none" xmlns="http://www.w3.org/2000/svg">
<rect x="1" y="1" width="196" height="47" rx="3" fill="#000638"/>
<path d="M28.3304 24.1465C27.8625 24.1458 27.3973 24.2161 26.9506 24.3549C24.7166 25.0304 23.3168 27.2428 23.663 29.5508C24.0092 31.8588 25.9966 33.5632 28.3304 33.5535C28.8003 33.5512 29.2675 33.481 29.7174 33.3451C31.9317 32.6509 33.3098 30.4465 32.9638 28.1517C32.6178 25.857 30.651 24.1569 28.3304 24.1465" fill="#80829B"/>
<path d="M27.0369 26.1729C27.4785 27.5639 27.0349 29.0838 25.9144 30.0189C24.7939 30.9539 23.2192 31.1184 21.9297 30.4351C20.6402 29.7518 19.892 28.3565 20.0365 26.9043C20.1811 25.4521 21.1896 24.2315 22.5885 23.8158C24.4659 23.2578 26.4443 24.3062 27.0369 26.1729Z" fill="white"/>
<path d="M37.213 37.4425C37.785 39.3007 36.7427 41.2708 34.8847 41.8435C33.0267 42.4162 31.0561 41.3747 30.4827 39.5169C29.9094 37.6591 30.9501 35.6881 32.8077 35.114C33.7007 34.8381 34.6667 34.9284 35.493 35.3651C36.3193 35.8019 36.9381 36.5492 37.213 37.4425V37.4425Z" fill="white"/>
<path d="M15.4452 32.2383C15.2016 32.2387 14.9595 32.275 14.7265 32.3461C13.5121 32.7205 12.7915 33.9677 13.0738 35.2068C13.356 36.4459 14.5457 37.258 15.8024 37.0694C17.0592 36.8809 17.9583 35.7555 17.8645 34.4882C17.7708 33.2208 16.716 32.2399 15.4452 32.2383" fill="white"/>
<path d="M37.8812 27.8907C37.7033 27.8888 37.5261 27.9155 37.3566 27.9698C36.5069 28.2305 35.9755 29.0735 36.1068 29.9526C36.238 30.8317 36.9924 31.4827 37.8812 31.4839C38.0613 31.4823 38.2403 31.4557 38.413 31.4049C39.2641 31.1437 39.7956 30.2987 39.6624 29.4185C39.5292 28.5383 38.7715 27.8884 37.8812 27.8907" fill="#CCCDD7"/>
<path d="M18.5784 13.9707C18.1787 13.9706 17.7813 14.0311 17.3998 14.1504C15.403 14.7703 14.2218 16.8247 14.6906 18.8623C15.1594 20.8998 17.1197 22.2315 19.1866 21.9164C21.2535 21.6013 22.7281 19.7461 22.5685 17.6614C22.4089 15.5767 20.6692 13.9675 18.5784 13.9707" fill="#80829B"/>
<path d="M34.6185 7C33.8726 7.00015 33.1311 7.11405 32.4195 7.33776C28.9075 8.43111 26.7149 11.9193 27.2524 15.5581C27.7899 19.1968 30.8973 21.9021 34.5754 21.9334C35.3207 21.9322 36.0618 21.8208 36.7745 21.6028C40.2984 20.5181 42.5029 17.0236 41.9644 13.3761C41.4258 9.72853 38.3055 7.02016 34.6185 7" fill="#CCCDD7"/>
<path d="M41.8985 11.2042C40.304 11.2048 38.973 12.4213 38.8293 14.0093C38.6857 15.5974 39.7766 17.0329 41.3451 17.3198C41.5299 17.3544 41.7176 17.3712 41.9057 17.3701C43.5002 17.3694 44.8311 16.153 44.9748 14.565C45.1185 12.9769 44.0275 11.5413 42.459 11.2545C42.2742 11.2199 42.0865 11.203 41.8985 11.2042" fill="white"/>
<path d="M58.4951 29.5H56.1514V18.125H58.4951V29.5ZM62.6045 21.0469L62.6748 22.0234C63.279 21.2682 64.0889 20.8906 65.1045 20.8906C66.0003 20.8906 66.667 21.1536 67.1045 21.6797C67.542 22.2057 67.766 22.9922 67.7764 24.0391V29.5H65.5186V24.0938C65.5186 23.6146 65.4144 23.2682 65.2061 23.0547C64.9977 22.8359 64.6514 22.7266 64.167 22.7266C63.5316 22.7266 63.055 22.9974 62.7373 23.5391V29.5H60.4795V21.0469H62.6045ZM73.0107 27.8359C73.4274 27.8359 73.766 27.7214 74.0264 27.4922C74.2868 27.263 74.4222 26.9583 74.4326 26.5781H76.5498C76.5446 27.151 76.3883 27.6771 76.0811 28.1562C75.7738 28.6302 75.3519 29 74.8154 29.2656C74.2842 29.526 73.6956 29.6562 73.0498 29.6562C71.8415 29.6562 70.8883 29.2734 70.1904 28.5078C69.4925 27.737 69.1436 26.6745 69.1436 25.3203V25.1719C69.1436 23.8698 69.4899 22.8307 70.1826 22.0547C70.8753 21.2786 71.8258 20.8906 73.0342 20.8906C74.0915 20.8906 74.9378 21.1927 75.5732 21.7969C76.2139 22.3958 76.5394 23.1953 76.5498 24.1953H74.4326C74.4222 23.7578 74.2868 23.4036 74.0264 23.1328C73.766 22.8568 73.4222 22.7188 72.9951 22.7188C72.4691 22.7188 72.0706 22.9115 71.7998 23.2969C71.5342 23.6771 71.4014 24.2969 71.4014 25.1562V25.3906C71.4014 26.2604 71.5342 26.8854 71.7998 27.2656C72.0654 27.6458 72.4691 27.8359 73.0107 27.8359ZM80.2217 29.5H77.9561V17.5H80.2217V29.5ZM87.1514 28.6406C86.5941 29.3177 85.8232 29.6562 84.8389 29.6562C83.9326 29.6562 83.2399 29.3958 82.7607 28.875C82.2868 28.3542 82.0446 27.5911 82.0342 26.5859V21.0469H84.292V26.5078C84.292 27.388 84.693 27.8281 85.4951 27.8281C86.2607 27.8281 86.7868 27.5625 87.0732 27.0312V21.0469H89.3389V29.5H87.2139L87.1514 28.6406ZM95.6201 27.1641C95.6201 26.888 95.4821 26.6719 95.2061 26.5156C94.9352 26.3542 94.4977 26.2109 93.8936 26.0859C91.8831 25.6641 90.8779 24.8099 90.8779 23.5234C90.8779 22.7734 91.1878 22.1484 91.8076 21.6484C92.4326 21.1432 93.2477 20.8906 94.2529 20.8906C95.3258 20.8906 96.1826 21.1432 96.8232 21.6484C97.4691 22.1536 97.792 22.8099 97.792 23.6172H95.5342C95.5342 23.2943 95.43 23.0286 95.2217 22.8203C95.0133 22.6068 94.6878 22.5 94.2451 22.5C93.8649 22.5 93.5706 22.5859 93.3623 22.7578C93.154 22.9297 93.0498 23.1484 93.0498 23.4141C93.0498 23.6641 93.167 23.8672 93.4014 24.0234C93.641 24.1745 94.042 24.3073 94.6045 24.4219C95.167 24.5312 95.641 24.6562 96.0264 24.7969C97.2191 25.2344 97.8154 25.9922 97.8154 27.0703C97.8154 27.8411 97.4847 28.4661 96.8232 28.9453C96.1618 29.4193 95.3076 29.6562 94.2607 29.6562C93.5524 29.6562 92.9222 29.5312 92.3701 29.2812C91.8232 29.026 91.3936 28.6797 91.0811 28.2422C90.7686 27.7995 90.6123 27.3229 90.6123 26.8125H92.7529C92.7738 27.2135 92.9222 27.5208 93.1982 27.7344C93.4743 27.9479 93.8441 28.0547 94.3076 28.0547C94.7399 28.0547 95.0654 27.974 95.2842 27.8125C95.5081 27.6458 95.6201 27.4297 95.6201 27.1641ZM101.659 29.5H99.3936V21.0469H101.659V29.5ZM99.2607 18.8594C99.2607 18.5208 99.3727 18.2422 99.5967 18.0234C99.8258 17.8047 100.136 17.6953 100.526 17.6953C100.912 17.6953 101.219 17.8047 101.448 18.0234C101.677 18.2422 101.792 18.5208 101.792 18.8594C101.792 19.2031 101.675 19.4844 101.44 19.7031C101.211 19.9219 100.907 20.0312 100.526 20.0312C100.146 20.0312 99.8389 19.9219 99.6045 19.7031C99.3753 19.4844 99.2607 19.2031 99.2607 18.8594ZM103.175 25.1953C103.175 24.3568 103.336 23.6094 103.659 22.9531C103.982 22.2969 104.446 21.7891 105.05 21.4297C105.659 21.0703 106.365 20.8906 107.167 20.8906C108.308 20.8906 109.237 21.2396 109.956 21.9375C110.68 22.6354 111.084 23.5833 111.167 24.7812L111.183 25.3594C111.183 26.6562 110.821 27.6979 110.097 28.4844C109.373 29.2656 108.401 29.6562 107.183 29.6562C105.964 29.6562 104.99 29.2656 104.261 28.4844C103.537 27.7031 103.175 26.6406 103.175 25.2969V25.1953ZM105.433 25.3594C105.433 26.1615 105.584 26.776 105.886 27.2031C106.188 27.625 106.62 27.8359 107.183 27.8359C107.729 27.8359 108.157 27.6276 108.464 27.2109C108.771 26.7891 108.925 26.1172 108.925 25.1953C108.925 24.4089 108.771 23.7995 108.464 23.3672C108.157 22.9349 107.724 22.7188 107.167 22.7188C106.615 22.7188 106.188 22.9349 105.886 23.3672C105.584 23.7943 105.433 24.4583 105.433 25.3594ZM114.651 21.0469L114.722 22.0234C115.326 21.2682 116.136 20.8906 117.151 20.8906C118.047 20.8906 118.714 21.1536 119.151 21.6797C119.589 22.2057 119.813 22.9922 119.823 24.0391V29.5H117.565V24.0938C117.565 23.6146 117.461 23.2682 117.253 23.0547C117.045 22.8359 116.698 22.7266 116.214 22.7266C115.578 22.7266 115.102 22.9974 114.784 23.5391V29.5H112.526V21.0469H114.651ZM134.604 25.7109C134.516 26.9349 134.063 27.8984 133.245 28.6016C132.433 29.3047 131.36 29.6562 130.026 29.6562C128.568 29.6562 127.42 29.1667 126.581 28.1875C125.748 27.2031 125.331 25.8542 125.331 24.1406V23.4453C125.331 22.3516 125.524 21.388 125.909 20.5547C126.295 19.7214 126.844 19.0833 127.558 18.6406C128.276 18.1927 129.11 17.9688 130.058 17.9688C131.37 17.9688 132.427 18.3203 133.229 19.0234C134.032 19.7266 134.495 20.7135 134.62 21.9844H132.276C132.219 21.25 132.013 20.7188 131.659 20.3906C131.31 20.0573 130.776 19.8906 130.058 19.8906C129.276 19.8906 128.69 20.1719 128.3 20.7344C127.914 21.2917 127.716 22.1589 127.706 23.3359V24.1953C127.706 25.4245 127.891 26.3229 128.261 26.8906C128.636 27.4583 129.224 27.7422 130.026 27.7422C130.75 27.7422 131.289 27.5781 131.644 27.25C132.003 26.9167 132.209 26.4036 132.261 25.7109H134.604ZM135.644 25.1953C135.644 24.3568 135.805 23.6094 136.128 22.9531C136.451 22.2969 136.914 21.7891 137.519 21.4297C138.128 21.0703 138.834 20.8906 139.636 20.8906C140.776 20.8906 141.706 21.2396 142.425 21.9375C143.149 22.6354 143.552 23.5833 143.636 24.7812L143.651 25.3594C143.651 26.6562 143.289 27.6979 142.565 28.4844C141.841 29.2656 140.87 29.6562 139.651 29.6562C138.433 29.6562 137.459 29.2656 136.729 28.4844C136.006 27.7031 135.644 26.6406 135.644 25.2969V25.1953ZM137.901 25.3594C137.901 26.1615 138.052 26.776 138.354 27.2031C138.657 27.625 139.089 27.8359 139.651 27.8359C140.198 27.8359 140.625 27.6276 140.933 27.2109C141.24 26.7891 141.394 26.1172 141.394 25.1953C141.394 24.4089 141.24 23.7995 140.933 23.3672C140.625 22.9349 140.193 22.7188 139.636 22.7188C139.084 22.7188 138.657 22.9349 138.354 23.3672C138.052 23.7943 137.901 24.4583 137.901 25.3594ZM147.12 21.0469L147.19 22.0234C147.795 21.2682 148.604 20.8906 149.62 20.8906C150.516 20.8906 151.183 21.1536 151.62 21.6797C152.058 22.2057 152.282 22.9922 152.292 24.0391V29.5H150.034V24.0938C150.034 23.6146 149.93 23.2682 149.722 23.0547C149.513 22.8359 149.167 22.7266 148.683 22.7266C148.047 22.7266 147.571 22.9974 147.253 23.5391V29.5H144.995V21.0469H147.12ZM156.089 21.0469L156.159 22.0234C156.763 21.2682 157.573 20.8906 158.589 20.8906C159.485 20.8906 160.151 21.1536 160.589 21.6797C161.026 22.2057 161.25 22.9922 161.261 24.0391V29.5H159.003V24.0938C159.003 23.6146 158.899 23.2682 158.69 23.0547C158.482 22.8359 158.136 22.7266 157.651 22.7266C157.016 22.7266 156.539 22.9974 156.222 23.5391V29.5H153.964V21.0469H156.089ZM166.87 29.6562C165.631 29.6562 164.62 29.276 163.839 28.5156C163.063 27.7552 162.675 26.7422 162.675 25.4766V25.2578C162.675 24.4089 162.839 23.651 163.167 22.9844C163.495 22.3125 163.959 21.7969 164.558 21.4375C165.162 21.0729 165.849 20.8906 166.62 20.8906C167.776 20.8906 168.685 21.2552 169.347 21.9844C170.013 22.7135 170.347 23.7474 170.347 25.0859V26.0078H164.964C165.037 26.5599 165.256 27.0026 165.62 27.3359C165.99 27.6693 166.456 27.8359 167.019 27.8359C167.888 27.8359 168.568 27.5208 169.058 26.8906L170.167 28.1328C169.828 28.612 169.37 28.987 168.792 29.2578C168.214 29.5234 167.573 29.6562 166.87 29.6562ZM166.612 22.7188C166.164 22.7188 165.8 22.8698 165.519 23.1719C165.243 23.474 165.065 23.9062 164.987 24.4688H168.128V24.2891C168.118 23.7891 167.982 23.4036 167.722 23.1328C167.461 22.8568 167.091 22.7188 166.612 22.7188ZM175.151 27.8359C175.568 27.8359 175.907 27.7214 176.167 27.4922C176.427 27.263 176.563 26.9583 176.573 26.5781H178.69C178.685 27.151 178.529 27.6771 178.222 28.1562C177.914 28.6302 177.493 29 176.956 29.2656C176.425 29.526 175.836 29.6562 175.19 29.6562C173.982 29.6562 173.029 29.2734 172.331 28.5078C171.633 27.737 171.284 26.6745 171.284 25.3203V25.1719C171.284 23.8698 171.631 22.8307 172.323 22.0547C173.016 21.2786 173.966 20.8906 175.175 20.8906C176.232 20.8906 177.078 21.1927 177.714 21.7969C178.354 22.3958 178.68 23.1953 178.69 24.1953H176.573C176.563 23.7578 176.427 23.4036 176.167 23.1328C175.907 22.8568 175.563 22.7188 175.136 22.7188C174.61 22.7188 174.211 22.9115 173.94 23.2969C173.675 23.6771 173.542 24.2969 173.542 25.1562V25.3906C173.542 26.2604 173.675 26.8854 173.94 27.2656C174.206 27.6458 174.61 27.8359 175.151 27.8359ZM182.683 18.9688V21.0469H184.128V22.7031H182.683V26.9219C182.683 27.2344 182.743 27.4583 182.862 27.5938C182.982 27.7292 183.211 27.7969 183.55 27.7969C183.8 27.7969 184.021 27.7786 184.214 27.7422V29.4531C183.771 29.5885 183.315 29.6562 182.847 29.6562C181.263 29.6562 180.456 28.8568 180.425 27.2578V22.7031H179.19V21.0469H180.425V18.9688H182.683Z" fill="white"/>
<rect x="1" y="1" width="196" height="47" rx="3" stroke="#000638" stroke-width="2"/>
</svg>
