<svg width="271" height="62" viewBox="0 0 271 62" fill="none" xmlns="http://www.w3.org/2000/svg">
<path d="M27.0392 30.264C26.2134 30.2629 25.3921 30.3869 24.6035 30.6319C20.6602 31.8243 18.1892 35.7298 18.8003 39.8039C19.4114 43.878 22.9195 46.8865 27.0392 46.8695C27.8687 46.8654 28.6934 46.7415 29.4875 46.5016C33.3963 45.2762 35.8288 41.3848 35.2181 37.3342C34.6073 33.2835 31.1355 30.2824 27.0392 30.264Z" fill="#80829B"/>
<path d="M24.7557 33.8411C25.5352 36.2965 24.7521 38.9794 22.7743 40.63C20.7964 42.2806 18.0167 42.571 15.7404 41.3648C13.4642 40.1587 12.1435 37.6955 12.3986 35.1321C12.6538 32.5686 14.434 30.4141 16.9034 29.6803C20.2174 28.6954 23.7097 30.5459 24.7557 33.8411Z" fill="#000638"/>
<path d="M42.7185 53.7354C43.7282 57.0156 41.8883 60.4934 38.6086 61.5043C35.3288 62.5152 31.8503 60.6767 30.8382 57.3972C29.826 54.1178 31.6632 50.6387 34.9423 49.6253C36.5185 49.1382 38.2237 49.2976 39.6823 50.0686C41.1409 50.8395 42.2332 52.1587 42.7185 53.7354Z" fill="#000638"/>
<path d="M4.29385 44.5519C3.86395 44.5527 3.43651 44.6168 3.0253 44.7422C0.881556 45.403 -0.390408 47.6046 0.107819 49.7919C0.606046 51.9792 2.70603 53.4127 4.92451 53.0799C7.14298 52.7471 8.72996 50.7606 8.56452 48.5234C8.39908 46.2862 6.53715 44.5547 4.29385 44.5519" fill="#000638"/>
<path d="M43.8983 36.8801C43.5841 36.8766 43.2715 36.9237 42.9723 37.0196C41.4723 37.4799 40.5343 38.9679 40.766 40.5197C40.9977 42.0715 42.3293 43.2207 43.8983 43.2229C44.2162 43.22 44.5321 43.173 44.837 43.0833C46.3393 42.6223 47.2775 41.1307 47.0424 39.5769C46.8073 38.0232 45.4697 36.8759 43.8983 36.8801Z" fill="#CCCDD7"/>
<path d="M9.82474 12.3035C9.1192 12.3032 8.41772 12.4101 7.74431 12.6206C4.21956 13.7149 2.13439 17.3414 2.96193 20.9382C3.78948 24.5349 7.24988 26.8855 10.8984 26.3293C14.547 25.7731 17.1498 22.4982 16.8681 18.8183C16.5864 15.1384 13.5154 12.2978 9.82474 12.3035Z" fill="#80829B"/>
<path d="M38.139 0C36.8223 0.00027183 35.5134 0.201324 34.2572 0.596223C28.0578 2.52622 24.1874 8.68358 25.1362 15.1068C26.085 21.53 31.5703 26.3054 38.0629 26.3607C39.3785 26.3586 40.6866 26.1619 41.9447 25.7771C48.1651 23.8623 52.0566 17.6937 51.106 11.2551C50.1554 4.81644 44.6474 0.0355894 38.139 0" fill="#CCCDD7"/>
<path d="M50.9895 7.42087C48.1748 7.42206 45.8255 9.56934 45.5718 12.3726C45.3182 15.1758 47.244 17.7099 50.0127 18.2163C50.339 18.2773 50.6703 18.3071 51.0022 18.3051C53.8169 18.3039 56.1662 16.1566 56.4199 13.3534C56.6735 10.5502 54.7478 8.01606 51.979 7.50967C51.6528 7.44864 51.3214 7.41891 50.9895 7.42087Z" fill="#000638"/>
<path d="M62.278 47.2791C61.7207 47.2791 61.2953 47.1251 61.002 46.8171C60.7087 46.5091 60.562 46.0764 60.562 45.5191V33.1331C60.562 31.9597 61.134 31.3731 62.278 31.3731C63.4073 31.3731 63.972 31.9597 63.972 33.1331V45.5191C63.972 46.6924 63.4073 47.2791 62.278 47.2791ZM68.4793 47.2791C67.3646 47.2791 66.8073 46.7144 66.8073 45.5851V37.7751C66.8073 36.6604 67.3499 36.1031 68.4352 36.1031C69.5206 36.1031 70.0633 36.6604 70.0633 37.7751V37.8631C70.4299 37.2764 70.9213 36.8291 71.5373 36.5211C72.1533 36.2131 72.8426 36.0591 73.6053 36.0591C74.8813 36.0591 75.8346 36.4331 76.4653 37.1811C77.0959 37.9144 77.4113 39.0511 77.4113 40.5911V45.5851C77.4113 46.7144 76.8539 47.2791 75.7393 47.2791C75.2113 47.2791 74.8006 47.1324 74.5073 46.8391C74.2286 46.5457 74.0893 46.1277 74.0893 45.5851V40.7451C74.0893 39.9971 73.9499 39.4617 73.6713 39.1391C73.3926 38.8017 72.9819 38.6331 72.4393 38.6331C71.7353 38.6331 71.1706 38.8531 70.7453 39.2931C70.3346 39.7331 70.1293 40.3197 70.1293 41.0531V45.5851C70.1293 46.7144 69.5793 47.2791 68.4793 47.2791ZM85.1492 47.3231C83.9759 47.3231 82.9492 47.0957 82.0692 46.6411C81.2039 46.1717 80.5366 45.5117 80.0672 44.6611C79.5979 43.8104 79.3632 42.8057 79.3632 41.6471C79.3632 40.4884 79.5979 39.4911 80.0672 38.6551C80.5366 37.8191 81.2039 37.1811 82.0692 36.7411C82.9492 36.2864 83.9759 36.0591 85.1492 36.0591C85.6039 36.0591 86.0879 36.1177 86.6012 36.2351C87.1292 36.3377 87.6352 36.5211 88.1192 36.7851C88.4859 36.9611 88.7132 37.2104 88.8012 37.5331C88.8892 37.8411 88.8672 38.1491 88.7352 38.4571C88.6179 38.7651 88.4199 38.9924 88.1412 39.1391C87.8772 39.2711 87.5619 39.2417 87.1952 39.0511C86.6086 38.7431 86.0366 38.5891 85.4792 38.5891C84.6139 38.5891 83.9392 38.8604 83.4552 39.4031C82.9859 39.9311 82.7512 40.6864 82.7512 41.6691C82.7512 42.6371 82.9859 43.3997 83.4552 43.9571C83.9392 44.4997 84.6139 44.7711 85.4792 44.7711C85.7432 44.7711 86.0219 44.7417 86.3152 44.6831C86.6086 44.6097 86.9019 44.4924 87.1952 44.3311C87.5619 44.1404 87.8772 44.1184 88.1412 44.2651C88.4199 44.4117 88.6106 44.6391 88.7132 44.9471C88.8159 45.2404 88.8232 45.5484 88.7352 45.8711C88.6472 46.1937 88.4272 46.4431 88.0752 46.6191C87.5766 46.8684 87.0779 47.0444 86.5792 47.1471C86.0806 47.2644 85.6039 47.3231 85.1492 47.3231ZM94.2911 47.3231C91.6951 47.3231 90.3971 45.8784 90.3971 42.9891V33.0671C90.3971 31.9377 90.9544 31.3731 92.0691 31.3731C93.1691 31.3731 93.7191 31.9377 93.7191 33.0671V42.8571C93.7191 43.4584 93.8438 43.9057 94.0931 44.1991C94.3571 44.4777 94.7018 44.6171 95.1271 44.6171C95.2444 44.6171 95.3544 44.6097 95.4571 44.5951C95.5744 44.5804 95.6844 44.5731 95.7871 44.5731C96.0218 44.5584 96.1831 44.6317 96.2711 44.7931C96.3738 44.9544 96.4251 45.2844 96.4251 45.7831C96.4251 46.6337 96.0658 47.1177 95.3471 47.2351C95.2004 47.2497 95.0318 47.2644 94.8411 47.2791C94.6504 47.3084 94.4671 47.3231 94.2911 47.3231ZM101.705 47.3231C100.327 47.3231 99.3073 46.9417 98.6473 46.1791C98.0019 45.4164 97.6793 44.2724 97.6793 42.7471V37.7751C97.6793 36.6604 98.2293 36.1031 99.3293 36.1031C100.444 36.1031 101.001 36.6604 101.001 37.7751V42.8351C101.001 44.1111 101.551 44.7491 102.651 44.7491C103.282 44.7491 103.795 44.5291 104.191 44.0891C104.602 43.6344 104.807 43.0404 104.807 42.3071V37.7751C104.807 36.6604 105.357 36.1031 106.457 36.1031C107.572 36.1031 108.129 36.6604 108.129 37.7751V45.5851C108.129 46.7144 107.594 47.2791 106.523 47.2791C105.995 47.2791 105.592 47.1324 105.313 46.8391C105.035 46.5457 104.895 46.1351 104.895 45.6071C104.177 46.7511 103.113 47.3231 101.705 47.3231ZM114.836 47.3231C114.19 47.3231 113.523 47.2644 112.834 47.1471C112.159 47.0297 111.543 46.8317 110.986 46.5531C110.619 46.3624 110.377 46.1204 110.26 45.8271C110.157 45.5337 110.157 45.2477 110.26 44.9691C110.362 44.6904 110.546 44.4851 110.81 44.3531C111.074 44.2064 111.382 44.2064 111.734 44.3531C112.335 44.6024 112.885 44.7784 113.384 44.8811C113.897 44.9837 114.388 45.0351 114.858 45.0351C115.474 45.0351 115.928 44.9397 116.222 44.7491C116.515 44.5437 116.662 44.2797 116.662 43.9571C116.662 43.4437 116.288 43.1211 115.54 42.9891L113.23 42.5711C112.306 42.4097 111.602 42.0797 111.118 41.5811C110.634 41.0824 110.392 40.4297 110.392 39.6231C110.392 38.8897 110.597 38.2591 111.008 37.7311C111.418 37.2031 111.983 36.7924 112.702 36.4991C113.42 36.2057 114.249 36.0591 115.188 36.0591C116.478 36.0591 117.622 36.3084 118.62 36.8071C118.957 36.9684 119.162 37.1957 119.236 37.4891C119.324 37.7824 119.309 38.0684 119.192 38.3471C119.074 38.6257 118.884 38.8384 118.62 38.9851C118.356 39.1171 118.04 39.1024 117.674 38.9411C117.19 38.7211 116.75 38.5671 116.354 38.4791C115.958 38.3764 115.584 38.3251 115.232 38.3251C114.572 38.3251 114.095 38.4351 113.802 38.6551C113.508 38.8604 113.362 39.1244 113.362 39.4471C113.362 39.9604 113.706 40.2831 114.396 40.4151L116.706 40.8331C117.659 40.9944 118.385 41.3171 118.884 41.8011C119.382 42.2704 119.632 42.9157 119.632 43.7371C119.632 44.8664 119.192 45.7464 118.312 46.3771C117.432 47.0077 116.273 47.3231 114.836 47.3231ZM123.2 34.2991C122.584 34.2991 122.107 34.1597 121.77 33.8811C121.447 33.5877 121.286 33.1771 121.286 32.6491C121.286 32.1064 121.447 31.6957 121.77 31.4171C122.107 31.1237 122.584 30.9771 123.2 30.9771C124.461 30.9771 125.092 31.5344 125.092 32.6491C125.092 33.7491 124.461 34.2991 123.2 34.2991ZM123.2 47.2571C122.657 47.2571 122.239 47.1031 121.946 46.7951C121.667 46.4724 121.528 46.0251 121.528 45.4531V37.9291C121.528 36.7117 122.085 36.1031 123.2 36.1031C123.728 36.1031 124.131 36.2644 124.41 36.5871C124.703 36.8951 124.85 37.3424 124.85 37.9291V45.4531C124.85 46.0251 124.711 46.4724 124.432 46.7951C124.153 47.1031 123.743 47.2571 123.2 47.2571ZM132.607 47.3231C131.448 47.3231 130.436 47.0957 129.571 46.6411C128.72 46.1717 128.06 45.5191 127.591 44.6831C127.121 43.8324 126.887 42.8277 126.887 41.6691C126.887 40.5251 127.121 39.5351 127.591 38.6991C128.06 37.8484 128.72 37.1957 129.571 36.7411C130.436 36.2864 131.448 36.0591 132.607 36.0591C133.765 36.0591 134.77 36.2864 135.621 36.7411C136.486 37.1957 137.153 37.8484 137.623 38.6991C138.107 39.5351 138.349 40.5251 138.349 41.6691C138.349 42.8277 138.107 43.8324 137.623 44.6831C137.153 45.5191 136.486 46.1717 135.621 46.6411C134.77 47.0957 133.765 47.3231 132.607 47.3231ZM132.607 44.8371C133.311 44.8371 133.883 44.5804 134.323 44.0671C134.777 43.5537 135.005 42.7544 135.005 41.6691C135.005 40.5984 134.777 39.8137 134.323 39.3151C133.883 38.8017 133.311 38.5451 132.607 38.5451C131.903 38.5451 131.331 38.8017 130.891 39.3151C130.451 39.8137 130.231 40.5984 130.231 41.6691C130.231 42.7544 130.451 43.5537 130.891 44.0671C131.331 44.5804 131.903 44.8371 132.607 44.8371ZM142.042 47.2791C140.927 47.2791 140.37 46.7144 140.37 45.5851V37.7751C140.37 36.6604 140.912 36.1031 141.998 36.1031C143.083 36.1031 143.626 36.6604 143.626 37.7751V37.8631C143.992 37.2764 144.484 36.8291 145.1 36.5211C145.716 36.2131 146.405 36.0591 147.168 36.0591C148.444 36.0591 149.397 36.4331 150.028 37.1811C150.658 37.9144 150.974 39.0511 150.974 40.5911V45.5851C150.974 46.7144 150.416 47.2791 149.302 47.2791C148.774 47.2791 148.363 47.1324 148.07 46.8391C147.791 46.5457 147.652 46.1277 147.652 45.5851V40.7451C147.652 39.9971 147.512 39.4617 147.234 39.1391C146.955 38.8017 146.544 38.6331 146.002 38.6331C145.298 38.6331 144.733 38.8531 144.308 39.2931C143.897 39.7331 143.692 40.3197 143.692 41.0531V45.5851C143.692 46.7144 143.142 47.2791 142.042 47.2791ZM167.408 47.3231C165.736 47.3231 164.306 46.9931 163.118 46.3331C161.93 45.6731 161.014 44.7491 160.368 43.5611C159.738 42.3584 159.422 40.9431 159.422 39.3151C159.422 37.7017 159.738 36.3011 160.368 35.1131C161.014 33.9104 161.93 32.9791 163.118 32.3191C164.306 31.6591 165.736 31.3291 167.408 31.3291C168.142 31.3291 168.882 31.4244 169.63 31.6151C170.393 31.8057 171.053 32.0624 171.61 32.3851C172.065 32.6491 172.344 32.9791 172.446 33.3751C172.549 33.7711 172.512 34.1451 172.336 34.4971C172.175 34.8491 171.918 35.0984 171.566 35.2451C171.214 35.3917 170.818 35.3404 170.378 35.0911C169.938 34.8271 169.476 34.6364 168.992 34.5191C168.508 34.4017 168.017 34.3431 167.518 34.3431C166.037 34.3431 164.915 34.7757 164.152 35.6411C163.404 36.4917 163.03 37.7164 163.03 39.3151C163.03 40.9137 163.404 42.1457 164.152 43.0111C164.915 43.8764 166.037 44.3091 167.518 44.3091C167.988 44.3091 168.464 44.2504 168.948 44.1331C169.447 44.0157 169.924 43.8324 170.378 43.5831C170.848 43.3337 171.258 43.2824 171.61 43.4291C171.962 43.5611 172.219 43.7957 172.38 44.1331C172.556 44.4557 172.6 44.8151 172.512 45.2111C172.424 45.5924 172.175 45.9077 171.764 46.1571C171.207 46.5237 170.532 46.8097 169.74 47.0151C168.963 47.2204 168.186 47.3231 167.408 47.3231ZM179.056 47.3231C177.897 47.3231 176.885 47.0957 176.02 46.6411C175.169 46.1717 174.509 45.5191 174.04 44.6831C173.571 43.8324 173.336 42.8277 173.336 41.6691C173.336 40.5251 173.571 39.5351 174.04 38.6991C174.509 37.8484 175.169 37.1957 176.02 36.7411C176.885 36.2864 177.897 36.0591 179.056 36.0591C180.215 36.0591 181.219 36.2864 182.07 36.7411C182.935 37.1957 183.603 37.8484 184.072 38.6991C184.556 39.5351 184.798 40.5251 184.798 41.6691C184.798 42.8277 184.556 43.8324 184.072 44.6831C183.603 45.5191 182.935 46.1717 182.07 46.6411C181.219 47.0957 180.215 47.3231 179.056 47.3231ZM179.056 44.8371C179.76 44.8371 180.332 44.5804 180.772 44.0671C181.227 43.5537 181.454 42.7544 181.454 41.6691C181.454 40.5984 181.227 39.8137 180.772 39.3151C180.332 38.8017 179.76 38.5451 179.056 38.5451C178.352 38.5451 177.78 38.8017 177.34 39.3151C176.9 39.8137 176.68 40.5984 176.68 41.6691C176.68 42.7544 176.9 43.5537 177.34 44.0671C177.78 44.5804 178.352 44.8371 179.056 44.8371ZM188.491 47.2791C187.376 47.2791 186.819 46.7144 186.819 45.5851V37.7751C186.819 36.6604 187.362 36.1031 188.447 36.1031C189.532 36.1031 190.075 36.6604 190.075 37.7751V37.8631C190.442 37.2764 190.933 36.8291 191.549 36.5211C192.165 36.2131 192.854 36.0591 193.617 36.0591C194.893 36.0591 195.846 36.4331 196.477 37.1811C197.108 37.9144 197.423 39.0511 197.423 40.5911V45.5851C197.423 46.7144 196.866 47.2791 195.751 47.2791C195.223 47.2791 194.812 47.1324 194.519 46.8391C194.24 46.5457 194.101 46.1277 194.101 45.5851V40.7451C194.101 39.9971 193.962 39.4617 193.683 39.1391C193.404 38.8017 192.994 38.6331 192.451 38.6331C191.747 38.6331 191.182 38.8531 190.757 39.2931C190.346 39.7331 190.141 40.3197 190.141 41.0531V45.5851C190.141 46.7144 189.591 47.2791 188.491 47.2791ZM201.575 47.2791C200.46 47.2791 199.903 46.7144 199.903 45.5851V37.7751C199.903 36.6604 200.446 36.1031 201.531 36.1031C202.616 36.1031 203.159 36.6604 203.159 37.7751V37.8631C203.526 37.2764 204.017 36.8291 204.633 36.5211C205.249 36.2131 205.938 36.0591 206.701 36.0591C207.977 36.0591 208.93 36.4331 209.561 37.1811C210.192 37.9144 210.507 39.0511 210.507 40.5911V45.5851C210.507 46.7144 209.95 47.2791 208.835 47.2791C208.307 47.2791 207.896 47.1324 207.603 46.8391C207.324 46.5457 207.185 46.1277 207.185 45.5851V40.7451C207.185 39.9971 207.046 39.4617 206.767 39.1391C206.488 38.8017 206.078 38.6331 205.535 38.6331C204.831 38.6331 204.266 38.8531 203.841 39.2931C203.43 39.7331 203.225 40.3197 203.225 41.0531V45.5851C203.225 46.7144 202.675 47.2791 201.575 47.2791ZM218.597 47.3231C217.321 47.3231 216.221 47.0957 215.297 46.6411C214.388 46.1717 213.684 45.5191 213.185 44.6831C212.701 43.8324 212.459 42.8351 212.459 41.6911C212.459 40.5764 212.694 39.6011 213.163 38.7651C213.647 37.9144 214.3 37.2544 215.121 36.7851C215.957 36.3011 216.918 36.0591 218.003 36.0591C219.572 36.0591 220.819 36.5577 221.743 37.5551C222.667 38.5377 223.129 39.8724 223.129 41.5591C223.129 42.1164 222.784 42.3951 222.095 42.3951H215.627C215.744 43.2457 216.052 43.8691 216.551 44.2651C217.064 44.6464 217.768 44.8371 218.663 44.8371C219.015 44.8371 219.411 44.8004 219.851 44.7271C220.306 44.6391 220.738 44.4924 221.149 44.2871C221.574 44.0817 221.934 44.0451 222.227 44.1771C222.52 44.2944 222.718 44.4997 222.821 44.7931C222.938 45.0864 222.938 45.3944 222.821 45.7171C222.718 46.0251 222.476 46.2817 222.095 46.4871C221.582 46.7657 221.01 46.9711 220.379 47.1031C219.763 47.2497 219.169 47.3231 218.597 47.3231ZM218.135 38.2591C217.431 38.2591 216.859 38.4717 216.419 38.8971C215.994 39.3224 215.73 39.9164 215.627 40.6791H220.379C220.291 39.0657 219.543 38.2591 218.135 38.2591ZM230.319 47.3231C229.146 47.3231 228.119 47.0957 227.239 46.6411C226.374 46.1717 225.706 45.5117 225.237 44.6611C224.768 43.8104 224.533 42.8057 224.533 41.6471C224.533 40.4884 224.768 39.4911 225.237 38.6551C225.706 37.8191 226.374 37.1811 227.239 36.7411C228.119 36.2864 229.146 36.0591 230.319 36.0591C230.774 36.0591 231.258 36.1177 231.771 36.2351C232.299 36.3377 232.805 36.5211 233.289 36.7851C233.656 36.9611 233.883 37.2104 233.971 37.5331C234.059 37.8411 234.037 38.1491 233.905 38.4571C233.788 38.7651 233.59 38.9924 233.311 39.1391C233.047 39.2711 232.732 39.2417 232.365 39.0511C231.778 38.7431 231.206 38.5891 230.649 38.5891C229.784 38.5891 229.109 38.8604 228.625 39.4031C228.156 39.9311 227.921 40.6864 227.921 41.6691C227.921 42.6371 228.156 43.3997 228.625 43.9571C229.109 44.4997 229.784 44.7711 230.649 44.7711C230.913 44.7711 231.192 44.7417 231.485 44.6831C231.778 44.6097 232.072 44.4924 232.365 44.3311C232.732 44.1404 233.047 44.1184 233.311 44.2651C233.59 44.4117 233.78 44.6391 233.883 44.9471C233.986 45.2404 233.993 45.5484 233.905 45.8711C233.817 46.1937 233.597 46.4431 233.245 46.6191C232.746 46.8684 232.248 47.0444 231.749 47.1471C231.25 47.2644 230.774 47.3231 230.319 47.3231ZM240.933 47.3231C237.897 47.3231 236.379 45.8491 236.379 42.9011V38.7651H235.455C234.59 38.7651 234.157 38.3544 234.157 37.5331C234.157 36.6971 234.59 36.2791 235.455 36.2791H236.379V34.6071C236.379 33.4777 236.937 32.9131 238.051 32.9131C239.151 32.9131 239.701 33.4777 239.701 34.6071V36.2791H241.791C242.642 36.2791 243.067 36.6971 243.067 37.5331C243.067 38.3544 242.642 38.7651 241.791 38.7651H239.701V42.7691C239.701 43.3851 239.841 43.8471 240.119 44.1551C240.413 44.4631 240.875 44.6171 241.505 44.6171C241.725 44.6171 241.931 44.5951 242.121 44.5511C242.312 44.5071 242.488 44.4777 242.649 44.4631C242.855 44.4484 243.023 44.5144 243.155 44.6611C243.287 44.8077 243.353 45.1084 243.353 45.5631C243.353 45.9297 243.295 46.2451 243.177 46.5091C243.06 46.7584 242.855 46.9417 242.561 47.0591C242.371 47.1324 242.107 47.1911 241.769 47.2351C241.447 47.2937 241.168 47.3231 240.933 47.3231Z" fill="#1A1F4C"/>
</svg>
