<svg xmlns="http://www.w3.org/2000/svg" width="40" height="44" fill="none" viewBox="0 0 40 44"><path fill="#80829B" d="M19.162 21.45c-.585 0-1.167.088-1.726.261a5.88 5.88 0 0 0 1.726 11.508 6.105 6.105 0 0 0 1.736-.261 5.889 5.889 0 0 0-1.736-11.507Z"/><path fill="#fff" d="M17.544 23.986a4.495 4.495 0 1 1-8.57 2.72 4.495 4.495 0 0 1 8.57-2.72ZM30.274 38.082a4.405 4.405 0 1 1-8.42 2.592 4.405 4.405 0 0 1 8.42-2.592ZM3.043 31.573a3.039 3.039 0 1 0-.008 6.077 3.039 3.039 0 0 0 .008-6.077"/><path fill="#CCCDD7" d="M31.11 26.134a2.247 2.247 0 1 0 .665 4.396 2.248 2.248 0 0 0-.665-4.396ZM6.963 8.72a4.998 4.998 0 1 0 .015 9.997 4.998 4.998 0 0 0-.015-9.997ZM27.029 0a9.34 9.34 0 0 0-.054 18.681A9.34 9.34 0 0 0 27.029 0"/><path fill="#fff" d="M36.136 5.26a3.857 3.857 0 1 0 .009 7.713 3.857 3.857 0 1 0-.01-7.714Z"/></svg>