<svg xmlns="http://www.w3.org/2000/svg" width="286" height="14" fill="none" viewBox="0 0 286 14"><path fill="#fff" d="M.269 11.448c.992 1.2 2.224 1.872 3.984 1.872 2 0 3.552-1.264 3.584-3.264 0-3.776-5.216-3.2-5.216-5.504 0-.848.624-1.44 1.6-1.44.912 0 1.68.528 2.336 1.44l1.36-1.216C7.02 2.216 5.82 1.48 4.205 1.48 2.173 1.48.749 2.888.749 4.6c0 3.744 5.216 3.184 5.216 5.504 0 .944-.64 1.568-1.744 1.568-.976 0-1.872-.528-2.608-1.456L.269 11.448zm17.167.24l-1.2-.96c-.495.672-1.312 1.104-2.288 1.104-1.552 0-2.623-.912-2.736-2.672h5.953a4.1 4.1 0 00.111-.976c0-2.048-1.44-3.568-3.663-3.568-2.56 0-4.096 1.936-4.096 4.352 0 2.352 1.648 4.352 4.431 4.352 1.505 0 2.736-.624 3.488-1.632zm-3.855-5.696c1.296 0 2.016.928 2.048 1.936h-4.336c.256-1.248 1.088-1.936 2.288-1.936zm13.945 5.776c-1.568 0-2.688-1.2-2.688-2.8 0-1.584 1.12-2.8 2.672-2.8.928 0 1.664.448 2.112 1.072l1.296-.992c-.736-.992-1.936-1.632-3.408-1.632-2.704 0-4.4 2-4.4 4.352 0 2.352 1.696 4.352 4.4 4.352 1.488 0 2.672-.64 3.408-1.632l-1.296-.992a2.55 2.55 0 01-2.096 1.072zm8.546-7.152c-2.608 0-4.384 1.968-4.384 4.352 0 2.384 1.776 4.352 4.384 4.352 2.624 0 4.384-1.968 4.384-4.352 0-2.384-1.76-4.352-4.384-4.352zm.016 7.152c-1.552 0-2.672-1.248-2.672-2.8 0-1.552 1.12-2.8 2.672-2.8 1.52 0 2.64 1.232 2.64 2.8 0 1.536-1.12 2.8-2.64 2.8zM42.516 13h1.648V7.56c.416-.704 1.072-1.392 2.176-1.392 1.152 0 1.856.768 1.856 2.048V13h1.664V8.152c0-2.336-1.36-3.536-3.136-3.536-1.152 0-1.952.464-2.56 1.104v-.784h-1.648V13zm9.906 0h1.648V7.56c.416-.704 1.072-1.392 2.176-1.392 1.152 0 1.856.768 1.856 2.048V13h1.664V8.152c0-2.336-1.36-3.536-3.136-3.536-1.152 0-1.952.464-2.56 1.104v-.784h-1.648V13zm17.186-1.312l-1.2-.96c-.496.672-1.312 1.104-2.288 1.104-1.552 0-2.624-.912-2.736-2.672h5.952c.064-.24.112-.608.112-.976 0-2.048-1.44-3.568-3.664-3.568-2.56 0-4.096 1.936-4.096 4.352 0 2.352 1.648 4.352 4.432 4.352 1.504 0 2.736-.624 3.488-1.632zm-3.856-5.696c1.296 0 2.016.928 2.048 1.936h-4.336c.256-1.248 1.088-1.936 2.288-1.936zm9.587 5.776c-1.568 0-2.688-1.2-2.688-2.8 0-1.584 1.12-2.8 2.672-2.8.928 0 1.664.448 2.112 1.072l1.296-.992c-.736-.992-1.936-1.632-3.408-1.632-2.704 0-4.4 2-4.4 4.352 0 2.352 1.696 4.352 4.4 4.352 1.488 0 2.672-.64 3.408-1.632l-1.296-.992a2.55 2.55 0 01-2.096 1.072zm5.61-1.568c0 1.968.992 2.96 2.88 2.96.624 0 1.072-.08 1.456-.24v-1.456c-.288.112-.656.176-1.2.176-.896 0-1.472-.352-1.472-1.44V6.424h2.672V4.936h-2.672V2.92h-1.664v2.016h-1.52v1.488h1.52V10.2zm13.425 1.488l-1.2-.96c-.496.672-1.312 1.104-2.288 1.104-1.552 0-2.624-.912-2.736-2.672h5.952c.064-.24.112-.608.112-.976 0-2.048-1.44-3.568-3.664-3.568-2.56 0-4.096 1.936-4.096 4.352 0 2.352 1.648 4.352 4.432 4.352 1.504 0 2.736-.624 3.488-1.632zm-3.856-5.696c1.296 0 2.016.928 2.048 1.936H88.23c.256-1.248 1.088-1.936 2.288-1.936zM96.375 13h1.648V7.624c.416-.688 1.088-1.232 2.112-1.232a3.3 3.3 0 01.848.112V4.888a2.404 2.404 0 00-.704-.112c-.992 0-1.696.448-2.256 1.072v-.912h-1.648V13zm12.959.24c.992 0 2-.448 2.576-1.152V13h1.648V7.672c0-1.776-1.2-3.056-3.376-3.056-1.44 0-2.592.608-3.312 1.568l1.232.944c.464-.656 1.152-1.056 2.032-1.056 1.04 0 1.776.608 1.776 1.6v.416l-2.608.432c-1.712.288-2.656 1.168-2.656 2.384 0 1.424 1.088 2.336 2.688 2.336zm-1.024-2.4c0-.608.416-1.04 1.424-1.216l2.176-.368v1.392c-.48.768-1.264 1.248-2.272 1.248-.832 0-1.328-.432-1.328-1.056zm6.569-5.904l3.04 8.064h2.192l3.056-8.064h-1.792l-2.352 6.272-2.368-6.272h-1.776zm16.948 6.752l-1.2-.96c-.496.672-1.312 1.104-2.288 1.104-1.552 0-2.624-.912-2.736-2.672h5.952c.064-.24.112-.608.112-.976 0-2.048-1.44-3.568-3.664-3.568-2.56 0-4.096 1.936-4.096 4.352 0 2.352 1.648 4.352 4.432 4.352 1.504 0 2.736-.624 3.488-1.632zm-3.856-5.696c1.296 0 2.016.928 2.048 1.936h-4.336c.256-1.248 1.088-1.936 2.288-1.936zm9.587 5.776c-1.568 0-2.688-1.2-2.688-2.8 0-1.584 1.12-2.8 2.672-2.8.928 0 1.664.448 2.112 1.072l1.296-.992c-.736-.992-1.936-1.632-3.408-1.632-2.704 0-4.4 2-4.4 4.352 0 2.352 1.696 4.352 4.4 4.352 1.488 0 2.672-.64 3.408-1.632l-1.296-.992a2.55 2.55 0 01-2.096 1.072zM147.193 13h2.848V1.8h-2.848V13zm5.441 0h2.544V7.976c.16-.272.56-.976 1.456-.976.816 0 1.248.56 1.248 1.376V13h2.56V8.264c0-2.448-1.408-3.648-3.12-3.648-.944 0-1.616.32-2.144.768v-.448h-2.544V13zm13.828-2.064c-1.088 0-1.856-.768-1.856-1.968 0-1.184.768-1.968 1.808-1.968.704 0 1.2.32 1.488.736l1.984-1.504c-.752-.992-1.952-1.616-3.44-1.616-2.848 0-4.48 2-4.48 4.352 0 2.352 1.632 4.352 4.48 4.352 1.488 0 2.688-.624 3.44-1.616l-1.984-1.504c-.288.416-.8.736-1.44.736zM171.134 13h2.544V1h-2.544v12zm9.729-3.504c0 .848-.432 1.44-1.344 1.44-.944 0-1.36-.592-1.36-1.44v-4.56h-2.56v4.416c0 2.416 1.392 3.968 3.904 3.968 2.48 0 3.92-1.552 3.92-3.968V4.936h-2.56v4.56zm3.804 2.288c.816.928 1.84 1.536 3.392 1.536 1.552 0 3.04-.928 3.072-2.752 0-2.816-3.728-2.4-3.728-3.44 0-.272.208-.496.656-.496.576 0 1.056.432 1.44.88l1.664-1.488c-.608-.784-1.824-1.408-3.104-1.408-1.776 0-3.072 1.104-3.072 2.64 0 2.832 3.728 2.384 3.728 3.488 0 .32-.224.56-.688.56-.72 0-1.264-.48-1.696-1.04l-1.664 1.52zm9.357-7.728c.848 0 1.584-.752 1.584-1.616 0-.864-.736-1.6-1.584-1.6-.88 0-1.616.736-1.616 1.6 0 .864.736 1.616 1.616 1.616zM192.728 13h2.544V4.936h-2.544V13zm8.609-8.384c-2.656 0-4.464 1.888-4.464 4.352 0 2.464 1.808 4.352 4.464 4.352 2.64 0 4.448-1.888 4.448-4.352 0-2.464-1.808-4.352-4.448-4.352zm.016 6.32c-1.056 0-1.84-.768-1.84-1.968S200.297 7 201.353 7c1.024 0 1.808.752 1.808 1.968 0 1.184-.784 1.968-1.808 1.968zM207.384 13h2.544V7.976c.16-.272.56-.976 1.456-.976.816 0 1.248.56 1.248 1.376V13h2.56V8.264c0-2.448-1.408-3.648-3.12-3.648-.944 0-1.616.32-2.144.768v-.448h-2.544V13zm19.677-2.352c-1.792 0-3.072-1.36-3.072-3.248 0-1.872 1.28-3.248 3.072-3.248 1.12 0 1.968.544 2.496 1.312l2.256-1.728c-1.04-1.36-2.704-2.256-4.752-2.256-3.568 0-6 2.72-6 5.92 0 3.2 2.432 5.92 6 5.92 2.048 0 3.712-.896 4.752-2.272l-2.256-1.712a2.97 2.97 0 01-2.496 1.312zm9.901-6.032c-2.656 0-4.464 1.888-4.464 4.352 0 2.464 1.808 4.352 4.464 4.352 2.64 0 4.448-1.888 4.448-4.352 0-2.464-1.808-4.352-4.448-4.352zm.016 6.32c-1.056 0-1.84-.768-1.84-1.968S235.922 7 236.978 7c1.024 0 1.808.752 1.808 1.968 0 1.184-.784 1.968-1.808 1.968zM243.009 13h2.544V7.976c.16-.272.56-.976 1.456-.976.816 0 1.248.56 1.248 1.376V13h2.56V8.264c0-2.448-1.408-3.648-3.12-3.648-.944 0-1.616.32-2.144.768v-.448h-2.544V13zm9.812 0h2.544V7.976c.16-.272.56-.976 1.456-.976.816 0 1.248.56 1.248 1.376V13h2.56V8.264c0-2.448-1.408-3.648-3.12-3.648-.944 0-1.616.32-2.144.768v-.448h-2.544V13zm17.445-1.296l-1.792-1.424c-.368.464-1.04.768-1.808.768-.96 0-1.664-.288-1.904-1.376h5.216c.08-.288.16-.8.16-1.344 0-2.192-1.504-3.712-3.792-3.712-2.736 0-4.192 2.016-4.192 4.352 0 2.352 1.568 4.352 4.528 4.352 1.552 0 2.816-.608 3.584-1.616zm-3.984-5.04c.944 0 1.36.672 1.392 1.216h-2.896c.192-.816.688-1.216 1.504-1.216zm9.524 4.272c-1.088 0-1.856-.768-1.856-1.968 0-1.184.768-1.968 1.808-1.968.704 0 1.2.32 1.488.736l1.984-1.504c-.752-.992-1.952-1.616-3.44-1.616-2.848 0-4.48 2-4.48 4.352 0 2.352 1.632 4.352 4.48 4.352 1.488 0 2.688-.624 3.44-1.616l-1.984-1.504c-.288.416-.8.736-1.44.736zm5.388-1.072c0 1.984.912 3.296 3.104 3.296.752 0 1.248-.096 1.68-.288V10.68c-.24.096-.624.176-1.216.176-.672 0-1.008-.352-1.008-.992V7.208h2.208V4.936h-2.208V2.92h-2.56v2.016h-1.504v2.272h1.504v2.656z"/></svg>