<svg width="133" height="36" viewBox="0 0 133 36" fill="none" xmlns="http://www.w3.org/2000/svg">
<path fill-rule="evenodd" clip-rule="evenodd" d="M37.7139 28.7012C37.7166 28.5901 37.6731 28.4827 37.5937 28.4048L37.6149 28.3977C37.4342 28.2416 37.166 28.2416 36.9853 28.3977C36.9066 28.4786 36.8655 28.5887 36.8721 28.7012V31.5248C36.7209 31.2056 36.4736 30.9415 36.1646 30.7695C35.8443 30.586 35.4798 30.4933 35.1105 30.5012C34.686 30.4941 34.2684 30.6093 33.9079 30.833C33.5547 31.0596 33.2746 31.3831 33.1014 31.7648C32.8997 32.2076 32.8006 32.6902 32.8113 33.1765C32.8025 33.6627 32.9015 34.1448 33.1014 34.5883C33.2679 34.9773 33.5398 35.3122 33.8867 35.5553C34.2444 35.7862 34.6634 35.9042 35.0893 35.8942C35.4586 35.9021 35.823 35.8093 36.1434 35.6259C36.4523 35.4539 36.6997 35.1898 36.8509 34.8706V35.4424C36.8432 35.5572 36.8843 35.6699 36.9641 35.753C37.0456 35.836 37.1591 35.8797 37.2753 35.873C37.3934 35.8782 37.5085 35.8348 37.5937 35.753C37.6753 35.6706 37.7189 35.5581 37.7139 35.4424V28.7012ZM36.8509 33.1765C36.8931 33.7056 36.7479 34.2327 36.4405 34.6659C36.1543 35.0057 35.7245 35.1913 35.2803 35.1671C34.8276 35.1908 34.3909 34.9965 34.106 34.6448C33.7999 34.2184 33.6501 33.7 33.6815 33.1765C33.6533 32.6709 33.8035 32.1714 34.106 31.7647C34.3938 31.4182 34.8301 31.2295 35.2803 31.2565C35.7257 31.234 36.1557 31.4224 36.4405 31.7647C36.7327 32.1758 36.8773 32.6732 36.8509 33.1765Z" fill="#000638"/>
<path fill-rule="evenodd" clip-rule="evenodd" d="M43.5999 34.9553C43.6032 34.8674 43.5729 34.7816 43.515 34.7153C43.4653 34.6528 43.3898 34.6164 43.3099 34.6165C43.1754 34.6455 43.048 34.7006 42.9349 34.7788C42.7299 34.8945 42.5172 34.996 42.2982 35.0823C42.0705 35.1597 41.8313 35.1979 41.5908 35.1953C40.5013 35.1953 39.9212 34.5812 39.8575 33.367H43.2674C43.3683 33.3773 43.4688 33.3439 43.5433 33.2753C43.6066 33.1846 43.6366 33.0749 43.6282 32.9647C43.6632 32.318 43.4508 31.6823 43.0339 31.1859C42.6242 30.7374 42.0356 30.4942 41.428 30.5223C40.9824 30.5142 40.5435 30.6317 40.1617 30.8612C39.7871 31.0902 39.4853 31.4207 39.2915 31.8141C39.0799 32.2541 38.9756 32.7379 38.9873 33.2259C38.9474 33.9485 39.2027 34.6565 39.6948 35.1882C40.2015 35.6754 40.8881 35.931 41.5908 35.8941C41.8702 35.8903 42.1482 35.8524 42.4185 35.7812C42.7047 35.7081 42.9787 35.594 43.232 35.4423C43.4796 35.2941 43.5999 35.1388 43.5999 34.9553ZM39.8787 32.8165C39.8978 32.3723 40.0703 31.9483 40.3669 31.6165C40.6518 31.3252 41.049 31.1708 41.4563 31.1929C41.8475 31.1722 42.228 31.3245 42.4963 31.6094C42.7633 31.9545 42.9032 32.3807 42.8925 32.8165H39.8787Z" fill="#000638"/>
<path d="M48.9978 35.6541C48.7954 35.4768 48.6859 35.2166 48.7007 34.9482V27.1835C48.6859 26.9152 48.7954 26.655 48.9978 26.4777C49.4305 26.1494 50.0295 26.1494 50.4622 26.4777C50.6646 26.655 50.7742 26.9152 50.7593 27.1835V34.9482C50.7742 35.2166 50.6646 35.4768 50.4622 35.6541C50.0295 35.9824 49.4305 35.9824 48.9978 35.6541Z" fill="#000638"/>
<path d="M54.148 26.5553C54.3858 26.8793 54.5011 27.2769 54.4734 27.6776C54.4765 28.6049 54.107 29.4948 53.4476 30.1482C53.3519 30.2673 53.211 30.3415 53.0585 30.3529C52.909 30.3549 52.7646 30.2993 52.6553 30.1976C52.5419 30.1066 52.4767 29.9687 52.4784 29.8235C52.4799 29.6911 52.5332 29.5644 52.627 29.4706C52.9048 29.1837 53.1108 28.8354 53.2283 28.4541C52.9432 28.4386 52.6749 28.3149 52.4784 28.1082C52.2847 27.9051 52.1803 27.6332 52.1883 27.3529C52.1784 27.0419 52.293 26.7396 52.5067 26.5129C52.7153 26.2962 53.005 26.176 53.3061 26.1812C53.629 26.1725 53.9385 26.31 54.148 26.5553Z" fill="#000638"/>
<path fill-rule="evenodd" clip-rule="evenodd" d="M55.7467 26.8871C55.7306 27.1729 55.8451 27.4506 56.058 27.6424V27.6213C56.5692 27.9888 57.2588 27.9888 57.77 27.6213C57.9847 27.4302 58.1017 27.1527 58.0884 26.866C58.0987 26.5824 57.9789 26.3095 57.763 26.1248C57.5235 25.9321 57.2213 25.8341 56.914 25.8495C56.6056 25.833 56.3016 25.9282 56.058 26.1177C55.8392 26.3114 55.724 26.5962 55.7467 26.8871ZM55.8811 34.9483C55.8677 35.215 55.974 35.4737 56.1712 35.6542C56.3739 35.8159 56.6262 35.9031 56.8857 35.9013C57.1433 35.9044 57.3938 35.8169 57.5932 35.6542C57.7956 35.4769 57.9051 35.2167 57.8903 34.9483V30.0071C57.9051 29.7388 57.7956 29.4786 57.5932 29.3013C57.3931 29.1406 57.1425 29.0556 56.8857 29.0613C56.6294 29.0585 56.3798 29.1432 56.1783 29.3013C55.9759 29.4786 55.8663 29.7388 55.8811 30.0071V34.9483Z" fill="#000638"/>
<path d="M65.4954 29.6824C65.9318 30.2987 66.1394 31.0475 66.0826 31.8V34.9412C66.0979 35.2067 65.9942 35.4653 65.7996 35.6471C65.5945 35.8304 65.3246 35.9244 65.0497 35.9083C64.7746 35.926 64.5041 35.8318 64.2998 35.6471C64.1103 35.4624 64.0097 35.2052 64.0239 34.9412V31.8918C64.0503 31.5421 63.9635 31.1933 63.7763 30.8965C63.5765 30.6777 63.2868 30.5631 62.991 30.5859C62.604 30.5692 62.2282 30.7181 61.9582 30.9953C61.6933 31.2939 61.5561 31.6841 61.5762 32.0824V34.9059C61.5904 35.1699 61.4898 35.4271 61.3002 35.6118C61.0952 35.7951 60.8252 35.8891 60.5504 35.873C60.2735 35.8879 60.0018 35.7942 59.7934 35.6118C59.6038 35.4271 59.5033 35.1699 59.5175 34.9059V29.9436C59.502 29.6766 59.6086 29.417 59.8075 29.2377C60.0202 29.0634 60.2895 28.973 60.5645 28.9836C60.8244 28.9646 61.0806 29.0541 61.2719 29.2306C61.4508 29.3986 61.5487 29.6351 61.5408 29.88V30.0636C61.7678 29.7112 62.0854 29.426 62.4605 29.2377C62.8563 29.0436 63.2929 28.9468 63.7339 28.9553C64.4016 28.916 65.0506 29.1839 65.4954 29.6824Z" fill="#000638"/>
<path d="M68.8982 35.5059C68.39 35.2344 67.9758 34.8161 67.7096 34.3059C67.4213 33.7428 67.2778 33.117 67.2922 32.4848C67.2802 31.8427 67.4337 31.2083 67.7379 30.6424C68.0247 30.1211 68.4573 29.6943 68.983 29.4142C69.5548 29.1175 70.1923 28.9694 70.8366 28.9836C71.207 28.9851 71.5756 29.0349 71.9331 29.1318C72.2805 29.2224 72.6121 29.3652 72.9164 29.5554C73.1895 29.707 73.3537 29.9991 73.3409 30.3107C73.3497 30.5159 73.2927 30.7187 73.1782 30.8895C73.0799 31.0341 72.9147 31.1192 72.7396 31.1154C72.6257 31.1154 72.5129 31.0938 72.4071 31.0518L71.9897 30.8683C71.8259 30.7803 71.6556 30.7048 71.4803 30.6424C71.3172 30.5832 71.1445 30.5545 70.971 30.5577C70.5279 30.526 70.0957 30.7038 69.8037 31.0377C69.2752 31.905 69.2752 32.9939 69.8037 33.8612C70.0943 34.1978 70.5267 34.3782 70.971 34.3483C71.1412 34.3527 71.3109 34.3289 71.4733 34.2777C71.6558 34.2107 71.8331 34.1305 72.0038 34.0377L72.4142 33.8542C72.5173 33.8115 72.6279 33.7899 72.7396 33.7907C72.9139 33.7895 73.0767 33.8774 73.1711 34.0236C73.29 34.1953 73.3497 34.401 73.3409 34.6095C73.3543 34.9193 73.1896 35.2097 72.9164 35.3577C72.604 35.5453 72.2655 35.6856 71.9119 35.7742C71.5215 35.8761 71.1198 35.9283 70.7163 35.9295C70.0841 35.9435 69.4587 35.7978 68.8982 35.5059Z" fill="#000638"/>
<path d="M74.6427 35.6542C74.4429 35.4755 74.3361 35.2154 74.3526 34.9483V27.1836C74.3361 26.9164 74.4429 26.6563 74.6427 26.4777C74.8435 26.3176 75.093 26.2304 75.3501 26.2306C75.6075 26.2287 75.8576 26.316 76.0576 26.4777C76.2548 26.6581 76.3611 26.9169 76.3476 27.1836V34.9483C76.3611 35.2149 76.2548 35.4737 76.0576 35.6542C75.8576 35.8158 75.6075 35.9031 75.3501 35.9012C75.093 35.9014 74.8435 35.8143 74.6427 35.6542Z" fill="#000638"/>
<path d="M84.1861 29.2659C84.3742 29.4516 84.4744 29.7081 84.462 29.9718V34.9624C84.4808 35.2299 84.3736 35.4909 84.172 35.6683C83.9624 35.8487 83.6915 35.9422 83.415 35.9294C83.1555 35.9451 82.9006 35.8561 82.7076 35.6824C82.5298 35.5142 82.4342 35.2771 82.4458 35.033V34.8918C82.2497 35.2251 81.9659 35.4985 81.6252 35.6824C80.6181 36.1716 79.4141 36.0012 78.5832 35.2518C78.1259 34.6445 77.907 33.8913 77.9677 33.1341V29.9718C77.9553 29.7081 78.0556 29.4516 78.2436 29.2659C78.4546 29.0887 78.7251 28.9978 79.0006 29.0118C79.274 28.9968 79.5427 29.0878 79.7504 29.2659C79.9385 29.4516 80.0387 29.7081 80.0264 29.9718V33.1765C79.9994 33.4908 80.0873 33.8042 80.274 34.0589C80.4769 34.2615 80.7589 34.3648 81.0451 34.3412C81.4132 34.3526 81.7686 34.2061 82.0214 33.9389C82.2788 33.6391 82.4128 33.2532 82.3963 32.8589V29.9718C82.3812 29.7091 82.4789 29.4523 82.6651 29.2659C82.8729 29.0878 83.1416 28.9968 83.415 29.0118C83.6953 28.9942 83.9715 29.0852 84.1861 29.2659Z" fill="#000638"/>
<path d="M87.1008 35.7883C86.7194 35.71 86.3553 35.5641 86.0254 35.3577C85.8907 35.2785 85.7806 35.1637 85.7071 35.0259C85.638 34.8903 85.6016 34.7404 85.601 34.5883C85.5932 34.3984 85.6562 34.2123 85.7778 34.0659C85.8832 33.9313 86.0452 33.853 86.2165 33.8542C86.3371 33.8553 86.4567 33.8767 86.5702 33.9177C86.6834 33.9601 86.8107 34.0024 86.9381 34.0589C87.1788 34.174 87.4299 34.2661 87.6879 34.3342C87.9834 34.4114 88.2882 34.4471 88.5935 34.4401C88.8496 34.4533 89.105 34.4024 89.3363 34.2918C89.4963 34.2171 89.6004 34.0586 89.6051 33.8824C89.6092 33.7703 89.5685 33.6611 89.4919 33.5789C89.3654 33.4775 89.2181 33.4052 89.0604 33.3671C88.8482 33.3036 88.5227 33.2259 88.0629 33.1342C87.4328 33.0477 86.8345 32.805 86.3226 32.4283C85.9606 32.0988 85.7658 31.6247 85.792 31.1365C85.7892 30.7378 85.9213 30.3499 86.1669 30.0354C86.4356 29.6939 86.7893 29.4286 87.1927 29.2659C87.6598 29.0768 88.1602 28.9832 88.6642 28.9907C89.0511 28.9904 89.4363 29.0402 89.8103 29.1389C90.1604 29.228 90.4946 29.3709 90.8007 29.5624C91.0737 29.7141 91.2379 30.0062 91.2252 30.3177C91.2342 30.5143 91.1713 30.7074 91.0483 30.8612C90.9481 30.9992 90.7875 31.0807 90.6168 31.0801C90.3494 31.065 90.0907 30.9798 89.8669 30.833C89.6661 30.7308 89.458 30.6435 89.2443 30.5718C89.0307 30.5092 88.809 30.4783 88.5864 30.4801C88.3514 30.4686 88.1181 30.525 87.9143 30.6424C87.7582 30.7344 87.666 30.9051 87.6749 31.0858C87.6838 31.2665 87.7923 31.4274 87.9568 31.5036C88.3106 31.6487 88.6814 31.7483 89.0604 31.8001C89.5481 31.8845 90.0234 32.0292 90.4753 32.2306C90.7808 32.3634 91.0412 32.5816 91.2252 32.8589C91.3907 33.1536 91.4715 33.4883 91.4586 33.8259C91.4722 34.4412 91.1709 35.0211 90.6592 35.3648C90.0306 35.7754 89.2872 35.9757 88.5369 35.9365C88.0542 35.9397 87.5726 35.89 87.1008 35.7883Z" fill="#000638"/>
<path fill-rule="evenodd" clip-rule="evenodd" d="M92.5057 26.8871C92.4926 27.1724 92.6065 27.4488 92.8169 27.6424V27.6212C93.3311 27.9878 94.0219 27.9878 94.536 27.6212C94.7465 27.4277 94.8604 27.1512 94.8473 26.8659C94.8563 26.584 94.7398 26.3126 94.529 26.1248C94.2895 25.932 93.9873 25.834 93.68 25.8495C93.3695 25.8331 93.0633 25.9283 92.8169 26.1177C92.6009 26.3133 92.4862 26.5967 92.5057 26.8871ZM92.6401 34.9483C92.6253 35.2166 92.7348 35.4769 92.9372 35.6542H92.8877C93.3226 35.9836 93.9242 35.9836 94.3592 35.6542C94.5564 35.4737 94.6627 35.2149 94.6492 34.9483V30.0071C94.6627 29.7405 94.5564 29.4817 94.3592 29.3012C94.1585 29.1416 93.9083 29.0567 93.6517 29.0612C93.3954 29.0585 93.1458 29.1431 92.9443 29.3012C92.7375 29.4758 92.6248 29.7372 92.6401 30.0071V34.9483Z" fill="#000638"/>
<path fill-rule="evenodd" clip-rule="evenodd" d="M96.3896 34.2847C96.6744 34.8015 97.1048 35.2237 97.6276 35.4988H97.6064C98.7846 36.0748 100.164 36.0748 101.342 35.4988C101.863 35.2217 102.293 34.8 102.58 34.2847C102.88 33.7205 103.029 33.0881 103.011 32.4494C103.028 31.8085 102.879 31.1741 102.58 30.607C102.301 30.095 101.878 29.6755 101.363 29.4C100.18 28.8445 98.8105 28.8445 97.6276 29.4C97.1035 29.6701 96.6724 30.0905 96.3896 30.607C96.0875 31.1735 95.9364 31.8079 95.951 32.4494C95.9357 33.0887 96.0869 33.721 96.3896 34.2847ZM100.606 31.0588C100.889 31.4735 101.026 31.97 100.995 32.4706C100.995 33.727 100.493 34.4117 99.4953 34.4117C98.4978 34.4117 97.9955 33.7764 97.9955 32.4988C97.9955 31.2212 98.4978 30.5788 99.4953 30.5788C99.9205 30.5563 100.332 30.7339 100.606 31.0588Z" fill="#000638"/>
<path d="M110.27 29.6823C110.704 30.2996 110.909 31.0483 110.85 31.8V34.9412C110.864 35.2051 110.763 35.4624 110.574 35.6471C110.366 35.8308 110.094 35.9247 109.817 35.9082C109.542 35.9244 109.272 35.8304 109.067 35.6471C108.882 35.4597 108.785 35.2036 108.798 34.9412V31.8918C108.826 31.541 108.737 31.1909 108.544 30.8965C108.344 30.6777 108.054 30.5631 107.758 30.5859C107.373 30.5693 107 30.7184 106.732 30.9953C106.462 31.2911 106.322 31.6827 106.343 32.0823V34.9059C106.357 35.1683 106.259 35.4244 106.075 35.6118C105.869 35.7951 105.6 35.8891 105.325 35.8729C105.048 35.8894 104.775 35.7955 104.568 35.6118C104.376 35.4278 104.273 35.1708 104.285 34.9059V29.9435C104.269 29.675 104.379 29.4143 104.582 29.2376C104.794 29.0616 105.064 28.971 105.339 28.9835C105.599 28.9662 105.854 29.0555 106.046 29.2306C106.222 29.3998 106.318 29.6362 106.308 29.88V30.0635C106.537 29.7127 106.854 29.4279 107.228 29.2376C107.624 29.0459 108.06 28.9492 108.501 28.9553C109.171 28.9169 109.822 29.1845 110.27 29.6823Z" fill="#000638"/>
<ellipse opacity="0.5" cx="15.7689" cy="21.9882" rx="4.63378" ry="4.62353" fill="#D1EDE5"/>
<ellipse cx="11.1352" cy="20.3859" rx="3.50894" ry="3.50118" fill="#18A47D"/>
<path d="M21.9308 0.494147C21.1964 0.493186 20.4663 0.605086 19.766 0.825911C16.2861 1.89443 14.1127 5.34198 14.6544 8.93452C15.1961 12.5271 18.2898 15.184 21.9308 15.1836C25.9074 15.0605 29.0671 11.8085 29.0671 7.83885C29.0671 3.8692 25.9074 0.617167 21.9308 0.494147Z" fill="#D1EDE5"/>
<path d="M24.5272 30.4448C25.0905 32.2741 24.0612 34.2128 22.228 34.7754C20.3948 35.3381 18.4515 34.3117 17.8871 32.4828C17.3226 30.6538 18.3506 28.7145 20.1834 28.1507C22.0175 27.5905 23.9601 28.6165 24.5272 30.4448Z" fill="#18A47D"/>
<path d="M3.06322 25.3199C2.82353 25.3211 2.58525 25.3567 2.35577 25.4258C1.22467 25.7738 0.518883 26.895 0.695934 28.0627C0.872985 29.2304 1.8796 30.0932 3.06322 30.0917C3.30326 30.0954 3.54228 30.0596 3.77067 29.9858C4.90177 29.6379 5.60756 28.5167 5.43051 27.3489C5.25346 26.1812 4.24685 25.3185 3.06322 25.3199Z" fill="#18A47D"/>
<path d="M25.185 21.0425C25.0078 21.0445 24.8317 21.0707 24.6615 21.1201C23.8319 21.3855 23.3178 22.2123 23.4479 23.0719C23.578 23.9314 24.3139 24.5698 25.185 24.579C25.3625 24.5803 25.5391 24.5541 25.7085 24.5013C26.5382 24.2359 27.0523 23.4091 26.9222 22.5496C26.7921 21.69 26.0562 21.0516 25.185 21.0425" fill="#D1EDE5"/>
<path d="M6.14768 7.35535C5.75482 7.3562 5.36411 7.41325 4.98747 7.52476C2.99852 8.12472 1.81003 10.1538 2.26235 12.1774C2.71467 14.2009 4.65467 15.5338 6.71062 15.2336C8.76658 14.9334 10.2424 13.1017 10.0947 11.0337C9.94691 8.9657 8.22553 7.36148 6.14768 7.35535Z" fill="#D1EDE5"/>
<path d="M29.1397 4.63054C27.5136 4.63328 26.1771 5.91161 26.1058 7.5326C26.0344 9.15359 27.2533 10.5439 28.8729 10.689C30.4926 10.834 31.9401 9.68242 32.1592 8.07465C32.3782 6.46688 31.2912 4.97155 29.6915 4.67996C29.5096 4.646 29.3248 4.62945 29.1397 4.63054Z" fill="#18A47D"/>
<path d="M32.6769 22.6518C32.5004 22.4598 32.4064 22.2063 32.4152 21.9459V14.3294C32.3978 14.0455 32.5048 13.7681 32.7084 13.569C32.912 13.3699 33.1922 13.2688 33.4763 13.2918C33.7635 13.2761 34.0446 13.3781 34.2545 13.5742C34.4484 13.7767 34.5507 14.0497 34.5375 14.3294V21.1765H38.0181C38.6761 21.1765 39.0086 21.4659 39.0086 22.0447C39.0086 22.6236 38.6761 22.8989 38.0181 22.8989H33.4127C33.1437 22.9215 32.8774 22.8321 32.6769 22.6518Z" fill="#18A47D"/>
<path fill-rule="evenodd" clip-rule="evenodd" d="M45.7859 18.9812C45.8477 18.1917 45.5933 17.4099 45.0785 16.8071C44.4811 16.2853 43.6982 16.0257 42.9066 16.0871C42.4522 16.0879 41.9992 16.1376 41.5554 16.2353C41.1468 16.3231 40.7535 16.4706 40.3881 16.673C40.2345 16.7489 40.1011 16.8602 39.999 16.9977C39.9102 17.1283 39.8679 17.2849 39.8787 17.4424C39.8686 17.6413 39.9315 17.837 40.0556 17.993C40.1706 18.1351 40.3468 18.2138 40.5296 18.2048C40.715 18.1933 40.8958 18.1427 41.0602 18.0565C41.5946 17.8273 42.1637 17.6889 42.7439 17.6471C43.0556 17.6069 43.3702 17.6962 43.6141 17.8942C43.798 18.1312 43.8863 18.4283 43.8617 18.7271V18.9671H43.4726C42.7133 18.9492 41.9543 19.0131 41.2087 19.1577C40.7554 19.2335 40.3359 19.4453 40.0061 19.7648C39.7394 20.085 39.6008 20.4923 39.617 20.9083C39.6155 21.2925 39.7288 21.6685 39.9424 21.9883C40.1582 22.3161 40.4589 22.5795 40.8126 22.7506C41.1975 22.9312 41.6182 23.0229 42.0435 23.0189C42.4327 23.0282 42.817 22.9305 43.1542 22.7365C43.4745 22.5625 43.7245 22.2831 43.8617 21.9459V22.0448C43.8494 22.301 43.9461 22.5506 44.1279 22.732C44.3098 22.9135 44.5599 23.0099 44.8167 22.9977C45.0757 23.0095 45.3291 22.921 45.5242 22.7506C45.7086 22.5635 45.8038 22.3066 45.7859 22.0448V18.9812ZM43.8617 20.1742C43.8689 20.5594 43.7241 20.9321 43.4584 21.2118C43.2202 21.4695 42.883 21.6134 42.5317 21.6071C42.2994 21.6143 42.0735 21.5307 41.902 21.3742C41.7321 21.2129 41.6394 20.9868 41.6474 20.753C41.6366 20.4655 41.8187 20.206 42.0931 20.1177C42.5939 19.9747 43.115 19.9151 43.6353 19.9412H43.8617V20.1742Z" fill="#18A47D"/>
<path d="M52.3864 22.5883C51.8801 22.3175 51.4663 21.9021 51.1979 21.3953C50.9095 20.8322 50.7661 20.2064 50.7805 19.5742C50.7674 18.9342 50.921 18.3018 51.2262 17.7389C51.5101 17.2178 51.9404 16.7909 52.4643 16.5106C53.0338 16.2148 53.6688 16.0668 54.3107 16.08C54.6812 16.0807 55.0499 16.1305 55.4072 16.2283C55.7547 16.3188 56.0862 16.4616 56.3906 16.6518C56.6636 16.8034 56.8278 17.0956 56.8151 17.4071C56.8228 17.6123 56.7659 17.8147 56.6523 17.9859C56.5524 18.1279 56.3875 18.2101 56.2137 18.2047C56.1003 18.2072 55.9874 18.188 55.8812 18.1483L55.4709 17.9647C55.3057 17.8776 55.1356 17.7998 54.9615 17.7318C54.8042 17.6785 54.6395 17.65 54.4734 17.6471C54.0328 17.6177 53.6037 17.7952 53.3132 18.1271C52.7698 18.9902 52.7698 20.0875 53.3132 20.9506C53.6023 21.2851 54.0316 21.4654 54.4734 21.4377C54.6436 21.4416 54.8132 21.4178 54.9757 21.3671C55.1583 21.3005 55.3357 21.2202 55.5063 21.1271L55.9095 20.9436C56.014 20.9066 56.1241 20.8875 56.2349 20.8871C56.4073 20.8869 56.5687 20.9714 56.6665 21.113C56.7845 21.2851 56.844 21.4905 56.8363 21.6989C56.848 22.0083 56.6837 22.2978 56.4118 22.4471C56.0994 22.6346 55.7609 22.775 55.4072 22.8636C55.0167 22.9636 54.6149 23.0134 54.2116 23.0118C53.5772 23.0261 52.9494 22.8805 52.3864 22.5883Z" fill="#18A47D"/>
<path fill-rule="evenodd" clip-rule="evenodd" d="M57.9257 21.3812C58.2125 21.8946 58.6426 22.314 59.1637 22.5882C60.3395 23.1533 61.7092 23.1533 62.8849 22.5882C63.4044 22.3117 63.8339 21.8929 64.1229 21.3812C64.698 20.2224 64.698 18.8622 64.1229 17.7035C63.8357 17.1921 63.4055 16.7752 62.8849 16.5035C61.7069 15.9485 60.3418 15.9485 59.1637 16.5035C58.6416 16.7732 58.211 17.1906 57.9257 17.7035C57.3506 18.8622 57.3506 20.2224 57.9257 21.3812ZM62.1279 18.1341C62.4131 18.5476 62.5502 19.045 62.517 19.5459V19.5529C62.517 20.8235 62.0218 21.48 61.0243 21.48C60.0268 21.48 59.5316 20.8517 59.5316 19.5741C59.5316 18.2965 60.0268 17.6612 61.0243 17.6612C61.4466 17.6346 61.8564 17.8102 62.1279 18.1341Z" fill="#18A47D"/>
<path d="M75.6968 16.7506C76.1359 17.3657 76.3438 18.1155 76.2839 18.8683V22.0024C76.3002 22.2681 76.1964 22.5271 76.001 22.7083C75.8006 22.8685 75.5502 22.9534 75.2935 22.9483C75.0374 22.9499 74.7881 22.8654 74.5861 22.7083C74.3837 22.531 74.2741 22.2707 74.2889 22.0024V18.8753C74.3214 18.5526 74.2414 18.2285 74.0626 17.9577C73.8812 17.7642 73.619 17.6674 73.3551 17.6965C73.0099 17.6822 72.6768 17.825 72.4496 18.0848C72.2059 18.3984 72.0851 18.7899 72.11 19.1859V22.0095C72.1235 22.2761 72.0172 22.5349 71.82 22.7153C71.6208 22.8777 71.3696 22.9629 71.1125 22.9553C70.8562 22.9581 70.6066 22.8734 70.4051 22.7153C70.2027 22.538 70.0931 22.2778 70.1079 22.0095V18.8753C70.1404 18.5526 70.0604 18.2285 69.8816 17.9577C69.7002 17.7642 69.438 17.6674 69.1741 17.6965C68.8285 17.6801 68.4945 17.8233 68.2686 18.0848C68.0249 18.3984 67.9041 18.7899 67.929 19.1859V22.0095C67.9438 22.2778 67.8343 22.538 67.6319 22.7153C67.4327 22.8777 67.1815 22.9629 66.9244 22.9553C66.6681 22.9581 66.4185 22.8734 66.217 22.7153C66.0146 22.538 65.905 22.2778 65.9198 22.0095V17.0542C65.8999 16.7835 66.0134 16.5201 66.2241 16.3483C66.4266 16.1922 66.6755 16.1077 66.9315 16.1083C67.1883 16.094 67.4411 16.1772 67.6389 16.3412C67.8216 16.5125 67.9198 16.755 67.9078 17.0048V17.1389C68.1155 16.8049 68.4085 16.532 68.7567 16.3483C69.1258 16.1655 69.5333 16.0736 69.9452 16.08C70.3693 16.0674 70.7892 16.1673 71.162 16.3695C71.5158 16.5903 71.7849 16.9235 71.9261 17.3153C72.1338 16.9377 72.4423 16.625 72.8175 16.4118C73.2166 16.1877 73.6682 16.0732 74.1262 16.08C74.7208 16.0742 75.2905 16.3175 75.6968 16.7506Z" fill="#18A47D"/>
<path d="M87.7233 16.7506C88.16 17.3666 88.3654 18.1163 88.3034 18.8683V22.0024C88.3197 22.2681 88.2159 22.5271 88.0205 22.7083C87.5846 23.0272 86.9918 23.0272 86.556 22.7083C86.3492 22.5337 86.2366 22.2723 86.2518 22.0024V18.8753C86.2864 18.5534 86.2089 18.2294 86.0325 17.9577C85.8493 17.767 85.5886 17.6707 85.3251 17.6965C84.9776 17.681 84.6419 17.8239 84.4125 18.0848C84.1688 18.3984 84.048 18.7899 84.0729 19.1859V22.0095C84.0892 22.2751 83.9854 22.5342 83.7899 22.7153C83.5895 22.8755 83.3392 22.9604 83.0825 22.9553C82.8263 22.957 82.5771 22.8724 82.375 22.7153C82.1726 22.538 82.0631 22.2778 82.0779 22.0095V18.8753C82.1103 18.5526 82.0304 18.2285 81.8515 17.9577C81.6702 17.7642 81.408 17.6674 81.1441 17.6965C80.7988 17.6822 80.4657 17.825 80.2385 18.0848C79.9948 18.3984 79.8741 18.7899 79.899 19.1859V22.0095C79.9125 22.2761 79.8061 22.5349 79.6089 22.7153C79.4082 22.875 79.1581 22.9599 78.9015 22.9553C78.6451 22.9581 78.3955 22.8734 78.194 22.7153C77.9916 22.538 77.8821 22.2778 77.8969 22.0095V17.0542C77.877 16.7835 77.9905 16.5201 78.2011 16.3483C78.4132 16.1845 78.6759 16.0997 78.9439 16.1083C79.2008 16.094 79.4535 16.1772 79.6514 16.3412C79.834 16.5125 79.9323 16.755 79.9202 17.0048V17.1389C80.1279 16.8049 80.4209 16.532 80.7691 16.3483C81.1382 16.1655 81.5457 16.0736 81.9576 16.08C82.3818 16.0674 82.8016 16.1673 83.1744 16.3695C83.5282 16.5903 83.7973 16.9235 83.9385 17.3153C84.1462 16.9377 84.4547 16.625 84.8299 16.4118C85.2316 16.1877 85.6855 16.0733 86.1457 16.08C86.7427 16.0722 87.3154 16.3156 87.7233 16.7506Z" fill="#18A47D"/>
<path d="M95.9934 16.3764C96.1814 16.5621 96.2817 16.8187 96.2693 17.0823V22.0235C96.2892 22.2912 96.1817 22.5526 95.9793 22.7294C95.7672 22.9048 95.4975 22.9954 95.2223 22.9835C94.9635 23.0035 94.7078 22.9168 94.5148 22.7435C94.337 22.5753 94.2415 22.3383 94.2531 22.0941V21.9529C94.057 22.2862 93.7732 22.5596 93.4324 22.7435C93.078 22.9246 92.6846 23.0167 92.2864 23.0117C91.5854 23.0657 90.8963 22.8073 90.4046 22.3059C89.9412 21.7013 89.7194 20.9467 89.782 20.1882V17.0823C89.7715 16.8176 89.8744 16.5609 90.065 16.3764C90.2731 16.199 90.5415 16.108 90.8149 16.1223C91.0884 16.1073 91.357 16.1984 91.5648 16.3764C91.748 16.5648 91.8452 16.8201 91.8336 17.0823V20.2517C91.8073 20.5671 91.898 20.881 92.0883 21.1341C92.2872 21.3391 92.5672 21.4451 92.8523 21.4235C93.2217 21.434 93.5776 21.2847 93.8286 21.0141C94.0849 20.7169 94.2167 20.3327 94.1965 19.9412V17.1176C94.1841 16.854 94.2844 16.5974 94.4724 16.4117C94.6772 16.2334 94.9438 16.1422 95.2152 16.1576C95.4933 16.1268 95.7724 16.2053 95.9934 16.3764Z" fill="#18A47D"/>
<path d="M103.811 16.793C104.246 17.4095 104.452 18.1588 104.391 18.9106V22.0448C104.405 22.3087 104.304 22.566 104.115 22.7506C103.907 22.9281 103.638 23.019 103.365 23.0048C103.091 23.0213 102.822 22.93 102.615 22.7506C102.428 22.5647 102.33 22.3076 102.346 22.0448V19.0095C102.375 18.6608 102.286 18.3126 102.092 18.0212C101.897 17.7999 101.608 17.6845 101.313 17.7106C100.93 17.6923 100.556 17.8387 100.288 18.113C100.019 18.4097 99.8789 18.8006 99.8985 19.2V22.0236C99.9119 22.286 99.8144 22.5421 99.6297 22.7295C99.422 22.9075 99.1533 22.9986 98.8798 22.9836C98.6044 22.9975 98.3338 22.9067 98.1229 22.7295C97.9333 22.5448 97.8327 22.2875 97.8469 22.0236V17.0542C97.8314 16.7872 97.9381 16.5276 98.137 16.3483C98.349 16.1729 98.6188 16.0823 98.894 16.0942C99.1532 16.0801 99.4075 16.1689 99.6014 16.3412C99.7776 16.5104 99.8729 16.7468 99.8632 16.9906V17.1742C100.09 16.8218 100.408 16.5366 100.783 16.3483C101.176 16.1548 101.611 16.058 102.049 16.0659C102.717 16.0266 103.366 16.2945 103.811 16.793Z" fill="#18A47D"/>
<path fill-rule="evenodd" clip-rule="evenodd" d="M111.812 18.9812C111.874 18.1916 111.619 17.4098 111.104 16.8071C110.509 16.2914 109.733 16.0347 108.947 16.0941C108.483 16.0952 108.02 16.1473 107.567 16.2494C107.16 16.3283 106.767 16.4662 106.4 16.6588C106.246 16.7348 106.113 16.8461 106.011 16.9835C105.92 17.1133 105.875 17.2699 105.883 17.4282C105.876 17.6267 105.939 17.8214 106.06 17.9788C106.179 18.1202 106.357 18.1985 106.541 18.1906C106.725 18.1796 106.903 18.129 107.065 18.0424C107.602 17.8137 108.173 17.6754 108.756 17.6329C109.057 17.6045 109.357 17.6958 109.59 17.8871C109.774 18.1241 109.863 18.4212 109.838 18.72V18.96H109.484C108.725 18.9421 107.966 19.006 107.221 19.1506C106.767 19.2251 106.347 19.437 106.018 19.7577C105.75 20.0822 105.616 20.496 105.643 20.9153C105.639 21.2988 105.75 21.6748 105.961 21.9953C106.177 22.3231 106.478 22.5865 106.831 22.7577C107.216 22.9382 107.637 23.0299 108.062 23.0259C108.452 23.0352 108.836 22.9375 109.173 22.7435C109.493 22.5695 109.743 22.2901 109.881 21.9529V22.0518C109.866 22.3094 109.963 22.561 110.147 22.7421C110.331 22.9233 110.585 23.0164 110.843 22.9977C111.102 23.0094 111.355 22.9209 111.55 22.7506C111.731 22.5616 111.826 22.306 111.812 22.0447V18.9812ZM109.852 20.1741C109.869 20.5545 109.737 20.9266 109.484 21.2118C109.245 21.4713 108.904 21.6153 108.551 21.6071C108.318 21.6158 108.092 21.532 107.921 21.3741C107.751 21.2129 107.658 20.9868 107.666 20.753C107.655 20.4655 107.838 20.206 108.112 20.1177C108.613 19.9747 109.134 19.915 109.654 19.9412H109.852V20.1741Z" fill="#18A47D"/>
<path d="M119.488 16.3765C119.681 16.5594 119.784 16.8172 119.771 17.0824V22.0236C119.789 22.2925 119.679 22.5541 119.474 22.7295C119.264 22.9044 118.997 22.995 118.724 22.9836C118.465 23.002 118.21 22.9154 118.016 22.7436C117.843 22.5726 117.751 22.3368 117.762 22.0942V21.953C117.562 22.2859 117.276 22.559 116.934 22.7436C116.579 22.9247 116.186 23.0168 115.788 23.0118C115.087 23.0658 114.398 22.8074 113.906 22.3059C113.448 21.6989 113.229 20.9455 113.291 20.1883V17.0824C113.278 16.8187 113.378 16.5622 113.566 16.3765C113.777 16.198 114.048 16.107 114.323 16.1224C114.583 16.1147 114.836 16.2055 115.031 16.3765C115.219 16.5622 115.319 16.8187 115.307 17.0824V20.2518C115.282 20.5659 115.369 20.8787 115.554 21.1342C115.756 21.3394 116.038 21.4454 116.325 21.4236C116.693 21.4339 117.046 21.2845 117.295 21.0142C117.554 20.7181 117.688 20.3337 117.67 19.9412V17.1177C117.658 16.8555 117.755 16.6001 117.938 16.4118C118.381 16.0729 118.996 16.0729 119.438 16.4118L119.488 16.3765Z" fill="#18A47D"/>
<path d="M125.65 21.7059C125.792 21.8641 125.861 22.0753 125.838 22.2868C125.815 22.4983 125.703 22.6901 125.529 22.8141C125.256 22.9658 124.94 23.0229 124.631 22.9765H124.249C122.664 22.8494 121.872 22.0165 121.872 20.4918V17.7882H121.334C121.082 17.816 120.828 17.7452 120.627 17.5906C120.467 17.4474 120.381 17.2397 120.393 17.0259C120.379 16.8096 120.465 16.5988 120.627 16.4541C120.828 16.2995 121.082 16.2287 121.334 16.2565H121.872V15.1977C121.858 14.9324 121.962 14.6746 122.155 14.4918C122.597 14.1528 123.212 14.1528 123.655 14.4918C123.838 14.6801 123.935 14.9355 123.923 15.1977V16.2353H124.878C125.494 16.2353 125.798 16.4894 125.798 17.0047C125.812 17.2174 125.729 17.4249 125.572 17.5694C125.368 17.719 125.116 17.7893 124.864 17.7671H123.909V20.5906C123.893 20.8142 123.961 21.0358 124.1 21.2118C124.249 21.3596 124.449 21.4432 124.659 21.4447H125.041C125.269 21.4566 125.484 21.5492 125.65 21.7059Z" fill="#18A47D"/>
<path fill-rule="evenodd" clip-rule="evenodd" d="M129.236 15.3389C129.333 15.4373 129.466 15.491 129.604 15.4871V15.4589C129.732 15.4569 129.856 15.4149 129.958 15.3389L131.613 14.1318C131.861 13.9774 132.02 13.7158 132.045 13.4259C132.045 13.2079 131.953 13.0001 131.79 12.8542C131.632 12.6991 131.418 12.6128 131.196 12.6142C130.862 12.6194 130.554 12.7919 130.375 13.073L129.208 14.633C129.133 14.7356 129.091 14.8588 129.088 14.9859C129.087 15.1189 129.141 15.2464 129.236 15.3389ZM132.392 21.1765C132.509 21.3381 132.569 21.5345 132.561 21.7342C132.563 21.8861 132.516 22.0346 132.427 22.1577C132.329 22.2982 132.198 22.4122 132.045 22.4894C131.706 22.6642 131.347 22.7992 130.977 22.8918C130.608 22.9911 130.227 23.0433 129.845 23.0471C129.191 23.0613 128.543 22.9185 127.956 22.6306C127.43 22.3632 126.997 21.9453 126.711 21.4306C126.135 20.2844 126.135 18.9345 126.711 17.7883C126.98 17.2802 127.384 16.8554 127.878 16.56C128.394 16.2649 128.981 16.1137 129.576 16.1224C130.136 16.1103 130.688 16.2493 131.175 16.5247C131.627 16.7883 131.991 17.1786 132.222 17.6471C132.487 18.1845 132.618 18.7778 132.604 19.3765C132.618 19.5397 132.567 19.7018 132.462 19.8283C132.358 19.938 132.21 19.9951 132.059 19.9836H128.26C128.278 20.4154 128.452 20.8263 128.748 21.1412C129.064 21.3995 129.466 21.5282 129.873 21.5012C130.112 21.5058 130.351 21.4749 130.581 21.4094C130.822 21.3377 131.058 21.2505 131.288 21.1483L131.656 21.0071C131.755 20.9683 131.861 20.9468 131.967 20.9436C132.138 20.9496 132.295 21.0361 132.392 21.1765ZM128.678 17.9012C128.423 18.2053 128.276 18.5851 128.26 18.9812H130.878C130.88 18.5892 130.753 18.2074 130.517 17.8942C130.287 17.646 129.957 17.5138 129.618 17.5342C129.271 17.5109 128.93 17.6338 128.678 17.873V17.9012Z" fill="#18A47D"/>
</svg>
