<svg width="140" height="64" viewBox="0 0 140 64" fill="none" xmlns="http://www.w3.org/2000/svg">
<g clip-path="url(#clip0)">
<path d="M0.299988 5.1H15.7C24.1 5.1 28.8 9 28.8 15.9C28.8 22.9 24.1 26.7 15.7 26.7H0.299988V5.1ZM14.6 21.4C18.8 21.4 21.2 19.4 21.2 15.9C21.2 12.4 18.8 10.4 14.6 10.4H7.99999V21.4H14.6ZM105.5 5.1H114.7L125.3 26.8H117.1L115.4 23H104.6L102.9 26.8H94.7L105.5 5.1ZM113.9 18.5L110 9.9L106.1 18.5H113.9ZM82.8 23.7L81.4 21.4C80.5 20.1 79.2 19.5 77.7 19.5H73.1V26.7H65.2V5H83.5C89.3 5 92.7 7.5 92.7 11.9C92.7 15.1 90.4 17.4 86.4 18.2C87.1 18.5 87.8 19 88.3 19.8L89.8 22.1C90.2 22.6 90.7 23 91.6 23C92.1 23 92.8 22.7 93.2 22.3L94.5 25.5C93.3 26.5 90.9 27.3 88.9 27.3C85.7 27.4 84 25.5 82.8 23.7ZM81.1 15.1C83.4 15.1 84.7 14.1 84.7 12.4C84.7 10.7 83.4 9.7 81.1 9.7H73.1V15.1H81.1Z" fill="#5B12EB"/>
<path d="M46.8 0C38 0 30.9 7.1 30.9 15.9C30.9 29 46.8 36 46.8 36C46.8 36 62.7 29 62.7 15.9C62.7 7.1 55.6 0 46.8 0ZM50.7 19.8C48.6 21.9 45.1 21.9 43 19.8C40.9 17.7 40.9 14.2 43 12.1C45.1 10 48.6 10 50.7 12.1C52.8 14.2 52.8 17.6 50.7 19.8Z" fill="#9C6FF4"/>
<path d="M0 39.6H3.1C5.6 39.6 7.3 41.4 7.3 43.6C7.3 45.7 5.6 47.6 3.1 47.6H0V39.6ZM1.1 40.6V46.6H3.1C4.9 46.6 6.2 45.3 6.2 43.6C6.2 41.9 4.9 40.6 3.1 40.6H1.1ZM11.5 47.8C9.6 47.8 8.4 46.4 8.4 44.7C8.4 43 9.5 41.6 11.3 41.6C12.9 41.6 13.9 42.7 13.9 44.1C13.9 44.3 13.9 44.5 13.8 44.7H9.4C9.4 46.1 10.3 46.9 11.5 46.9C12.2 46.9 12.9 46.6 13.2 46L13.9 46.6C13.5 47.3 12.6 47.8 11.5 47.8ZM9.5 44H12.9C12.9 43.2 12.3 42.5 11.3 42.5C10.3 42.4 9.7 43 9.5 44ZM10.9 40.9L12 39H13.1L11.8 40.9H10.9ZM19.7 46L20.5 46.6C20 47.3 19.1 47.8 18.1 47.8C16.2 47.8 15 46.4 15 44.7C15 43 16.2 41.6 18.1 41.6C19.1 41.6 20 42.1 20.5 42.8L19.7 43.4C19.3 42.9 18.8 42.6 18.1 42.6C16.9 42.6 16 43.6 16 44.8C16 46 16.9 47 18.1 47C18.8 46.9 19.4 46.5 19.7 46ZM27.3 44.7C27.3 46.4 26 47.8 24.2 47.8C22.3 47.8 21.1 46.4 21.1 44.7C21.1 43 22.3 41.6 24.2 41.6C26 41.6 27.3 43 27.3 44.7ZM26.3 44.7C26.3 43.5 25.4 42.5 24.2 42.5C23 42.5 22.1 43.5 22.1 44.7C22.1 45.9 23 46.9 24.2 46.9C25.4 46.9 26.3 45.9 26.3 44.7ZM32.8 41.8H33.8V45C33.8 46.7 32.8 47.7 31.3 47.7C29.8 47.7 28.8 46.7 28.8 45V41.8H29.8V45.1C29.8 46.2 30.4 46.9 31.4 46.9C32.4 46.9 33 46.3 33 45.1V41.8H32.8ZM35.9 41.8L37.7 46.5L39.5 41.8H40.5L38.3 47.5H37L34.8 41.8H35.9ZM41.8 41.8H42.8V42.5C43.2 42 43.7 41.7 44.5 41.7C44.7 41.7 44.9 41.7 45 41.8V42.7C44.8 42.7 44.7 42.6 44.4 42.6C43.7 42.6 43.2 43 42.8 43.6V47.5H41.8V41.8ZM46.1 39.7C46.1 39.3 46.4 39 46.8 39C47.2 39 47.5 39.3 47.5 39.7C47.5 40.1 47.2 40.4 46.8 40.4C46.4 40.3 46.1 40 46.1 39.7ZM46.3 41.8H47.3V47.5H46.3V41.8ZM49.3 41.8H50.3V42.5C50.7 42 51.2 41.7 52 41.7C52.2 41.7 52.4 41.7 52.5 41.8V42.7C52.3 42.7 52.2 42.6 51.9 42.6C51.2 42.6 50.7 43 50.3 43.6V47.5H49.3V41.8ZM52.2 49.4L53.2 46.4H54.3L53.1 49.4H52.2ZM66.7 43.6C66.7 45.9 65 47.8 62.5 47.8C60 47.8 58.3 45.9 58.3 43.6C58.3 41.3 60 39.4 62.5 39.4C65 39.4 66.7 41.3 66.7 43.6ZM65.6 43.6C65.6 41.8 64.3 40.4 62.5 40.4C60.7 40.4 59.4 41.8 59.4 43.6C59.4 45.4 60.7 46.8 62.5 46.8C64.3 46.8 65.6 45.3 65.6 43.6ZM68.3 41.8H69.3V42.5C69.7 42 70.2 41.7 71 41.7C71.2 41.7 71.4 41.7 71.5 41.8V42.7C71.3 42.7 71.2 42.6 70.9 42.6C70.2 42.6 69.7 43 69.3 43.6V47.5H68.3V41.8ZM72.6 39.7C72.6 39.3 72.9 39 73.3 39C73.7 39 74 39.3 74 39.7C74 40.1 73.7 40.4 73.3 40.4C72.9 40.3 72.6 40 72.6 39.7ZM72.8 41.8H73.8V47.5H72.8V41.8ZM78.5 47.8C76.6 47.8 75.4 46.4 75.4 44.7C75.4 43 76.5 41.6 78.3 41.6C79.9 41.6 80.9 42.7 80.9 44.1C80.9 44.3 80.9 44.5 80.8 44.7H76.4C76.4 46.1 77.3 46.9 78.5 46.9C79.2 46.9 79.9 46.6 80.2 46L80.9 46.6C80.4 47.3 79.5 47.8 78.5 47.8ZM76.4 44H79.8C79.8 43.2 79.2 42.5 78.2 42.5C77.3 42.4 76.6 43 76.4 44ZM82.4 41.8H83.4V42.4C83.9 41.9 84.5 41.5 85.3 41.5C86.6 41.5 87.5 42.4 87.5 44V47.5H86.5V44.1C86.5 43.1 85.9 42.5 85 42.5C84.2 42.5 83.7 43 83.3 43.6V47.6H82.3V41.8H82.4ZM89.8 42.7H88.7V41.8H89.8V40.4H90.8V41.8H92.8V42.7H90.8V45.6C90.8 46.5 91.3 46.7 91.9 46.7C92.3 46.7 92.5 46.7 92.7 46.6V47.5C92.4 47.6 92.1 47.7 91.7 47.7C90.4 47.7 89.7 47.1 89.7 45.7V42.7H89.8ZM96.8 47.8C94.9 47.8 93.7 46.4 93.7 44.7C93.7 43 94.8 41.6 96.6 41.6C98.2 41.6 99.2 42.7 99.2 44.1C99.2 44.3 99.2 44.5 99.1 44.7H94.7C94.7 46.1 95.6 46.9 96.8 46.9C97.5 46.9 98.2 46.6 98.5 46L99.2 46.6C98.7 47.3 97.8 47.8 96.8 47.8ZM94.7 44H98.1C98.1 43.2 97.5 42.5 96.5 42.5C95.6 42.4 94.9 43 94.7 44ZM100.7 41.8H101.7V42.5C102.1 42 102.6 41.7 103.4 41.7C103.6 41.7 103.8 41.7 103.9 41.8V42.7C103.7 42.7 103.6 42.6 103.3 42.6C102.6 42.6 102.1 43 101.7 43.6V47.5H100.7V41.8ZM103.6 49.4L104.6 46.4H105.7L104.5 49.4H103.6ZM0 53.2H2.1C3.7 53.2 4.7 54.1 4.7 55.4C4.7 56.4 4.2 57.1 3.4 57.4L6 61.1H4.7L2.4 57.6C2.3 57.6 2.2 57.6 2.1 57.6H1.1V61.1H0V53.2ZM1.1 54.1V56.7H2.2C3.1 56.7 3.6 56.2 3.6 55.4C3.6 54.6 3.1 54.1 2.2 54.1H1.1ZM9.6 61.4C7.7 61.4 6.5 60 6.5 58.3C6.5 56.6 7.6 55.2 9.4 55.2C11 55.2 12 56.3 12 57.7C12 57.9 12 58.1 11.9 58.3H7.5C7.5 59.7 8.4 60.5 9.6 60.5C10.3 60.5 11 60.2 11.3 59.6L12 60.2C11.5 60.9 10.7 61.4 9.6 61.4ZM7.5 57.6H11C11 56.8 10.4 56.1 9.4 56.1C8.4 56 7.7 56.6 7.5 57.6ZM13.6 55.4H14.6V56C15.1 55.5 15.7 55.1 16.5 55.1C17.8 55.1 18.7 56 18.7 57.6V61.1H17.7V57.7C17.7 56.7 17.1 56.1 16.2 56.1C15.4 56.1 14.9 56.6 14.5 57.2V61.2H13.5V55.4H13.6ZM20.7 59.8C21.1 60.3 21.6 60.6 22.2 60.6C22.8 60.6 23.2 60.2 23.2 59.7C23.2 58.4 20.3 58.9 20.3 56.9C20.3 56 21.1 55.3 22.2 55.3C23 55.3 23.7 55.7 24.1 56.2L23.4 56.8C23.1 56.4 22.7 56.1 22.2 56.1C21.6 56.1 21.3 56.5 21.3 56.9C21.3 58.2 24.2 57.8 24.2 59.7C24.2 60.8 23.3 61.4 22.3 61.4C21.4 61.4 20.7 61 20.2 60.4L20.7 59.8ZM28.2 61.4C26.3 61.4 25.1 60 25.1 58.3C25.1 56.6 26.2 55.2 28 55.2C29.6 55.2 30.6 56.3 30.6 57.7C30.6 57.9 30.6 58.1 30.5 58.3H26.1C26.1 59.7 27 60.5 28.2 60.5C28.9 60.5 29.6 60.2 29.9 59.6L30.6 60.2C30.1 60.9 29.3 61.4 28.2 61.4ZM26.1 57.6H29.5C29.5 56.8 28.9 56.1 27.9 56.1C27 56 26.3 56.6 26.1 57.6ZM32 53.3C32 52.9 32.3 52.6 32.7 52.6C33.1 52.6 33.4 52.9 33.4 53.3C33.4 53.7 33.1 54 32.7 54C32.3 54 32 53.6 32 53.3ZM32.1 55.4H33.1V61.1H32.1V55.4ZM35.3 60.8C35 60.6 34.9 60.3 34.9 60C34.9 59.5 35.1 59.2 35.6 58.9C35.1 58.5 34.8 57.9 34.8 57.3C34.8 56.2 35.7 55.3 37 55.3C37.4 55.3 37.8 55.4 38.1 55.5H40.2V56.3H39C39.2 56.6 39.2 56.9 39.2 57.3C39.2 58.4 38.3 59.3 37 59.3C36.7 59.3 36.4 59.3 36.2 59.2C36 59.4 35.8 59.6 35.8 59.8C35.8 60 35.9 60.2 36.3 60.2H38C39.5 60.2 40.2 60.9 40.2 62C40.2 63.2 39 64.1 37.3 64.1C35.6 64.1 34.5 63.4 34.5 62.3C34.5 61.6 34.8 61.2 35.3 60.8ZM37.3 63.2C38.5 63.2 39.3 62.7 39.3 62C39.3 61.5 39 61 38 61H36.1C35.7 61.3 35.5 61.6 35.5 62.1C35.4 62.8 36.2 63.2 37.3 63.2ZM38.4 57.2C38.4 56.5 37.9 55.9 37.1 55.9C36.2 55.9 35.8 56.5 35.8 57.2C35.8 57.9 36.3 58.5 37.1 58.5C37.9 58.5 38.4 57.9 38.4 57.2ZM41.5 55.4H42.5V56C43 55.5 43.6 55.1 44.4 55.1C45.7 55.1 46.6 56 46.6 57.6V61.1H45.6V57.7C45.6 56.7 45 56.1 44.1 56.1C43.3 56.1 42.8 56.6 42.4 57.2V61.2H41.4V55.4H41.5ZM51.1 61.4C49.2 61.4 48 60 48 58.3C48 56.6 49.1 55.2 50.9 55.2C52.5 55.2 53.5 56.3 53.5 57.7C53.5 57.9 53.5 58.1 53.4 58.3H49C49 59.7 49.9 60.5 51.1 60.5C51.8 60.5 52.5 60.2 52.8 59.6L53.5 60.2C53.1 60.9 52.2 61.4 51.1 61.4ZM49.1 57.6H52.5C52.5 56.8 51.9 56.1 50.9 56.1C49.9 56 49.3 56.6 49.1 57.6ZM55.1 55.4H56.1V56.1C56.5 55.6 57 55.3 57.8 55.3C58 55.3 58.2 55.3 58.3 55.4V56.3C58.1 56.3 58 56.2 57.7 56.2C57 56.2 56.5 56.6 56.1 57.2V61.1H55.1V55.4ZM58 63L59 60H60L58.8 63H58ZM67.1 53.2H68.5L71.7 61.1H70.6L69.7 58.8H66L65 61.2H63.9L67.1 53.2ZM69.2 57.9L67.7 54.1L66.2 57.9H69.2ZM77.2 59.6L78 60.2C77.5 60.9 76.6 61.4 75.6 61.4C73.7 61.4 72.5 60 72.5 58.3C72.5 56.6 73.7 55.2 75.6 55.2C76.6 55.2 77.5 55.7 78 56.4L77.2 57C76.8 56.5 76.3 56.2 75.6 56.2C74.4 56.2 73.5 57.2 73.5 58.4C73.5 59.6 74.4 60.6 75.6 60.6C76.3 60.5 76.9 60.1 77.2 59.6ZM83.3 59.6L84.1 60.2C83.6 60.9 82.7 61.4 81.7 61.4C79.8 61.4 78.6 60 78.6 58.3C78.6 56.6 79.8 55.2 81.7 55.2C82.7 55.2 83.6 55.7 84.1 56.4L83.3 57C82.9 56.5 82.4 56.2 81.7 56.2C80.5 56.2 79.6 57.2 79.6 58.4C79.6 59.6 80.5 60.6 81.7 60.6C82.4 60.5 83 60.1 83.3 59.6ZM90.9 58.3C90.9 60 89.6 61.4 87.8 61.4C85.9 61.4 84.7 60 84.7 58.3C84.7 56.6 85.9 55.2 87.8 55.2C89.6 55.2 90.9 56.6 90.9 58.3ZM89.9 58.3C89.9 57.1 89 56.1 87.8 56.1C86.6 56.1 85.7 57.1 85.7 58.3C85.7 59.5 86.6 60.5 87.8 60.5C89 60.5 89.9 59.5 89.9 58.3ZM92.5 55.4H93.5V56C93.9 55.5 94.5 55.1 95.3 55.1C96.1 55.1 96.8 55.5 97.2 56.2C97.7 55.6 98.3 55.1 99.2 55.1C100.4 55.1 101.3 55.9 101.3 57.5V61.1H100.3V57.6C100.3 56.6 99.8 56.1 98.9 56.1C98.2 56.1 97.7 56.5 97.3 57.2C97.3 57.3 97.3 57.5 97.3 57.6V61.2H96.3V57.7C96.3 56.7 95.8 56.2 94.9 56.2C94.1 56.2 93.6 56.7 93.3 57.3V61.3H92.3V55.4H92.5ZM103.2 55.4H104.2V56.1C104.7 55.5 105.4 55.2 106.2 55.2C108 55.2 109.1 56.6 109.1 58.3C109.1 60 108 61.4 106.2 61.4C105.3 61.4 104.7 61.1 104.2 60.5V64H103.2V55.4ZM104.1 57.2V59.4C104.5 60.1 105.2 60.5 106 60.5C107.2 60.5 108 59.5 108 58.3C108 57.1 107.2 56.1 106 56.1C105.3 56.1 104.6 56.5 104.1 57.2ZM110.2 59.7C110.2 58.8 110.9 58.2 112.1 58L114 57.7V57.3C114 56.5 113.4 56.1 112.6 56.1C111.9 56.1 111.4 56.4 111.1 56.9L110.4 56.3C110.9 55.6 111.7 55.2 112.7 55.2C114.2 55.2 115 56.1 115 57.3V61.1H114V60.4C113.6 61 112.8 61.3 112.1 61.3C111 61.3 110.2 60.7 110.2 59.7ZM112.3 60.5C113.1 60.5 113.7 60.1 114.1 59.5V58.4L112.4 58.7C111.6 58.8 111.3 59.2 111.3 59.7C111.2 60.2 111.6 60.5 112.3 60.5ZM117.1 60.8C116.8 60.6 116.7 60.3 116.7 60C116.7 59.5 116.9 59.2 117.4 58.9C116.9 58.5 116.6 57.9 116.6 57.3C116.6 56.2 117.5 55.3 118.8 55.3C119.2 55.3 119.6 55.4 119.9 55.5H122V56.3H120.8C121 56.6 121 56.9 121 57.3C121 58.4 120.1 59.3 118.8 59.3C118.5 59.3 118.2 59.3 118 59.2C117.8 59.4 117.6 59.6 117.6 59.8C117.6 60 117.7 60.2 118.1 60.2H119.7C121.2 60.2 121.9 60.9 121.9 62C121.9 63.2 120.7 64.1 119 64.1C117.3 64.1 116.2 63.4 116.2 62.3C116.3 61.6 116.6 61.2 117.1 60.8ZM119.1 63.2C120.3 63.2 121.1 62.7 121.1 62C121.1 61.5 120.8 61 119.8 61H117.9C117.5 61.3 117.3 61.6 117.3 62.1C117.2 62.8 117.9 63.2 119.1 63.2ZM120.2 57.2C120.2 56.5 119.7 55.9 118.9 55.9C118 55.9 117.6 56.5 117.6 57.2C117.6 57.9 118.1 58.5 118.9 58.5C119.7 58.5 120.2 57.9 120.2 57.2ZM123.2 55.4H124.2V56C124.7 55.5 125.3 55.1 126.1 55.1C127.4 55.1 128.3 56 128.3 57.6V61.1H127.3V57.7C127.3 56.7 126.7 56.1 125.8 56.1C125 56.1 124.5 56.6 124.1 57.2V61.2H123.1V55.4H123.2ZM132.9 61.4C131 61.4 129.8 60 129.8 58.3C129.8 56.6 130.9 55.2 132.7 55.2C134.3 55.2 135.3 56.3 135.3 57.7C135.3 57.9 135.3 58.1 135.2 58.3H130.8C130.8 59.7 131.7 60.5 132.9 60.5C133.6 60.5 134.3 60.2 134.6 59.6L135.3 60.2C134.8 60.9 134 61.4 132.9 61.4ZM130.9 57.6H134.3C134.3 56.8 133.7 56.1 132.7 56.1C131.7 56 131.1 56.6 130.9 57.6ZM136.9 55.4H137.9V56.1C138.3 55.6 138.8 55.3 139.6 55.3C139.8 55.3 140 55.3 140.1 55.4V56.3C139.9 56.3 139.8 56.2 139.5 56.2C138.8 56.2 138.3 56.6 137.9 57.2V61.1H136.9V55.4Z" fill="#555555"/>
</g>
<defs>
<clipPath id="clip0">
<rect width="140" height="64" fill="white"/>
</clipPath>
</defs>
</svg>
