<svg width="136" height="37" viewBox="0 0 136 37" fill="none" xmlns="http://www.w3.org/2000/svg">
<path d="M34.2099 23.8541C34.028 23.6576 33.9317 23.3965 33.9422 23.1286V15.3006C33.922 15.0081 34.0306 14.7214 34.2394 14.5162C34.4482 14.311 34.7362 14.2079 35.0273 14.2341C35.3189 14.2174 35.6043 14.3224 35.8158 14.5243C36.0141 14.7325 36.1187 15.013 36.1052 15.3006V22.3451H39.6643C40.3371 22.3451 40.6771 22.6425 40.6771 23.2374C40.6771 23.8323 40.3371 24.1153 39.6643 24.1153H34.955C34.6815 24.1337 34.4124 24.0394 34.2099 23.8541Z" fill="#006ADC"/>
<path fill-rule="evenodd" clip-rule="evenodd" d="M47.6145 22.8748C47.6237 22.6717 47.5623 22.4717 47.4409 22.3089C47.3332 22.1819 47.1729 22.1122 47.0068 22.1203C46.8985 22.1238 46.7912 22.1433 46.6885 22.1783L46.3124 22.3307C46.0375 22.4395 45.7987 22.5266 45.589 22.5919C45.3538 22.6591 45.11 22.6909 44.8656 22.6862C44.4501 22.7166 44.0387 22.5869 43.7153 22.3234C43.4136 21.9987 43.2366 21.577 43.2162 21.1336H47.1009C47.2561 21.1416 47.407 21.0805 47.5132 20.9668C47.6173 20.8354 47.6689 20.6699 47.6579 20.5024C47.6722 19.8894 47.5382 19.282 47.2673 18.7322C47.0253 18.2443 46.6487 17.8364 46.1822 17.5569C45.6824 17.2794 45.1184 17.1392 44.5473 17.1507C43.9389 17.1425 43.3394 17.2978 42.8111 17.6005C42.3058 17.9041 41.893 18.3407 41.6175 18.8628C41.3315 19.4241 41.1851 20.0463 41.1907 20.6766C41.1725 21.333 41.3246 21.983 41.6319 22.5628C41.9242 23.0921 42.3676 23.5216 42.9051 23.7962C43.5043 24.0953 44.1676 24.2423 44.8366 24.2242C45.2276 24.2203 45.6165 24.1667 45.9941 24.0646C46.3735 23.975 46.7405 23.8386 47.0864 23.6583C47.2397 23.5743 47.3729 23.458 47.477 23.3173C47.5699 23.1889 47.6182 23.0334 47.6145 22.8748ZM43.2162 20.0526C43.2294 19.6449 43.3799 19.2537 43.643 18.9426C43.8954 18.6843 44.2447 18.5447 44.6051 18.5581C44.9522 18.5401 45.2891 18.6785 45.5239 18.9354C45.7653 19.2573 45.8949 19.6498 45.8928 20.0526H43.2162Z" fill="#006ADC"/>
<path d="M50.0307 24.0863C49.6435 24.0044 49.2737 23.8545 48.9384 23.6437C48.8025 23.5632 48.6902 23.448 48.6129 23.31C48.5382 23.1617 48.5009 22.9973 48.5044 22.8312C48.4962 22.6381 48.5607 22.4491 48.6852 22.3016C48.7907 22.1643 48.9537 22.0839 49.1265 22.0839C49.2493 22.0849 49.3712 22.1045 49.4882 22.142L49.8644 22.2943C50.113 22.4065 50.3693 22.5011 50.6312 22.5773C50.9337 22.6538 51.2453 22.688 51.5571 22.6788C51.8069 22.6865 52.0549 22.6343 52.2805 22.5265C52.4426 22.4528 52.5471 22.2914 52.5482 22.1129C52.5558 21.9972 52.5137 21.8836 52.4324 21.801C52.304 21.6953 52.153 21.6208 51.9912 21.5833C51.7814 21.518 51.4414 21.4382 50.9784 21.3439C50.3354 21.2585 49.7251 21.0086 49.2061 20.6184C48.8353 20.2833 48.6358 19.7978 48.6635 19.298C48.6612 18.8906 48.7963 18.4943 49.0469 18.1735C49.3318 17.8243 49.7073 17.5607 50.132 17.4118C50.6069 17.2166 51.1163 17.1203 51.6295 17.1288C52.0269 17.122 52.4234 17.1684 52.8086 17.2667C53.1652 17.3591 53.5064 17.5033 53.8214 17.6947C54.1005 17.8542 54.2678 18.1563 54.2554 18.4782C54.2586 18.6794 54.195 18.8759 54.0746 19.0369C53.9668 19.1753 53.8011 19.2557 53.6261 19.2545C53.3687 19.2316 53.1206 19.147 52.9027 19.0079C52.6985 18.8982 52.4856 18.806 52.2661 18.7322C52.0473 18.67 51.8206 18.6406 51.5933 18.6451C51.3561 18.6321 51.1201 18.6875 50.9133 18.8047C50.7586 18.8943 50.6644 19.0609 50.6673 19.24C50.6654 19.4345 50.7792 19.6114 50.9567 19.6898C51.3162 19.8381 51.693 19.9405 52.078 19.9945C52.5754 20.0828 53.061 20.2289 53.5248 20.4298C53.8237 20.5728 54.075 20.7996 54.2482 21.0828C54.4176 21.383 54.5003 21.7247 54.4869 22.0694C54.504 22.6988 54.1981 23.2931 53.6767 23.6437C53.033 24.0633 52.273 24.2665 51.5065 24.2241C51.011 24.232 50.5162 24.1858 50.0307 24.0863Z" fill="#006ADC"/>
<path fill-rule="evenodd" clip-rule="evenodd" d="M65.649 22.8748C65.6582 22.6717 65.5969 22.4717 65.4754 22.3089C65.3783 22.1723 65.223 22.0891 65.0558 22.084C64.9452 22.0881 64.8356 22.1076 64.7303 22.142L64.3614 22.2944C64.0865 22.4032 63.8477 22.4903 63.638 22.5556C63.4027 22.6223 63.159 22.654 62.9145 22.6499C62.4991 22.6803 62.0877 22.5506 61.7643 22.2871C61.4625 21.9624 61.2856 21.5407 61.2652 21.0973H65.1499C65.3048 21.1033 65.4548 21.0426 65.5622 20.9305C65.6663 20.7991 65.7179 20.6336 65.7069 20.4662C65.7212 19.8531 65.5872 19.2457 65.3163 18.696C65.0737 18.2061 64.6941 17.7977 64.2239 17.5207C63.7271 17.2424 63.1652 17.1021 62.5962 17.1144C61.9876 17.1044 61.3877 17.2598 60.8601 17.5642C60.3548 17.8678 59.942 18.3044 59.6665 18.8265C59.0882 20.0045 59.0882 21.3849 59.6665 22.5628C59.9569 23.0935 60.4008 23.5235 60.9397 23.7962C61.5388 24.0953 62.2021 24.2423 62.8711 24.2242C63.2598 24.2208 63.6464 24.1671 64.0214 24.0646C64.4035 23.9762 64.7729 23.8397 65.1209 23.6583C65.2742 23.5743 65.4075 23.458 65.5116 23.3173C65.6044 23.1889 65.6527 23.0334 65.649 22.8748ZM61.2507 20.0526C61.2639 19.6449 61.4144 19.2537 61.6775 18.9426C61.9289 18.6827 62.2789 18.5428 62.6397 18.5581C62.9867 18.5401 63.3236 18.6785 63.5584 18.9354C63.7998 19.2573 63.9294 19.6498 63.9273 20.0526H61.2507Z" fill="#006ADC"/>
<path d="M77.0571 17.7891C77.5073 18.4207 77.72 19.1917 77.6575 19.9655V23.2157C77.6702 23.4881 77.5647 23.7527 77.3682 23.9412C77.1639 24.1079 76.908 24.1977 76.6448 24.1951C76.382 24.1948 76.127 24.1053 75.9213 23.9412C75.7144 23.759 75.6024 23.4915 75.6175 23.2157V19.9655C75.649 19.6362 75.5673 19.306 75.386 19.0296C75.202 18.8281 74.9337 18.7259 74.6626 18.754C74.3061 18.7399 73.9626 18.8894 73.7294 19.1602C73.4641 19.4838 73.3298 19.8955 73.3533 20.3138V23.2157C73.3699 23.4888 73.2637 23.755 73.0639 23.9412C72.8597 24.1079 72.6038 24.1977 72.3405 24.1951C72.0777 24.1948 71.8228 24.1053 71.6171 23.9412C71.4101 23.759 71.2981 23.4915 71.3133 23.2157V19.9655C71.3469 19.6371 71.2678 19.3069 71.089 19.0296C70.903 18.831 70.6362 18.7293 70.3656 18.754C70.0091 18.7399 69.6656 18.8894 69.4324 19.1602C69.1843 19.4803 69.0608 19.8801 69.0852 20.2847V23.1867C69.099 23.4608 68.9902 23.7267 68.7886 23.9122C68.3517 24.2708 67.7269 24.2828 67.2767 23.9412C67.0652 23.7618 66.95 23.4931 66.9656 23.2157V18.1373C66.9488 17.8597 67.0642 17.5906 67.2767 17.4118C67.4838 17.2513 67.7383 17.1646 68.0001 17.1651C68.2631 17.1475 68.5226 17.2334 68.7235 17.4045C68.9116 17.5765 69.0126 17.8243 68.9984 18.0793V18.2171C69.2131 17.8776 69.5123 17.6001 69.8664 17.4118C70.2444 17.2256 70.6607 17.1311 71.0818 17.1361C71.5183 17.1139 71.9529 17.209 72.3405 17.4118C72.7003 17.6378 72.9751 17.9772 73.1218 18.3767C73.3364 17.9922 73.6515 17.6736 74.0333 17.4553C74.4418 17.2259 74.9034 17.1083 75.3716 17.1144C76.0047 17.0816 76.6205 17.328 77.0571 17.7891Z" fill="#006ADC"/>
<path fill-rule="evenodd" clip-rule="evenodd" d="M86.0851 18.8627C85.8597 18.338 85.4911 17.8879 85.0217 17.5641C84.5565 17.2629 84.0129 17.1064 83.4592 17.1143C83.017 17.1085 82.5801 17.2105 82.186 17.4118C81.8027 17.5932 81.4808 17.8832 81.26 18.2461V18.1372C81.2736 17.8661 81.171 17.6021 80.9779 17.4118C80.7815 17.2301 80.5215 17.1336 80.2545 17.1433C79.9881 17.1374 79.7295 17.2334 79.5311 17.4118C79.3381 17.6021 79.2354 17.8661 79.249 18.1372V25.7041C79.2298 25.9791 79.3395 26.2473 79.5456 26.4296C79.7653 26.6098 80.0433 26.7027 80.3268 26.6908C80.5916 26.7029 80.8508 26.6119 81.0503 26.4368C81.2399 26.2685 81.3436 26.0232 81.3324 25.7694V23.1431C81.5373 23.4863 81.836 23.7633 82.1932 23.9412C82.5849 24.1332 83.0161 24.2302 83.452 24.2241C84.585 24.2594 85.6264 23.6024 86.0851 22.5627C86.3461 21.9892 86.477 21.3648 86.4685 20.7345C86.4806 20.0898 86.3496 19.4505 86.0851 18.8627ZM84.3924 20.6837C84.4301 21.1999 84.2869 21.7132 83.9873 22.1347V22.1274C83.6941 22.447 83.2809 22.6289 82.8479 22.6289C82.4149 22.6289 82.0017 22.447 81.7086 22.1274C81.1747 21.2342 81.1747 20.1187 81.7086 19.2255C81.9848 18.8795 82.4101 18.6878 82.8515 18.7104C83.2922 18.6895 83.7156 18.8842 83.9873 19.2327C84.2759 19.6594 84.4182 20.1688 84.3924 20.6837Z" fill="#006ADC"/>
<path d="M88.0456 23.9413C87.8439 23.7558 87.7352 23.4898 87.749 23.2158V15.2354C87.7352 14.9613 87.8439 14.6954 88.0456 14.5099C88.2519 14.3479 88.5069 14.261 88.769 14.2632C89.0314 14.2586 89.2872 14.3458 89.4924 14.5099C89.694 14.6954 89.8028 14.9613 89.789 15.2354V23.2158C89.8028 23.4898 89.694 23.7558 89.4924 23.9413C89.2879 24.1074 89.0322 24.1972 88.769 24.1952C88.5061 24.1954 88.251 24.1059 88.0456 23.9413Z" fill="#006ADC"/>
<path fill-rule="evenodd" clip-rule="evenodd" d="M91.5685 22.5483C91.8572 23.0771 92.295 23.5087 92.8272 23.7889C94.0295 24.3697 95.4301 24.3697 96.6324 23.7889C97.1683 23.5112 97.6092 23.0792 97.8983 22.5483C98.4862 21.3599 98.4862 19.9642 97.8983 18.7757C97.6066 18.2486 97.1662 17.8196 96.6324 17.5424C95.4277 16.972 94.0319 16.972 92.8272 17.5424C92.2968 17.8217 91.8593 18.2504 91.5685 18.7757C90.9703 19.9617 90.9703 21.3623 91.5685 22.5483ZM95.8655 19.211C96.1526 19.6379 96.29 20.1483 96.2562 20.662C96.2562 21.9752 95.7426 22.6499 94.7298 22.6499C93.717 22.6499 93.2034 21.9897 93.2034 20.6838C93.2034 19.3779 93.717 18.7177 94.7298 18.7177C95.1646 18.6946 95.585 18.8772 95.8655 19.211Z" fill="#006ADC"/>
<path fill-rule="evenodd" clip-rule="evenodd" d="M99.5115 14.9669C99.4951 15.2606 99.6121 15.546 99.8298 15.7432V15.7141C100.353 16.0918 101.058 16.0918 101.58 15.7141C101.796 15.5152 101.912 15.2311 101.899 14.9379C101.901 14.6599 101.782 14.3948 101.573 14.2124C101.331 14.0086 101.021 13.9048 100.705 13.9222C100.388 13.9038 100.076 14.0047 99.8298 14.2051C99.6108 14.3951 99.493 14.677 99.5115 14.9669ZM99.6201 23.2157C99.6063 23.4898 99.715 23.7557 99.9167 23.9412C100.123 24.1084 100.382 24.1982 100.647 24.1951C100.911 24.2002 101.168 24.1101 101.371 23.9412C101.578 23.759 101.69 23.4915 101.675 23.2157V18.1373C101.69 17.8615 101.578 17.594 101.371 17.4118C101.167 17.2449 100.91 17.1573 100.647 17.1651C100.385 17.1623 100.13 17.2493 99.9239 17.4118C99.7169 17.594 99.6049 17.8615 99.6201 18.1373V23.2157Z" fill="#006ADC"/>
<path d="M104.438 24.0864C104.048 24.0045 103.676 23.8547 103.338 23.6438C103.204 23.5631 103.095 23.4478 103.02 23.3101C102.945 23.1618 102.908 22.9974 102.912 22.8313C102.903 22.6382 102.968 22.4491 103.092 22.3017C103.197 22.1635 103.361 22.0829 103.534 22.084C103.656 22.0856 103.778 22.1051 103.895 22.142L104.272 22.2944C104.518 22.4065 104.772 22.5011 105.031 22.5773C105.336 22.6534 105.65 22.6876 105.964 22.6789C106.214 22.6872 106.462 22.6349 106.688 22.5266C106.851 22.4536 106.958 22.2926 106.963 22.113C106.968 21.9961 106.924 21.8824 106.84 21.8011C106.713 21.6966 106.565 21.6222 106.406 21.5834C106.196 21.5181 105.856 21.4383 105.393 21.344C104.748 21.2585 104.135 21.0087 103.613 20.6185C103.243 20.2834 103.043 19.7979 103.071 19.2981C103.068 18.8906 103.204 18.4944 103.454 18.1736C103.739 17.8271 104.111 17.5639 104.532 17.4118C105.007 17.218 105.516 17.1218 106.029 17.1289C106.425 17.1286 106.819 17.1798 107.201 17.2813C107.558 17.375 107.899 17.5191 108.214 17.7093C108.489 17.8719 108.653 18.1728 108.641 18.4928C108.648 18.6945 108.584 18.8922 108.46 19.0515C108.355 19.1896 108.192 19.2702 108.019 19.2691C107.747 19.2532 107.483 19.1683 107.252 19.0224C107.05 18.9142 106.839 18.8221 106.623 18.7468C106.404 18.6845 106.177 18.6552 105.95 18.6597C105.713 18.6459 105.476 18.7013 105.27 18.8193C105.114 18.9081 105.017 19.0744 105.017 19.2546C105.018 19.4502 105.134 19.6267 105.313 19.7044C105.672 19.8548 106.049 19.9573 106.435 20.0091C106.932 20.0956 107.418 20.2417 107.881 20.4444C108.194 20.5836 108.461 20.8103 108.648 21.0973C109.122 21.9759 108.874 23.0702 108.069 23.6583C107.426 24.0778 106.666 24.2811 105.899 24.2387C105.408 24.2417 104.918 24.1906 104.438 24.0864Z" fill="#006ADC"/>
<path fill-rule="evenodd" clip-rule="evenodd" d="M38.4563 29.3606C38.4578 29.2479 38.4164 29.139 38.3405 29.0559H38.3767C38.1874 28.9003 37.9149 28.9003 37.7256 29.0559C37.6497 29.1385 37.6105 29.2485 37.6171 29.3606V32.2625C37.4625 31.9345 37.2096 31.6631 36.8937 31.4863C36.5654 31.3003 36.1928 31.2075 35.8158 31.2178C34.9353 31.1917 34.1265 31.702 33.7686 32.5092C33.5646 32.9649 33.4657 33.4609 33.4792 33.9602C33.4679 34.4593 33.5667 34.9548 33.7686 35.4112C33.9472 35.8063 34.233 36.1432 34.5933 36.3833C34.957 36.6192 35.3828 36.7404 35.8158 36.7316C36.1935 36.7397 36.5661 36.6444 36.8937 36.4559C37.2094 36.2821 37.4625 36.013 37.6171 35.6869V36.2745C37.5579 36.4569 37.6225 36.6568 37.7772 36.7695C37.9319 36.8823 38.1415 36.8823 38.2962 36.7695C38.4509 36.6568 38.5155 36.4569 38.4563 36.2745V29.3606ZM37.6171 33.982C37.6394 34.5165 37.4814 35.043 37.1686 35.4765L37.1975 35.4474C36.8931 35.7843 36.4609 35.9765 36.0075 35.9765C35.5542 35.9765 35.122 35.7843 34.8175 35.4474C34.5035 35.0125 34.3501 34.4816 34.3835 33.9457C34.3503 33.4255 34.5043 32.9106 34.8175 32.4947C35.1104 32.1407 35.5532 31.9469 36.0112 31.9724C36.4666 31.9492 36.9063 32.1428 37.1975 32.4947C37.5022 32.9281 37.6502 33.4528 37.6171 33.982Z" fill="#000638"/>
<path fill-rule="evenodd" clip-rule="evenodd" d="M44.4677 35.803C44.4715 35.7104 44.4405 35.6198 44.3809 35.5491C44.3301 35.4849 44.2529 35.4475 44.1711 35.4475C44.0361 35.4739 43.908 35.5283 43.795 35.6071C43.5854 35.726 43.3679 35.8303 43.1439 35.9191C42.9111 35.9986 42.6665 36.0378 42.4205 36.0351C41.3065 36.0351 40.7133 35.4112 40.6482 34.1634H44.1277C44.2309 34.174 44.3337 34.1396 44.4099 34.0691C44.4757 33.9764 44.5065 33.8632 44.4967 33.7499C44.5328 33.0874 44.3154 32.4361 43.889 31.9289C43.4698 31.4734 42.8716 31.2266 42.2541 31.2542C41.7984 31.2458 41.3496 31.3665 40.9592 31.6024C40.577 31.8334 40.2703 32.1713 40.0767 32.5746C39.8559 33.0255 39.7467 33.5233 39.7584 34.0255C39.7212 34.7656 39.9818 35.4896 40.4818 36.0351C40.9999 36.5359 41.702 36.7986 42.4205 36.7606C43.0049 36.7527 43.5775 36.5953 44.0843 36.3036C44.3375 36.1512 44.4677 35.9844 44.4677 35.803ZM40.6699 33.6048C40.6928 33.1511 40.8688 32.7188 41.169 32.3787V32.3497C41.46 32.0549 41.8628 31.8991 42.2758 31.9216C42.6793 31.9058 43.0689 32.0706 43.3392 32.3714C43.613 32.7225 43.7539 33.1594 43.7371 33.6048H40.6699Z" fill="#000638"/>
<path d="M49.9584 36.485C49.7568 36.2995 49.648 36.0335 49.6618 35.7595V27.7791C49.648 27.505 49.7568 27.2391 49.9584 27.0536C50.1648 26.8916 50.4198 26.8047 50.6818 26.8069C50.9442 26.8023 51.2 26.8895 51.4052 27.0536C51.6069 27.2391 51.7156 27.505 51.7018 27.7791V35.7595C51.7156 36.0335 51.6069 36.2995 51.4052 36.485C51.2007 36.6511 50.945 36.7409 50.6818 36.7389C50.4189 36.7391 50.1638 36.6496 49.9584 36.485Z" fill="#000638"/>
<path d="M55.2175 27.1624C55.4526 27.4912 55.5699 27.8901 55.5502 28.2942C55.5558 29.2442 55.1804 30.1565 54.5085 30.8262C54.3986 30.9509 54.2405 31.0222 54.0745 31.0221C53.9223 31.0206 53.7758 30.9639 53.6621 30.8624C53.5479 30.7676 53.4816 30.6267 53.4813 30.4779C53.4829 30.3418 53.5374 30.2116 53.6332 30.1152C53.9201 29.8298 54.1336 29.4787 54.2553 29.0922C53.9807 29.0658 53.7243 28.9424 53.5319 28.744C53.3358 28.5345 53.2316 28.2549 53.2426 27.9677C53.2214 27.6551 53.3255 27.3469 53.5319 27.1117C53.7398 26.8854 54.0355 26.7609 54.3421 26.7707C54.6779 26.7623 54.9995 26.9062 55.2175 27.1624Z" fill="#000638"/>
<path fill-rule="evenodd" clip-rule="evenodd" d="M56.8308 27.5179C56.8174 27.8111 56.9339 28.0952 57.149 28.2941C57.6734 28.6754 58.3826 28.6754 58.9069 28.2941C59.12 28.0973 59.2341 27.8152 59.218 27.5251C59.2205 27.2472 59.1015 26.9821 58.8925 26.7996C58.6504 26.5958 58.34 26.4921 58.0244 26.5094C57.7078 26.4925 57.3961 26.5932 57.149 26.7924C56.9435 26.9768 56.8274 27.2413 56.8308 27.5179ZM56.9682 35.774C56.9531 36.0497 57.0651 36.3172 57.272 36.4994C57.7145 36.8368 58.327 36.8368 58.7695 36.4994C58.9711 36.314 59.0799 36.048 59.0661 35.774V30.6955C59.0799 30.4215 58.9711 30.1555 58.7695 29.97C58.3269 29.6411 57.7219 29.6411 57.2793 29.97C57.0678 30.1495 56.9526 30.4181 56.9682 30.6955V35.774Z" fill="#000638"/>
<path d="M66.7775 30.369C67.2255 31.0017 67.4379 31.7719 67.378 32.5455V35.7594C67.3946 36.0325 67.2884 36.2987 67.0886 36.4849C66.64 36.8437 66.0036 36.8437 65.555 36.4849C65.3654 36.2928 65.2655 36.0293 65.2801 35.7594V32.6471C65.3081 32.2889 65.2165 31.9315 65.0197 31.6314C64.8189 31.4058 64.5244 31.2877 64.2239 31.3122C63.8303 31.2952 63.4483 31.4484 63.175 31.7329C62.9039 32.0368 62.7634 32.4358 62.7843 32.8429V35.7449C62.7999 36.0164 62.6969 36.2812 62.5022 36.4704C62.2935 36.6556 62.021 36.7519 61.7426 36.7388C61.4599 36.7519 61.1829 36.6558 60.9686 36.4704C60.7739 36.2812 60.671 36.0164 60.6865 35.7449V30.6665C60.6673 30.3915 60.777 30.1233 60.9831 29.941C61.1999 29.7607 61.4757 29.6676 61.7571 29.6798C62.0227 29.6621 62.284 29.7538 62.4805 29.9337C62.6615 30.1047 62.7614 30.3447 62.7554 30.5939V30.7898C62.9771 30.432 63.289 30.1392 63.6597 29.941C64.0647 29.7423 64.511 29.6429 64.9618 29.6508C65.6448 29.5985 66.314 29.8632 66.7775 30.369Z" fill="#000638"/>
<path d="M70.2498 36.3326C69.7321 36.0543 69.3089 35.6274 69.0345 35.1066C68.7427 34.5295 68.5985 33.8888 68.6149 33.242C68.5983 32.5849 68.7529 31.9347 69.0634 31.3558C69.3537 30.8202 69.7937 30.3815 70.3294 30.0934C70.9118 29.7894 71.561 29.6372 72.2175 29.6509C72.5963 29.6515 72.9734 29.7028 73.3387 29.8032C73.6926 29.8969 74.0312 30.0411 74.3443 30.2313C74.6222 30.3919 74.7891 30.6932 74.7783 31.0148C74.7862 31.2234 74.728 31.4291 74.6119 31.6024C74.5123 31.7522 74.3428 31.8399 74.1634 31.8346C74.0469 31.8354 73.9314 31.8132 73.8234 31.7693C73.7149 31.7693 73.5775 31.6677 73.4038 31.5879C73.2363 31.4954 73.0622 31.4154 72.883 31.3485C72.7162 31.2877 72.5396 31.2582 72.3621 31.2615C71.9104 31.233 71.4714 31.4182 71.1758 31.762C70.8702 32.1809 70.724 32.6955 70.7634 33.213C70.729 33.73 70.8747 34.2429 71.1758 34.664C71.4714 35.0078 71.9104 35.193 72.3621 35.1646C72.5365 35.1664 72.7101 35.1394 72.8758 35.0848C73.0594 35.0172 73.2382 34.9372 73.4111 34.8454L73.8306 34.6568C73.9359 34.6121 74.0492 34.5899 74.1634 34.5915C74.3413 34.5916 74.5072 34.6816 74.6047 34.8309C74.7253 35.0051 74.7862 35.2138 74.7783 35.4258C74.7937 35.7446 74.6248 36.0439 74.3443 36.1948C74.0248 36.3875 73.6786 36.5318 73.317 36.6228C72.9176 36.7256 72.5068 36.7768 72.0945 36.7752C71.4521 36.7875 70.8171 36.6351 70.2498 36.3326Z" fill="#000638"/>
<path d="M76.1022 36.485C75.8952 36.3027 75.7832 36.0353 75.7984 35.7595V27.7791C75.7832 27.5033 75.8952 27.2358 76.1022 27.0536C76.5478 26.7258 77.154 26.7258 77.5996 27.0536C77.8039 27.2372 77.9132 27.5045 77.8962 27.7791V35.7595C77.9132 36.0341 77.8039 36.3013 77.5996 36.485C77.1572 36.8224 76.5447 36.8224 76.1022 36.485Z" fill="#000638"/>
<path d="M85.7886 29.9411C85.9843 30.1301 86.0897 30.3943 86.078 30.6666V35.745C86.0977 36.0216 85.9848 36.291 85.7741 36.4705C85.561 36.6529 85.2874 36.7487 85.0073 36.7389C84.742 36.755 84.4814 36.6635 84.2839 36.485C84.1053 36.31 84.0082 36.0679 84.0163 35.8176V35.6797C83.8204 36.0191 83.5351 36.2977 83.1916 36.485C82.1658 36.9751 80.9473 36.8038 80.0954 36.0497C79.6291 35.4249 79.4054 34.6513 79.4661 33.8732V30.6666C79.4515 30.3953 79.5543 30.1309 79.7482 29.9411C79.9639 29.7589 80.2405 29.6656 80.5222 29.6799C80.7999 29.6625 81.0732 29.7564 81.2818 29.9411C81.4757 30.1309 81.5785 30.3953 81.5639 30.6666V33.924C81.5413 34.2443 81.6308 34.5625 81.8171 34.8236C82.0246 35.0319 82.313 35.1381 82.6056 35.1138C82.982 35.1284 83.3452 34.9742 83.5967 34.693C83.861 34.3914 83.9984 33.9987 83.9801 33.5976V30.6956C83.9637 30.4254 84.0638 30.1612 84.255 29.9701C84.4674 29.7871 84.7422 29.6935 85.0218 29.7089C85.2975 29.6862 85.5715 29.7691 85.7886 29.9411Z" fill="#000638"/>
<path d="M88.798 36.6228C88.4084 36.541 88.0363 36.3912 87.6984 36.1803C87.5645 36.0995 87.4546 35.9843 87.3801 35.8465C87.3054 35.6982 87.2681 35.5338 87.2716 35.3677C87.2634 35.1747 87.3279 34.9856 87.4524 34.8381C87.5572 34.7 87.7206 34.6193 87.8937 34.6205C88.0171 34.621 88.1395 34.6431 88.2554 34.6858C88.3834 34.7271 88.509 34.7755 88.6316 34.8309C88.8661 34.9415 89.1077 35.036 89.355 35.1138C89.66 35.1899 89.974 35.224 90.2882 35.2154C90.5381 35.2242 90.7863 35.1719 91.0116 35.063C91.1752 34.9901 91.2823 34.8291 91.2865 34.6495C91.2922 34.5326 91.2474 34.4189 91.1635 34.3375C91.0381 34.2315 90.8893 34.1569 90.7294 34.1199C90.5197 34.0546 90.1797 33.9748 89.7167 33.8805C89.0715 33.7949 88.4588 33.5452 87.9371 33.155C87.5664 32.8198 87.3669 32.3344 87.3945 31.8346C87.3922 31.4271 87.5273 31.0308 87.778 30.7101C88.0527 30.3591 88.4144 30.0865 88.8269 29.9193C89.3021 29.7255 89.8113 29.6292 90.3243 29.6364C90.7199 29.6361 91.1138 29.6873 91.4963 29.7887C91.8524 29.8824 92.1934 30.0266 92.509 30.2167C92.783 30.3804 92.9465 30.6806 92.9358 31.0003C92.9438 31.2021 92.8796 31.4002 92.755 31.5589C92.6502 31.6971 92.4868 31.7777 92.3137 31.7765C92.0414 31.7607 91.7776 31.6758 91.5469 31.5299C91.3446 31.4217 91.1342 31.3295 90.9175 31.2542C90.6988 31.192 90.4721 31.1627 90.2448 31.1671C90.0075 31.1533 89.7713 31.2088 89.5648 31.3267C89.4084 31.4156 89.3117 31.5818 89.3116 31.762C89.3128 31.9577 89.4291 32.1342 89.6082 32.2118C89.967 32.3623 90.344 32.4647 90.7294 32.5165C91.2269 32.6049 91.7125 32.7509 92.1763 32.9518C92.4858 33.0932 92.7492 33.3196 92.9358 33.6048C93.4092 34.4834 93.162 35.5777 92.3571 36.1658C91.7134 36.5853 90.9534 36.7886 90.1869 36.7462C89.7209 36.7535 89.2554 36.7122 88.798 36.6228Z" fill="#000638"/>
<path fill-rule="evenodd" clip-rule="evenodd" d="M94.3103 27.5179C94.2938 27.8116 94.4108 28.097 94.6285 28.2942C95.1491 28.6706 95.8514 28.6706 96.372 28.2942C96.5915 28.0978 96.7111 27.8126 96.6975 27.5179C96.7002 27.2383 96.5781 26.9722 96.3647 26.7924C95.8503 26.4055 95.143 26.4055 94.6285 26.7924C94.4197 26.9744 94.3029 27.2405 94.3103 27.5179ZM94.4694 35.7595C94.4525 36.034 94.5617 36.3013 94.766 36.4849H94.7226C95.1651 36.8223 95.7776 36.8223 96.22 36.4849C96.4243 36.3013 96.5336 36.034 96.5166 35.7595V30.681C96.5336 30.4064 96.4243 30.1392 96.22 29.9555C96.0154 29.7904 95.7592 29.703 95.4966 29.7089C95.2344 29.7054 94.979 29.7925 94.7732 29.9555C94.5663 30.1378 94.4543 30.4052 94.4694 30.681V35.7595Z" fill="#000638"/>
<path fill-rule="evenodd" clip-rule="evenodd" d="M98.26 35.0848C98.5513 35.6141 98.9916 36.0456 99.526 36.3254C100.728 36.9062 102.129 36.9062 103.331 36.3254C103.865 36.0456 104.306 35.6141 104.597 35.0848C105.185 33.8964 105.185 32.5007 104.597 31.3122C104.303 30.7867 103.863 30.3581 103.331 30.0789C102.126 29.5085 100.731 29.5085 99.526 30.0789C98.9936 30.3581 98.5538 30.7867 98.26 31.3122C97.6721 32.5007 97.6721 33.8964 98.26 35.0848ZM102.557 31.7475C102.85 32.1718 102.991 32.6836 102.955 33.1985C102.955 34.5117 102.449 35.1864 101.429 35.1864C100.409 35.1864 99.9022 34.5262 99.9022 33.2203C99.9022 31.9144 100.409 31.2615 101.429 31.2615C101.86 31.2342 102.279 31.4147 102.557 31.7475Z" fill="#000638"/>
<path d="M112.41 30.369C112.855 31.0026 113.065 31.7727 113.003 32.5455V35.7594C113.019 36.0308 112.916 36.2956 112.721 36.4849C112.507 36.6703 112.23 36.7664 111.947 36.7533C111.669 36.7656 111.396 36.6694 111.187 36.4849C110.994 36.2949 110.894 36.0299 110.912 35.7594V32.647C110.94 32.2889 110.849 31.9315 110.652 31.6314C110.451 31.4067 110.157 31.2888 109.856 31.3121C109.462 31.2932 109.08 31.4468 108.807 31.7329C108.531 32.0343 108.388 32.4344 108.409 32.8429V35.7449C108.424 36.0148 108.324 36.2783 108.135 36.4704C107.686 36.8292 107.05 36.8292 106.601 36.4704C106.401 36.2842 106.295 36.018 106.312 35.7449V30.6665C106.292 30.3899 106.405 30.1205 106.615 29.941C106.83 29.7611 107.103 29.668 107.382 29.6798C107.648 29.6637 107.908 29.7552 108.106 29.9337C108.285 30.1054 108.382 30.3456 108.373 30.5939V30.7898C108.607 30.4292 108.932 30.1365 109.314 29.941C109.716 29.7421 110.16 29.6426 110.609 29.6508C111.287 29.6031 111.95 29.8674 112.41 30.369Z" fill="#000638"/>
<path d="M16.0958 17.7455C15.6252 17.7484 15.1574 17.8193 14.7069 17.9559C12.4618 18.6373 11.0553 20.8677 11.4038 23.1941C11.7523 25.5204 13.7502 27.2379 16.0958 27.2276C16.5668 27.2283 17.0351 27.1574 17.4848 27.0173C19.709 26.3174 21.0934 24.0971 20.7471 21.7852C20.4008 19.4733 18.4269 17.759 16.0958 17.7455Z" fill="#CCE1F8"/>
<path d="M14.7937 19.7914C15.369 21.6833 14.3071 23.685 12.4212 24.2638C10.5352 24.8426 8.53829 23.7797 7.9593 21.8888C7.38032 19.998 8.43823 17.9943 10.323 17.4118C11.2305 17.1293 12.2129 17.2216 13.0522 17.6684C13.8915 18.1151 14.5184 18.8793 14.7937 19.7914Z" fill="#006ADC"/>
<path d="M22.4256 0.471616C19.1858 0.458916 16.304 2.53342 15.2795 5.61577C14.255 8.69811 15.3193 12.0918 17.9186 14.0311C20.518 15.9704 24.065 16.0171 26.7143 14.1469C29.3635 12.2767 30.5163 8.91223 29.5728 5.80397C28.5985 2.65804 25.7101 0.503061 22.4256 0.471616Z" fill="#CCE1F8"/>
<path d="M29.732 4.70117C28.1413 4.72086 26.8231 5.94362 26.6796 7.5325C26.536 9.12137 27.6137 10.5618 29.175 10.8678C29.361 10.9027 29.55 10.9197 29.7392 10.9186C31.3392 10.9146 32.6726 9.68859 32.8152 8.09039C32.9579 6.49218 31.8628 5.0482 30.289 4.75921C30.1056 4.72233 29.9191 4.7029 29.732 4.70117" fill="#006ADC"/>
<path d="M25.0226 31.1526C25.4425 32.5274 24.9953 34.0205 23.8895 34.9357C22.7837 35.8508 21.2371 36.0078 19.9709 35.3335C18.7046 34.6591 17.9681 33.2862 18.1048 31.8549C18.2415 30.4236 19.2245 29.2158 20.5954 28.7947C21.4942 28.5166 22.4665 28.609 23.2973 29.0515C24.1281 29.4939 24.7489 30.25 25.0226 31.1526Z" fill="#006ADC"/>
<path d="M3.14686 25.9C2.09422 25.8996 1.16019 26.5768 0.830617 27.5794C0.501041 28.5821 0.850357 29.6836 1.69687 30.3111C2.54338 30.9385 3.69589 30.9503 4.55491 30.3401C5.41394 29.73 5.78546 28.6358 5.47622 27.6267C5.15588 26.605 4.21475 25.9074 3.14686 25.9Z" fill="#006ADC"/>
<path d="M25.6954 21.5181C25.5165 21.5198 25.3388 21.5466 25.1673 21.5979C24.3027 21.8511 23.7575 22.7058 23.8907 23.5992C24.024 24.4926 24.7948 25.15 25.6954 25.1383C25.8746 25.1403 26.0529 25.1133 26.2235 25.0585C27.0881 24.8053 27.6334 23.9505 27.5001 23.0572C27.3669 22.1638 26.5961 21.5064 25.6954 21.5181Z" fill="#CCE1F8"/>
<path d="M6.29364 7.4944C4.06829 7.4944 2.26428 9.3036 2.26428 11.5354C2.26428 13.7671 4.06829 15.5764 6.29364 15.5764C6.69299 15.5754 7.09012 15.5167 7.47279 15.4022C9.38535 14.8202 10.5834 12.9201 10.2878 10.9377C9.99224 8.95532 8.29231 7.48985 6.29364 7.4944Z" fill="#CCE1F8"/>
</svg>
