<?xml version="1.0" encoding="UTF-8" standalone="no"?>
<svg
   viewBox="0 0 174.8 43.1"
   version="1.1"
   id="svg858"
   sodipodi:docname="logo_sombre_solidarites.svg"
   inkscape:version="1.2.1 (9c6d41e410, 2022-07-14)"
   inkscape:export-filename="../../../../public/logo_solidarites.png"
   inkscape:export-xdpi="562.37988"
   inkscape:export-ydpi="562.37988"
   xmlns:inkscape="http://www.inkscape.org/namespaces/inkscape"
   xmlns:sodipodi="http://sodipodi.sourceforge.net/DTD/sodipodi-0.dtd"
   xmlns="http://www.w3.org/2000/svg"
   xmlns:svg="http://www.w3.org/2000/svg"
   xmlns:rdf="http://www.w3.org/1999/02/22-rdf-syntax-ns#"
   xmlns:cc="http://creativecommons.org/ns#"
   xmlns:dc="http://purl.org/dc/elements/1.1/">
  <metadata
     id="metadata864">
    <rdf:RDF>
      <cc:Work
         rdf:about="">
        <dc:format>image/svg+xml</dc:format>
        <dc:type
           rdf:resource="http://purl.org/dc/dcmitype/StillImage" />
        <dc:title />
      </cc:Work>
    </rdf:RDF>
  </metadata>
  <defs
     id="defs862" />
  <sodipodi:namedview
     pagecolor="#ffffff"
     bordercolor="#666666"
     borderopacity="1"
     objecttolerance="10"
     gridtolerance="10"
     guidetolerance="10"
     inkscape:pageopacity="0"
     inkscape:pageshadow="2"
     inkscape:window-width="1500"
     inkscape:window-height="931"
     id="namedview860"
     showgrid="false"
     inkscape:zoom="4.0160182"
     inkscape:cx="83.540458"
     inkscape:cy="21.663248"
     inkscape:window-x="0"
     inkscape:window-y="32"
     inkscape:window-maximized="1"
     inkscape:current-layer="svg858"
     inkscape:showpageshadow="2"
     inkscape:pagecheckerboard="0"
     inkscape:deskcolor="#d1d1d1" />
  <g
     fill="#FFF"
     id="g852"
     style="fill:#222e5c;fill-opacity:1">
    <path
       d="M65 17.7h-3.4l-2.3-5.9c-.2-.5-.5-.9-.9-1.1-.4-.2-1-.3-1.6-.3h-3.2v7.4h-3.2V0H58c2 0 3.5.4 4.6 1.3 1 .9 1.6 2.1 1.6 3.8 0 1.2-.3 2.2-.9 3-.6.8-1.5 1.4-2.7 1.8 1 .2 1.8.9 2.3 2.2l2.1 5.6zm-7.4-9.9c1.2 0 2.1-.2 2.7-.7s.9-1.1.9-2c0-.9-.3-1.6-.9-2-.6-.4-1.5-.7-2.7-.7h-4v5.4h4zM67.9 0h6.5c2.9 0 5.2.8 6.8 2.3 1.6 1.5 2.4 3.7 2.4 6.5s-.8 5-2.4 6.6-3.9 2.3-6.8 2.3h-6.5V0zm6.4 15.1c4.1 0 6.1-2.1 6.1-6.3s-2-6.2-6.1-6.2h-3.1v12.5h3.1zM99.4 0h3.3l-7.9 17.7h-2.6L84.3 0h3.3l5.9 13.7L99.4 0z"
       id="path850"
       style="fill:#222e5c;fill-opacity:1" />
  </g>
  <path
     fill="#FFF"
     d="M69.4 42.2c-1-.5-1.7-1.3-2.2-2.3s-.8-2.1-.8-3.5c0-1.3.3-2.5.8-3.5s1.3-1.7 2.2-2.3c1-.5 2.1-.8 3.4-.8s2.4.3 3.3.8c1 .5 1.7 1.3 2.2 2.3.5 1 .8 2.1.8 3.5 0 1.3-.3 2.5-.8 3.5s-1.3 1.7-2.2 2.3c-1 .5-2.1.8-3.3.8-1.3 0-2.5-.2-3.4-.8zm5.7-2.6c.6-.7.8-1.7.8-3.1 0-1.3-.3-2.4-.8-3.1-.6-.7-1.4-1.1-2.4-1.1s-1.9.4-2.4 1.1c-.6.7-.8 1.7-.8 3.1s.3 2.4.8 3.1c.6.7 1.4 1 2.4 1 1.1 0 1.9-.4 2.4-1zM81.8 42.8V24.5h3.1v18.3h-3.1zM88.1 24.5h3.5v3.1h-3.5v-3.1zm.2 18.3V30.3h3.1v12.6h-3.1v-.1zM106.8 24.5v18.3h-3.1v-2c-.4.7-.9 1.2-1.6 1.6-.7.4-1.5.6-2.4.6-1.1 0-2-.3-2.9-.8-.8-.5-1.5-1.3-2-2.3s-.7-2.2-.7-3.5.2-2.4.7-3.4 1.1-1.7 2-2.3c.8-.5 1.8-.8 2.9-.8.9 0 1.7.2 2.4.6.7.4 1.3.9 1.6 1.6v-7.6h3.1zm-3.9 15c.6-.7.9-1.7.9-3s-.3-2.3-.8-3c-.6-.7-1.4-1.1-2.4-1.1s-1.9.4-2.4 1.1c-.6.7-.9 1.7-.9 3s.3 2.3.9 3.1c.6.7 1.4 1.1 2.4 1.1.9-.1 1.7-.5 2.3-1.2zM122.2 30.3v12.6h-3.1v-2c-.4.7-.9 1.2-1.6 1.6-.7.4-1.5.6-2.4.6-1.1 0-2.1-.3-2.9-.8s-1.5-1.3-2-2.3-.7-2.1-.7-3.4c0-1.3.2-2.4.7-3.5.5-1.1 1.1-1.8 2-2.3.8-.6 1.8-.8 2.9-.8.9 0 1.7.2 2.4.6.7.4 1.3.9 1.6 1.6v-1.9h3.1zm-3.9 9.2c.6-.7.8-1.7.8-3s-.3-2.3-.8-3.1c-.6-.7-1.4-1.1-2.4-1.1s-1.8.4-2.4 1.1-.9 1.8-.9 3.1.3 2.3.9 3 1.4 1 2.4 1c1.1.1 1.9-.3 2.4-1zM133.7 30.2V33c-.5-.2-1.1-.3-1.6-.3-1.1 0-1.9.3-2.4.9-.6.6-.8 1.4-.8 2.4v6.8h-3.1v-9c0-1.3-.1-2.5-.2-3.6h2.9l.2 2.2c.3-.8.8-1.4 1.5-1.9.7-.4 1.5-.6 2.3-.6.4.1.8.1 1.2.3zM135.2 24.5h3.5v3.1h-3.5v-3.1zm.2 18.3V30.3h3.1v12.6h-3.1v-.1zM145.9 32.6v5.6c0 1.5.7 2.2 2.1 2.2.4 0 .8-.1 1.2-.2v2.5c-.5.2-1.2.3-2 .3-1.4 0-2.5-.4-3.3-1.2s-1.1-1.9-1.1-3.4v-5.8h-2.4v-2.3h2.4v-3.1l3.1-1v4.1h3.3v2.3h-3.3zM162.4 36.7h-8.7c.1 1.3.4 2.3 1 3 .6.6 1.5 1 2.7 1 1.4 0 2.7-.4 3.8-1.3l.9 2.1c-.6.5-1.3.9-2.2 1.2s-1.8.4-2.7.4c-2.1 0-3.7-.6-4.9-1.7s-1.8-2.8-1.8-4.8c0-1.3.3-2.4.8-3.4s1.2-1.8 2.2-2.3c.9-.6 2-.8 3.2-.8 1.7 0 3.1.6 4.1 1.7 1 1.1 1.5 2.7 1.5 4.6l.1.3zm-7.6-3.8c-.5.5-.9 1.2-1 2.1h5.9c-.1-.9-.4-1.7-.9-2.1-.5-.5-1.1-.7-2-.7s-1.5.2-2 .7zm2.9-4.3h-2l2.5-5.1h3.2l-3.7 5.1zM164.2 41.4l.9-2.2c1.3 1 2.9 1.5 4.6 1.5.7 0 1.3-.1 1.7-.4.4-.2.6-.6.6-1s-.1-.7-.4-.9c-.3-.2-.8-.4-1.4-.6l-2.1-.5c-2.3-.5-3.4-1.7-3.4-3.5 0-.8.2-1.4.6-2 .4-.6 1-1 1.8-1.4.8-.3 1.7-.5 2.7-.5.9 0 1.8.1 2.6.4s1.6.7 2.2 1.2l-.9 2.1c-1.3-.9-2.6-1.4-3.9-1.4-.7 0-1.3.1-1.7.4s-.6.6-.6 1.1c0 .4.1.7.4.9.2.2.7.4 1.2.5l2.1.5c1.2.3 2.2.7 2.7 1.3.6.6.9 1.4.9 2.3 0 1.2-.5 2.1-1.4 2.8s-2.2 1-3.8 1c-2.3 0-4.1-.5-5.4-1.6zM53.4 42.4c-1.1-.4-2.1-.9-2.9-1.6l1.1-2.4c.8.7 1.7 1.1 2.6 1.5s1.9.5 3 .5c1.2 0 2.1-.2 2.7-.7.6-.4 1-1.1 1-1.8s-.3-1.2-.9-1.6c-.6-.4-1.6-.7-3-1-2.1-.5-3.7-1.1-4.7-1.9-1-.8-1.5-1.9-1.5-3.4 0-1.1.3-2 .8-2.8.5-.8 1.3-1.5 2.3-1.9 1-.5 2.2-.7 3.5-.7 1.2 0 2.3.2 3.4.6 1.1.4 2 .9 2.7 1.6l-1 2.4c-1.5-1.3-3.2-1.9-5-1.9-1.1 0-2 .2-2.6.7s-1 1.1-1 2c0 .7.3 1.2.9 1.6.6.4 1.5.7 2.9 1 1.4.4 2.6.7 3.5 1.1.9.4 1.6.9 2.1 1.6.5.6.7 1.5.7 2.4 0 1.1-.3 2-.8 2.8-.5.8-1.3 1.4-2.4 1.9-1 .4-2.2.7-3.6.7-1.5-.1-2.7-.3-3.8-.7zM33.5 2.7H33V.1h-3v2.6h-7V.1h-3v2.6h-7V.1h-3v2.6h-.5C4.3 2.7 0 6.9 0 12.1v21.7c0 5.1 4.3 9.3 9.5 9.3h24c5.2 0 9.5-4.2 9.5-9.4V12.1c0-5.2-4.3-9.4-9.5-9.4zm-24 3h.5V8h3V5.7h7V8h3V5.7h7V8h3V5.7h.5c3.6 0 6.5 2.9 6.5 6.4v3.2H3v-3.2c0-3.5 2.9-6.4 6.5-6.4zm24 34.4h-24c-3.6 0-6.5-2.8-6.5-6.4V18.3h37v15.5c0 3.5-2.9 6.3-6.5 6.3z"
     id="path854"
     style="fill:#222e5c;fill-opacity:1" />
  <path
     fill="#FFF"
     d="M21.5 30.7c-2 0-3.8-1.2-4.6-2.9l-2.8 1.3c1.3 2.8 4.2 4.6 7.4 4.6 3.1 0 6-1.8 7.4-4.6l-2.7-1.3c-.9 1.8-2.7 2.9-4.7 2.9z"
     id="path856"
     style="fill:#222e5c;fill-opacity:1" />
</svg>
