<svg width="182" height="102" xmlns="http://www.w3.org/2000/svg" xmlns:xlink="http://www.w3.org/1999/xlink"><defs><linearGradient x1="27.476%" y1="41.793%" x2="129.707%" y2="61.38%" id="c"><stop stop-color="#060190" offset="0%"/><stop stop-color="#343A40" offset="100%"/></linearGradient><filter x="-4%" y="-5.3%" width="108.1%" height="114.9%" filterUnits="objectBoundingBox" id="a"><feOffset dy="2" in="SourceAlpha" result="shadowOffsetOuter1"/><feGaussianBlur stdDeviation="2" in="shadowOffsetOuter1" result="shadowBlurOuter1"/><feColorMatrix values="0 0 0 0 0 0 0 0 0 0 0 0 0 0 0 0 0 0 0.5 0" in="shadowBlurOuter1"/></filter><rect id="b" x="0" y="0" width="173.313" height="94" rx="17"/></defs><g fill="none" fill-rule="evenodd"><g transform="translate(4.5 2)"><use fill="#000" filter="url(#a)" xlink:href="#b"/><use fill="url(#c)" xlink:href="#b"/></g><g transform="translate(16.984 25.5)" fill-rule="nonzero"><path d="M46.742 23.502C46.742 10.525 36.28 0 23.37 0 10.46 0 0 10.52 0 23.502c-.017 9.881 6.16 18.718 15.457 22.113v-6.051c-.003-4.373 3.533-7.928 7.914-7.955 4.38.027 7.917 3.582 7.913 7.955v6.054c9.299-3.395 15.476-12.234 15.458-22.116z" fill="#D5D5D5" opacity=".114"/><ellipse stroke="#FFF" fill="#FFF" cx="23.386" cy="20.271" rx="8.983" ry="9.032"/><path d="M23.37 31.609h0c-4.38.027-7.916 3.582-7.913 7.955v6.054a23.34 23.34 0 0015.827 0v-6.054c.004-4.373-3.532-7.928-7.913-7.955h0zM14.325 19.771a8.8 8.8 0 01-.957-4.551 6.088 6.088 0 011.991-4.12c1.308-1.122 3.082-1.518 4.796-1.655 1.714-.136 3.451-.053 5.138-.39A10.73 10.73 0 0032.15 4.38c.107 1.324.214 2.678-.04 3.975-.252 1.297-.92 2.588-2.047 3.272 1.365-.634 1.216.854.921 1.743.677.821 2.32.958 2.403 2.02.083 1.062.068 2.16-.343 3.139-.412.979.03 2.707-1.026 2.781" stroke="#FFF" fill="#FFF"/></g><g fill="#FFF" fill-rule="nonzero"><path d="M80.875 45v-6.625h1.8c4.1 0 6.625-2.025 6.625-5.425 0-3.425-2.525-5.45-6.625-5.45h-6.25V45h4.45zm2.05-10.3h-2.05v-3.525h2.05c1.125 0 1.775.725 1.775 1.725 0 1.075-.65 1.8-1.775 1.8zM94.6 45l1.425-4.125h6.2L103.65 45h4.725l-6.35-17.5h-5.8L89.875 45H94.6zm6.325-7.875h-3.6l1.8-5.15 1.8 5.15zm15.1 8.375c3.3 0 6.05-2 6.1-5.5 0-6.125-7.7-5.25-7.7-7.85 0-.725.625-1.275 1.525-1.275 1.175 0 2.275.875 3.3 2.075l3.225-2.95c-1.625-1.8-3.775-3-6.55-3-3.55 0-6 2.425-6 5.35 0 6 7.7 5.125 7.7 7.8 0 1-.625 1.45-1.65 1.45-1.275 0-2.65-.8-3.575-2.025l-3.225 2.975c1.6 1.825 3.625 2.95 6.85 2.95zm14.7 0c3.3 0 6.05-2 6.1-5.5 0-6.125-7.7-5.25-7.7-7.85 0-.725.625-1.275 1.525-1.275 1.175 0 2.275.875 3.3 2.075l3.225-2.95c-1.625-1.8-3.775-3-6.55-3-3.55 0-6 2.425-6 5.35 0 6 7.7 5.125 7.7 7.8 0 1-.625 1.45-1.65 1.45-1.275 0-2.65-.8-3.575-2.025l-3.225 2.975c1.6 1.825 3.625 2.95 6.85 2.95zM79.125 70V52.5h-2.35V70h2.35zm5.95 0l2.025-5.15h8.05L97.175 70h2.5L92.7 52.5h-3.15L82.575 70h2.5zm9.3-7.175h-6.5l3.25-8.275 3.25 8.275zM112.525 70v-2h-7.05v-5.925h6.05V60.1h-6.05v-5.6h7.05v-2h-9.4V70h9.4z"/></g></g></svg>