<svg id="Calque_1" data-name="Calque 1" xmlns="http://www.w3.org/2000/svg" width="1613" height="362"><defs><linearGradient id="Dégradé_sans_nom" x1="167.4" y1="845.8" x2="167.4" y2="844.8" gradientTransform="matrix(1613 0 0 -362 -269204 306179)" gradientUnits="userSpaceOnUse"><stop offset="0" stop-color="#003189"/><stop offset=".37" stop-color="#3197df"/><stop offset=".56" stop-color="#8ac3eb"/><stop offset=".93" stop-color="#ebf2f9"/><stop offset="1" stop-color="#a8d29f"/></linearGradient><style>.cls-28{fill-opacity:.6}.cls-3{fill:#a8d29f}.cls-4{fill:#4a75cb}.cls-5{fill:#699dee}.cls-6{fill:#d86713}.cls-7{fill:#f1a34f}.cls-8{fill:#c95c12}.cls-9{fill:#82b378}.cls-10{fill:#ffb973}.cls-11{fill:#ed975d}.cls-12{fill:#2b478b}.cls-13{fill:#233862}.cls-14{fill:#1e3d70}.cls-15{fill:#ffb27d}.cls-16{fill:#2c3a64}.cls-18{fill:#f09d64}.cls-20{fill:#ee9849}.cls-21{fill:#e58638}.cls-22{fill:#2a4e96}.cls-23{fill:#35488b}.cls-24{fill:#b47549}.cls-25{fill:#a16942}.cls-27{fill:#4271bc}.cls-28,.cls-50{fill:#ebf2f9}.cls-29{fill:#a6c7f9}.cls-31{fill:#b77446}.cls-32{fill:#365da4}.cls-33{fill:#285493}.cls-34{fill:#aa443e}.cls-35{fill:#d9935c}.cls-36{fill:#80bdcc}.cls-37{fill:#5f9aa8}.cls-38{fill:#a86337}.cls-40{fill:#fff}.cls-41{fill:#163560}.cls-42{fill:#f4be61}.cls-43{fill:#f2a83d}.cls-44{fill:#c65447}.cls-45{fill:#e49963}.cls-46{fill:#d68d5d}.cls-48{fill:#8cb3ed}.cls-49{fill:#91b6ed}.cls-51{fill:#ffd5ab}.cls-53{fill:#c45446}.cls-54{fill:#b64c41}.cls-55{fill:#a53d38}.cls-56{fill:#ab7041}.cls-57{fill:#9c5f33}.cls-58{fill:#739af0}.cls-59{fill:#acd29a}.cls-60{fill:#cb8757}.cls-61{fill:#e7f0fd}.cls-62{fill:#aa413e}.cls-64{fill:#ad7041}.cls-65{fill:#89bccb}.cls-66{fill:#415da5}.cls-67{fill:#355493}.cls-68{fill:#6a99a7}.cls-69{fill:#b84c42}.cls-71{fill:#e7a329}.cls-72{fill:#466aa5}.cls-73{fill:#b74b42}.cls-74{fill:#e8945b}.cls-75{fill:#699ff0}.cls-76{fill:#deedff}.cls-80{fill:#a4c2f3}.cls-84{fill:#f8fbff}.cls-86{fill:#ce8032}.cls-87{fill:#e89746}</style></defs><g id="_-Logo-_-Fond" data-name="-Logo-/-Fond"><g id="Bandeau"><path id="Fond-bleu-vert-gris" fill="url(#Dégradé_sans_nom)" d="M0 0h1613v362H0z"/><g id="icone-custom_bandeau-prescripteur" data-name="icone-custom/bandeau-prescripteur"><g id="Group"><path id="Fill-2" d="M822.37 361.9s-37-78.6 35.89-78.6c38.49 0 22.63-21.57 48.8-46.52s117.68-44.9 137.16 3.3-28.66 84.79 17.86 78.51c55.9-7.54 78 43.32 78 43.32H822.37" fill-opacity=".6" fill="#fbecdb"/><path id="Fill-3" class="cls-3" d="M1121.7 353.2c-3.45-2.52-10.5-.82-15.7 1a23.74 23.74 0 00-2.86-3.31c11.2-7.21 26.68-22.59 18.48-23.89-7.13-1.13-16.75 12.71-21.89 21.14-5.34-3.59-13.52-6.23-26-5.31-32.42 2.37-57.75-18.52-76.42-11.55-14.84 5.54-28.45 8.65-41.57 7.59.56-9.58.69-28.38-6.84-30.33s-.15 19.37 4 30q-1.46-.19-2.92-.45c-2.7-5.31-7.14-12.27-12-12.51-4.6-.22 1.08 6 6.66 11.32-16-3.37-35.08 9.67-35.39 25.07h200.31a18.53 18.53 0 00-1.93-5.21c7.74-.15 17.84-.85 14.1-3.59"/><path id="Fill-4" class="cls-4" d="M900.14 362h52.76v-11.93h-52.76V362z"/><path id="Fill-5" class="cls-5" d="M883.81 362h52.76v-11.93h-52.76V362z"/><path id="Fill-6" class="cls-6" d="M973.72 362H1013v-54.94h-39.28V362z"/><path id="Fill-7" class="cls-7" d="M961.57 362h39.29v-54.94h-39.29V362z"/><path id="Fill-8" class="cls-8" d="M1000.86 307.06l12.14 8.26v-8.26h-12.14"/><path id="Fill-9" class="cls-9" d="M879.44 319.23s-7.35 5.46-8.78 5.13 5.37-5.89 5.37-5.89c-2.56-1.23-10.52-.46-10.52-.46s-2.65 8.54-4 7.87 2.73-7.44 2.73-7.44c-2.85-.17-6.35 1.94-6.35 1.94-4.79 3.78.31 9.72.31 9.72a14.54 14.54 0 01-4 5.62 12.62 12.62 0 00-4.62 8.89l.78.07s1.24-5.31 3.5-7.82l.37-.38c.37-.34.63-.6.8-.79 1.12-1.08 2.68-2.45 3.42-2.59a1.44 1.44 0 010-.38v.38c.26 3 6.09 5.63 9.68 6.17s2.48-.93 1.24-3.12-5.15-3.17-6-4.17 1-1 3.12 0 2.46 3.62 5.93 5.28 8.69-4.09 8.69-4.09c-2.77-.14-6.72-3.14-6.57-4.06s6.7 1.58 7.83 1.7 3.67-1.27 4.07-5.79-7-5.77-7-5.77"/><path id="Fill-10" class="cls-3" d="M840.42 322.65s8.12-4.54 4.33-10.7c0 0-3-3.78-6.28-4.76 0 0 1.73 9.19 0 9.4s-1.19-10.38-1.19-10.38-8.55-4.11-11.9-3.78c0 0 5.3 9 3.57 8.75s-7.68-9.29-7.68-9.29-8.77-1.62-10.17 3.57.87 7.78 2.16 8.11 9.63.22 9.41 1.3-5.84 2.81-9 1.84c0 0 3.46 8.54 8 8.11s6-3.24 8.76-3.46 4.87.54 3.46 1.3-6.17.25-8.44 2.18-4.11 3.12.11 4 11.79.32 13.31-2.92l1.51-3.24"/><path id="Fill-11" class="cls-9" d="M842.61 330.53a17.25 17.25 0 01-2.16-7.89c-2.6-8.22-25.31-15.58-25.31-15.58 28.88 11.68 23.79 18.82 23.79 18.82.78.45 1.95 2.62 2.75 4.28.12.28.3.67.57 1.21l.26.57c1.49 3.72.7 10.15.7 10.15l.9.24a15 15 0 00-1.51-11.79"/><path id="Fill-12" class="cls-3" d="M853.3 316.29s-10.71-6-5.71-14.11c0 0 4-5 8.28-6.27 0 0-2.28 12.11 0 12.4s1.57-13.68 1.57-13.68 11.28-5.42 15.71-5c0 0-7 11.83-4.71 11.54s10.14-12.26 10.14-12.26 11.57-2.14 13.42 4.7-1.14 10.26-2.86 10.69-12.71.29-12.42 1.71 7.71 3.7 11.85 2.42c0 0-4.57 11.26-10.57 10.69s-7.85-4.28-11.57-4.56-6.43.71-4.57 1.71 8.14.33 11.14 2.87 5.43 4.11-.14 5.25-15.57.43-17.57-3.85l-2-4.28"/><path id="Fill-13" class="cls-9" d="M886.77 295.85s-30 9.69-33.43 20.53a22.7 22.7 0 01-2.86 10.41 19.71 19.71 0 00-2 15.54l1.19-.32s-1-8.47.92-13.37l.34-.76c.36-.7.6-1.22.75-1.59 1.07-2.19 2.61-5 3.64-5.64 0 0-6.71-9.41 31.43-24.8"/><path id="Fill-14" class="cls-7" d="M852.95 360.88a21 21 0 0021-21H832a21 21 0 0021 21"/><path id="Fill-15" class="cls-10" d="M858.2 360.72a21 21 0 01-23.57-20.84h5.21a21 21 0 0018.36 20.84"/><path id="Fill-16" class="cls-7" d="M871.63 359.35h-37.37a2.57 2.57 0 00-2.59 2.55h42.55a2.57 2.57 0 00-2.59-2.55"/><path id="Fill-17" class="cls-6" d="M874.1 339.88h-42.42a.31.31 0 100 .61h42.42a.31.31 0 100-.61"/><path id="Fill-18" class="cls-11" d="M1035.95 229.59c-.61-.09-2.44 1.6-2.44 1.6-3.92.45-9.64 1.49-11.7 1.89-1.46.28-5.39-1.06-9.23-2.59-4.56-1.83-9-3.94-9-3.94-2.53-.13-5.41 4.49-.27 7.43a38.91 38.91 0 007.12 1.91c4.68 1 10.21 1.8 12.09 1.51 2.19-.34 8.37-2.6 12.05-4.34a4.51 4.51 0 011.72-.47 3.85 3.85 0 002.27-1.56c0-.34-2.06-1.32-2.67-1.41"/><path id="Fill-19" class="cls-12" d="M1031.17 287.57l-2.17.43s-9.85-11-11.37-15.69c-.81-2.48-6-3.56-11.44-5-4.73-1.22-9.63-2.69-12-5.56-5-6.16 3.16-13.74 3.16-13.74s8.72 5.17 16.24 10.52c5.26 3.73 9.93 7.55 10.63 9.75 1.71 5.34 5.34 15.48 6.91 19.25"/><path id="Fill-20" class="cls-13" d="M1028.27 291.25h1.21c.4-.06.7-.18 1.12-.23a1.12 1.12 0 011 .23h5.15c.13-.18 0-.61-.12-.92a.73.73 0 00-.48-.44 5.55 5.55 0 01-2.6-1.19c-.55-.5-2.67-1.83-2.67-1.83s-.27.07-1.23.88c-.5.42-1.35-.59-1.35-.59a1.2 1.2 0 00-.28.38 1.27 1.27 0 00-.11.79 5.06 5.06 0 01-.37 1.9c-.12.35-.22.6-.22.6s-.06.29 1 .42"/><path id="Fill-21" class="cls-14" d="M1013.62 258.6l-7.42 8.81c-4.72-1.22-9.63-2.7-12-5.58-5-6.19 3.16-13.79 3.16-13.79s8.71 5.19 16.23 10.55"/><path id="Fill-22" class="cls-12" d="M1006.88 254s-.6 1.89-1.58 4.72c-1.24 3.59-3.07 8.7-5.07 13.43-.44 1-.89 2.06-1.33 3-1.66 3.65-3.36 6.77-4.85 8.36-2.69 2.86-9.22 21.21-9.22 21.21l-1.63-.45s-2.27-15.67 5.77-24.59a.56.56 0 00.16-.33c.11-1.32.49-7.23 1.32-13.22.2-1.47.44-2.94.7-4.36l.05-.27c1.22-6.53 2.39-9.43 3.91-10.89l11.78 3.34"/><path id="Fill-23" class="cls-13" d="M983.07 307.05h1.21c.4-.06.7-.18 1.12-.24a1.12 1.12 0 011 .24h5.15c.13-.18 0-.61-.12-.92a.73.73 0 00-.48-.44 5.55 5.55 0 01-2.6-1.18c-.55-.5-2.67-1.83-2.67-1.83s-.27.07-1.23.88c-.5.42-1.35-.59-1.35-.59a1.21 1.21 0 00-.28.38 1.28 1.28 0 00-.11.79 5.08 5.08 0 01-.37 1.9c-.12.35-.22.6-.22.6s-.06.29 1 .42"/><path id="Fill-24" class="cls-15" d="M985.39 232.67s-1.85 4.53-4 8.94c-1.8 3.71-3.8 7.33-5.06 8.1-1.79 1.09-6.71 4.16-9.9 6.46 0 0-2.49 0-2.88.46s-1.28 2.62-1 2.83a3.84 3.84 0 002.72-.38 4.5 4.5 0 011.59-.81h.05c3.88-1.19 10-3.68 11.81-4.89 1.59-1 5.1-5.37 7.91-9.22a38.71 38.71 0 004-6.19c1.82-5.61-3.41-7.08-5.19-5.29"/><path id="Fill-25" class="cls-16" d="M995.16 214.92a9.35 9.35 0 00-.67-.86 2.1 2.1 0 00.82-.12c.65-.27 1-2.33.85-2.94s-1-2.38-2.12-2.56-2.27 1.06-2.27 1.06c.21-.89 2.1-1.41 2.1-1.41-3.9.71-3.7 3.3-3.67 3.54-3.57-1.26-5.66 5.42-5.66 5.42l9.24 5.42s0-1.48.91-1.38c1.38.15 2.52-3.21.48-6.17"/><path id="Fill-26" class="cls-15" d="M995.73 228.94c-2.11 1-4.91-.44-4.9-.46.18-.18.12-.73 0-1.44a10.5 10.5 0 00-1.28-3c-.15-.26-.3-.52-.48-.79l.24-.09 4.1-1.65s.66 1.2 1.36 2.29c.59.91 1.21 1.73 1.48 1.7 0 0 2.73 1.86-.47 3.41"/><path id="Fill-27" class="cls-11" d="M993.31 222c-.11 1.47-.61 4.13-2.59 5.1a10.49 10.49 0 00-1.29-3l3.88-2.12"/><path id="Fill-28" class="cls-15" d="M989.2 225.8s5.36-2.12 4-5.44-1.59-5.83-5.07-4.62-3.62 2.75-3.43 4 3.08 6.55 4.51 6.09"/><path id="Fill-29" class="cls-16" d="M991.24 219.56c2.47-.35 3.19-1.35 3.19-1.35a6.85 6.85 0 01-3.61-2.9 5.7 5.7 0 00-4.84.63 1.38 1.38 0 00-.26.58c-.47-.16-1.18-.11-1.59 1.22-.61 2 1.57 4.21 1.57 4.21.53-.15-.07-1.94-.15-2.9a4.55 4.55 0 01.52-2c.26.34 2.87 3.63 6.05 3.77a13.41 13.41 0 01-3.21-1.73 4.1 4.1 0 002.33.5"/><path id="Fill-30" class="cls-5" d="M1005.88 235.77l-.15-.49a12.46 12.46 0 001.35-4 8.07 8.07 0 00-.26-4 27.19 27.19 0 00-5.36-2.21h-.09a22.88 22.88 0 00-5.25.5 2.58 2.58 0 01-1.26 3.06c-2 1.22-4-.31-4-.31l-.2.14s-5.14 3.38-5.6 4.15-2.44 4.59-2.44 4.59.63 3.21 7.57 3.48a15.88 15.88 0 011.15 3.85c.55 4.36-.09 7.79.55 10.33s12.23 1.09 14.33.6 1.63-2.72 1.79-4.89c.2-2.72-1.42-12.39-2.1-14.79"/><path id="Fill-31" d="M1007.09 231.22a12.7 12.7 0 01-1.36 4.09c-.18-.81-.92-3.76-2.11-5.1a10.15 10.15 0 013.47 1" fill="#4a82d3"/><path id="Fill-32" class="cls-11" d="M960.07 259.79a36.53 36.53 0 012.62-2.93 8 8 0 012.62-.74c.12.11.12.27-.13.49s-1.22.79-1.08.85 3-1.39 3.47-.9-.24 2.5-1.36 3.47-4.47 1.38-4.68 1.51c-1.79 1.14-1.47-1.75-1.47-1.75"/><path id="Fill-33" class="cls-18" d="M922.08 253.81s3.09 3.65 7 2.13a11.86 11.86 0 00.86-3.55v-.54c0-1.69.08-2.64.08-2.64-.18-.07-6-2.46-6-2.26.1 4.58-2 6.87-2 6.87"/><path id="Fill-34" class="cls-11" d="M924.64 248a9.09 9.09 0 005.33 3.83c0-1.7.08-2.65.08-2.65-.16 0-5.57-1.48-5.4-1.18"/><path id="Fill-35" class="cls-18" d="M931.26 249s-6.57 1.54-7.47-2.56-2.35-6.67 1.8-7.83 5.32.23 6 1.53 1.4 8.36-.29 8.87"/><path id="Fill-36" d="M924.09 247.51c-.09.06-1.5.49-4.17-4.84a4.65 4.65 0 01.27-4.25c1-1.6 4.44-2.86 7.32-3.41s3.57 1.08 4.25 2.71a8.8 8.8 0 002.77 3.12c-2.48 1.39-5.47-.6-6.51-.27s-1.4 2-1.48 2.49-.2 1-1.5.49-.59 1.85-.38 2.29c0 0 .18 1.18-.57 1.66" fill="#a9453d"/><path id="Fill-37" class="cls-16" d="M907.16 350.08h-4c-.83 0-1.76-.85-2-2.4s-1.95-2.4-2.32-3.68 1.53-3.06 1.53-3.06l.65-.85 3.15.75s.08.76.13 1.74c0 .7.05 1.51 0 2.22-.09 1.7.47 3.52 2 3.85s.87 1.42.87 1.42"/><path id="Fill-38" class="cls-16" d="M934.84 350.08h-10.6a.86.86 0 01-.24-.08c-.71-.36-.49-3.14-.4-4v-.25s3.73-3.05 4.24-.71l.06.21c.65 2.19 3.54 3.18 5.21 3.46a1.83 1.83 0 011.69 1.36"/><path id="Fill-39" class="cls-20" d="M932.69 289.18s-.56 7-1.22 15.46c-.9 11.47-2 25.55-2.09 28.22-.19 4.63-.93 12-.93 12s-1.76 1.76-5.28 1a121.25 121.25 0 01-4-21.77v-.55c-.83-11.39-2.13-35.39-2.13-35.39l15.72 1"/><path id="Fill-40" class="cls-21" d="M932.69 289.08s-.56 7-1.22 15.48l-12.32 19.53v-.55c-.83-11.41-2.13-35.42-2.13-35.42l15.72 1"/><path id="Fill-41" class="cls-20" d="M930.14 289.94s-10.16 25.44-16.85 37.4-8.77 15.29-8.77 15.29-3.83-1.53-4.18-2.57c0 0 2.56-23.08 7-28.71 2.53-3.18 5.5-12.72 5.64-16.06s.9-9.94.9-9.94l16.22 4.59"/><path id="Fill-42" class="cls-11" d="M906.88 285.69a34 34 0 01-.46 3.65 7.48 7.48 0 01-1.63 2c-.15 0-.24-.14-.16-.45s.52-1.25.38-1.23-1.62 2.69-2.21 2.54-1.16-2-.81-3.39 2.73-3.45 2.82-3.66c.77-1.83 2.08.56 2.08.56"/><path id="Fill-43" class="cls-14" d="M905.82 286.49c1.12.36 1.3.28 1.3.28s5.46-9.95 6-10.86 11.6-11.16 11.6-11.16l-2.84-10.59s-12.54 16.28-13.88 18.62c-2.24 3.86-3.55 12.82-3.55 12.82a3.28 3.28 0 001.4.9"/><path id="Fill-44" class="cls-22" d="M934.82 269c0 2.18-.17 4.63-.34 7.11v.44c-.11 1.54-.23 3.08-.36 4.59-.05.6-.11 1.2-.17 1.79v.07c0 .22 0 .46-.05.67-.56 5.64-1.14 10.09-1.24 10.16a.62.62 0 01-.43.11c-1.48-.19-5.88.15-9.49-.64a27.34 27.34 0 01-8.44-3.51c-.37-.22-1.21-.8-1.14-1.23s.19-1.16.35-2a109.67 109.67 0 001.81-14.2q.09-1.69.27-3.33A50.49 50.49 0 01917 261c1.24-4.46 3.05-7.87 5.33-9.21.3-.17 1.9.85 3.37 1.8a6.5 6.5 0 004.18 1l1.22 1.36a13.7 13.7 0 013.5 7.29q0 .36.08.77a48.06 48.06 0 01.11 4.9"/><path id="Fill-45" class="cls-14" d="M934.82 268.92c0 2.18-.17 4.63-.34 7.12v.44c-8.42-5.29-9.72-15-9.72-15a23 23 0 0110 2.51 48.27 48.27 0 01.11 4.91"/><path id="Fill-46" class="cls-22" d="M961.34 260.11c-.44-1.18-1.11-1.1-1.11-1.1s-12.56 3.12-13.68 3.26-13.55-4.83-13.55-4.83-4.88-2.19-7.16-.19a5.45 5.45 0 00-1.61 5.78 5.52 5.52 0 004.67 4.11c5.06.64 15.14 1.85 17.26 1.56 4.71-.65 15.37-6.8 15.37-6.8a4 4 0 00-.21-1.78"/><path id="Fill-47" class="cls-16" d="M1085.13 283.06s1.74 1.61 1.4 2.75-1.91 1.9-2.12 3.3-1.06 2.16-1.83 2.16h-3.65s-.56-1 .8-1.28 1.87-1.94 1.79-3.46a27.14 27.14 0 01.13-3.55l2.89-.68.6.76"/><path id="Fill-48" class="cls-16" d="M1063.47 291.08a6.77 6.77 0 01-1.66.19h-8.29c0-.25.22-1.12 1.58-1.34 1.53-.25 4.18-1.13 4.77-3.09 0-.06 0-.13.05-.19.47-2.08 3.89.64 3.89.64v.23c.08.77.28 3.24-.37 3.56"/><path id="Fill-49" class="cls-23" d="M1055.46 235.39s.52 6.44 1.13 14.18c.83 10.52 1.83 23.43 1.92 25.88.17 4.25.85 11 .85 11s1.62 1.61 4.87.93a110.79 110.79 0 003.72-20v-.51c.77-10.45 2-32.46 2-32.46l-14.49.89"/><path id="Fill-50" class="cls-16" d="M1055.46 235.39s.52 6.45 1.13 14.21l11.36 17.92v-.51c.77-10.47 2-32.51 2-32.51l-14.49.89"/><path id="Fill-51" class="cls-23" d="M1057.8 236.15s9.33 23.31 15.46 34.27 8.05 14 8.05 14 3.52-1.4 3.83-2.36c0 0-2.35-21.15-6.45-26.31-2.32-2.91-5-11.66-5.18-14.72s-.83-9.11-.83-9.11l-14.89 4.2"/><path id="Fill-52" class="cls-24" d="M1029.07 223.53a28.08 28.08 0 00-3-.55 6.12 6.12 0 00-1.94.77c0 .12 0 .22.31.24s1.11-.09 1.05 0-2.5.58-2.53 1.07 1.31 1.41 2.45 1.47 3.36-1.25 3.55-1.27c1.62-.14.07-1.74.07-1.74"/><path id="Fill-53" class="cls-21" d="M1028 224.19c-.36-1.15-.28-1.34-.28-1.34s10.25-5.54 11.19-6.1 11.53-11.82 11.53-11.82l10.85 3s-16.79 12.77-19.19 14.15c-4 2.27-13.18 3.56-13.18 3.56a3.36 3.36 0 01-.91-1.44"/><path id="Fill-54" class="cls-25" d="M1053.72 199.39s-3.78 6.71-7.48 7.58a10.24 10.24 0 011.05-3.79c-.37-.44-.69-.84-1-1.2a22.51 22.51 0 01-1.37-1.94l1.25-3.4.85-2.31a11.09 11.09 0 001.33 1.93 9 9 0 005.34 3.12"/><path id="Fill-55" d="M1048.38 196.28a7.1 7.1 0 01-2.07 5.71 22.49 22.49 0 01-1.37-1.94l1.25-3.4a7.14 7.14 0 012.18-.37" fill="#975b33"/><path id="Fill-56" class="cls-25" d="M1043.94 200.63s5.68-2.22 4.25-5.74-1.67-6.18-5.35-4.91-3.84 2.9-3.65 4.19 3.24 7 4.75 6.47"/><path id="Fill-57" class="cls-20" d="M1073.26 233.75c-2.29 3.29-19.41 7.69-19.21 5.41a24.6 24.6 0 000-4.49q-.06-.73-.18-1.55a35.81 35.81 0 00-3.77-11.3c-.17-.33-.35-.67-.54-1a34.83 34.83 0 01-2.37-5.33c-1.19-3.43-1.66-6.71-1.07-8.85 3.58-1.65 5-8.07 5-8.07s12.21 2.19 19 18.47c0 0 5.11 13.9 3.12 16.77"/><path id="Fill-58" class="cls-21" d="M1054 234.6q-.06-.73-.18-1.55a35.8 35.8 0 00-3.76-11.28 16 16 0 011.53-5.28c2.42-3.64 3.84-4.21 3.84-4.21s3.64 15.37-1.43 22.32"/><path id="Fill-59" class="cls-24" d="M1034.77 231a37.18 37.18 0 00-3.92.36 8 8 0 00-2.16 1.64c0 .16.14.25.47.18s1.36-.5 1.33-.36-2.93 1.6-2.79 2.22 2.15 1.28 3.6 1 3.77-2.74 4-2.82c2-.75-.53-2.19-.53-2.19"/><path id="Fill-60" class="cls-20" d="M1034.18 232.28c-.68-1.09-.19-1.59-.19-1.59s10.43-8.18 11.25-9 4.6-14 4.6-14 1.3-5.32 4.36-5.91a5.59 5.59 0 015.69 2.35 5.67 5.67 0 01.38 6.37c-2.66 4.49-8 13.42-9.6 14.94-3.49 3.39-15.17 8.13-15.17 8.13a4 4 0 01-1.31-1.29"/><path id="Fill-61" class="cls-12" d="M1049 188.33c0-.08.16-.16.44-.25a1.18 1.18 0 00-.57 0 1.5 1.5 0 00-1.27-1.06.9.9 0 01.57.53c-1-.63-2.84-.82-7.45.72-6.07 2-3 5.55-2.12 5.84s2.62-1.53 4.14-1.78 2.35 1.88 2.93 2.05.25-.31.86-.79 1 .66.94 1.46 1.17 1.56 1.17 1.56l.7-1.28c.7-1.28.51-5.92-.16-6.75l-.18-.22"/><path id="Fill-63" class="cls-27" d="M952.9 349.97v6.83l-16.33-6.83h16.33"/><path id="Fill-64" class="cls-4" d="M1038.41 361.9h53.89v-70.63h-53.89v70.63z"/><path id="Fill-65" class="cls-5" d="M1021.78 361.9h53.88v-70.63h-53.88v70.63z"/><path id="Fill-66" class="cls-27" d="M1092.3 291.27v10.6l-16.64-10.6h16.64"/></g><g id="Group-2"><path id="Fill-3-2" data-name="Fill-3" class="cls-28" d="M1507.65 361.32s46.21 5.57 60.92-15.52c19.08-27.37-20.12-48.11-50.19-44.25-65.53 8.42-64.71-116-153.51-45.23-23.49 18.72-55.16-14.86-93.5 26.58-9 9.68-63.72-9-91-1.37-53.33 15-28.95 80 9.16 80.29s318.09-.51 318.09-.51"/><path id="Fill-4-2" data-name="Fill-4" class="cls-29" d="M1455.42 361.7h51.89V236.52h-51.89V361.7z"/><path id="Fill-5-2" data-name="Fill-5" class="cls-5" d="M1455.37 361.7h9.25V236.52h-9.25V361.7z"/><path id="Fill-6-2" data-name="Fill-6" fill="#d2e4ff" d="M1466.88 361.7h51.9V236.52h-51.9V361.7z"/><path id="Fill-7-2" data-name="Fill-7" class="cls-29" d="M1507.44 361.7h9.63V236.52h-9.63V361.7z"/><path id="Fill-8-2" data-name="Fill-8" class="cls-31" d="M1415.92 360.4c-.09 1.06-1.59 1.06-3.29.85s-6.83-.54-6.95-.88 1-.55 2.28-.84l.46-.11a6.26 6.26 0 003.5-2.27c1-1.32 2-7.35 2-7.35l3.72.69a49.1 49.1 0 00-2.39 6.86c-.1.76.44 1.27.57 1.93a4.18 4.18 0 01.1 1.11"/><path id="Fill-9-2" data-name="Fill-9" class="cls-32" d="M1415.92 360.4c-.09 1.06-1.59 1.06-3.29.85a4.91 4.91 0 00-2.07.13h-3c-1.3-.22-1.8-.75-1.89-1s1-.55 2.28-.84a6.68 6.68 0 003.49.65c1.6-.15 3.24-.8 4.34-.92a4.18 4.18 0 01.1 1.11"/><path id="Fill-10-2" data-name="Fill-10" class="cls-32" d="M1412.59 354.15a6.08 6.08 0 001.89.81 3.81 3.81 0 002 0s6.62-16.6 6.24-22.21v-.43a23.46 23.46 0 01.37-3.76c.09-.55.19-1.12.31-1.71.26-1.38.59-2.88 1-4.4.16-.67.32-1.35.49-2 1.66-6.64 3.7-13.18 3.7-13.18s-11.94-3.9-12.62-.26a72.58 72.58 0 00-.73 15.55 123.3 123.3 0 01-.48 18.49 101.7 101.7 0 01-2.12 13.15"/><path id="Fill-11-2" data-name="Fill-11" class="cls-33" d="M1422.72 332.29a23.46 23.46 0 01.37-3.76c.09-.55.19-1.12.31-1.71.26-1.38.59-2.88 1-4.4.16-.67.32-1.35.49-2-.24-2-.43-3.41-.43-3.41a17 17 0 00-1.7 15.31"/><path id="Fill-12-2" data-name="Fill-12" class="cls-31" d="M1431 360.4c-.09 1.06-1.59 1.06-3.29.85s-6.83-.54-6.95-.88 1-.55 2.28-.84l.47-.11c1.39-.34 2.31-1.37 3.5-2.27s.34-5 .34-5l3.5-1.25s-.53 4.14-.53 6.42c0 .77.44 1.27.57 1.93a4.19 4.19 0 01.1 1.11"/><path id="Fill-13-2" data-name="Fill-13" class="cls-32" d="M1431 360.4c-.09 1.06-1.59 1.06-3.29.85a4.91 4.91 0 00-2.07.13h-3c-1.3-.22-1.8-.75-1.89-1s1-.55 2.28-.84a6.68 6.68 0 003.49.65c1.6-.15 3.24-.8 4.34-.92a4.19 4.19 0 01.1 1.11"/><path id="Fill-14-2" data-name="Fill-14" class="cls-32" d="M1421.35 305.91s3.88 19.35 4.54 29.88 1.48 19.25 1.48 19.25a5.15 5.15 0 001.82.25 6.71 6.71 0 001.84-.38s3.85-15.84 2.57-22.18-.21-12.19.4-17.45c.88-7.54-2.5-11-4.86-13.44s-7.79 4.07-7.79 4.07"/><path id="Fill-15-2" data-name="Fill-15" class="cls-34" d="M1418.59 270.48c-.39-3.15.6-8.19 6.89-7.38s8.27 7 7 9.73 1.83 3.41 2.8 6.36c.83 2.54 1.13 5.69 2.48 7.1 4.36 4.56-4.18 11.57-9.33 10.09-9.37-2.69-10.58-3.09-10.25-10.45.17-3.77 3.11-5.23 1.24-6.32-4.5-2.64 0-2-.84-9.13"/><path id="Fill-16-2" data-name="Fill-16" class="cls-35" d="M1420.5 280.59l1.86 2.79 3.75-.18 1.73-4.47s-.53-.1-.78-5.68l-4.68 1.43a9.09 9.09 0 01-.08 3 5 5 0 01-1.8 3.08"/><path id="Fill-17-2" data-name="Fill-17" class="cls-35" d="M1420 278.63a17.4 17.4 0 0110.94 1.09s-3 17.08-1.7 20.35a34.46 34.46 0 011.77 6.16l-13.92.17s.19-11.19-.45-15.15 3.36-12.61 3.36-12.61"/><path id="Fill-18-2" data-name="Fill-18" class="cls-36" d="M1430.91 298.73a5.89 5.89 0 01-.16-.86 13.31 13.31 0 01.65-5.39v-.08l.05-.2.07-.28v-.11c.36-1.6 1.14-5.63 1.35-6.18a5.34 5.34 0 00.21-.88c.21-1.21.3-3.14-.41-3.95-1-1.12-4.37-1.93-4.37-1.93-.69 1.08-3 3.71-5.94 3.23-1.69-.28-2-3.57-2-3.57a7.36 7.36 0 00-2.28.53s-4.35 2.71-10.5 11.36c-.2.27-.66.24-1.79 0-1.45-.28-4.4-.24-8.85-.9 0 0-.15.11-.2.6a7.15 7.15 0 01-.2 1.39 55.52 55.52 0 006.05 2.37c1.1.35 2.26.68 3.36.92a17.25 17.25 0 002.85.43 20.52 20.52 0 007-5.16 76 76 0 01.37 10.29c-.16 1.71-1.33 7.46-1 8.42.61 2 5.31 2.1 9.5 1.89h.27c.65 0 1.29-.09 1.89-.16a25.83 25.83 0 002.73-.44 13.2 13.2 0 002.68-.86 2.85 2.85 0 001.4-1.19c-.4-2.17-2.35-6.89-2.81-9.29"/><path id="Fill-19-2" data-name="Fill-19" class="cls-37" d="M1421.77 304.25c.79 2.69 1.26 4.91 3.25 6.41.65 0 1.29-.09 1.89-.16a26.15 26.15 0 002.73-.43 13.27 13.27 0 002.68-.86 2.85 2.85 0 001.4-1.19c-.4-2.17-2.35-6.89-2.81-9.29a5.54 5.54 0 01-.09-.63 15.64 15.64 0 01.58-5.63l.08-.27.07-.28v-.11c.32-1.52 1.16-6.29 1.37-6.91a6.38 6.38 0 00.21-.95l-1.68-1.61s-9.62 4.1-11.74 9.77.9 8.3 2 12.16"/><path id="Fill-20-2" data-name="Fill-20" class="cls-37" d="M1402.7 293.88a26.94 26.94 0 006.21 1.35A20.56 20.56 0 001416 290c.15-.65.29-1.75-.51-1.43-1.11.44-5.23 5.72-6.78 5.83a48.57 48.57 0 01-6-.52"/><path id="Fill-21-2" data-name="Fill-21" class="cls-36" d="M1410.3 292.38a49.4 49.4 0 008.85 3.37 18.52 18.52 0 003.29.53 15.74 15.74 0 007.8-6.08c6.07-8.86 1.49-10.11 1.49-10.11s-4.35 2.71-10.5 11.36c-.22.3-.76.23-2.15 0s-4.47-.27-8.57-.87a2.29 2.29 0 00-.11.64c-.09 1.07-.09 1.21-.09 1.21"/><path id="Fill-22-2" data-name="Fill-22" class="cls-38" d="M1405.89 290.42c-1.43-.28-4.47-.3-8.85-.93a7.63 7.63 0 01-1.09-.43c-.94-.47-3.44-.78-4-.28s.56 2.53 2.85 2.59a14.68 14.68 0 011.84.15 55.69 55.69 0 006 2.36c1.1.35 2.26.68 3.36.92a8.09 8.09 0 00-.16-4.38"/><path id="Fill-23-2" data-name="Fill-23" d="M1422.3 277.51c1.93-.16 4.76-4.46 4.76-4.46l-4.68 1.43a9.09 9.09 0 01-.08 3" fill="#cc7c46"/><path id="Fill-24-2" data-name="Fill-24" class="cls-35" d="M1421.15 274.79s5.6 1.12 6.25-2.37 1.81-5.71-1.74-6.57-4.49.34-5 1.46-1 7.11.49 7.49"/><path id="Fill-25-2" data-name="Fill-25" class="cls-34" d="M1423.89 265s-.1 1.19 1.74 3.2 1.4 5.6 1.4 5.6 3.11-5.83 1.45-7.7-4.6-1.11-4.6-1.11"/><path id="Fill-26-2" data-name="Fill-26" class="cls-34" d="M1426.14 263.42a5.69 5.69 0 00-5.55 1.79c-1.19 1.17-1 3.48-.37 4.82 0 0 1-2.87 2.76-3.49s3.16-3.11 3.16-3.11"/><path id="Fill-27-2" data-name="Fill-27" class="cls-40" d="M1422.9 273.07s-.15.42-1.2.23c0 0-.89-.16-.8-.62a2.89 2.89 0 012 .4"/><path id="Fill-28-2" data-name="Fill-28" class="cls-29" d="M1404.06 282.47l-11.93.27 2.74 16.56 12.08.39-2.89-17.22"/><path id="Fill-29-2" data-name="Fill-29" class="cls-31" d="M1419.15 295.74a4.83 4.83 0 01-.08-4.35c-1.49-.3-4.49-.43-8.59-1a9.17 9.17 0 01-1.68-.61c-1-.5-3.67-.83-4.24-.3s.6 2.7 3 2.77a12.27 12.27 0 012.63.29 57 57 0 008.93 3.23"/><path id="Fill-35-2" data-name="Fill-35" class="cls-31" d="M1589.66 360.54c-.09 1.08-10.25.32-10.36 0s1.06-.56 2.31-.85l.47-.11a6.34 6.34 0 003.55-2.3c1-1.34 2-7.45 2-7.45l3.77.7s-2.2 5.23-2.42 6.95c-.1.77.45 1.28.58 2a4.24 4.24 0 01.11 1.12"/><path id="Fill-36-2" data-name="Fill-36" class="cls-32" d="M1589.66 360.54a.94.94 0 01-.74.84h-2.81a4 4 0 00-1 0h-4.53c-.83-.26-1.17-.65-1.24-.87s1.06-.56 2.31-.85a6.77 6.77 0 003.54.66c1.62-.15 3.28-.81 4.4-.93a4.24 4.24 0 01.11 1.12"/><path id="Fill-37-2" data-name="Fill-37" class="cls-32" d="M1586.28 354.21a6.18 6.18 0 001.92.82 3.85 3.85 0 002 0s6.7-16.82 6.32-22.5v-.44a23.81 23.81 0 01.38-3.81 72.09 72.09 0 011.31-6.19c.16-.68.33-1.36.5-2 1.69-6.72 3.74-13.35 3.74-13.35s-12.09-3.95-12.78-.26a73.57 73.57 0 00-.74 15.75 124.82 124.82 0 01-.49 18.73 103 103 0 01-2.14 13.32"/><path id="Fill-38-2" data-name="Fill-38" class="cls-33" d="M1596.54 332.07a23.81 23.81 0 01.38-3.81 72.09 72.09 0 011.31-6.19c.16-.68.33-1.36.5-2-.24-2.05-.43-3.46-.43-3.46a17.19 17.19 0 00-1.72 15.51"/><path id="Fill-39-2" data-name="Fill-39" class="cls-31" d="M1604.91 360.54c-.09 1.08-10.25.32-10.36 0s1.06-.56 2.31-.85l.47-.11c1.4-.35 2.34-1.39 3.55-2.3s.34-5 .34-5l3.55-1.27s-.54 4.19-.54 6.5c0 .78.45 1.28.57 2a4.16 4.16 0 01.11 1.12"/><path id="Fill-40-2" data-name="Fill-40" class="cls-32" d="M1604.91 360.54a.94.94 0 01-.74.84h-2.81a4 4 0 00-1 0h-4.53c-.83-.26-1.17-.65-1.24-.87s1.06-.56 2.31-.85a6.77 6.77 0 003.54.66c1.62-.15 3.28-.81 4.4-.93a4.2 4.2 0 01.11 1.12"/><path id="Fill-41-2" data-name="Fill-41" class="cls-32" d="M1595.16 305.36s3.93 19.6 4.6 30.26 1.49 19.5 1.49 19.5a5.2 5.2 0 001.84.25 6.81 6.81 0 001.91-.37s3.9-16 2.61-22.47-.22-12.35.4-17.68c.89-7.64-2.53-11.19-4.92-13.61s-7.9 4.13-7.9 4.13"/><path id="Fill-42-2" data-name="Fill-42" class="cls-41" d="M1592.37 269.47c-.39-3.19.61-8.3 7-7.48s8.38 7.07 7.1 9.86 1.85 3.45 2.83 6.45c.85 2.57 1.14 5.76 2.51 7.19 4.41 4.62-4.23 11.72-9.45 10.22-9.49-2.73-10.72-3.13-10.38-10.59.17-3.82 3.15-5.3 1.26-6.4-4.56-2.67 0-2-.85-9.25"/><path id="Fill-43-2" data-name="Fill-43" class="cls-38" d="M1596.2 273.51s.72 4.21-1.9 6.2l1.89 2.83 3.79-.19 1.75-4.53s-.54-.11-.79-5.75l-4.74 1.44"/><path id="Fill-44-2" data-name="Fill-44" class="cls-31" d="M1595 273.83s5.68 1.14 6.33-2.4 1.83-5.78-1.77-6.66-4.55.34-5.06 1.47-1 7.2.49 7.59"/><path id="Fill-45-2" data-name="Fill-45" class="cls-38" d="M1593.77 277.72a17.63 17.63 0 0111.08 1.1s-3 17.31-1.73 20.61a34.85 34.85 0 011.79 6.23l-14.1.18s.2-11.34-.45-15.35 3.4-12.77 3.4-12.77"/><path id="Fill-46-2" data-name="Fill-46" class="cls-36" d="M1604.84 298.08a6 6 0 01-.16-.88 13.5 13.5 0 01.65-5.46v-.08l.05-.2.07-.28v-.12c.36-1.62 1.16-5.71 1.37-6.26a5.41 5.41 0 00.22-.89c.21-1.23.31-3.18-.41-4-1-1.14-4.52-2-4.52-2-.7 1.09-3 3.79-5.92 3.3-1.71-.28-2-3.61-2-3.61a7.46 7.46 0 00-2.31.53s-4.41 2.75-10.64 11.5c-.2.28-.67.25-1.82 0-1.46-.29-4.45-.25-9-.91 0 0-.16.11-.2.61a7.29 7.29 0 01-.2 1.41 56.24 56.24 0 006.13 2.4c1.12.36 2.29.69 3.4.93a17.53 17.53 0 002.89.43 20.79 20.79 0 007.09-5.22 76.79 76.79 0 01.38 10.43c-.16 1.73-1.34 7.55-1 8.52.62 2 5.38 2.12 9.63 1.91h.28c.66 0 1.3-.09 1.91-.16a26.16 26.16 0 002.77-.44 13.37 13.37 0 002.72-.87 2.89 2.89 0 001.42-1.2c-.41-2.2-2.38-7-2.85-9.41"/><path id="Fill-47-2" data-name="Fill-47" class="cls-41" d="M1597.73 263.88s-.1 1.2 1.77 3.24 1.42 5.67 1.42 5.67 3.15-5.91 1.47-7.8-4.66-1.12-4.66-1.12"/><path id="Fill-48-2" data-name="Fill-48" class="cls-41" d="M1600 262.32a5.76 5.76 0 00-5.62 1.81c-1.21 1.19-1 3.52-.38 4.88 0 0 1-2.9 2.8-3.54s3.2-3.15 3.2-3.15"/><path id="Fill-49-2" data-name="Fill-49" class="cls-40" d="M1596.73 272.09s-.15.42-1.22.23c0 0-.9-.16-.81-.63a2.93 2.93 0 012 .4"/><path id="Fill-50-2" data-name="Fill-50" class="cls-37" d="M1595.59 303.67c.8 2.73 1.27 5 3.29 6.49.66 0 1.31-.09 1.91-.16a26.16 26.16 0 002.77-.44 13.43 13.43 0 002.72-.87 2.89 2.89 0 001.42-1.2c-.41-2.2-2.38-7-2.85-9.41a6 6 0 01-.09-.64 15.85 15.85 0 01.59-5.7l.08-.28c0-.06 0-.16.07-.28v-.12c.32-1.54 1.17-6.37 1.39-7 .07-.2-.09-1.09 0-1.51l-1.46-1.08s-9.74 4.16-11.89 9.89.91 8.41 2.06 12.32"/><path id="Fill-51-2" data-name="Fill-51" class="cls-37" d="M1576.27 293.17a27.33 27.33 0 006.29 1.37 20.81 20.81 0 007.16-5.3c.15-.66.29-1.77-.51-1.45-1.13.45-5.29 5.8-6.87 5.91a49 49 0 01-6.07-.52"/><path id="Fill-52-2" data-name="Fill-52" class="cls-36" d="M1584 291.65a50.05 50.05 0 009 3.41 18.77 18.77 0 003.34.54 14.94 14.94 0 007.9-6.16c5.74-8.83 1.5-10.24 1.5-10.24s-4.41 2.75-10.64 11.5c-.22.31-.76.24-2.18 0s-4.52-.27-8.68-.88a2.3 2.3 0 00-.11.65c-.09 1.09-.09 1.23-.09 1.23"/><path id="Fill-53-2" data-name="Fill-53" class="cls-38" d="M1579.5 289.67c-1.45-.28-4.53-.3-9-.95a7.76 7.76 0 01-1.1-.44c-1-.47-3.48-.79-4-.28s.57 2.56 2.88 2.63a14.77 14.77 0 011.87.15 56.19 56.19 0 006.11 2.39c1.12.36 2.29.69 3.4.93a8.18 8.18 0 00-.17-4.44"/><path id="Fill-54-2" data-name="Fill-54" class="cls-31" d="M1592.93 295.06a4.89 4.89 0 01-.08-4.41c-1.51-.31-4.55-.44-8.7-1a9.24 9.24 0 01-1.7-.62c-1-.51-3.72-.85-4.3-.3s.61 2.74 3.08 2.81a12.44 12.44 0 012.66.3 57.74 57.74 0 009 3.27"/><path id="Fill-99" class="cls-42" d="M1557.83 292.4a58.2 58.2 0 01-6.13 2.38c-1.13.35-2.28.68-3.4.93a15.29 15.29 0 01-2.89.42l-.21-.09a21.31 21.31 0 01-6.95-5.15c-.23-.28-.49-.56-.73-.86a22 22 0 01-.52-4.45c-.16-2.54-.28-5.24-.28-5.24s4.08 1.1 10 11c.16.28.66.23 1.81 0 1.48-.28 4.46-.26 9-.91 0 0 .16.12.21.61a6.24 6.24 0 00.19 1.4"/><path id="Fill-100" class="cls-43" d="M1545.21 296a21.31 21.31 0 01-6.95-5.15c-.23-.28-.49-.56-.73-.86a22 22 0 01-.52-4.45c.56.56 7.14 6.9 8.19 10.46"/><path id="Fill-101" class="cls-41" d="M1530.45 263.08s-.37-.76-2.24-.55-5.1.55-5.13 10.72c0 1.11-6.72 11.27.86 20.83l5.41-13.68 1.1-17.32"/><path id="Fill-102" class="cls-44" d="M1531 263.22s-2-.67-3 .32a2.08 2.08 0 00-.45 2.3l3.5-2.62"/><path id="Fill-103" class="cls-41" d="M1537.28 267.11s0-4.36-7.11-3.86a3.46 3.46 0 00-2.84 1.83c-.8 1.54-1.14 4.26 1.43 8.62l8.52-6.59"/><path id="Fill-104" class="cls-45" d="M1528.33 279.92l1.59 6.18 4.6.22 2.29-3.41c-2.14-1.61-2.45-4.44-2.41-6.11a10 10 0 01.11-1.31l-3.27-1-2.49-.75a18.69 18.69 0 01.11 4.2 4.56 4.56 0 01-.54 2"/><path id="Fill-105" class="cls-45" d="M1523.68 311.89h16.71s-2.08-11.12-.92-14.76-.06-9-.06-9c-1.68-4-2.11-7.66-2.85-7.85-.41-.11-.74-.33-1.14-.41a21.64 21.64 0 00-11.9 1.07c-1.47 3.67 1.68 6.43 1.83 14.72a77.94 77.94 0 01-1.67 16.22"/><path id="Fill-106" class="cls-42" d="M1541.38 312.66s-12.72 2.61-20-.09c-.4-.16 1.13-5.61 2.18-9.34a33.8 33.8 0 00.89-3.45 124.07 124.07 0 00-1.74-12.77 19.4 19.4 0 01-.26-2.42v-.37a6.16 6.16 0 01.56-3c.8-1.47 5.09-1.49 5.09-1.49a8.56 8.56 0 005.52 2.07c2.79 0 1.41-2 1.41-2l.4.07a7.14 7.14 0 012.32 1c2.23 2.42 3 14.49 2.91 14.89-.09 1.47.7 16.94.7 16.94"/><path id="Fill-107" class="cls-46" d="M1528.87 277.9a13.81 13.81 0 015.53-1.1h.07-.07l-3.16-2.3-2.49-.75a18.69 18.69 0 01.11 4.2"/><path id="Fill-108" class="cls-45" d="M1535.63 276.89s-7 .32-7.15-4-1.13-7.22 3.35-7.61 5.4 1.24 5.8 2.68-.17 8.76-2 9"/><path id="Fill-109" class="cls-41" d="M1534.92 267s3 2.05 2.52 4.43a3.09 3.09 0 001.35-3 4.54 4.54 0 00-4.24-3.95 22.28 22.28 0 00-3.37 0l3.73 2.52"/><path id="Fill-110" class="cls-41" d="M1535.45 266.22c1.25.65-3.9 1.21-4.22 3.29s-2.77 2.88-2.77 2.88-3.11-11.48 7-6.17"/><path id="Fill-111" class="cls-43" d="M1539.52 294.7a24.23 24.23 0 01-16 8.53 33.8 33.8 0 00.89-3.45 124.07 124.07 0 00-1.74-12.77 19.4 19.4 0 01-.26-2.42v-.37c1.2.23 3.05 1.47 3.85 1.65 6.17 1.44 13.21 8.83 13.21 8.83"/><path id="Fill-112" class="cls-40" d="M1536.47 274.53s-.05.44-1.14.5c0 0-.91.05-.94-.42a3 3 0 012.07-.08"/><path id="Fill-113" class="cls-42" d="M1545.79 292.95a50.22 50.22 0 01-9 3.39 18.83 18.83 0 01-3.34.53 16.9 16.9 0 01-7.9-6.12c-6.6-9.18-1.5-10.17-1.5-10.17s4.41 2.73 10.64 11.43c.22.3.77.23 2.18 0s4.52-.27 8.68-.87a2.27 2.27 0 01.11.64c.09 1.08.09 1.22.09 1.22"/><path id="Fill-114" class="cls-38" d="M1557.84 292.39a56.56 56.56 0 01-6.13 2.38c-1.12.35-2.29.68-3.4.93a8.07 8.07 0 01.17-4.41c1.46-.28 4.59-.3 9.1-1l.26 2.06"/><path id="Fill-115" class="cls-38" d="M1556.45 290.61a9.45 9.45 0 002.09-.69c1-.47 3.49-.79 4-.28s-.57 2.55-2.88 2.61a7.48 7.48 0 00-3 .44l-.25-2.08"/><path id="Fill-116" class="cls-31" d="M1545.9 293.07a58.28 58.28 0 01-9.08 3.26 4.83 4.83 0 00.08-4.38c1.51-.3 4.55-.43 8.7-1 0 0 0 .32.09.81a6.17 6.17 0 00.2 1.35"/><path id="Fill-117" class="cls-34" d="M1494.36 312.06v-.16h-17.44a3.84 3.84 0 00-3.9 3.77 3.8 3.8 0 003.27 3.73v42.29h65.58v-49.63h-47.51"/><path id="Fill-126" class="cls-44" d="M1494.48 361.68h65.58v-49.62h-65.58v49.62z"/><path id="Fill-127" d="M1569.73 311.89h-92.81a3.78 3.78 0 100 7.55h92.81a3.81 3.81 0 100-7.55" fill="#e57970"/><path id="Fill-128" class="cls-48" d="M1468.6 300.26h11.77V289.8h-11.77v10.46z"/><path id="Fill-129" class="cls-29" d="M1470.75 300.26h11.77V289.8h-11.77v10.46z"/><path id="Fill-130" class="cls-48" d="M1483.71 300.26h14.83v-12.03h-14.83v12.03z"/><path id="Fill-131" class="cls-29" d="M1486.42 300.26h14.83v-12.03h-14.83v12.03z"/><path id="Fill-132" class="cls-9" d="M1488.43 333s-4.88 3.63-5.83 3.41 3.57-3.92 3.57-3.92c-1.7-.82-7-.31-7-.31s-1.76 5.68-2.63 5.23 1.82-4.95 1.82-4.95a9 9 0 00-4.22 1.29c-3.18 2.51.21 6.46.21 6.46a9.66 9.66 0 01-2.66 3.73 8.39 8.39 0 00-3.07 5.91h.52s.84-3.56 2.35-5.22l.22-.23c.24-.23.41-.39.53-.52a7.62 7.62 0 012.28-1.72.92.92 0 010-.25v.25c.17 2 4 3.74 6.43 4.1s1.65-.62.83-2.07-3.42-2.1-4-2.77.63-.67 2.07 0 1.63 2.41 3.94 3.51 5.78-2.72 5.78-2.72c-1.84-.09-4.46-2.09-4.37-2.7s4.45 1.05 5.2 1.13 2.44-.85 2.7-3.85-4.66-3.84-4.66-3.84"/><path id="Fill-133" class="cls-3" d="M1462.5 335.3s5.39-3 2.88-7.11c0 0-2-2.52-4.17-3.16 0 0 1.15 6.11 0 6.25s-.79-6.9-.79-6.9-5.68-2.73-7.91-2.52c0 0 3.52 6 2.37 5.82s-5.11-6.18-5.11-6.18-5.82-1.08-6.76 2.37.57 5.17 1.44 5.39 6.4.14 6.26.86-3.88 1.87-6 1.22c0 0 2.3 5.68 5.32 5.39s4-2.16 5.82-2.3 3.24.36 2.3.86-4.1.17-5.61 1.45-2.73 2.07.07 2.65 7.84.22 8.84-1.94l1-2.16"/><path id="Fill-134" class="cls-9" d="M1463.94 340.54a11.45 11.45 0 01-1.44-5.25c-1.73-5.46-16.83-10.35-16.83-10.35 19.2 7.76 15.82 12.5 15.82 12.5a9.06 9.06 0 011.83 2.84c.08.19.2.45.38.8l.17.38c1 2.47.46 6.74.46 6.74l.6.16a10 10 0 00-1-7.84"/><path id="Fill-135" class="cls-3" d="M1471.08 331.13s-7.11-4-3.79-9.38c0 0 2.65-3.32 5.5-4.17 0 0-1.52 8.05 0 8.24s1-9.09 1-9.09 7.49-3.6 10.43-3.31c0 0-4.64 7.86-3.13 7.67s6.73-8.15 6.73-8.15 7.68-1.42 8.91 3.13-.76 6.82-1.9 7.1-8.44.19-8.25 1.14 5.12 2.46 7.87 1.61c0 0-3 7.48-7 7.1s-5.21-2.84-7.68-3-4.27.47-3 1.14 5.4.22 7.39 1.91 3.6 2.73-.09 3.49-10.33.28-11.66-2.56l-1.33-2.84"/><path id="Fill-136" class="cls-9" d="M1493.26 317.49s-19.91 6.44-22.18 13.64a15.11 15.11 0 01-1.89 6.91 13.11 13.11 0 00-1.32 10.33l.79-.21s-.69-5.63.61-8.88l.23-.5c.24-.47.4-.81.5-1.06.71-1.45 1.73-3.35 2.41-3.75 0 0-4.45-6.25 20.85-16.48"/><path id="Fill-137" class="cls-7" d="M1456.92 346.76a13.93 13.93 0 0027.85 0h-27.85"/><path id="Fill-138" class="cls-10" d="M1474.27 360.57a13.94 13.94 0 01-15.65-13.81h3.46a13.92 13.92 0 0012.2 13.81"/><path id="Fill-139" class="cls-7" d="M1483.24 359.67h-24.8a1.72 1.72 0 00-1.72 1.72H1485a1.72 1.72 0 00-1.72-1.72"/><path id="Fill-140" class="cls-6" d="M1456.46 347.19h28.62v-.43h-28.62v.43z"/><path id="Fill-170" class="cls-49" d="M1466.86 251.04h48.84v-1.71h-48.84v1.71z"/><path id="Fill-171" class="cls-5" d="M1455.34 236.62h63.45v-1.71h-63.45v1.71z"/><path id="Fill-172" class="cls-49" d="M1466.86 268.02h48.84v-1.71h-48.84v1.71z"/><path id="Fill-173" class="cls-49" d="M1466.86 285h48.84v-1.72h-48.84V285z"/><path id="Fill-174" class="cls-49" d="M1466.86 301.98h48.84v-1.72h-48.84v1.72z"/><path id="Fill-175" class="cls-6" d="M1468.55 266.31h13.86v-13.86h-13.86v13.86z"/><path id="Fill-176" class="cls-7" d="M1472.82 266.31h13.87v-13.86h-13.87v13.86z"/><path id="Fill-177" class="cls-8" d="M1472.82 252.45l-4.27 2.59v-2.59h4.27"/><path id="Fill-178" class="cls-4" d="M1478.31 266.31h10.92V255.4h-10.92v10.91z"/><path id="Fill-179" class="cls-5" d="M1481.68 266.31h10.92V255.4h-10.92v10.91z"/><path id="Fill-180" class="cls-50" d="M1487.02 264.99l-4.05.81-.41-2.06 4.05-.81.41 2.06"/><path id="Fill-181" class="cls-50" d="M1483.64 258.23h-3.94l.17-.46-.17-.5h3.91l-.24.52.27.44"/><path id="Fill-182" class="cls-29" d="M1481.67 257.27v.96h-1.97l.17-.46-.17-.5h1.97"/><path id="Fill-183" class="cls-51" d="M1475.16 255.42h-4.67l.2-.54-.2-.59h4.62l-.28.61.33.52"/><path id="Fill-184" class="cls-8" d="M1472.83 254.29v1.13h-2.34l.2-.54-.2-.59h2.34"/><path id="Fill-185" class="cls-51" d="M1475.16 263.79h-4.67l.2-.54-.2-.59h4.62l-.28.61.33.52"/><path id="Fill-186" class="cls-8" d="M1472.83 262.66v1.13h-2.34l.2-.54-.2-.59h2.34"/><path id="Fill-187" class="cls-4" d="M1475.28 249.35h10.92v-10.91h-10.92v10.91z"/><path id="Fill-188" class="cls-5" d="M1478.65 249.35h10.92v-10.91h-10.92v10.91z"/><path id="Fill-189" class="cls-50" d="M1483.58 245.93l-4.05.81.41 2.05 4.05-.81-.41-2.05"/><path id="Fill-190" class="cls-50" d="M1480.61 241.22h-3.94l.16-.46-.16-.49h3.91l-.24.51.27.44"/><path id="Fill-191" class="cls-29" d="M1478.64 240.27v.95h-1.97l.16-.46-.16-.49h1.97"/><path id="Fill-192" class="cls-6" d="M1491.02 249.33h7.71v-7.71h-7.71v7.71z"/><path id="Fill-193" class="cls-7" d="M1493.39 249.33h7.72v-7.71h-7.72v7.71z"/><path id="Fill-194" class="cls-8" d="M1493.39 241.62l-2.37 1.44v-1.44h2.37"/><path id="Fill-195" class="cls-51" d="M1494.69 243.28h-2.59l.11-.3-.11-.32h2.57l-.16.33.18.29"/><path id="Fill-196" class="cls-8" d="M1493.39 242.66v.62h-1.29l.11-.3-.11-.32h1.29"/><path id="Fill-197" class="cls-51" d="M1494.69 247.94h-2.59l.11-.3-.11-.33h2.57l-.16.34.18.29"/><path id="Fill-198" class="cls-8" d="M1493.39 247.31v.63h-1.29l.11-.3-.11-.33h1.29"/><path id="Fill-199" class="cls-4" d="M1468.68 283.29h9.07v-9.06h-9.07v9.06z"/><path id="Fill-200" class="cls-5" d="M1471.48 283.29h9.07v-9.06h-9.07v9.06z"/><path id="Fill-201" class="cls-50" d="M1475.91 282.15l-3.36.67-.34-1.71 3.36-.67.34 1.71"/><path id="Fill-202" class="cls-50" d="M1473.11 276.54h-3.28l.14-.39-.14-.41h3.25l-.2.43.23.37"/><path id="Fill-203" class="cls-29" d="M1471.47 275.74v.8h-1.64l.14-.39-.14-.41h1.64"/><path id="Fill-204" class="cls-4" d="M1481.64 283.29h9.08v-9.06h-9.08v9.06z"/><path id="Fill-205" class="cls-5" d="M1484.44 283.29h9.07v-9.06h-9.07v9.06z"/><path id="Fill-206" class="cls-50" d="M1488.88 282.15l-3.37.67-.34-1.71 3.37-.67.34 1.71"/><path id="Fill-207" class="cls-50" d="M1486.07 276.54h-3.27l.13-.39-.13-.41h3.24l-.19.43.22.37"/><path id="Fill-208" class="cls-29" d="M1484.44 275.74v.8h-1.64l.13-.39-.13-.41h1.64"/><path id="Fill-209" class="cls-6" d="M1493.93 266.31h6.62v-6.62h-6.62v6.62z"/><path id="Fill-210" class="cls-7" d="M1495.97 266.31h6.62v-6.62h-6.62v6.62z"/><path id="Fill-211" class="cls-8" d="M1495.97 259.69l-2.04 1.24v-1.24h2.04"/><path id="Fill-212" class="cls-4" d="M1498.59 266.31h5.21v-5.21h-5.21v5.21z"/><path id="Fill-213" class="cls-5" d="M1500.2 266.31h5.21v-5.21h-5.21v5.21z"/><path id="Fill-214" class="cls-50" d="M1502.75 265.71l-1.93.38-.2-.98 1.93-.39.2.99"/><path id="Fill-215" class="cls-50" d="M1501.14 262.48h-1.88l.08-.22-.08-.24h1.86l-.11.25.13.21"/><path id="Fill-216" class="cls-29" d="M1500.2 262.02v.46h-.94l.08-.22-.08-.24h.94"/><path id="Fill-217" class="cls-51" d="M1497.09 261.14h-2.23l.1-.26-.1-.28h2.21l-.14.29.16.25"/><path id="Fill-218" class="cls-8" d="M1495.97 260.6v.54h-1.11l.1-.26-.1-.28h1.11"/><path id="Fill-219" class="cls-51" d="M1497.09 265.13h-2.23l.1-.26-.1-.28h2.21l-.14.29.16.25"/><path id="Fill-220" class="cls-8" d="M1495.97 264.59v.54h-1.11l.1-.26-.1-.28h1.11"/><path id="Fill-221" class="cls-5" d="M1508.73 271.23l-2.78 12.09h7.7l2.79-12.09h-7.71"/><path id="Fill-222" class="cls-40" d="M1503.75 271.23l-2.79 12.09h7.7l2.79-12.09h-7.7"/><path id="Fill-223" class="cls-7" d="M1505.87 277.7v5.3a.36.36 0 01-.36.36h-8.75a.36.36 0 01-.36-.36v-5.25a.36.36 0 01.36-.36h8.75a.36.36 0 01.36.36"/><path id="Fill-224" class="cls-6" d="M1505.87 277.7v.15l-4.73 2.48-4.74-2.62a.36.36 0 01.36-.36h8.75a.36.36 0 01.36.36"/><path id="Fill-225" class="cls-6" d="M1503.55 282.42a.15.15 0 100 .29h1.64a.15.15 0 000-.29z"/><path id="Fill-228" class="cls-6" d="M1503.58 282.38h-1.64a.15.15 0 000 .29h1.64a.15.15 0 000-.29"/><path id="Fill-89" class="cls-15" d="M1353.39 360.07a53.29 53.29 0 01-4.55-5.89l-2.76-5.09-3.61.89 4.58 6.49 4.79 4 1.55-.45"/><path id="Fill-90" class="cls-41" d="M1330.56 260.61a4.68 4.68 0 00-2.53-.48 1.18 1.18 0 01.53-.25 3.92 3.92 0 00-1.4.36c-6-2.32-7 6.54-6.84 8.6s-2 2.73-5.16 4.35c-6 3.09-6.5 7.24-6.5 7.24l.15.09c.3-.5.91-1.44 1.42-1.59a21.25 21.25 0 00-.83 2c1.76 1.34 5.06 4.31 7.36 6.42a3.39 3.39 0 01.16-1.3l.28 1.71c1.23 1.13 2.08 1.93 2.08 1.93-.15-1.66 7.53-10.44 11.53-13.07a11.57 11.57 0 001.35-4.17 11 11 0 01-.82 3.77c3.39-3.12 1.42-14.37-.79-15.62"/><path id="Fill-91" class="cls-15" d="M1330.59 276.76a5.56 5.56 0 01-3.4.62 4.41 4.41 0 01-2.27-2.17c.59-.12.75-.92.74-4.38l.26.05 4.45.88s-.1 1.4-.11 2.72c0 1.11.06 2.16.32 2.28"/><path id="Fill-92" d="M1325.55 262.06a3.56 3.56 0 015-.12 19.31 19.31 0 00-5 .12" fill="#e37970"/><path id="Fill-93" class="cls-46" d="M1330.37 271.77s-.1 1.4-.11 2.72c-2.49-.07-3.81-2.34-4.35-3.6l4.45.88"/><path id="Fill-94" class="cls-41" d="M1325.46 270.4a13.08 13.08 0 01-1.62-3.82c-.22-1.26.42-5.92 5.11-5.25a6.37 6.37 0 012.64 1c1 .69 2.49 2.17.85 6.24l-.43 1.38-6.55.46"/><path id="Fill-95" class="cls-36" d="M1348.12 352.4l-2.36.07-2.55.08a50.38 50.38 0 01-9.21-17.09c-.08-.24-.16-.49-.24-.74-1.81-5.28-5.57-11.9-7.54-17.9-.32-1-.6-1.85-.85-2.7l-.24-.8a63.57 63.57 0 01-2.27-11.94l14.29.11a266 266 0 0011 50.91"/><path id="Fill-96" class="cls-7" d="M1336.13 303a19.22 19.22 0 01-13.39.82c-.09 0 .48-28.09 2.54-28.86a4.48 4.48 0 003.14 1.15c1.45 0 1.92-.65 1.84-1.33 1.54.86 2.77 1.67 2.77 1.67 1.31 2.28 3.09 26.55 3.09 26.55"/><path id="Fill-97" class="cls-37" d="M1322.85 294c-.62.88-1.82 6.25-4.8 6.93 1.54-3.83 2.7-5.51 2.88-6.68a29 29 0 00.18-6.61c1-1.75 1.74-2.94 1.74-2.94.08-.28 1.58-4.94 2.07-.78a19.22 19.22 0 01-2.07 10.09"/><path id="Fill-98" class="cls-15" d="M1331.2 273s-5.89.1-5.9-3.57-.77-6.13 3-6.34 4.5 1.18 4.8 2.41-.36 7.39-1.89 7.51"/><path id="Fill-99-2" data-name="Fill-99" class="cls-41" d="M1331 263s-1.61 4.3-4.09 4.94-3.55 0-3.55 0a7 7 0 002.29-4.14s4.13-2.82 5.35-.77"/><path id="Fill-100-2" data-name="Fill-100" class="cls-41" d="M1330.59 263.36a5.2 5.2 0 011.5 1.9c.29.93.43 2.86 1 2.79 0 0 1.22-2.93-.15-4.58s-2.33-.11-2.33-.11"/><path id="Fill-101-2" data-name="Fill-101" class="cls-15" d="M1354.92 279.11a3.68 3.68 0 014.12-2.57c.38.12 1.48.56.78 1.74-.52.87-.75.42-1.56 1.59a2.61 2.61 0 01-2.72 1.29l-.61-2.06"/><path id="Fill-102-2" data-name="Fill-102" class="cls-15" d="M1326.79 359.46c-.2-1.1-.58-3-.58-3l.09-6.76h-4.11l1.54 6.47a6.56 6.56 0 01-.32 2.7s-.4 1.8 1.38 1.83 2.21-.13 2-1.24"/><path id="Fill-103-2" data-name="Fill-103" class="cls-53" d="M1327 361.58h-3.68a9.9 9.9 0 01.13-2.71c2 1.94 3.26 0 3.26 0a10 10 0 01.29 2.76"/><path id="Fill-104-2" data-name="Fill-104" class="cls-53" d="M1355.11 361.59h-4.54a7.57 7.57 0 01-1.23-2 2.2 2.2 0 00-1.48-1v3h-.94l-.86-3.24a3.06 3.06 0 01.27-2.93c.47 0 1.84.32 4.25 3.11a3.13 3.13 0 002.54 1.21 3.39 3.39 0 012 1.83"/><path id="Fill-105-2" data-name="Fill-105" class="cls-54" d="M1354.92 279.11s-3.87 2.16-5.25 2.79c-.79.36-2.6 1.2-3.88 1.8a2 2 0 01-2.36-.51c-2.1-2.45-7.56-7.76-13.17-8.41 0 0 3.41 8.42 3.51 10.12s.4 27.86.4 27.86-.2 1.2 2.11.7a7.76 7.76 0 002.91-1s-2.21-16.14-1.6-21.75a12.5 12.5 0 00-.24-3.63 28.74 28.74 0 007.46 3 41.89 41.89 0 007.15-4.34c1.3-.95 3.58-4.57 3.58-4.57l-.61-2.06"/><path id="Fill-106-2" data-name="Fill-106" class="cls-37" d="M1345.76 352.47l-2.55.08a50.38 50.38 0 01-9.21-17.09c-.08-.24-.16-.49-.24-.74-1.81-5.28-5.57-11.9-7.54-17.9-.32-1-.6-1.85-.85-2.7l-.24-.8 2.1-1.6s6.32 10.22 8.27 19.84c1.7 8.36 8.5 18.41 10.26 20.91"/><path id="Fill-107-2" data-name="Fill-107" class="cls-36" d="M1327.44 332.45c0 4.68-.2 15.43-.81 19.89h-4.13c-1.53-7.74-2.62-14.15-3.41-19.67-.65-4.53-1.23-8.41-1.67-11.76s-.76-6.18-.87-8.56v-1.09-1l12.35-1.2c-.16 8.2-1.42 20.73-1.4 23.45"/><path id="Fill-108-2" data-name="Fill-108" class="cls-37" d="M1324.37 352.34h-1.87c-1.53-7.74-2.62-14.15-3.41-19.67-.65-4.53-1.23-8.41-1.67-11.76s-.76-6.18-.87-8.56l4.53 2.66s-2.89 1-1.79 8.74 3.55 27.51 5.08 28.61"/><path id="Fill-109-2" data-name="Fill-109" class="cls-54" d="M1325 312.26s-.87 3.14-3.88 2.74a36.22 36.22 0 01-7.29-2.2s1.29-4.06 2.88-9.39l.05-.17c1.89-6.3 4.19-14.32 5.34-19.53l.07-.33a32.39 32.39 0 00.61-3.58l2.54-4.84s3.68 8.34 3.88 10.45-4.21 26.86-4.21 26.86"/><path id="Fill-110-2" data-name="Fill-110" class="cls-15" d="M1321.95 285.09l3.34-10.14a50.32 50.32 0 00-6.3 2.29 14.53 14.53 0 00-2.11 5.56s-.85 9.32 1.05 12.72c0 0 6 1.2 15.65-2.1v-2.2s-10.53.55-12.69.8l1.06-6.93"/><path id="Fill-111-2" data-name="Fill-111" class="cls-55" d="M1324.53 289.81c-.13 3.36-.92 9.85-7.81 13.42 1.89-6.3 4.19-14.32 5.34-19.53 1.25 1.92 2.54 4.34 2.47 6.11"/><path id="Fill-112-2" data-name="Fill-112" class="cls-54" d="M1325.29 274.95s-6.15.43-7.62 3.7-1.94 14.16-.07 17.37a17.05 17.05 0 007.14-.12h.17s1.45-3.56.15-4.26c0 0-3.84.2-3.44-1.07s3.68-15.59 3.68-15.59"/><path id="Fill-113-2" data-name="Fill-113" class="cls-15" d="M1332.5 291.8a5.27 5.27 0 001-2.05 2.23 2.23 0 012.18-2c1.45-.19 2.07-.21 2.07.2a10.8 10.8 0 01-3.26 5c-2.08 1.7-2-1.1-2-1.1"/><path id="Fill-154" class="cls-13" d="M1266.28 352.13s-2 1.86-1.62 3.18 2.2 2.2 2.45 3.81 1.22 2.49 2.1 2.49h4.2s.65-1.14-.92-1.48-2.16-2.24-2.06-4a31.44 31.44 0 00-.15-4.11l-3.33-.78-.69.88"/><path id="Fill-155" class="cls-13" d="M1302.65 361.62h-11.15l-.22-.07c-.74-.37-.51-3.21-.42-4.09v-.26s3.92-3.13 4.45-.73c0 .07 0 .15.06.22.68 2.24 3.72 3.26 5.47 3.54a1.91 1.91 0 011.78 1.39"/><path id="Fill-156" class="cls-12" d="M1300.41 297.46s-.6 7.41-1.29 16.32c-.95 12.1-2.09 27-2.21 29.79-.2 4.89-1 12.71-1 12.71s-1.86 1.86-5.58 1.08a128 128 0 01-4.26-23v-.58c-.88-12-2.25-37.36-2.25-37.36l16.61 1"/><path id="Fill-157" class="cls-13" d="M1300.41 297.46s-.6 7.41-1.29 16.32l-13 20.59v-.58c-.88-12-2.25-37.36-2.25-37.36l16.61 1"/><path id="Fill-158" class="cls-12" d="M1297.69 298.34s-10.72 26.85-17.76 39.46-9.25 16.14-9.25 16.14-4-1.61-4.4-2.71c0 0 2.69-24.36 7.41-30.29 2.67-3.35 5.8-13.42 5.95-16.94s1-10.49 1-10.49l17.1 4.84"/><path id="Fill-159" class="cls-56" d="M1308.53 290.93l.61 1.22a2.74 2.74 0 012.26 3.68s-.46 1.33-1.32.91-.44-.39-1.67-1a2.45 2.45 0 01-1.67-2.66l-.2-1.06 2-1.13"/><path id="Fill-160" class="cls-57" d="M1292.19 256.9a31.37 31.37 0 00.49-4.48l-5.44-4.38a10.89 10.89 0 01-3.66 8.92s7.25 3.56 11.43 2.24a10 10 0 00-2.83-2.3"/><path id="Fill-161" class="cls-56" d="M1294 252.32s-6.92 1.15-7.57-3.17-2-7.07 2.41-8 5.5.6 6.06 2 .87 8.76-.91 9.17"/><path id="Fill-162" class="cls-13" d="M1286.45 249.45a7.16 7.16 0 016.44-6.71c4.32-.64 1.7-4.24 1.21-4.81 0 0-3.3.63-6.68 1.37-7.09 1.55-1.72 9.29-1 10.15"/><path id="Fill-163" class="cls-4" d="M1307.8 292.62a11.83 11.83 0 001.61-2.18s-7.86-9.76-8.5-10.77-5.41-17.24-5.41-17.24l-12.07-2.43s10.07 20.77 11.74 23.3c2.76 4.19 11 10.41 11 10.41a5 5 0 001.62-1.08"/><path id="Fill-164" class="cls-58" d="M1300.87 298.08a.68.68 0 01-.44.17c-1.57 0-6.16.85-10 .45a28.92 28.92 0 01-9.28-2.67c-.41-.19-1.36-.69-1.34-1.15s.06-1.24.13-2.16a115.61 115.61 0 00.23-15.09c-.07-1.19-.1-2.36-.11-3.52 0-8.63 1.65-16.25 5.09-18.82.29-.21 2.13.71 3.78 1.53a5.55 5.55 0 004 .44l1.91 1.38a14.45 14.45 0 014.53 7.23 81.33 81.33 0 011.36 13.41c.1 2.43.19 4.88.21 7.21V287.28c.08 6 0 10.71-.11 10.79"/><path id="Fill-165" class="cls-4" d="M1279.9 292.71a115.61 115.61 0 00.23-15.09c-.07-1.19-.1-2.36-.11-3.52 1.43-3.47 2.6-6 2.6-6h3.61s2.65 18.07-6.34 24.6"/><path id="Fill-166" class="cls-56" d="M1272.87 293.84l-.69 1.18a2.74 2.74 0 01-1.84 3.9s-1.37.35-1.49-.6.08-.58-.11-1.92a2.45 2.45 0 011.32-2.85l.78-.75 2 1"/><path id="Fill-167" class="cls-58" d="M1271.06 294.16a11.87 11.87 0 002.71.15s3.86-11.92 4.36-13 11.47-14 11.47-14l-4.6-11.41s-11.86 19.81-13.07 22.59c-2 4.6-2.68 14.91-2.68 14.91a5 5 0 001.79.76"/><path id="Fill-221-2" data-name="Fill-221" class="cls-5" d="M1555.13 284.76l-2.79 12.1h7.7l2.79-12.1h-7.7"/><path id="Fill-222-2" data-name="Fill-222" class="cls-50" d="M1550.14 284.76l-2.79 12.1h7.7l2.79-12.1h-7.7"/><path id="Fill-225-2" data-name="Fill-225" class="cls-5" d="M1552.18 286.3a.21.21 0 100 .41h2.6a.2.2 0 100-.41z"/><path id="Fill-225-3" data-name="Fill-225" class="cls-5" d="M1552.7 287.11a.15.15 0 100 .29h1.64a.15.15 0 000-.29z"/><path id="Fill-125" class="cls-31" d="M1545.08 291a10.1 10.1 0 002.23-.74c1-.5 3.72-.84 4.3-.3s-.61 2.72-3.08 2.79a8 8 0 00-3.18.47l-.27-2.22"/></g><g id="Group-3"><path id="Fill-3-3" data-name="Fill-3" class="cls-28" d="M602.35 243.07c-47.87 0-74-62.51-140.29-10.21-16.5 13-68.5-24.56-84 37.64-2.89 11.61-19.63 17.57-38.08 26.67-28.94 14.26-7.66 64.4 19.68 64.64s228.17-.48 228.17-.48 107.88-118.25 14.48-118.25"/><path id="Fill-4-3" data-name="Fill-4" class="cls-59" d="M669.15 350.6l.61-.43s4.58-6.07 2.81-6.28c-1.09-.13-3 3.06-4.24 5.5l-.5-.69c1.33-6 3.39-17.92-1-19.17-3-.86-5.23 4.93-6.69 10.77a83.05 83.05 0 00-11-8.57s45.15-37.47 11.41-57.24-59.37 49.79-59.37 49.79-23.06-21.28-45.07-13.43c-15.76 5.64-13.67 14.64-17.61 20.94-.53-5.42-1.91-12.71-5.49-11.84-4 1 .61 9.34 3.62 14.12a11.59 11.59 0 01-1.31 1.06c-3.29-2.42-8.51-5.73-10.8-4.3-2.85 1.8.71 4.12 8.3 5.68-3.62 1.58-9.13 2.49-17.82 2.49-31.49-.09-23.41 22.55-23.41 22.55l182.06.42a26.36 26.36 0 00-4.5-11.38"/><path id="Fill-5-3" data-name="Fill-5" class="cls-59" d="M347.73 361.72l68.49.11s-5-3.9-8.55-2.53-10.66.42-11.61-2.42-4.43-5.8-13.4-6.22-13 4.64-17.41 6a15.34 15.34 0 01-6.69.51c-1.82-6.49-6.35-19.22-13.79-19.23s-2.11 5.85.89 7.75c1.87 1.18 6 7 8.88 11.32a12.57 12.57 0 00-2.39.53c-2-3.4-5.65-8.58-9.92-8.37-6.33.32-2.06 4 1.27 5.85 1.73 1 4.39 2.4 6.56 3.53a5.18 5.18 0 00-2.32 3.17"/><path id="Fill-17-3" data-name="Fill-17" class="cls-12" d="M546.73 252.89s-.59-8.42-11.53-5.23c-2.48.72-2.16 8.21 3.85 11.06l7.68-5.83"/><path id="Fill-18-3" data-name="Fill-18" class="cls-54" d="M542.36 264s4.28.77 5.87 2.36 5.34 6.27 3 21.87a5.58 5.58 0 01-5.48 5.16c-5.29.45-3.37-29.39-3.37-29.39"/><path id="Fill-19-3" data-name="Fill-19" class="cls-35" d="M532.51 302.81c.74 5.12 5.68 18.43 5.53 23-.11 3.63-.05 12 .42 17.56a34.38 34.38 0 00.48 3.76c.43 2.05 1 4.42 1.26 5.91.65 3.34.31 5.29.85 7.09.59 2 7.32 1.6 5.29.41a6 6 0 01-2.3-2.5c-1.89-4.23.76-22.5 1.55-29.54.1-.88.17-1.58.2-2.06.26-4.35 3.25-33.32 3.25-33.32-7.26-4-17.28 4.54-16.55 9.66"/><path id="Fill-20-3" data-name="Fill-20" class="cls-60" d="M532.51 302.81c.74 5.12 5.68 18.43 5.53 23-.11 3.63-.05 12 .42 17.56l7.14-14.87c.1-.88.17-1.58.2-2.06.26-4.35 3.33-33.34 3.33-33.34-7.26-4-17.36 4.55-16.63 9.67"/><path id="Fill-21-3" data-name="Fill-21" class="cls-35" d="M548.26 294.1s-6.26 28.62-6.94 32.9-6.39 24.53-5.15 29.6c.73 3 2 3.88 2 3.88.3.55-4.63 1.64-5-.46-.51-2.66-.61-6.4-1.35-12.75-1.28-10.92 1.25-17.13 1.87-21.7s-2.06-19.07-.58-24c2.59-8.67 8.38-12.23 15.18-7.48"/><path id="Fill-22-3" data-name="Fill-22" class="cls-54" d="M531.62 320.4s1.62.25 4 .42l1.3-5.2.46 5.3c3.84.16 8.85 0 12.55-1.56l-.8-26.21a20.92 20.92 0 01-11.79-1.06s-8.37 6.53-5.73 28.32"/><path id="Fill-23-3" data-name="Fill-23" class="cls-12" d="M539.15 361.68h-5.77c-.46-.67-1.11-3.39-1.6-3.93l-.11-.13v4.06h-.53a44.87 44.87 0 00-.37-5.54 2.5 2.5 0 01-.44-1.43c.2-.51 2.09-1.65 2.09-1.65s1.28 6.95 2.06 7.14a9.16 9.16 0 003.56.14 3.05 3.05 0 011.1.78.53.53 0 01.05.56"/><path id="Fill-24-3" data-name="Fill-24" class="cls-12" d="M547 361.68h-5.77c-.46-.66-1.09-3.32-1.58-3.91v3.91h-.53v-.56a44.42 44.42 0 00-.31-4.66c-.4-.71-.73-1.46-.62-1.75.2-.51 2-1.64 2-1.64s1.32 6.94 2.1 7.13a10.65 10.65 0 003.73.18s1.33.65 1 1.3"/><path id="Fill-25-3" data-name="Fill-25" class="cls-61" d="M549.24 293.41a52 52 0 001.74-17 18.13 18.13 0 00-7.17-12.61s-6.56.55-7.41 2.39 2 22.69.5 26.33c0 0 4.92 3.39 12.34.91"/><path id="Fill-26-3" data-name="Fill-26" class="cls-35" d="M544.9 264.66a10.36 10.36 0 01-.18-3.05c0-.33.06-.53.06-.53h-.06l-5.27-1.6c-.08 1.67-.17 2.91-.28 3.83 0 .44-.1.8-.15 1.1a21.66 21.66 0 002.56 1c1.89.55 2.71.33 3.06 0a.82.82 0 00.26-.67"/><path id="Fill-27-3" data-name="Fill-27" class="cls-60" d="M544.72 261v.55s-3.51 0-5.55 1.67c.1-.92.2-2.16.28-3.83l5.27 1.6"/><path id="Fill-28-3" data-name="Fill-28" class="cls-35" d="M546.17 261.43s-6.39 1.28-7.12-2.7-2.06-6.5 2-7.49 5.12.39 5.69 1.66 1.09 8.1-.56 8.54"/><path id="Fill-29-3" data-name="Fill-29" class="cls-12" d="M544.27 249.86a9.14 9.14 0 00-1.22.09 5.44 5.44 0 00-6.22 1.88c-3 3.81 3.52 10.2 3.52 10.2-.87-1.16-1.13-5.29 2.17-7.36 2-1.28 2.12-2.64 1.89-3.48h.09a3.34 3.34 0 012.78 3.36s1.15-4.81-3-4.71"/><path id="Fill-30-2" data-name="Fill-30" class="cls-54" d="M533 293.92a19.93 19.93 0 008.28-.52 9 9 0 002.2-.9c2.32-1.42 3.44-12 3-16S539 264.25 539 264.25c-1.65 1.22-2 4.18-3 7.91-2.38 9-3 21.76-3 21.76"/><path id="Fill-31-2" data-name="Fill-31" class="cls-62" d="M533 293.92a19.93 19.93 0 008.28-.52 13.12 13.12 0 002.12-5c1.18-5.82-3.47-12.13-7.36-16.22-2.38 9-3 21.76-3 21.76"/><path id="Fill-32-2" data-name="Fill-32" class="cls-13" d="M534.39 291.63l5.16 3.72a1.44 1.44 0 002-.32l5.76-8a1.43 1.43 0 00-.32-2l-5.16-3.72a1.44 1.44 0 00-2 .32l-5.76 8a1.43 1.43 0 00.32 2"/><path id="Fill-33-2" data-name="Fill-33" d="M542.41 289.06s2.52-.25 2.84.17a1.71 1.71 0 01-1.39 2.24 5.25 5.25 0 01-3-1l1.59-1.42" fill="#da935b"/><path id="Fill-34-2" data-name="Fill-34" class="cls-54" d="M539 264.25a8.75 8.75 0 00-6 4.69c-1.95 4-4 14.43-3.52 15.4s6.81 6.21 12 6.88a4.88 4.88 0 001-2.69s-7-4.34-7.56-5.53 5.31-11.14 5.24-12.86a44.56 44.56 0 00-1.15-5.89"/><path id="Fill-50-3" data-name="Fill-50" class="cls-35" d="M461.48 360.38l.65-.75a49.34 49.34 0 01-4.75-6.08l-3.07-5.66-4 1 5.1 7.22 6.1 4.28"/><path id="Fill-51-3" data-name="Fill-51" class="cls-64" d="M495 360.58a1 1 0 01-.65.87 6.67 6.67 0 01-3.13.07h-.62c-1.26-.08-1.16.3-3.56.29-2.74 0-3.66-.94-3.79-1.33s1.09-.59 2.43-.89h.19l.54-.12c1.6-.37 3.18-.85 3.7-2.38s.42-6.45.42-6.45h4.85s-1.27 5.33-1.14 6.86c.07.82.46 1.05.62 1.76v.15a4.77 4.77 0 01.11 1.27"/><path id="Fill-52-3" data-name="Fill-52" class="cls-65" d="M431.44 251.06a4 4 0 015.51-.13 21.5 21.5 0 00-5.51.13"/><path id="Fill-53-3" data-name="Fill-53" class="cls-66" d="M500.66 308.43c-.41 2.29-1 4.67-1.5 7.13a36.87 36.87 0 00-.8 12.71 15.84 15.84 0 01.13 1.92c.12 8-3.46 22.54-3.46 22.54a6.33 6.33 0 01-2.61.34 8.29 8.29 0 01-2.13-.58s-.34-9-.36-21.12c0-8.78-1.74-20.34-2.09-27.13a87.07 87.07 0 01.25-9.59s7.15-5.74 9.71-2.8 4.38 8 2.85 16.58"/><path id="Fill-54-3" data-name="Fill-54" class="cls-67" d="M498.36 328.28a15.84 15.84 0 01.13 1.92c-5.35-7.75-6.54-24.64-6.54-24.64l5.88 2.85s.64 3.17 1.32 7.16a36.87 36.87 0 00-.8 12.71"/><path id="Fill-55-2" data-name="Fill-55" class="cls-13" d="M437 249.45a5.21 5.21 0 00-2.82-.54 1.32 1.32 0 01.59-.28 4.37 4.37 0 00-1.56.41c-6.7-2.58-7.76 7.28-7.62 9.57s-2.25 3-5.74 4.84c-6.65 3.44-7.24 8.05-7.24 8.05l.16.1c.33-.56 1-1.61 1.58-1.77a23.65 23.65 0 00-.92 2.24c2 1.49 5.63 4.8 8.19 7.14a3.76 3.76 0 01.17-1.45l.32 1.9c1.37 1.26 2.31 2.14 2.31 2.14-.17-1.85 8.38-11.62 12.84-14.54a12.85 12.85 0 001.5-4.64 12.19 12.19 0 01-.91 4.2c3.78-3.47 1.58-16-.88-17.38"/><path id="Fill-56-2" data-name="Fill-56" class="cls-35" d="M437.39 267.43s-2.49 1.12-4.13.67a4.92 4.92 0 01-2.52-2.42c.65-.13.84-1 .83-4.87l.3.06 5 1s-.11 1.56-.12 3a3.92 3.92 0 00.69 2.55"/><path id="Fill-57-2" data-name="Fill-57" class="cls-60" d="M436.81 261.86s-.11 1.56-.12 3c-2.77-.08-4.24-2.61-4.84-4l5 1"/><path id="Fill-58-2" data-name="Fill-58" class="cls-13" d="M431.34 260.34a14.55 14.55 0 01-1.8-4.25c-.25-1.4.47-6.59 5.69-5.84a7.1 7.1 0 012.94 1.11c1.13.76 2.77 2.42.94 6.95l-.48 1.53-7.29.51"/><path id="Fill-59-2" data-name="Fill-59" class="cls-65" d="M456.56 351.57l-2.63.08-2.84.09a56 56 0 01-10.25-19q-.13-.41-.27-.83c-2-5.87-6.2-13.24-8.4-19.92-.35-1.06-.67-2.06-.95-3l-.26-.89a70.67 70.67 0 01-2.53-13.28l15.9.13a295.92 295.92 0 0012.22 56.65"/><path id="Fill-60-2" data-name="Fill-60" class="cls-61" d="M443.22 296.6a21.4 21.4 0 01-14.9.91c-.09 0-1.64-17.9-1.82-20-.49-5.44-.93-9.7-.93-9.7 2.21-.5 3.27-1.58 5.57-2.44a5 5 0 003.51 1.26c1.61 0 2.15-.72 2.06-1.47 1.72 1 3.08 1.85 3.08 1.85 1.46 2.53 3.44 29.54 3.44 29.54"/><path id="Fill-61-2" data-name="Fill-61" class="cls-35" d="M437.74 263.25s-6.56.11-6.57-4-.85-6.82 3.34-7.06 5 1.32 5.34 2.68-.4 8.22-2.11 8.36"/><path id="Fill-62" class="cls-13" d="M439.65 252.62c-1-1.23-1.78-1-2.21-.59-1.42-2.12-5.9.94-5.9.94a7.8 7.8 0 01-2.55 4.61s1.2.74 4 0c2.17-.56 3.74-3.64 4.32-4.93a5.2 5.2 0 011.46 1.93c.33 1 .47 3.18 1.1 3.11 0 0 1.35-3.26-.17-5.1"/><path id="Fill-63-2" data-name="Fill-63" class="cls-35" d="M464.14 270a4.09 4.09 0 014.59-2.86c.42.13 1.65.62.86 1.94-.58 1-.83.47-1.74 1.77a2.9 2.9 0 01-3 1.44l-.68-2.29"/><path id="Fill-64-2" data-name="Fill-64" class="cls-35" d="M432.82 359.43c-.22-1.23-.65-3.35-.65-3.35l.1-7.53h-4.58l1.71 7.21a7.31 7.31 0 01-.35 3s-.44 2 1.53 2 2.46-.15 2.23-1.38"/><path id="Fill-65-2" data-name="Fill-65" class="cls-54" d="M433 361.68h-4.1a9.71 9.71 0 01.14-2.88c2.23 2 3.63-.05 3.63-.05a10.2 10.2 0 01.32 2.93"/><path id="Fill-66-2" data-name="Fill-66" class="cls-54" d="M464.36 361.67h-5a7.75 7.75 0 01-1.41-2.24 2.44 2.44 0 00-1.65-1.1v3.36h-1l-1-3.55a3.24 3.24 0 01.31-3.17c.53 0 2 .34 4.73 3.37a3.52 3.52 0 002.83 1.32 3.68 3.68 0 012.2 2"/><path id="Fill-67" class="cls-54" d="M464.14 270s-4.31 2.41-5.84 3.1c-.88.4-2.9 1.34-4.32 2a2.22 2.22 0 01-2.63-.57c-2.33-2.72-8.4-8.63-14.64-9.35 0 0 3.79 9.36 3.9 11.26s.45 31 .45 31-.22 1.34 2.34.78a8.66 8.66 0 003.24-1.11s-2.46-18-1.79-24.2a13.93 13.93 0 00-.27-4h.07a32.07 32.07 0 008.24 3.3A44.93 44.93 0 00460 278l.89-.64c1.44-1.06 4-5.09 4-5.09l-.68-2.29"/><path id="Fill-68" class="cls-68" d="M453.93 351.65l-2.84.09a56 56 0 01-10.25-19q-.13-.41-.27-.83c-2-5.87-6.2-13.24-8.4-19.92-.35-1.06-.67-2.06-.95-3l-.26-.89 2.34-1.78s7 11.37 9.21 22.08c1.89 9.3 9.47 20.49 11.43 23.27"/><path id="Fill-69" class="cls-65" d="M433.55 329.38c0 5.21-.22 17.17-.9 22.13H428.04c-1.7-8.61-2.91-15.74-3.8-21.89-.72-5-1.37-9.36-1.86-13.08s-.84-6.88-1-9.53v-1.22-1.15l13.74-1.34c-.17 9.12-1.59 23.07-1.56 26.09"/><path id="Fill-70" class="cls-68" d="M430.12 351.51h-2.09c-1.7-8.61-2.91-15.74-3.8-21.89-.72-5-1.37-9.36-1.86-13.08s-.84-6.88-1-9.53l5 3s-3.22 1.13-2 9.72 3.95 30.61 5.66 31.83"/><path id="Fill-71" class="cls-54" d="M430.77 306.91s-1 3.49-4.32 3a40.44 40.44 0 01-8.11-2.45s1.43-4.52 3.21-10.45c2.15-7.18 4.82-16.45 6.08-22.29a36.15 36.15 0 00.68-4l2.81-5.36s4.11 9.26 4.33 11.6-4.69 29.89-4.69 29.89"/><path id="Fill-72" class="cls-62" d="M430.62 281.93c-.15 3.79-1 11.15-9 15.09h-.06c2.15-7.18 4.82-16.45 6.08-22.29 1.46 2.18 3.07 5.08 3 7.17"/><path id="Fill-73" class="cls-64" d="M510.49 360.54a1 1 0 01-.65.86 6.7 6.7 0 01-3.13.07l-.44-.05h-.18c-1.26-.08-1.16.3-3.56.29-2.74 0-3.66-.93-3.79-1.32s1.09-.59 2.43-.89h.19l.54-.12c1.6-.37 3.18-.84 3.7-2.37s-.24-6.35-.24-6.35l4.49-.37s-.28 5.39-.14 6.92a13.22 13.22 0 00.64 2v.15a4.75 4.75 0 01.11 1.27"/><path id="Fill-74" class="cls-66" d="M509.85 353.15a10.93 10.93 0 01-2 .71 9.55 9.55 0 01-2.56-.16 116.93 116.93 0 00-2.44-15.1 141.2 141.2 0 00-7.31-23.13c-.71-1.67-3.64-9.6-4.13-11.6-1.5-6 0-5.39 0-5.39l13.12-1.54s1.62.83 2.36 9.36c.22 2.56.25 13.59.59 15.68a23.34 23.34 0 001.13 4.7c2.44 6 1.22 26.45 1.22 26.45"/><path id="Fill-75" class="cls-69" d="M510.49 360.56a1 1 0 01-.66.88 7.67 7.67 0 01-3.13.06h-.62a14.75 14.75 0 00-2.4.26h-2c-2.12-.17-2.87-1-3-1.31s1.1-.6 2.44-.9a8 8 0 004.15.74c1.85-.18 3.74-.93 5.06-1.12v.15a4.92 4.92 0 01.11 1.29"/><path id="Fill-76" class="cls-69" d="M495 360.59a1 1 0 01-.66.9 7.5 7.5 0 01-3.13.07h-.62a5.78 5.78 0 00-1.72.2h-3.35c-1.59-.27-2.19-.93-2.29-1.25s1.1-.62 2.44-.93a7.82 7.82 0 004.14.75c1.84-.19 3.73-1 5.05-1.15v.15a5.13 5.13 0 01.1 1.32"/><path id="Fill-77" class="cls-64" d="M516.35 297l.84 1.35c.43.5.55.78.89.95a4.25 4.25 0 012.48 3.66s0 1.25-.86.84-.47-.37-1.66-.91-1.63-2.27-1.73-2.86l-1-1.27 1-1.75"/><path id="Fill-78" class="cls-34" d="M489.77 257.7c-.44-3.62.69-9.4 7.91-8.48s9.5 8 8 11.17 2.1 3.91 3.21 7.31c1 2.91 1.29 6.53 2.85 8.15 5 5.23-4.8 13.28-10.71 11.59-10.76-3.09-12.15-3.55-11.77-12 .2-4.33 3.57-6 1.43-7.26-5.17-3 0-2.3-1-10.48"/><path id="Fill-79" class="cls-35" d="M502 291.65a39.51 39.51 0 012 7.06l-16 .2s.22-12.85-.51-17.4 4.46-14.51 4.46-14.51.71-.11 1.79-.18a7.91 7.91 0 00.38-1.54 10.83 10.83 0 00.06-2.55c0-.28-.05-.44-.05-.44l5.22-1.59h.15c.06 1.42.14 2.53.23 3.4.25 2.54.55 3 .64 3.1a44.11 44.11 0 014.48.91s-4.34 19.86-2.87 23.6"/><path id="Fill-80" d="M512.35 287.76c-.8-5.52-3.77-16.86-5.76-18.71-1.76-1.64-5.57-1.79-5.57-1.79-.79 1.24-3.5 4.31-6.85 3.75-1.81-.3-2.18-3.55-2.22-4h-.06c-.53.08-4.74.76-6 2.91-1.84 3.17-3.85 12.68-5.82 12.54-.91-.06-10-3.49-10-3.49a4 4 0 00-1.23 3.16 95 95 0 008.3 4.93c.53.27 1 .51 1.53.72a6.32 6.32 0 003.16.8 2.13 2.13 0 00.57-.24 11.2 11.2 0 002.71-2.71c.61-.79 1.21-1.65 1.74-2.45a58.69 58.69 0 01.22 8.89c-.18 2-.31 6.21 0 7.31.7 2.29 5.87 2.89 10.68 2.65a31.27 31.27 0 005-.51 3.7 3.7 0 003-2.41c.53-1.28-1.93-7.29-2.16-9.92a15.27 15.27 0 01.75-6.23c1.7 3.92 3.43 6.73 3.66 7.34.48 1.28 7.74 9.38 7.74 9.38a3.49 3.49 0 001.05-.42 2.44 2.44 0 00.72-.73c-1.28-3-5.31-10.7-5.31-10.7" fill="#ebba56"/><path id="Fill-81" class="cls-71" d="M505.9 299a3.7 3.7 0 01-3 2.41c-2.27-.44-3.76-4.6-4.53-6.65-.89-2.36 3.73-14.5 5-14.39.95.08 1.11 1.69 1.14 2.48a15 15 0 00-.75 6.23c.23 2.63 2.69 8.64 2.16 9.92"/><path id="Fill-82" class="cls-35" d="M470.14 279.91s-.78-1.9-1.63-2-3.58-.5-3.77-.12a2.69 2.69 0 00.58 2.29c.58.5 4.2 1.32 4.2 1.32l.62-1.51"/><path id="Fill-83" class="cls-71" d="M486.86 283.17c-.53.8-1.12 1.65-1.74 2.45a14.54 14.54 0 01-2.71 2.71 2.13 2.13 0 01-.57.24 6.32 6.32 0 01-3.16-.8 15.12 15.12 0 002.41 0c1.38-.12 1.78-1.61 4-3.85 1.3-1.34 1.7-1.13 1.81-.72"/><path id="Fill-84" class="cls-66" d="M437.39 296.71h-.48a27.09 27.09 0 000-2.91c-.11-1.88-.46-3.1-1-3.42l.26-.41c1.53 1 1.25 6.18 1.21 6.77"/><path id="Fill-85" class="cls-60" d="M499.49 260.92s-2 3.65-5.38 4.34a10.83 10.83 0 00.06-2.55c0-.28-.05-.44-.05-.44l5.22-1.59.15.23"/><path id="Fill-86" class="cls-35" d="M443.39 289.53c-.26-.26-1.1-.16-1.1-.16l-3.39.6s-3.72-.86-7.5-2.13c-.77-.26-1.52-.5-2.2-.71l-.88 5 1.2.25c2.47.47 5.56 0 9.7 0a5.79 5.79 0 002.45.21c.83-.26 2-2.78 1.73-3"/><path id="Fill-87" class="cls-54" d="M431.4 287.84a13.22 13.22 0 00-1.88 4.52 18.12 18.12 0 01-6.9-2.5l-.7-.67c-2-3.95-.12-15.06-.12-15.06a16.16 16.16 0 012.35-6.19 54.59 54.59 0 017-2.52l-2.7 10.85-1.52 10.25a39.71 39.71 0 014.49 1.31"/><path id="Fill-88" class="cls-66" d="M438.16 296.56l-6.74-1.05a14.77 14.77 0 014.76-6.28l-.54-.14a13.7 13.7 0 00-4.72 6.34l-1.3-.2a1.17 1.17 0 00-1.33 1l-.87 5.55a1.17 1.17 0 001 1.33l8.54 1.34a1.17 1.17 0 001.33-1l.87-5.55a1.17 1.17 0 00-1-1.33"/><path id="Fill-89-2" data-name="Fill-89" class="cls-35" d="M492.71 262.64s6.44 1.29 7.18-2.72 2.07-6.55-2-7.55-5.16.39-5.74 1.67-1.09 8.16.56 8.6"/><path id="Fill-90-2" data-name="Fill-90" class="cls-34" d="M501.14 252.64l-2.69-3s-3.2-1.07-6.37 2.06c-1.37 1.35-1.16 4-.43 5.53 0 0 1.12-3.29 3.17-4a4.48 4.48 0 001.29-.74 8.82 8.82 0 001.76 2.61c2.12 2.31 1.7 7 1.7 7s3.47-7.25 1.57-9.39"/><path id="Fill-91-2" data-name="Fill-91" class="cls-40" d="M494.72 260.67s-.17.48-1.38.26c0 0-1-.18-.92-.72a3.32 3.32 0 012.31.46"/><path id="Fill-92-2" data-name="Fill-92" class="cls-62" d="M460 278a44.93 44.93 0 01-7.07 4.19 32.07 32.07 0 01-8.24-3.3c-.32-.67-.49-1.52.53-1.69 1.75-.29 6.3 3.92 7.47 3.78a66.44 66.44 0 007.32-3"/><path id="Fill-94-2" data-name="Fill-94" class="cls-13" d="M602.07 361.67H591.6c-.55-.26-.56-2-.51-3.07 0-.53.07-.91.07-.91s3.53-2.95 4.07-.76a3 3 0 00.55 1.12c1.07 1.39 3.25 2 4.6 2.23 1.56.22 1.68 1.29 1.69 1.43"/><path id="Fill-95-2" data-name="Fill-95" class="cls-12" d="M601.75 303.86l-.08.74c-.22 1.89-.82 7.2-1.51 13.43 0 .25-.06.51-.09.77-.3 2.67-.61 5.49-.92 8.27l-.1.87c-.22 1.94-.42 3.85-.62 5.66-.66 6-1.18 11-1.29 12.45-.33 4.48-1.19 11.88-1.19 11.88l-.17.09a8.09 8.09 0 01-4.69.55l-.39-.07s-.85-3.25-1.68-8c-.17-1-.34-2-.51-3.11-.24-1.63-.47-3.37-.65-5.17l-.07-.66c-.13-1.39-.24-2.82-.3-4.25v-.54-1-.78c-.3-8.39-.62-21.64-.77-28.34 0-1.29-.05-2.34-.07-3.06v-.36-.75l9.58.91 5.63.54"/><path id="Fill-96-2" data-name="Fill-96" class="cls-13" d="M594.15 317.81c-.83 6.51-4.23 22.89-5.63 29.55-.24-1.63-.47-3.37-.65-5.17l-.07-.66c-.13-1.39-.24-2.82-.3-4.25v-.54-1-.78c-.3-8.39-.62-21.64-.77-28.34 4.59-1.39 8.92.14 7.51 11.23"/><path id="Fill-97-2" data-name="Fill-97" class="cls-13" d="M587.4 361.67h-10.92c-.47-.42-.46-2.12-.4-3.17 0-.5.06-.85.06-.85s3.53-2.95 4.07-.76a3.25 3.25 0 001 1.62 8.22 8.22 0 004.14 1.73 2.54 2.54 0 012 1.43"/><path id="Fill-98-2" data-name="Fill-98" class="cls-12" d="M595.56 303.19s-5.51 26.71-9.8 39.26-4.34 16-4.34 16-3.94.85-5.67-.14c0 0-1-23.79 1.6-30.1 1.72-4.18 2.13-6.18 1.68-15.75-.15-3.23 0-10.15 0-10.15l16.49.85"/><path id="Fill-99-3" data-name="Fill-99" class="cls-56" d="M572.65 302.2l.08 2.52a4.7 4.7 0 000 5.93s1.07 1.24 1.58.13.17-.76.91-2.31a5.16 5.16 0 00-.25-4.22l.11-2h-2.41"/><path id="Fill-100-3" data-name="Fill-100" class="cls-57" d="M597.16 263.25a9.33 9.33 0 01-.74-4.06l-5.65-3.88c-.49 4.79-1.34 6.08-1.3 8 0 0 2.24 2.51 4.21 2.5s3.49-2.51 3.48-2.53"/><path id="Fill-102-3" data-name="Fill-102" class="cls-56" d="M597.76 259.4s-6.88.31-7-4-1.11-7.13 3.28-7.51 5.29 1.23 5.68 2.65-.17 8.64-2 8.83"/><path id="Fill-104-3" data-name="Fill-104" class="cls-13" d="M590.45 257.34s.35-.27-1-2.34-2-1.5-2-3.71-1.14-4.23 1.42-5.67a14.32 14.32 0 014.93-2c1.54-.32 4.48.12 5.39 1.11 1.65 1.79 1.43 6.41.57 5.87s-5.11-1.82-5.48-.85-2.38 6.88-3.78 7.63"/><path id="Fill-105-3" data-name="Fill-105" class="cls-4" d="M614.77 292.64a27.45 27.45 0 01-3.8-2.93l-.66-.77c-2.1-2.72-5.75-8.95-5.75-8.95s0 .25-.11.78c0-.06-.21-2.74 1.26-1.46s6.11 9.77 7.3 11.36a20.69 20.69 0 001.76 2"/><path id="Fill-106-3" data-name="Fill-106" class="cls-4" d="M585 301c-1 1.53-3.21 2-5 2.17l-.63-.15a1.3 1.3 0 01-1.14-1.56c.73-2.65 2.17-8.07 2.4-10 .35-3 .73-11.18.78-12.38.4 0 2.68.27 3.21 6.78.58 7.16 2.31 12.32.39 15.16"/><path id="Fill-5-4" data-name="Fill-5" class="cls-45" d="M671.41 341.38a.93.93 0 01-.54.86 6.23 6.23 0 01-2.9.33h-.58c-1.18 0-1.05.38-3.29.57-2.55.22-3.49-.56-3.64-.92s1-.64 2.19-1l.18-.06.49-.16c1.45-.48 2.89-1.06 3.24-2.53s-.76-5.92-.76-5.92l4-.44s.39 4.55.64 6a15.62 15.62 0 00.68 2v.14a4.47 4.47 0 01.21 1.17"/><path id="Fill-6-3" data-name="Fill-6" class="cls-44" d="M671.41 341.38a.93.93 0 01-.54.86 7.24 7.24 0 01-2.9.32h-.58c-1.18 0-1.05.38-3.29.57-2.55.22-3.49-.56-3.64-.92s1-.64 2.19-1a7.56 7.56 0 003.91.33c1.7-.32 3.39-1.16 4.61-1.45v.14a4.47 4.47 0 01.21 1.17"/><path id="Fill-7-3" data-name="Fill-7" class="cls-45" d="M645.19 336.23c-.22 1.12-1.82.93-3.61.5a4.28 4.28 0 00-1.79-.15 9.37 9.37 0 01-2.12-.05c-2.54-.28-3.31-1.23-3.39-1.61s1.19-.45 2.53-.61l.51-.06c1.52-.19 2.64-1.17 4-2s3.26-3.87 3.26-3.87l3.49.28s-1.83 2.78-2.54 4a4.2 4.2 0 00-.34 2.37 4.46 4.46 0 010 1.19"/><path id="Fill-8-3" data-name="Fill-8" class="cls-44" d="M641.58 336.73c-1.79-.44-1.36.08-3.9-.2s-3.31-1.23-3.39-1.61 1.19-.45 2.53-.61a7.18 7.18 0 003.64 1.13c1.73 0 3.55-.45 4.74-.43a4.47 4.47 0 010 1.19c-.22 1.12-1.82.93-3.61.5"/><path id="Fill-9-3" data-name="Fill-9" class="cls-15" d="M653 285.07s-.83-2-1.74-2.12-3.82-.54-4-.12a2.87 2.87 0 00.62 2.45c.62.54 4.49 1.41 4.49 1.41l.66-1.62"/><path id="Fill-10-3" data-name="Fill-10" class="cls-32" d="M658.56 314l7.52 20.2a6.87 6.87 0 002.26-.21 9.72 9.72 0 002.19-1.06s-1.86-19.4-5.28-23.43-6.68 4.5-6.68 4.5"/><path id="Fill-11-3" data-name="Fill-11" class="cls-72" d="M688.28 305.79s-21.59-7.29-26.41-5.74-19.28 30.29-19.28 30.29a2.79 2.79 0 001.22.77 11.52 11.52 0 002.83.29s13-11.17 14.6-14.43 2.17-6.36 3.73-6.05 20 7.6 24.23 3.26a12.09 12.09 0 003.1-10l-4 1.61"/><path id="Fill-12-3" data-name="Fill-12" class="cls-73" d="M675.08 271.86a12.27 12.27 0 01-.92-4.23 13 13 0 001.51 4.67c4.49 2.95 13.1 12.78 12.93 14.64 0 0 3-5.14 3.08-5.17s5.59-7.1-1-11.17c-3.37-2.07-3.35-4.72-3.21-7s-.92-12.23-7.67-9.63a4.4 4.4 0 00-1.57-.41 1.32 1.32 0 01.6.28 5.24 5.24 0 00-2.83.54c-2.47 1.4-4.69 14-.89 17.5"/><path id="Fill-13-3" data-name="Fill-13" class="cls-15" d="M675.94 272.45a6.23 6.23 0 003.82.7 5 5 0 002.54-2.43c-.66-.13-.85-1-.83-4.9l-.3.06-5 1s.11 1.57.12 3c0 1.24-.07 2.42-.36 2.55"/><path id="Fill-14-3" data-name="Fill-14" class="cls-74" d="M676.18 266.85s.11 1.57.12 3c2.79-.08 4.27-2.62 4.87-4l-5 1"/><path id="Fill-15-3" data-name="Fill-15" class="cls-73" d="M681.69 265.32a14.65 14.65 0 001.81-4.32c.25-1.41-.47-6.64-5.72-5.88a7.15 7.15 0 00-3 1.12c-1.14.77-2.79 2.43-.95 7l.48 1.54 7.34.52"/><path id="Fill-16-3" data-name="Fill-16" class="cls-15" d="M675.25 268.25s6.61.11 6.61-4 .86-6.87-3.36-7.11-5 1.32-5.37 2.7.4 8.28 2.12 8.41"/><path id="Fill-17-4" data-name="Fill-17" class="cls-73" d="M681.49 257.91s-4.51-3.08-5.94-1c-.43-.37-1.2-.64-2.22.6-1.53 1.85-.17 5.13-.17 5.13.63.07.78-2.08 1.11-3.13a5.23 5.23 0 011.47-1.94c.58 1.3 2.16 4.4 4.35 5 2.78.71 4 0 4 0a7.85 7.85 0 01-2.57-4.64"/><path id="Fill-18-4" data-name="Fill-18" class="cls-7" d="M690.65 290.2c.65-2.73-1.56-8-3.88-12.41-2.1-4-4.28-7.2-4.47-7.08-5.54 3.28-6 .55-6 .55s-5 .67-6.45 3.12c-2 3.39-4.12 13.55-6.22 13.4-1-.07-10.7-3.72-10.7-3.72a4.26 4.26 0 00-1.31 3.38 101.65 101.65 0 008.87 5.27c2.15 1.08 4.09 1.84 5 1.63 1.85-.44 4.74-4.72 6.31-7.25 2 11.28-.72 13.85.66 15s3.52-.6 8.08 1.37c3 1.3 7.14 3.17 9.93 3.49 1.46.17 2.56-.08 2.91-1.07 1-2.87-3.94-10.5-2.69-15.7"/><path id="Fill-19-4" data-name="Fill-19" class="cls-40" d="M676.72 265.76s-.12.52-1.42.44c0 0-1.09-.07-1.06-.64a3.52 3.52 0 012.48.2"/><path id="Fill-20-4" data-name="Fill-20" class="cls-21" d="M693.35 305.9c-.36 1-1.45 1.24-2.91 1.07-1.93-.84-10.28-4.07-10.19-6.26.14-3.24 1.6-3.34.57-7.35-.83-3.21 4.82-9.82 6.05-11.12 2.31 4.38 4.44 5.22 3.79 8-1.24 5.2 3.73 12.83 2.69 15.7"/><path id="Fill-21-4" data-name="Fill-21" class="cls-21" d="M671.76 287.08c-1.56 2.52-4.46 6.81-6.31 7.25-.91.22-2.86-.54-5-1.63a13 13 0 004.55.3c1.61-.16 2.07-2.12 4.61-5.07 1.65-1.91 2-1.43 2.13-.8"/><path id="Fill-22-4" data-name="Fill-22" class="cls-15" d="M679.49 293.29a4 4 0 00-2.72-.83c-1.32.26-2 1.16-1.92 1.58a2.35 2.35 0 001.76 1.68 19.1 19.1 0 003.88-.62l-1-1.81"/><path id="Fill-23-4" data-name="Fill-23" class="cls-7" d="M682.3 270.71s5.38.33 7.25 2.93c2.62 3.66 7.18 18.58 5.94 22l-16.38-.07a4.84 4.84 0 01.16-2.75c.55-.9 9.53-2.34 9.94-2.76S684 282 684 280.74s-1.72-10-1.72-10"/><path id="Fill-24-4" data-name="Fill-24" class="cls-15" d="M703.43 294.19a6.2 6.2 0 00-2.22-.35 10.38 10.38 0 00-3 1.42.82.82 0 000 .39h5.23s1.17-.23 1.37-.92-1.37-.54-1.37-.54"/><path id="Fill-25-4" data-name="Fill-25" class="cls-64" d="M722.95 360a1 1 0 01-.65.87 6.69 6.69 0 01-3.13.07l-.44-.05h-.18c-1.26-.08-1.16.3-3.56.29-2.74 0-3.67-.94-3.79-1.33s1.09-.59 2.43-.89h.2l.54-.12c1.6-.38 3.18-.85 3.7-2.38s.42-6.45.42-6.45h4.85s-1.27 5.33-1.14 6.87c.07.82.47 1.05.62 1.77v.15a4.73 4.73 0 01.11 1.27"/><path id="Fill-26-4" data-name="Fill-26" class="cls-66" d="M728.59 307.87c-.41 2.3-1 4.67-1.5 7.14a36.88 36.88 0 00-.8 12.72 16.09 16.09 0 01.13 1.92c.12 8-3.47 22.56-3.47 22.56a6.34 6.34 0 01-2.61.34 8.3 8.3 0 01-2.13-.58s-.34-9-.36-21.13c0-8.79-1.74-20.35-2.09-27.15a86.93 86.93 0 01.25-9.59s7.15-5.75 9.72-2.81 4.39 8 2.85 16.59"/><path id="Fill-27-4" data-name="Fill-27" class="cls-67" d="M726.29 327.72a16.09 16.09 0 01.13 1.92c-5.36-7.75-6.54-24.66-6.54-24.66l5.88 2.85s.65 3.17 1.33 7.16a36.88 36.88 0 00-.8 12.72"/><path id="Fill-28-4" data-name="Fill-28" class="cls-64" d="M738.42 360a1 1 0 01-.65.87 6.69 6.69 0 01-3.13.07l-.44-.05h-.2c-1.26-.08-1.16.3-3.56.29-2.74 0-3.67-.94-3.79-1.33s1.09-.59 2.43-.89h.19l.54-.12c1.6-.38 3.18-.85 3.7-2.38s-.24-6.38-.24-6.38l4.49-.38s-.28 5.42-.14 7a13.37 13.37 0 00.64 2v.15a4.77 4.77 0 01.11 1.27"/><path id="Fill-29-4" data-name="Fill-29" class="cls-66" d="M737.79 352.61a10.91 10.91 0 01-2 .71 9.54 9.54 0 01-2.56-.16 117 117 0 00-2.44-15.11 141.14 141.14 0 00-7.31-23.14c-.71-1.68-3.64-9.61-4.13-11.61-1.5-6 0-5.4 0-5.4l13.13-1.54s1.62.83 2.36 9.37c.22 2.56.25 13.6.59 15.69a23.43 23.43 0 001.13 4.7c2.44 6 1.22 26.47 1.22 26.47"/><path id="Fill-30-3" data-name="Fill-30" class="cls-69" d="M738.42 360a1 1 0 01-.65.87 7.72 7.72 0 01-3.12.06H734c-1.26-.08-1.16.3-3.56.29-2.74 0-3.67-.94-3.79-1.33s1.09-.59 2.43-.89a8.09 8.09 0 004.14.73c1.84-.18 3.73-.91 5.05-1.1v.15a4.77 4.77 0 01.11 1.27"/><path id="Fill-31-3" data-name="Fill-31" class="cls-69" d="M722.95 360a1 1 0 01-.65.87 7.73 7.73 0 01-3.13.06h-.62c-1.26-.08-1.16.3-3.56.29-2.74 0-3.67-.94-3.79-1.33s1.09-.59 2.43-.89a8.09 8.09 0 004.14.73c1.84-.18 3.73-.91 5.05-1.1v.15a4.73 4.73 0 01.11 1.27"/><path id="Fill-32-3" data-name="Fill-32" class="cls-12" d="M717.7 257.09c-.44-3.62.69-9.41 7.92-8.48s9.51 8 8.05 11.18 2.1 3.92 3.22 7.31c1 2.92 1.29 6.54 2.85 8.16 5 5.24-4.81 13.29-10.72 11.59-10.77-3.09-12.16-3.56-11.78-12 .2-4.33 3.57-6 1.43-7.26-5.17-3 0-2.3-1-10.49"/><path id="Fill-33-3" data-name="Fill-33" class="cls-15" d="M728.32 266.56l-2 5.14-4.3.21-2.14-3.21c2.43-1.84 2.33-5.37 2.21-6.6 0-.28-.05-.44-.05-.44l5.38-1.64c.06 1.42.14 2.53.23 3.4.3 3.05.67 3.13.67 3.13"/><path id="Fill-34-3" data-name="Fill-34" class="cls-15" d="M719.87 266.38c.28 0 5-1 12.9 1.07 0 0-4.34 19.88-2.87 23.62a39.55 39.55 0 012 7.07l-16 .2s.22-12.86-.51-17.41 4.45-14.55 4.45-14.55"/><path id="Fill-35-3" data-name="Fill-35" class="cls-7" d="M731.67 288.55c.23 2.63 2.7 8.64 2.16 9.92a3.7 3.7 0 01-3 2.41 31.41 31.41 0 01-5 .51c-4.82.24-10-.37-10.69-2.66-.34-1.1-.21-5.35 0-7.31.37-4.06-.41-9.89-.52-13.66-.09-3.15 1.81-10.31 1.81-10.31a12 12 0 013.55-1.08s.28 3.72 2.23 4c3.36.55 6.07-2.52 6.86-3.76 0 0 3.86 1 5 2.26s-.4 10.27-.72 11.13-.55 1.47-.78 2.2a15.33 15.33 0 00-.77 6.29"/><path id="Fill-36-3" data-name="Fill-36" class="cls-15" d="M745.41 294.2a6.24 6.24 0 012.22-.34 10.37 10.37 0 013 1.41.8.8 0 010 .38h-5.23s-1.17-.23-1.37-.91 1.37-.54 1.37-.54"/><path id="Fill-37-3" data-name="Fill-37" class="cls-74" d="M727.65 263.78a9.6 9.6 0 00-5.56-1.33c0-.28-.05-.44-.05-.44l5.38-1.64c.06 1.42.14 2.53.23 3.4"/><path id="Fill-38-3" data-name="Fill-38" class="cls-15" d="M720.64 262s6.44 1.29 7.18-2.73 2.08-6.56-2-7.55-5.17.39-5.74 1.67-1.09 8.17.56 8.61"/><path id="Fill-39-3" data-name="Fill-39" class="cls-12" d="M729.07 252a4.87 4.87 0 00-3.81-1.44c.69-.84-2.09-2.67-5.26.46-1.37 1.35-1.16 4-.43 5.53 0 0 1.13-3.29 3.17-4a4.49 4.49 0 001.29-.74 8.81 8.81 0 001.76 2.61c2.12 2.31 1.71 7 1.71 7s3.48-7.26 1.57-9.4"/><path id="Fill-40-3" data-name="Fill-40" class="cls-40" d="M722.64 260.06s-.17.48-1.38.26c0 0-1-.18-.92-.72a3.32 3.32 0 012.31.46"/><path id="Fill-41-3" data-name="Fill-41" class="cls-54" d="M740.31 284.58c-2.44-9.39-3.77-14.75-5.77-16.38-1.77-1.44-5.57-1.57-5.57-1.57a19.34 19.34 0 00.13 3.39l-4.68 8.91a39.14 39.14 0 00-3.25 9.93c-.64-5.15-1.28-9.93-1.28-9.93a53.79 53.79 0 01-.79-5.84 49.5 49.5 0 00.77-6.72h-.3c-.92.06-3.81.36-5.28 1.56-2 1.64-2.44 8.83-5.77 16.52 0 0-4 6.77-5.31 9.45a2.29 2.29 0 00.72.64 3.78 3.78 0 001.07.46s7.27-7.15 7.75-8.28c.16-.37 1-1.68 2.13-3.59s.29 10.21-.35 14.62a2.28 2.28 0 001.14 2.32c4.49 2.53 17.94 9.43 20.44 2.73.28-.75-4.63-13.51-4-16.27.21-.88.5-2.9.79-5.23 1.54 2.95 3 5 3.19 5.5.48 1.12 7.75 8.21 7.75 8.21a3.8 3.8 0 001.05-.37 2.27 2.27 0 00.72-.64c-1.28-2.66-5.31-9.37-5.31-9.37"/><path id="Fill-42-3" data-name="Fill-42" class="cls-55" d="M728.72 266.61l-4.3 12.33 4.3-4.06-.32-1.26a3 3 0 001.39-.17c.4-.26 1.33-6.56 1.33-6.56s-.87-.15-1.16-.18-1.23-.1-1.23-.1"/><path id="Fill-43-3" data-name="Fill-43" class="cls-55" d="M719.86 266.38s-.91 9.74 0 12.56c0 0-2.66-4.21-2.16-5.08l1-.63s-1.86-.24-1.51-1.31 1.84-5.4 1.84-5.4l.84-.14"/><path id="Fill-44-3" data-name="Fill-44" class="cls-75" d="M624.97 361.89h148.39v-33.61l-148.39-.34v33.95"/><path id="Fill-45-3" data-name="Fill-45" class="cls-75" d="M624.97 310.77h148.39v-8.79H624.97v8.79z"/><path id="Fill-46-3" data-name="Fill-46" class="cls-72" d="M779.79 302H614.65a2.83 2.83 0 01-2.83-2.83v-.68a2.83 2.83 0 012.83-2.83h165.14a2.83 2.83 0 012.83 2.83v.68a2.83 2.83 0 01-2.83 2.83"/><path id="Fill-47-3" data-name="Fill-47" class="cls-37" d="M645.09 295.67"/><path id="Fill-64-3" data-name="Fill-64" class="cls-76" d="M683.45 280.45l-3.21-.46a.39.39 0 01-.34-.45l.21-1.43a.39.39 0 01.45-.34l3.21.46a.39.39 0 01.34.45l-.21 1.43a.39.39 0 01-.45.34"/><path id="Fill-65-3" data-name="Fill-65" class="cls-58" d="M681.45 279.73l-1.05-.15.2-1.4 1.04.15-.19 1.4"/><path id="Fill-66-3" data-name="Fill-66" class="cls-58" d="M683.44 278.94l-1.3-.19a.18.18 0 11.05-.35l1.3.19a.18.18 0 11-.05.35"/><path id="Fill-67-2" data-name="Fill-67" class="cls-58" d="M683.48 279.44l-1.52-.22a.07.07 0 010-.13l1.52.22a.07.07 0 110 .13"/><path id="Fill-68-2" data-name="Fill-68" class="cls-58" d="M683.45 279.66l-1.52-.22a.07.07 0 110-.13l1.52.22a.07.07 0 010 .13"/><path id="Fill-69-2" data-name="Fill-69" class="cls-76" d="M731.15 278.7l-3-.18a.36.36 0 01-.34-.38l.08-1.32a.36.36 0 01.38-.34l3 .18a.36.36 0 01.34.38l-.08 1.32a.36.36 0 01-.38.34"/><path id="Fill-70-2" data-name="Fill-70" class="cls-58" d="M729.27 278.19l-.96-.06.08-1.29.96.06-.08 1.29"/><path id="Fill-71-2" data-name="Fill-71" class="cls-58" d="M731 277.33l-1.2-.07a.16.16 0 110-.32l1.2.07a.16.16 0 010 .32"/><path id="Fill-72-2" data-name="Fill-72" class="cls-58" d="M731.1 277.78l-1.4-.09a.06.06 0 010-.12l1.4.09a.06.06 0 010 .12"/><path id="Fill-73-2" data-name="Fill-73" class="cls-58" d="M731.09 278l-1.4-.09a.06.06 0 010-.12l1.4.09a.06.06 0 010 .12"/><path id="Fill-74-2" data-name="Fill-74" class="cls-55" d="M721.76 289.32a.46.46 0 11.46.46.46.46 0 01-.46-.46"/><path id="Fill-75-2" data-name="Fill-75" class="cls-55" d="M721.76 292.22a.46.46 0 11.46.46.46.46 0 01-.46-.46"/><path id="Fill-114-2" data-name="Fill-114" d="M737.35 329.11a14.86 14.86 0 00-.77-3 23.43 23.43 0 01-1.13-4.7c-.22-1.36-.31-6.53-.4-10.67h38.32v18.88zm-8.87 0h-2.07c0-.48-.06-.94-.12-1.37a27.66 27.66 0 01-.26-3.83c0-.74 0-1.47.08-2.19.87 2.49 1.66 5 2.37 7.39m-10.64 0l-47.77-.11c-.63-5-1.9-13.4-3.75-17.64 3.44 1.15 12.29 4.22 18.16 4.22 2.08 0 3.78-.39 4.74-1.38a11.18 11.18 0 002.26-3.4h24.9c.57 5.72 1.33 12.48 1.47 18.3m-53.71-.12h-14.65c3.25-2.89 8.44-7.62 10.75-10.46l3.9 10.49m-39.14-.15v-18.09h28.41c-4.15 6.81-8.39 14.9-10 18.13z" fill="#b5d1fb"/><path id="Fill-115-2" data-name="Fill-115" d="M670.07 329h-5.94l-3.9-10.49a8.37 8.37 0 001-1.49c1.48-3.11 2.12-6.07 3.52-6.07h.21c.2 0 .66.19 1.34.42 1.85 4.24 3.13 12.66 3.75 17.64" fill="#a3c2f2"/><path id="Fill-116-2" data-name="Fill-116" d="M649.48 328.91h-6.15c1.66-3.23 5.89-11.32 10-18.13h38.09a11.18 11.18 0 01-2.26 3.4c-1 1-2.66 1.38-4.74 1.38-5.87 0-14.71-3.07-18.16-4.22-.67-.23-1.14-.38-1.34-.42h-.21c-1.4 0-2 3-3.52 6.07a8.37 8.37 0 01-1 1.49c-2.31 2.84-7.49 7.58-10.75 10.46" fill="#a5c3f3"/><path id="Fill-117-2" data-name="Fill-117" class="cls-80" d="M726.06 329.09h-8.22c-.14-5.82-.9-12.58-1.47-18.3h4.18c.79 5.42 2.41 13.41 5.51 18.32"/><path id="Fill-118" d="M726.41 329.09h-.35c-3.1-4.91-4.72-12.9-5.51-18.32h1.36c.68 1.86 1.31 3.49 1.59 4.15.95 2.24 1.82 4.51 2.62 6.78 0 .72-.08 1.45-.08 2.19a27.66 27.66 0 00.26 3.83c.06.43.1.88.12 1.37" fill="#a3c1f1"/><path id="Fill-119" class="cls-80" d="M737.35 329.11h-8.87c-.71-2.42-1.49-4.91-2.37-7.39-.8-2.27-1.67-4.55-2.62-6.78-.28-.66-.9-2.29-1.59-4.15H735c.1 4.14.18 9.3.4 10.67a23.43 23.43 0 001.13 4.7 14.86 14.86 0 01.77 3"/><path id="Fill-149" d="M745.33 344.29a5.39 5.39 0 01.38-1.74 7 7 0 00-.35 1.47v.27" fill="#958998"/><path id="Fill-173-2" data-name="Fill-173" class="cls-75" d="M763.27 280.4l-3.29 15.24h12.8l2.86-15.24h-12.37"/><path id="Fill-174-2" data-name="Fill-174" fill="#afcdfb" d="M763.71 280.89l-2.97 13.77h11.56l2.58-13.77h-11.17"/><path id="Fill-175-2" data-name="Fill-175" class="cls-75" d="M773.37 282h-8.8a.29.29 0 100 .59h8.8a.29.29 0 100-.59"/><path id="Fill-176-2" data-name="Fill-176" class="cls-75" d="M772.92 283.38h-8.8a.29.29 0 100 .59h8.8a.29.29 0 100-.59"/><path id="Fill-177-2" data-name="Fill-177" class="cls-75" d="M772.64 284.72h-8.8a.29.29 0 100 .59h8.8a.29.29 0 100-.59"/><path id="Fill-178-2" data-name="Fill-178" class="cls-75" d="M772.23 287.46h-8.8a.29.29 0 000 .59h8.8a.29.29 0 100-.59"/><path id="Fill-179-2" data-name="Fill-179" class="cls-75" d="M771.78 288.85H763a.29.29 0 100 .59h8.8a.29.29 0 100-.59"/><path id="Fill-180-2" data-name="Fill-180" class="cls-75" d="M771.5 290.18h-8.8a.29.29 0 100 .59h8.8a.29.29 0 100-.59"/><path id="Fill-181-2" data-name="Fill-181" class="cls-55" d="M757.82 288.9l-1.91 6.3.35.11 1.91-6.31-.35-.1"/><path id="Fill-182-2" data-name="Fill-182" class="cls-54" d="M756.16 294.6a1.26 1.26 0 00-1.28 1h2.55a1.26 1.26 0 00-1.28-1"/><path id="Fill-183-2" data-name="Fill-183" class="cls-54" d="M757.83 295.48a6.7 6.7 0 01-1-.09v-.08c.49.08 1.79.21 1.93-.2a2.1 2.1 0 00-.08-.91 9.16 9.16 0 01-.11-3.55c.21-1.27.05-1.65-.11-1.75s-.42.09-.42.09l-.05-.07s.29-.23.51-.09.33.78.16 1.84a9.05 9.05 0 00.11 3.52 2.13 2.13 0 01.08 1c-.1.27-.56.34-1 .34"/><path id="Fill-93-2" data-name="Fill-93" class="cls-56" d="M623.78 295.34l1.12.35a3.69 3.69 0 014.58 2s.55 1.34-.5 1.39-.65-.12-2.13 0a3.42 3.42 0 01-3.35-1.44l-1.36-1 1.63-1.27"/><path id="Fill-101-3" data-name="Fill-101" class="cls-58" d="M624.7 295.37a7.47 7.47 0 01-.61 1.19 3.33 3.33 0 01-1.05 1s-4.56-2.41-8.28-4.88l-.87-.59a17.62 17.62 0 01-3.34-2.8l-.25-.31c-2.1-2.72-5.75-8.95-5.75-8.95s0 .25-.11.78c-.15 1.21-.45 3.84-.75 8.2-.45 6.54.93 14.57-1.95 14.9-13.25 1.48-17.63.27-21.79-.7l-.63-.15a1.3 1.3 0 01-1.14-1.56c.73-2.65 2.17-8.07 2.4-10 .35-3 .73-11.18.78-12.38v-.15l-.07.15c-.06.27-1.33 6-1.78 9.42-.35 2.7-4.38 15-4.38 15l-2.59-.09s-.75-13.21.35-16.68c.4-1.26 1.38-21.16 7-23.16a43.24 43.24 0 019.76-2.11c.16 1.87 2.71 3.27 4.76 3.27a2.57 2.57 0 002.62-1.73c5.06 1.32 8.63 2.41 10.28 4.17 4.91 5.24 6.35 13.84 8.95 18.19 1.68 2.81 8.42 10 8.42 10"/><path id="Fill-103-3" data-name="Fill-103" class="cls-56" d="M624.81 298.79s2.34.81 3.13.29-1.88-.9-1.9-1.45-1.23 1.16-1.23 1.16"/></g><g id="Group-4"><path id="Fill-3-4" data-name="Fill-3" class="cls-28" d="M286.4 362H28.52s-6.82-16.85-5-35.06a54.59 54.59 0 011.12-6.94q.49-2.11 1.17-4.2a41.72 41.72 0 0110.06-16.59c30-30.25 68.82-5 83.38-5.7s15.38-29.77 58.87-33.24c24.13-1.92 50 2.58 58.39 22.78 3.29 8 3.87 18.36.54 31.77-1.94 7.8-.28 12.57 3.42 15.66 7.68 6.42 24.13 5.59 35.35 9.59 8.36 3 13.81 8.63 10.57 22"/><path id="Fill-4-4" data-name="Fill-4" class="cls-84" d="M240.48 330.5L51.82 355a60.86 60.86 0 01-2.15-20.07l186.86-51.81c3.3 8 3.87 18.36.54 31.76-1.94 7.8-.28 12.56 3.42 15.65"/><path id="Fill-5-5" data-name="Fill-5" class="cls-84" d="M161.66 292.57L23.52 326.93a54.68 54.68 0 011.12-6.88q.49-2.11 1.17-4.21l135.85-23.26"/><path id="Fill-6-4" data-name="Fill-6" d="M157.88 362H28.42s-8.64-21.35-3.87-42a64.68 64.68 0 0135 8.43c21.85 12.42 57.72 3.33 68.1 10.3s12.77 14.18 20.49 15.42a12.64 12.64 0 019.77 7.9" fill="#c9e0f2" fill-opacity=".6"/><path id="Fill-7-4" data-name="Fill-7" class="cls-84" d="M210.16 278.45a3.62 3.62 0 113.62 3.62 3.62 3.62 0 01-3.62-3.62"/><path id="Fill-8-4" data-name="Fill-8" class="cls-3" d="M197.48 351.74c3.58-1.12 8.19-3 5.69-4.33-2.69-1.47-6.11 1.65-8 3.72h-.29a10.44 10.44 0 00-1.44-.1c3.54-5.67 7.49-13.23 4.12-14.19-3.62-1-6.22 8.15-7.5 14.58-3.54.77-7.35 2.49-11.32 3.63-1.4-5.1-4.63-12.71-11.39-12.54-7.1.18 1.76 8.43 7.74 13.38a19.57 19.57 0 01-4 .26 19.26 19.26 0 00-14.09 5.44h46.6c1.75-2.78-.9-7.9-6.11-9.85"/><path id="Fill-9-4" data-name="Fill-9" class="cls-15" d="M118.37 237.44s-3.24-3.58-4.24-3.7-5.12 1.88-5.35 2.67 4.53-.79 4.79 0 .56 1.33 1.91 1.39a5.66 5.66 0 012.53.83l.35-1.19"/><path id="Fill-10-4" data-name="Fill-10" class="cls-13" d="M122.35 361.49c-1-.63-.45-5.33-.45-5.33s4.81-3.85 5.47-.9 4.57 4.27 6.8 4.63a2.39 2.39 0 012.16 1.6h-14"/><path id="Fill-11-4" data-name="Fill-11" class="cls-12" d="M121.43 358.51c-1.24-.47-8.12-16.93-7.83-22.27 0-.63-.09-5.83-.29-6.91-.15-.84-.36-1.82-.6-2.9-.38-1.65-.85-3.55-1.37-5.59-1.46-5.73-3.33-12.55-4.61-18 2.31-5.16 5.26-9.67 8-11.21 1.93.24 3.8.59 5.18.89a24.37 24.37 0 012.53 1.67c.21 1.07.53 2.85.78 5.15.16 1.5.3 3.23.36 5.11.46 13.37-1.89 27.9 4.09 51.61.17.66-4.32 3.15-6.23 2.43"/><path id="Fill-12-4" data-name="Fill-12" class="cls-13" d="M123.17 299.45c-1 5-3.39 15.59-11.84 21.46-1.46-5.73-3.32-12.54-4.6-18 2.3-5.15 5.25-9.66 8-11.2 1.93.24 3.79.59 5.17.89a24.32 24.32 0 012.53 1.67c.21 1.07.53 2.85.78 5.14"/><path id="Fill-13-4" data-name="Fill-13" class="cls-15" d="M112.83 252.6v.83s.23 2.6-3 3-5.65-1-5.56-3a23.52 23.52 0 00.63-3.9 9.09 9.09 0 00-.11-1.56l6.22-.12 1.83.3v4.5"/><path id="Fill-14-4" data-name="Fill-14" class="cls-74" d="M112.86 248.11v4.51a5.28 5.28 0 01-2.25.49c-2.86 0-4.71-2.1-5.68-3.62a9.13 9.13 0 00-.11-1.56l6.23-.12 1.84.3"/><path id="Fill-15-4" data-name="Fill-15" class="cls-15" d="M113.21 250.31s-8 1.6-8.93-3.36-2.59-8.1 2.48-9.33 6.42.48 7.14 2.06 1.37 10.08-.68 10.63"/><path id="Fill-16-4" data-name="Fill-16" class="cls-13" d="M107.44 361.59a18.13 18.13 0 00-1.12-3.8c-.69-1.39-5.06-.51-5.06-.51s-.88.76-1.06 4.31h7.25"/><path id="Fill-17-5" data-name="Fill-17" class="cls-12" d="M116.12 294.31s-4.38 19.46-5.79 28.25c-.53 3.29-1.62 13.82-1.79 17.14-.24 4.56-1.74 18.52-1.74 18.52a7.29 7.29 0 00-6.33-.11s-1-6.26-1.56-19.37c-.18-3.84.57-9.62.48-11.49-.44-9.22-3.4-33.05-1.05-34.58s17.79 1.63 17.79 1.63"/><path id="Fill-18-5" data-name="Fill-18" class="cls-13" d="M115.46 235.93a16.75 16.75 0 01-4.84-1.31c-2.13-.92-4.81.09-5.68.55a1.28 1.28 0 01.21-.52 1.17 1.17 0 00-.45.66s-.06.05 0 .06a1.5 1.5 0 00-.73 0s.2 0 .27.1c-3.32 1.6-3.63 6.82-2.56 8a26.51 26.51 0 012.83 4.73 2.8 2.8 0 00.33-2.05c-.23-1.28.88-1.28 2.28-1.86s.23-2.21 1.46-3.2 5.72-.41 5.67-1.16c1.67-.61 1.24-3.94 1.24-4.11"/><path id="Fill-19-5" data-name="Fill-19" class="cls-20" d="M117.6 235.68a2.26 2.26 0 00-1.08 1.22 2.1 2.1 0 00-.1 1.88s8.44 7.65 7.89 9c-.29.73-6.83 4.56-9.55 6.13-1.12-.09-2-.09-2-.09s-1.85 5.63-8.47-.44c-1.16 1.69-10.18 5.84-8.61 13q.55 2.52 1 4.77c1.86 10.15 1.72 16.14 1.35 19.44-.28 2.58-1.35 2.84-.39 3.52a28.5 28.5 0 005.35 1.55 52.9 52.9 0 0010.36 1c6.81 0 9.39-2.3 9.39-2.3 1.8-1.76-1.76-8.69-1.48-13.7.15-2.57 0-11.36 0-15.39.33-.36 10.29-11.31 12.25-17.53a8.45 8.45 0 00.23-.9c.6-3.06-16.07-11.24-16.07-11.24"/><path id="Fill-20-5" data-name="Fill-20" class="cls-21" d="M98 290.63c.36-3.3.51-9.29-1.35-19.45q.19-.61.38-1.16a1.78 1.78 0 013.41.12c1.38 5.31 2.62 14.34-2.43 20.49"/><path id="Fill-21-5" data-name="Fill-21" class="cls-15" d="M96 285.07s4.14-2.47 5.42-2.16 4.06 1.51 3.89 2.24-3.4 1.23-4 1.14a2.79 2.79 0 00-1.84.33c-.37.31-3.3.43-3.66-.42s.15-1.14.15-1.14"/><path id="Fill-22-5" data-name="Fill-22" class="cls-20" d="M104.28 253.42s-5.09.37-7.85 2c-1.79 1-12.16 17.53-12.16 20s10.89 11 10.89 11 2 .67 2.09-2.54c0 0-5.43-8-5.15-8.94.18-.58 8.18-7 8.18-7l4-14.51"/><path id="Fill-23-5" data-name="Fill-23" class="cls-21" d="M133.38 247.81c-2 6.22-11.92 17.17-12.25 17.53a6.43 6.43 0 011.11-5.48c2-2.28 8.89-8 11.15-12.05"/><path id="Fill-24-5" data-name="Fill-24" class="cls-21" d="M102.34 254.36c0-.44 2.06-1 2.06-1a8.65 8.65 0 006.31 3.37s-1.12 2.18-2.44 2.75c0 0-5.8-2.45-5.93-5.07"/><path id="Fill-25-5" data-name="Fill-25" class="cls-21" d="M110.71 256.59s2.08-1.22 2.08-2.54c0 0 1.34-.17 1.93.48a6.78 6.78 0 01-.16 3.58s-3-.45-3.85-1.52"/><path id="Fill-28-5" data-name="Fill-28" class="cls-20" d="M102.34 253.75c0-.44 2.06-1 2.06-1a8.65 8.65 0 006.31 3.37s-1.12 2.18-2.44 2.75c0 0-5.8-2.45-5.93-5.07"/><path id="Fill-29-5" data-name="Fill-29" class="cls-20" d="M110.71 256.08s2.08-1.22 2.08-2.54c0 0 1.34-.17 1.93.48a6.78 6.78 0 01-.16 3.58s-3-.45-3.85-1.52"/><path id="Fill-31-4" data-name="Fill-31" class="cls-13" d="M92.56 361.49h-17.3a1.72 1.72 0 01-1.72-1.71v-11.57a1.72 1.72 0 011.72-1.71h17.3a1.72 1.72 0 011.72 1.71v11.57a1.72 1.72 0 01-1.72 1.71"/><path id="Fill-32-4" data-name="Fill-32" class="cls-12" d="M92.74 348.21v11.57a1.72 1.72 0 01-1.74 1.71H73.73a1.72 1.72 0 01-1.73-1.71v-11.57a1.72 1.72 0 011.72-1.71H91a1.72 1.72 0 011.72 1.71"/><path id="Fill-33-4" data-name="Fill-33" class="cls-13" d="M78.55 346.57a4.92 4.92 0 013.48-1.8 4.62 4.62 0 013.57 1.8h-.55a3.66 3.66 0 00-2.89-1.17 3.48 3.48 0 00-2.95 1.13 1.66 1.66 0 01-.66 0"/><path id="Fill-34-4" data-name="Fill-34" class="cls-13" d="M92.74 348.73v3.39a1.72 1.72 0 01-1.74 1.72H73.73a1.72 1.72 0 01-1.73-1.72v-3.39a1.72 1.72 0 011.73-1.73H91a1.72 1.72 0 011.72 1.72"/><path id="Fill-35-4" data-name="Fill-35" class="cls-12" d="M92.74 348.22v3.39a1.72 1.72 0 01-1.74 1.72H73.73a1.72 1.72 0 01-1.73-1.72v-3.39a1.72 1.72 0 011.72-1.72H91a1.72 1.72 0 011.72 1.72"/><path id="Fill-36-4" data-name="Fill-36" class="cls-13" d="M81.51 352a.51.51 0 11.51.51.51.51 0 01-.51-.51"/><path id="Fill-37-4" data-name="Fill-37" class="cls-3" d="M286.4 362h-65.42a21.72 21.72 0 0117-7.87c11.21 0 11.07-5.77 25.74-9.38a57.13 57.13 0 0012.15-4.64c8.36 3 13.81 8.62 10.56 21.92"/><path id="Fill-38-4" data-name="Fill-38" class="cls-7" d="M188.31 267.77V360a1.46 1.46 0 01-1.4 1.51h-1.4a1.34 1.34 0 01-1-.44 1.57 1.57 0 01-.41-1.07v-92.23a1.54 1.54 0 01.67-1.28 1.3 1.3 0 01.73-.22h1.4a1.46 1.46 0 011.4 1.51"/><path id="Fill-39-4" data-name="Fill-39" class="cls-21" d="M185.25 267.54v92.26a1.52 1.52 0 01-.69 1.29 1.53 1.53 0 01-.43-1.07v-92.27a1.52 1.52 0 01.69-1.28 1.54 1.54 0 01.43 1.07"/><path id="Fill-40-4" data-name="Fill-40" class="cls-7" d="M169.06 303.78l-7.81 5.24 7.08 6.18 17.53-1.1v-7.04l-16.8-3.28"/><path id="Fill-41-4" data-name="Fill-41" class="cls-86" d="M184.68 308.05a.72.72 0 00.06.64c.11.15.27.1.36-.1a.72.72 0 00-.06-.64c-.11-.15-.27-.1-.36.11"/><path id="Fill-42-4" data-name="Fill-42" class="cls-86" d="M184.68 312.23a.72.72 0 00.06.64c.11.15.27.1.36-.1a.72.72 0 00-.06-.64c-.11-.15-.27-.1-.36.11"/><path id="Fill-43-4" data-name="Fill-43" class="cls-7" d="M214.12 289.51l12.17 5.22-11.7 6.2-28.02-.97v-8.72l27.55-1.73"/><path id="Fill-44-4" data-name="Fill-44" class="cls-87" d="M214.14 289.51h1.78l12.21 5.2h-1.78l-12.21-5.2"/><path id="Fill-45-4" data-name="Fill-45" class="cls-86" d="M214.55 301.03h.94l12.54-6.22h-1.77l-11.71 6.22"/><path id="Fill-46-4" data-name="Fill-46" class="cls-86" d="M188.35 292.62a1.05 1.05 0 01-.07.85c-.14.2-.33.13-.43-.14a1.05 1.05 0 01.07-.85c.14-.2.33-.13.43.14"/><path id="Fill-47-4" data-name="Fill-47" class="cls-86" d="M188.35 297.92a1.05 1.05 0 01-.07.85c-.14.2-.33.13-.43-.14a1.05 1.05 0 01.07-.85c.14-.2.33-.13.43.14"/><path id="Fill-48-3" data-name="Fill-48" class="cls-7" d="M159.03 274.42l-12.17 5.22 11.7 6.2 28.01-.97v-8.72l-27.54-1.73"/><path id="Fill-49-3" data-name="Fill-49" class="cls-87" d="M159.01 274.42h-1.78l-12.21 5.2h1.77l12.22-5.2"/><path id="Fill-50-4" data-name="Fill-50" class="cls-86" d="M158.5 285.84h-.95l-12.53-6.22h1.77l11.71 6.22"/><path id="Fill-51-4" data-name="Fill-51" class="cls-86" d="M184.69 277.43a1.06 1.06 0 00.07.85c.14.2.33.13.43-.14a1.06 1.06 0 00-.07-.85c-.14-.2-.33-.13-.43.14"/><path id="Fill-52-4" data-name="Fill-52" class="cls-86" d="M184.69 282.83a1.06 1.06 0 00.07.85c.14.2.33.13.43-.14a1.06 1.06 0 00-.07-.85c-.14-.2-.33-.13-.43.14"/><path id="Fill-53-4" data-name="Fill-53" class="cls-87" d="M169.01 303.78H168l-8.28 5.3h1.49l7.8-5.3"/><path id="Fill-54-4" data-name="Fill-54" class="cls-86" d="M168.3 315.2h-1.36l-7.22-6.12h1.5l7.08 6.12"/><path id="Fill-55-3" data-name="Fill-55" class="cls-7" d="M191.47 351.1v10.39H181v-10.43a3.75 3.75 0 013.37-3.72h3.39a3.79 3.79 0 013.8 3.78"/><path id="Fill-56-3" data-name="Fill-56" class="cls-21" d="M187.7 351.09v10.4H181V351a3.74 3.74 0 013.35-3.73 3.78 3.78 0 013.39 3.77"/><path id="Fill-57-3" data-name="Fill-57" class="cls-21" d="M186.72 263.36V263h-.92a1.05 1.05 0 00-.65.3 1.05 1.05 0 000 1.52 1.06 1.06 0 00.76.32h.8v-.36a1.11 1.11 0 000-1.42"/><path id="Fill-58-3" data-name="Fill-58" class="cls-21" d="M188.49 254.56a3.72 3.72 0 00-2.48-.83 4 4 0 00-1.8.43 3.19 3.19 0 00-1.33 1.22 1.87 1.87 0 00-.29 1 .88.88 0 00.24.63.8.8 0 00.6.25h.81v-.51l.56-.75a1.79 1.79 0 012.23-.1 1.17 1.17 0 01.42 1 1.4 1.4 0 01-.44 1.11 3.06 3.06 0 01-1.1.53 2 2 0 00-.77.37.77.77 0 00-.19.57V261a1.17 1.17 0 00.24.76.83.83 0 00.69.3h.81v-.46a1.15 1.15 0 00.09-.24 7.13 7.13 0 00.06-1.24 3.4 3.4 0 002-1.07 3 3 0 00.73-2.08 2.93 2.93 0 00-1-2.33"/><path id="Fill-59-3" data-name="Fill-59" class="cls-7" d="M187.78 264.06a1.06 1.06 0 01-.31.77 1 1 0 01-.77.31 1.07 1.07 0 01-.77-.32 1.07 1.07 0 010-1.53 1.08 1.08 0 01.78-.31 1 1 0 01.77.31 1.06 1.06 0 01.3.77zm2.57-7.25a3.08 3.08 0 01-.73 2.1 3.4 3.4 0 01-2 1.08 7.34 7.34 0 01-.06 1.25.85.85 0 01-.9.7.83.83 0 01-.69-.31 1.18 1.18 0 01-.24-.76v-1.53a.77.77 0 01.19-.57 2 2 0 01.77-.37 3 3 0 001.1-.53 1.42 1.42 0 00.44-1.11 1.18 1.18 0 00-.42-1 1.78 1.78 0 00-2.23.1l-.61.82a.92.92 0 01-.75.44.79.79 0 01-.6-.25.89.89 0 01-.24-.63 1.9 1.9 0 01.29-1 3.2 3.2 0 011.33-1.23 3.93 3.93 0 011.81-.43 3.71 3.71 0 012.48.84 3 3 0 011 2.35z"/><path id="Fill-60-3" data-name="Fill-60" class="cls-9" d="M13 361.58l49.11.32a14.66 14.66 0 00-15.81-7.16c-7.11 1.23-9.47-.62-12.39-2.44 5.42-2 13.44-5.42 9.71-6.24-3.57-.78-8.43 2.68-11.42 5.26a14.69 14.69 0 00-2.08-.88c6.41-6 18.46-17.86 13.13-18.2s-11.84 11.44-15 17.72c-.36-.07-.74-.13-1.14-.19a8.38 8.38 0 00-4.54.69c-.69-2.61-2-5.59-3.68-5s.22 3.63 2 5.9C16 354.66 13 361.58 13 361.58"/></g></g></g></g></svg>