<svg width="1600" height="175" xmlns="http://www.w3.org/2000/svg"><g fill="none" fill-rule="evenodd"><path d="M809.37 174.898s-36.961-78.6 35.886-78.6c38.49 0 22.634-21.566 48.802-46.524 26.168-24.958 117.683-44.898 137.161 3.297 19.478 48.194-28.659 84.786 17.856 78.509 55.896-7.543 77.978 43.318 77.978 43.318H809.37" fill-opacity=".6" fill="#FBECDB"/><path d="M1108.703 166.196c-3.448-2.518-10.496-.818-15.696 1a23.742 23.742 0 00-2.86-3.313c11.204-7.212 26.68-22.592 18.478-23.894-7.13-1.131-16.753 12.712-21.895 21.139-5.34-3.59-13.522-6.228-26.014-5.313-32.422 2.375-57.751-18.522-76.422-11.552-14.844 5.541-28.449 8.646-41.569 7.585.565-9.577.688-28.38-6.838-30.33-7.641-1.98-.146 19.374 4.019 30.037a60.33 60.33 0 01-2.925-.449c-2.698-5.313-7.143-12.268-12.023-12.505-4.596-.225 1.076 6.028 6.658 11.325-16.044-3.366-35.077 9.666-35.392 25.074h200.308s-.354-2.25-1.925-5.214c7.742-.152 17.842-.855 14.096-3.59" fill="#A8D29F"/><path fill="#4A75CB" d="M887.141 175H939.9v-11.925h-52.758z"/><path fill="#699DEE" d="M870.814 175h52.758v-11.925h-52.758z"/><path fill="#D86713" d="M960.717 175h39.288v-54.936h-39.288z"/><path fill="#F1A34F" d="M948.573 175h39.288v-54.936h-39.288z"/><path fill="#C95C12" d="M987.861 120.064l12.144 8.256v-8.256H987.86"/><path d="M866.44 132.228s-7.348 5.46-8.781 5.128c-1.433-.33 5.37-5.893 5.37-5.893-2.56-1.23-10.518-.458-10.518-.458s-2.65 8.54-3.958 7.866c-1.307-.673 2.733-7.442 2.733-7.442-2.851-.172-6.348 1.944-6.348 1.944-4.788 3.776.314 9.724.314 9.724s-.982 2.938-4.006 5.616c0 0-4.318 3.19-4.618 8.891l.784.07s1.243-5.31 3.5-7.82c.088-.092.216-.222.373-.38.368-.34.626-.597.799-.786 1.124-1.08 2.676-2.453 3.425-2.586 0 0-.038-.137-.032-.376l.032.376c.256 3.005 6.092 5.63 9.683 6.17 3.59.54 2.48-.935 1.244-3.12-1.238-2.187-5.153-3.166-6.046-4.173-.893-1.006.953-1.009 3.117-.022 2.163.987 2.46 3.62 5.93 5.28 3.47 1.66 8.692-4.093 8.692-4.093-2.765-.14-6.715-3.141-6.572-4.059.143-.919 6.704 1.584 7.826 1.704 1.122.12 3.674-1.274 4.069-5.787.395-4.514-7.012-5.774-7.012-5.774" fill="#82B378"/><path d="M827.415 135.653s8.116-4.54 4.329-10.7c0 0-3.03-3.783-6.276-4.755 0 0 1.73 9.186 0 9.403-1.732.216-1.19-10.376-1.19-10.376s-8.55-4.107-11.904-3.782c0 0 5.302 8.97 3.571 8.754-1.731-.217-7.683-9.295-7.683-9.295s-8.765-1.622-10.171 3.567c-1.407 5.187.865 7.782 2.164 8.105 1.298.325 9.63.217 9.414 1.298-.216 1.08-5.843 2.81-8.981 1.837 0 0 3.462 8.538 8.007 8.106 4.545-.432 5.952-3.242 8.765-3.459 2.814-.216 4.87.54 3.463 1.297-1.407.756-6.168.248-8.44 2.177-2.273 1.93-4.112 3.12.108 3.983 4.22.865 11.795.325 13.31-2.918l1.514-3.242" fill="#A8D29F"/><path d="M829.61 143.534c-2.272-4.218-2.164-7.894-2.164-7.894-2.596-8.222-25.31-15.576-25.31-15.576 28.88 11.681 23.796 18.82 23.796 18.82.778.454 1.945 2.618 2.755 4.28.115.282.298.673.569 1.205.11.239.198.436.259.573 1.486 3.72.699 10.145.699 10.145l.9.242c1.998-6.475-1.505-11.795-1.505-11.795" fill="#82B378"/><path d="M840.302 129.293s-10.71-5.985-5.712-14.108c0 0 3.999-4.988 8.283-6.27 0 0-2.285 12.113 0 12.397 2.285.286 1.57-13.68 1.57-13.68s11.283-5.415 15.71-4.987c0 0-6.998 11.827-4.713 11.543 2.285-.286 10.14-12.256 10.14-12.256s11.568-2.137 13.424 4.703c1.857 6.84-1.142 10.26-2.856 10.687-1.714.428-12.71.286-12.425 1.711.286 1.424 7.712 3.705 11.854 2.422 0 0-4.57 11.258-10.568 10.688-5.998-.57-7.855-4.275-11.568-4.56-3.713-.285-6.427.712-4.57 1.71 1.857.998 8.14.327 11.14 2.87 2.998 2.545 5.426 4.113-.144 5.252-5.569 1.141-15.566.428-17.565-3.847l-2-4.275" fill="#A8D29F"/><path d="M873.773 108.853s-29.997 9.693-33.425 20.527c0 0 .143 4.846-2.857 10.406 0 0-4.626 7.01-1.989 15.543l1.19-.319s-1.04-8.467.924-13.37c.08-.18.196-.44.341-.756.359-.7.6-1.216.752-1.588 1.07-2.189 2.611-5.042 3.639-5.64 0 0-6.714-9.407 31.425-24.803" fill="#82B378"/><path d="M839.945 173.879c11.582 0 20.97-9.4 20.97-20.996h-41.94c0 11.596 9.388 20.996 20.97 20.996" fill="#F1A34F"/><path d="M845.2 173.72c-.852.105-1.722.159-2.605.159-11.58 0-20.967-9.401-20.967-20.996h5.209c0 10.713 8.012 19.55 18.363 20.836" fill="#FFB973"/><path d="M858.633 172.35h-37.375c-1.43 0-2.59 1.14-2.59 2.548h42.554c0-1.407-1.16-2.548-2.59-2.548" fill="#F1A34F"/><path d="M861.105 152.883h-42.421a.314.314 0 00-.322.306c0 .169.144.305.322.305h42.42a.314.314 0 00.322-.305.314.314 0 00-.321-.306" fill="#D86713"/><path d="M1022.947 42.592c-.608-.093-2.442 1.602-2.442 1.602-3.915.452-9.64 1.491-11.7 1.887-1.462.282-5.39-1.057-9.228-2.594-4.564-1.829-8.999-3.939-8.999-3.939-2.532-.129-5.408 4.49-.272 7.426.784.448 3.73 1.213 7.122 1.912 4.68.963 10.209 1.8 12.09 1.506 2.186-.342 8.373-2.605 12.054-4.337l.009-.004.04-.02c.222-.103 1.122-.504 1.724-.469.69.041 2.226-1.22 2.273-1.557.046-.336-2.062-1.321-2.67-1.413" fill="#ED975D"/><path d="M1018.169 100.568l-2.152.437s-9.846-11.046-11.365-15.694c-.813-2.484-6.011-3.557-11.445-4.96-4.727-1.22-9.633-2.69-11.975-5.56-5.037-6.165 3.161-13.74 3.161-13.74s8.718 5.173 16.238 10.516c5.255 3.735 9.927 7.553 10.631 9.747 1.71 5.336 5.335 15.478 6.907 19.254" fill="#2B478B"/><path d="M1015.273 104.254h1.21c.404-.063.703-.18 1.118-.234.632-.083.922.175.979.234l.012.012h5.135c.129-.184.005-.61-.116-.924a.727.727 0 00-.48-.438c-.545-.157-1.619-.297-2.603-1.185-.552-.498-2.67-1.833-2.67-1.833l-.011-.002c-.047 0-.268.068-1.232.88-.497.418-1.347-.592-1.347-.592s-.16.132-.278.377a1.274 1.274 0 00-.11.786c.076.461-.17 1.319-.369 1.899-.119.352-.22.6-.22.6s-.058.29.982.42" fill="#233862"/><path d="M1000.617 71.603l-7.418 8.813c-4.725-1.224-9.628-2.7-11.968-5.579-5.033-6.185 3.16-13.786 3.16-13.786s8.711 5.19 16.226 10.552" fill="#1E3D70"/><path d="M993.882 67.042s-.6 1.886-1.577 4.724c-1.236 3.588-3.075 8.697-5.07 13.435a115.605 115.605 0 01-1.335 3.05c-1.66 3.646-3.358 6.771-4.854 8.36-2.688 2.855-9.22 21.21-9.22 21.21l-1.63-.448s-2.27-15.674 5.771-24.594a.561.561 0 00.163-.333l.001-.003c.108-1.32.49-7.233 1.323-13.224.205-1.47.437-2.943.696-4.355l.051-.27c1.222-6.528 2.393-9.432 3.905-10.893l11.776 3.341" fill="#2B478B"/><path d="M970.068 120.052h1.21c.404-.063.703-.18 1.118-.235.631-.082.92.175.978.235l.012.012h5.134c.13-.185.005-.61-.116-.924a.73.73 0 00-.48-.438c-.545-.158-1.618-.297-2.602-1.185-.553-.498-2.67-1.833-2.67-1.833l-.011-.003c-.047.002-.268.07-1.232.88-.497.42-1.346-.59-1.346-.59s-.16.13-.278.375c-.096.194-.166.46-.111.788.077.46-.17 1.318-.367 1.898-.12.352-.222.6-.222.6s-.057.29.983.42" fill="#233862"/><path d="M972.393 45.669s-1.854 4.53-3.992 8.94c-1.799 3.708-3.797 7.33-5.064 8.103-1.786 1.09-6.708 4.164-9.9 6.458 0 0-2.492-.02-2.88.457-.386.477-1.28 2.617-1.018 2.833.261.217 2.241.116 2.722-.376.42-.43 1.354-.739 1.587-.81l.043-.014.01-.003c3.879-1.192 9.965-3.675 11.807-4.89 1.586-1.045 5.102-5.37 7.906-9.22h.002c2.033-2.79 3.692-5.331 3.969-6.187 1.816-5.61-3.41-7.085-5.192-5.291" fill="#FFB27D"/><path d="M982.159 27.92a9.353 9.353 0 00-.666-.856c.275.005.573-.021.82-.123.654-.268.951-2.33.853-2.941-.098-.611-1.005-2.38-2.123-2.555-1.12-.177-2.274 1.058-2.274 1.058.207-.891 2.098-1.405 2.098-1.405-3.897.714-3.698 3.3-3.672 3.538-3.567-1.264-5.661 5.417-5.661 5.417l9.241 5.416s.024-1.476.906-1.38c1.375.148 2.52-3.21.478-6.17" fill="#2C3A64"/><path d="M982.733 41.945c-2.11 1-4.911-.44-4.897-.456.181-.182.118-.726-.048-1.438-.166-.743-.558-1.758-1.282-2.97-.15-.257-.3-.515-.482-.787l.241-.091 4.1-1.651s.664 1.196 1.358 2.287c.588.91 1.206 1.727 1.477 1.697.016-.015 2.729 1.863-.467 3.409" fill="#FFB27D"/><path d="M980.31 34.96c-.106 1.47-.605 4.125-2.59 5.095-.167-.743-.56-1.76-1.288-2.972l3.878-2.124" fill="#ED975D"/><path d="M976.2 38.804s5.355-2.116 3.989-5.437c-1.366-3.322-1.595-5.832-5.071-4.622-3.477 1.21-3.617 2.75-3.43 3.97.187 1.22 3.083 6.553 4.511 6.089" fill="#FFB27D"/><path d="M978.24 32.558c2.47-.35 3.192-1.354 3.192-1.354s-2.275-.656-3.612-2.896c0 0-2.778-.941-4.837.632a1.381 1.381 0 00-.26.583c-.472-.155-1.181-.114-1.59 1.225-.615 2.013 1.572 4.211 1.572 4.211.53-.15-.068-1.944-.152-2.902-.061-.704.318-1.606.522-2.034.261.341 2.869 3.634 6.052 3.765 0 0-1.683-.586-3.213-1.733.762.376 1.57.61 2.325.503" fill="#2C3A64"/><path d="M992.883 48.775c-.046-.16-.094-.325-.145-.495.796-1.516 1.188-2.883 1.353-4.04.364-2.443-.257-3.952-.257-3.952s-3.72-1.965-5.363-2.215l-.02-.006a.938.938 0 00-.066-.006c-1.658-.228-5.25.502-5.25.502s.694 1.836-1.26 3.06-4.04-.313-4.04-.313c-.063.042-.13.088-.198.137h-.002s-5.14 3.378-5.6 4.15c-.463.772-2.44 4.594-2.44 4.594s.627 3.208 7.571 3.477c.572 1.379 1.01 2.724 1.15 3.846.552 4.355-.088 7.791.555 10.334.643 2.542 12.23 1.092 14.328.603 2.099-.49 1.626-2.72 1.788-4.888.203-2.724-1.42-12.385-2.104-14.788" fill="#699DEE"/><path d="M994.086 44.22c-.166 1.17-.557 2.555-1.357 4.091-.181-.806-.92-3.757-2.112-5.096 0 0 2.006.183 3.47 1.004" fill="#4A82D3"/><path d="M947.065 72.793s2.16-2.622 2.625-2.932c.465-.31 2.504-.853 2.62-.744.118.11.123.268-.13.492-.252.223-1.218.788-1.08.851.139.064 3.048-1.388 3.469-.9.42.488-.239 2.504-1.36 3.47-1.12.966-4.47 1.378-4.679 1.513-1.786 1.144-1.465-1.75-1.465-1.75" fill="#ED975D"/><path d="M909.081 66.807s3.088 3.655 7.017 2.126c0 0 .847-2.04.858-3.546l.007-.535c.02-1.694.078-2.645.078-2.645h-.004c-.178-.075-6.009-2.463-6.004-2.265.1 4.582-1.952 6.865-1.952 6.865" fill="#F09D64"/><path d="M911.636 60.992c.56 1.044 2.484 3.085 5.327 3.83.02-1.7.078-2.653.078-2.653h-.004c-.161-.044-5.567-1.484-5.4-1.177" fill="#ED975D"/><path d="M918.264 61.99s-6.573 1.544-7.472-2.561-2.353-6.67 1.805-7.83c4.159-1.16 5.32.228 5.953 1.525.634 1.298 1.4 8.358-.286 8.866" fill="#F09D64"/><path d="M911.09 60.51c-.09.057-1.5.492-4.172-4.843-.42-.837-.705-2.648.273-4.249.977-1.6 4.444-2.859 7.324-3.406 2.88-.548 3.57 1.076 4.248 2.709.712 1.713 2.768 3.124 2.768 3.124-2.482 1.39-5.474-.598-6.51-.271-1.037.327-1.402 1.963-1.48 2.488-.078.525-.197.96-1.5.492-1.303-.469-.59 1.85-.381 2.294 0 0 .177 1.182-.57 1.662" fill="#A9453D"/><path d="M894.159 163.075h-3.982c-.835 0-1.762-.849-1.995-2.402-.232-1.555-1.948-2.403-2.319-3.676-.372-1.27 1.531-3.062 1.531-3.062l.65-.848 3.153.753s.078.763.127 1.735c.034.701.052 1.513.013 2.223-.093 1.697.467 3.522 1.951 3.853 1.485.33.87 1.424.87 1.424M921.837 163.075h-10.6a.864.864 0 01-.225-.067c-.708-.363-.486-3.138-.402-3.995.017-.16.03-.253.03-.253s3.727-3.053 4.239-.714c.017.071.035.143.055.214v.001c.647 2.188 3.54 3.182 5.212 3.46 1.276.212 1.607.974 1.691 1.354" fill="#2C3A64"/><path d="M919.694 102.181s-.562 7.021-1.224 15.46c-.899 11.466-1.979 25.548-2.085 28.216-.185 4.632-.926 12.042-.926 12.042s-1.759 1.761-5.278 1.018c0 0-3.136-10.577-4.03-21.77-.015-.184-.03-.368-.042-.553-.834-11.394-2.13-35.385-2.13-35.385l15.715.972" fill="#EE9849"/><path d="M919.694 102.08s-.562 7.03-1.224 15.477l-12.32 19.528-.041-.554c-.834-11.406-2.13-35.424-2.13-35.424l15.715.974" fill="#E58638"/><path d="M917.143 102.943s-10.164 25.442-16.848 37.399c-6.683 11.956-8.772 15.293-8.772 15.293s-3.83-1.529-4.177-2.572c0 0 2.555-23.083 7.031-28.71 2.53-3.179 5.5-12.72 5.64-16.058.139-3.336.904-9.94.904-9.94l16.222 4.588" fill="#EE9849"/><path d="M893.877 98.688s-.265 3.166-.458 3.652c-.194.486-1.484 1.993-1.634 1.971-.15-.022-.238-.14-.163-.447.076-.306.52-1.254.38-1.23-.141.025-1.618 2.694-2.206 2.543-.588-.15-1.163-2.048-.813-3.388.35-1.34 2.725-3.445 2.816-3.661.769-1.832 2.078.56 2.078.56" fill="#ED975D"/><path d="M892.823 99.495c1.122.36 1.302.279 1.302.279s5.46-9.95 6.014-10.86c.553-.912 11.596-11.158 11.596-11.158l-2.838-10.59s-12.559 16.275-13.915 18.61c-2.241 3.86-3.555 12.822-3.555 12.822s.515.614 1.396.897" fill="#1E3D70"/><path d="M921.824 81.958c-.039 2.178-.166 4.625-.337 7.112l-.031.442c-.109 1.54-.227 3.084-.363 4.589-.054.604-.112 1.2-.173 1.786l-.009.08c-.004.218-.031.456-.055.673-.555 5.639-1.136 10.094-1.243 10.162a.625.625 0 01-.432.11c-1.477-.186-5.885.15-9.491-.636-3.045-.643-5.667-1.862-8.445-3.505-.368-.218-1.209-.796-1.14-1.228.067-.475.191-1.16.35-2.023.546-3 1.49-8.158 1.813-14.196a63.39 63.39 0 01.273-3.327c.31-2.845.806-5.547 1.472-7.947 1.236-4.46 3.054-7.874 5.334-9.21.298-.167 1.902.855 3.374 1.8 1.36.873 2.792 1.115 4.184.993l1.225 1.357c1.485 1.727 3.065 4.026 3.496 7.294.032.242.06.498.083.77.12 1.332.15 3.017.115 4.904" fill="#2A4E96"/><path d="M921.824 81.923c-.039 2.18-.165 4.632-.336 7.122l-.032.442c-8.424-5.294-9.721-14.982-9.721-14.982 4.144.183 7.437 1.14 9.974 2.507.12 1.333.15 3.021.115 4.91" fill="#1E3D70"/><path d="M948.34 73.113c-.435-1.176-1.112-1.1-1.112-1.1s-12.556 3.124-13.683 3.259c-1.125.134-13.519-4.833-13.519-4.833s-4.877-2.186-7.162-.19c-1.986 1.735-2.076 3.932-1.612 5.777.554 2.2 2.417 3.824 4.67 4.11 5.056.644 15.144 1.854 17.257 1.56 4.706-.654 15.369-6.8 15.369-6.8s.133-.86-.208-1.783" fill="#2A4E96"/><path d="M1072.135 96.059s1.74 1.607 1.401 2.75c-.34 1.142-1.912 1.903-2.124 3.3-.212 1.396-1.061 2.157-1.826 2.157h-3.645s-.564-.982.796-1.278c1.36-.297 1.871-1.937 1.786-3.46-.084-1.523.128-3.554.128-3.554l2.889-.677.595.762M1050.466 104.075c-.177.089-.802.15-1.659.191h-8.29c.03-.245.222-1.121 1.578-1.339 1.531-.248 4.183-1.134 4.774-3.086.02-.062.037-.126.052-.19.469-2.086 3.886.637 3.886.637l.025.226c.08.766.282 3.239-.366 3.561" fill="#2C3A64"/><path d="M1042.456 48.388s.518 6.44 1.128 14.181c.829 10.516 1.826 23.433 1.924 25.88.17 4.25.854 11.046.854 11.046s1.62 1.615 4.867.935c0 0 2.89-9.703 3.716-19.97.013-.168.027-.337.038-.507.769-10.45 1.964-32.457 1.964-32.457l-14.49.892" fill="#35488B"/><path d="M1042.456 48.39s.518 6.45 1.128 14.205l11.361 17.923c.013-.168.027-.338.038-.508.769-10.47 1.964-32.514 1.964-32.514l-14.49.893" fill="#2C3A64"/><path d="M1044.803 49.152s9.33 23.315 15.463 34.271c6.135 10.957 8.05 14.014 8.05 14.014s3.516-1.401 3.836-2.357c0 0-2.346-21.152-6.454-26.308-2.322-2.914-5.048-11.657-5.176-14.715-.127-3.058-.831-9.11-.831-9.11l-14.888 4.205" fill="#35488B"/><path d="M1016.074 36.53s-2.536-.58-2.964-.55c-.426.029-1.92.653-1.94.774-.02.12.05.219.31.236.258.018 1.106-.091 1.053.012-.054.102-2.501.583-2.527 1.075-.028.491 1.313 1.405 2.445 1.467 1.133.06 3.36-1.253 3.55-1.27 1.62-.141.073-1.744.073-1.744" fill="#B47549"/><path d="M1014.987 37.19c-.364-1.153-.279-1.337-.279-1.337s10.25-5.535 11.187-6.096c.939-.561 11.53-11.819 11.53-11.819l10.848 2.983s-16.788 12.773-19.194 14.148c-3.975 2.273-13.182 3.56-13.182 3.56s-.627-.532-.91-1.438" fill="#E58638"/><path d="M1040.721 12.394s-3.784 6.707-7.484 7.583c0 0 .154-2.253 1.055-3.794a42.44 42.44 0 01-.974-1.201c-.93-1.202-1.373-1.938-1.373-1.938l1.255-3.4.852-2.306c.41.749.86 1.387 1.331 1.932 2.425 2.808 5.338 3.124 5.338 3.124" fill="#A16942"/><path d="M1035.383 9.276s.452 3.358-2.065 5.707c-.93-1.201-1.373-1.936-1.373-1.936l1.255-3.397c1.347-.413 2.183-.374 2.183-.374" fill="#975B33"/><path d="M1030.935 13.628s5.682-2.219 4.248-5.742c-1.434-3.523-1.666-6.183-5.354-4.915-3.688 1.268-3.84 2.898-3.647 4.191.192 1.293 3.24 6.952 4.753 6.466" fill="#A16942"/><path d="M1060.262 46.754c-2.29 3.292-19.408 7.691-19.206 5.412a24.6 24.6 0 00-.002-4.495 28.923 28.923 0 00-.182-1.553c-.435-2.994-1.468-6.844-3.772-11.3-.172-.335-.353-.671-.54-1.012a34.83 34.83 0 01-2.373-5.334c-1.186-3.428-1.664-6.708-1.065-8.852l.009-.03c3.579-1.655 4.966-8.073 4.966-8.073s12.207 2.192 19.046 18.467c0 0 5.11 13.904 3.119 16.77" fill="#EE9849"/><path d="M1040.984 47.598a28.929 28.929 0 00-.18-1.55c-.433-2.989-1.462-6.831-3.756-11.28.394-2.393.937-4.384 1.534-5.28 2.424-3.642 3.837-4.211 3.837-4.211s3.635 15.37-1.435 22.32" fill="#E58638"/><path d="M1021.773 44.03s-3.393.176-3.92.363c-.524.186-2.176 1.486-2.158 1.643.019.156.142.253.473.184.329-.07 1.358-.504 1.326-.357-.03.146-2.931 1.603-2.79 2.222.144.619 2.154 1.28 3.598.957 1.444-.323 3.77-2.737 4.004-2.824 1.982-.746-.533-2.188-.533-2.188" fill="#B47549"/><path d="M1021.18 45.284c-.676-1.094-.187-1.594-.187-1.594s10.43-8.179 11.247-9.005c.818-.826 4.605-13.984 4.605-13.984s1.303-5.325 4.356-5.912c2.652-.51 4.486.804 5.686 2.345 1.428 1.836 1.57 4.369.382 6.37-2.662 4.496-8.035 13.417-9.603 14.941-3.492 3.393-15.174 8.133-15.174 8.133s-.78-.434-1.311-1.294" fill="#EE9849"/><path d="M1035.967 1.328c.04-.079.156-.163.436-.25 0 0-.263-.088-.57-.02-.16-.39-.548-1.053-1.275-1.058 0 0 .417.109.571.526-.995-.632-2.841-.815-7.45.722-6.074 2.025-3.04 5.554-2.12 5.837.922.283 2.617-1.533 4.14-1.78 1.525-.249 2.35 1.877 2.93 2.053.581.176.25-.307.86-.792.608-.484.957.656.944 1.456-.013.8 1.173 1.559 1.173 1.559l.697-1.278c.695-1.278.505-5.917-.16-6.751a21.795 21.795 0 00-.176-.224" fill="#2B478B"/><path fill="#4271BC" d="M939.9 162.973v6.829l-16.328-6.829h16.327"/><path fill="#4A75CB" d="M1025.414 174.898h53.88v-70.632h-53.88z"/><path fill="#699DEE" d="M1008.78 174.898h53.881v-70.632h-53.88z"/><path fill="#4271BC" d="M1079.295 104.266v10.6l-16.634-10.6h16.634"/><g><path d="M1494.653 174.32s46.21 5.575 60.92-15.518c19.085-27.365-20.124-48.114-50.194-44.248-65.527 8.424-64.706-115.992-153.51-45.232-23.492 18.72-55.158-14.855-93.496 26.585-8.96 9.684-63.718-9.034-90.97-1.37-53.334 15-28.947 80.036 9.162 80.29 38.11.256 318.088-.507 318.088-.507" fill-opacity=".6" fill="#EBF2F9"/><path fill="#A6C7F9" d="M1442.417 174.702h51.895V49.522h-51.895z"/><path fill="#699DEE" d="M1442.37 174.702h9.252V49.522h-9.252z"/><path fill="#D2E4FF" d="M1453.885 174.702h51.896V49.522h-51.896z"/><path fill="#A6C7F9" d="M1494.436 174.702h9.629V49.522h-9.629z"/><path d="M1402.92 173.397c-.086 1.062-1.586 1.063-3.286.852-1.7-.21-6.833-.537-6.945-.88-.101-.301 1.048-.547 2.278-.837l.465-.111a6.256 6.256 0 003.503-2.266c1.034-1.323 1.979-7.35 1.979-7.35l3.723.694s-2.167 5.165-2.389 6.86c-.1.76.441 1.267.568 1.932.067.363.134.732.104 1.106" fill="#B77446"/><path d="M1402.92 173.397c-.086 1.062-1.586 1.063-3.286.852-1.165-.144-1.32.015-2.07.134h-2.99c-1.3-.224-1.8-.75-1.885-1.013-.101-.302 1.048-.548 2.278-.838l.015.023s1.528.834 3.491.652c1.601-.15 3.238-.804 4.343-.916.067.363.134.732.104 1.106M1399.59 167.145s.975.645 1.893.811c1.376.25 2.015-.027 2.015-.027s6.615-16.601 6.238-22.212a7.008 7.008 0 01-.016-.43c-.01-.973.13-2.27.371-3.762.089-.548.192-1.122.306-1.715.265-1.383.594-2.875.955-4.396.158-.67.324-1.346.492-2.021 1.663-6.637 3.696-13.178 3.696-13.178s-11.94-3.898-12.615-.255c-.26 1.398-1.122 6.992-.733 15.545.313 6.885.11 12.256-.485 18.489-.523 5.473-1.418 10.181-2.117 13.151" fill="#365DA4"/><path d="M1409.72 145.287c-.01-.973.13-2.27.371-3.762.089-.548.192-1.122.306-1.715.265-1.383.594-2.875.955-4.396.158-.67.324-1.346.492-2.021-.236-2.025-.426-3.415-.426-3.415s-4.956 6.729-1.698 15.31" fill="#285493"/><path d="M1417.982 173.397c-.086 1.062-1.585 1.063-3.285.852-1.701-.21-6.834-.537-6.946-.88-.101-.301 1.049-.547 2.279-.837l.465-.111c1.387-.342 2.31-1.37 3.502-2.266 1.128-.848.34-4.962.34-4.962l3.501-1.25s-.528 4.139-.528 6.416c0 .766.441 1.267.568 1.932.067.363.135.732.104 1.106" fill="#B77446"/><path d="M1417.982 173.397c-.086 1.062-1.585 1.063-3.285.852-1.165-.144-1.322.015-2.07.134h-2.99c-1.301-.224-1.8-.75-1.886-1.013-.101-.302 1.049-.548 2.279-.838l.014.023s1.528.834 3.492.652c1.6-.15 3.237-.804 4.342-.916.067.363.135.732.104 1.106M1408.348 118.915s3.885 19.348 4.54 29.877a688.077 688.077 0 001.476 19.248s.847.305 1.82.25c1.027-.06 1.841-.376 1.841-.376s3.85-15.842 2.575-22.184c-1.275-6.34-.213-12.19.399-17.45.878-7.543-2.5-11.048-4.857-13.438-2.386-2.418-7.794 4.073-7.794 4.073" fill="#365DA4"/><path d="M1405.595 83.48c-.386-3.15.598-8.19 6.89-7.385 6.29.805 8.273 6.984 7.004 9.731-1.269 2.747 1.827 3.41 2.798 6.364.835 2.538 1.126 5.689 2.476 7.103 4.356 4.56-4.18 11.57-9.326 10.092-9.374-2.693-10.58-3.094-10.248-10.454.17-3.771 3.106-5.232 1.242-6.323-4.503-2.636.038-2-.836-9.128" fill="#AA443E"/><path d="M1407.5 93.595l1.86 2.79 3.749-.185 1.733-4.474s-.535-.1-.783-5.68l-4.68 1.427s.249 1.455-.083 3.038c-.231 1.105-.737 2.283-1.796 3.084" fill="#D9935C"/><path d="M1406.978 91.627c.24 0 4.649-1.474 10.943 1.088 0 0-2.989 17.085-1.704 20.346 1.283 3.26 1.771 6.155 1.771 6.155l-13.925.172s.194-11.192-.447-15.153c-.642-3.961 3.362-12.608 3.362-12.608" fill="#D9935C"/><path d="M1417.912 111.728a5.883 5.883 0 01-.16-.864c-.183-2.062.128-3.744.646-5.393a.008.008 0 00.002-.006l.025-.077a2.77 2.77 0 00.052-.196l.002-.007c.02-.079.042-.173.067-.28l.024-.113c.359-1.604 1.145-5.633 1.352-6.182a5.34 5.34 0 00.213-.88c.21-1.213.304-3.143-.405-3.95-.985-1.121-4.368-1.927-4.368-1.927-.688 1.077-3.017 3.711-5.94 3.23-1.69-.28-1.95-3.565-1.95-3.565-1.816.25-2.28.526-2.28.526s-4.354 2.714-10.504 11.356c-.195.275-.659.243-1.795.024-1.446-.282-4.396-.245-8.848-.898 0 0-.153.11-.195.597-.092 1.074-.2 1.392-.2 1.392s2.932 1.381 6.05 2.368c1.103.349 2.256.676 3.356.922 1.025.229 2.004.388 2.855.428 0 0 3.554-1.365 6.997-5.156.2 3.182.644 7.292.371 10.294-.155 1.709-1.325 7.458-1.031 8.415.612 1.993 5.309 2.096 9.504 1.888.091-.004.182-.01.274-.016.65-.036 1.29-.094 1.885-.16 1.124-.125 2.099-.29 2.733-.436.818-.186 1.845-.456 2.682-.859.64-.309 1.168-.697 1.4-1.186-.403-2.17-2.346-6.893-2.814-9.289" fill="#80BDCC"/><path d="M1408.774 117.249c.794 2.693 1.256 4.91 3.252 6.41.65-.037 1.29-.095 1.885-.16a26.148 26.148 0 002.733-.436c.818-.187 1.845-.457 2.682-.86.64-.309 1.168-.697 1.4-1.186-.403-2.17-2.346-6.893-2.814-9.289a5.532 5.532 0 01-.092-.628c-.174-2.146.105-3.91.578-5.63a.008.008 0 00.002-.005l.077-.273.002-.007a6.43 6.43 0 00.067-.28l.024-.113c.32-1.52 1.158-6.289 1.371-6.911.068-.197.143-.534.21-.95l-1.677-1.612s-9.62 4.105-11.739 9.767c-2.12 5.662.898 8.299 2.039 12.163M1389.7 106.883c2.129.674 4.447 1.266 6.21 1.35 0 0 3.602-1.382 7.066-5.23.146-.655.287-1.752-.505-1.436-1.113.445-5.226 5.722-6.783 5.833-1.114.079-4.28-.297-5.988-.517" fill="#5F9AA8"/><path d="M1397.297 105.379s4.742 2.38 8.853 3.366c1.183.282 2.323.483 3.295.53 0 0 4.514-1.294 7.795-6.083 6.067-8.855 1.485-10.107 1.485-10.107s-4.353 2.714-10.502 11.357c-.216.302-.756.234-2.155-.049-1.493-.3-4.467-.265-8.573-.868 0 0-.069.153-.11.64-.093 1.073-.088 1.214-.088 1.214" fill="#80BDCC"/><path d="M1392.893 103.424c-1.43-.279-4.474-.301-8.853-.935a7.635 7.635 0 01-1.087-.43c-.938-.469-3.44-.781-3.973-.281-.532.5.564 2.532 2.847 2.594.8.022 1.4.082 1.842.152.241.112 3.05 1.415 6.031 2.359 1.103.349 2.256.676 3.356.922.442-1.964.137-3.494-.163-4.381" fill="#A86337"/><path d="M1409.296 90.511c1.934-.156 4.763-4.465 4.763-4.465l-4.68 1.427s.249 1.455-.083 3.038" fill="#CC7C46"/><path d="M1408.153 87.79s5.603 1.124 6.25-2.374c.648-3.498 1.807-5.709-1.744-6.575-3.55-.866-4.495.34-4.994 1.455-.5 1.116-.953 7.11.488 7.493" fill="#D9935C"/><path d="M1410.891 77.968s-.098 1.186 1.745 3.2c1.843 2.013 1.403 5.602 1.403 5.602s3.106-5.834 1.449-7.697c-1.656-1.862-4.597-1.105-4.597-1.105" fill="#AA443E"/><path d="M1413.145 76.424s-2.786-.931-5.551 1.79c-1.19 1.174-1.011 3.479-.373 4.817 0 0 .98-2.867 2.763-3.492 1.782-.625 3.16-3.115 3.16-3.115" fill="#AA443E"/><path d="M1409.898 86.068s-.149.415-1.204.227c0 0-.886-.158-.804-.624 0 0 .903-.234 2.008.397" fill="#FFF"/><path fill="#A6C7F9" d="M1391.063 95.467l-11.93.268 2.738 16.566 12.078.392-2.886-17.226"/><path d="M1406.15 108.745c-.902-1.785-.55-3.344-.082-4.352-1.493-.3-4.489-.431-8.593-1.034l-.001.007c-.443-.118-1.097-.318-1.683-.611-1.001-.5-3.673-.834-4.24-.3-.568.533.6 2.702 3.039 2.77 1.35.036 2.166.175 2.627.293.406.186 5.006 2.286 8.933 3.227M1576.657 173.544c-.086 1.076-10.25.319-10.364-.027-.102-.306 1.063-.555 2.309-.85.156-.035.313-.074.47-.111a6.337 6.337 0 003.548-2.296c1.048-1.34 2.004-7.445 2.004-7.445l3.773.704s-2.196 5.232-2.422 6.948c-.1.77.447 1.284.576 1.958.069.366.137.74.106 1.12" fill="#B77446"/><path d="M1576.657 173.544c-.035.44-.31.7-.739.839h-2.805c-.495-.05-.788-.038-1.045 0h-4.533c-.826-.262-1.171-.652-1.242-.866-.102-.306 1.063-.555 2.309-.85l.014.024s1.548.845 3.538.66c1.62-.15 3.278-.814 4.397-.926.069.366.137.74.106 1.12M1573.284 167.211s.988.653 1.917.823c1.394.253 2.04-.029 2.04-.029s6.702-16.815 6.32-22.497a8.127 8.127 0 01-.016-.436c-.012-.985.13-2.3.375-3.812.091-.554.194-1.134.31-1.735.27-1.401.602-2.913.968-4.454.16-.678.327-1.363.498-2.046 1.686-6.723 3.744-13.349 3.744-13.349s-12.094-3.947-12.778-.258c-.262 1.416-1.136 7.082-.743 15.745.318 6.975.112 12.414-.49 18.727-.53 5.545-1.437 10.314-2.145 13.321" fill="#365DA4"/><path d="M1583.545 145.072c-.012-.985.13-2.3.375-3.812.091-.554.194-1.134.31-1.735.27-1.401.602-2.913.968-4.454.16-.678.327-1.363.498-2.046-.239-2.051-.431-3.46-.431-3.46s-5.021 6.816-1.72 15.507" fill="#285493"/><path d="M1591.914 173.544c-.087 1.076-10.25.319-10.364-.027-.102-.306 1.063-.555 2.308-.85.157-.035.315-.074.472-.111 1.405-.346 2.34-1.389 3.548-2.296 1.142-.86.343-5.025.343-5.025l3.547-1.266s-.536 4.191-.536 6.498c0 .777.447 1.284.575 1.958.07.366.138.74.107 1.12" fill="#B77446"/><path d="M1591.914 173.544c-.036.44-.31.7-.74.839h-2.805c-.494-.05-.786-.038-1.045 0h-4.532c-.827-.262-1.172-.652-1.242-.866-.102-.306 1.063-.555 2.308-.85l.015.024s1.548.845 3.537.66c1.621-.15 3.28-.814 4.397-.926.069.366.138.74.107 1.12M1582.155 118.36s3.935 19.597 4.6 30.262a692.527 692.527 0 001.493 19.495s.859.31 1.844.254a6.809 6.809 0 001.865-.38s3.9-16.046 2.608-22.47c-1.292-6.423-.215-12.349.404-17.675.89-7.64-2.53-11.191-4.919-13.611-2.417-2.45-7.895 4.125-7.895 4.125" fill="#365DA4"/><path d="M1579.366 82.468c-.39-3.19.606-8.296 6.978-7.48 6.373.815 8.381 7.073 7.096 9.856-1.285 2.783 1.85 3.454 2.834 6.446.845 2.57 1.14 5.762 2.509 7.195 4.41 4.619-4.235 11.72-9.448 10.222-9.494-2.727-10.716-3.134-10.38-10.59.173-3.819 3.146-5.299 1.258-6.404-4.56-2.67.038-2.026-.847-9.245" fill="#163560"/><path d="M1583.196 86.511s.724 4.213-1.9 6.201l1.888 2.828 3.793-.186 1.753-4.532s-.538-.105-.794-5.754l-4.74 1.443" fill="#A86337"/><path d="M1581.957 86.833s5.676 1.139 6.331-2.404c.655-3.543 1.83-5.783-1.766-6.66-3.596-.877-4.553.345-5.059 1.474-.506 1.13-.965 7.202.494 7.59" fill="#B77446"/><path d="M1580.767 90.72c.244 0 4.71-1.493 11.084 1.102 0 0-3.026 17.305-1.726 20.608 1.3 3.303 1.795 6.234 1.795 6.234l-14.105.175s.197-11.336-.453-15.349c-.65-4.012 3.405-12.77 3.405-12.77" fill="#A86337"/><path d="M1591.842 111.08a5.957 5.957 0 01-.162-.875c-.186-2.089.13-3.792.654-5.463l.002-.005.026-.08c.014-.043.031-.11.053-.198 0-.002 0-.004.002-.007.02-.078.042-.174.067-.282.007-.036.017-.074.025-.116.363-1.624 1.159-5.705 1.369-6.261.07-.184.149-.502.216-.892.214-1.228.307-3.183-.41-4-.999-1.136-4.525-1.98-4.525-1.98-.697 1.092-2.955 3.787-5.915 3.3-1.713-.283-1.977-3.612-1.977-3.612-1.839.253-2.31.533-2.31.533s-4.408 2.75-10.638 11.503c-.198.279-.668.247-1.818.024-1.464-.285-4.454-.248-8.962-.91 0 0-.155.112-.198.605-.093 1.087-.203 1.41-.203 1.41s2.97 1.399 6.128 2.398c1.118.355 2.286.685 3.4.934 1.038.232 2.03.393 2.892.434 0 0 3.598-1.382 7.086-5.222.203 3.223.653 7.386.377 10.426-.157 1.73-1.343 7.554-1.046 8.524.621 2.018 5.379 2.123 9.628 1.912.093-.004.185-.01.278-.016a35.913 35.913 0 001.909-.162c1.138-.127 2.126-.293 2.767-.44.83-.19 1.87-.463 2.718-.872.649-.313 1.183-.705 1.419-1.202-.41-2.196-2.378-6.98-2.852-9.408" fill="#80BDCC"/><path d="M1584.731 76.885s-.1 1.202 1.767 3.24c1.867 2.04 1.422 5.676 1.422 5.676s3.145-5.91 1.468-7.797c-1.679-1.887-4.657-1.12-4.657-1.12" fill="#163560"/><path d="M1587.013 75.321s-2.822-.944-5.621 1.814c-1.206 1.188-1.025 3.523-.378 4.878 0 0 .992-2.904 2.798-3.537s3.2-3.155 3.2-3.155" fill="#163560"/><path d="M1583.725 85.09s-.152.42-1.22.23c0 0-.897-.161-.814-.633 0 0 .914-.237 2.034.402" fill="#FFF"/><path d="M1582.586 116.672c.805 2.729 1.273 4.974 3.295 6.492a35.822 35.822 0 001.909-.162c1.138-.127 2.126-.293 2.767-.44.83-.19 1.87-.464 2.718-.872.649-.313 1.183-.705 1.419-1.202-.41-2.196-2.378-6.98-2.852-9.408a5.982 5.982 0 01-.094-.637c-.175-2.174.107-3.96.586-5.7l.002-.006.079-.278c0-.002 0-.004.002-.007.016-.059.04-.156.067-.282.007-.036.017-.074.025-.116.323-1.539 1.173-6.37 1.388-7 .069-.199-.092-1.093-.025-1.514l-1.46-1.08s-9.744 4.157-11.89 9.892c-2.147 5.735.908 8.407 2.064 12.32M1563.266 106.172c2.158.683 4.504 1.282 6.292 1.368 0 0 3.647-1.4 7.155-5.298.148-.663.291-1.774-.512-1.454-1.126.45-5.292 5.796-6.87 5.908-1.127.08-4.334-.301-6.065-.524" fill="#5F9AA8"/><path d="M1570.961 104.65s4.804 2.41 8.967 3.408c1.2.287 2.354.49 3.338.537 0 0 4.691-1.232 7.896-6.16 5.742-8.834 1.505-10.238 1.505-10.238s-4.41 2.75-10.64 11.503c-.217.306-.764.237-2.181-.049-1.513-.306-4.525-.269-8.684-.88 0 0-.07.155-.112.648-.094 1.087-.089 1.23-.089 1.23" fill="#80BDCC"/><path d="M1566.5 102.669c-1.449-.283-4.53-.305-8.966-.947a7.757 7.757 0 01-1.102-.436c-.95-.475-3.485-.791-4.024-.285-.538.507.571 2.565 2.884 2.628.81.022 1.418.084 1.866.154.244.114 3.09 1.434 6.108 2.389 1.118.355 2.286.685 3.4.934.448-1.99.139-3.54-.165-4.437" fill="#A86337"/><path d="M1579.928 108.058c-.913-1.807-.556-3.386-.082-4.407-1.513-.306-4.547-.438-8.705-1.048l-.001.007c-.448-.118-1.11-.322-1.703-.619-1.015-.507-3.721-.845-4.296-.304-.575.54.608 2.738 3.078 2.806 1.367.037 2.195.179 2.662.297.41.189 5.07 2.315 9.047 3.268" fill="#B77446"/><path d="M1544.833 105.396s-2.957 1.374-6.126 2.376a46.233 46.233 0 01-3.404.932c-1.032.234-2.018.397-2.886.42 0 0-.07-.023-.211-.095-.799-.349-3.921-1.816-6.948-5.147-.235-.28-.493-.56-.728-.862-.188-.21-.376-2.283-.517-4.45l-.023-.023a286.259 286.259 0 01-.282-5.242s4.085 1.095 9.952 10.973c.165.28.658.233 1.808.023 1.479-.28 4.46-.256 8.967-.909 0 0 .164.117.211.606.07 1.072.187 1.398.187 1.398" fill="#F4BE61"/><path d="M1532.206 109.03c-.799-.35-3.921-1.817-6.948-5.148-.235-.28-.493-.56-.728-.862-.188-.21-.376-2.283-.517-4.45.564.56 7.136 6.897 8.193 10.46" fill="#F2A83D"/><path d="M1517.445 76.084s-.373-.76-2.242-.551c-1.869.208-5.1.551-5.128 10.72-.003 1.113-6.723 11.267.857 20.829l5.41-13.676 1.103-17.322" fill="#163560"/><path d="M1517.986 76.217s-1.994-.667-3.043.322c-1.05.99-.454 2.298-.454 2.298l3.497-2.62" fill="#C65447"/><path d="M1524.28 80.114s-.038-4.362-7.11-3.86c-1.202.086-2.292.769-2.842 1.834-.795 1.543-1.142 4.26 1.428 8.615l8.524-6.59" fill="#163560"/><path d="M1515.326 92.92l1.594 6.183 4.604.223 2.291-3.409c-2.143-1.612-2.445-4.438-2.414-6.114v-.05c.02-.789.11-1.311.11-1.311l-3.267-.988-2.488-.751c.228 1.884.213 3.243.11 4.202-.162 1.498-.54 2.015-.54 2.015" fill="#E49963"/><path d="M1510.677 124.895l16.709-.023s-2.08-11.118-.925-14.761c1.153-3.645-.057-8.968-.057-8.968-1.678-3.957-2.106-7.66-2.852-7.854-.41-.108-.741-.327-1.144-.407-6.562-1.301-11.898 1.068-11.898 1.068-1.473 3.672 1.682 6.43 1.834 14.722.15 8.15-1.667 16.223-1.667 16.223" fill="#E49963"/><path d="M1528.379 125.664s-12.721 2.61-19.998-.094c-.399-.162 1.126-5.613 2.183-9.341.517-1.841.916-3.261.892-3.448-.258-5.079-1.268-9.412-1.737-12.766-.141-.886-.235-1.678-.259-2.423v-.373c-.023-1.211.141-2.19.564-3.005.798-1.468 5.094-1.491 5.094-1.491.422.49 2.746 2.097 5.516 2.073 2.792-.023 1.412-1.983 1.412-1.983.117.024.301.05.395.073a7.136 7.136 0 012.324.955c2.23 2.423 2.957 14.49 2.91 14.886-.093 1.468.704 16.937.704 16.937" fill="#F4BE61"/><path d="M1515.866 90.905c1.978-1.05 5.04-1.101 5.535-1.102h.068l-.067-.05c-.327-.239-1.796-1.312-3.158-2.299l-2.488-.751c.228 1.884.213 3.243.11 4.202" fill="#D68D5D"/><path d="M1522.63 89.894s-7.02.318-7.152-4.023c-.132-4.342-1.127-7.225 3.349-7.612 4.476-.387 5.398 1.244 5.797 2.682.4 1.439-.17 8.758-1.993 8.953" fill="#E49963"/><path d="M1521.92 79.973s3.006 2.053 2.524 4.432c0 0 1.49-.777 1.35-3.046-.141-2.268-2.322-3.828-4.241-3.947-1.92-.118-3.366.036-3.366.036l3.733 2.525" fill="#163560"/><path d="M1522.447 79.22c1.247.655-3.902 1.206-4.217 3.288-.315 2.083-2.77 2.88-2.77 2.88s-3.113-11.478 6.987-6.168" fill="#163560"/><path d="M1526.525 107.702s-5.61 7.479-15.96 8.527c.516-1.841.915-3.261.891-3.448-.258-5.079-1.268-9.412-1.737-12.766-.141-.886-.235-1.678-.259-2.423v-.373c1.198.233 3.052 1.467 3.85 1.654 6.173 1.445 13.215 8.829 13.215 8.829" fill="#F2A83D"/><path d="M1523.472 87.531s-.05.441-1.135.501c0 0-.91.05-.938-.424 0 0 .836-.438 2.073-.077" fill="#FFF"/><path d="M1532.787 105.948s-4.803 2.395-8.967 3.385c-1.198.285-2.353.487-3.337.533 0 0-4.478-1.367-7.896-6.119-6.6-9.177-1.505-10.167-1.505-10.167s4.41 2.731 10.638 11.425c.219.304.766.235 2.183-.049 1.513-.303 4.525-.267 8.683-.873 0 0 .07.153.113.643.094 1.08.088 1.222.088 1.222" fill="#F4BE61"/><path d="M1544.836 105.393s-2.97 1.389-6.127 2.381c-1.118.352-2.286.68-3.4.928-.448-1.975-.139-3.515.166-4.407 1.464-.283 4.593-.303 9.103-.959l.258 2.057" fill="#A86337"/><path d="M1543.451 103.614s1.14-.22 2.091-.692c.95-.472 3.486-.786 4.025-.283.538.503-.57 2.547-2.883 2.61-2.314.063-2.978.44-2.978.44l-.255-2.075" fill="#A86337"/><path d="M1532.898 106.074s-4.914 2.269-9.078 3.26c.914-1.795.557-3.363.083-4.378 1.513-.303 4.546-.434 8.705-1.04 0 0 .049.32.09.81.095 1.08.2 1.348.2 1.348" fill="#B77446"/><path d="M1481.357 125.057v-.162h-17.439c-2.159 0-3.897 1.7-3.897 3.774 0 1.888 1.41 3.435 3.267 3.725v42.288h65.579v-49.625h-47.51" fill="#AA443E"/><path fill="#C65447" d="M1481.479 174.682h65.578v-49.625h-65.578z"/><path d="M1556.727 124.895h-92.809c-2.159 0-3.897 1.7-3.897 3.774 0 2.097 1.738 3.774 3.897 3.774h92.809c2.394 0 4.342-1.7 4.342-3.774 0-2.073-1.948-3.774-4.342-3.774" fill="#E57970"/><path fill="#8CB3ED" d="M1455.603 113.256h11.77v-10.452h-11.77z"/><path fill="#A6C7F9" d="M1457.753 113.256h11.77v-10.452h-11.77z"/><path fill="#8CB3ED" d="M1470.713 113.256h14.83v-12.023h-14.83z"/><path fill="#A6C7F9" d="M1473.422 113.256h14.831v-12.023h-14.83z"/><path d="M1475.433 146.043s-4.882 3.63-5.835 3.41c-.952-.221 3.568-3.918 3.568-3.918-1.7-.817-6.988-.305-6.988-.305s-1.761 5.676-2.63 5.23c-.87-.449 1.816-4.947 1.816-4.947-1.895-.114-4.219 1.292-4.219 1.292-3.18 2.51.21 6.462.21 6.462s-.654 1.955-2.662 3.733c0 0-2.87 2.122-3.069 5.91l.52.047s.836-3.564 2.35-5.223l.225-.228c.243-.225.412-.393.527-.519.748-.718 1.781-1.633 2.28-1.722 0 0-.026-.091-.022-.25l.021.25c.17 1.999 4.048 3.742 6.434 4.101 2.385.36 1.648-.621.826-2.074-.822-1.453-3.423-2.104-4.017-2.773-.593-.67.634-.67 2.071-.014 1.438.656 1.635 2.406 3.94 3.508 2.307 1.104 5.777-2.72 5.777-2.72-1.839-.092-4.463-2.087-4.368-2.697.095-.611 4.455 1.053 5.2 1.132.745.08 2.441-.847 2.703-3.847.263-3-4.658-3.838-4.658-3.838" fill="#82B378"/><path d="M1449.501 148.296s5.393-3.018 2.876-7.113c0 0-2.013-2.515-4.17-3.162 0 0 1.15 6.107 0 6.251-1.15.144-.792-6.898-.792-6.898s-5.68-2.73-7.909-2.515c0 0 3.523 5.965 2.373 5.82-1.15-.143-5.106-6.18-5.106-6.18s-5.824-1.078-6.759 2.372c-.935 3.45.575 5.174 1.439 5.39.862.216 6.4.143 6.255.861-.144.72-3.883 1.87-5.968 1.223 0 0 2.3 5.677 5.32 5.389 3.02-.288 3.956-2.156 5.825-2.3 1.87-.144 3.236.36 2.302.862-.936.503-4.1.166-5.61 1.448-1.51 1.284-2.732 2.074.073 2.649 2.804.574 7.838.215 8.845-1.94l1.006-2.157" fill="#A8D29F"/><path d="M1450.939 153.543c-1.51-2.803-1.438-5.247-1.438-5.247-1.726-5.46-16.826-10.348-16.826-10.348 19.199 7.762 15.82 12.504 15.82 12.504.516.302 1.292 1.74 1.831 2.845.077.187.198.447.378.798l.173.382c.988 2.472.464 6.74.464 6.74l.6.161c1.327-4.301-1.002-7.835-1.002-7.835" fill="#82B378"/><path d="M1458.08 144.134s-7.109-3.978-3.79-9.377c0 0 2.653-3.316 5.496-4.168 0 0-1.516 8.051 0 8.241 1.518.189 1.044-9.094 1.044-9.094s7.488-3.6 10.426-3.315c0 0-4.644 7.862-3.128 7.673 1.517-.19 6.73-8.147 6.73-8.147s7.678-1.42 8.91 3.126c1.232 4.547-.759 6.82-1.896 7.104-1.137.285-8.435.19-8.246 1.137.19.948 5.119 2.463 7.867 1.61 0 0-3.033 7.484-7.014 7.105-3.982-.38-5.213-2.842-7.677-3.031-2.465-.19-4.266.473-3.034 1.136 1.233.664 5.403.218 7.393 1.908 1.99 1.692 3.602 2.734-.094 3.492-3.697.758-10.332.283-11.66-2.558l-1.327-2.842" fill="#A8D29F"/><path d="M1480.26 130.494s-19.905 6.441-22.18 13.64c0 0 .095 3.22-1.894 6.915 0 0-3.07 4.659-1.32 10.33l.789-.213s-.69-5.626.613-8.885c.053-.12.13-.291.227-.501.238-.466.397-.809.498-1.056.71-1.454 1.733-3.35 2.415-3.748 0 0-4.455-6.251 20.853-16.482" fill="#82B378"/><path d="M1443.916 159.76c0 7.685 6.235 13.915 13.926 13.915 7.69 0 13.924-6.23 13.924-13.916h-27.85" fill="#F1A34F"/><path d="M1461.268 173.569c-.567.07-1.144.106-1.73.106-7.69 0-13.925-6.231-13.925-13.916h3.46c0 7.1 5.32 12.958 12.195 13.81" fill="#FFB973"/><path d="M1470.241 172.667h-24.8c-.949 0-1.717.768-1.717 1.716h28.235c0-.948-.77-1.716-1.718-1.716" fill="#F1A34F"/><path fill="#D86713" d="M1443.458 160.186h28.625v-.427h-28.625z"/><path fill="#91B6ED" d="M1453.863 64.045h48.837v-1.717h-48.837z"/><path fill="#699DEE" d="M1442.343 49.623h63.447v-1.717h-63.447z"/><path fill="#91B6ED" d="M1453.863 81.022h48.837v-1.716h-48.837zM1453.863 98h48.837v-1.717h-48.837zM1453.863 114.977h48.837v-1.716h-48.837z"/><path fill="#D86713" d="M1455.548 79.306h13.864V65.452h-13.864z"/><path fill="#F1A34F" d="M1459.823 79.306h13.863V65.452h-13.863z"/><path fill="#C95C12" d="M1459.823 65.452l-4.275 2.59v-2.59h4.275"/><path fill="#4A75CB" d="M1465.314 79.306h10.917v-10.91h-10.917z"/><path fill="#699DEE" d="M1468.68 79.306h10.917v-10.91h-10.917z"/><path fill="#EBF2F9" d="M1474.02 77.99l-4.051.809-.412-2.058 4.052-.808.41 2.057M1470.644 71.23h-3.944l.166-.46-.166-.498h3.908l-.24.516.276.442"/><path fill="#A6C7F9" d="M1468.672 70.272v.958h-1.972l.166-.46-.166-.498h1.972"/><path fill="#FFD5AB" d="M1462.156 68.423h-4.662l.196-.544-.196-.588h4.618l-.283.61.327.522"/><path fill="#C95C12" d="M1459.825 67.291v1.132h-2.33l.195-.544-.196-.588h2.331"/><path fill="#FFD5AB" d="M1462.156 76.79h-4.662l.196-.545-.196-.588h4.618l-.283.61.327.522"/><path fill="#C95C12" d="M1459.825 75.657v1.132h-2.33l.195-.544-.196-.588h2.331"/><path fill="#4A75CB" d="M1462.282 62.353h10.917v-10.91h-10.917z"/><path fill="#699DEE" d="M1465.648 62.353h10.918v-10.91h-10.918z"/><path fill="#EBF2F9" d="M1470.577 58.927l-4.051.808.411 2.058 4.052-.809-.412-2.057M1467.613 54.224h-3.945l.166-.46-.166-.498h3.907l-.238.516.276.442"/><path fill="#A6C7F9" d="M1465.64 53.266v.958h-1.972l.166-.46-.166-.498h1.973"/><path fill="#D86713" d="M1478.015 62.326h7.714v-7.71h-7.714z"/><path fill="#F1A34F" d="M1480.394 62.326h7.714v-7.71h-7.714z"/><path fill="#C95C12" d="M1480.394 54.617l-2.38 1.44v-1.44h2.38"/><path fill="#FFD5AB" d="M1481.692 56.285h-2.594l.11-.303-.11-.327h2.57l-.157.339.181.29"/><path fill="#C95C12" d="M1480.395 55.655v.63h-1.297l.11-.303-.11-.327h1.297"/><path fill="#FFD5AB" d="M1481.692 60.94h-2.594l.11-.303-.11-.327h2.57l-.157.34.181.29"/><path fill="#C95C12" d="M1480.395 60.31v.63h-1.297l.11-.303-.11-.327h1.297"/><path fill="#4A75CB" d="M1455.68 96.29h9.07v-9.065h-9.07z"/><path fill="#699DEE" d="M1458.477 96.29h9.069v-9.065h-9.07z"/><path fill="#EBF2F9" d="M1462.913 95.152l-3.366.672-.341-1.71 3.365-.671.342 1.709M1460.108 89.536h-3.277l.138-.383-.138-.413h3.246l-.199.428.23.368"/><path fill="#A6C7F9" d="M1458.47 88.74v.796h-1.64l.139-.383-.138-.413h1.638"/><path fill="#4A75CB" d="M1468.645 96.29h9.07v-9.065h-9.07z"/><path fill="#699DEE" d="M1471.443 96.29h9.07v-9.065h-9.07z"/><path fill="#EBF2F9" d="M1475.879 95.152l-3.366.672-.341-1.71 3.365-.671.342 1.709M1473.074 89.536h-3.277l.138-.383-.138-.413h3.247l-.2.428.23.368"/><path fill="#A6C7F9" d="M1471.436 88.74v.796h-1.639l.138-.383-.138-.413h1.639"/><path fill="#D86713" d="M1480.935 79.306h6.615v-6.61h-6.615z"/><path fill="#F1A34F" d="M1482.974 79.306h6.614v-6.61h-6.614z"/><path fill="#C95C12" d="M1482.974 72.695l-2.04 1.236v-1.236h2.04"/><path fill="#4A75CB" d="M1485.593 79.306h5.21V74.1h-5.21z"/><path fill="#699DEE" d="M1487.2 79.306h5.21V74.1h-5.21z"/><path fill="#EBF2F9" d="M1489.748 78.706l-1.933.386-.196-.982 1.933-.386.196.982M1488.138 75.48h-1.883l.08-.22-.08-.237h1.865l-.114.246.132.211"/><path fill="#A6C7F9" d="M1487.196 75.023v.457h-.941l.08-.22-.08-.237h.941"/><path fill="#FFD5AB" d="M1484.087 74.141h-2.224l.093-.26-.093-.28h2.203l-.135.29.156.25"/><path fill="#C95C12" d="M1482.975 73.6v.541h-1.112l.093-.26-.093-.28h1.112"/><path fill="#FFD5AB" d="M1484.087 78.133h-2.224l.093-.26-.093-.28h2.203l-.135.29.156.25"/><path fill="#C95C12" d="M1482.975 77.593v.54h-1.112l.093-.26-.093-.28h1.112"/><path fill="#699DEE" d="M1495.735 84.227l-2.788 12.095h7.702l2.787-12.095h-7.701"/><path fill="#FFF" d="M1490.746 84.227l-2.787 12.095h7.702l2.787-12.095h-7.702"/><path d="M1492.873 90.7l.003 5.255a.363.363 0 01-.361.36l-8.747.007a.363.363 0 01-.362-.36l-.004-5.256c0-.199.163-.36.362-.361l8.746-.006c.2 0 .362.162.363.36" fill="#F1A34F"/><path d="M1492.873 90.7v.152l-4.733 2.478-4.738-2.624c0-.199.163-.36.362-.361l8.746-.006c.2 0 .362.162.363.36M1490.55 95.424a.146.146 0 00-.146.145c0 .08.066.146.146.146l1.64-.002c.08 0 .146-.065.146-.145a.145.145 0 00-.145-.145l-1.64.001z" fill="#D86713"/><path d="M1490.577 95.384l-1.641.001a.146.146 0 000 .29h1.64a.145.145 0 000-.291" fill="#D86713"/><path d="M1340.392 173.07s-3.544-4.05-4.548-5.894l-2.758-5.09-3.61.893 4.582 6.49 4.787 4.047 1.547-.447" fill="#FFB27D"/><path d="M1317.563 73.614c-.834-.473-1.831-.525-2.53-.483.18-.186.534-.253.534-.253-.433-.065-1.4.364-1.4.364-6.02-2.318-6.967 6.542-6.84 8.6.125 2.058-2.023 2.73-5.157 4.352-5.976 3.095-6.501 7.238-6.501 7.238.046.027.095.059.146.094.297-.502.908-1.445 1.422-1.587-.02.046-.608 1.298-.828 2.016 1.763 1.34 5.062 4.31 7.361 6.417-.01-.412.006-.996.157-1.305l.283 1.71c1.23 1.129 2.08 1.925 2.08 1.925-.153-1.664 7.528-10.442 11.534-13.07.975-1.436 1.322-3.97 1.348-4.17-.169 2.01-.513 3.137-.82 3.772 3.392-3.12 1.418-14.366-.79-15.62" fill="#163560"/><path d="M1317.587 89.762c.02.01-1.935 1.023-3.405.622-1.383-.377-2.287-2.17-2.267-2.173.585-.117.754-.92.742-4.377l.264.052 4.453.881s-.102 1.4-.105 2.72c-.004 1.107.064 2.157.318 2.275" fill="#FFB27D"/><path d="M1312.553 75.065s2.196-2.337 4.952-.12c0 0-1.604-.277-4.952.12" fill="#E37970"/><path d="M1317.374 84.767s-.102 1.4-.105 2.72c-2.492-.071-3.808-2.342-4.348-3.6l4.453.88" fill="#D68D5D"/><path d="M1312.462 83.402s-1.306-2.062-1.62-3.824c-.223-1.259.418-5.923 5.11-5.252 0 0 1.361.135 2.642.999 1.019.687 2.488 2.171.845 6.242l-.428 1.375-6.55.46" fill="#163560"/><path d="M1335.117 165.398l-2.36.072-2.554.078s-5.9-6.565-9.21-17.088a29.88 29.88 0 00-.244-.743c-1.811-5.278-5.566-11.903-7.545-17.899a95.11 95.11 0 01-1.087-3.509c-1.458-5.062-1.88-8.387-2.27-11.94l14.289.115s2.306 24.254 10.981 50.914" fill="#80BDCC"/><path d="M1323.133 115.99s-6.118 3.105-13.389.82c-.086-.028.48-28.087 2.542-28.86.475.59 1.879 1.18 3.137 1.153 1.448-.032 1.918-.652 1.842-1.328a48.353 48.353 0 012.775 1.669c1.312 2.277 3.093 26.545 3.093 26.545" fill="#F1A34F"/><path d="M1309.847 107.037c-.625.883-1.822 6.252-4.801 6.928 1.535-3.827 2.701-5.506 2.883-6.682.338-2.196.345-4.469.176-6.613.998-1.746 1.742-2.944 1.742-2.944.079-.282 1.585-4.937 2.068-.777.481 4.163-1.37 9.1-2.068 10.088" fill="#5F9AA8"/><path d="M1318.205 86.016s-5.894.097-5.898-3.572c-.004-3.669-.767-6.128 2.995-6.345 3.763-.217 4.496 1.182 4.796 2.407.299 1.224-.36 7.39-1.893 7.51" fill="#FFB27D"/><path d="M1317.987 76.01s-1.614 4.304-4.09 4.94c-2.478.637-3.552-.026-3.552-.026s1.9-1.508 2.294-4.141c0 0 4.13-2.822 5.348-.774" fill="#163560"/><path d="M1317.587 76.359s1.205.96 1.499 1.895c.294.935.426 2.858.987 2.793 0 0 1.216-2.926-.151-4.581-1.449-1.755-2.335-.107-2.335-.107" fill="#163560"/><path d="M1341.923 92.105s.83-2.992 4.122-2.57c.38.119 1.483.559.777 1.74-.52.87-.745.421-1.564 1.591-.818 1.17-1.706 1.435-2.72 1.295l-.615-2.056M1313.79 172.463c-.201-1.102-.583-3.009-.583-3.009l.089-6.764h-4.111l1.537 6.475c.033.3.116 1.467-.315 2.703 0 0-.395 1.798 1.377 1.832 1.771.032 2.206-.134 2.005-1.237" fill="#FFB27D"/><path d="M1313.957 174.58h-3.685c-.184-.964.135-2.709.135-2.709 2.005 1.942 3.26-.049 3.26-.049.3.76.294 2.474.29 2.757M1342.113 174.591h-4.543c-.394-.366-.771-1.087-1.23-2.03-.268-.546-.867-.847-1.48-1.012v3.042h-.942l-.863-3.236c-.58-1.089-.136-2.068.271-2.928.474-.001 1.836.323 4.25 3.108.793.913 1.668 1.24 2.538 1.212a.25.25 0 00.035.02c1.361.627 1.815 1.396 1.964 1.824" fill="#C45446"/><path d="M1341.923 92.105s-3.869 2.162-5.251 2.786c-.788.355-2.6 1.203-3.879 1.803a1.996 1.996 0 01-2.362-.509c-2.098-2.449-7.557-7.759-13.166-8.41 0 0 3.41 8.418 3.512 10.122.1 1.704.4 27.862.4 27.862s-.2 1.203 2.106.702c2.307-.502 2.909-1.003 2.909-1.003s-2.207-16.135-1.605-21.748c.118-1.106.011-2.35-.238-3.634 3.416 2.076 7.46 3 7.46 3s3.021-1.318 7.153-4.343c1.297-.95 3.575-4.572 3.575-4.572l-.614-2.056" fill="#B64C41"/><path d="M1332.758 165.47l-2.555.078s-5.9-6.565-9.21-17.088a29.88 29.88 0 00-.244-.743c-1.811-5.278-5.566-11.903-7.545-17.899a95.11 95.11 0 01-1.087-3.509l2.104-1.595s6.317 10.223 8.273 19.843c1.699 8.356 8.502 18.412 10.264 20.913" fill="#5F9AA8"/><path d="M1314.44 145.453c.036 4.678-.2 15.435-.81 19.888h-2.263c-1.25 0-1.874-.019-1.874-.019-1.53-7.742-2.618-14.148-3.41-19.668-.65-4.531-1.227-8.414-1.671-11.758-.448-3.364-.76-6.182-.87-8.562a35.567 35.567 0 01-.043-2.13l12.345-1.203c-.155 8.197-1.424 20.733-1.404 23.452" fill="#80BDCC"/><path d="M1311.367 165.34c-1.25 0-1.874-.018-1.874-.018-1.53-7.742-2.618-14.148-3.41-19.668-.65-4.531-1.227-8.414-1.671-11.758-.448-3.364-.76-6.182-.87-8.562l4.53 2.663s-2.892 1.02-1.788 8.737c1.103 7.717 3.548 27.514 5.083 28.607" fill="#5F9AA8"/><path d="M1311.95 125.258s-.869 3.14-3.877 2.739c-3.01-.4-7.288-2.205-7.288-2.205s1.286-4.06 2.884-9.394c.018-.056.034-.113.051-.17 1.887-6.298 4.192-14.316 5.339-19.533l.071-.33c.317-1.47.534-2.699.614-3.58l2.542-4.836s3.676 8.344 3.877 10.45c.2 2.104-4.213 26.86-4.213 26.86" fill="#B64C41"/><path d="M1308.947 98.085l3.34-10.135c-.01.004-4.207 1.23-6.296 2.285 0 0-1.305 1.682-2.112 5.562 0 0-.854 9.317 1.051 12.724 0 0 6.018 1.202 15.645-2.104v-2.205s-10.53.55-12.686.8l1.058-6.927" fill="#FFB27D"/><path d="M1311.528 102.808c-.133 3.362-.916 9.846-7.808 13.42 1.887-6.298 4.192-14.316 5.339-19.533 1.25 1.918 2.537 4.34 2.469 6.113" fill="#A53D38"/><path d="M1312.286 87.95s-6.152.426-7.623 3.7c-1.472 3.274-1.94 14.165-.067 17.373 0 0 2.577.733 7.136-.119l.168-.032s1.454-3.558.15-4.26c0 0-3.844.2-3.442-1.068.4-1.27 3.678-15.594 3.678-15.594" fill="#B64C41"/><path d="M1319.496 104.798s.838-1.017 1.017-2.053c.18-1.038.735-1.807 2.183-1.997 1.448-.19 2.07-.211 2.066.197-.004.408-1.183 3.256-3.26 4.956-2.078 1.7-2.006-1.103-2.006-1.103" fill="#FFB27D"/><path d="M1253.275 165.133s-2.006 1.858-1.615 3.179c.392 1.32 2.203 2.2 2.448 3.814.244 1.614 1.223 2.494 2.104 2.494h4.199s.648-1.136-.918-1.478c-1.566-.342-2.156-2.239-2.058-3.999.098-1.76-.147-4.108-.147-4.108l-3.327-.782-.686.88M1289.65 174.617h-11.152a.972.972 0 01-.217-.065c-.743-.372-.512-3.213-.422-4.094l.03-.259s3.915-3.13 4.453-.732c.017.074.037.148.059.22.676 2.242 3.716 3.26 5.47 3.544 1.34.218 1.688.995 1.778 1.386" fill="#233862"/><path d="M1287.406 110.461s-.595 7.413-1.293 16.324c-.95 12.104-2.092 26.973-2.206 29.79-.195 4.89-.979 12.715-.979 12.715s-1.858 1.858-5.578 1.075c0 0-3.314-11.169-4.262-22.986l-.044-.583c-.88-12.03-2.25-37.362-2.25-37.362l16.612 1.027" fill="#2B478B"/><path d="M1287.406 110.461s-.595 7.413-1.293 16.324l-13.025 20.594-.044-.583c-.88-12.03-2.25-37.362-2.25-37.362l16.612 1.027" fill="#233862"/><path d="M1284.69 111.34s-10.715 26.849-17.762 39.464c-7.047 12.617-9.25 16.138-9.25 16.138s-4.036-1.614-4.403-2.714c0 0 2.695-24.357 7.414-30.294 2.666-3.355 5.799-13.424 5.945-16.945.147-3.521.954-10.489.954-10.489l17.103 4.84" fill="#2B478B"/><path d="M1295.528 103.93l.613 1.22s3.115.434 2.257 3.68c0 0-.461 1.334-1.32.912-.86-.423-.436-.387-1.667-.955-1.232-.568-1.944-1.661-1.669-2.663l-.197-1.062 1.983-1.133" fill="#AB7041"/><path d="M1279.195 69.9c.477-2.811.49-4.478.49-4.478l-5.437-4.379c.202 6.022-3.659 8.917-3.659 8.917s7.246 3.564 11.434 2.244c0 0-1.03-1.317-2.828-2.304" fill="#9C5F33"/><path d="M1280.966 65.323s-6.917 1.148-7.566-3.168c-.65-4.315-1.979-7.074 2.41-7.99 4.388-.915 5.496.602 6.064 1.99.567 1.388.875 8.758-.908 9.168" fill="#AB7041"/><path d="M1273.446 62.453s.14-5.781 6.442-6.709c4.317-.635 1.703-4.24 1.209-4.811 0 0-3.3.63-6.677 1.37-7.09 1.555-1.724 9.29-.974 10.15" fill="#233862"/><path d="M1294.802 105.625c.925-.948 1.612-2.182 1.612-2.182s-7.86-9.758-8.498-10.77c-.64-1.012-5.412-17.243-5.412-17.243l-12.07-2.444s10.075 20.773 11.744 23.304c2.758 4.186 11.009 10.413 11.009 10.413s.89-.333 1.615-1.078" fill="#4A75CB"/><path d="M1287.868 111.078a.68.68 0 01-.44.168c-1.573-.022-6.159.852-10.038.453-3.272-.313-6.167-1.282-9.277-2.674-.412-.186-1.363-.692-1.341-1.154.014-.504.064-1.237.127-2.16.22-3.207.604-8.723.23-15.087a66.151 66.151 0 01-.107-3.518c-.032-8.626 1.65-16.255 5.09-18.822.292-.21 2.125.713 3.782 1.53 1.531.754 2.602.737 4.048.444l1.907 1.379c1.761 1.634 3.691 3.856 4.53 7.23.714 2.87 1.132 8.048 1.363 13.413.104 2.43.19 4.883.21 7.209v.084c.021.23.021.482.021.713.085 5.972 0 10.708-.105 10.792" fill="#739AF0"/><path d="M1266.9 105.712c.219-3.208.603-8.724.229-15.088a66.151 66.151 0 01-.107-3.518c1.432-3.473 2.603-5.992 2.603-5.992h3.611s2.648 18.07-6.337 24.598" fill="#4A75CB"/><path d="M1259.874 106.835l-.686 1.18s1.343 2.842-1.843 3.904c0 0-1.37.346-1.487-.604-.118-.949.084-.576-.115-1.917-.198-1.34.326-2.534 1.315-2.854l.781-.747 2.035 1.038" fill="#AB7041"/><path d="M1258.057 107.157c1.3.253 2.71.151 2.71.151s3.86-11.917 4.357-13.006c.496-1.088 11.466-13.973 11.466-13.973l-4.57-11.43s-11.864 19.807-13.069 22.59c-1.99 4.598-2.682 14.91-2.682 14.91s.766.56 1.788.758" fill="#739AF0"/><path fill="#699DEE" d="M1542.128 97.764l-2.788 12.095h7.702l2.787-12.095h-7.701"/><path fill="#EBF2F9" d="M1537.14 97.764l-2.788 12.095h7.702l2.787-12.095h-7.702"/><path d="M1539.178 99.296c-.128 0-.232.092-.232.203 0 .112.104.204.232.204l2.601-.002c.127 0 .23-.092.23-.203 0-.112-.103-.204-.23-.204l-2.601.002zM1539.705 100.112a.146.146 0 00-.146.145c0 .08.065.145.146.145h1.64a.145.145 0 100-.29h-1.64z" fill="#699DEE"/><path d="M1532.08 104.046s1.217-.234 2.232-.738c1.015-.504 3.721-.84 4.296-.302.575.537-.61 2.719-3.078 2.786-2.469.067-3.18.47-3.18.47l-.27-2.216" fill="#B77446"/></g><g><path d="M589.346 56.074c-47.872 0-74.012-62.51-140.288-10.211-16.5 13.02-68.498-24.565-83.967 37.635-2.886 11.607-19.63 17.575-38.077 26.669-28.936 14.265-7.658 64.396 19.678 64.635 27.337.24 228.173-.477 228.173-.477S682.746 56.074 589.346 56.074" fill-opacity=".6" fill="#EBF2F9"/><path d="M656.153 163.599l.61-.425s4.576-6.069 2.811-6.276c-1.094-.13-2.97 3.062-4.238 5.505a45.607 45.607 0 00-.502-.692c1.33-5.993 3.387-17.918-.973-19.165-2.998-.858-5.228 4.926-6.69 10.769-5.703-5.25-11.036-8.569-11.036-8.569s45.151-37.474 11.412-57.244c-33.74-19.77-59.373 49.793-59.373 49.793s-23.054-21.326-45.068-13.45c-15.765 5.64-13.666 14.636-17.608 20.94-.531-5.418-1.91-12.706-5.487-11.843-3.992.963.613 9.34 3.623 14.122-.392.368-.826.72-1.307 1.056-3.288-2.42-8.514-5.733-10.8-4.295-2.854 1.795.713 4.124 8.304 5.676-3.63 1.589-9.139 2.535-17.828 2.51-31.488-.094-23.408 22.553-23.408 22.553l182.055.419c-.44-3.975-2.159-7.83-4.497-11.384M334.73 174.716l68.49.105s-4.96-3.9-8.548-2.53-10.658.421-11.608-2.425c-.95-2.846-4.433-5.798-13.403-6.22-8.97-.421-12.98 4.64-17.412 6.009a15.341 15.341 0 01-6.694.51c-1.824-6.486-6.353-19.225-13.792-19.229-7.45-.003-2.113 5.853.895 7.75 1.865 1.178 6.004 7.036 8.88 11.317-.913.116-1.703.3-2.388.528-1.953-3.397-5.648-8.58-9.92-8.367-6.332.316-2.058 3.954 1.266 5.851 1.728.986 4.395 2.399 6.56 3.528-2.061 1.403-2.326 3.173-2.326 3.173" fill="#ACD29A"/><path d="M533.73 65.89s-.59-8.417-11.532-5.23c-2.483.723-2.16 8.21 3.852 11.062l7.68-5.832" fill="#2B478B"/><path d="M529.356 77.001s4.283.775 5.872 2.361c1.588 1.587 5.336 6.268 2.978 21.873 0 0-.19 4.704-5.484 5.158-5.294.453-3.366-29.392-3.366-29.392" fill="#B64C41"/><path d="M519.513 115.81c.736 5.123 5.678 18.433 5.534 23.034-.114 3.625-.054 12.001.425 17.565.131 1.513.287 2.811.484 3.756.426 2.053.971 4.416 1.264 5.906.654 3.344.312 5.294.846 7.089.587 1.963 7.324 1.603 5.294.413-.725-.426-1.78-1.328-2.3-2.496-1.893-4.234.76-22.5 1.551-29.54.101-.88.174-1.58.203-2.058.264-4.35 3.253-33.325 3.253-33.325-7.258-4.032-17.285 4.536-16.554 9.657" fill="#D9935C"/><path d="M519.513 115.81c.736 5.123 5.678 18.433 5.534 23.034-.114 3.625-.054 12.001.425 17.565l7.14-14.873c.1-.88.173-1.58.202-2.057.264-4.35 3.328-33.336 3.328-33.336-7.259-4.032-17.36 4.547-16.63 9.668" fill="#CB8757"/><path d="M535.26 107.095s-6.234 28.626-6.942 32.923c-.709 4.297-6.386 24.534-5.148 29.604.73 2.992 2.002 3.877 2.002 3.877.3.548-4.631 1.638-5.03-.462-.505-2.664-.61-6.405-1.352-12.746-1.275-10.92 1.255-17.132 1.867-21.696.614-4.563-2.059-19.067-.575-24.024 2.595-8.675 8.376-12.232 15.178-7.476" fill="#D9935C"/><path d="M518.624 133.399s1.623.252 4.013.42l1.3-5.206.455 5.3c3.838.157 8.851-.035 12.547-1.56l-.797-26.21s-5.352 1.41-11.79-1.06c0 0-8.373 6.53-5.728 28.316" fill="#B64C41"/><path d="M526.148 174.681h-5.773c-.462-.672-1.11-3.385-1.597-3.93a2.288 2.288 0 01-.106-.126l-.05 4.056h-.525c-.008-.634-.062-3.803-.369-5.542-.315-.602-.54-1.184-.442-1.43.205-.512 2.09-1.648 2.09-1.648s1.278 6.946 2.058 7.142c1.86.467 3.563.137 3.563.137s.835.363 1.1.784v.001c.11.175.152.364.051.556" fill="#2B478B"/><path d="M534.034 174.681h-5.773c-.457-.665-1.094-3.321-1.58-3.906l-.048 3.906h-.525a38.603 38.603 0 00-.01-.556c-.024-1.076-.096-3.217-.307-4.662-.402-.705-.734-1.463-.619-1.754.205-.512 2.048-1.638 2.048-1.638s1.32 6.936 2.1 7.132c1.86.467 3.732.177 3.732.177s1.328.645.982 1.301" fill="#2B478B"/><path d="M536.24 106.407s2.538-8.667 1.739-17.015c-.8-8.346-7.17-12.613-7.17-12.613s-6.56.552-7.406 2.386c-.845 1.834 1.989 22.693.496 26.333 0 0 4.917 3.39 12.34.91" fill="#E7F0FD"/><path d="M531.9 77.656l-.001-.005c-.274-1.23-.237-2.4-.18-3.053.029-.335.062-.534.062-.534l-.062-.02-5.271-1.604c-.077 1.673-.174 2.913-.277 3.833-.05.435-.098.799-.148 1.102 1.02.444 1.864.751 2.561.954 1.89.549 2.71.33 3.06 0a.82.82 0 00.256-.673" fill="#D9935C"/><path d="M531.72 74.045v.553s-3.516.04-5.55 1.675c.104-.92.2-2.16.278-3.832l5.271 1.604" fill="#CB8757"/><path d="M533.174 74.425s-6.386 1.281-7.124-2.703c-.737-3.985-2.058-6.503 1.989-7.49 4.046-.986 5.122.388 5.691 1.658.57 1.27 1.086 8.1-.556 8.535" fill="#D9935C"/><path d="M531.266 62.864c-.54.013-.935.045-1.216.091-1.403-.446-4.081-.8-6.217 1.878-3.038 3.81 3.519 10.2 3.519 10.2-.875-1.161-1.128-5.293 2.166-7.36 2.042-1.28 2.125-2.635 1.892-3.48l.09.027s2.631.323 2.782 3.357c0 0 1.152-4.81-3.016-4.713" fill="#2B478B"/><path d="M520.032 106.921c2.191.449 5.69.221 8.283-.52.862-.246 1.623-.55 2.197-.903 2.319-1.424 3.445-11.966 3.044-15.956-.396-3.984-7.514-12.29-7.514-12.29-1.647 1.221-1.974 4.184-2.962 7.91-2.378 8.969-3.048 21.76-3.048 21.76" fill="#B64C41"/><path d="M520.032 106.921c2.191.449 5.69.221 8.283-.52.952-1.352 1.713-3.003 2.12-5.019 1.18-5.815-3.474-12.127-7.355-16.22-2.378 8.969-3.048 21.76-3.048 21.76" fill="#AA413E"/><path d="M521.388 104.634l5.165 3.723c.638.46 1.538.315 2-.323l5.76-7.972a1.433 1.433 0 00-.324-1.997l-5.164-3.724a1.44 1.44 0 00-2 .323l-5.76 7.971a1.435 1.435 0 00.323 1.999" fill="#233862"/><path d="M529.413 102.057s2.524-.255 2.836.17c.312.426.029 2.068-1.39 2.239-1.418.17-3.034-.992-3.034-.992l1.588-1.417" fill="#DA935B"/><path d="M526.042 77.253s-4.088.65-6.035 4.688c-1.947 4.039-4.043 14.433-3.519 15.405.524.973 6.813 6.207 11.979 6.88 0 0 1.123-1.42 1.047-2.692 0 0-6.962-4.337-7.56-5.534-.6-1.196 5.314-11.142 5.24-12.862-.075-1.72-1.152-5.885-1.152-5.885" fill="#B64C41"/><path d="M448.479 173.38l.645-.746s-3.636-4.032-4.753-6.084l-3.07-5.664-4.019.994 5.101 7.22 6.096 4.28" fill="#D9935C"/><path d="M482.024 173.577c-.04.428-.278.703-.655.868l-.006.002c-.696.304-1.863.235-3.126.065-.161-.02-.306-.039-.437-.05a3.666 3.666 0 00-.1-.008l-.08-.006c-1.256-.083-1.158.303-3.56.292-2.736-.015-3.662-.936-3.787-1.328-.106-.333 1.093-.59 2.433-.889.065-.014.129-.03.195-.043l.536-.122c1.598-.374 3.18-.847 3.703-2.38.554-1.625.422-6.45.422-6.45h4.848s-1.273 5.33-1.139 6.865c.073.821.465 1.055.617 1.764l.03.15c.073.415.145.841.106 1.27" fill="#AD7041"/><path d="M418.443 64.06s2.445-2.6 5.514-.133c0 0-1.787-.308-5.514.133" fill="#89BCCB"/><path d="M487.664 121.435c-.41 2.294-.993 4.665-1.5 7.13-.815 3.964-1.43 8.177-.8 12.711.08.584.124 1.228.134 1.92.122 8.015-3.463 22.541-3.463 22.541s-.974.42-2.606.34c-.84-.042-2.13-.584-2.13-.584s-.339-9.006-.36-21.117c-.015-8.78-1.74-20.339-2.089-27.131-.21-4.11.247-9.588.247-9.588s7.147-5.74 9.714-2.803c2.536 2.902 4.384 7.999 2.853 16.58" fill="#415DA5"/><path d="M485.364 141.276c.08.584.124 1.228.134 1.92-5.353-7.745-6.536-24.637-6.536-24.637l5.879 2.85s.644 3.167 1.323 7.157c-.815 3.963-1.43 8.176-.8 12.71" fill="#355493"/><path d="M424.02 62.446c-.927-.526-2.038-.584-2.815-.538.2-.206.594-.281.594-.281-.482-.072-1.558.406-1.558.406-6.703-2.58-7.756 7.278-7.615 9.568.14 2.29-2.252 3.038-5.74 4.843-6.653 3.443-7.237 8.053-7.237 8.053.052.03.106.065.163.105.33-.559 1.01-1.608 1.583-1.766-.022.05-.677 1.444-.922 2.243 1.963 1.491 5.635 4.796 8.194 7.14-.011-.459.007-1.109.174-1.452l.317 1.901a345.528 345.528 0 012.313 2.143c-.168-1.851 8.38-11.618 12.84-14.543 1.086-1.597 1.472-4.417 1.5-4.64-.187 2.237-.57 3.492-.912 4.198 3.777-3.472 1.578-15.985-.879-17.38" fill="#233862"/><path d="M424.387 80.431c.022.01-2.493 1.121-4.13.674-1.539-.42-2.546-2.413-2.524-2.418.652-.13.84-1.024.826-4.87l.295.058 4.956.98s-.113 1.559-.116 3.026c-.003 1.232.41 2.419.693 2.55" fill="#D9935C"/><path d="M423.81 74.856s-.113 1.558-.116 3.025c-2.774-.078-4.24-2.605-4.84-4.006l4.956.98" fill="#CB8757"/><path d="M418.342 73.336s-1.453-2.293-1.802-4.255c-.25-1.4.465-6.59 5.687-5.842 0 0 1.516.149 2.942 1.11 1.133.765 2.77 2.417.94 6.946l-.476 1.53-7.29.511" fill="#233862"/><path d="M443.561 164.57l-2.626.081-2.843.087s-6.569-7.304-10.253-19.013a33.873 33.873 0 00-.272-.827c-2.017-5.872-6.196-13.243-8.399-19.915a110.408 110.408 0 01-1.21-3.904c-1.623-5.634-2.093-9.333-2.526-13.285l15.905.127s2.568 26.987 12.224 56.65" fill="#89BCCB"/><path d="M430.22 109.596s-6.81 3.456-14.903.911c-.095-.03-1.637-17.898-1.824-19.951a944.86 944.86 0 00-.93-9.698c2.204-.501 3.273-1.578 5.569-2.438.528.657 2.106 1.291 3.507 1.26 1.612-.036 2.145-.72 2.062-1.473 1.718.955 3.078 1.852 3.078 1.852 1.46 2.534 3.442 29.537 3.442 29.537" fill="#E7F0FD"/><path d="M424.736 76.245s-6.561.108-6.566-3.974c-.004-4.083-.855-6.818 3.335-7.06 4.188-.241 5.004 1.316 5.338 2.678.333 1.362-.401 8.223-2.107 8.356" fill="#D9935C"/><path d="M426.647 65.619c-1.012-1.226-1.777-.96-2.207-.591-1.418-2.117-5.9.944-5.9.944-.439 2.93-2.554 4.607-2.554 4.607s1.197.738 3.953.03c2.17-.557 3.744-3.642 4.317-4.931.39.346 1.214 1.147 1.46 1.931.328 1.04.475 3.18 1.1 3.107 0 0 1.352-3.256-.17-5.097" fill="#233862"/><path d="M451.137 83.02s.925-3.329 4.59-2.858c.42.131 1.65.62.864 1.935-.579.969-.83.469-1.74 1.77-.91 1.303-1.9 1.597-3.03 1.44l-.684-2.286M419.82 172.433a249.723 249.723 0 00-.648-3.348l.098-7.528h-4.576l1.712 7.206c.036.334.13 1.631-.351 3.008 0 0-.44 2 1.532 2.037 1.972.038 2.456-.149 2.232-1.375" fill="#D9935C"/><path d="M420.006 174.681h-4.096c-.217-1.008.145-2.876.145-2.876 2.232 2.045 3.63-.05 3.63-.05.344.826.324 2.723.321 2.926M451.361 174.672h-5.028c-.453-.384-.883-1.184-1.412-2.24-.297-.594-.963-.92-1.647-1.1v3.357h-1.032l-.005-.017-.972-3.55c-.644-1.183-.147-2.237.307-3.171.527-.001 2.04.343 4.726 3.365.883.993 1.857 1.347 2.826 1.318.013.009.026.015.04.02 1.553.7 2.043 1.56 2.197 2.018M451.137 83.02s-4.306 2.406-5.844 3.1c-.878.395-2.896 1.339-4.318 2.006a2.221 2.221 0 01-2.631-.566c-2.334-2.724-8.4-8.629-14.643-9.353 0 0 3.785 9.363 3.896 11.258.112 1.896.447 31.002.447 31.002s-.223 1.338 2.344.78c2.568-.558 3.238-1.115 3.238-1.115s-2.456-17.954-1.786-24.198c.132-1.232.011-2.616-.266-4.045l.066.04c3.788 2.282 8.238 3.298 8.238 3.298s2.936-1.28 7.074-4.195c.29-.204.587-.417.889-.638 1.443-1.056 3.98-5.086 3.98-5.086l-.684-2.287" fill="#B64C41"/><path d="M440.935 164.651l-2.843.087s-6.569-7.304-10.253-19.013a33.873 33.873 0 00-.272-.827c-2.017-5.872-6.196-13.243-8.399-19.915a110.408 110.408 0 01-1.21-3.904l2.342-1.776s7.033 11.375 9.21 22.08c1.89 9.297 9.465 20.486 11.425 23.268" fill="#6A99A7"/><path d="M420.545 142.38c.04 5.205-.223 17.173-.902 22.127h-2.519c-1.392 0-2.086-.02-2.086-.02-1.703-8.615-2.914-15.742-3.796-21.885-.723-5.04-1.367-9.361-1.86-13.082-.499-3.743-.845-6.878-.97-9.526a52.44 52.44 0 01-.04-1.217c-.008-.395-.01-.78-.007-1.154l13.743-1.338c-.173 9.12-1.585 23.07-1.563 26.095" fill="#89BCCB"/><path d="M417.124 164.507c-1.392 0-2.086-.02-2.086-.02-1.703-8.615-2.914-15.742-3.796-21.885-.723-5.04-1.367-9.361-1.86-13.082-.499-3.743-.845-6.878-.97-9.526l5.044 2.963s-3.22 1.134-1.991 9.72c1.228 8.587 3.95 30.615 5.66 31.83" fill="#6A99A7"/><path d="M417.773 119.91s-.968 3.493-4.316 3.047c-3.35-.447-8.113-2.453-8.113-2.453s1.432-4.518 3.212-10.452c2.153-7.185 4.821-16.448 6.078-22.29.353-1.638.594-3.005.684-3.984l2.814-5.358s4.107 9.261 4.33 11.603c.223 2.342-4.69 29.886-4.69 29.886" fill="#B64C41"/><path d="M417.625 94.93c-.15 3.792-1.043 11.15-9.006 15.091l-.063.03c2.153-7.184 4.821-16.447 6.078-22.29 1.462 2.184 3.072 5.081 2.99 7.168" fill="#AA413E"/><path d="M497.49 173.542c-.04.426-.277.7-.654.864a.011.011 0 01-.006.002c-.696.304-1.864.234-3.126.065a9.954 9.954 0 00-.437-.05l-.102-.01a12.578 12.578 0 01-.078-.005c-1.256-.083-1.158.303-3.56.29-2.736-.015-3.662-.934-3.788-1.324-.106-.333 1.093-.59 2.433-.885l.195-.044c.179-.039.358-.08.536-.12 1.598-.374 3.179-.844 3.702-2.371.554-1.62-.24-6.354-.24-6.354l4.49-.372s-.277 5.394-.144 6.924c.073.817.49 1.267.641 1.975.012.05.022.1.031.149.074.415.146.839.106 1.266" fill="#AD7041"/><path d="M496.853 166.147s-1.154.546-1.985.712c-.831.166-2.558-.158-2.558-.158-.312-3.488-1.036-8.942-2.441-15.096-1.602-7.007-3.985-15.287-7.306-23.127-.71-1.675-3.636-9.6-4.132-11.601-1.502-6.043.006-5.393.006-5.393l13.123-1.537s1.616.83 2.361 9.364c.223 2.555.25 13.59.586 15.683.318 1.981.69 3.628 1.127 4.699 2.438 5.977 1.22 26.454 1.22 26.454" fill="#415DA5"/><path d="M497.486 173.558c-.04.436-.278.715-.656.882a.008.008 0 01-.005.002c-.738.267-1.892.21-3.133.06a7.837 7.837 0 00-.542-.052l-.08-.007c-1.008-.067-1.146.172-2.397.263h-1.984c-2.12-.173-2.874-.959-2.987-1.315-.107-.338 1.096-.6 2.44-.902.354.175 2.044.95 4.146.743 1.849-.18 3.736-.929 5.062-1.115.012.05.02.1.03.151.074.423.146.855.106 1.29M482.02 173.587c-.041.444-.28.729-.657.902l-.006.001c-.738.274-1.889.219-3.126.07-.162-.02-.308-.034-.44-.044l-.103-.008c-.026-.002-.053-.003-.078-.006-.788-.052-1.044.086-1.718.195h-3.345c-1.594-.268-2.19-.928-2.289-1.249-.104-.345 1.097-.616 2.438-.93.352.18 2.039.966 4.138.749 1.844-.188 3.73-.959 5.054-1.153.01.052.02.103.028.155.073.432.144.873.103 1.318" fill="#B84C42"/><path d="M503.347 110l.836 1.353c.434.497.55.777.894.945.831.409 2.364 1.456 2.48 3.657 0 0-.026 1.245-.862.842-.836-.404-.47-.366-1.659-.91-1.188-.544-1.628-2.274-1.732-2.863l-.97-1.272 1.013-1.752" fill="#AD7041"/><path d="M476.773 70.696c-.443-3.616.688-9.402 7.913-8.477 7.224.924 9.502 8.017 8.044 11.17-1.457 3.154 2.098 3.915 3.214 7.306.958 2.913 1.293 6.53 2.845 8.154 5 5.234-4.802 13.282-10.713 11.586-10.765-3.092-12.151-3.553-11.77-12.002.197-4.329 3.569-6.006 1.428-7.258-5.172-3.026.043-2.297-.96-10.479" fill="#AA443E"/><path d="M488.972 104.654c1.474 3.743 2.035 7.065 2.035 7.065l-15.993.199s.224-12.849-.513-17.396c-.737-4.547 4.445-14.542 4.445-14.542.095 0 .707-.112 1.79-.177a7.91 7.91 0 00.375-1.537c.157-1.063.11-2.019.058-2.55-.028-.277-.054-.438-.054-.438l5.225-1.588.15-.046c.065 1.42.145 2.53.23 3.398.25 2.535.548 3.013.64 3.102 1.349.2 2.845.49 4.478.907 0 0-4.34 19.86-2.866 23.603" fill="#D9935C"/><path d="M499.354 100.762c-.801-5.52-3.77-16.857-5.764-18.711-1.764-1.64-5.568-1.79-5.568-1.79h-.001c-.79 1.237-3.495 4.308-6.852 3.755-1.81-.299-2.178-3.552-2.22-3.987l.013-.05-.016.003v-.002l-.04.008c-.528.078-4.737.762-5.984 2.909-1.845 3.17-3.853 12.68-5.825 12.54-.906-.064-10.019-3.486-10.019-3.486s-1.518 1.421-1.227 3.164c0 0 4.499 3.01 8.305 4.93.526.266 1.041.511 1.527.724 1.372.602 2.527.95 3.158.802.182-.043.374-.125.574-.241.825-.476 1.789-1.522 2.712-2.715.614-.793 1.21-1.65 1.737-2.448l.033-.05c.225 3.024.452 6.314.217 8.893-.179 1.962-.308 6.21.029 7.308.702 2.289 5.865 2.893 10.684 2.654 2.271-.112 3.876-.242 5.044-.511 1.693-.389 2.468-1.07 3.025-2.413.532-1.28-1.926-7.287-2.16-9.916-.213-2.384.152-4.323.755-6.229 1.7 3.924 3.43 6.731 3.657 7.34.478 1.28 7.74 9.376 7.74 9.376s.587-.12 1.053-.424c.48-.313.72-.728.72-.728-1.281-3.04-5.307-10.705-5.307-10.705" fill="#EBBA56"/><path d="M492.896 112.048c-.557 1.343-1.332 2.024-3.025 2.413-2.266-.436-3.759-4.598-4.529-6.647-.886-2.361 3.731-14.5 5.006-14.39.948.083 1.111 1.689 1.143 2.479-.614 1.925-.97 3.822-.755 6.23.234 2.628 2.692 8.635 2.16 9.915" fill="#E7A329"/><path d="M457.144 92.906s-.778-1.903-1.634-1.98c-.855-.079-3.577-.506-3.772-.117-.194.388 0 1.786.584 2.291.583.505 4.199 1.32 4.199 1.32l.623-1.514" fill="#D9935C"/><path d="M473.864 96.167a40.743 40.743 0 01-1.737 2.448c-.88 1.083-1.852 2.13-2.712 2.715-.2.116-.392.198-.574.24-.63.15-1.786-.2-3.158-.8.817.06 1.618.03 2.406-.037 1.381-.117 1.782-1.61 3.965-3.849 1.305-1.338 1.7-1.132 1.81-.717" fill="#E7A329"/><path d="M424.394 109.708l-.483-.03c0-.014.087-1.42-.005-2.912-.114-1.884-.464-3.099-.98-3.42l.256-.411c1.532.952 1.25 6.18 1.212 6.773" fill="#415DA5"/><path d="M486.488 73.924s-2.028 3.652-5.377 4.342c.157-1.063.11-2.019.058-2.55-.028-.277-.054-.438-.054-.438l5.225-1.588.148.234" fill="#CB8757"/><path d="M430.39 102.527c-.259-.258-1.1-.161-1.1-.161l-3.392.6s-3.718-.858-7.5-2.13a87.699 87.699 0 00-2.204-.711l-.883 4.974c.38.088.781.173 1.204.255 2.465.473 5.564 0 9.696 0 .001 0 1.62.47 2.447.21.827-.261 1.99-2.779 1.731-3.037" fill="#D9935C"/><path d="M418.397 100.836c-.578.905-1.543 2.63-1.882 4.518-3.937-.758-5.986-1.862-6.902-2.5l-.703-.67c-1.98-3.945-.123-15.056-.123-15.056.9-4.317 2.352-6.188 2.352-6.188 2.325-1.173 6.983-2.515 6.993-2.52l-2.701 10.855-1.524 10.25c.976.18 2.661.696 4.49 1.311" fill="#B64C41"/><path d="M425.156 109.563l-6.742-1.053c1.7-4.183 4.727-6.255 4.761-6.276l-.543-.14c-.141.09-3.025 1.996-4.717 6.337l-1.302-.203a1.166 1.166 0 00-1.33.968l-.868 5.55a1.165 1.165 0 00.969 1.327l8.543 1.336a1.167 1.167 0 001.33-.969l.87-5.55a1.166 1.166 0 00-.97-1.327" fill="#415DA5"/><path d="M479.711 75.643s6.436 1.291 7.179-2.724c.743-4.016 2.074-6.554-2.003-7.548-4.077-.994-5.162.39-5.736 1.67-.575 1.28-1.094 8.163.56 8.602" fill="#D9935C"/><path d="M488.135 65.638c-1.088-1.224-2.692-3.041-2.692-3.041s-3.199-1.07-6.373 2.055c-1.368 1.346-1.162 3.993-.429 5.529 0 0 1.125-3.291 3.173-4.009.456-.16.888-.426 1.285-.743.25.626.752 1.511 1.761 2.613 2.117 2.311 1.704 6.985 1.704 6.985s3.475-7.251 1.571-9.39" fill="#AA443E"/><path d="M481.716 73.668s-.172.476-1.383.26c0 0-1.018-.182-.924-.716 0 0 1.037-.269 2.307.456" fill="#FFF"/><path d="M446.952 91.032c-4.138 2.915-7.074 4.195-7.074 4.195s-4.45-1.016-8.238-3.298c-.32-.675-.493-1.524.528-1.694 1.745-.29 6.301 3.922 7.465 3.777.81-.1 4.902-1.896 7.32-2.98" fill="#AA413E"/><path d="M589.071 174.672h-10.364a.563.563 0 01-.106-.035c-.55-.26-.56-1.98-.507-3.073.025-.53.065-.912.065-.912s3.532-2.947 4.072-.758c.104.42.295.793.55 1.123 1.073 1.394 3.251 2.036 4.599 2.225 1.556.218 1.682 1.29 1.691 1.43" fill="#233862"/><path d="M588.755 116.858l-.084.74c-.215 1.89-.817 7.197-1.514 13.425-.03.253-.056.51-.086.768l-.922 8.27-.096.87c-.215 1.941-.424 3.851-.623 5.664-.659 6.035-1.182 10.995-1.29 12.449-.326 4.48-1.185 11.884-1.185 11.884s-.059.034-.173.09c-.532.253-2.25.936-4.688.546a8.583 8.583 0 01-.39-.072s-.848-3.248-1.683-8.018c-.172-.978-.342-2.02-.506-3.113a110.077 110.077 0 01-.717-5.83 90.313 90.313 0 01-.305-4.25c-.008-.177-.014-.358-.021-.536-.013-.339-.026-.686-.042-1.045-.006-.192-.014-.387-.022-.583l-.006-.2c-.305-8.389-.618-21.644-.767-28.34-.03-1.291-.053-2.338-.068-3.06a209.868 209.868 0 01-.023-1.106l9.579.91 5.632.537" fill="#2B478B"/><path d="M581.15 130.81c-.83 6.515-4.228 22.886-5.635 29.551a110.077 110.077 0 01-.717-5.83 90.313 90.313 0 01-.305-4.25c-.008-.177-.014-.358-.021-.536-.013-.339-.026-.686-.042-1.045-.006-.192-.014-.387-.022-.583l-.006-.2c-.305-8.389-.618-21.644-.767-28.34 4.594-1.387 8.924.145 7.514 11.234M574.405 174.672H563.48c-.47-.42-.457-2.124-.4-3.174.027-.496.064-.846.064-.846s3.532-2.947 4.073-.758c.16.645.528 1.18 1.01 1.62 1.154 1.054 2.962 1.563 4.137 1.728 1.356.19 1.888 1.096 2.04 1.43" fill="#233862"/><path d="M582.56 116.188s-5.51 26.709-9.8 39.256c-4.29 12.548-4.344 16.033-4.344 16.033s-3.936.853-5.67-.138c0 0-.99-23.785 1.604-30.103 1.717-4.177 2.13-6.178 1.678-15.751-.152-3.23.044-10.148.044-10.148l16.487.851" fill="#2B478B"/><path d="M559.651 115.201l.081 2.524s-2.398 2.73-.016 5.928c0 0 1.07 1.237 1.578.129.506-1.108.168-.765.914-2.31.745-1.543.137-3.538-.253-4.221l.109-2.027-2.413-.023" fill="#AB7041"/><path d="M584.159 76.254c-.94-2.505-.74-4.06-.74-4.06l-5.653-3.88c-.489 4.794-1.34 6.08-1.295 7.97 0 .025 2.245 2.509 4.207 2.5 1.884-.007 3.49-2.506 3.48-2.53" fill="#9C5F33"/><path d="M584.758 72.403s-6.881.314-7.011-3.97c-.13-4.283-1.106-7.127 3.282-7.509 4.388-.381 5.292 1.227 5.683 2.647.392 1.419-.167 8.64-1.954 8.832" fill="#AB7041"/><path d="M577.452 70.344s.352-.268-1.018-2.341c-1.369-2.074-2.02-1.505-2.035-3.715-.018-2.21-1.145-4.232 1.423-5.67 2.567-1.439 3.392-1.715 4.932-2.034 1.54-.319 4.476.123 5.39 1.114 1.65 1.791 1.434 6.405.568 5.873-.865-.533-5.113-1.819-5.485-.855-.37.964-2.382 6.883-3.775 7.628" fill="#233862"/><path d="M601.77 105.64c-.298-.198-3.227-2.174-3.798-2.934l-.665-.774c-2.104-2.717-5.75-8.95-5.75-8.95s-.04.252-.106.783c-.005-.062-.214-2.74 1.255-1.464 1.487 1.291 6.11 9.768 7.303 11.363.466.621 1.127 1.336 1.761 1.976M571.96 113.993c-1.033 1.526-3.207 2.028-5 2.166-.212-.05-.423-.098-.634-.146-.776-.175-1.352-.797-1.142-1.562.727-2.649 2.174-8.07 2.397-10.028.347-3.035.727-11.177.782-12.379.403-.004 2.68.266 3.21 6.785.58 7.159 2.314 12.317.388 15.164" fill="#4A75CB"/><path d="M658.405 154.382c0 .402-.199.678-.536.863l-.005.002c-.623.342-1.715.377-2.904.325-.152-.006-.289-.01-.412-.01h-.094l-.074.002c-1.177.028-1.052.38-3.288.572-2.55.217-3.488-.562-3.64-.917-.125-.3.968-.642 2.19-1.033.06-.018.119-.038.179-.057.162-.051.326-.105.489-.158 1.455-.483 2.887-1.056 3.244-2.527.38-1.56-.76-5.915-.76-5.915l4.04-.436s.39 4.552.643 5.97c.137.758.48 1.36.681 2.009.014.045.029.091.041.136.103.382.207.771.206 1.174" fill="#E49963"/><path d="M658.405 154.382c0 .402-.199.678-.536.863l-.005.002c-.662.306-1.737.35-2.902.318a9.61 9.61 0 00-.414-.003h-.094l-.074.002c-1.177.028-1.052.38-3.288.572-2.55.217-3.488-.562-3.64-.917-.125-.3.968-.642 2.19-1.033a7.56 7.56 0 003.911.334c1.7-.32 3.39-1.165 4.605-1.448.014.045.029.091.041.136.103.382.207.771.206 1.174" fill="#C65447"/><path d="M632.194 149.231c-.225 1.121-1.824.934-3.61.498-.973-.238-1.29-.192-1.787-.147-.416.039-.959.077-2.118-.052-2.542-.281-3.313-1.228-3.39-1.606-.07-.334 1.187-.453 2.534-.608l.51-.06c1.522-.192 2.636-1.173 4.018-1.977 1.309-.764 3.262-3.872 3.262-3.872l3.487.276s-1.83 2.776-2.537 3.983c-.416.71-.394 1.65-.342 2.374.027.394.052.797-.027 1.191" fill="#E49963"/><path d="M628.584 149.729c-1.787-.435-1.362.083-3.905-.199-2.542-.281-3.313-1.228-3.39-1.606-.07-.334 1.187-.453 2.534-.608l.013.026s1.525 1.08 3.641 1.13c1.725.042 3.552-.451 4.744-.432.027.394.052.797-.027 1.191-.225 1.121-1.824.934-3.61.498" fill="#C65447"/><path d="M639.952 98.072s-.83-2.032-1.744-2.115c-.914-.083-3.822-.54-4.03-.125-.207.415 0 1.909.624 2.448.623.54 4.486 1.41 4.486 1.41l.664-1.618" fill="#FFB27D"/><path d="M645.557 126.96l7.515 20.201s1.155.112 2.261-.207c1.02-.292 2.186-1.062 2.186-1.062s-1.864-19.398-5.282-23.433c-3.418-4.034-6.68 4.5-6.68 4.5" fill="#365DA4"/><path d="M675.28 118.787s-21.593-7.294-26.41-5.742c-4.815 1.552-19.275 30.288-19.275 30.288s.326.435 1.217.768c.829.31 2.834.291 2.834.291s13.05-11.173 14.604-14.432c1.554-3.26 2.174-6.363 3.728-6.052 1.554.31 20.04 7.604 24.235 3.259 4.194-4.346 3.098-9.991 3.098-9.991l-4.03 1.61" fill="#466AA5"/><path d="M662.084 84.856c-.344-.711-.73-1.974-.918-4.226.03.223.417 3.064 1.51 4.671 4.491 2.945 13.1 12.78 12.93 14.643 0 0 3.031-5.137 3.083-5.167 0 0 5.594-7.105-1.036-11.174-3.369-2.068-3.351-4.723-3.21-7.028.142-2.307-.92-12.233-7.668-9.635 0 0-1.083-.48-1.568-.409 0 0 .396.076.597.284-.782-.046-1.9.011-2.834.541-2.474 1.405-4.688 14.004-.886 17.5" fill="#B74B42"/><path d="M662.943 85.448c-.023.01 2.168 1.146 3.816.696 1.55-.422 2.563-2.43 2.542-2.434-.657-.13-.847-1.032-.832-4.904l-.297.059-4.99.986s.113 1.57.117 3.047c.003 1.24-.072 2.417-.356 2.55" fill="#FFB27D"/><path d="M663.182 79.851s.113 1.57.117 3.047c2.792-.079 4.268-2.623 4.873-4.033l-4.99.986" fill="#E8945B"/><path d="M668.687 78.322s1.463-2.31 1.814-4.284c.251-1.41-.467-6.636-5.725-5.884 0 0-1.527.15-2.962 1.119-1.141.77-2.79 2.433-.948 6.993l.48 1.54 7.341.516" fill="#B74B42"/><path d="M662.25 81.25s6.606.11 6.61-4.001c.005-4.11.86-6.865-3.357-7.108-4.218-.244-5.04 1.324-5.375 2.696-.335 1.371.403 8.28 2.122 8.414" fill="#FFB27D"/><path d="M668.488 70.907s-4.513-3.082-5.94-.951c-.433-.37-1.204-.64-2.224.595-1.53 1.854-.168 5.132-.168 5.132.629.074.777-2.081 1.107-3.128.248-.79 1.077-1.596 1.47-1.944.575 1.298 2.16 4.403 4.345 4.965 2.777.713 3.98-.03 3.98-.03s-2.129-1.69-2.57-4.64" fill="#B74B42"/><path d="M677.653 103.201c.653-2.73-1.565-8.025-3.878-12.41-2.1-3.974-4.28-7.197-4.474-7.081-5.537 3.282-6.038.553-6.038.553s-5.03.667-6.453 3.116c-1.97 3.386-4.115 13.548-6.223 13.399-.968-.07-10.704-3.725-10.704-3.725s-1.622 1.518-1.311 3.38c0 0 4.806 3.215 8.872 5.267 2.15 1.085 4.093 1.844 5.007 1.63 1.851-.436 4.745-4.724 6.307-7.249l.01-.017c1.996 11.28-.717 13.849.656 15.039 1.45 1.256 3.522-.6 8.079 1.374 2.989 1.295 7.138 3.168 9.93 3.495 1.465.171 2.557-.084 2.913-1.072 1.036-2.87-3.935-10.496-2.693-15.699" fill="#F1A34F"/><path d="M663.718 78.759s-.123.522-1.423.442c0 0-1.093-.068-1.059-.642 0 0 1.059-.408 2.482.2" fill="#FFF"/><path d="M680.346 118.9c-.356.988-1.448 1.243-2.913 1.072-1.933-.842-10.282-4.073-10.188-6.262.139-3.242 1.604-3.345.57-7.345-.833-3.214 4.82-9.818 6.052-11.117 2.313 4.384 4.439 5.224 3.786 7.953-1.242 5.203 3.73 12.828 2.693 15.699M658.758 100.081c-1.562 2.525-4.456 6.813-6.307 7.248-.914.215-2.857-.544-5.007-1.63 1.57.406 3.094.394 4.575.252 1.606-.156 2.071-2.121 4.609-5.07 1.646-1.912 2.05-1.431 2.13-.8" fill="#E58638"/><path d="M666.493 106.286s-1.398-1.086-2.718-.827c-1.321.258-1.968 1.164-1.916 1.578.05.414.75 1.577 1.76 1.681 1.01.103 3.884-.62 3.884-.62l-1.01-1.812" fill="#FFB27D"/><path d="M669.3 83.71s5.385.331 7.249 2.928c2.623 3.655 7.181 18.58 5.938 21.993l-16.382-.068s-.397-1.854.156-2.751c.552-.896 9.528-2.344 9.943-2.758.414-.414-5.18-8.07-5.18-9.312 0-1.241-1.723-10.032-1.723-10.032" fill="#F1A34F"/><path d="M690.427 107.189s-1.496-.497-2.218-.348c-.723.15-2.965 1.195-3.015 1.418a.815.815 0 000 .386h5.233s1.17-.228 1.369-.916c.199-.69-1.369-.54-1.369-.54" fill="#FFB27D"/><path d="M709.95 173.049c-.04.428-.278.703-.655.868l-.005.002c-.697.305-1.866.235-3.129.066a11.806 11.806 0 00-.437-.051l-.102-.008-.078-.006c-1.258-.083-1.159.305-3.562.292-2.739-.014-3.666-.936-3.791-1.328-.106-.334 1.093-.592 2.434-.89.066-.014.13-.03.196-.043l.536-.122c1.599-.375 3.182-.847 3.705-2.382.555-1.627.424-6.455.424-6.455h4.852s-1.275 5.333-1.14 6.871c.072.821.465 1.054.616 1.765l.03.15c.073.415.146.842.106 1.27" fill="#AD7041"/><path d="M715.595 120.866c-.41 2.296-.993 4.668-1.5 7.136-.816 3.968-1.431 8.182-.801 12.72.08.585.123 1.23.134 1.923.121 8.021-3.466 22.558-3.466 22.558s-.975.42-2.608.34c-.842-.042-2.132-.584-2.132-.584s-.339-9.013-.36-21.134c-.015-8.786-1.742-20.355-2.09-27.152-.211-4.114.247-9.595.247-9.595s7.152-5.745 9.722-2.805c2.537 2.904 4.386 8.005 2.854 16.593" fill="#415DA5"/><path d="M713.294 140.723c.08.584.123 1.229.134 1.922-5.357-7.753-6.542-24.657-6.542-24.657l5.883 2.852s.645 3.17 1.325 7.162c-.815 3.968-1.43 8.182-.8 12.72" fill="#355493"/><path d="M725.425 173.049c-.04.428-.278.703-.655.868l-.006.002c-.696.305-1.865.235-3.128.066a11.593 11.593 0 00-.539-.06l-.078-.005c-1.258-.083-1.16.305-3.562.292-2.74-.014-3.666-.936-3.792-1.328-.106-.334 1.094-.592 2.435-.89.064-.014.13-.03.195-.043l.537-.122c1.599-.375 3.182-.847 3.705-2.382.555-1.627-.238-6.38-.238-6.38l4.494-.375s-.28 5.416-.145 6.953c.072.82.49 1.272.64 1.983.012.05.022.1.03.15.074.415.146.842.107 1.27" fill="#AD7041"/><path d="M724.792 165.613s-1.156.547-1.988.713c-.832.166-2.56-.16-2.56-.16-.312-3.49-1.035-8.947-2.443-15.106-1.602-7.012-3.987-15.298-7.311-23.145-.71-1.676-3.638-9.609-4.135-11.61-1.502-6.048.006-5.397.006-5.397l13.132-1.54s1.618.832 2.364 9.373c.223 2.557.25 13.6.587 15.694.318 1.984.69 3.631 1.128 4.703 2.44 5.982 1.22 26.475 1.22 26.475" fill="#415DA5"/><path d="M725.425 173.049c-.04.428-.278.703-.655.868l-.006.002c-.736.263-1.886.206-3.125.058a12.191 12.191 0 00-.542-.051l-.078-.006c-1.258-.083-1.16.305-3.562.292-2.74-.014-3.666-.936-3.792-1.328-.106-.334 1.094-.592 2.435-.89.352.174 2.04.937 4.139.733 1.843-.177 3.727-.915 5.05-1.099l.03.15c.073.415.145.842.106 1.27M709.95 173.049c-.04.428-.278.703-.655.868l-.005.002c-.737.263-1.887.206-3.126.058a12.377 12.377 0 00-.44-.043l-.102-.008-.078-.006c-1.258-.083-1.159.305-3.562.292-2.739-.014-3.666-.936-3.791-1.328-.106-.334 1.093-.592 2.434-.89.353.174 2.04.937 4.139.733 1.843-.177 3.727-.915 5.05-1.099l.03.15c.073.415.146.842.106 1.27" fill="#B84C42"/><path d="M704.696 70.088c-.444-3.618.688-9.409 7.919-8.483 7.23.925 9.51 8.023 8.05 11.179-1.457 3.156 2.1 3.917 3.217 7.311.959 2.916 1.293 6.536 2.846 8.16 5.005 5.239-4.806 13.293-10.72 11.595-10.774-3.094-12.161-3.556-11.778-12.01.196-4.333 3.57-6.011 1.427-7.265-5.175-3.028.043-2.298-.96-10.487" fill="#2B478B"/><path d="M715.321 79.565l-1.988 5.14-4.304.21-2.143-3.207c2.432-1.841 2.329-5.365 2.21-6.596-.028-.277-.055-.438-.055-.438l5.38-1.635a65.19 65.19 0 00.23 3.4c.3 3.053.67 3.126.67 3.126" fill="#FFB27D"/><path d="M706.87 79.38c.276 0 4.972-.955 12.902 1.071 0 0-4.344 19.876-2.867 23.621 1.475 3.747 2.035 7.071 2.035 7.071l-16.005.199s.224-12.859-.513-17.409c-.738-4.55 4.448-14.554 4.448-14.554" fill="#FFB27D"/><path d="M718.67 101.548c.233 2.631 2.695 8.644 2.162 9.924-.558 1.345-1.333 2.026-3.03 2.415-1.168.27-2.774.399-5.047.512-4.822.239-9.988-.366-10.691-2.655-.337-1.1-.208-5.352-.029-7.315.369-4.062-.405-9.891-.519-13.663-.092-3.146 1.807-10.305 1.807-10.305s.858-.54 3.547-1.082c0 0 .282 3.72 2.225 4.04 3.36.553 6.067-2.52 6.857-3.758 0 0 3.859.972 4.991 2.262 1.072 1.22-.395 10.265-.72 11.133a42.926 42.926 0 00-.78 2.2c-.614 1.927-.989 3.884-.773 6.292" fill="#F1A34F"/><path d="M732.407 107.2s1.496-.49 2.217-.343c.723.148 2.965 1.184 3.015 1.406.05.222 0 .382 0 .382h-5.232s-1.17-.226-1.37-.908c-.199-.683 1.37-.536 1.37-.536" fill="#FFB27D"/><path d="M714.65 76.78c-1.963-1.314-4.43-1.38-5.555-1.327-.027-.277-.054-.438-.054-.438l5.38-1.636c.064 1.42.144 2.531.23 3.4" fill="#E8945B"/><path d="M707.636 75.04s6.44 1.292 7.184-2.727c.744-4.019 2.076-6.559-2.005-7.553-4.08-.995-5.165.39-5.74 1.671-.575 1.281-1.094 8.169.561 8.609" fill="#FFB27D"/><path d="M716.067 65.026c-1.09-1.225-2.662-1.463-3.808-1.443.69-.837-2.088-2.67-5.265.457-1.369 1.347-1.161 3.996-.429 5.533 0 0 1.126-3.294 3.175-4.012.457-.16.89-.426 1.288-.743.249.626.75 1.512 1.76 2.614 2.119 2.313 1.706 6.99 1.706 6.99s3.477-7.256 1.573-9.396" fill="#2B478B"/><path d="M709.642 73.062s-.171.477-1.384.26c0 0-1.018-.18-.924-.716 0 0 1.038-.269 2.308.456" fill="#FFF"/><path d="M727.312 97.579c-2.436-9.392-3.773-14.754-5.769-16.376-1.765-1.436-5.571-1.567-5.571-1.567-.06 1.13-.007 2.263.132 3.385l-4.682 8.914s-2.4 4.742-3.253 9.93c-.644-5.152-1.283-9.93-1.283-9.93s-.604-3.046-.794-5.836c.564-2.175.505-4.446.77-6.72l-.294.017c-.925.065-3.808.359-5.278 1.564-1.996 1.637-2.444 8.826-5.769 16.52 0 0-4.03 6.768-5.311 9.453 0 0 .24.366.72.643.466.268 1.054.374 1.054.374s7.268-7.149 7.745-8.279c.157-.372 1.037-1.675 2.128-3.594 0 0 .29 10.215-.345 14.623a2.283 2.283 0 001.136 2.318c4.488 2.533 17.936 9.433 20.438 2.732.28-.752-4.634-13.512-3.961-16.275.214-.884.5-2.899.786-5.23 1.54 2.95 2.987 5.021 3.193 5.505.478 1.12 7.745 8.206 7.745 8.206s.588-.105 1.054-.37c.48-.275.72-.638.72-.638-1.282-2.662-5.31-9.37-5.31-9.37" fill="#B64C41"/><path d="M715.718 79.61l-4.296 12.325 4.295-4.057-.324-1.262s.987.088 1.388-.17c.4-.26 1.333-6.561 1.333-6.561s-.874-.147-1.163-.18c-.31-.036-1.233-.096-1.233-.096M706.863 79.38s-.906 9.743.023 12.555c0 0-2.66-4.205-2.161-5.076l.964-.635s-1.86-.241-1.512-1.309c.349-1.067 1.843-5.397 1.843-5.397l.843-.139" fill="#A53D38"/><path fill="#699FF0" d="M611.969 174.887h148.393v-33.61l-148.393-.335v33.945M611.969 123.77h148.393v-8.79H611.969z"/><path d="M766.79 114.98H601.651a2.832 2.832 0 01-2.832-2.83v-.676a2.831 2.831 0 012.832-2.83h165.14a2.831 2.831 0 012.832 2.83v.676a2.832 2.832 0 01-2.833 2.83" fill="#466AA5"/><path d="M632.095 108.67a.8.8 0 01-.047.026l.015-.027h.032" fill="#5F9AA8"/><path d="M670.448 93.448l-3.209-.457a.395.395 0 01-.336-.446l.206-1.434a.395.395 0 01.446-.335l3.21.456c.216.031.366.231.335.447l-.205 1.434a.395.395 0 01-.447.335" fill="#DEEDFF"/><path fill="#739AF0" d="M668.446 92.728l-1.046-.15.2-1.399 1.045.149-.199 1.4M670.439 91.94l-1.302-.185a.178.178 0 01-.15-.2.178.178 0 01.2-.15l1.302.185a.177.177 0 11-.05.35M670.478 92.439l-1.518-.216a.067.067 0 01.019-.134l1.519.217c.037.005.062.04.057.076a.068.068 0 01-.077.057M670.448 92.656l-1.52-.217a.068.068 0 01-.056-.076.068.068 0 01.076-.057l1.518.216c.037.006.064.04.057.076a.067.067 0 01-.075.058"/><path d="M718.147 91.7l-2.954-.182a.36.36 0 01-.338-.382l.08-1.32a.361.361 0 01.383-.338l2.955.182c.199.012.35.183.337.382l-.081 1.32a.36.36 0 01-.382.337" fill="#DEEDFF"/><path fill="#739AF0" d="M716.272 91.19l-.963-.06.08-1.288.961.06-.078 1.288M718.029 90.328l-1.199-.074a.161.161 0 11.02-.322l1.198.074a.161.161 0 01-.02.322M718.101 90.779l-1.399-.086a.061.061 0 01.009-.123l1.397.086a.06.06 0 01.057.065.061.061 0 01-.064.058M718.089 90.978l-1.399-.086a.061.061 0 01.008-.122l1.398.086a.061.061 0 01-.007.122"/><path d="M708.758 102.315a.465.465 0 11.93.002.465.465 0 01-.93-.002M708.758 105.224a.464.464 0 11.928.001.464.464 0 01-.928-.001" fill="#A53D38"/><path d="M724.346 142.114c-.205-1.184-.459-2.202-.774-2.976-.437-1.072-.81-2.72-1.128-4.703-.22-1.363-.308-6.526-.404-10.666h38.322v18.876l-36.016-.531zm-8.868-.02l-2.067-.006c-.02-.483-.059-.94-.117-1.365a27.663 27.663 0 01-.26-3.831c0-.74.027-1.47.076-2.193.875 2.487 1.663 4.97 2.368 7.394m-10.64-.024l-47.767-.108c-.627-4.974-1.902-13.402-3.754-17.638 3.443 1.147 12.29 4.221 18.157 4.221 2.078 0 3.781-.385 4.739-1.377a11.18 11.18 0 002.255-3.398h24.896c.57 5.722 1.33 12.478 1.474 18.3m-53.706-.123l-14.651-.032c3.254-2.887 8.44-7.621 10.747-10.462l3.904 10.494m-39.163-.086v-18.09h28.405c-4.154 6.806-8.387 14.9-10.047 18.13l-18.358-.04z" fill="#B5D1FB"/><path d="M657.071 141.96l-5.94-.014-3.903-10.494c.479-.59.834-1.1 1.022-1.492 1.481-3.107 2.115-6.074 3.517-6.074.068 0 .139.007.211.022.196.038.665.19 1.34.415 1.851 4.236 3.126 12.664 3.753 17.638" fill="#A3C2F2"/><path d="M636.48 141.914l-6.153-.014c1.66-3.23 5.893-11.324 10.047-18.13h38.094a11.18 11.18 0 01-2.255 3.397c-.958.992-2.66 1.377-4.739 1.377-5.867 0-14.714-3.074-18.157-4.221-.674-.226-1.143-.377-1.339-.415a1.093 1.093 0 00-.211-.022c-1.402 0-2.036 2.967-3.517 6.074-.188.392-.543.901-1.022 1.492-2.306 2.84-7.493 7.575-10.747 10.462" fill="#A5C3F3"/><path d="M713.06 142.088l-8.222-.02c-.144-5.82-.903-12.577-1.474-18.299h4.183c.789 5.423 2.41 13.413 5.512 18.32" fill="#A4C2F3"/><path d="M713.411 142.088h-.352c-3.102-4.906-4.723-12.896-5.512-18.319h1.356c.684 1.856 1.308 3.486 1.587 4.146.949 2.238 1.82 4.514 2.62 6.784a31.74 31.74 0 00-.075 2.193c0 1.252.077 2.528.259 3.83.058.426.097.883.117 1.366" fill="#A3C1F1"/><path d="M724.346 142.114l-8.868-.02a141.106 141.106 0 00-2.368-7.395c-.8-2.27-1.671-4.546-2.62-6.784-.28-.66-.903-2.29-1.587-4.146h13.137c.096 4.14.184 9.303.404 10.666.318 1.984.69 3.631 1.128 4.703.315.774.57 1.792.774 2.976" fill="#A4C2F3"/><path d="M732.328 157.286c.035-.6.158-1.19.384-1.742a6.967 6.967 0 00-.384 1.742" fill="#958998"/><path fill="#699FF0" d="M750.266 93.405l-3.283 15.24h12.797l2.862-15.24h-12.376"/><path fill="#AFCDFB" d="M750.706 93.89l-2.966 13.766h11.56l2.585-13.765h-11.18"/><path d="M760.369 94.996h-8.798a.295.295 0 00-.295.294c0 .162.133.295.295.295h8.798a.296.296 0 00.295-.295.295.295 0 00-.295-.294M759.92 96.384h-8.798a.295.295 0 00-.295.294c0 .162.133.294.295.294h8.798a.296.296 0 00.295-.294.295.295 0 00-.295-.294M759.64 97.715h-8.799a.295.295 0 00-.295.294c0 .162.133.295.295.295h8.798a.296.296 0 00.295-.295.295.295 0 00-.295-.294M759.233 100.46h-8.799a.295.295 0 00-.294.295c0 .162.133.295.294.295h8.799a.296.296 0 00.295-.295.296.296 0 00-.295-.295M758.784 101.848h-8.798a.295.295 0 100 .588h8.798a.295.295 0 100-.588M758.503 103.18h-8.798a.296.296 0 00-.295.295c0 .16.133.293.295.293h8.798a.295.295 0 00.295-.293.296.296 0 00-.295-.295" fill="#699FF0"/><path fill="#A53D38" d="M744.82 101.897l-1.905 6.307.35.105 1.905-6.307-.35-.105"/><path d="M743.159 107.596c-.655 0-1.194.457-1.275 1.049h2.55c-.082-.592-.621-1.049-1.275-1.049" fill="#B64C41"/><path d="M744.83 108.475c-.487 0-.973-.08-1.012-.087l.014-.083c.488.084 1.787.21 1.932-.199.065-.18.005-.485-.079-.907-.152-.768-.382-1.929-.112-3.548.211-1.267.054-1.65-.114-1.75-.178-.104-.416.086-.418.088l-.053-.066c.011-.01.287-.227.512-.094.28.163.332.781.157 1.836-.269 1.604-.04 2.756.11 3.517.087.436.149.75.076.953-.096.27-.555.34-1.012.34" fill="#B64C41"/><path d="M610.775 108.345l1.124.347s3.019-1.117 4.584 2.012c0 0 .549 1.34-.5 1.395-1.047.054-.654-.117-2.129-.008-1.475.11-2.873-.468-3.346-1.44l-1.363-1.037 1.63-1.27" fill="#AB7041"/><path d="M611.704 108.367s-.24.623-.605 1.188c-.388.6-1.052.966-1.052.966s-4.557-2.406-8.277-4.88c-.298-.199-.59-.396-.873-.595-1.448-1.007-2.683-1.993-3.343-2.802-.08-.098-.162-.203-.247-.312-2.104-2.717-5.75-8.95-5.75-8.95s-.04.252-.106.783c-.152 1.207-.448 3.845-.749 8.196-.449 6.54.932 14.575-1.947 14.897-13.247 1.482-17.632.267-21.795-.7-.212-.05-.423-.097-.634-.145-.776-.175-1.352-.797-1.142-1.562.727-2.649 2.174-8.07 2.397-10.028.347-3.035.727-11.177.782-12.379l.007-.149-.068.153-.001.01c-.06.267-1.334 6.013-1.775 9.422-.35 2.7-4.385 14.978-4.385 14.978l-2.59-.093s-.754-13.207.35-16.679c.403-1.263 1.382-21.16 7.016-23.155 1.679-.594 5.818-1.792 9.764-2.105.155 1.87 2.71 3.268 4.755 3.268 1.415 0 2.226-.7 2.62-1.73 5.061 1.32 8.634 2.409 10.283 4.168 4.909 5.24 6.346 13.838 8.95 18.186 1.683 2.81 8.415 10.049 8.415 10.049" fill="#739AF0"/><path d="M611.806 111.79s2.345.813 3.131.289c.787-.523-1.878-.899-1.9-1.453-.022-.554-1.23 1.163-1.23 1.163" fill="#AB7041"/></g><g><path d="M273.397 175l-65.342-.02-55.486-.016-7.643-.002-129.41-.038s-6.823-16.847-4.994-35.063a54.593 54.593 0 011.121-6.869l.005-.02c.325-1.406.713-2.809 1.17-4.201 1.935-5.892 5.113-11.6 10.064-16.589 30.023-30.255 68.82-4.965 83.378-5.702 14.557-.738 15.378-29.768 58.874-33.235 24.127-1.923 50.025 2.577 58.39 22.78 3.295 7.962 3.869 18.362.538 31.768-1.938 7.797-.276 12.567 3.42 15.657 7.676 6.419 24.13 5.589 35.35 9.585 8.36 2.977 13.812 8.634 10.565 21.965" fill-opacity=".6" fill="#EBF2F9"/><path d="M227.483 143.5L38.815 167.966c-1.712-6.188-2.591-12.909-2.15-20.07l186.859-51.81c3.296 7.961 3.87 18.359.538 31.762-1.938 7.795-.276 12.564 3.421 15.654M148.66 105.568l-138.143 34.36c.228-2.281.591-4.584 1.122-6.876l.005-.02a48.494 48.494 0 011.17-4.206l135.846-23.258" fill="#F8FBFF"/><path d="M144.883 175l-129.467-.04s-8.64-21.349-3.874-41.98l.005-.02c8-.372 21.143.568 34.979 8.43 21.85 12.416 57.722 3.332 68.104 10.296 10.382 6.966 12.766 14.177 20.488 15.417 6.735 1.08 9.238 6.524 9.765 7.895V175" fill-opacity=".6" fill="#C9E0F2"/><path d="M197.159 91.447a3.622 3.622 0 013.624-3.62 3.622 3.622 0 013.625 3.62 3.622 3.622 0 01-3.625 3.62 3.622 3.622 0 01-3.624-3.62" fill="#F8FBFF"/><path d="M184.483 164.74c3.584-1.124 8.194-2.953 5.687-4.326-2.685-1.47-6.11 1.65-7.966 3.715a10.444 10.444 0 00-1.732-.147c3.538-5.673 7.485-13.226 4.124-14.187-3.622-1.035-6.217 8.15-7.498 14.582-3.54.769-7.347 2.487-11.315 3.632-1.402-5.1-4.629-12.707-11.39-12.539-7.102.177 1.763 8.433 7.736 13.381-1.335.216-2.683.32-4.042.257-8.683-.404-14.123 5.484-14.123 5.484h46.633c1.751-2.777-.901-7.898-6.114-9.852" fill="#A8D29F"/><path d="M105.37 50.44s-3.237-3.577-4.237-3.696c-1-.12-5.117 1.88-5.353 2.67-.235.788 4.53-.79 4.795 0 .265.788.558 1.325 1.911 1.384 1.354.06 2.53.835 2.53.835l.353-1.192" fill="#FFB27D"/><path d="M109.35 174.49c-1.033-.63-.445-5.329-.445-5.329s4.814-3.847 5.475-.901c.662 2.945 4.573 4.267 6.8 4.628 1.537.249 2.012 1.099 2.16 1.602h-13.99" fill="#233862"/><path d="M108.426 171.506c-1.235-.465-8.115-16.925-7.828-22.27.033-.634-.09-5.835-.287-6.912a71.574 71.574 0 00-.603-2.903 222.172 222.172 0 00-1.367-5.593c-1.463-5.73-3.326-12.545-4.611-17.97 2.306-5.155 5.261-9.667 7.973-11.208 1.934.235 3.8.592 5.18.89 1.101.644 1.923 1.196 2.534 1.666.215 1.069.528 2.852.781 5.148.163 1.502.3 3.225.364 5.11.46 13.37-1.886 27.9 4.094 51.614.168.662-4.317 3.147-6.23 2.428" fill="#2B478B"/><path d="M110.168 112.45c-.995 4.97-3.388 15.587-11.836 21.462-1.46-5.728-3.319-12.537-4.602-17.959 2.302-5.152 5.252-9.661 7.958-11.2a58.81 58.81 0 015.171.888c1.099.644 1.92 1.195 2.53 1.665.213 1.068.526 2.85.779 5.145" fill="#233862"/><path d="M99.832 65.603l-.005.831s.227 2.6-2.985 2.979c-3.213.38-5.648-1.014-5.56-3.02.289-1.552.606-2.619.628-3.904a9.088 9.088 0 00-.114-1.556l6.225-.124 1.835.299-.024 4.495" fill="#FFB27D"/><path d="M99.856 61.108l-.024 4.508a5.28 5.28 0 01-2.247.495c-2.863 0-4.714-2.096-5.681-3.617a9.13 9.13 0 00-.114-1.56l6.23-.125 1.836.3" fill="#E8945B"/><path d="M100.209 63.314s-8 1.605-8.93-3.356c-.93-4.962-2.59-8.096 2.48-9.33 5.068-1.234 6.42.475 7.135 2.056.716 1.581 1.372 10.085-.685 10.63" fill="#FFB27D"/><path d="M94.444 174.592s-.433-2.408-1.122-3.803c-.687-1.394-5.063-.506-5.063-.506s-.876.76-1.064 4.31h7.25" fill="#233862"/><path d="M103.123 107.31s-4.384 19.464-5.79 28.25c-.526 3.287-1.622 13.819-1.792 17.143-.236 4.562-1.745 18.525-1.745 18.525s-2.547-1.604-6.325-.107c0 0-.954-6.26-1.562-19.368-.177-3.843.568-9.615.478-11.49-.445-9.218-3.401-33.053-1.05-34.583 2.348-1.53 17.786 1.63 17.786 1.63" fill="#2B478B"/><path d="M102.46 48.93s-2.223-.171-4.844-1.307c-2.129-.922-4.813.093-5.685.55.023-.139.08-.33.213-.522 0 0-.39.277-.45.663-.04.03-.057.05-.047.057 0 0-.443-.08-.728.047 0 0 .2-.028.27.1a.122.122 0 00.032.035c-3.32 1.598-3.625 6.825-2.557 8.034 1.284 1.455 2.825 4.732 2.825 4.732s.563-.774.33-2.055c-.235-1.28.875-1.28 2.278-1.862 1.4-.582.233-2.212 1.46-3.201 1.227-.99 5.724-.408 5.666-1.164 1.67-.606 1.237-3.937 1.237-4.108" fill="#233862"/><path d="M104.6 48.676s-.671.273-1.075 1.222c-.516 1.214-.096 1.877-.096 1.877s8.444 7.65 7.894 9.041c-.286.728-6.828 4.56-9.546 6.127-1.118-.093-1.983-.085-2.011-.085l-.001.002s-1.85 5.628-8.47-.44c-1.164 1.69-10.18 5.841-8.614 13.004.368 1.683.686 3.271.96 4.77 1.86 10.148 1.715 16.136 1.352 19.438-.283 2.577-1.353 2.836-.395 3.522 0 0 1.862.833 5.346 1.555 2.59.535 6.075 1.012 10.357 1.039 6.812.042 9.39-2.302 9.39-2.302 1.804-1.762-1.764-8.694-1.478-13.698.147-2.567-.014-11.356-.04-15.394l.003-.003.005-.006c.328-.357 10.292-11.309 12.254-17.526 0-.001.002-.001.002-.003a8.45 8.45 0 00.232-.902c.596-3.06-16.07-11.238-16.07-11.238" fill="#EE9849"/><path d="M84.976 103.63c.363-3.303.51-9.292-1.355-19.445.128-.404.255-.792.38-1.163.565-1.674 2.965-1.59 3.409.12 1.377 5.312 2.616 14.343-2.434 20.489" fill="#E58638"/><path d="M82.981 98.07s4.138-2.474 5.42-2.16c1.282.313 4.064 1.509 3.891 2.24-.171.731-3.403 1.23-3.965 1.144-.563-.086-1.47.015-1.84.33-.367.314-3.3.43-3.657-.418-.358-.849.151-1.137.151-1.137" fill="#FFB27D"/><path d="M91.28 66.417s-5.09.368-7.855 1.985c-1.79 1.047-12.158 17.531-12.158 19.957 0 2.427 10.888 11.033 10.888 11.033s2.02.67 2.092-2.54c0 0-5.431-8.012-5.145-8.94.18-.583 8.184-6.99 8.184-6.99l3.993-14.505" fill="#EE9849"/><path d="M120.378 60.81c-1.961 6.217-11.925 17.17-12.252 17.527l-.005.006-.003.003-.001-.003c-.029-.11-.851-3.243 1.11-5.484 1.999-2.28 8.89-7.996 11.151-12.05M89.34 67.364c-.022-.44 2.06-1.05 2.06-1.05s2.385 3.313 6.312 3.37c0 0-1.12 2.183-2.438 2.748 0 0-5.805-2.451-5.935-5.068M97.712 69.589s2.076-1.22 2.083-2.541c0 0 1.34-.167 1.925.478 0 0 .492 2.265-.16 3.58 0 0-2.989-.45-3.848-1.517" fill="#E58638"/><path d="M89.34 66.752c-.022-.44 2.06-1.049 2.06-1.049s2.385 3.312 6.312 3.37c0 0-1.12 2.182-2.438 2.747 0 0-5.805-2.45-5.935-5.068M97.712 69.079s2.076-1.22 2.083-2.541c0 0 1.34-.166 1.925.478 0 0 .492 2.265-.16 3.58 0 0-2.989-.45-3.848-1.517" fill="#EE9849"/><path d="M79.558 174.49H62.262c-.944 0-1.716-.769-1.716-1.709v-11.57c0-.94.772-1.708 1.716-1.708h17.296c.943 0 1.715.768 1.715 1.708v11.57c0 .94-.772 1.71-1.715 1.71" fill="#233862"/><path d="M79.742 161.21v11.572c0 .94-.773 1.708-1.716 1.708H60.73a1.716 1.716 0 01-1.715-1.708v-11.571c0-.94.772-1.708 1.715-1.708h17.296c.943 0 1.716.768 1.716 1.708" fill="#2B478B"/><path d="M65.55 159.568c1.108-1.29 2.552-1.799 3.476-1.799 2.26 0 3.521 1.732 3.568 1.8l-.55.036c-.04-.057-.934-1.165-2.887-1.165-.802 0-1.98.003-2.946 1.128-.063.073-.675.016-.661 0M79.742 161.733v3.389c0 .947-.773 1.722-1.716 1.722H60.73a1.724 1.724 0 01-1.715-1.722v-3.389c0-.946.772-1.72 1.715-1.72h17.296c.943 0 1.716.774 1.716 1.72" fill="#233862"/><path d="M79.742 161.224v3.389c0 .947-.773 1.72-1.716 1.72H60.73a1.723 1.723 0 01-1.715-1.72v-3.39c0-.946.772-1.72 1.715-1.72h17.296c.943 0 1.716.774 1.716 1.72" fill="#2B478B"/><path d="M68.51 165.009a.51.51 0 111.02 0 .51.51 0 01-1.02 0" fill="#233862"/><path d="M273.398 175l-65.33-.02-.086-.016s5.753-7.9 16.96-7.872c11.206.028 11.065-5.767 25.743-9.376 4.346-1.068 8.481-2.769 12.149-4.637 8.358 2.971 13.81 8.617 10.564 21.921" fill="#A8D29F"/><path d="M175.309 80.772v92.21c0 .83-.628 1.508-1.395 1.508h-1.396c-.383 0-.73-.168-.982-.44a1.566 1.566 0 01-.413-1.068v-92.21c0-.542.267-1.019.666-1.284a1.3 1.3 0 01.729-.225h1.396c.767 0 1.395.678 1.395 1.509" fill="#F1A34F"/><path d="M172.246 80.535v92.262c0 .542-.278 1.02-.693 1.285a1.533 1.533 0 01-.43-1.068V80.751c0-.542.278-1.019.695-1.284.263.273.428.651.428 1.068" fill="#E58638"/><path fill="#F1A34F" d="M156.06 116.783l-7.808 5.24 7.081 6.18 17.526-1.101v-7.047l-16.798-3.272"/><path d="M171.681 121.053c-.082.205-.056.492.059.64.115.147.274.1.356-.105.082-.206.056-.493-.059-.64-.114-.148-.273-.101-.356.105M171.681 125.233c-.082.206-.056.492.059.64.115.148.274.1.356-.105.082-.206.056-.493-.059-.64-.114-.148-.273-.101-.356.105" fill="#CE8032"/><path fill="#F1A34F" d="M201.117 102.51l12.174 5.223-11.706 6.195-28.012-.97v-8.714l27.544-1.735"/><path fill="#E89746" d="M201.14 102.51h1.776l12.213 5.199h-1.774l-12.214-5.2"/><path fill="#CE8032" d="M201.55 114.03h.942l12.535-6.22h-1.769l-11.709 6.22M175.353 105.619c.1.274.068.657-.07.854-.137.197-.328.134-.427-.14-.099-.275-.067-.657.07-.854.138-.197.33-.134.427.14M175.353 110.92c.1.275.068.657-.07.854-.137.197-.328.135-.427-.14-.099-.274-.067-.656.07-.853.138-.198.33-.135.427.14"/><path fill="#F1A34F" d="M146.028 87.42l-12.172 5.223 11.705 6.196 28.012-.97v-8.715l-27.545-1.734"/><path fill="#E89746" d="M146.006 87.42h-1.774l-12.214 5.2h1.774l12.214-5.2"/><path fill="#CE8032" d="M145.495 98.839h-.943l-12.534-6.22h1.768l11.71 6.22M171.69 90.427c-.098.275-.066.657.071.854.137.197.328.134.427-.14.099-.274.068-.657-.07-.854-.137-.197-.328-.134-.427.14M171.69 95.831c-.098.275-.066.657.071.854.137.197.328.134.427-.14.099-.275.068-.657-.07-.854-.137-.197-.328-.134-.427.14"/><path fill="#E89746" d="M156.012 116.783h-1.01l-8.282 5.302h1.494l7.798-5.302"/><path fill="#CE8032" d="M155.297 128.202h-1.362l-7.215-6.117h1.496l7.081 6.117"/><path d="M178.474 164.1v10.39h-10.516v-10.43a3.748 3.748 0 013.76-3.742h2.957a3.79 3.79 0 013.8 3.782" fill="#F1A34F"/><path d="M174.696 164.086v10.404h-6.738v-10.445a3.744 3.744 0 013.351-3.727 3.785 3.785 0 013.387 3.768M173.725 76.36V76h-.92l.001.006c-.25.024-.468.125-.651.304-.211.206-.317.46-.317.761 0 .292.108.543.324.754.217.211.47.317.763.317h.8v-.36c.17-.197.257-.433.257-.711 0-.277-.087-.514-.257-.71M175.494 67.556c-.663-.556-1.488-.833-2.477-.833-.632 0-1.233.144-1.804.431a3.194 3.194 0 00-1.33 1.22c-.195.324-.292.647-.292.97 0 .253.08.462.237.629.158.167.36.25.605.25h.81s-.009-.301-.01-.508l.56-.75c.297-.293.689-.44 1.179-.44.417 0 .767.114 1.047.342.28.227.42.548.42.962 0 .475-.147.844-.443 1.106-.214.192-.582.369-1.101.53-.388.122-.645.245-.773.372-.127.126-.19.316-.19.568v1.515c0 .303.08.556.244.758.163.202.392.303.688.303h.81v-.459c.037-.072.069-.15.092-.238.041-.161.061-.576.061-1.243.837-.161 1.497-.517 1.981-1.068.484-.55.726-1.245.726-2.083 0-.96-.346-1.738-1.04-2.334" fill="#E58638"/><path d="M174.782 77.058c0 .306-.102.562-.306.77a1.027 1.027 0 01-.765.314c-.295 0-.553-.107-.771-.32a1.025 1.025 0 01-.33-.764c0-.305.107-.562.321-.77.214-.209.474-.313.78-.313.307 0 .56.104.765.313.204.208.306.465.306.77zm2.57-7.248c0 .844-.243 1.544-.727 2.098-.485.555-1.145.913-1.98 1.076 0 .671-.021 1.089-.061 1.251-.123.468-.424.702-.904.702-.295 0-.524-.102-.688-.305-.163-.204-.244-.458-.244-.763v-1.526c0-.254.063-.445.192-.572.126-.127.384-.252.771-.374.52-.163.887-.34 1.101-.534.296-.265.444-.636.444-1.114 0-.417-.14-.74-.42-.97-.28-.228-.63-.343-1.048-.343-.49 0-.882.148-1.178.443l-.612.824c-.213.295-.463.443-.749.443a.793.793 0 01-.604-.252.887.887 0 01-.237-.634c0-.325.097-.65.29-.976.316-.529.76-.939 1.331-1.229a3.935 3.935 0 011.805-.434c.989 0 1.815.28 2.477.839.693.6 1.04 1.383 1.04 2.35z" fill="#F1A34F"/><path d="M0 174.578l49.111.32s-4.541-9.106-15.81-7.157c-7.112 1.229-9.467-.625-12.394-2.443 5.418-2.046 13.445-5.424 9.709-6.241-3.566-.78-8.426 2.683-11.419 5.257-.626-.32-1.308-.62-2.08-.876 6.405-5.966 18.46-17.862 13.134-18.202-5.224-.332-11.835 11.437-14.98 17.718a17.34 17.34 0 00-1.143-.187c-1.63-.216-3.15.08-4.544.694-.694-2.606-1.977-5.587-3.681-4.979-1.72.612.225 3.633 2.01 5.902C2.967 167.664 0 174.578 0 174.578" fill="#82B378"/></g></g></svg>