<svg id="Calque_1" data-name="Calque 1" xmlns="http://www.w3.org/2000/svg" viewBox="0 0 1220 225"><defs><style>.cls-27{fill-opacity:.6}.cls-10,.cls-11,.cls-12,.cls-13,.cls-14,.cls-15,.cls-17,.cls-19,.cls-2,.cls-20,.cls-21,.cls-22,.cls-23,.cls-24,.cls-26,.cls-27,.cls-28,.cls-3,.cls-30,.cls-31,.cls-32,.cls-33,.cls-34,.cls-35,.cls-36,.cls-37,.cls-39,.cls-4,.cls-40,.cls-41,.cls-42,.cls-43,.cls-44,.cls-45,.cls-47,.cls-48,.cls-49,.cls-5,.cls-50,.cls-52,.cls-53,.cls-54,.cls-55,.cls-56,.cls-57,.cls-58,.cls-59,.cls-6,.cls-60,.cls-61,.cls-63,.cls-64,.cls-65,.cls-66,.cls-67,.cls-68,.cls-7,.cls-70,.cls-71,.cls-72,.cls-73,.cls-74,.cls-75,.cls-79,.cls-8,.cls-83,.cls-85,.cls-86,.cls-9{fill-rule:evenodd}.cls-2{fill:#a8d29f}.cls-3{fill:#4a75cb}.cls-4{fill:#699dee}.cls-5{fill:#d86713}.cls-6{fill:#f1a34f}.cls-7{fill:#c95c12}.cls-8{fill:#82b378}.cls-9{fill:#ffb973}.cls-10{fill:#ed975d}.cls-11{fill:#2b478b}.cls-12{fill:#233862}.cls-13{fill:#1e3d70}.cls-14{fill:#ffb27d}.cls-15{fill:#2c3a64}.cls-17{fill:#f09d64}.cls-19{fill:#ee9849}.cls-20{fill:#e58638}.cls-21{fill:#2a4e96}.cls-22{fill:#35488b}.cls-23{fill:#b47549}.cls-24{fill:#a16942}.cls-26{fill:#4271bc}.cls-27,.cls-49{fill:#ebf2f9}.cls-28{fill:#a6c7f9}.cls-30{fill:#b77446}.cls-31{fill:#365da4}.cls-32{fill:#285493}.cls-33{fill:#aa443e}.cls-34{fill:#d9935c}.cls-35{fill:#80bdcc}.cls-36{fill:#5f9aa8}.cls-37{fill:#a86337}.cls-39{fill:#fff}.cls-40{fill:#163560}.cls-41{fill:#f4be61}.cls-42{fill:#f2a83d}.cls-43{fill:#c65447}.cls-44{fill:#e49963}.cls-45{fill:#d68d5d}.cls-47{fill:#8cb3ed}.cls-48{fill:#91b6ed}.cls-50{fill:#ffd5ab}.cls-52{fill:#c45446}.cls-53{fill:#b64c41}.cls-54{fill:#a53d38}.cls-55{fill:#ab7041}.cls-56{fill:#9c5f33}.cls-57{fill:#739af0}.cls-58{fill:#acd29a}.cls-59{fill:#cb8757}.cls-60{fill:#e7f0fd}.cls-61{fill:#aa413e}.cls-63{fill:#ad7041}.cls-64{fill:#89bccb}.cls-65{fill:#415da5}.cls-66{fill:#355493}.cls-67{fill:#6a99a7}.cls-68{fill:#b84c42}.cls-70{fill:#e7a329}.cls-71{fill:#466aa5}.cls-72{fill:#b74b42}.cls-73{fill:#e8945b}.cls-74{fill:#699ff0}.cls-75{fill:#deedff}.cls-79{fill:#a4c2f3}.cls-83{fill:#f8fbff}.cls-85{fill:#ce8032}.cls-86{fill:#e89746}</style></defs><g id="_-Logo-_-Fond" data-name="🎨-Logo-/-Fond"><g id="Bandeau"><g id="icone-custom_bandeau-prescripteur" data-name="icone-custom/bandeau-prescripteur"><g id="Group"><path id="Fill-2" d="M617.1 225.4s-28.2-59.9 27.4-59.9c29.4-.1 17.3-16.5 37.2-35.5s89.7-34.2 104.6 2.5-21.9 64.6 13.6 59.9c42.6-5.8 59.5 33 59.5 33H617.1" fill-rule="evenodd" fill-opacity=".6" fill="#fbecdb"/><path id="Fill-3" class="cls-2" d="M845.4 218.7c-2.6-1.9-8-.6-12 .8a16.42 16.42 0 00-2.2-2.5c8.5-5.5 20.3-17.2 14.1-18.2-5.4-.9-12.8 9.7-16.7 16.1-4.1-2.7-10.3-4.7-19.8-4.1-24.7 1.8-44-14.1-58.3-8.8-11.3 4.2-21.7 6.6-31.7 5.8.4-7.3.5-21.6-5.2-23.1s-.1 14.8 3.1 22.9l-2.2-.3c-2.1-4.1-5.4-9.4-9.2-9.5-3.5-.2.8 4.6 5.1 8.6-12.2-2.6-26.7 7.4-27 19.1h152.7a15.41 15.41 0 00-1.5-4c5.9-.2 13.6-.7 10.8-2.8"/><path id="Fill-4" class="cls-3" d="M676.4 225.4h40.3v-9.1h-40.3v9.1z"/><path id="Fill-5" class="cls-4" d="M664 225.4h40.2v-9.1H664v9.1z"/><path id="Fill-6" class="cls-5" d="M732.5 225.4h30v-41.9h-30v41.9z"/><path id="Fill-7" class="cls-6" d="M723.3 225.4h29.9v-41.9h-29.9v41.9z"/><path id="Fill-8" class="cls-7" d="M753.2 183.5l9.3 6.3v-6.3h-9.3"/><path id="Fill-9" class="cls-8" d="M660.7 192.8s-5.6 4.2-6.7 3.9 4.1-4.5 4.1-4.5c-2-.9-8-.3-8-.3s-2 6.5-3 6 2.1-5.7 2.1-5.7a10.32 10.32 0 00-4.8 1.5c-3.7 2.9.2 7.4.2 7.4a10.71 10.71 0 01-3.1 4.3 9.45 9.45 0 00-3.5 6.8l.6.1s.9-4 2.7-6l.3-.3.6-.6c.9-.8 2-1.9 2.6-2 .2 2.3 4.6 4.3 7.4 4.7s1.9-.7.9-2.4-3.9-2.4-4.6-3.2.7-.8 2.4 0 1.9 2.8 4.5 4 6.6-3.1 6.6-3.1c-2.1-.1-5.1-2.4-5-3.1s5.1 1.2 6 1.3 2.8-1 3.1-4.4-5.4-4.4-5.4-4.4"/><path id="Fill-10" class="cls-2" d="M630.9 195.4s6.2-3.5 3.3-8.2c0 0-2.3-2.9-4.8-3.6 0 0 1.3 7 0 7.2s-.9-7.9-.9-7.9-6.5-3.1-9.1-2.9c0 0 4 6.8 2.7 6.7s-5.9-7.1-5.9-7.1-6.7-1.2-7.8 2.7.7 5.9 1.7 6.2 7.3.2 7.2 1-4.5 2.1-6.8 1.4c0 0 2.6 6.5 6.1 6.2s4.5-2.5 6.7-2.6 3.7.4 2.6 1-4.7.2-6.4 1.7-3.1 2.4.1 3 9 .2 10.1-2.2l1.2-2.6"/><path id="Fill-11" class="cls-8" d="M632.6 201.4a13.08 13.08 0 01-1.6-6c-2-6.3-19.3-11.9-19.3-11.9 22 8.9 18.1 14.3 18.1 14.3.6.3 1.5 2 2.1 3.3.1.2.2.5.4.9.1.2.2.3.2.4 1.1 2.8.5 7.7.5 7.7l.7.2a11.53 11.53 0 00-1.1-8.9"/><path id="Fill-12" class="cls-2" d="M640.7 190.6s-8.2-4.6-4.4-10.8c0 0 3-3.8 6.3-4.8 0 0-1.7 9.2 0 9.5s1.2-10.4 1.2-10.4 8.6-4.1 12-3.8c0 0-5.3 9-3.6 8.8s7.7-9.3 7.7-9.3 8.8-1.6 10.2 3.6-.9 7.8-2.2 8.1-9.7.2-9.5 1.3 5.9 2.8 9 1.8c0 0-3.5 8.6-8.1 8.1s-6-3.3-8.8-3.5-4.9.5-3.5 1.3 6.2.2 8.5 2.2 4.1 3.1-.1 4-11.9.3-13.4-2.9l-1.3-3.2"/><path id="Fill-13" class="cls-8" d="M666.3 175s-22.9 7.4-25.5 15.7a17.14 17.14 0 01-2.2 7.9 15.13 15.13 0 00-1.5 11.9l.9-.2s-.8-6.5.7-10.2c.1-.1.1-.3.3-.6a6.57 6.57 0 00.6-1.2c.8-1.7 2-3.8 2.8-4.3-.1-.1-5.2-7.3 23.9-19"/><path id="Fill-14" class="cls-6" d="M640.5 224.6a16 16 0 0016-16h-32a16 16 0 0016 16"/><path id="Fill-15" class="cls-9" d="M644.5 224.5a13.4 13.4 0 01-2 .1 16 16 0 01-16-16h4a16.08 16.08 0 0014 15.9"/><path id="Fill-16" class="cls-6" d="M654.7 223.4h-28.5a2 2 0 00-2 1.9h32.4a1.84 1.84 0 00-1.9-1.9"/><path id="Fill-17" class="cls-5" d="M656.6 208.6h-32.4a.2.2 0 000 .4h32.3a.22.22 0 00.2-.2c.1-.1 0-.2-.1-.2"/><path id="Fill-18" class="cls-10" d="M780 124.5c-.5-.1-1.9 1.2-1.9 1.2-3 .3-7.3 1.1-8.9 1.4-1.1.2-4.1-.8-7-2-3.5-1.4-6.9-3-6.9-3-1.9-.1-4.1 3.4-.2 5.7a39.51 39.51 0 005.4 1.5c3.6.7 7.8 1.4 9.2 1.1a55.37 55.37 0 009.2-3.3 4 4 0 011.3-.4c.5 0 1.7-.9 1.7-1.2.2-.2-1.4-1-1.9-1"/><path id="Fill-19" class="cls-11" d="M776.4 168.7l-1.6.3s-7.5-8.4-8.7-12c-.6-1.9-4.6-2.7-8.7-3.8-3.6-.9-7.3-2.1-9.1-4.2-3.8-4.7 2.4-10.5 2.4-10.5s6.6 3.9 12.4 8c4 2.8 7.6 5.8 8.1 7.4 1.2 4.2 4 11.9 5.2 14.8"/><path id="Fill-20" class="cls-12" d="M774.1 171.5h.9a3.71 3.71 0 00.9-.2c.5-.1.7.1.7.2h3.9c.1-.1 0-.5-.1-.7s-.2-.3-.4-.3a4.08 4.08 0 01-2-.9 19.64 19.64 0 00-2-1.4 6.27 6.27 0 00-.9.7c-.4.3-1-.5-1-.5a1.24 1.24 0 00-.2.3c-.1.1-.1.3-.1.6a2.38 2.38 0 01-.3 1.4 4.2 4.2 0 01-.2.5s.1.2.8.3"/><path id="Fill-21" class="cls-13" d="M763 146.6l-5.7 6.7c-3.6-.9-7.3-2.1-9.1-4.3-3.8-4.7 2.4-10.5 2.4-10.5s6.6 4 12.4 8.1"/><path id="Fill-22" class="cls-11" d="M757.8 143.1s-.5 1.4-1.2 3.6c-.9 2.7-2.3 6.6-3.9 10.2-.3.8-.7 1.6-1 2.3a28.49 28.49 0 01-3.7 6.4c-2 2.2-7 16.2-7 16.2l-1.2-.3s-1.7-12 4.4-18.8a.37.37 0 00.1-.3c.1-1 .4-5.5 1-10.1.2-1.1.3-2.2.5-3.3v-.2c.9-5 1.8-7.2 3-8.3l9 2.6"/><path id="Fill-23" class="cls-12" d="M739.7 183.5h.9a3.71 3.71 0 00.9-.2c.5-.1.7.1.7.2h3.9c.1-.1 0-.5-.1-.7s-.2-.3-.4-.3a4.08 4.08 0 01-2-.9 19.64 19.64 0 00-2-1.4 6.27 6.27 0 00-.9.7c-.4.3-1-.5-1-.5a1.24 1.24 0 00-.2.3c-.1.1-.1.4-.1.6a2.38 2.38 0 01-.3 1.4 4.2 4.2 0 01-.2.5s0 .2.8.3"/><path id="Fill-24" class="cls-14" d="M741.4 126.8s-1.4 3.5-3 6.8c-1.4 2.8-2.9 5.6-3.9 6.2-1.4.8-5.1 3.2-7.5 4.9 0 0-1.9 0-2.2.3s-1 2-.8 2.2a2.73 2.73 0 002.1-.3 2.68 2.68 0 011.2-.6 51.32 51.32 0 009-3.7c1.2-.8 3.9-4.1 6-7a25.82 25.82 0 003-4.7c1.5-4.3-2.5-5.4-3.9-4.1"/><path id="Fill-25" class="cls-15" d="M748.9 113.3c-.2-.2-.3-.5-.5-.7a1.27 1.27 0 00.6-.1c.5-.2.7-1.8.7-2.2s-.8-1.8-1.6-1.9a2.35 2.35 0 00-1.7.8c.2-.7 1.6-1.1 1.6-1.1-3 .5-2.8 2.5-2.8 2.7-2.7-1-4.3 4.1-4.3 4.1l7 4.1s0-1.1.7-1.1c1 .2 1.9-2.4.3-4.6"/><path id="Fill-26" class="cls-14" d="M749.3 124c-1.6.8-3.7-.3-3.7-.3a1.91 1.91 0 000-1.1 6.87 6.87 0 00-1-2.3 2.09 2.09 0 00-.4-.6l.2-.1 3.1-1.3s.5.9 1 1.7.9 1.3 1.1 1.3 2.2 1.5-.3 2.7"/><path id="Fill-27" class="cls-10" d="M747.5 118.7c-.1 1.1-.5 3.1-2 3.9a6.87 6.87 0 00-1-2.3l3-1.6"/><path id="Fill-28" class="cls-14" d="M744.4 121.6s4.1-1.6 3-4.1-1.2-4.4-3.9-3.5-2.8 2.1-2.6 3 2.4 4.9 3.5 4.6"/><path id="Fill-29" class="cls-15" d="M745.9 116.8c1.9-.3 2.4-1 2.4-1a5.56 5.56 0 01-2.8-2.2 4.41 4.41 0 00-3.7.5.76.76 0 00-.2.4c-.4-.1-.9-.1-1.2.9-.5 1.5 1.2 3.2 1.2 3.2.4-.1-.1-1.5-.1-2.2a4.19 4.19 0 01.4-1.6c.2.3 2.2 2.8 4.6 2.9a8 8 0 01-2.4-1.3 3 3 0 001.8.4"/><path id="Fill-30" class="cls-4" d="M757.1 129.2c0-.1-.1-.2-.1-.4a9.2 9.2 0 001-3.1 5.65 5.65 0 00-.2-3 20.06 20.06 0 00-4.1-1.7 15.55 15.55 0 00-4 .4 2 2 0 01-1 2.3 3.08 3.08 0 01-3.1-.2.35.35 0 01-.2.1 39.18 39.18 0 00-4.3 3.2c-.4.6-1.9 3.5-1.9 3.5s.5 2.4 5.8 2.7a15.46 15.46 0 01.9 2.9c.4 3.3-.1 5.9.4 7.9s9.3.8 10.9.5 1.2-2.1 1.4-3.7c.2-2.2-1-9.6-1.5-11.4"/><path id="Fill-31" d="M758 125.7a9.2 9.2 0 01-1 3.1 10 10 0 00-1.6-3.9 17.25 17.25 0 012.6.8" fill="#4a82d3" fill-rule="evenodd"/><path id="Fill-32" class="cls-10" d="M722.1 147.5a18.08 18.08 0 012-2.2 7.13 7.13 0 012-.6c.1.1.1.2-.1.4s-.9.6-.8.6 2.3-1.1 2.6-.7-.2 1.9-1 2.6-3.4 1.1-3.6 1.2c-1.3.9-1.1-1.3-1.1-1.3"/><path id="Fill-33" class="cls-17" d="M693.2 142.9s2.4 2.8 5.4 1.6a13.26 13.26 0 00.7-2.7v-.4a15.74 15.74 0 01.1-2 32.51 32.51 0 00-4.6-1.7 8.55 8.55 0 01-1.6 5.2"/><path id="Fill-34" class="cls-10" d="M695.1 138.5a6.56 6.56 0 004.1 2.9 15.74 15.74 0 01.1-2c-.2 0-4.3-1.1-4.2-.9"/><path id="Fill-35" class="cls-17" d="M700.2 139.3s-5 1.2-5.7-2-1.8-5.1 1.4-6 4.1.2 4.5 1.2 1.1 6.4-.2 6.8"/><path id="Fill-36" d="M694.7 138.1c-.1 0-1.1.4-3.2-3.7a3.67 3.67 0 01.2-3.2c.7-1.2 3.4-2.2 5.6-2.6s2.7.8 3.2 2.1a6.51 6.51 0 002.1 2.4c-1.9 1.1-4.2-.5-5-.2s-1.1 1.5-1.1 1.9-.2.7-1.1.4-.4 1.4-.3 1.7c0 0 .2.9-.4 1.2" fill="#a9453d" fill-rule="evenodd"/><path id="Fill-37" class="cls-15" d="M681.8 216.3h-3c-.6 0-1.3-.6-1.5-1.8s-1.5-1.8-1.8-2.8 1.2-2.3 1.2-2.3l.5-.6 2.4.6a8.87 8.87 0 01.1 1.3v1.7c-.1 1.3.4 2.7 1.5 2.9s.6 1 .6 1"/><path id="Fill-38" class="cls-15" d="M702.9 216.3h-8.1c-.1 0-.1 0-.2-.1-.5-.3-.4-2.4-.3-3v-.2s2.8-2.3 3.2-.5v.2c.5 1.7 2.7 2.4 4 2.6a1.62 1.62 0 011.4 1"/><path id="Fill-39" class="cls-19" d="M701.3 169.9s-.4 5.4-.9 11.8c-.7 8.7-1.5 19.5-1.6 21.5-.1 3.5-.7 9.2-.7 9.2a4.54 4.54 0 01-4 .8 93.72 93.72 0 01-3.1-16.6v-.4c-.6-8.7-1.6-27-1.6-27l11.9.7"/><path id="Fill-40" class="cls-20" d="M701.3 169.8s-.4 5.4-.9 11.8l-9.4 14.9v-.4c-.6-8.7-1.6-27-1.6-27l11.9.7"/><path id="Fill-41" class="cls-19" d="M699.3 170.5s-7.8 19.4-12.8 28.5-6.7 11.7-6.7 11.7-2.9-1.2-3.2-2c0 0 1.9-17.6 5.4-21.9 1.9-2.4 4.2-9.7 4.3-12.2s.7-7.6.7-7.6l12.3 3.5"/><path id="Fill-42" class="cls-10" d="M681.6 167.2s-.2 2.4-.3 2.8a4.9 4.9 0 01-1.2 1.5c-.1 0-.2-.1-.1-.3s.4-1 .3-.9-1.2 2.1-1.7 1.9-.9-1.6-.6-2.6 2.1-2.6 2.1-2.8c.5-1.4 1.5.4 1.5.4"/><path id="Fill-43" class="cls-13" d="M680.8 167.9c.9.3 1 .2 1 .2s4.2-7.6 4.6-8.3 8.8-8.5 8.8-8.5l-2.2-8.1s-9.6 12.4-10.6 14.2c-1.7 2.9-2.7 9.8-2.7 9.8a3.79 3.79 0 001.1.7"/><path id="Fill-44" class="cls-21" d="M702.9 154.5a51.69 51.69 0 01-.3 5.4v.3c-.1 1.2-.2 2.4-.3 3.5 0 .5-.1.9-.1 1.4v.6c-.4 4.3-.9 7.7-.9 7.7a.37.37 0 01-.3.1 43.55 43.55 0 01-7.2-.5 19.89 19.89 0 01-6.4-2.7c-.3-.2-.9-.6-.9-.9a13.12 13.12 0 01.3-1.5 97.76 97.76 0 001.4-10.8 19.48 19.48 0 01.2-2.5 36.78 36.78 0 011.1-6.1c.9-3.4 2.3-6 4.1-7a11.38 11.38 0 012.6 1.4 5.29 5.29 0 003.2.8l.9 1a11.31 11.31 0 012.7 5.6 1.27 1.27 0 00.1.6 18.9 18.9 0 00-.2 3.6"/><path id="Fill-45" class="cls-13" d="M702.9 154.5a51.69 51.69 0 01-.3 5.4v.3c-6.4-4-7.4-11.4-7.4-11.4a17.27 17.27 0 017.6 1.9c.1 1 .1 2.3.1 3.8"/><path id="Fill-46" class="cls-21" d="M723.1 147.7c-.3-.9-.8-.8-.8-.8s-9.6 2.4-10.4 2.5-10.3-3.7-10.3-3.7-3.7-1.7-5.5-.1a4.36 4.36 0 002.4 7.5c3.9.5 11.5 1.4 13.2 1.2 3.6-.5 11.7-5.2 11.7-5.2a4.41 4.41 0 00-.3-1.4"/><path id="Fill-47" class="cls-15" d="M817.5 165.2s1.3 1.2 1.1 2.1-1.5 1.5-1.6 2.5-.8 1.6-1.4 1.6h-2.8s-.4-.7.6-1 1.4-1.5 1.4-2.6a15 15 0 01.1-2.7l2.2-.5.4.6"/><path id="Fill-48" class="cls-15" d="M801 171.4a3.47 3.47 0 01-1.3.1h-6.3c0-.2.2-.9 1.2-1 1.2-.2 3.2-.9 3.6-2.4v-.1c.4-1.6 3 .5 3 .5v.2c.1.5.3 2.4-.2 2.7"/><path id="Fill-49" class="cls-22" d="M794.9 128.9s.4 4.9.9 10.8c.6 8 1.4 17.9 1.5 19.7.1 3.2.7 8.4.7 8.4a4.12 4.12 0 003.7.7 83.17 83.17 0 002.8-15.2v-.4c.6-8 1.5-24.7 1.5-24.7l-11.1.7"/><path id="Fill-50" class="cls-15" d="M794.9 128.9s.4 4.9.9 10.8l8.7 13.7v-.4c.6-8 1.5-24.8 1.5-24.8l-11.1.7"/><path id="Fill-51" class="cls-22" d="M796.7 129.5s7.1 17.8 11.8 26.1 6.1 10.7 6.1 10.7 2.7-1.1 2.9-1.8c0 0-1.8-16.1-4.9-20.1-1.8-2.2-3.8-8.9-3.9-11.2s-.6-6.9-.6-6.9l-11.4 3.2"/><path id="Fill-52" class="cls-23" d="M774.8 119.9s-1.9-.4-2.3-.4a4.24 4.24 0 00-1.5.6c0 .1 0 .2.2.2s.8-.1.8 0-1.9.4-1.9.8 1 1.1 1.9 1.1a9.62 9.62 0 002.7-1c1.2-.1.1-1.3.1-1.3"/><path id="Fill-53" class="cls-20" d="M773.9 120.4c-.3-.9-.2-1-.2-1s7.8-4.2 8.5-4.6 8.8-9 8.8-9l8.3 2.3s-12.8 9.7-14.6 10.8c-3 1.7-10.1 2.7-10.1 2.7a4.44 4.44 0 01-.7-1.2"/><path id="Fill-54" class="cls-24" d="M793.5 101.5s-2.9 5.1-5.7 5.8a7.61 7.61 0 01.8-2.9 5.5 5.5 0 01-.7-.9 10.13 10.13 0 01-1-1.5l1-2.6.6-1.8a9.74 9.74 0 001 1.5 7 7 0 004 2.4"/><path id="Fill-55" d="M789.5 99.1a5.65 5.65 0 01-1.6 4.4 10.13 10.13 0 01-1-1.5l1-2.6a3.19 3.19 0 011.6-.3" fill="#975b33" fill-rule="evenodd"/><path id="Fill-56" class="cls-24" d="M786.1 102.4s4.3-1.7 3.2-4.4-1.3-4.7-4.1-3.7-2.9 2.2-2.8 3.2 2.5 5.3 3.7 4.9"/><path id="Fill-57" class="cls-19" d="M808.4 127.6c-1.7 2.5-14.8 5.9-14.6 4.1a18.55 18.55 0 000-3.4c0-.4-.1-.8-.1-1.2a25.46 25.46 0 00-2.9-8.6c-.1-.3-.3-.5-.4-.8a30 30 0 01-1.8-4.1c-.9-2.6-1.3-5.1-.8-6.7 2.7-1.3 3.8-6.2 3.8-6.2s9.3 1.7 14.5 14.1c0 .1 3.9 10.7 2.3 12.8"/><path id="Fill-58" class="cls-20" d="M793.7 128.3c0-.4-.1-.8-.1-1.2a25.46 25.46 0 00-2.9-8.6 11.19 11.19 0 011.2-4c1.8-2.8 2.9-3.2 2.9-3.2s2.8 11.7-1.1 17"/><path id="Fill-59" class="cls-23" d="M779.1 125.6a18.86 18.86 0 00-3 .3c-.4.1-1.7 1.1-1.6 1.3s.1.2.4.1 1-.4 1-.3-2.2 1.2-2.1 1.7 1.6 1 2.7.7 2.9-2.1 3.1-2.2c1.4-.5-.5-1.6-.5-1.6"/><path id="Fill-60" class="cls-19" d="M778.6 126.5c-.5-.8-.1-1.2-.1-1.2s8-6.2 8.6-6.9 3.5-10.7 3.5-10.7 1-4.1 3.3-4.5a4.15 4.15 0 014.3 1.8 4.38 4.38 0 01.3 4.9c-2 3.4-6.1 10.2-7.3 11.4-2.7 2.6-11.6 6.2-11.6 6.2a3.8 3.8 0 01-1-1"/><path id="Fill-61" class="cls-11" d="M789.9 93c0-.1.1-.1.3-.2a.48.48 0 00-.4 0 1.09 1.09 0 00-1-.8.68.68 0 01.4.4c-.8-.5-2.2-.6-5.7.5-4.6 1.5-2.3 4.2-1.6 4.5s2-1.2 3.2-1.4 1.8 1.4 2.2 1.6.2-.2.7-.6.7.5.7 1.1.9 1.2.9 1.2l.5-1c.5-1 .4-4.5-.1-5.1 0-.1 0-.1-.1-.2"/><path id="Fill-63" class="cls-26" d="M716.7 216.3v5.2l-12.5-5.2h12.5"/><path id="Fill-64" class="cls-3" d="M781.9 225.4H823v-53.9h-41.1v53.9z"/><path id="Fill-65" class="cls-4" d="M769.2 225.4h41.1v-53.9h-41.1v53.9z"/><path id="Fill-66" class="cls-26" d="M823 171.5v8.1l-12.7-8.1H823"/></g><g id="Group-2"><path id="Fill-3-2" data-name="Fill-3" class="cls-27" d="M1139.65 224.89s35.2 4.3 46.5-11.8c14.5-20.9-15.4-36.7-38.3-33.7-50 6.4-49.3-88.4-117.1-34.5-17.9 14.3-42.1-11.3-71.3 20.3-6.8 7.4-48.6-6.9-69.4-1-40.7 11.4-22.1 61 7 61.2s242.6-.5 242.6-.5"/><path id="Fill-4-2" data-name="Fill-4" class="cls-28" d="M1099.85 225.19h39.59v-95.4h-39.59v95.4z"/><path id="Fill-5-2" data-name="Fill-5" class="cls-4" d="M1099.85 225.19h7v-95.4h-7v95.4z"/><path id="Fill-6-2" data-name="Fill-6" fill="#d2e4ff" fill-rule="evenodd" d="M1108.55 225.19h39.6v-95.4h-39.6v95.4z"/><path id="Fill-7-2" data-name="Fill-7" class="cls-28" d="M1139.55 225.19h7.3v-95.4h-7.3v95.4z"/><path id="Fill-8-2" data-name="Fill-8" class="cls-30" d="M1069.75 224.19c-.1.8-1.2.8-2.5.6s-5.2-.4-5.3-.7.8-.4 1.7-.6c.1 0 .2-.1.4-.1a4.84 4.84 0 002.7-1.7c.8-1 1.5-5.6 1.5-5.6l2.8.5a29.68 29.68 0 00-1.8 5.2c-.1.6.3 1 .4 1.5a3.08 3.08 0 01.1.9"/><path id="Fill-9-2" data-name="Fill-9" class="cls-31" d="M1069.75 224.19c-.1.8-1.2.8-2.5.6a3.9 3.9 0 00-1.6.1h-2.3c-1-.2-1.4-.6-1.4-.8s.8-.4 1.7-.6a5.79 5.79 0 002.7.5c1.2-.1 2.5-.6 3.3-.7a3.08 3.08 0 01.1.9"/><path id="Fill-10-2" data-name="Fill-10" class="cls-31" d="M1067.15 219.49a3.77 3.77 0 001.4.6 2.87 2.87 0 001.5 0s5-12.7 4.8-16.9v-.3a18.9 18.9 0 01.3-2.9c.1-.4.1-.9.2-1.3.2-1.1.5-2.2.7-3.4a8.33 8.33 0 01.4-1.5c1.3-5.1 2.8-10 2.8-10s-9.1-3-9.6-.2a53.92 53.92 0 00-.6 11.9 93.37 93.37 0 01-.4 14.1 50.77 50.77 0 01-1.5 9.9"/><path id="Fill-11-2" data-name="Fill-11" class="cls-32" d="M1075 202.79a18.9 18.9 0 01.3-2.9c.1-.4.1-.9.2-1.3.2-1.1.5-2.2.7-3.4a8.33 8.33 0 01.4-1.5c-.2-1.5-.3-2.6-.3-2.6a12.89 12.89 0 00-1.3 11.7"/><path id="Fill-12-2" data-name="Fill-12" class="cls-30" d="M1081.25 224.19c-.1.8-1.2.8-2.5.6s-5.2-.4-5.3-.7.8-.4 1.7-.6c.1 0 .2-.1.4-.1a7.71 7.71 0 002.7-1.7c.9-.6.3-3.8.3-3.8l2.7-1s-.4 3.2-.4 4.9a6.58 6.58 0 00.4 1.5 2.7 2.7 0 000 .9"/><path id="Fill-13-2" data-name="Fill-13" class="cls-31" d="M1081.25 224.19c-.1.8-1.2.8-2.5.6a3.9 3.9 0 00-1.6.1h-2.3c-1-.2-1.4-.6-1.4-.8s.8-.4 1.7-.6a5.79 5.79 0 002.7.5c1.2-.1 2.5-.6 3.3-.7 0 .4.1.6.1.9"/><path id="Fill-14-2" data-name="Fill-14" class="cls-31" d="M1073.85 182.69s3 14.8 3.5 22.8 1.1 14.7 1.1 14.7a4.88 4.88 0 001.4.2 3.44 3.44 0 001.4-.3s2.9-12.1 2-16.9-.2-9.3.3-13.3c.7-5.8-1.9-8.4-3.7-10.2-1.9-2-6 3-6 3"/><path id="Fill-15-2" data-name="Fill-15" class="cls-33" d="M1071.75 155.69c-.3-2.4.5-6.2 5.3-5.6s6.3 5.3 5.3 7.4 1.4 2.6 2.1 4.9c.6 1.9.9 4.3 1.9 5.4 3.3 3.5-3.2 8.8-7.1 7.7-7.1-2.1-8.1-2.4-7.8-8 .1-2.9 2.4-4 .9-4.8-3.4-2.1.1-1.6-.6-7"/><path id="Fill-16-2" data-name="Fill-16" class="cls-34" d="M1073.25 163.39l1.4 2.1 2.9-.1 1.3-3.4s-.4-.1-.6-4.3l-3.6 1.1a6.09 6.09 0 01-.1 2.3 3.41 3.41 0 01-1.3 2.3"/><path id="Fill-17-2" data-name="Fill-17" class="cls-34" d="M1072.85 161.89a13.44 13.44 0 018.3.8s-2.3 13-1.3 15.5a27.32 27.32 0 011.4 4.7l-10.6.1s.1-8.5-.3-11.6c-.6-2.9 2.5-9.5 2.5-9.5"/><path id="Fill-18-2" data-name="Fill-18" class="cls-35" d="M1081.15 177.19a2 2 0 01-.1-.7 10.5 10.5 0 01.5-4.1v-.2c0-.1 0-.1.1-.2v-.1c.3-1.2.9-4.3 1-4.7.1-.1.1-.4.2-.7a4.29 4.29 0 00-.3-3c-.8-.9-3.3-1.5-3.3-1.5-.5.8-2.3 2.8-4.5 2.5-1.3-.2-1.5-2.7-1.5-2.7a5.17 5.17 0 00-1.7.4s-3.3 2.1-8 8.7c-.1.2-.5.2-1.4 0-1.1-.2-3.4-.2-6.7-.7 0 0-.1.1-.1.5a6.62 6.62 0 01-.2 1.1 31.36 31.36 0 004.6 1.8 19.73 19.73 0 002.6.7 8.92 8.92 0 002.2.3 15 15 0 005.3-3.9 51.86 51.86 0 01.3 7.8c-.1 1.3-1 5.7-.8 6.4.5 1.5 4 1.6 7.2 1.4h.2c.5 0 1-.1 1.4-.1q1.35-.15 2.1-.3a5.33 5.33 0 002-.7 2 2 0 001.1-.9c-.3-1.7-1.8-5.3-2.2-7.1"/><path id="Fill-19-2" data-name="Fill-19" class="cls-36" d="M1074.15 181.39c.6 2.1 1 3.7 2.5 4.9.5 0 1-.1 1.4-.1q1.35-.15 2.1-.3a5.33 5.33 0 002-.7 2 2 0 001.1-.9c-.3-1.7-1.8-5.3-2.1-7.1 0-.2-.1-.3-.1-.5a14.64 14.64 0 01.4-4.3c0-.1 0-.1.1-.2a.31.31 0 01.1-.2v-.1c.2-1.2.9-4.8 1-5.3.1-.1.1-.4.2-.7l-1.3-1.2s-7.3 3.1-9 7.4c-1.5 4.4.8 6.4 1.6 9.3"/><path id="Fill-20-2" data-name="Fill-20" class="cls-36" d="M1059.65 173.49a18.05 18.05 0 004.7 1 17.08 17.08 0 005.4-4c.1-.5.2-1.3-.4-1.1-.8.3-4 4.4-5.2 4.4a18.46 18.46 0 01-4.5-.3"/><path id="Fill-21-2" data-name="Fill-21" class="cls-35" d="M1065.45 172.39a39.67 39.67 0 006.8 2.6 12.85 12.85 0 002.5.4 12.15 12.15 0 005.9-4.6c4.6-6.8 1.1-7.7 1.1-7.7s-3.3 2.1-8 8.7c-.2.2-.6.2-1.6 0s-3.4-.2-6.5-.7c0 0-.1.1-.1.5-.1.7-.1.8-.1.8"/><path id="Fill-22-2" data-name="Fill-22" class="cls-37" d="M1062.05 170.89c-1.1-.2-3.4-.2-6.8-.7a6.89 6.89 0 01-.8-.3c-.7-.4-2.6-.6-3-.2s.4 1.9 2.2 2c.6 0 1.1.1 1.4.1a35.14 35.14 0 004.6 1.8 19.73 19.73 0 002.6.7 5.75 5.75 0 00-.2-3.4"/><path id="Fill-23-2" data-name="Fill-23" d="M1074.55 161c1.5-.1 3.6-3.4 3.6-3.4l-3.6 1.1a3.83 3.83 0 010 2.3" fill="#cc7c46" fill-rule="evenodd"/><path id="Fill-24-2" data-name="Fill-24" class="cls-34" d="M1073.75 158.89s4.3.9 4.8-1.8 1.4-4.4-1.3-5-3.4.3-3.8 1.1-.8 5.5.3 5.7"/><path id="Fill-25-2" data-name="Fill-25" class="cls-33" d="M1075.85 151.49s-.1.9 1.3 2.4 1.1 4.3 1.1 4.3 2.4-4.4 1.1-5.9-3.5-.8-3.5-.8"/><path id="Fill-26-2" data-name="Fill-26" class="cls-33" d="M1077.55 150.29a4.29 4.29 0 00-4.2 1.4 3.54 3.54 0 00-.3 3.7s.7-2.2 2.1-2.7a6.38 6.38 0 002.4-2.4"/><path id="Fill-27-2" data-name="Fill-27" class="cls-39" d="M1075.05 157.59s-.1.3-.9.2c0 0-.7-.1-.6-.5a2.78 2.78 0 011.5.3"/><path id="Fill-28-2" data-name="Fill-28" class="cls-28" d="M1060.65 164.79l-9.1.2 2.1 12.6 9.2.3-2.2-13.1"/><path id="Fill-29-2" data-name="Fill-29" class="cls-30" d="M1072.15 174.89a3.82 3.82 0 01-.1-3.3c-1.1-.2-3.4-.3-6.6-.8a5.54 5.54 0 01-1.3-.5c-.8-.4-2.8-.6-3.2-.2s.5 2.1 2.3 2.1a7.47 7.47 0 012 .2 40.2 40.2 0 006.9 2.5"/><path id="Fill-35-2" data-name="Fill-35" class="cls-30" d="M1202.25 224.29c-.1.8-7.8.2-7.9 0s.8-.4 1.8-.6c.1 0 .2-.1.4-.1a4.51 4.51 0 002.7-1.8c.8-1 1.5-5.7 1.5-5.7l2.9.5a31.43 31.43 0 00-1.8 5.3c-.1.6.3 1 .4 1.5a2.7 2.7 0 000 .9"/><path id="Fill-36-2" data-name="Fill-36" class="cls-31" d="M1202.25 224.29q0 .45-.6.6h-6.4c-.6-.2-.9-.5-.9-.7s.8-.4 1.8-.6a5.79 5.79 0 002.7.5c1.2-.1 2.5-.6 3.4-.7a2.7 2.7 0 000 .9"/><path id="Fill-37-2" data-name="Fill-37" class="cls-31" d="M1199.65 219.49a4.71 4.71 0 001.5.6 3.2 3.2 0 001.6 0s5.1-12.8 4.8-17.2v-.3a16.78 16.78 0 01.3-2.9c.1-.4.1-.9.2-1.3.2-1.1.5-2.2.7-3.4a12.44 12.44 0 01.4-1.6c1.3-5.1 2.9-10.2 2.9-10.2s-9.2-3-9.7-.2a55.11 55.11 0 00-.6 12 95.65 95.65 0 01-.4 14.3c-.5 4.3-1.2 7.9-1.7 10.2"/><path id="Fill-38-2" data-name="Fill-38" class="cls-32" d="M1207.45 202.59a16.78 16.78 0 01.3-2.9c.1-.4.1-.9.2-1.3.2-1.1.5-2.2.7-3.4a12.44 12.44 0 01.4-1.6c-.2-1.6-.3-2.6-.3-2.6a13.15 13.15 0 00-1.3 11.8"/><path id="Fill-39-2" data-name="Fill-39" class="cls-30" d="M1213.85 224.29c-.1.8-7.8.2-7.9 0s.8-.4 1.8-.6c.1 0 .2-.1.4-.1a8 8 0 002.7-1.8c.9-.7.3-3.8.3-3.8l2.7-1s-.4 3.2-.4 5a6.58 6.58 0 00.4 1.5v.8"/><path id="Fill-40-2" data-name="Fill-40" class="cls-31" d="M1213.85 224.29q0 .45-.6.6h-6.4c-.6-.2-.9-.5-.9-.7s.8-.4 1.8-.6a5.79 5.79 0 002.7.5c1.2-.1 2.5-.6 3.4-.7v.9"/><path id="Fill-41-2" data-name="Fill-41" class="cls-31" d="M1206.35 182.29s3 14.9 3.5 23.1 1.1 14.9 1.1 14.9a5.85 5.85 0 001.4.2 3.44 3.44 0 001.4-.3s3-12.2 2-17.1-.2-9.4.3-13.5c.7-5.8-1.9-8.5-3.8-10.4-1.7-2-5.9 3.1-5.9 3.1"/><path id="Fill-42-2" data-name="Fill-42" class="cls-40" d="M1204.25 154.89c-.3-2.4.5-6.3 5.3-5.7s6.4 5.4 5.4 7.5 1.4 2.6 2.2 4.9c.6 2 .9 4.4 1.9 5.5 3.4 3.5-3.2 8.9-7.2 7.8-7.2-2.1-8.2-2.4-7.9-8.1.1-2.9 2.4-4 1-4.9-3.5-2 0-1.5-.7-7"/><path id="Fill-43-2" data-name="Fill-43" class="cls-37" d="M1207.15 158s.6 3.2-1.4 4.7l1.4 2.2 2.9-.1 1.3-3.5s-.4-.1-.6-4.4l-3.6 1.1"/><path id="Fill-44-2" data-name="Fill-44" class="cls-30" d="M1206.25 158.19s4.3.9 4.8-1.8 1.4-4.4-1.3-5.1-3.5.3-3.9 1.1-.7 5.5.4 5.8"/><path id="Fill-45-2" data-name="Fill-45" class="cls-37" d="M1205.35 161.19a14.08 14.08 0 018.5.8s-2.3 13.2-1.3 15.7a26.94 26.94 0 011.4 4.8l-10.8.1s.2-8.6-.3-11.7 2.5-9.7 2.5-9.7"/><path id="Fill-46-2" data-name="Fill-46" class="cls-35" d="M1213.75 176.69a2 2 0 01-.1-.7 11.29 11.29 0 01.5-4.2v-.3c0-.1 0-.1.1-.2v-.1c.3-1.2.9-4.4 1-4.8.1-.1.1-.4.2-.7a4.65 4.65 0 00-.3-3.1c-.8-.9-3.5-1.5-3.5-1.5-.5.8-2.3 2.9-4.5 2.5-1.3-.2-1.5-2.8-1.5-2.8a7.05 7.05 0 00-1.8.4s-3.4 2.1-8.1 8.8c-.2.2-.5.2-1.4 0-1.1-.2-3.4-.2-6.8-.7a1.19 1.19 0 00-.2.5 6.62 6.62 0 01-.2 1.1 35.62 35.62 0 004.7 1.8 25 25 0 002.6.7 8.92 8.92 0 002.2.3 17.08 17.08 0 005.4-4 54 54 0 01.3 8c-.1 1.3-1 5.8-.8 6.5.5 1.5 4.1 1.6 7.3 1.5h.2c.5 0 1-.1 1.5-.1q1.35-.15 2.1-.3a10.33 10.33 0 002.1-.7 2 2 0 001.1-.9c-.2-1.5-1.7-5.1-2.1-7"/><path id="Fill-47-2" data-name="Fill-47" class="cls-40" d="M1208.35 150.59s-.1.9 1.3 2.5 1.1 4.3 1.1 4.3 2.4-4.5 1.1-5.9-3.5-.9-3.5-.9"/><path id="Fill-48-2" data-name="Fill-48" class="cls-40" d="M1210.15 149.39a4.45 4.45 0 00-4.3 1.4 3.54 3.54 0 00-.3 3.7s.8-2.2 2.1-2.7 2.5-2.4 2.5-2.4"/><path id="Fill-49-2" data-name="Fill-49" class="cls-39" d="M1207.55 156.89s-.1.3-.9.2c0 0-.7-.1-.6-.5a2 2 0 011.5.3"/><path id="Fill-50-2" data-name="Fill-50" class="cls-36" d="M1206.75 181c.6 2.1 1 3.8 2.5 5 .5 0 1-.1 1.5-.1q1.35-.15 2.1-.3a10.33 10.33 0 002.1-.7 2 2 0 001.1-.9c-.3-1.7-1.8-5.3-2.2-7.2 0-.2-.1-.3-.1-.5a14.31 14.31 0 01.4-4.3c0-.1 0-.1.1-.2a.31.31 0 01.1-.2v-.1c.2-1.2.9-4.9 1.1-5.3.1-.2-.1-.8 0-1.2l-1.1-.8s-7.4 3.2-9.1 7.5.6 6.3 1.5 9.3"/><path id="Fill-51-2" data-name="Fill-51" class="cls-36" d="M1192 173a17.91 17.91 0 004.8 1 16.82 16.82 0 005.5-4c.1-.5.2-1.4-.4-1.1-.9.3-4 4.4-5.2 4.5-.9 0-3.3-.3-4.7-.4"/><path id="Fill-52-2" data-name="Fill-52" class="cls-35" d="M1197.85 171.79a43.9 43.9 0 006.8 2.6 12.85 12.85 0 002.5.4 11 11 0 006-4.7c4.4-6.7 1.1-7.8 1.1-7.8s-3.4 2.1-8.1 8.8c-.2.2-.6.2-1.7 0s-3.5-.2-6.6-.7c0 0-.1.1-.1.5.1.8.1.9.1.9"/><path id="Fill-53-2" data-name="Fill-53" class="cls-37" d="M1194.45 170.29c-1.1-.2-3.5-.2-6.8-.7a6.89 6.89 0 01-.8-.3c-.7-.4-2.7-.6-3.1-.2s.4 2 2.2 2c.6 0 1.1.1 1.4.1a39.66 39.66 0 004.7 1.8 25 25 0 002.6.7 7 7 0 00-.2-3.4"/><path id="Fill-54-2" data-name="Fill-54" class="cls-30" d="M1204.65 174.39a4 4 0 01-.1-3.4c-1.2-.2-3.5-.3-6.6-.8a5.54 5.54 0 01-1.3-.5c-.8-.4-2.8-.6-3.3-.2s.5 2.1 2.3 2.1a7.47 7.47 0 012 .2 35.28 35.28 0 007 2.6"/><path id="Fill-99" class="cls-41" d="M1178 172.39s-2.3 1-4.7 1.8a25 25 0 01-2.6.7 8.92 8.92 0 01-2.2.3.31.31 0 01-.2-.1 17.3 17.3 0 01-5.3-3.9 4.35 4.35 0 01-.6-.7 20 20 0 01-.4-3.4c-.1-1.9-.2-4-.2-4s3.1.8 7.6 8.4c.1.2.5.2 1.4 0 1.1-.2 3.4-.2 6.8-.7a1.19 1.19 0 01.2.5 6.62 6.62 0 00.2 1.1"/><path id="Fill-100" class="cls-42" d="M1168.35 175.09a17.3 17.3 0 01-5.3-3.9 4.35 4.35 0 01-.6-.7 20 20 0 01-.4-3.4c.4.5 5.5 5.3 6.3 8"/><path id="Fill-101" class="cls-40" d="M1157.05 150s-.3-.6-1.7-.4-3.9.4-3.9 8.2c0 .8-5.1 8.6.7 15.9l4.1-10.4.8-13.3"/><path id="Fill-102" class="cls-43" d="M1157.45 150.09s-1.5-.5-2.3.2a1.61 1.61 0 00-.3 1.8l2.6-2"/><path id="Fill-103" class="cls-40" d="M1162.25 153.09s0-3.3-5.4-2.9a3 3 0 00-2.2 1.4c-.6 1.2-.9 3.2 1.1 6.6l6.5-5.1"/><path id="Fill-104" class="cls-44" d="M1155.45 162.89l1.2 4.7 3.5.2 1.7-2.6a5.48 5.48 0 01-1.8-4.7 4.54 4.54 0 01.1-1l-2.5-.8-1.9-.6a12 12 0 01.1 3.2 3.37 3.37 0 01-.4 1.6"/><path id="Fill-105" class="cls-44" d="M1151.85 187.19h12.7s-1.6-8.5-.7-11.3 0-6.8 0-6.8c-1.3-3-1.6-5.8-2.2-6l-.9-.3a16.64 16.64 0 00-9.1.8c-1.1 2.8 1.3 4.9 1.4 11.2a55.3 55.3 0 01-1.2 12.4"/><path id="Fill-106" class="cls-41" d="M1165.35 187.79s-9.7 2-15.2-.1c-.3-.1.9-4.3 1.7-7.1.4-1.4.7-2.5.7-2.6-.2-3.9-1-7.2-1.3-9.7a14.05 14.05 0 01-.2-1.8v-.3a5.27 5.27 0 01.4-2.3c.6-1.1 3.9-1.1 3.9-1.1a6.41 6.41 0 004.2 1.6c2.1 0 1.1-1.5 1.1-1.5a.37.37 0 01.3.1 4.85 4.85 0 011.8.7c1.7 1.8 2.3 11 2.2 11.4-.2.9.4 12.7.4 12.7"/><path id="Fill-107" class="cls-45" d="M1155.85 161.29a10.13 10.13 0 014.2-.8c-.2-.2-1.4-1-2.4-1.8l-1.9-.6a12 12 0 01.1 3.2"/><path id="Fill-108" class="cls-44" d="M1161.05 160.59s-5.4.2-5.5-3.1-.9-5.5 2.6-5.8 4.1.9 4.4 2-.1 6.7-1.5 6.9"/><path id="Fill-109" class="cls-40" d="M1160.45 153s2.3 1.6 1.9 3.4a2.38 2.38 0 001-2.3 3.5 3.5 0 00-3.2-3 18.34 18.34 0 00-2.6 0l2.9 1.9"/><path id="Fill-110" class="cls-40" d="M1160.85 152.39c1 .5-3 .9-3.2 2.5s-2.1 2.2-2.1 2.2-2.4-8.7 5.3-4.7"/><path id="Fill-111" class="cls-42" d="M1164 174.09a18.58 18.58 0 01-12.2 6.5c.4-1.4.7-2.5.7-2.6-.2-3.9-1-7.2-1.3-9.7a14.05 14.05 0 01-.2-1.8v-.3a27.34 27.34 0 012.9 1.3c4.8 1 10.1 6.6 10.1 6.6"/><path id="Fill-112" class="cls-39" d="M1161.65 158.79s0 .3-.9.4c0 0-.7 0-.7-.3a1.68 1.68 0 011.6-.1"/><path id="Fill-113" class="cls-41" d="M1168.75 172.79a43.9 43.9 0 01-6.8 2.6 12.85 12.85 0 01-2.5.4 12.46 12.46 0 01-6-4.7c-5-7-1.1-7.8-1.1-7.8s3.4 2.1 8.1 8.7c.2.2.6.2 1.7 0s3.5-.2 6.6-.7c0 0 .1.1.1.5-.1.9-.1 1-.1 1"/><path id="Fill-114" class="cls-37" d="M1178 172.39a35.62 35.62 0 01-4.7 1.8 25 25 0 01-2.6.7 7.25 7.25 0 01.1-3.4c1.1-.2 3.5-.2 6.9-.7l.3 1.6"/><path id="Fill-115" class="cls-37" d="M1176.85 171a10.71 10.71 0 001.6-.5c.7-.4 2.7-.6 3.1-.2s-.4 1.9-2.2 2a5.22 5.22 0 00-2.3.3l-.2-1.6"/><path id="Fill-116" class="cls-30" d="M1168.85 172.89a47.23 47.23 0 01-6.9 2.5 3.8 3.8 0 00.1-3.3c1.2-.2 3.5-.3 6.6-.8a2.8 2.8 0 00.1.6 2.77 2.77 0 00.1 1"/><path id="Fill-117" class="cls-33" d="M1129.55 187.39v-.2h-13.3a3 3 0 00-3 2.9 2.89 2.89 0 002.5 2.8v32.3h50v-37.8h-36.2"/><path id="Fill-126" class="cls-43" d="M1129.65 225.19h50v-37.8h-50v37.8z"/><path id="Fill-127" d="M1187.05 187.19h-70.8a3 3 0 00-3 2.9 2.93 2.93 0 003 2.9h70.8a2.92 2.92 0 100-5.8" fill="#e57970" fill-rule="evenodd"/><path id="Fill-128" class="cls-47" d="M1109.95 178.39h8.9v-8h-8.9v8z"/><path id="Fill-129" class="cls-28" d="M1111.55 178.39h9v-8h-9v8z"/><path id="Fill-130" class="cls-47" d="M1121.45 178.39h11.3v-9.2h-11.3v9.2z"/><path id="Fill-131" class="cls-28" d="M1123.44 178.39h11.31v-9.2h-11.31v9.2z"/><path id="Fill-132" class="cls-8" d="M1125.05 203.39s-3.7 2.8-4.4 2.6 2.7-3 2.7-3c-1.3-.6-5.3-.2-5.3-.2s-1.3 4.3-2 4 1.4-3.8 1.4-3.8a6.79 6.79 0 00-3.2 1c-2.4 1.9.2 4.9.2 4.9a7.11 7.11 0 01-2 2.8 6.17 6.17 0 00-2.3 4.5h.4a10.62 10.62 0 011.8-4l.2-.2.4-.4a11 11 0 011.7-1.3c.1 1.5 3.1 2.9 4.9 3.1s1.3-.5.6-1.6-2.6-1.6-3.1-2.1.5-.5 1.6 0 1.2 1.8 3 2.7 4.4-2.1 4.4-2.1c-1.4-.1-3.4-1.6-3.3-2.1s3.4.8 4 .9 1.9-.6 2.1-2.9c-.1-2.2-3.8-2.8-3.8-2.8"/><path id="Fill-133" class="cls-2" d="M1105.25 205.09s4.1-2.3 2.2-5.4a7.91 7.91 0 00-3.2-2.4s.9 4.7 0 4.8-.6-5.3-.6-5.3-4.3-2.1-6-1.9c0 0 2.7 4.5 1.8 4.4s-3.9-4.7-3.9-4.7-4.4-.8-5.2 1.8.4 3.9 1.1 4.1 4.9.1 4.8.7-3 1.4-4.6.9c0 0 1.8 4.3 4.1 4.1s3-1.6 4.4-1.8 2.5.3 1.8.7-3.1.1-4.3 1.1-2.1 1.6.1 2 6 .2 6.7-1.5l.8-1.6"/><path id="Fill-134" class="cls-8" d="M1106.35 209.09a8 8 0 01-1.1-4c-1.3-4.2-12.8-7.9-12.8-7.9 14.6 5.9 12.1 9.5 12.1 9.5a5.93 5.93 0 011.4 2.2 1.63 1.63 0 01.3.6.37.37 0 01.1.3 12.48 12.48 0 01.4 5.1l.5.1a7.74 7.74 0 00-.9-5.9"/><path id="Fill-135" class="cls-2" d="M1111.75 201.89s-5.4-3-2.9-7.2a11 11 0 014.2-3.2s-1.2 6.1 0 6.3.8-6.9.8-6.9 5.7-2.7 7.9-2.5c0 0-3.5 6-2.4 5.9s5.1-6.2 5.1-6.2 5.9-1.1 6.8 2.4-.6 5.2-1.4 5.4-6.4.1-6.3.9 3.9 1.9 6 1.2c0 0-2.3 5.7-5.3 5.4s-4-2.2-5.9-2.3-3.3.4-2.3.9 4.1.2 5.6 1.5 2.7 2.1-.1 2.7-7.9.2-8.9-2l-.9-2.3"/><path id="Fill-136" class="cls-8" d="M1128.75 191.49s-15.2 4.9-16.9 10.4a11.39 11.39 0 01-1.4 5.3 10.29 10.29 0 00-1 7.9l.6-.2s-.5-4.3.5-6.8c0-.1.1-.2.2-.4l.4-.8a9.08 9.08 0 011.8-2.9c-.1.1-3.5-4.7 15.8-12.5"/><path id="Fill-137" class="cls-6" d="M1101 213.79a10.6 10.6 0 0021.2 0H1101"/><path id="Fill-138" class="cls-9" d="M1114.25 224.39a5.7 5.7 0 01-1.3.1 10.61 10.61 0 01-10.6-10.6h2.6a10.66 10.66 0 009.3 10.5"/><path id="Fill-139" class="cls-6" d="M1121.05 223.69h-18.9a1.32 1.32 0 00-1.3 1.3h21.5a1.32 1.32 0 00-1.3-1.3"/><path id="Fill-140" class="cls-5" d="M1100.65 214.19h21.8v-.4h-21.8v.4z"/><path id="Fill-170" class="cls-48" d="M1108.55 140.79h37.3v-1.3h-37.3v1.3z"/><path id="Fill-171" class="cls-4" d="M1099.75 129.79h48.4v-1.3h-48.4v1.3z"/><path id="Fill-172" class="cls-48" d="M1108.55 153.79h37.3v-1.3h-37.3v1.3z"/><path id="Fill-173" class="cls-48" d="M1108.55 166.69h37.3v-1.3h-37.3v1.3z"/><path id="Fill-174" class="cls-48" d="M1108.55 179.69h37.3v-1.3h-37.3v1.3z"/><path id="Fill-175" class="cls-5" d="M1109.85 152.49h10.6v-10.6h-10.6v10.6z"/><path id="Fill-176" class="cls-6" d="M1113.15 152.49h10.5v-10.6h-10.5v10.6z"/><path id="Fill-177" class="cls-7" d="M1113.15 141.89l-3.3 2v-2h3.3"/><path id="Fill-178" class="cls-3" d="M1117.35 152.49h8.3v-8.3h-8.3v8.3z"/><path id="Fill-179" class="cls-4" d="M1119.85 152.49h8.3v-8.3h-8.3v8.3z"/><path id="Fill-180" class="cls-49" d="M1123.94 151.49l-3.09.6-.3-1.6 3.1-.6.29 1.6"/><path id="Fill-181" class="cls-49" d="M1121.35 146.29h-3l.1-.3-.1-.4h3l-.2.4.2.3"/><path id="Fill-182" class="cls-28" d="M1119.85 145.59v.7h-1.5l.1-.3-.1-.4h1.5"/><path id="Fill-183" class="cls-50" d="M1114.85 144.19h-3.5l.1-.4-.1-.5h3.5l-.2.5.2.4"/><path id="Fill-184" class="cls-7" d="M1113.15 143.29v.9h-1.8l.1-.4-.1-.5h1.8"/><path id="Fill-185" class="cls-50" d="M1114.85 150.59h-3.5l.1-.5-.1-.4h3.5l-.2.5.2.4"/><path id="Fill-186" class="cls-7" d="M1113.15 149.69v.9h-1.8l.1-.5-.1-.4h1.8"/><path id="Fill-187" class="cls-3" d="M1114.95 139.59h8.4v-8.4h-8.4v8.4z"/><path id="Fill-188" class="cls-4" d="M1117.55 139.59h8.3v-8.4h-8.3v8.4z"/><path id="Fill-189" class="cls-49" d="M1121.35 136.89l-3.1.7.3 1.5 3.1-.6-.3-1.6"/><path id="Fill-190" class="cls-49" d="M1119.05 133.39h-3l.1-.4-.1-.4h3l-.2.4.2.4"/><path id="Fill-191" class="cls-28" d="M1117.55 132.59v.8h-1.5l.1-.4-.1-.4h1.5"/><path id="Fill-192" class="cls-5" d="M1126.94 139.49h5.91v-5.8h-5.91v5.8z"/><path id="Fill-193" class="cls-6" d="M1128.85 139.49h5.8v-5.8h-5.8v5.8z"/><path id="Fill-194" class="cls-7" d="M1128.85 133.69l-1.91 1.1v-1.1h1.91"/><path id="Fill-195" class="cls-50" d="M1129.75 134.89h-1.9l.09-.2-.09-.3h1.9l-.1.3.1.2"/><path id="Fill-196" class="cls-7" d="M1128.85 134.39v.5h-1l.09-.2-.09-.3h1"/><path id="Fill-197" class="cls-50" d="M1129.75 138.49h-1.9l.09-.3-.09-.2h1.9l-.1.3.1.2"/><path id="Fill-198" class="cls-7" d="M1128.85 137.99v.5h-1l.09-.3-.09-.2h1"/><path id="Fill-199" class="cls-3" d="M1109.95 165.39h6.9v-6.9h-6.9v6.9z"/><path id="Fill-200" class="cls-4" d="M1112.05 165.39h7v-6.9h-7v6.9z"/><path id="Fill-201" class="cls-49" d="M1115.45 164.59l-2.5.5-.3-1.3 2.6-.5.2 1.3"/><path id="Fill-202" class="cls-49" d="M1113.35 160.29h-2.5l.1-.3-.1-.3h2.5l-.2.3.2.3"/><path id="Fill-203" class="cls-28" d="M1112.05 159.69v.6h-1.2l.1-.3-.1-.3h1.2"/><path id="Fill-204" class="cls-3" d="M1119.85 165.39h6.9v-6.9h-6.9v6.9z"/><path id="Fill-205" class="cls-4" d="M1121.95 165.39h6.9v-6.9h-6.9v6.9z"/><path id="Fill-206" class="cls-49" d="M1125.35 164.59l-2.6.5-.2-1.3 2.6-.5.2 1.3"/><path id="Fill-207" class="cls-49" d="M1123.25 160.29h-2.5l.1-.3-.1-.3h2.5l-.2.3.2.3"/><path id="Fill-208" class="cls-28" d="M1121.95 159.69v.6h-1.2l.1-.3-.1-.3h1.2"/><path id="Fill-209" class="cls-5" d="M1129.25 152.49h5v-5.1h-5v5.1z"/><path id="Fill-210" class="cls-6" d="M1130.75 152.49h5.1v-5.1h-5.1v5.1z"/><path id="Fill-211" class="cls-7" d="M1130.75 147.39l-1.5 1v-1h1.5"/><path id="Fill-212" class="cls-3" d="M1132.75 152.49h4v-4h-4v4z"/><path id="Fill-213" class="cls-4" d="M1133.94 152.49h4v-4h-4v4z"/><path id="Fill-214" class="cls-49" d="M1135.94 151.99l-1.5.3-.09-.7 1.4-.3.19.7"/><path id="Fill-215" class="cls-49" d="M1134.75 149.59h-1.5l.1-.2-.1-.2h1.4v.2l.1.2"/><path id="Fill-216" class="cls-28" d="M1133.94 149.19v.4h-.69l.1-.2-.1-.2h.69"/><path id="Fill-217" class="cls-50" d="M1131.65 148.49h-1.71v-.4h1.71l-.1.3.1.1"/><path id="Fill-218" class="cls-7" d="M1130.75 148.09v.4h-.81v-.4h.81"/><path id="Fill-219" class="cls-50" d="M1131.65 151.59h-1.71v-.4h1.71l-.1.2.1.2"/><path id="Fill-220" class="cls-7" d="M1130.75 151.19v.4h-.81v-.4h.81"/><path id="Fill-221" class="cls-4" d="M1140.55 156.19l-2.2 9.3h5.9l2.1-9.3h-5.8"/><path id="Fill-222" class="cls-39" d="M1136.65 156.19l-2.1 9.3h5.89l2.11-9.3h-5.9"/><path id="Fill-223" class="cls-6" d="M1138.35 161.19v4a.32.32 0 01-.3.3h-6.7a.27.27 0 01-.3-.3v-4a.27.27 0 01.3-.3h6.7a.32.32 0 01.3.3"/><path id="Fill-224" class="cls-5" d="M1138.35 161.19v.1l-3.6 1.9-3.6-2a.27.27 0 01.3-.3h6.7a.37.37 0 01.2.3"/><path id="Fill-225" class="cls-5" d="M1136.55 164.79c-.1 0-.1 0-.1.1s0 .1.1.1h1.3c.1 0 .1 0 .1-.1s0-.1-.1-.1z"/><path id="Fill-228" class="cls-5" d="M1136.55 164.69h-1.3c-.1 0-.1 0-.1.1s0 .1.1.1h1.3c.1 0 .1 0 .1-.1a.1.1 0 00-.1-.1"/><path id="Fill-89" class="cls-14" d="M1022.05 224a45.46 45.46 0 01-3.5-4.5l-2.1-3.9-2.8.7 3.5 4.9 3.6 3.1 1.3-.3"/><path id="Fill-90" class="cls-40" d="M1004.65 148.09a3.44 3.44 0 00-1.9-.4 1.42 1.42 0 01.4-.2 5.31 5.31 0 00-1.1.3c-4.6-1.8-5.3 5-5.2 6.6s-1.5 2.1-3.9 3.3c-4.6 2.4-5 5.5-5 5.5a.1.1 0 01.1.1c.2-.4.7-1.1 1.1-1.2a8.88 8.88 0 00-.6 1.5c1.3 1 3.9 3.3 5.6 4.9a3.08 3.08 0 01.1-1l.2 1.3c.9.9 1.6 1.5 1.6 1.5-.1-1.3 5.7-8 8.8-10a8.92 8.92 0 001-3.2 9.22 9.22 0 01-.6 2.9c2.6-2.3 1.1-10.9-.6-11.9"/><path id="Fill-91" class="cls-14" d="M1004.65 160.49a4.37 4.37 0 01-2.6.5c-1.1-.3-1.7-1.7-1.7-1.7.4-.1.6-.7.6-3.3h.2l3.4.7s-.1 1.1-.1 2.1c0 .8 0 1.6.2 1.7"/><path id="Fill-92" d="M1000.85 149.19a2.73 2.73 0 013.8-.1 27.18 27.18 0 00-3.8.1" fill="#e37970" fill-rule="evenodd"/><path id="Fill-93" class="cls-45" d="M1004.55 156.59s-.1 1.1-.1 2.1c-1.9-.1-2.9-1.8-3.3-2.7l3.4.6"/><path id="Fill-94" class="cls-40" d="M1000.75 155.59a9.61 9.61 0 01-1.2-2.9c-.2-1 .3-4.5 3.9-4a4.68 4.68 0 012 .8c.8.5 1.9 1.7.6 4.8l-.3 1-5 .3"/><path id="Fill-95" class="cls-35" d="M1018.05 218.09l-1.8.1-1.9.1a38.1 38.1 0 01-7-13c-.1-.2-.1-.4-.2-.6-1.4-4-4.2-9.1-5.8-13.6a16.55 16.55 0 01-.6-2.1c-.1-.2-.1-.4-.2-.6a50 50 0 01-1.7-9.1l10.9.1a192.71 192.71 0 008.3 38.7"/><path id="Fill-96" class="cls-6" d="M1008.85 180.49a14.39 14.39 0 01-10.2.6c-.1 0 .4-21.4 1.9-22a3.32 3.32 0 002.4.9c1.1 0 1.5-.5 1.4-1 1.2.7 2.1 1.3 2.1 1.3 1.1 1.6 2.4 20.2 2.4 20.2"/><path id="Fill-97" class="cls-36" d="M998.75 173.59c-.5.7-1.4 4.8-3.7 5.3 1.2-2.9 2.1-4.2 2.2-5.1a16.83 16.83 0 00.1-5c.8-1.3 1.3-2.2 1.3-2.2.1-.2 1.2-3.8 1.6-.6a13.53 13.53 0 01-1.5 7.6"/><path id="Fill-98" class="cls-14" d="M1005.15 157.59s-4.5.1-4.5-2.7-.6-4.7 2.3-4.8 3.4.9 3.7 1.8-.3 5.6-1.5 5.7"/><path id="Fill-99-2" data-name="Fill-99" class="cls-40" d="M1005 150s-1.2 3.3-3.1 3.8a3.67 3.67 0 01-2.7 0 5.23 5.23 0 001.7-3.2s3.2-2.2 4.1-.6"/><path id="Fill-100-2" data-name="Fill-100" class="cls-40" d="M1004.65 150.19a3.59 3.59 0 011.1 1.4c.2.7.3 2.2.8 2.1 0 0 .9-2.2-.1-3.5s-1.8 0-1.8 0"/><path id="Fill-101-2" data-name="Fill-101" class="cls-14" d="M1023.25 162.19a2.78 2.78 0 013.1-2c.3.1 1.1.4.6 1.3-.4.7-.6.3-1.2 1.2a2 2 0 01-2.1 1l-.4-1.5"/><path id="Fill-102-2" data-name="Fill-102" class="cls-14" d="M1001.75 223.49c-.2-.8-.4-2.3-.4-2.3l.1-5.2h-3.1l1.2 4.9a6.13 6.13 0 01-.2 2.1s-.3 1.4 1.1 1.4c1.1.1 1.5 0 1.3-.9"/><path id="Fill-103-2" data-name="Fill-103" class="cls-52" d="M1001.85 225.09h-2.8a10.41 10.41 0 01.1-2.1c1.5 1.5 2.5 0 2.5 0a5.61 5.61 0 01.2 2.1"/><path id="Fill-104-2" data-name="Fill-104" class="cls-52" d="M1023.35 225.09h-3.5a4.89 4.89 0 01-.9-1.5 2.26 2.26 0 00-1.1-.8v2.3h-.7l-.7-2.5a2.4 2.4 0 01.2-2.2c.4 0 1.4.2 3.2 2.4a2.42 2.42 0 001.9.9c1.2.5 1.5 1.1 1.6 1.4"/><path id="Fill-105-2" data-name="Fill-105" class="cls-53" d="M1023.25 162.19s-2.9 1.6-4 2.1c-.6.3-2 .9-3 1.4a1.53 1.53 0 01-1.8-.4c-1.6-1.9-5.8-5.9-10-6.4 0 0 2.6 6.4 2.7 7.7s.3 21.2.3 21.2-.2.9 1.6.5a5.11 5.11 0 002.2-.8s-1.7-12.3-1.2-16.6a9.24 9.24 0 00-.2-2.8 21.45 21.45 0 005.7 2.3 33.3 33.3 0 005.5-3.3 17.26 17.26 0 002.7-3.5l-.5-1.4"/><path id="Fill-106-2" data-name="Fill-106" class="cls-36" d="M1016.25 218.19l-1.9.1a38.1 38.1 0 01-7-13c-.1-.2-.1-.4-.2-.6-1.4-4-4.2-9.1-5.8-13.6a16.55 16.55 0 01-.6-2.1c-.1-.2-.1-.4-.2-.6l1.6-1.2s4.8 7.8 6.3 15.1c1.3 6.3 6.4 14 7.8 15.9"/><path id="Fill-107-2" data-name="Fill-107" class="cls-35" d="M1002.25 202.89c0 3.6-.2 11.8-.6 15.2h-3.1c-1.2-5.9-2-10.8-2.6-15-.5-3.5-.9-6.4-1.3-9s-.6-4.7-.7-6.5V186l9.4-.9c-.1 6.2-1.1 15.7-1.1 17.8"/><path id="Fill-108-2" data-name="Fill-108" class="cls-36" d="M1000 218.09h-1.4c-1.2-5.9-2-10.8-2.6-15-.5-3.5-.9-6.4-1.3-9s-.6-4.7-.7-6.5l3.5 2s-2.2.8-1.4 6.7 2.7 20.9 3.9 21.8"/><path id="Fill-109-2" data-name="Fill-109" class="cls-53" d="M1000.35 187.49s-.7 2.4-3 2.1a27.47 27.47 0 01-5.6-1.7s1-3.1 2.2-7.2v-.1c1.4-4.8 3.2-10.9 4.1-14.9a.37.37 0 01.1-.3c.2-1.1.4-2.1.5-2.7l1.9-3.7s2.8 6.4 3 8-3.2 20.5-3.2 20.5"/><path id="Fill-110-2" data-name="Fill-110" class="cls-14" d="M998.05 166.79l2.5-7.7a36.66 36.66 0 00-4.8 1.7 11 11 0 00-1.6 4.2s-.7 7.1.8 9.7c0 0 4.6.9 11.9-1.6v-1.7s-8 .4-9.7.6l.9-5.2"/><path id="Fill-111-2" data-name="Fill-111" class="cls-54" d="M1000.05 170.39c-.1 2.6-.7 7.5-6 10.2 1.4-4.8 3.2-10.9 4.1-14.9a9.75 9.75 0 011.9 4.7"/><path id="Fill-112-2" data-name="Fill-112" class="cls-53" d="M1000.65 159.09s-4.7.3-5.8 2.8-1.5 10.8-.1 13.2a12 12 0 005.4-.1h.1s1.1-2.7.1-3.2c0 0-2.9.2-2.6-.8s2.9-11.9 2.9-11.9"/><path id="Fill-113-2" data-name="Fill-113" class="cls-14" d="M1006.15 171.89a5.33 5.33 0 00.8-1.6 1.66 1.66 0 011.7-1.5c1.1-.1 1.6-.2 1.6.2a8.23 8.23 0 01-2.5 3.8c-1.7 1.3-1.6-.9-1.6-.9"/><path id="Fill-154" class="cls-12" d="M955.65 217.89s-1.5 1.4-1.2 2.4 1.7 1.7 1.9 2.9.9 1.9 1.6 1.9h3.2s.5-.9-.7-1.1-1.6-1.7-1.6-3a20.42 20.42 0 00-.1-3.1l-2.5-.6-.6.6"/><path id="Fill-155" class="cls-12" d="M983.35 225.19h-8.7c-.6-.3-.4-2.4-.3-3.1v-.2s3-2.4 3.4-.6v.2c.5 1.7 2.8 2.5 4.2 2.7 1.1.1 1.3.7 1.4 1"/><path id="Fill-156" class="cls-11" d="M981.65 176.19s-.5 5.7-1 12.4c-.7 9.2-1.6 20.6-1.7 22.7-.1 3.7-.7 9.7-.7 9.7s-1.4 1.4-4.3.8a97.38 97.38 0 01-3.2-17.5v-.4c-.7-9.2-1.7-28.5-1.7-28.5l12.6.8"/><path id="Fill-157" class="cls-12" d="M981.65 176.19s-.5 5.7-1 12.4l-9.9 15.7v-.4c-.7-9.2-1.7-28.5-1.7-28.5l12.6.8"/><path id="Fill-158" class="cls-11" d="M979.55 176.89s-8.2 20.5-13.5 30.1-7.1 12.3-7.1 12.3-3-1.2-3.3-2.1c0 0 2.1-18.6 5.7-23.1 2-2.6 4.4-10.2 4.5-12.9s.7-8 .7-8l13 3.7"/><path id="Fill-159" class="cls-55" d="M987.85 171.29l.5.9a2 2 0 011.7 2.8s-.4 1-1 .7-.3-.3-1.3-.7a1.93 1.93 0 01-1.3-2l-.2-.8 1.6-.9"/><path id="Fill-160" class="cls-56" d="M975.35 145.29a20.15 20.15 0 00.4-3.4l-4.1-3.3a8.14 8.14 0 01-2.8 6.8s5.5 2.7 8.7 1.7a8.37 8.37 0 00-2.2-1.8"/><path id="Fill-161" class="cls-55" d="M976.75 141.79s-5.3.9-5.8-2.4-1.5-5.4 1.8-6.1 4.2.5 4.6 1.5.8 6.7-.6 7"/><path id="Fill-162" class="cls-12" d="M971.05 139.59a5.43 5.43 0 014.9-5.1c3.3-.5 1.3-3.2.9-3.7l-5.1 1c-5.4 1.3-1.3 7.2-.7 7.8"/><path id="Fill-163" class="cls-3" d="M987.25 172.49a7.56 7.56 0 001.2-1.7s-6-7.4-6.5-8.2-4.1-13.1-4.1-13.1l-9.2-1.9s7.7 15.8 9 17.8c2.1 3.2 8.4 7.9 8.4 7.9a2.71 2.71 0 001.2-.8"/><path id="Fill-164" class="cls-57" d="M982.05 176.69a.37.37 0 01-.3.1c-1.2 0-4.7.6-7.7.3a22.9 22.9 0 01-7.1-2c-.3-.1-1-.5-1-.9a10.36 10.36 0 01.1-1.6 79.54 79.54 0 00.2-11.5 24.37 24.37 0 01-.1-2.7c0-6.6 1.3-12.4 3.9-14.4.2-.2 1.6.5 2.9 1.2a3.81 3.81 0 003.1.3l1.5 1.1a11.39 11.39 0 013.5 5.5 59 59 0 011 10.2c.1 1.9.1 3.7.2 5.5v.6c-.1 4.6-.2 8.2-.2 8.3"/><path id="Fill-165" class="cls-3" d="M966.05 172.59a79.54 79.54 0 00.2-11.5 24.37 24.37 0 01-.1-2.7c1.1-2.6 2-4.6 2-4.6H971c-.1.1 1.9 13.8-4.9 18.8"/><path id="Fill-166" class="cls-55" d="M960.65 173.49l-.5.9a2.13 2.13 0 01-1.4 3s-1 .3-1.1-.5a9.89 9.89 0 00-.1-1.5 1.84 1.84 0 011-2.2l.6-.6 1.5.9"/><path id="Fill-167" class="cls-57" d="M959.25 173.69a8.46 8.46 0 002.1.1s2.9-9.1 3.3-9.9 8.7-10.7 8.7-10.7l-3.5-8.7s-9 15.1-10 17.2c-1.5 3.5-2 11.4-2 11.4a3 3 0 001.4.6"/><path id="Fill-221-2" data-name="Fill-221" class="cls-4" d="M1175.85 166.59l-2.1 9.2h5.9l2.1-9.2h-5.9"/><path id="Fill-222-2" data-name="Fill-222" class="cls-49" d="M1172.05 166.59l-2.11 9.2h5.91l2.09-9.2h-5.89"/><path id="Fill-225-2" data-name="Fill-225" class="cls-4" d="M1173.65 167.69a.2.2 0 100 .4h2a.2.2 0 100-.4z"/><path id="Fill-225-3" data-name="Fill-225" class="cls-4" d="M1174.05 168.29c-.1 0-.1 0-.1.1s0 .1.1.1h1.3c.1 0 .1 0 .1-.1s0-.1-.1-.1z"/><path id="Fill-125" class="cls-30" d="M1168.25 171.29a8.46 8.46 0 001.7-.6c.8-.4 2.8-.6 3.3-.2s-.5 2.1-2.3 2.1a6.18 6.18 0 00-2.4.4l-.3-1.7"/></g><g id="Group-3"><path id="Fill-3-3" data-name="Fill-3" class="cls-27" d="M449.4 134.76c-36.5 0-56.4-47.7-107-7.8-12.6 9.9-52.2-18.7-64 28.7-2.2 8.8-15 13.4-29 20.3-22.1 10.9-5.8 49.1 15 49.3s174-.4 174-.4 82.2-90.1 11-90.1"/><path id="Fill-4-3" data-name="Fill-4" class="cls-58" d="M500.3 216.76l.5-.3s3.5-4.6 2.1-4.8c-.8-.1-2.3 2.3-3.2 4.2a2.18 2.18 0 00-.4-.5c1-4.6 2.6-13.7-.7-14.6-2.3-.7-4 3.8-5.1 8.2a58.77 58.77 0 00-8.4-6.5s34.4-28.6 8.7-43.6-45.3 38-45.3 38-17.6-16.3-34.4-10.3c-12 4.3-10.4 11.2-13.4 16-.4-4.1-1.5-9.7-4.2-9-3 .7.5 7.1 2.8 10.8a8.74 8.74 0 01-1 .8c-2.5-1.8-6.5-4.4-8.2-3.3-2.2 1.4.5 3.1 6.3 4.3-2.8 1.2-7 1.9-13.6 1.9-24-.1-17.8 17.2-17.8 17.2l138.8.3a20.4 20.4 0 00-3.5-8.8"/><path id="Fill-5-3" data-name="Fill-5" class="cls-58" d="M255.2 225.26l52.2.1s-3.8-3-6.5-1.9-8.1.3-8.9-1.8-3.4-4.4-10.2-4.7-9.9 3.5-13.3 4.6a12 12 0 01-5.1.4c-1.3-5.2-4.8-14.9-10.4-14.9s-1.6 4.5.7 5.9c1.4.9 4.6 5.4 6.8 8.6a8 8 0 00-1.8.4c-1.5-2.6-4.3-6.5-7.6-6.4-4.8.2-1.6 3 1 4.5 1.3.8 3.4 1.8 5 2.7a4 4 0 00-1.9 2.5"/><path id="Fill-17-3" data-name="Fill-17" class="cls-11" d="M407 142.26s-.4-6.4-8.8-4c-1.9.6-1.6 6.3 2.9 8.4l5.9-4.4"/><path id="Fill-18-3" data-name="Fill-18" class="cls-53" d="M403.6 150.76s3.3.6 4.5 1.8 4.1 4.8 2.3 16.7a4.17 4.17 0 01-4.2 3.9c-4 .3-2.6-22.4-2.6-22.4"/><path id="Fill-19-3" data-name="Fill-19" class="cls-34" d="M396.1 180.26c.6 3.9 4.3 14.1 4.2 17.6-.1 2.8 0 9.2.3 13.4a18.43 18.43 0 00.4 2.9c.3 1.6.7 3.4 1 4.5.5 2.6.2 4 .6 5.4s5.6 1.2 4 .3a4.17 4.17 0 01-1.8-1.9c-1.4-3.2.6-17.2 1.2-22.5.1-.7.1-1.2.2-1.6.2-3.3 2.5-25.4 2.5-25.4-5.5-3.1-13.1 3.4-12.6 7.3"/><path id="Fill-20-3" data-name="Fill-20" class="cls-59" d="M396.1 180.26c.6 3.9 4.3 14.1 4.2 17.6-.1 2.8 0 9.2.3 13.4L406 200c.1-.7.1-1.2.2-1.6.2-3.3 2.5-25.4 2.5-25.4-5.4-3.1-13.1 3.4-12.6 7.3"/><path id="Fill-21-3" data-name="Fill-21" class="cls-34" d="M408.1 173.66s-4.8 21.8-5.3 25.1-4.9 18.7-3.9 22.6a5.72 5.72 0 001.5 3c.2.4-3.5 1.2-3.8-.4-.4-2-.5-4.9-1-9.7-1-8.3 1-13.1 1.4-16.5s-1.6-14.5-.4-18.3c1.9-6.7 6.4-9.4 11.5-5.8"/><path id="Fill-22-3" data-name="Fill-22" class="cls-53" d="M395.5 193.76a30.64 30.64 0 003.1.3l1-4 .3 4c2.9.1 6.7 0 9.6-1.2l-.6-20a15.77 15.77 0 01-9-.8c-.1.1-6.5 5-4.4 21.7"/><path id="Fill-23-3" data-name="Fill-23" class="cls-11" d="M401.2 225.16h-4.4c-.4-.5-.8-2.6-1.2-3l-.1-.1v3.1h-.4a23.93 23.93 0 00-.3-4.2c-.2-.5-.4-.9-.3-1.1a7.55 7.55 0 011.6-1.3s1 5.3 1.6 5.4a6 6 0 002.7.1 2.62 2.62 0 01.8.6c0 .2.1.4 0 .5"/><path id="Fill-24-3" data-name="Fill-24" class="cls-11" d="M407.2 225.16h-4.4c-.3-.5-.8-2.5-1.2-3v3h-.4v-.4c0-.8-.1-2.5-.2-3.6-.3-.5-.6-1.1-.5-1.3a6.56 6.56 0 011.6-1.2s1 5.3 1.6 5.4a6.5 6.5 0 002.8.1s1 .5.7 1"/><path id="Fill-25-3" data-name="Fill-25" class="cls-60" d="M408.9 173.16a40.37 40.37 0 001.3-13 13.6 13.6 0 00-5.5-9.6s-5 .4-5.6 1.8 1.5 17.3.4 20.1c0 0 3.7 2.6 9.4.7"/><path id="Fill-26-3" data-name="Fill-26" class="cls-34" d="M405.6 151.26a6.2 6.2 0 01-.1-2.3v-.4l-4-1.2c-.1 1.3-.1 2.2-.2 2.9 0 .3-.1.6-.1.8a12.12 12.12 0 002 .7c1.4.4 2.1.3 2.3 0a1.34 1.34 0 00.1-.5"/><path id="Fill-27-3" data-name="Fill-27" class="cls-59" d="M405.4 148.46v.4a7.48 7.48 0 00-4.2 1.3 19.53 19.53 0 00.2-2.9l4 1.2"/><path id="Fill-28-3" data-name="Fill-28" class="cls-34" d="M406.5 148.76s-4.9 1-5.4-2.1-1.6-5 1.5-5.7 3.9.3 4.3 1.3.9 6.2-.4 6.5"/><path id="Fill-29-3" data-name="Fill-29" class="cls-11" d="M405.1 140a2.22 2.22 0 00-.9.1 4.18 4.18 0 00-4.7 1.4c-2.3 2.9 2.7 7.8 2.7 7.8a4.29 4.29 0 011.7-5.6c1.6-1 1.6-2 1.4-2.7h.1a2.49 2.49 0 012.1 2.6c-.1 0 .8-3.7-2.4-3.6"/><path id="Fill-30-2" data-name="Fill-30" class="cls-53" d="M396.5 173.56a15.25 15.25 0 006.3-.4 6.69 6.69 0 001.7-.7c1.8-1.1 2.6-9.1 2.3-12.2s-5.7-9.4-5.7-9.4c-1.3.9-1.5 3.2-2.3 6a101.56 101.56 0 00-2.3 16.7"/><path id="Fill-31-2" data-name="Fill-31" class="cls-61" d="M396.5 173.56a15.25 15.25 0 006.3-.4 10.15 10.15 0 001.6-3.8c.9-4.4-2.6-9.2-5.6-12.4-1.8 6.8-2.3 16.6-2.3 16.6"/><path id="Fill-32-2" data-name="Fill-32" class="cls-12" d="M397.6 171.76l3.9 2.8a1.08 1.08 0 001.5-.2l4.4-6.1a1.08 1.08 0 00-.2-1.5l-3.9-2.8a1.08 1.08 0 00-1.5.2l-4.4 6.1a1 1 0 00.2 1.5"/><path id="Fill-33-2" data-name="Fill-33" d="M403.7 169.86s1.9-.2 2.2.1a1.33 1.33 0 01-1.1 1.7 4 4 0 01-2.3-.8l1.2-1" fill="#da935b" fill-rule="evenodd"/><path id="Fill-34-2" data-name="Fill-34" class="cls-53" d="M401.1 150.86a6.7 6.7 0 00-4.6 3.6c-1.5 3.1-3.1 11-2.7 11.7s5.2 4.7 9.1 5.2a3.51 3.51 0 00.8-2.1s-5.3-3.3-5.8-4.2 4.1-8.5 4-9.8a29.88 29.88 0 00-.8-4.4"/><path id="Fill-50-3" data-name="Fill-50" class="cls-34" d="M342 224.16l.5-.6a36.9 36.9 0 01-3.6-4.6l-2.3-4.3-3.1.8 3.9 5.5 4.6 3.2"/><path id="Fill-51-3" data-name="Fill-51" class="cls-63" d="M367.5 224.36c0 .3-.2.5-.5.7a4.76 4.76 0 01-2.4 0h-.5c-1-.1-.9.2-2.7.2-2.1 0-2.8-.7-2.9-1s.8-.5 1.9-.7h.1c.1 0 .3-.1.4-.1 1.2-.3 2.4-.6 2.8-1.8a23.85 23.85 0 00.3-4.9h3.7a31.75 31.75 0 00-.9 5.2c.1.6.4.8.5 1.3v.1a1.23 1.23 0 01.2 1"/><path id="Fill-52-3" data-name="Fill-52" class="cls-64" d="M319.1 140.86a3 3 0 014.2-.1 13.32 13.32 0 00-4.2.1"/><path id="Fill-53-3" data-name="Fill-53" class="cls-65" d="M371.8 184.56c-.3 1.7-.8 3.6-1.1 5.4a28.07 28.07 0 00-.6 9.7 6.62 6.62 0 01.1 1.5c.1 6.1-2.6 17.2-2.6 17.2a5.52 5.52 0 01-2 .3 5.83 5.83 0 01-1.6-.4s-.3-6.9-.3-16.1c0-6.7-1.3-15.5-1.6-20.7a56.18 56.18 0 01.2-7.3s5.4-4.4 7.4-2.1c1.9 2.1 3.3 6 2.1 12.5"/><path id="Fill-54-3" data-name="Fill-54" class="cls-66" d="M370.1 199.76a6.62 6.62 0 01.1 1.5c-4.1-5.9-5-18.8-5-18.8l4.5 2.2s.5 2.4 1 5.5a27.33 27.33 0 00-.6 9.6"/><path id="Fill-55-2" data-name="Fill-55" class="cls-12" d="M323.3 139.66a4.31 4.31 0 00-2.1-.4.78.78 0 01.5-.2 2.54 2.54 0 00-1.2.3c-5.1-2-5.9 5.5-5.8 7.3s-1.7 2.3-4.4 3.7c-5.1 2.6-5.5 6.1-5.5 6.1a.1.1 0 01.1.1c.3-.4.8-1.2 1.2-1.3 0 0-.5 1.1-.7 1.7 1.5 1.1 4.3 3.7 6.2 5.4a4.1 4.1 0 01.1-1.1l.2 1.5a18.8 18.8 0 001.8 1.6c-.1-1.4 6.4-8.9 9.8-11.1a9.73 9.73 0 001.1-3.5 7.48 7.48 0 01-.7 3.2c3-2.7 1.3-12.3-.6-13.3"/><path id="Fill-56-2" data-name="Fill-56" class="cls-34" d="M323.6 153.36s-1.9.9-3.1.5a3.54 3.54 0 01-1.9-1.8c.5-.1.6-.8.6-3.7h.2l3.8.7s-.1 1.2-.1 2.3a3.22 3.22 0 00.5 2"/><path id="Fill-57-2" data-name="Fill-57" class="cls-59" d="M323.2 149.06s-.1 1.2-.1 2.3c-2.1-.1-3.2-2-3.7-3.1l3.8.8"/><path id="Fill-58-2" data-name="Fill-58" class="cls-12" d="M319 148a11.25 11.25 0 01-1.4-3.2c-.2-1.1.4-5 4.3-4.5a5 5 0 012.2.8c.9.6 2.1 1.8.7 5.3l-.4 1.2-5.4.4"/><path id="Fill-59-2" data-name="Fill-59" class="cls-64" d="M338.2 217.46l-2 .1-2.2.1a43.09 43.09 0 01-7.8-14.5c-.1-.2-.1-.4-.2-.6-1.5-4.5-4.7-10.1-6.4-15.2-.3-.8-.5-1.6-.7-2.3-.1-.2-.1-.5-.2-.7a54.17 54.17 0 01-1.9-10.1l12.1.1a231.66 231.66 0 009.3 43.1"/><path id="Fill-60-2" data-name="Fill-60" class="cls-60" d="M328 175.56a16.65 16.65 0 01-11.4.7c-.1 0-1.2-13.6-1.4-15.2-.4-4.1-.7-7.4-.7-7.4 1.7-.4 2.5-1.2 4.2-1.9a4 4 0 002.7 1c1.2 0 1.6-.5 1.6-1.1a25.78 25.78 0 012.3 1.4c1.2 1.9 2.7 22.5 2.7 22.5"/><path id="Fill-61-2" data-name="Fill-61" class="cls-34" d="M323.9 150.16s-5 .1-5-3-.7-5.2 2.5-5.4 3.8 1 4.1 2-.3 6.3-1.6 6.4"/><path id="Fill-62" class="cls-12" d="M325.3 142.06c-.8-.9-1.4-.7-1.7-.5-1.1-1.6-4.5.7-4.5.7a5.9 5.9 0 01-1.9 3.5s.9.6 3 0c1.7-.4 2.9-2.8 3.3-3.8a4.49 4.49 0 011.1 1.5c.2.8.4 2.4.8 2.4 0 .1 1.1-2.4-.1-3.8"/><path id="Fill-63-2" data-name="Fill-63" class="cls-34" d="M344 155.26a3.18 3.18 0 013.5-2.2c.3.1 1.3.5.7 1.5-.4.7-.6.4-1.3 1.4a2.2 2.2 0 01-2.3 1.1l-.6-1.8"/><path id="Fill-64-2" data-name="Fill-64" class="cls-34" d="M320.1 223.46c-.2-.9-.5-2.6-.5-2.6l.1-5.7h-3.5l1.3 5.5a5.72 5.72 0 01-.3 2.3 1.28 1.28 0 001.2 1.6c1.5 0 1.9-.1 1.7-1.1"/><path id="Fill-65-2" data-name="Fill-65" class="cls-53" d="M320.3 225.16h-3.1a6.4 6.4 0 01.1-2.2c1.7 1.6 2.8 0 2.8 0a10.28 10.28 0 01.2 2.2"/><path id="Fill-66-2" data-name="Fill-66" class="cls-53" d="M344.2 225.16h-3.8a7.1 7.1 0 01-1.1-1.7 1.51 1.51 0 00-1.3-.8v2.6h-.8l-.7-2.7a2.52 2.52 0 01.2-2.4c.4 0 1.6.3 3.6 2.6a2.66 2.66 0 002.2 1 2.78 2.78 0 011.7 1.4"/><path id="Fill-67" class="cls-53" d="M344 155.26s-3.3 1.8-4.5 2.4c-.7.3-2.2 1-3.3 1.5a1.84 1.84 0 01-2-.4c-1.8-2.1-6.4-6.6-11.2-7.1 0 0 2.9 7.1 3 8.6s.3 23.6.3 23.6-.2 1 1.8.6a6.76 6.76 0 002.5-.8s-1.8-13.8-1.3-18.5a11.25 11.25 0 00-.2-3.1 26.07 26.07 0 006.3 2.5 39.57 39.57 0 005.4-3.2 4.23 4.23 0 01.7-.5 20.26 20.26 0 003-3.9l-.5-1.7"/><path id="Fill-68" class="cls-67" d="M336.2 217.56l-2.2.1a43.09 43.09 0 01-7.8-14.5c-.1-.2-.1-.4-.2-.6-1.5-4.5-4.7-10.1-6.4-15.2-.3-.8-.5-1.6-.7-2.3-.1-.2-.1-.5-.2-.7l1.8-1.4s5.4 8.7 7 16.8c1.4 7.1 7.2 15.7 8.7 17.8"/><path id="Fill-69" class="cls-64" d="M320.7 200.56c0 4-.2 13.1-.7 16.9h-3.5c-1.3-6.6-2.2-12-2.9-16.7-.6-3.8-1-7.1-1.4-10s-.6-5.2-.7-7.3v-1.8l10.5-1c-.3 7-1.3 17.6-1.3 19.9"/><path id="Fill-70" class="cls-67" d="M318.1 217.46h-1.6c-1.3-6.6-2.2-12-2.9-16.7-.6-3.8-1-7.1-1.4-10s-.6-5.2-.7-7.3l3.8 2.3s-2.5.9-1.5 7.4 3 23.3 4.3 24.3"/><path id="Fill-71" class="cls-53" d="M318.6 183.46s-.7 2.7-3.3 2.3a27 27 0 01-6.2-1.9s1.1-3.4 2.4-8c1.6-5.5 3.7-12.5 4.6-17a14.21 14.21 0 00.5-3l2.1-4.1s3.1 7.1 3.3 8.8c.3 1.9-3.4 22.9-3.4 22.9"/><path id="Fill-72" class="cls-61" d="M318.4 164.36c-.1 2.9-.8 8.5-6.9 11.5 1.6-5.5 3.7-12.5 4.6-17 1.2 1.7 2.4 3.9 2.3 5.5"/><path id="Fill-73" class="cls-63" d="M379.3 224.36c0 .3-.2.5-.5.7a4.76 4.76 0 01-2.4 0h-.5c-1-.1-.9.2-2.7.2-2.1 0-2.8-.7-2.9-1s.8-.4 1.9-.7h.1c.1 0 .3-.1.4-.1 1.2-.3 2.4-.6 2.8-1.8s-.2-4.8-.2-4.8l3.4-.3s-.2 4.1-.1 5.3c.1.6.4 1 .5 1.5v.1a.9.9 0 01.2.9"/><path id="Fill-74" class="cls-65" d="M378.9 218.66a8.09 8.09 0 01-1.5.5 9.81 9.81 0 01-2-.1 79.2 79.2 0 00-1.9-11.5 98.74 98.74 0 00-5.6-17.6c-.5-1.3-2.8-7.3-3.2-8.8-1.1-4.6 0-4.1 0-4.1l10-1.2s1.2.6 1.8 7.1c.2 1.9.2 10.4.4 12a12.48 12.48 0 00.9 3.6c2 4.5 1.1 20.1 1.1 20.1"/><path id="Fill-75" class="cls-68" d="M379.3 224.36c0 .3-.2.5-.5.7a4.8 4.8 0 01-2.4 0h-.5a5.84 5.84 0 00-1.8.2h-1.5c-1.6-.1-2.2-.7-2.3-1s.8-.5 1.9-.7a7.54 7.54 0 003.2.6 32.33 32.33 0 003.9-.9v.1a3.33 3.33 0 010 1"/><path id="Fill-76" class="cls-68" d="M367.5 224.36a.75.75 0 01-.5.7 6.05 6.05 0 01-2.4.1h-.5c-.6 0-.8.1-1.3.1h-2.6c-1.2-.2-1.7-.7-1.7-1s.8-.5 1.9-.7a7.54 7.54 0 003.2.6 32.33 32.33 0 003.9-.9v.1a3.35 3.35 0 010 1"/><path id="Fill-77" class="cls-63" d="M383.8 175.86l.6 1c.3.4.4.6.7.7a3.3 3.3 0 011.9 2.8s0 .9-.7.6a13.09 13.09 0 00-1.3-.7c-.9-.4-1.2-1.7-1.3-2.2l-.7-1 .8-1.2"/><path id="Fill-78" class="cls-33" d="M363.5 145.86c-.3-2.8.5-7.2 6-6.5s7.2 6.1 6.1 8.5 1.6 3 2.5 5.6c.7 2.2 1 5 2.2 6.2 3.8 4-3.7 10.1-8.2 8.8-8.2-2.4-9.3-2.7-9-9.2.1-3.3 2.7-4.6 1.1-5.5-3.9-2.2.1-1.6-.7-7.9"/><path id="Fill-79" class="cls-34" d="M372.8 171.76a38.1 38.1 0 011.6 5.4l-12.2.2s.2-9.8-.4-13.3 3.4-11.1 3.4-11.1a9.44 9.44 0 011.4-.1l.3-1.2a5.91 5.91 0 000-1.9v-.3l4-1.2h.1a17.19 17.19 0 00.2 2.6c.2 1.9.4 2.3.5 2.4 1 .2 2.2.4 3.4.7-.1-.2-3.4 15-2.3 17.8"/><path id="Fill-80" d="M380.8 168.86c-.6-4.2-2.9-12.9-4.4-14.3-1.3-1.3-4.2-1.4-4.2-1.4-.6.9-2.7 3.3-5.2 2.9-1.4-.2-1.7-2.7-1.7-3-.4.1-3.6.6-4.6 2.2-1.4 2.4-2.9 9.7-4.4 9.6-.7 0-7.6-2.7-7.6-2.7a2.82 2.82 0 00-.9 2.4s3.4 2.3 6.3 3.8l1.2.6a4.36 4.36 0 002.4.6.76.76 0 00.4-.2 10.33 10.33 0 002.1-2.1 21.41 21.41 0 001.3-1.9 53 53 0 01.2 6.8 34.68 34.68 0 000 5.6c.5 1.7 4.5 2.2 8.1 2a24.41 24.41 0 003.8-.4 2.77 2.77 0 002.3-1.8c.4-1-1.5-5.6-1.6-7.6a10.16 10.16 0 01.6-4.7c1.3 3 2.6 5.1 2.8 5.6.4 1 5.9 7.1 5.9 7.1a4.42 4.42 0 00.8-.3 1 1 0 00.5-.6c-1.1-2.4-4.1-8.2-4.1-8.2" fill="#ebba56" fill-rule="evenodd"/><path id="Fill-81" class="cls-70" d="M375.8 177.46a2.77 2.77 0 01-2.3 1.8c-1.7-.3-2.9-3.5-3.5-5.1-.7-1.8 2.8-11.1 3.8-11 .7.1.8 1.3.9 1.9a11.92 11.92 0 00-.6 4.7c.3 2.1 2.1 6.7 1.7 7.7"/><path id="Fill-82" class="cls-34" d="M348.6 162.86s-.6-1.5-1.2-1.5-2.7-.4-2.9-.1a2.18 2.18 0 00.4 1.7 14.15 14.15 0 003.2 1l.5-1.1"/><path id="Fill-83" class="cls-70" d="M361.3 165.36c-.4.6-.9 1.3-1.3 1.9a13.86 13.86 0 01-2.1 2.1c-.2.1-.3.2-.4.2a5.49 5.49 0 01-2.4-.6h1.8c1.1-.1 1.4-1.2 3-2.9 1-1.2 1.3-1.1 1.4-.7"/><path id="Fill-84" class="cls-65" d="M323.6 175.66h-.4a13.89 13.89 0 000-2.2 4.44 4.44 0 00-.7-2.6l.2-.3c1.1.7.9 4.6.9 5.1"/><path id="Fill-85" class="cls-59" d="M370.9 148.36s-1.5 2.8-4.1 3.3a5.91 5.91 0 000-1.9v-.3l4-1.2.1.1"/><path id="Fill-86" class="cls-34" d="M328.2 170.16c-.2-.2-.8-.1-.8-.1l-2.6.5s-2.8-.7-5.7-1.6a15.43 15.43 0 00-1.7-.5l-.7 3.8c.3.1.6.1.9.2 1.9.4 4.2 0 7.4 0a4.21 4.21 0 001.9.2c.6-.4 1.5-2.3 1.3-2.5"/><path id="Fill-87" class="cls-53" d="M319 168.86a9.93 9.93 0 00-1.4 3.4 14.32 14.32 0 01-5.3-1.9c-.2-.2-.4-.3-.5-.5-1.5-3-.1-11.5-.1-11.5a12.24 12.24 0 011.8-4.7 41 41 0 015.3-1.9l-2 8.3-1.2 7.8c.8.2 2 .6 3.4 1"/><path id="Fill-88" class="cls-65" d="M324.2 175.56l-5.1-.8a11.49 11.49 0 013.6-4.8l-.4-.1a10.65 10.65 0 00-3.6 4.8l-1-.2a.9.9 0 00-1 .7l-.7 4.2a.9.9 0 00.7 1l6.5 1a.9.9 0 001-.7l.7-4.2a.78.78 0 00-.7-.9"/><path id="Fill-89-2" data-name="Fill-89" class="cls-34" d="M365.8 149.66s4.9 1 5.5-2.1 1.6-5-1.5-5.8-3.9.3-4.4 1.3-.9 6.3.4 6.6"/><path id="Fill-90-2" data-name="Fill-90" class="cls-33" d="M372.2 142.06c-.8-.9-2.1-2.3-2.1-2.3s-2.4-.8-4.9 1.6c-1 1-.9 3-.3 4.2 0 0 .9-2.5 2.4-3.1a2.66 2.66 0 001-.6 7.27 7.27 0 001.3 2c1.6 1.8 1.3 5.3 1.3 5.3s2.8-5.5 1.3-7.1"/><path id="Fill-91-2" data-name="Fill-91" class="cls-39" d="M367.3 148.16s-.1.4-1.1.2c0 0-.8-.1-.7-.5a2.79 2.79 0 011.8.3"/><path id="Fill-92-2" data-name="Fill-92" class="cls-61" d="M340.8 161.36a39.57 39.57 0 01-5.4 3.2 26.07 26.07 0 01-6.3-2.5c-.2-.5-.4-1.2.4-1.3 1.3-.2 4.8 3 5.7 2.9a41.74 41.74 0 005.6-2.3"/><path id="Fill-94-2" data-name="Fill-94" class="cls-12" d="M449.2 225.16h-8c-.4-.2-.4-1.5-.4-2.3v-.7s2.7-2.2 3.1-.6a3.55 3.55 0 00.4.9 5.29 5.29 0 003.5 1.7c1.3.1 1.4.9 1.4 1"/><path id="Fill-95-2" data-name="Fill-95" class="cls-11" d="M448.9 181.06a2.8 2.8 0 01-.1.6c-.2 1.4-.6 5.5-1.2 10.2a1.27 1.27 0 01-.1.6c-.2 2-.5 4.2-.7 6.3a2 2 0 01-.1.7c-.2 1.5-.3 2.9-.5 4.3-.5 4.6-.9 8.4-1 9.5-.2 3.4-.9 9.1-.9 9.1l-.1.1a6.16 6.16 0 01-3.6.4.37.37 0 01-.3-.1s-.6-2.5-1.3-6.1c-.1-.7-.3-1.5-.4-2.4-.2-1.2-.4-2.6-.5-3.9v-.5c-.1-1.1-.2-2.1-.2-3.2v-1.8c-.2-6.4-.5-16.5-.6-21.6a14.17 14.17 0 00-.1-2.3v-.9l7.3.7 4.4.3"/><path id="Fill-96-2" data-name="Fill-96" class="cls-12" d="M443.1 191.76c-.6 5-3.2 17.5-4.3 22.5-.2-1.2-.4-2.6-.5-3.9v-.5c-.1-1.1-.2-2.1-.2-3.2v-1.8c-.2-6.4-.5-16.5-.6-21.6 3.4-1.1 6.7 0 5.6 8.5"/><path id="Fill-97-2" data-name="Fill-97" class="cls-12" d="M438 225.16h-8.3c-.4-.3-.3-1.6-.3-2.4v-.6s2.7-2.2 3.1-.6a2 2 0 00.8 1.2 6.23 6.23 0 003.2 1.3 2.1 2.1 0 011.5 1.1"/><path id="Fill-98-2" data-name="Fill-98" class="cls-11" d="M444.2 180.56s-4.2 20.4-7.5 29.9-3.3 12.2-3.3 12.2-3 .7-4.3-.1c0 0-.8-18.1 1.2-23 1.3-3.2 1.6-4.7 1.3-12-.1-2.5 0-7.7 0-7.7l12.6.7"/><path id="Fill-99-3" data-name="Fill-99" class="cls-55" d="M426.7 179.86l.1 1.9a3.6 3.6 0 000 4.5s.8.9 1.2.1.1-.6.7-1.8a3.74 3.74 0 00-.2-3.2l.1-1.5h-1.9"/><path id="Fill-100-3" data-name="Fill-100" class="cls-56" d="M445.4 150.16a8 8 0 01-.6-3.1l-4.3-3c-.4 3.7-1 4.6-1 6.1 0 0 1.7 1.9 3.2 1.9s2.7-1.9 2.7-1.9"/><path id="Fill-102-3" data-name="Fill-102" class="cls-55" d="M445.9 147.16s-5.2.2-5.3-3-.8-5.4 2.5-5.7 4 .9 4.3 2-.2 6.6-1.5 6.7"/><path id="Fill-104-3" data-name="Fill-104" class="cls-12" d="M440.3 145.66s.3-.2-.8-1.8-1.5-1.1-1.6-2.8-.9-3.2 1.1-4.3a12.88 12.88 0 013.8-1.6c1.2-.2 3.4.1 4.1.8 1.3 1.4 1.1 4.9.4 4.5s-3.9-1.4-4.2-.7-1.7 5.3-2.8 5.9"/><path id="Fill-105-3" data-name="Fill-105" class="cls-3" d="M458.9 172.56c-.2-.2-2.5-1.7-2.9-2.2l-.5-.6c-1.6-2.1-4.4-6.8-4.4-6.8a2.8 2.8 0 01-.1.6s-.2-2.1 1-1.1 4.7 7.4 5.6 8.7a15.41 15.41 0 001.3 1.4"/><path id="Fill-106-3" data-name="Fill-106" class="cls-3" d="M436.1 179c-.8 1.2-2.4 1.5-3.8 1.7-.2 0-.3-.1-.5-.1a1 1 0 01-.9-1.2 58.19 58.19 0 001.8-7.6c.3-2.3.6-8.5.6-9.4.3 0 2 .2 2.4 5.2.6 5.3 1.9 9.2.4 11.4"/><path id="Fill-5-4" data-name="Fill-5" class="cls-44" d="M502 209.76a1 1 0 01-.4.7 3.77 3.77 0 01-2.2.2h-.5c-.9 0-.8.3-2.5.4-1.9.2-2.7-.4-2.8-.7s.7-.5 1.7-.8h.1c.1 0 .2-.1.4-.1 1.1-.4 2.2-.8 2.5-1.9s-.6-4.5-.6-4.5l3.1-.3s.3 3.5.5 4.6c.1.6.4 1 .5 1.5v.1c.2.1.2.4.2.8"/><path id="Fill-6-3" data-name="Fill-6" class="cls-43" d="M502 209.76a1 1 0 01-.4.7 4.84 4.84 0 01-2.2.2h-.5c-.9 0-.8.3-2.5.4-1.9.2-2.7-.4-2.8-.7s.7-.5 1.7-.8a6.73 6.73 0 003 .3c1.3-.2 2.6-.9 3.5-1.1v.1c.2.2.2.5.2.9"/><path id="Fill-7-3" data-name="Fill-7" class="cls-44" d="M482 205.76c-.2.9-1.4.7-2.8.4a3.62 3.62 0 00-1.4-.1 7.88 7.88 0 01-1.6 0c-1.9-.2-2.5-.9-2.6-1.2s.9-.3 1.9-.5h.4c1.2-.1 2-.9 3.1-1.5a12.72 12.72 0 002.5-3l2.7.2s-1.4 2.1-1.9 3a3.81 3.81 0 00-.3 1.8 1.39 1.39 0 010 .9"/><path id="Fill-8-3" data-name="Fill-8" class="cls-43" d="M479.3 206.16c-1.4-.3-1 .1-3-.2s-2.5-.9-2.6-1.2.9-.3 1.9-.5a6.26 6.26 0 002.8.9c1.3 0 2.7-.3 3.6-.3v.9c-.1.9-1.3.7-2.7.4"/><path id="Fill-9-3" data-name="Fill-9" class="cls-14" d="M488 166.76s-.6-1.5-1.3-1.6-2.9-.4-3.1-.1a2.08 2.08 0 00.5 1.9 18.53 18.53 0 003.4 1.1l.5-1.3"/><path id="Fill-10-3" data-name="Fill-10" class="cls-31" d="M492.2 188.76l5.7 15.4a4.2 4.2 0 001.7-.2 6.64 6.64 0 001.7-.8s-1.4-14.8-4-17.9-5.1 3.5-5.1 3.5"/><path id="Fill-11-3" data-name="Fill-11" class="cls-71" d="M514.9 182.56s-16.5-5.6-20.1-4.4-14.7 23.1-14.7 23.1a2.1 2.1 0 00.9.6 10.77 10.77 0 002.2.2s10-8.5 11.1-11 1.7-4.9 2.8-4.6 15.3 5.8 18.5 2.5a9.27 9.27 0 002.4-7.6l-3.1 1.2"/><path id="Fill-12-3" data-name="Fill-12" class="cls-72" d="M504.8 156.66a7.48 7.48 0 01-.7-3.2 8.94 8.94 0 001.2 3.6c3.4 2.2 10 9.7 9.9 11.2 0 0 2.3-3.9 2.4-3.9s4.3-5.4-.8-8.5c-2.6-1.6-2.6-3.6-2.4-5.4s-.7-9.3-5.8-7.3a2.54 2.54 0 00-1.2-.3 4.71 4.71 0 01.5.2 4.69 4.69 0 00-2.2.4c-2.1 1-3.8 10.6-.9 13.2"/><path id="Fill-13-3" data-name="Fill-13" class="cls-14" d="M505.5 157.16a4.57 4.57 0 002.9.5 3.22 3.22 0 001.9-1.9c-.5-.1-.6-.8-.6-3.7h-.2l-3.8.8s.1 1.2.1 2.3-.1 1.9-.3 2"/><path id="Fill-14-3" data-name="Fill-14" class="cls-73" d="M505.7 152.86s.1 1.2.1 2.3c2.1-.1 3.3-2 3.7-3.1l-3.8.8"/><path id="Fill-15-3" data-name="Fill-15" class="cls-72" d="M509.9 151.76a12.54 12.54 0 001.4-3.3c.2-1.1-.4-5.1-4.4-4.5a5.05 5.05 0 00-2.3.9c-.9.6-2.1 1.9-.7 5.3l.4 1.2 5.6.4"/><path id="Fill-16-3" data-name="Fill-16" class="cls-14" d="M505 154s5 .1 5-3.1.7-5.2-2.6-5.4-3.8 1-4.1 2.1.4 6.3 1.7 6.4"/><path id="Fill-17-4" data-name="Fill-17" class="cls-72" d="M509.7 146.06s-3.4-2.3-4.5-.7c-.3-.3-.9-.5-1.7.5-1.2 1.4-.1 3.9-.1 3.9.5.1.6-1.6.8-2.4a4.49 4.49 0 011.1-1.5c.4 1 1.6 3.4 3.3 3.8a4.51 4.51 0 003 0 6.58 6.58 0 01-1.9-3.6"/><path id="Fill-18-4" data-name="Fill-18" class="cls-6" d="M516.7 170.66c.5-2.1-1.2-6.1-3-9.5a29.85 29.85 0 00-3.4-5.4c-4.2 2.5-4.6.4-4.6.4s-3.8.5-4.9 2.4c-1.5 2.6-3.1 10.3-4.7 10.2-.7-.1-8.2-2.8-8.2-2.8a3.5 3.5 0 00-1 2.6 66.54 66.54 0 006.8 4c1.6.8 3.1 1.4 3.8 1.2 1.4-.3 3.6-3.6 4.8-5.5 1.5 8.6-.5 10.6.5 11.5s2.7-.5 6.2 1c2.3 1 5.4 2.4 7.6 2.7 1.1.1 1.9-.1 2.2-.8.8-2.2-3-8-2.1-12"/><path id="Fill-19-4" data-name="Fill-19" class="cls-39" d="M506.1 152.06s-.1.4-1.1.3c0 0-.8-.1-.8-.5a2.65 2.65 0 011.9.2"/><path id="Fill-20-4" data-name="Fill-20" class="cls-20" d="M518.8 182.66c-.3.8-1.1.9-2.2.8-1.5-.6-7.8-3.1-7.8-4.8.1-2.5 1.2-2.6.4-5.6-.6-2.5 3.7-7.5 4.6-8.5 1.8 3.3 3.4 4 2.9 6.1-.9 4 2.9 9.8 2.1 12"/><path id="Fill-21-4" data-name="Fill-21" class="cls-20" d="M502.3 168.26c-1.2 1.9-3.4 5.2-4.8 5.5-.7.2-2.2-.4-3.8-1.2a10.47 10.47 0 003.5.2c1.2-.1 1.6-1.6 3.5-3.9 1.2-1.4 1.5-1 1.6-.6"/><path id="Fill-22-4" data-name="Fill-22" class="cls-14" d="M508.2 173.06a3.18 3.18 0 00-2.1-.6 1.76 1.76 0 00-1.5 1.2 1.86 1.86 0 001.3 1.3 13 13 0 003-.5l-.7-1.4"/><path id="Fill-23-4" data-name="Fill-23" class="cls-6" d="M510.3 155.86s4.1.3 5.5 2.2c2 2.8 5.5 14.2 4.5 16.8l-12.5-.1a3.84 3.84 0 01.1-2.1c.4-.7 7.3-1.8 7.6-2.1s-3.9-6.2-3.9-7.1-1.3-7.6-1.3-7.6"/><path id="Fill-24-4" data-name="Fill-24" class="cls-14" d="M526.5 173.76a4.64 4.64 0 00-1.7-.3 6.14 6.14 0 00-2.3 1.1v.3h4s.9-.2 1-.7-1-.4-1-.4"/><path id="Fill-25-4" data-name="Fill-25" class="cls-63" d="M541.3 224c0 .3-.2.5-.5.7a5.92 5.92 0 01-2.4.1h-.5c-1-.1-.9.2-2.7.2-2.1 0-2.8-.7-2.9-1s.8-.5 1.9-.7h.1c.1 0 .3-.1.4-.1 1.2-.3 2.4-.6 2.8-1.8a23.85 23.85 0 00.3-4.9h3.7a31.75 31.75 0 00-.9 5.2c.1.6.4.8.5 1.3v.1a1 1 0 01.2.9"/><path id="Fill-26-4" data-name="Fill-26" class="cls-65" d="M545.6 184.16c-.3 1.8-.8 3.6-1.1 5.4a28.07 28.07 0 00-.6 9.7 6.62 6.62 0 01.1 1.5c.1 6.1-2.6 17.2-2.6 17.2a5.52 5.52 0 01-2 .3 5.83 5.83 0 01-1.6-.4s-.3-6.9-.3-16.1c0-6.7-1.3-15.5-1.6-20.7a56.18 56.18 0 01.2-7.3s5.5-4.4 7.4-2.1c1.9 2.1 3.3 5.9 2.1 12.5"/><path id="Fill-27-4" data-name="Fill-27" class="cls-66" d="M543.9 199.26a6.62 6.62 0 01.1 1.5c-4.1-5.9-5-18.8-5-18.8l4.5 2.2s.5 2.4 1 5.5a27.66 27.66 0 00-.6 9.6"/><path id="Fill-28-4" data-name="Fill-28" class="cls-63" d="M553.1 224c0 .3-.2.5-.5.7a5.92 5.92 0 01-2.4.1h-.5c-1-.1-.9.2-2.7.2-2.1 0-2.8-.7-2.9-1s.8-.5 1.9-.7h.1c.1 0 .3-.1.4-.1 1.2-.3 2.4-.6 2.8-1.8s-.2-4.9-.2-4.9l3.4-.3s-.2 4.1-.1 5.3c.1.6.4 1 .5 1.5v.1a1 1 0 01.2.9"/><path id="Fill-29-4" data-name="Fill-29" class="cls-65" d="M552.7 218.26a8.09 8.09 0 01-1.5.5 9.81 9.81 0 01-2-.1 79.2 79.2 0 00-1.9-11.5 98.74 98.74 0 00-5.6-17.6c-.5-1.3-2.8-7.3-3.2-8.9-1.1-4.6 0-4.1 0-4.1l10-1.2s1.2.6 1.8 7.1c.2 2 .2 10.4.4 12a12.48 12.48 0 00.9 3.6c2 4.6 1.1 20.2 1.1 20.2"/><path id="Fill-30-3" data-name="Fill-30" class="cls-68" d="M553.1 224c0 .3-.2.5-.5.7a4.8 4.8 0 01-2.4 0h-.5c-1-.1-.9.2-2.7.2-2.1 0-2.8-.7-2.9-1s.8-.5 1.9-.7a7.54 7.54 0 003.2.6c1.4-.1 2.8-.7 3.9-.8v.1a2.7 2.7 0 010 .9"/><path id="Fill-31-3" data-name="Fill-31" class="cls-68" d="M541.3 224c0 .3-.2.5-.5.7a4.8 4.8 0 01-2.4 0h-.5c-1-.1-.9.2-2.7.2-2.1 0-2.8-.7-2.9-1s.8-.5 1.9-.7a7.54 7.54 0 003.2.6c1.4-.1 2.8-.7 3.9-.8v.1a2.7 2.7 0 010 .9"/><path id="Fill-32-3" data-name="Fill-32" class="cls-11" d="M537.3 145.46c-.3-2.8.5-7.2 6-6.5s7.3 6.1 6.1 8.5 1.6 3 2.5 5.6c.7 2.2 1 5 2.2 6.2 3.8 4-3.7 10.1-8.2 8.8-8.2-2.4-9.3-2.7-9-9.2.1-3.3 2.7-4.6 1.1-5.5-3.9-2.2.1-1.7-.7-7.9"/><path id="Fill-33-3" data-name="Fill-33" class="cls-14" d="M545.4 152.66l-1.5 3.9-3.3.2-1.6-2.4c1.9-1.4 1.8-4.1 1.7-5v-.3l4.1-1.2a17.19 17.19 0 00.2 2.6c.2 2.2.4 2.2.4 2.2"/><path id="Fill-34-3" data-name="Fill-34" class="cls-14" d="M539 152.56a25.4 25.4 0 019.8.8s-3.3 15.2-2.2 18a38.1 38.1 0 011.6 5.4L536 177s.2-9.8-.4-13.3 3.4-11.1 3.4-11.1"/><path id="Fill-35-3" data-name="Fill-35" class="cls-6" d="M548 169.46c.2 2 2.1 6.6 1.6 7.6a2.77 2.77 0 01-2.3 1.8 26 26 0 01-3.8.4c-3.7.2-7.6-.3-8.2-2a20.82 20.82 0 010-5.6c.3-3.1-.3-7.5-.4-10.4-.1-2.4 1.4-7.9 1.4-7.9a10.19 10.19 0 012.7-.8s.2 2.8 1.7 3.1c2.6.4 4.6-1.9 5.2-2.9 0 0 2.9.7 3.8 1.7s-.3 7.8-.5 8.5-.4 1.1-.6 1.7a10.41 10.41 0 00-.6 4.8"/><path id="Fill-36-3" data-name="Fill-36" class="cls-14" d="M558.5 173.76a4.64 4.64 0 011.7-.3 6.14 6.14 0 012.3 1.1v.3h-4s-.9-.2-1-.7 1-.4 1-.4"/><path id="Fill-37-3" data-name="Fill-37" class="cls-73" d="M544.9 150.56a6.84 6.84 0 00-4.2-1v-.3l4.1-1.2c0 1 .1 1.8.1 2.5"/><path id="Fill-38-3" data-name="Fill-38" class="cls-14" d="M539.6 149.26s4.9 1 5.5-2.1 1.6-5-1.5-5.8-3.9.3-4.4 1.3-.9 6.2.4 6.6"/><path id="Fill-39-3" data-name="Fill-39" class="cls-11" d="M546 141.56a3.81 3.81 0 00-2.9-1.1c.5-.6-1.6-2-4 .3-1 1-.9 3-.3 4.2 0 0 .9-2.5 2.4-3.1a2.66 2.66 0 001-.6 7.27 7.27 0 001.3 2c1.6 1.8 1.3 5.3 1.3 5.3s2.7-5.3 1.2-7"/><path id="Fill-40-3" data-name="Fill-40" class="cls-39" d="M541.1 147.66s-.1.4-1.1.2c0 0-.8-.1-.7-.5a2.82 2.82 0 011.8.3"/><path id="Fill-41-3" data-name="Fill-41" class="cls-53" d="M554.6 166.36c-1.9-7.2-2.9-11.2-4.4-12.5-1.3-1.1-4.2-1.2-4.2-1.2a22.6 22.6 0 00.1 2.6l-3.6 6.8a31.45 31.45 0 00-2.5 7.6c-.5-3.9-1-7.6-1-7.6a31.19 31.19 0 01-.6-4.5 44.29 44.29 0 00.6-5.1h-.2a7.82 7.82 0 00-4 1.2c-1.5 1.2-1.9 6.7-4.4 12.6 0 0-3.1 5.2-4 7.2a2 2 0 00.5.5 4.42 4.42 0 00.8.3s5.5-5.5 5.9-6.3c.1-.3.8-1.3 1.6-2.7a95.16 95.16 0 01-.3 11.1 1.75 1.75 0 00.9 1.8c3.4 1.9 13.7 7.2 15.6 2.1.2-.6-3.5-10.3-3-12.4a32.09 32.09 0 00.6-4c1.2 2.2 2.3 3.8 2.4 4.2.4.9 5.9 6.3 5.9 6.3a4.42 4.42 0 00.8-.3 1 1 0 00.5-.5c-1-2-4-7.2-4-7.2"/><path id="Fill-42-3" data-name="Fill-42" class="cls-54" d="M545.7 152.66l-3.3 9.4 3.3-3.1-.2-1a2.29 2.29 0 001.1-.1c.3-.2 1-5 1-5s-.7-.1-.9-.1-1-.1-1-.1"/><path id="Fill-43-3" data-name="Fill-43" class="cls-54" d="M539 152.56s-.7 7.4 0 9.6c0 0-2-3.2-1.6-3.9l.7-.5s-1.4-.2-1.2-1 1.4-4.1 1.4-4.1l.7-.1"/><path id="Fill-44-3" data-name="Fill-44" class="cls-74" d="M466.6 225.36h113.2v-25.6l-113.2-.3v25.9"/><path id="Fill-45-3" data-name="Fill-45" class="cls-74" d="M466.6 186.36h113.2v-6.7H466.6v6.7z"/><path id="Fill-46-3" data-name="Fill-46" class="cls-71" d="M584.7 179.66H458.8a2.22 2.22 0 01-2.2-2.2V177a2.22 2.22 0 012.2-2.2h125.9a2.22 2.22 0 012.2 2.2v.5a2.29 2.29 0 01-2.2 2.2"/><path id="Fill-64-3" data-name="Fill-64" class="cls-75" d="M511.2 163.26l-2.4-.3a.32.32 0 01-.3-.3l.2-1.1a.32.32 0 01.3-.3l2.4.3a.32.32 0 01.3.3l-.2 1.1a.27.27 0 01-.3.3"/><path id="Fill-65-3" data-name="Fill-65" class="cls-57" d="M509.7 162.66l-.8-.1.1-1 .8.1-.1 1"/><path id="Fill-66-3" data-name="Fill-66" class="cls-57" d="M511.2 162.06l-1-.1c-.1 0-.1-.1-.1-.2s.1-.1.2-.1l1 .1c.1 0 .1.1.1.2s-.1.2-.2.1"/><path id="Fill-67-2" data-name="Fill-67" class="cls-57" d="M511.2 162.46l-1.2-.2v-.1h.1l1.2.2a.1.1 0 01-.1.1"/><path id="Fill-68-2" data-name="Fill-68" class="cls-57" d="M511.2 162.66l-1.2-.2v-.1h.1l1.2.2-.1.1"/><path id="Fill-69-2" data-name="Fill-69" class="cls-75" d="M547.6 162l-2.3-.1a.27.27 0 01-.3-.3l.1-1a.27.27 0 01.3-.3l2.3.1a.27.27 0 01.3.3l-.1 1a.32.32 0 01-.3.3"/><path id="Fill-70-2" data-name="Fill-70" class="cls-57" d="M546.2 161.56l-.8-.1.1-1 .7.1v1"/><path id="Fill-71-2" data-name="Fill-71" class="cls-57" d="M547.5 160.86l-.9-.1a.1.1 0 010-.2l.9.1a.1.1 0 01.1.1c0 .1 0 .1-.1.1"/><path id="Fill-72-2" data-name="Fill-72" class="cls-57" d="M547.6 161.26l-1.1-.1 1.1.1"/><path id="Fill-73-2" data-name="Fill-73" class="cls-57" d="M547.5 161.36l-1.1-.1 1.1.1"/><path id="Fill-74-2" data-name="Fill-74" class="cls-54" d="M540.4 170.06a.4.4 0 11.4.4c-.2 0-.4-.3-.4-.4"/><path id="Fill-75-2" data-name="Fill-75" class="cls-54" d="M540.4 172.26a.4.4 0 11.4.4.43.43 0 01-.4-.4"/><path id="Fill-114-2" data-name="Fill-114" d="M552.3 200.36a10.88 10.88 0 00-.6-2.3 26.56 26.56 0 01-.9-3.6c-.2-1-.2-5-.3-8.1h29.3v14.4zm-6.7 0H544a3.08 3.08 0 00-.1-1c-.1-1-.2-2-.2-2.9a9.7 9.7 0 01.1-1.7c.6 1.8 1.2 3.7 1.8 5.6m-8.2 0l-36.4-.1c-.5-3.8-1.5-10.2-2.9-13.4 2.6.9 9.4 3.2 13.8 3.2 1.6 0 2.9-.3 3.6-1.1a8.32 8.32 0 001.7-2.6h19a130 130 0 011.2 14m-40.9-.1h-11.2a89.49 89.49 0 008.2-8l3 8m-29.9-.1v-13.8h21.7c-3.2 5.2-6.4 11.4-7.7 13.8z" fill="#b5d1fb" fill-rule="evenodd"/><path id="Fill-115-2" data-name="Fill-115" d="M501 200.26h-4.5l-3-8c.4-.5.6-.8.8-1.1 1.1-2.4 1.6-4.6 2.7-4.6h.2a4.28 4.28 0 011 .3c1.4 3.2 2.3 9.6 2.8 13.4" fill="#a3c2f2" fill-rule="evenodd"/><path id="Fill-116-2" data-name="Fill-116" d="M485.3 200.16h-4.7c1.3-2.5 4.5-8.6 7.7-13.8h29a8.32 8.32 0 01-1.7 2.6c-.7.8-2 1.1-3.6 1.1-4.5 0-11.2-2.3-13.8-3.2a4.28 4.28 0 00-1-.3h-.2c-1.1 0-1.6 2.3-2.7 4.6a3.32 3.32 0 01-.8 1.1 89.4 89.4 0 01-8.2 7.9" fill="#a5c3f3" fill-rule="evenodd"/><path id="Fill-117-2" data-name="Fill-117" class="cls-79" d="M543.7 200.36h-6.3c-.1-4.4-.7-9.6-1.1-14h3.2c.6 4.1 1.8 10.2 4.2 14"/><path id="Fill-118" d="M544 200.36h-.3c-2.4-3.7-3.6-9.8-4.2-14h1c.5 1.4 1 2.7 1.2 3.2.7 1.7 1.4 3.4 2 5.2 0 .6-.1 1.1-.1 1.7a28.25 28.25 0 00.2 2.9 3 3 0 01.2 1" fill="#a3c1f1" fill-rule="evenodd"/><path id="Fill-119" class="cls-79" d="M552.3 200.36h-6.8c-.5-1.8-1.1-3.7-1.8-5.6-.6-1.7-1.3-3.5-2-5.2-.2-.5-.7-1.7-1.2-3.2h10c.1 3.2.1 7.1.3 8.1a12.48 12.48 0 00.9 3.6 7 7 0 01.6 2.3"/><path id="Fill-149" d="M558.4 212a2.77 2.77 0 01.3-1.3c-.1.4-.2.7-.3 1.1v.2" fill="#958998" fill-rule="evenodd"/><path id="Fill-173-2" data-name="Fill-173" class="cls-74" d="M572.1 163.26l-2.5 11.6h9.7l2.2-11.6h-9.4"/><path id="Fill-174-2" data-name="Fill-174" fill="#afcdfb" fill-rule="evenodd" d="M572.4 163.56l-2.2 10.5h8.8l1.9-10.5h-8.5"/><path id="Fill-175-2" data-name="Fill-175" class="cls-74" d="M579.8 164.46h-6.7a.2.2 0 000 .4h6.7a.2.2 0 100-.4"/><path id="Fill-176-2" data-name="Fill-176" class="cls-74" d="M579.4 165.46h-6.7a.2.2 0 000 .4h6.7a.22.22 0 00.2-.2c.1-.1 0-.2-.2-.2"/><path id="Fill-177-2" data-name="Fill-177" class="cls-74" d="M579.2 166.46h-6.7a.2.2 0 000 .4h6.7a.22.22 0 00.2-.2c.1-.1 0-.2-.2-.2"/><path id="Fill-178-2" data-name="Fill-178" class="cls-74" d="M578.9 168.56h-6.7a.2.2 0 000 .4h6.7a.2.2 0 000-.4"/><path id="Fill-179-2" data-name="Fill-179" class="cls-74" d="M578.6 169.66h-6.7a.2.2 0 000 .4h6.7a.2.2 0 100-.4"/><path id="Fill-180-2" data-name="Fill-180" class="cls-74" d="M578.4 170.66h-6.7a.2.2 0 000 .4h6.7a.2.2 0 100-.4"/><path id="Fill-181-2" data-name="Fill-181" class="cls-54" d="M567.9 169.66l-1.4 4.8.2.1 1.5-4.8-.3-.1"/><path id="Fill-182-2" data-name="Fill-182" class="cls-53" d="M566.7 174.06a1 1 0 00-1 .8h1.9a.82.82 0 00-.9-.8"/><path id="Fill-183-2" data-name="Fill-183" class="cls-53" d="M567.9 174.66a5.38 5.38 0 01-.8-.1v-.1c.4.1 1.4.2 1.5-.2a2.25 2.25 0 00-.1-.7 7.42 7.42 0 01-.1-2.7c.2-1 0-1.3-.1-1.3s-.3.1-.3.1v-.1s.2-.2.4-.1.3.6.1 1.4a7.42 7.42 0 00.1 2.7 2.25 2.25 0 01.1.7c-.1.4-.4.4-.8.4"/><path id="Fill-93-2" data-name="Fill-93" class="cls-55" d="M465.7 174.66l.9.3a2.77 2.77 0 013.5 1.5s.4 1-.4 1.1a8.38 8.38 0 00-1.6 0 2.8 2.8 0 01-2.6-1.1l-1-.8 1.2-1"/><path id="Fill-101-3" data-name="Fill-101" class="cls-57" d="M466.4 174.66a4.54 4.54 0 01-.5.9 1.83 1.83 0 01-.8.7 71.1 71.1 0 01-6.3-3.7 4.23 4.23 0 00-.7-.5 15 15 0 01-2.5-2.1c-.1-.1-.1-.2-.2-.2-1.6-2.1-4.4-6.8-4.4-6.8a2.8 2.8 0 01-.1.6c-.1.9-.3 2.9-.6 6.2-.3 5 .7 11.1-1.5 11.4-10.1 1.1-13.4.2-16.6-.5-.2 0-.3-.1-.5-.1a1 1 0 01-.9-1.2 58.19 58.19 0 001.8-7.6c.3-2.3.6-8.5.6-9.4v-.1l-.1.1c0 .2-1 4.6-1.4 7.2-.3 2.1-3.3 11.4-3.3 11.4l-2-.1s-.6-10.1.3-12.7c.3-1 1.1-16.1 5.3-17.7a28.68 28.68 0 017.4-1.6c.1 1.4 2.1 2.5 3.6 2.5a1.91 1.91 0 002-1.3c3.9 1 6.6 1.8 7.8 3.2 3.7 4 4.8 10.6 6.8 13.9 1.7 1.9 6.8 7.5 6.8 7.5"/><path id="Fill-103-3" data-name="Fill-103" class="cls-55" d="M466.5 177.26s1.8.6 2.4.2-1.4-.7-1.4-1.1-1 .9-1 .9"/></g><g id="Group-4"><path id="Fill-3-4" data-name="Fill-3" class="cls-27" d="M208.5 225.44H11.9s-5.2-12.8-3.8-26.7a47.14 47.14 0 01.9-5.2 19.16 19.16 0 01.9-3.2 31.64 31.64 0 017.7-12.6c22.9-23.1 52.5-3.8 63.6-4.3s11.7-22.7 44.9-25.3c18.4-1.5 38.1 2 44.5 17.4 2.5 6.1 3 14 .4 24.2-1.5 5.9-.2 9.6 2.6 11.9 5.9 4.9 18.4 4.3 27 7.3 6.2 2 10.3 6.3 7.9 16.5"/><path id="Fill-4-4" data-name="Fill-4" class="cls-83" d="M173.5 201.44L29.6 220a44.76 44.76 0 01-1.6-15.3l142.5-39.5c2.5 6.1 3 14 .4 24.2-1.5 6-.3 9.6 2.6 12"/><path id="Fill-5-5" data-name="Fill-5" class="cls-83" d="M113.4 172.54L8 198.74a47.14 47.14 0 01.9-5.2 19.16 19.16 0 01.9-3.2l103.6-17.8"/><path id="Fill-6-4" data-name="Fill-6" d="M110.5 225.44H11.8s-6.6-16.3-3-32a49.23 49.23 0 0126.7 6.4c16.7 9.5 44 2.5 51.9 7.9s9.7 10.8 15.6 11.8a9.42 9.42 0 017.5 5.9" fill="#c9e0f2" fill-rule="evenodd" fill-opacity=".6"/><path id="Fill-7-4" data-name="Fill-7" class="cls-83" d="M150.3 161.74a2.8 2.8 0 012.8-2.8 2.73 2.73 0 012.8 2.8 2.8 2.8 0 01-5.6 0"/><path id="Fill-8-4" data-name="Fill-8" class="cls-2" d="M140.7 217.64c2.7-.9 6.2-2.3 4.3-3.3s-4.7 1.3-6.1 2.8h-.2a4.1 4.1 0 00-1.1-.1c2.7-4.3 5.7-10.1 3.1-10.8-2.8-.8-4.7 6.2-5.7 11.1-2.7.6-5.6 1.9-8.6 2.8-1.1-3.9-3.5-9.7-8.7-9.6-5.4.1 1.3 6.4 5.9 10.2a15.64 15.64 0 01-3.1.2 14.87 14.87 0 00-10.8 4.2h35.6c1.4-2.1-.7-6-4.6-7.5"/><path id="Fill-9-4" data-name="Fill-9" class="cls-14" d="M80.3 130.44s-2.5-2.7-3.2-2.8-3.9 1.4-4.1 2 3.5-.6 3.7 0 .4 1 1.5 1.1a3.9 3.9 0 011.9.6l.2-.9"/><path id="Fill-10-4" data-name="Fill-10" class="cls-12" d="M83.4 225c-.8-.5-.3-4.1-.3-4.1s3.7-2.9 4.2-.7 3.5 3.3 5.2 3.5c1.2.2 1.5.8 1.6 1.2H83.4"/><path id="Fill-11-4" data-name="Fill-11" class="cls-11" d="M82.7 222.74c-.9-.4-6.2-12.9-6-17 0-.5-.1-4.4-.2-5.3-.1-.6-.3-1.4-.5-2.2-.3-1.3-.6-2.7-1-4.3-1.1-4.4-2.5-9.6-3.5-13.7 1.8-3.9 4-7.4 6.1-8.5 1.5.2 2.9.5 4 .7a12.16 12.16 0 011.9 1.3 36.87 36.87 0 01.6 3.9c.1 1.1.2 2.5.3 3.9.4 10.2-1.4 21.3 3.1 39.4.1.5-3.4 2.4-4.8 1.8"/><path id="Fill-12-4" data-name="Fill-12" class="cls-12" d="M84 177.74c-.8 3.8-2.6 11.9-9 16.4-1.1-4.4-2.5-9.6-3.5-13.7 1.8-3.9 4-7.4 6.1-8.5 1.5.2 2.9.5 3.9.7a12.16 12.16 0 011.9 1.3 30.49 30.49 0 01.6 3.8"/><path id="Fill-13-4" data-name="Fill-13" class="cls-14" d="M76.1 142v.6s.2 2-2.3 2.3-4.3-.8-4.2-2.3a18.73 18.73 0 00.5-3 4.87 4.87 0 00-.1-1.2l4.7-.1 1.4.2v3.5"/><path id="Fill-14-4" data-name="Fill-14" class="cls-73" d="M76.1 138.64V142a4.71 4.71 0 01-1.7.4 5.12 5.12 0 01-4.3-2.8 4.87 4.87 0 00-.1-1.2l4.8-.1 1.3.3"/><path id="Fill-15-4" data-name="Fill-15" class="cls-14" d="M76.4 140.24s-6.1 1.2-6.8-2.6-2-6.2 1.9-7.1 4.9.4 5.4 1.6 1.1 7.7-.5 8.1"/><path id="Fill-16-4" data-name="Fill-16" class="cls-12" d="M72 225.14a11.35 11.35 0 00-.9-2.9c-.5-1.1-3.9-.4-3.9-.4s-.7.6-.8 3.3H72"/><path id="Fill-17-5" data-name="Fill-17" class="cls-11" d="M78.6 173.84s-3.3 14.8-4.4 21.5c-.4 2.5-1.2 10.5-1.4 13.1-.2 3.5-1.3 14.1-1.3 14.1a5.61 5.61 0 00-4.8-.1s-.7-4.8-1.2-14.8c-.1-2.9.4-7.3.4-8.8-.3-7-2.6-25.2-.8-26.4 1.8-1 13.5 1.4 13.5 1.4"/><path id="Fill-18-5" data-name="Fill-18" class="cls-12" d="M78.1 129.34a11.67 11.67 0 01-3.7-1c-1.6-.7-3.7.1-4.3.4a.76.76 0 01.2-.4.69.69 0 00-.3.5 1.06 1.06 0 00-.6 0s.2 0 .2.1c-2.5 1.2-2.8 5.2-1.9 6.1a19.85 19.85 0 012.2 3.6 2.59 2.59 0 00.3-1.6c-.2-1 .7-1 1.7-1.4s.2-1.7 1.1-2.4 4.4-.3 4.3-.9c1.2-.4.8-2.9.8-3"/><path id="Fill-19-5" data-name="Fill-19" class="cls-19" d="M79.8 129.14a1.67 1.67 0 00-.8.9 1.58 1.58 0 00-.1 1.4s6.4 5.8 6 6.9c-.2.6-5.2 3.5-7.3 4.7-.9-.1-1.5-.1-1.5-.1s-1.4 4.3-6.5-.3c-.9 1.3-7.8 4.5-6.6 9.9.3 1.3.5 2.5.7 3.6 1.4 7.7 1.3 12.3 1 14.8-.2 2-1 2.2-.3 2.7a25.55 25.55 0 004.1 1.2 39.28 39.28 0 007.9.8c5.2 0 7.2-1.8 7.2-1.8 1.4-1.3-1.3-6.6-1.1-10.4.1-2 0-8.7 0-11.7.2-.3 7.8-8.6 9.3-13.4.1-.2.1-.5.2-.7.5-2.3-12.2-8.5-12.2-8.5"/><path id="Fill-20-5" data-name="Fill-20" class="cls-20" d="M64.8 171c.3-2.5.4-7.1-1-14.8l.3-.9a1.36 1.36 0 012.6.1c1 4 1.9 10.9-1.9 15.6"/><path id="Fill-21-5" data-name="Fill-21" class="cls-14" d="M63.3 166.74s3.2-1.9 4.1-1.6 3.1 1.2 3 1.7-2.6.9-3 .9a1.74 1.74 0 00-1.4.3c-.3.2-2.5.3-2.8-.3s.1-1 .1-1"/><path id="Fill-22-5" data-name="Fill-22" class="cls-19" d="M69.6 142.64s-3.9.3-6 1.5c-1.4.8-9.3 13.4-9.3 15.2s8.3 8.4 8.3 8.4 1.5.5 1.6-1.9c0 0-4.1-6.1-3.9-6.8.1-.4 6.2-5.3 6.2-5.3l3.1-11.1"/><path id="Fill-23-5" data-name="Fill-23" class="cls-20" d="M91.8 138.34c-1.5 4.7-9.1 13.1-9.3 13.4a5.32 5.32 0 01.8-4.2c1.5-1.7 6.8-6.1 8.5-9.2"/><path id="Fill-24-5" data-name="Fill-24" class="cls-20" d="M68.1 143.34c0-.3 1.6-.8 1.6-.8a6.73 6.73 0 004.8 2.6s-.9 1.7-1.9 2.1c0 0-4.4-1.9-4.5-3.9"/><path id="Fill-25-5" data-name="Fill-25" class="cls-20" d="M74.5 145s1.6-.9 1.6-1.9a2.15 2.15 0 011.5.4 4.94 4.94 0 01-.1 2.7c-.1 0-2.3-.4-3-1.2"/><path id="Fill-28-5" data-name="Fill-28" class="cls-19" d="M68.1 142.94c0-.3 1.6-.8 1.6-.8a6.73 6.73 0 004.8 2.6s-.9 1.7-1.9 2.1c0-.1-4.4-1.9-4.5-3.9"/><path id="Fill-29-5" data-name="Fill-29" class="cls-19" d="M74.5 144.64s1.6-.9 1.6-1.9a2.15 2.15 0 011.5.4 4.94 4.94 0 01-.1 2.7c-.1 0-2.3-.4-3-1.2"/><path id="Fill-31-4" data-name="Fill-31" class="cls-12" d="M60.7 225H47.5a1.32 1.32 0 01-1.3-1.3v-8.8a1.32 1.32 0 011.3-1.3h13.2a1.32 1.32 0 011.3 1.3v8.8a1.32 1.32 0 01-1.3 1.3"/><path id="Fill-32-4" data-name="Fill-32" class="cls-11" d="M60.8 214.94v8.8a1.32 1.32 0 01-1.3 1.3H46.3a1.32 1.32 0 01-1.3-1.3v-8.8a1.32 1.32 0 011.3-1.3h13.2a1.32 1.32 0 011.3 1.3"/><path id="Fill-33-4" data-name="Fill-33" class="cls-12" d="M50 213.64a3.6 3.6 0 012.7-1.4 3.29 3.29 0 012.7 1.4H55a2.83 2.83 0 00-2.2-.9 2.48 2.48 0 00-2.2.9 1.15 1.15 0 01-.6 0"/><path id="Fill-34-4" data-name="Fill-34" class="cls-12" d="M60.8 215.34v2.6a1.32 1.32 0 01-1.3 1.3H46.3a1.32 1.32 0 01-1.3-1.3v-2.6a1.32 1.32 0 011.3-1.3h13.2a1.32 1.32 0 011.3 1.3"/><path id="Fill-35-4" data-name="Fill-35" class="cls-11" d="M60.8 214.94v2.6a1.32 1.32 0 01-1.3 1.3H46.3a1.32 1.32 0 01-1.3-1.3v-2.6a1.32 1.32 0 011.3-1.3h13.2a1.32 1.32 0 011.3 1.3"/><path id="Fill-36-4" data-name="Fill-36" class="cls-12" d="M52.2 217.84a.4.4 0 11.4.4.43.43 0 01-.4-.4"/><path id="Fill-37-4" data-name="Fill-37" class="cls-2" d="M208.5 225.44h-49.9a16.64 16.64 0 0112.9-6c8.5 0 8.4-4.4 19.6-7.1a44.74 44.74 0 009.3-3.5c6.4 2.1 10.5 6.5 8.1 16.6"/><path id="Fill-38-4" data-name="Fill-38" class="cls-6" d="M133.7 153.54v70.3a1.2 1.2 0 01-1.1 1.2h-1.1a.78.78 0 01-.7-.3 1.14 1.14 0 01-.3-.8v-70.4a1.23 1.23 0 01.5-1 1.42 1.42 0 01.6-.2h1.1a1.29 1.29 0 011 1.2"/><path id="Fill-39-4" data-name="Fill-39" class="cls-20" d="M131.3 153.44v70.3a1.23 1.23 0 01-.5 1 1.14 1.14 0 01-.3-.8v-70.4a1.23 1.23 0 01.5-1 1.61 1.61 0 01.3.9"/><path id="Fill-40-4" data-name="Fill-40" class="cls-6" d="M119 181.04l-6 4 5.4 4.7 13.4-.8v-5.4l-12.8-2.5"/><path id="Fill-41-4" data-name="Fill-41" class="cls-85" d="M130.9 184.34c-.1.2 0 .4 0 .5s.2.1.3-.1 0-.4 0-.5-.2-.1-.3.1"/><path id="Fill-42-4" data-name="Fill-42" class="cls-85" d="M130.9 187.54c-.1.2 0 .4 0 .5s.2.1.3-.1 0-.4 0-.5-.2-.1-.3.1"/><path id="Fill-43-4" data-name="Fill-43" class="cls-6" d="M153.4 170.14l9.2 4-8.9 4.7-21.4-.7v-6.7l21.1-1.3"/><path id="Fill-44-4" data-name="Fill-44" class="cls-86" d="M153.4 170.14h1.3l9.3 4h-1.3l-9.3-4"/><path id="Fill-45-4" data-name="Fill-45" class="cls-85" d="M153.7 178.94h.7l9.6-4.7h-1.4l-8.9 4.7"/><path id="Fill-46-4" data-name="Fill-46" class="cls-85" d="M133.7 172.54a.62.62 0 01-.1.7c-.1.2-.3.1-.3-.1a.62.62 0 01.1-.7c.1-.2.2-.1.3.1"/><path id="Fill-47-3" data-name="Fill-47" class="cls-85" d="M133.7 176.54a.62.62 0 01-.1.7c-.1.2-.3.1-.3-.1a.62.62 0 01.1-.7c.1-.1.2-.1.3.1"/><path id="Fill-48-3" data-name="Fill-48" class="cls-6" d="M111.3 158.64l-9.2 4 8.9 4.7 21.3-.7v-6.7l-21-1.3"/><path id="Fill-49-3" data-name="Fill-49" class="cls-86" d="M111.3 158.64H110l-9.3 4h1.3l9.3-4"/><path id="Fill-50-4" data-name="Fill-50" class="cls-85" d="M110.9 167.34h-.7l-9.5-4.7h1.3l8.9 4.7"/><path id="Fill-51-4" data-name="Fill-51" class="cls-85" d="M130.9 160.94a.62.62 0 00.1.7c.1.2.3.1.3-.1a.62.62 0 00-.1-.7c-.2-.2-.2-.1-.3.1"/><path id="Fill-52-4" data-name="Fill-52" class="cls-85" d="M130.9 165a.62.62 0 00.1.7c.1.2.3.1.3-.1a.62.62 0 00-.1-.7c-.1-.1-.2-.1-.3.1"/><path id="Fill-53-4" data-name="Fill-53" class="cls-86" d="M119 181.04h-.8l-6.3 4.1h1.1l6-4.1"/><path id="Fill-54-4" data-name="Fill-54" class="cls-85" d="M118.4 189.74h-1l-5.5-4.6h1.1l5.4 4.6"/><path id="Fill-55-3" data-name="Fill-55" class="cls-6" d="M136.1 217.14V225h-8v-8a2.76 2.76 0 012.6-2.8h2.6a2.88 2.88 0 012.8 2.9"/><path id="Fill-56-3" data-name="Fill-56" class="cls-20" d="M133.2 217.14V225h-5.1v-8a2.76 2.76 0 012.6-2.8 2.92 2.92 0 012.5 2.9"/><path id="Fill-57-3" data-name="Fill-57" class="cls-20" d="M132.5 150.24v-.3h-.7a.76.76 0 00-.5.2.73.73 0 00-.2.6 1.42 1.42 0 00.2.6.73.73 0 00.6.2h.6v-.3a.73.73 0 000-1"/><path id="Fill-58-3" data-name="Fill-58" class="cls-20" d="M133.8 143.54a2.88 2.88 0 00-1.9-.6 3.53 3.53 0 00-1.4.3 2.19 2.19 0 00-1 .9 1.85 1.85 0 00-.2.7.68.68 0 00.7.7h.6v-.4l.4-.6a1.22 1.22 0 01.9-.3 1.14 1.14 0 01.8.3.91.91 0 01.3.7 1 1 0 01-.3.8 2.93 2.93 0 01-.8.4 1.63 1.63 0 00-.6.3c-.1.1-.1.2-.1.4v1.2a1.42 1.42 0 00.2.6c.1.2.3.2.5.2h.6v-.4c0-.1.1-.1.1-.2v-.9a2.75 2.75 0 001.5-.8 2.11 2.11 0 00.6-1.6 2.59 2.59 0 00-.9-1.7"/><path id="Fill-59-3" data-name="Fill-59" class="cls-6" d="M133.3 150.74a1.42 1.42 0 01-.2.6c-.2.2-.3.2-.6.2a1.42 1.42 0 01-.6-.2.86.86 0 01-.3-.6 1.42 1.42 0 01.2-.6.73.73 0 01.6-.2 1.42 1.42 0 01.6.2.86.86 0 01.3.6zm1.9-5.5a2.27 2.27 0 01-.6 1.6 2.75 2.75 0 01-1.5.8v1c-.1.4-.3.5-.7.5a.76.76 0 01-.5-.2 1.07 1.07 0 01-.2-.6v-1.2c0-.2 0-.3.1-.4a1.63 1.63 0 01.6-.3 1.91 1.91 0 00.8-.4 1.14 1.14 0 00.3-.8.78.78 0 00-.3-.7 1.14 1.14 0 00-.8-.3 1.22 1.22 0 00-.9.3l-.5.6a.86.86 0 01-.6.3c-.2 0-.3-.1-.5-.2a.76.76 0 01-.2-.5 1.85 1.85 0 01.2-.7 2.19 2.19 0 011-.9 3.19 3.19 0 011.4-.3 2.88 2.88 0 011.9.6 1.91 1.91 0 011 1.8z"/><path id="Fill-60-3" data-name="Fill-60" class="cls-8" d="M0 225.14l37.4.2a11.38 11.38 0 00-12.1-5.5c-5.4.9-7.2-.5-9.5-1.9 4.1-1.6 10.3-4.1 7.4-4.8-2.7-.6-6.4 2-8.7 4-.5-.2-1-.5-1.6-.7 4.9-4.5 14.1-13.6 10-13.9s-9 8.7-11.4 13.5a2.77 2.77 0 00-.9-.1 7 7 0 00-3.5.5c-.5-2-1.5-4.3-2.8-3.8-1.1.7.4 3 1.7 4.7-3.7 2.5-6 7.8-6 7.8"/></g></g></g></g></svg>