<svg width="72" height="72" viewBox="0 0 72 72" fill="none" xmlns="http://www.w3.org/2000/svg">
<path d="M68.1308 30.5935C67.9873 29.9227 67.8225 29.2565 67.6366 28.5947C67.4372 27.9194 67.2187 27.2514 66.9731 26.5881C66.9582 26.5489 66.9423 26.5096 66.9272 26.4704C66.8488 26.2271 66.771 25.9813 66.6887 25.7512C66.5246 25.2777 66.3626 24.8038 66.2101 24.3265C66.0577 23.8489 65.9161 23.364 65.7846 22.8988C65.6546 22.4262 65.5413 21.9439 65.4507 21.446C65.4052 21.1979 65.366 20.9421 65.332 20.6884C65.2973 20.4387 65.2692 20.1835 65.2476 19.9229C65.2205 19.5887 64.8964 19.2169 64.5998 19.008C64.3698 18.8447 64.1504 18.6668 63.9432 18.4755C63.7456 18.3 63.5593 18.1122 63.3853 17.9133C63.0482 17.5218 62.7462 17.1014 62.4827 16.6571C62.2137 16.2175 61.9621 15.7754 61.709 15.3207C61.4543 14.871 61.2006 14.4083 60.9114 13.9846C60.5789 13.4546 60.209 12.949 59.8044 12.4716C59.4055 12.0015 58.8644 11.6741 58.2629 11.5386C57.8914 11.4635 57.5287 11.3503 57.1804 11.2009C56.849 11.06 56.5269 10.8983 56.216 10.7168C55.9072 10.5378 55.6083 10.3446 55.3091 10.1508L54.8594 9.86171C54.7067 9.76733 54.5492 9.6762 54.3915 9.58776C53.4833 9.08433 52.5933 8.58159 51.6255 8.14011C51.1472 7.91753 50.6668 7.70503 50.1769 7.51022C49.6734 7.31972 49.1634 7.14526 48.6483 6.99261L47.8061 6.75058C47.5236 6.673 47.2276 6.60265 46.9384 6.53186C46.3568 6.39155 45.7749 6.25973 45.1929 6.1364C44.6019 6.01714 43.9938 5.9132 43.3941 5.8114L42.4916 5.66472L42.2712 5.63077L42.0711 5.60257L41.6704 5.54636C40.6586 5.40843 39.6473 5.27059 38.6365 5.13284C37.6703 4.99311 36.7852 4.84554 35.9279 4.6519C35.6331 4.58355 35.2747 4.45382 34.9809 4.44812C34.8151 4.43675 34.6503 4.4825 34.5141 4.57777C34.3779 4.67304 34.2784 4.81207 34.2322 4.97175C34.0195 5.50335 33.7807 5.76222 33.5402 5.83534C33.4085 5.86977 33.2695 5.86334 33.1415 5.8169C32.9859 5.76069 32.839 5.68263 32.7054 5.58506C32.5705 5.4917 32.4029 5.36706 32.2592 5.28647C32.1176 5.20573 31.9869 5.16979 31.9051 5.25467C31.3201 5.87115 30.778 6.2185 30.2804 6.37487C30.039 6.44924 29.7877 6.48601 29.5351 6.48389C29.2573 6.47846 28.9802 6.45191 28.7064 6.40448C28.6642 6.39768 28.6466 6.53799 28.6213 6.6167C28.3883 7.37893 27.8482 7.27545 27.3787 7.42971C26.9737 7.56573 26.5983 7.70171 26.1662 7.87229L25.8395 8.00303C25.821 8.00389 25.8024 8.00389 25.7839 8.00487C25.3735 8.02389 24.966 8.0827 24.567 8.18049C24.1665 8.2771 23.7748 8.4074 23.3962 8.56998C23.2115 8.64819 23.0093 8.74944 22.8213 8.85198C22.6311 8.956 22.4465 9.06698 22.2581 9.19299C21.4788 9.71221 20.6383 10.2006 19.7651 10.7204C19.3328 10.9762 18.8774 11.2541 18.432 11.5353C17.9721 11.8307 17.5228 12.1279 17.0586 12.467C16.389 12.9521 15.7165 13.5042 14.9626 13.9697C14.5727 14.2163 14.1629 14.43 13.7376 14.6084C13.2639 14.8119 12.7708 14.9667 12.2658 15.0702C11.2548 15.2898 10.243 16.3343 9.45155 17.3354C9.10335 17.7635 8.7521 18.2358 8.41889 18.6971L8.29335 18.873L8.16108 19.0643L7.9003 19.4495C7.72811 19.7075 7.55944 19.9678 7.39428 20.2302C7.0653 20.7549 6.75975 21.2923 6.46436 21.8353C6.17085 22.3782 5.9053 22.9278 5.64843 23.4847C4.66939 25.6273 3.98555 27.8928 3.61561 30.2192C3.35506 31.9262 3.23663 33.6519 3.26155 35.3785C3.29035 36.9655 3.4128 38.5495 3.62827 40.1222C4.04358 43.1566 4.68515 45.9421 5.36225 48.7853C6.18819 52.2195 7.89171 55.4414 10.3743 58.3083C11.6629 59.7884 13.1061 61.1265 14.6792 62.2996C14.8823 62.4517 15.0868 62.6016 15.293 62.7492C15.5024 62.8972 15.7172 63.0436 15.9315 63.1873C16.1462 63.3311 16.3624 63.4726 16.5801 63.6117L16.7394 63.7124L16.8817 63.7982L17.1673 63.9681C17.9301 64.414 18.7121 64.8515 19.4952 65.2323C20.5259 65.7508 21.5907 66.1984 22.6823 66.572C23.2155 66.7496 23.758 66.8982 24.3073 67.0172C24.8378 67.121 25.375 67.1873 25.9149 67.2156C26.8587 67.2718 27.7405 67.2683 28.628 67.2785L29.2889 67.283L29.9284 67.2717L31.1944 67.2473C31.4028 67.2422 31.617 67.2422 31.819 67.2333L32.4259 67.2094L33.6334 67.1682C34.04 67.16 34.418 67.1341 34.8093 67.1205C35.197 67.1073 35.5849 67.0942 35.9731 67.081C38.1538 66.9968 40.2111 66.4723 42.1402 65.8574C44.0709 65.2316 45.8966 64.5336 47.8354 64.0159C48.5367 63.8225 49.151 63.3904 49.8134 63.0919C50.1451 62.9364 50.5249 62.6769 50.883 62.807C51.3358 62.9793 51.8193 63.0562 52.3033 63.0331C52.7872 63.0099 53.2612 62.8871 53.6955 62.6724C54.1003 62.478 54.4842 62.2425 54.8409 61.9695C55.2038 61.7022 55.5538 61.4165 55.8993 61.1327C56.2354 60.8607 56.5577 60.5718 56.8694 60.2731C57.1801 59.9715 57.4779 59.6517 57.7712 59.3326C58.358 58.7011 58.9163 58.0132 59.496 57.3704C59.9477 56.856 60.3664 56.28 60.8112 55.7517C61.2398 55.1943 61.7465 54.7016 62.3157 54.2888C64.0417 53.067 65.3842 51.3097 66.3475 49.2599C67.3154 47.1729 67.8973 44.7976 68.1681 42.3135C68.2345 41.6621 68.2779 41.0059 68.3072 40.3548C68.427 39.6438 68.5232 38.9198 68.5881 38.1782C68.8033 35.6412 68.6492 33.0863 68.1308 30.5935V30.5935ZM33.0373 35.5844L33.0334 35.5842L33.0131 35.5828C33.029 35.5837 33.0401 35.5844 33.0455 35.5848L33.0373 35.5844Z" fill="#000638"/>
<path d="M31.8724 48.0488C31.9039 47.6477 31.949 47.2323 31.8593 46.8639C31.8354 46.7653 31.8186 46.6677 31.8031 46.5704C31.7957 46.5218 31.7894 46.4732 31.7842 46.4247L31.777 46.352L31.7721 46.2385C31.7632 45.9224 31.7689 45.6167 31.6447 45.3647C31.6245 45.3296 31.6078 45.2929 31.5846 45.2591L31.5083 45.1612C31.45 45.1028 31.3843 45.0523 31.3128 45.0111C31.2426 44.9689 31.1679 44.9348 31.09 44.9095C31.0097 44.8872 30.9282 44.8696 30.8459 44.8566C30.7604 44.8473 30.6745 44.8423 30.5885 44.8418C30.5004 44.8476 30.4128 44.8464 30.3244 44.8578L30.059 44.8946L29.8723 44.932C29.7225 44.9682 29.5852 45.0442 29.4751 45.1521C29.2828 45.3227 29.1022 45.1927 28.9173 45.2436C28.8684 45.2578 28.8187 45.2705 28.7703 45.2873C28.4322 45.404 28.102 45.5312 27.776 45.6642C27.4966 45.7785 27.2216 45.899 26.9467 46.0179C26.6266 46.1564 26.3115 46.3073 25.991 46.4309C25.8362 46.4938 25.6895 46.5753 25.5543 46.6736C25.4217 46.7672 25.3034 46.8564 25.1435 46.9588C24.9135 46.9559 24.7653 47.1068 24.6147 47.2922C24.4279 47.5175 24.1927 47.7531 24 48.0348C23.8643 48.2318 23.8701 48.3897 23.9845 48.4847C24.0181 48.5076 24.0502 48.5328 24.0803 48.5602C24.1572 48.6438 24.1507 48.7189 24.0981 48.8417C23.9938 49.0927 24.1432 49.3938 24.1243 49.6127C24.0624 50.1959 24.2351 50.7437 24.4155 51.2996C24.4885 51.5236 24.6663 51.7093 24.7375 51.9349C24.8543 52.3082 24.9212 52.6999 25.0128 53.0841C25.0412 53.2724 25.0367 53.4642 24.9996 53.6509C24.9765 53.8995 25.0075 53.9933 25.2292 54.0878C25.4626 54.1879 25.54 54.3896 25.5753 54.638C25.5843 54.7804 25.5803 54.9234 25.5632 55.0651C25.7589 55.3246 25.8336 55.6768 26.0314 55.9368C26.0579 55.9702 26.0932 55.9955 26.1333 56.0099C26.2081 56.0218 26.2848 56.0092 26.352 55.9741C26.4191 55.939 26.4731 55.8831 26.506 55.8149C26.5642 55.6127 26.5653 55.3803 26.7181 55.2233C26.8472 55.0904 26.8214 54.9812 26.6672 54.7377C26.556 54.582 26.4717 54.4087 26.4178 54.2251C26.3487 53.9396 26.2821 53.652 26.2215 53.3634C26.1841 53.2254 26.1154 53.0977 26.0207 52.9905C25.9932 52.9534 25.9543 52.9293 25.9293 52.8907C25.8925 52.8325 25.8721 52.7654 25.8702 52.6966C25.8683 52.6277 25.8849 52.5597 25.9185 52.4995C25.9675 52.4368 26.0437 52.399 26.073 52.3236C26.136 52.1624 25.9878 52.0851 25.9319 51.971C25.8062 51.7628 25.7639 51.5147 25.8134 51.2766C25.8311 51.2354 25.8394 51.1908 25.838 51.146C25.8365 51.1012 25.8252 51.0573 25.8048 51.0174C25.6797 50.8174 25.556 50.6126 25.4204 50.4231C25.356 50.3335 25.3038 50.2568 25.3331 50.1721C25.3845 50.0089 25.3917 49.8351 25.3539 49.6683C25.3232 49.5022 25.2596 49.3131 25.2246 49.1682C25.1721 48.9554 25.1239 48.7497 25.1937 48.6331C25.2417 48.5517 25.2774 48.5167 25.2829 48.4929C25.2909 48.4688 25.2637 48.4518 25.2365 48.3749C25.2077 48.2897 25.2681 48.2081 25.3659 48.1487C25.4855 48.0861 25.6101 48.0335 25.7383 47.9913C25.7958 47.9696 25.8757 47.9368 25.9449 47.9053C26.012 47.8747 26.0771 47.8399 26.1399 47.8012C26.2627 47.7275 26.368 47.6279 26.4485 47.5093C26.5126 47.4495 26.5963 47.4151 26.684 47.4126C26.7717 47.4101 26.8572 47.4397 26.9246 47.4957C27.0112 47.5498 27.0939 47.5595 27.1419 47.4889C27.3103 47.2403 27.5937 47.138 27.8612 47.0478C28.1237 46.9595 28.225 46.6013 28.5711 46.6857C28.6703 46.6001 28.7814 46.5294 28.901 46.4759C29.0296 46.4381 29.1786 46.4943 29.303 46.4582C29.5258 46.3945 29.7457 46.3298 29.9585 46.2777C30.0638 46.2536 30.1683 46.2299 30.2671 46.214L30.2961 46.2089L30.3014 46.2093L30.3119 46.2102C30.3185 46.2109 30.325 46.2123 30.3313 46.2142C30.3436 46.2183 30.3558 46.21 30.3844 46.1901C30.4286 46.1583 30.4768 46.1325 30.5278 46.1134C30.6187 46.0838 30.6065 46.1584 30.6018 46.2013L30.5892 46.5457L30.5607 47.1299C30.5304 47.7137 30.4933 48.2982 30.4329 48.8802C30.4073 49.0179 30.3567 49.1499 30.2835 49.2694C30.2288 49.3477 30.2055 49.4437 30.2183 49.5384C30.2644 49.8153 30.3248 50.0897 30.3991 50.3605C30.4675 50.578 30.3858 50.7163 30.3153 50.8884C30.2419 51.0661 30.1843 51.312 30.2717 51.4484C30.475 51.767 30.0918 52.0953 30.2775 52.3888C30.096 52.6762 30.0625 53.0242 30.0311 53.3715L30.0043 53.6689C29.9545 53.9544 30.0145 54.2483 30.1723 54.4914C30.2954 54.6978 30.3525 54.9368 30.3359 55.1766C30.3306 55.2428 30.346 55.3091 30.3799 55.3662C30.4138 55.4233 30.4647 55.4685 30.5254 55.4955C30.583 55.5216 30.634 55.5606 30.6742 55.6095C30.7144 55.6583 30.7429 55.7158 30.7574 55.7774C30.7709 55.8217 30.785 55.8679 30.7984 55.9119C30.8443 56.0492 30.8964 56.0564 30.9522 55.9357C30.9787 55.8504 31.0164 55.769 31.0643 55.6937C31.1472 55.6025 31.2811 55.5689 31.3323 55.4621C31.3758 55.3714 31.2854 55.1723 31.3301 55.086C31.5391 54.6921 31.5091 54.2521 31.5217 53.8268C31.5291 53.5564 31.409 53.2826 31.6011 53.0317C31.6453 52.8428 31.6495 52.6467 31.6136 52.456C31.5348 52.2313 31.5074 51.9917 31.5335 51.755C31.6713 50.5304 31.7778 49.2911 31.8724 48.0488Z" fill="white"/>
<path d="M49.5824 36.5333C49.5782 36.4991 49.5703 36.4656 49.5586 36.4332C49.5394 36.3724 49.5158 36.313 49.488 36.2556L49.3819 36.084C49.3314 36.008 49.2487 35.9278 49.1857 35.8514C49.1103 35.7749 49.0074 35.7013 48.9232 35.6279C48.7333 35.5028 48.5533 35.3752 48.3576 35.2551C48.1725 35.1376 47.9883 35.0208 47.805 34.9046C47.588 34.7608 47.3778 34.6114 47.1733 34.4513C46.8148 34.1704 46.4332 33.9204 46.0325 33.7039C45.8345 33.5968 45.6336 33.4986 45.4298 33.4092C45.2295 33.3205 45.0183 33.2385 44.8014 33.166C43.9362 32.856 43.1089 32.449 42.3352 31.9528C41.9146 31.6934 41.5581 31.4053 41.0406 31.2356C40.5023 31.0614 40.1003 30.6504 39.5326 30.436C39.0714 30.2603 38.6327 30.0305 38.2256 29.7515C37.8719 29.5079 37.4834 29.4158 37.1801 29.2027C36.981 29.0602 36.7614 28.9486 36.529 28.8717C36.3185 28.795 36.11 28.7411 35.9012 28.6666C35.5538 28.5356 35.3886 28.4169 35.2777 28.1664C35.1926 27.9652 34.899 27.9548 34.721 27.8345C34.4559 27.6565 34.2388 27.4083 33.9754 27.2427C33.7906 27.1255 33.5988 27.0198 33.401 26.9262C33.1926 26.8266 32.9722 26.7319 32.734 26.6365C32.4773 26.5316 32.2086 26.4587 31.9341 26.4195C31.6256 26.3764 31.3118 26.3909 31.0087 26.4623C30.7108 26.536 30.4272 26.6587 30.1695 26.8253C29.9271 26.9769 29.7218 27.1384 29.5288 27.2861C29.3358 27.4331 29.204 27.7949 29.2716 27.8775C29.3658 28.0054 29.4827 28.1052 29.575 28.2349C29.5883 28.2565 29.5971 28.2805 29.6009 28.3055C29.6047 28.3306 29.6034 28.3561 29.5971 28.3807C29.5908 28.4052 29.5796 28.4282 29.5641 28.4483C29.5487 28.4684 29.5293 28.4851 29.5072 28.4975C29.4641 28.529 29.4108 28.5432 29.3578 28.5374C29.2372 28.51 29.1315 28.4586 29.0095 28.4342C28.8235 28.3978 28.6204 28.5252 28.3719 28.8019C28.1408 29.031 27.9455 29.2937 27.7927 29.5811C27.549 30.0919 27.2319 30.5643 26.8515 30.9834C26.5355 31.3659 26.1998 31.7318 25.8458 32.0796C25.4322 32.4729 25.2376 33.0232 24.7312 33.3627C24.4787 33.572 24.2567 33.8156 24.0715 34.0863C23.8228 34.4135 23.6377 34.7774 23.3771 35.09C23.1202 35.3977 22.7972 35.6516 22.5174 35.949C22.4215 36.0603 22.3518 36.1918 22.3135 36.3337C22.2887 36.4441 22.3501 36.5066 22.3626 36.599C22.3745 36.6895 22.3713 36.7913 22.3751 36.8883C22.2752 36.9054 22.1455 36.9612 22.0801 36.9325C21.7924 36.8039 21.643 37.103 21.4269 37.4766C21.278 37.663 21.1038 37.8277 20.9094 37.966C20.5224 38.2734 20.2024 38.6568 19.969 39.0924C19.675 39.6799 19.2677 40.2035 18.7706 40.6331C18.2014 41.1181 17.7406 41.7174 17.4181 42.3921C17.2611 42.7301 17.0748 43.0538 16.8613 43.3593C16.7556 43.5112 16.643 43.6586 16.5254 43.806C16.4662 43.8797 16.4092 43.944 16.329 44.0509C16.2531 44.1492 16.1779 44.2365 16.0848 44.3718C15.8833 44.637 15.7315 44.9366 15.6368 45.2559C15.5704 45.4901 15.5834 45.7396 15.6736 45.9656C15.6923 46.0134 15.7145 46.0597 15.7401 46.1042C15.7655 46.1533 15.794 46.2008 15.8255 46.2462C15.8982 46.3469 15.9944 46.4283 16.1057 46.4833C16.3305 46.5672 16.5699 46.6055 16.8097 46.596L16.9595 46.5891C16.9844 46.5879 17.0098 46.5881 17.0342 46.586L17.1039 46.5714L17.3849 46.5146C17.574 46.4767 17.7678 46.4376 17.9678 46.3912C18.0702 46.367 18.1737 46.3426 18.2765 46.3183C18.2927 46.4302 18.3208 46.54 18.3604 46.6459C18.5386 47.1155 18.7166 47.5848 18.8946 48.0539L20.6165 52.5082C20.6639 52.7904 20.7371 53.0678 20.8351 53.3366C20.9332 53.6104 21.0395 53.8681 21.1702 54.1448C21.3288 54.5128 21.5091 54.8711 21.7103 55.2177C21.9634 55.6433 22.3349 55.986 22.7794 56.2039C23.1009 56.3478 23.4448 56.4347 23.7959 56.4611C24.0706 56.4815 24.3463 56.4865 24.6215 56.4762L26.0665 56.4463L28.9572 56.3931C29.6173 56.4039 30.2769 56.3532 30.9276 56.2418C31.2547 56.1914 31.5873 56.1877 31.9154 56.2306C32.3235 56.2663 32.7393 56.3022 33.1527 56.3032C34.4927 56.3062 35.8325 56.2927 37.1724 56.2863C38.5132 56.28 39.8567 56.2525 41.1936 56.2798C41.2455 56.2803 41.2971 56.2807 41.3484 56.2812C41.4059 56.2812 41.4629 56.2797 41.5196 56.2771C41.6304 56.2719 41.7405 56.2568 41.8487 56.2323C42.0582 56.1857 42.2534 56.0894 42.4179 55.9515C42.5807 55.8117 42.7083 55.6355 42.7904 55.4372C42.8336 55.3351 42.868 55.2295 42.8933 55.1216C42.9068 55.067 42.9182 55.0114 42.9291 54.9556L42.9439 54.8752L42.951 54.8264C43.0647 54.0133 43.2735 53.1865 43.4245 52.3651C43.5126 51.8838 43.5668 51.4009 43.6362 50.9189C44.0748 49.8377 44.1721 48.6514 44.4549 47.5221C44.5003 47.289 44.5197 47.0516 44.5128 46.8143C44.514 46.6554 44.5503 46.4988 44.6193 46.3557C44.9748 45.5534 45.0623 44.5738 45.4168 43.7677C45.4662 43.3615 45.4972 42.9552 45.5704 42.5498C45.6288 42.1393 45.7268 41.7354 45.863 41.3438C46.0649 40.841 46.2298 40.3242 46.3565 39.7975C46.4209 39.5355 46.4778 39.2717 46.5293 39.0062L46.6028 38.607L46.6201 38.5068L46.6286 38.4567C46.6302 38.4503 46.6307 38.4437 46.6301 38.4371L46.6292 38.3851L46.6273 38.32C46.6311 38.2978 46.6484 38.2863 46.6629 38.2727C46.6875 38.2488 46.7145 38.2277 46.7436 38.2098L46.7574 38.2029C46.7654 38.1992 46.7738 38.1963 46.7825 38.1942C46.8098 38.186 46.8376 38.1786 46.866 38.172C46.9262 38.1582 46.9874 38.1493 47.0491 38.1455L47.2172 38.1325L47.3021 38.124L47.3447 38.1192C47.3599 38.1173 47.3691 38.1168 47.3983 38.1115C47.5942 38.0754 47.7954 38.0362 47.993 37.9855C48.3663 37.9069 48.7228 37.7634 49.0465 37.5616C49.295 37.4046 49.4795 37.1641 49.5668 36.8834C49.5873 36.8058 49.5962 36.7255 49.5932 36.6452C49.5933 36.6076 49.5896 36.5702 49.5824 36.5333V36.5333ZM44.678 40.2769C44.7045 40.3407 44.7127 40.4107 44.7016 40.4789C44.6905 40.5472 44.6606 40.611 44.6153 40.6632C44.2148 41.2188 44.1977 41.2443 44.2805 41.8194C44.3252 42.2625 44.345 42.7077 44.3398 43.153C44.3637 43.7178 44.2497 44.2799 44.0075 44.7907C43.7681 45.2942 43.6554 45.8814 43.5325 46.451L42.967 49.1565C42.8933 49.5423 42.7453 49.9101 42.5312 50.2393C42.4131 50.4263 42.3077 50.6209 42.2157 50.822C42.0159 51.2497 41.9527 51.7285 42.0347 52.1934C42.0823 52.3431 42.1512 52.4853 42.2394 52.6154C42.2757 52.6667 42.2935 52.7288 42.2898 52.7915C42.2862 52.8542 42.2612 52.9138 42.2192 52.9605C42.1105 53.0439 42.0243 53.153 41.9682 53.2779C41.9121 53.4029 41.888 53.5399 41.898 53.6765C41.8958 53.9812 41.8936 54.2998 41.8915 54.6045C41.9042 54.6628 41.9009 54.7235 41.8819 54.7801C41.8629 54.8367 41.829 54.8871 41.7837 54.926C41.7332 54.957 41.6762 54.9757 41.6172 54.9809C41.5582 54.9861 41.4988 54.9776 41.4437 54.956C41.3925 54.9372 41.3442 54.9113 41.3001 54.8793C41.2808 54.8653 41.2623 54.8502 41.2447 54.8341L41.2212 54.8111C41.2126 54.7993 41.1997 54.7912 41.1853 54.7885C40.9683 54.7101 40.7326 54.699 40.5092 54.7567C39.9658 54.8789 39.3697 54.8732 38.7857 54.8916C38.2378 54.9234 37.6894 54.8374 37.1775 54.6394C37.0811 54.596 36.9749 54.5787 36.8697 54.5892C36.7645 54.5997 36.6638 54.6377 36.5779 54.6993C36.4718 54.7793 36.3413 54.8203 36.2085 54.8152C35.9713 54.7912 35.7358 54.7527 35.5033 54.7001C34.9633 54.5467 34.3916 54.5445 33.8504 54.6936C33.503 54.7982 33.1031 54.8662 32.7238 54.9485C32.448 55.0082 32.2462 54.9415 32.2583 54.7966C32.2708 54.636 32.1609 54.5831 31.8887 54.6269C31.2583 54.7282 30.6255 54.8262 30.0051 54.9393C29.6895 55.0086 29.363 55.0113 29.0464 54.9473C28.8935 54.9063 28.7368 54.8809 28.5787 54.8715C27.9089 54.8591 27.2383 54.8545 26.5669 54.8576C25.9833 54.8607 25.3312 54.7866 24.838 54.9378C24.5402 55.0303 24.2221 55.0354 23.9215 54.9525C23.8074 54.92 23.6963 54.8779 23.5894 54.8268C23.4932 54.7826 23.4141 54.7431 23.3144 54.705C23.093 54.5987 22.8961 54.4476 22.7362 54.2611C22.5327 54.0398 22.4055 53.759 22.3733 53.4601C22.3616 53.3594 22.3261 53.263 22.2698 53.1787C22.2135 53.0945 22.1379 53.0248 22.0494 52.9755C21.9318 52.8878 21.8341 52.776 21.763 52.6476C21.6919 52.5193 21.6489 52.3772 21.6369 52.231C21.6215 52.0146 21.6247 51.8109 21.6224 51.6037C21.6183 51.2682 21.3451 51.0175 21.2906 50.7234C21.1427 50.0749 20.9417 49.4396 20.6897 48.8239C20.4814 48.2822 20.2461 47.7512 19.9848 47.2329C19.7604 46.8347 19.5146 46.4489 19.2483 46.0774L19.3654 46.0453C19.7006 45.9478 19.9552 45.7926 20.039 45.5953C20.0692 45.5344 20.1174 45.4842 20.177 45.4515C20.2367 45.4188 20.3049 45.4052 20.3725 45.4125C21.0834 45.5038 21.8277 45.3556 22.6635 45.0527C23.7505 44.6539 24.9044 44.3644 25.9477 43.8932C26.1702 43.7926 26.4086 43.7317 26.652 43.7131C26.9632 43.6878 27.2984 43.6202 27.6 43.6083C28.4194 43.5534 29.2209 43.343 29.9616 42.9883C30.4087 42.7879 30.8498 42.6206 31.3219 42.4621C32.9009 41.9322 34.5593 41.5749 36.092 40.9408C36.2462 40.9 36.4029 40.8695 36.5612 40.8496C36.9647 40.7537 37.3683 40.6549 37.7695 40.5468C39.0613 40.202 40.3405 39.7849 41.6512 39.5756C42.0572 39.5067 42.4472 39.3643 42.8021 39.1555C43.0793 38.9914 43.3902 38.8924 43.7113 38.866C44.1209 38.8056 44.5238 38.7066 44.9147 38.5701C44.9927 38.5471 45.0672 38.5234 45.1393 38.4994C45.083 38.6367 45.031 38.779 44.9817 38.9243C44.8775 39.2693 44.7507 39.607 44.602 39.9352C44.6088 40.0524 44.6345 40.1678 44.678 40.2769ZM47.1274 36.5294C47.09 36.5827 47.0585 36.64 47.0334 36.7001L47.0221 36.7195C47.0063 36.7286 46.988 36.7377 46.9708 36.746C46.9364 36.7625 46.9009 36.7766 46.8647 36.7884C46.7873 36.8128 46.7065 36.8244 46.6255 36.8227C46.5792 36.8218 46.533 36.8246 46.4872 36.8312C46.4389 36.838 46.3915 36.8498 46.3455 36.8662C46.2732 36.8879 46.2048 36.921 46.1429 36.9642C45.838 36.9625 45.5351 37.0122 45.2467 37.1112C44.7988 37.308 44.3297 37.4525 43.8487 37.5418C43.3456 37.6125 42.9392 37.8848 42.4802 38.0516C41.6997 38.3378 40.8779 38.4424 40.0972 38.7528C39.3312 39.0609 38.4996 39.1836 37.7037 39.4269C37.3904 39.5193 37.0688 39.5808 36.7436 39.6105C36.0901 39.665 35.4531 39.8441 34.8669 40.1382C34.4988 40.3213 34.1003 40.4356 33.691 40.4754C33.0345 40.5353 32.3935 40.7089 31.7965 40.9883C31.573 41.0832 31.3386 41.1497 31.0986 41.1863C30.2016 41.3698 29.3197 41.6208 28.4325 41.8859C27.3215 42.217 26.2115 42.6324 25.0599 42.7322C24.8969 42.7526 24.7389 42.8022 24.5934 42.8785C23.9429 43.2238 23.2279 43.4303 22.4935 43.4851C22.2481 43.5128 22.0096 43.5834 21.7887 43.6937C21.0006 44.1338 20.1291 44.4042 19.2303 44.4875C19.1474 44.4958 19.0664 44.5182 18.991 44.5536C18.8456 44.6348 18.693 44.7024 18.5351 44.7555L18.425 44.7914L18.3573 44.8109C18.3122 44.8227 18.2669 44.8325 18.2222 44.8407C18.0525 44.8618 17.8841 44.8926 17.718 44.933L17.6357 44.9578L17.6229 44.9609C17.6107 44.9643 17.599 44.9691 17.5879 44.9751C17.5288 45.0046 17.4652 45.0239 17.3997 45.0321C17.2862 45.0502 17.2685 44.9721 17.2997 44.8927C17.3172 44.8497 17.3422 44.8101 17.3735 44.7757C17.3829 44.7646 17.3862 44.7636 17.4011 44.7452L17.4444 44.6945C17.4765 44.6573 17.4954 44.6418 17.5472 44.5809C17.8122 44.3015 18.0246 43.9766 18.1744 43.6219C18.2846 43.4141 18.4347 43.2302 18.6161 43.0805C18.9767 42.7578 19.2726 42.3693 19.4877 41.9358C19.6483 41.6392 19.7931 41.6396 19.9589 41.5549C20.33 41.368 20.4375 41.2166 20.4972 40.7746C20.5179 40.6193 20.5604 40.4997 20.6784 40.4615C20.8109 40.4267 20.9335 40.3619 21.0368 40.2719C21.1401 40.182 21.2212 40.0694 21.2739 39.943C21.5191 39.5125 21.8362 39.1272 22.2115 38.8038C23.1315 37.9823 23.9317 37.0358 24.5889 35.9921C24.7341 35.797 24.9024 35.6202 25.0901 35.4656C25.3388 35.2506 25.551 34.9967 25.7183 34.7137C25.8648 34.425 26.0697 34.1698 26.3198 33.9642C26.6637 33.6963 26.7626 33.2717 27.0603 33.0049C27.3628 32.7314 27.6338 32.425 27.8683 32.0914C28.2864 31.7951 28.5367 31.384 28.7759 30.9587C28.8256 30.8952 28.885 30.84 28.952 30.7952C29.2737 30.5571 29.5148 30.2261 29.6427 29.8468C29.7406 29.5497 29.9966 29.3012 30.1997 29.0347C30.4611 28.8289 30.7066 28.6037 30.9341 28.361C31.0668 28.204 31.2394 28.0858 31.4337 28.0188C31.6095 27.9945 31.7885 28.009 31.9582 28.0612C32.1453 28.1027 32.3287 28.1594 32.5065 28.2308C32.7159 28.3147 32.9196 28.4122 33.1162 28.5228C33.3322 28.6496 33.5297 28.8057 33.703 28.9866C33.8778 29.1623 34.0685 29.3216 34.2726 29.4624C34.4873 29.5893 34.7105 29.7014 34.9406 29.7978C35.1648 29.9043 35.4577 29.9596 35.6094 30.083C36.099 30.4741 36.633 30.6278 37.158 30.841C37.6548 31.0383 38.054 31.277 38.2647 31.6225C38.3438 31.749 38.4502 31.8563 38.5762 31.9364C38.7021 32.0165 38.8444 32.0674 38.9926 32.0854C39.5205 32.1534 40.0642 32.4861 40.5937 32.6012C40.9744 32.6842 41.263 33.0031 41.646 33.1782C42.018 33.345 42.3715 33.5844 42.753 33.6719C42.9781 33.7338 43.18 33.8607 43.3335 34.0367C43.5319 34.2287 43.6477 34.4724 44.0217 34.572C44.3373 34.6551 44.5172 34.9592 44.8602 35.0487C45.0928 35.1032 45.3128 35.2016 45.5085 35.3386C45.7492 35.5563 46.0103 35.7503 46.2882 35.918C46.4264 36.0041 46.5664 36.0872 46.7074 36.1698L46.9181 36.294L47.0126 36.3508L47.0232 36.3595C47.0315 36.3654 47.0374 36.3742 47.0398 36.3841C47.0422 36.3941 47.0409 36.4045 47.0361 36.4136C47.0277 36.4239 47.0172 36.4323 47.0052 36.4381C46.9932 36.444 46.98 36.4471 46.9667 36.4473C47.0209 36.4385 47.0764 36.4497 47.1229 36.4788C47.1267 36.4817 47.1298 36.4854 47.1321 36.4896C47.1343 36.4938 47.1357 36.4984 47.1361 36.5031C47.1365 36.5078 47.136 36.5126 47.1345 36.5171C47.133 36.5217 47.1306 36.5258 47.1274 36.5294V36.5294Z" fill="white"/>
<path d="M41.6773 47.3698C41.6813 47.3558 41.687 47.343 41.6909 47.3288C41.7753 46.9896 41.7903 46.6368 41.7349 46.2917C41.7124 46.1304 41.6803 45.9783 41.646 45.8331C41.6043 45.6325 41.529 45.4404 41.4232 45.2649C41.2379 44.985 41.019 44.7289 40.7716 44.5021C40.3924 44.1526 39.9398 43.9626 39.5053 43.7237C39.4185 43.6692 39.3214 43.6292 39.2303 43.5806C39.1386 43.5314 39.0445 43.4869 38.9482 43.4474L38.6585 43.3257L38.3567 43.2273C38.3061 43.2117 38.2564 43.1934 38.2048 43.1801L38.048 43.146C37.9431 43.1251 37.8392 43.0979 37.7328 43.0831C37.5186 43.0533 37.3021 43.0421 37.0859 43.0496C36.9721 43.056 36.8636 43.0493 36.7597 43.0544C36.6562 43.063 36.5556 43.0678 36.4556 43.0712C36.2582 43.0742 36.0613 43.0931 35.8669 43.1278C35.3458 43.2286 35.1411 43.3616 34.9748 43.687C34.8791 43.8672 34.7589 44.0332 34.6178 44.1805C34.4694 44.3413 34.2985 44.5114 34.1268 44.7148C33.9161 44.9397 33.7406 45.1952 33.6063 45.4726C33.5876 45.77 33.5242 46.092 33.488 46.4268C33.4461 46.7429 33.4577 47.0638 33.5223 47.3761C33.4546 47.4926 33.4065 47.6194 33.3797 47.7515C33.3526 47.9106 33.3581 48.0735 33.3958 48.2304C33.4278 48.3644 33.4788 48.4932 33.5473 48.6128C33.6607 48.8067 33.8018 48.983 33.9661 49.1361C34.1094 49.2717 34.2616 49.3976 34.4217 49.5129C34.7195 49.722 35.0474 49.8846 35.3941 49.9952C35.7239 50.101 36.0618 50.1793 36.4045 50.2295C36.5841 50.3196 36.782 50.3672 36.9829 50.3689C37.0339 50.3687 37.0862 50.3682 37.136 50.3644C37.1837 50.3583 37.2316 50.3521 37.28 50.3459C37.3782 50.3331 37.4756 50.3145 37.5716 50.2902C37.5816 50.288 37.5919 50.2859 37.6019 50.2837C37.9104 50.3498 38.227 50.3707 38.5415 50.3457C38.9989 50.3122 39.4421 50.1724 39.8359 49.9375C40.2152 49.7079 40.5636 49.4308 40.8725 49.1128C41.0243 48.9545 41.1649 48.7857 41.2931 48.6078C41.3245 48.5623 41.3576 48.5181 41.3874 48.4712L41.4891 48.3097C41.5694 48.1792 41.631 48.0381 41.672 47.8905C41.7166 47.7242 41.7196 47.5496 41.6807 47.3819C41.6798 47.3778 41.6782 47.3739 41.6773 47.3698ZM39.8626 47.0621C39.9963 47.1823 40.1232 47.2925 40.2303 47.4102C40.251 47.4306 40.2709 47.4512 40.2904 47.4721C40.2427 47.5815 40.1843 47.6858 40.116 47.7837C40.0116 47.9317 39.889 48.066 39.751 48.1833C39.6109 48.3006 39.4522 48.3936 39.2815 48.4587C39.0901 48.5277 38.9167 48.5885 38.7486 48.6538C39.0591 48.3216 39.246 47.8928 39.2781 47.4392C39.2959 47.1893 39.2597 46.9386 39.1719 46.704C39.1646 46.6847 39.1549 46.6669 39.147 46.6481C39.4081 46.7428 39.6503 46.883 39.8626 47.0621V47.0621ZM37.4846 47.8458L37.4844 47.846C37.4675 47.8427 37.452 47.8343 37.4401 47.8218C37.3823 47.7682 37.342 47.6983 37.3246 47.6214C37.2984 47.5463 37.2562 47.4777 37.2008 47.4206C37.1742 47.3938 37.1536 47.3616 37.1404 47.3263C37.1272 47.2909 37.1217 47.2531 37.1243 47.2154C37.1464 47.2129 37.1682 47.2086 37.1896 47.2027C37.2322 47.2012 37.2744 47.2114 37.3117 47.2319C37.3696 47.263 37.424 47.3001 37.4741 47.3425C37.5218 47.3836 37.5567 47.4374 37.5748 47.4976C37.592 47.5609 37.5917 47.6277 37.5742 47.6909L37.5563 47.7377L37.5296 47.781C37.5162 47.8013 37.5008 47.8202 37.4836 47.8374C37.482 47.8353 37.4832 47.8406 37.4846 47.8458V47.8458ZM34.637 46.2835C34.6606 46.2067 34.6785 46.1282 34.6903 46.0487L34.7134 45.8926C34.717 45.8639 34.7207 45.8341 34.7247 45.8032C34.7291 45.768 34.7285 45.7624 34.73 45.7388C34.7457 45.4763 34.8605 45.2295 35.0513 45.0485C35.395 44.7165 35.8096 44.467 36.2638 44.3187C36.386 44.2787 36.4924 44.2331 36.5913 44.1918C36.6902 44.1545 36.7835 44.1091 36.882 44.0631C36.9431 44.0337 37.006 44.0084 37.0704 43.9873C37.1263 43.9735 37.1833 43.9646 37.2408 43.9606C37.3019 43.9601 37.3628 43.9672 37.4221 43.9816C37.5227 43.9931 37.6171 44.0358 37.692 44.1037C37.7611 44.1816 37.7741 44.2692 37.8644 44.3338C38.0504 44.4859 38.2491 44.4155 38.4489 44.4758C38.8385 44.5682 39.1821 44.7969 39.4177 45.1206C39.4851 45.2426 39.5781 45.3484 39.6903 45.4309C39.4218 45.3344 39.1365 45.2935 38.8517 45.3108C38.7423 45.3185 38.6324 45.3148 38.5238 45.2999C38.4304 45.2895 38.3379 45.2722 38.247 45.2483C38.1576 45.229 38.0707 45.2103 37.9817 45.1911C37.888 45.1763 37.793 45.1699 37.6981 45.172C37.5903 45.1786 37.4813 45.1884 37.3734 45.2012C36.6411 45.306 35.9352 45.5481 35.2927 45.9147C35.0536 46.0526 34.8231 46.2049 34.6024 46.3706C34.616 46.3425 34.6275 46.3134 34.637 46.2835V46.2835ZM34.6549 48.0348L34.6524 48.0333L34.6523 48.0328C34.6552 48.0348 34.6556 48.0352 34.6549 48.0348V48.0348ZM35.1343 48.5802C34.9971 48.5222 34.8801 48.425 34.7978 48.3009C34.7738 48.2605 34.7588 48.2154 34.7538 48.1686C34.7489 48.1219 34.7542 48.0746 34.7694 48.0301C34.7768 48.008 34.7823 47.9853 34.786 47.9622C34.7917 47.9467 34.7954 47.9304 34.797 47.9139C34.7945 47.8992 34.8013 47.8944 34.7961 47.8894L34.7953 47.8887C34.9466 47.7488 35.1068 47.6189 35.275 47.4998C35.2928 47.4873 35.308 47.4732 35.3249 47.4602C35.3238 47.474 35.3217 47.4878 35.3209 47.5015C35.3099 47.7394 35.3283 47.9778 35.3756 48.2112C35.4074 48.2928 35.444 48.3726 35.4851 48.45C35.5128 48.5386 35.5454 48.6257 35.5828 48.7107C35.4357 48.6594 35.286 48.6159 35.1343 48.5802V48.5802Z" fill="white"/>
<path d="M32.1033 41.6702C31.7351 41.8064 31.4496 42.1265 31.0929 42.2479C30.633 42.4044 30.0108 42.4054 29.5179 42.5332C29.3061 42.5444 29.0942 42.5507 28.8821 42.5523C28.4607 42.6438 28.0661 42.8313 27.7292 43.1004C27.6358 43.1838 27.5194 43.1057 27.4309 43.1384C27.3373 43.173 27.273 43.2816 27.1821 43.3338C26.9138 43.4881 26.6527 43.2552 26.378 43.5175C26.2829 43.6243 26.165 43.7083 26.033 43.7633C24.8073 44.1847 23.6297 44.3811 22.3921 44.8194C22.0888 44.9268 21.7873 45.0393 21.4862 45.1524L21.0344 45.3221L20.8083 45.4064L20.6952 45.4482L20.5126 45.5114C20.2244 45.5969 19.9542 45.7341 19.7152 45.9163C19.601 46.0095 19.5064 46.1244 19.4369 46.2543C19.3675 46.3866 19.328 46.5324 19.3211 46.6816C19.3149 46.8317 19.3371 46.9817 19.3865 47.1236C19.4478 47.2826 19.5272 47.4341 19.6232 47.5749L19.7514 47.7771C19.7758 47.815 19.8023 47.8518 19.8287 47.8889C19.8828 47.9645 19.9413 48.0368 20.0039 48.1055C20.073 48.1777 20.1532 48.2383 20.2414 48.2852C20.3205 48.3338 20.3852 48.4024 20.4291 48.4841C20.473 48.5659 20.4945 48.6578 20.4912 48.7505C20.5116 48.9254 20.5264 49.0898 20.711 49.2058C20.9278 49.3434 20.9259 49.6265 21.1126 49.7831C21.3247 49.9618 21.5679 50.1215 21.7921 50.3081C21.9361 50.3433 22.088 50.3267 22.221 50.2611C22.4255 50.2066 22.4354 50.1967 22.3377 49.9631C22.2688 49.7127 22.2187 49.4576 22.1879 49.1998C22.1341 48.9034 22.0503 48.6192 21.9191 48.5202C21.7587 48.4137 21.6316 48.2641 21.5524 48.0886C21.4493 47.8382 21.2909 47.6177 21.258 47.3349C21.2307 47.1856 21.1707 47.0443 21.0822 46.9211L21.0638 46.8929C21.0638 46.8929 21.0654 46.8967 21.0644 46.8954C21.0627 46.8942 21.0608 46.8932 21.0588 46.8924L21.0428 46.8862C21.0255 46.8806 21.0085 46.8741 20.9919 46.8667C20.969 46.8578 20.9484 46.8439 20.9316 46.8259C20.9148 46.808 20.9023 46.7864 20.8951 46.7629C20.8903 46.7462 20.8923 46.7282 20.9006 46.7129C20.9089 46.6976 20.9228 46.6861 20.9394 46.6809C20.9619 46.6774 20.9829 46.6677 21.0001 46.653C21.0174 46.6382 21.0302 46.619 21.0371 46.5974L21.0437 46.5828C21.0515 46.5757 21.0597 46.5689 21.0683 46.5627C21.0854 46.5492 21.1012 46.5367 21.1166 46.5247C21.1457 46.501 21.1783 46.4821 21.2134 46.4686C21.6553 46.6622 21.954 46.1419 22.3587 46.054C22.4912 46.0252 22.6393 46.0569 22.7669 46.0178C22.8618 45.9886 22.927 45.8722 23.0209 45.8259C23.1132 45.7801 24.367 45.4212 24.4024 45.4291C24.6283 45.4808 25.5617 45.3657 25.7348 45.1786C26.4837 44.3698 28.3684 44.7364 28.9834 43.8131C29.0249 43.7507 30.2008 43.4117 30.3193 43.4802C30.383 43.5125 30.4529 43.5307 30.5242 43.5337C30.5956 43.5367 30.6667 43.5244 30.7329 43.4976C30.8733 43.3908 30.9755 43.2418 31.1625 43.1892C31.63 43.0581 32.1378 42.9262 32.5942 42.7717C33.0186 42.6279 33.702 42.5461 34.0583 42.2811C34.114 42.2395 34.1799 42.1548 34.2248 42.1657C34.9673 42.3441 36.1655 41.8129 36.7218 41.2786C36.8197 41.1842 36.9406 40.8645 36.4566 40.873C35.9683 40.8815 35.4587 41.0957 35.01 41.2882C34.6632 41.4372 34.3535 41.0832 33.972 41.2302C33.3462 41.4717 32.7462 41.5458 32.1033 41.6702Z" fill="#000638"/>
<path d="M30.6801 48.7129C30.6346 48.5687 30.5606 48.4351 30.4624 48.3201C30.4679 48.2836 30.4737 48.2471 30.4781 48.2104L30.4724 48.1704L30.4703 48.1053C30.4694 48.0623 30.4674 48.0192 30.4637 47.9762L30.4387 47.7258C30.4287 47.645 30.4266 47.5631 30.4105 47.4882L30.3587 47.2702C30.336 46.9235 30.1806 46.5989 29.9248 46.3638C29.8045 46.2528 29.6607 46.1706 29.5041 46.1232C29.3606 46.0827 29.2107 46.07 29.0625 46.0858C28.9587 46.0948 28.8602 46.1033 28.7548 46.1154C28.6487 46.1334 28.534 46.1696 28.4137 46.1944C28.2813 46.2238 28.1537 46.2713 28.0344 46.3357C27.8951 46.3981 27.7629 46.4753 27.6401 46.566C27.1772 47.0255 26.8704 47.4882 26.435 47.9505C26.3818 48.0185 26.3428 48.0964 26.3203 48.1797C26.2977 48.263 26.2922 48.35 26.3038 48.4355C26.3291 48.5947 26.2957 48.7576 26.2097 48.8939C25.9319 49.234 25.6509 49.6685 25.6219 50.1143C25.598 50.5525 25.9215 50.4623 26.0139 50.3928C26.308 50.1452 26.5674 49.8592 26.7851 49.5423C27.0137 49.2495 27.1603 48.9012 27.21 48.533C27.2128 48.4926 27.3072 48.4751 27.3592 48.4486C27.5398 48.3397 27.6999 48.2002 27.8325 48.0362C27.9716 47.8736 28.1231 47.7221 28.2857 47.5831C28.3901 47.5032 28.499 47.4198 28.6081 47.3362C28.7023 47.2471 28.8177 47.1835 28.9434 47.1515C29.0523 47.1451 29.0351 47.355 29.0088 47.4716C29.0265 47.5279 29.083 47.5138 29.1987 47.4779C29.2258 47.4669 29.2575 47.4967 29.277 47.5566C29.2968 47.6344 29.3053 47.7147 29.3022 47.795C29.3008 47.8405 29.2983 47.8868 29.2947 47.9305L29.2858 47.994C29.2844 48.0033 29.283 48.0113 29.2816 48.0202C29.2145 48.0454 29.1494 48.0756 29.0869 48.1108C28.9753 48.1764 28.8717 48.255 28.7784 48.3449L28.7171 48.4051L28.6691 48.4577L28.5732 48.5618C28.4458 48.7002 28.3216 48.8373 28.1838 48.9632C27.7191 49.3841 27.3295 49.881 27.0316 50.4327C26.9936 50.5038 26.9584 50.5759 26.926 50.6489C26.8973 50.714 26.8688 50.7788 26.8403 50.8433C26.7687 51.0041 26.7125 51.1713 26.6722 51.3426C26.6429 51.4736 26.6326 51.6081 26.6415 51.7421C26.6463 51.7885 26.6533 51.835 26.6621 51.8806C26.675 51.9342 26.6914 51.9869 26.7114 52.0384C26.7598 52.1559 26.8325 52.2619 26.9246 52.3495C26.9683 52.3915 27.0166 52.4284 27.0686 52.4596C27.1131 52.4886 27.1608 52.5124 27.2108 52.5307C27.2563 52.5489 27.3029 52.5646 27.3502 52.5777C27.4032 52.5884 27.4567 52.5959 27.5106 52.6003C27.6149 52.6069 27.7195 52.5963 27.8203 52.5689C27.9039 52.5452 27.9842 52.5108 28.0591 52.4666C28.2499 52.3483 28.412 52.1892 28.5339 52.0007C28.622 51.8699 28.7034 51.7348 28.7778 51.5957C28.8376 51.4862 28.8856 51.3991 28.9437 51.2982C28.9784 51.3109 29.014 51.3208 29.0501 51.328C29.3116 51.2764 29.5678 51.2007 29.8154 51.1019C30.0327 51.0017 30.0704 50.7298 30.2926 50.5984C30.4861 50.4807 30.5019 50.2857 30.4993 50.0942C30.4689 49.8881 30.5092 49.6777 30.6136 49.4974C30.644 49.4469 30.6698 49.3937 30.6908 49.3385C30.7095 49.2804 30.7225 49.2207 30.7296 49.1601C30.7432 49.0092 30.7264 48.8571 30.6801 48.7129Z" fill="#006ADC"/>
<path d="M30.929 51.1046C30.8848 50.9891 30.8277 50.8791 30.7587 50.7765C30.6868 50.6683 30.5914 50.5778 30.4797 50.5117C30.4443 50.4917 30.4075 50.4744 30.3695 50.4601L30.3712 50.4214C30.3797 50.0919 30.3352 49.7632 30.2394 49.4479C30.1881 49.276 30.1178 49.1104 30.0299 48.954C29.9676 48.8405 29.8915 48.7352 29.8032 48.6406C29.7095 48.545 29.5967 48.4702 29.4722 48.4212C29.4116 48.3972 29.3492 48.3784 29.2855 48.365C29.2196 48.3556 29.1502 48.3503 29.0798 48.344C29.0062 48.3503 28.9303 48.3564 28.8523 48.3706C28.7706 48.3918 28.6902 48.4179 28.6117 48.4487C28.3486 48.5868 28.1053 48.7596 27.8883 48.9626C27.8328 49.012 27.7816 49.0592 27.7274 49.1154L27.6665 49.1807L27.6194 49.2356C27.5562 49.3084 27.4978 49.3825 27.4393 49.4561C27.2103 49.7523 27.0098 50.0524 26.7912 50.3537C26.5244 50.7305 26.8035 51.1204 26.5964 51.4569C26.4541 51.6879 26.3335 51.9316 26.2361 52.1849C26.1882 52.3127 26.1504 52.4441 26.123 52.5779C26.1107 52.6442 26.0996 52.7099 26.0937 52.7756C26.0915 52.8086 26.0892 52.8413 26.087 52.8738C26.0857 52.8932 26.087 52.8994 26.0841 52.9294C26.0811 52.958 26.0807 52.9869 26.083 53.0155C26.0892 53.1048 26.1204 53.1906 26.173 53.263C26.1957 53.2974 26.2257 53.3264 26.2608 53.3481C26.2959 53.3697 26.3353 53.3835 26.3762 53.3884C26.4517 53.3902 26.4811 53.3526 26.4897 53.3285C26.4934 53.317 26.4948 53.3048 26.4937 53.2928C26.4926 53.2807 26.4891 53.269 26.4833 53.2583C26.4728 53.2383 26.4637 53.2177 26.4558 53.1965C26.4547 53.1918 26.4542 53.1869 26.4541 53.1821C26.464 53.1652 26.478 53.151 26.4947 53.1409C26.5084 53.1312 26.5231 53.1229 26.5384 53.1162C26.5464 53.1112 26.5481 53.111 26.552 53.1082C26.5697 53.0899 26.589 53.0733 26.6096 53.0586C26.6256 53.0708 26.6618 53.0125 26.692 52.9705C26.7538 52.8823 26.8159 52.7884 26.877 52.6908C26.9992 52.4955 27.1179 52.2857 27.2263 52.0744C27.4409 51.651 27.6149 51.222 27.6273 50.8441C27.6287 50.798 27.7275 50.7586 27.7825 50.7198C27.968 50.5643 28.1354 50.3885 28.2816 50.1957C28.3234 50.1474 28.3647 50.0983 28.4072 50.0522C28.4404 50.0158 28.4732 49.9798 28.5052 49.9447C28.5535 49.892 28.6084 49.8459 28.6686 49.8074C28.7871 49.7327 28.9146 49.6732 29.048 49.6305C29.0847 49.6228 29.1229 49.6263 29.1577 49.6407C29.1924 49.655 29.222 49.6794 29.2426 49.7108C29.2832 49.7712 29.3115 49.839 29.3259 49.9103C29.3527 50.0279 29.2381 50.177 29.1728 50.2556C29.1591 50.3196 29.2009 50.3573 29.2915 50.4401C29.3037 50.4587 29.3101 50.4806 29.3096 50.5029L29.216 50.5344C28.9711 50.624 28.7392 50.7458 28.5266 50.8968C28.4117 50.9757 28.3016 51.0615 28.197 51.1537C28.1346 51.2046 28.1078 51.2311 28.072 51.2642L27.9684 51.3617C27.7144 51.617 27.4849 51.8956 27.283 52.1938C27.1868 52.3321 27.0942 52.4758 27.0125 52.6006C26.925 52.7337 26.8316 52.8763 26.7403 53.0293C26.6385 53.1966 26.5501 53.3717 26.4761 53.553C26.4553 53.6002 26.4366 53.6654 26.4182 53.721C26.3994 53.7878 26.3842 53.8556 26.3726 53.924C26.3676 53.9653 26.3646 54.0106 26.3626 54.0539C26.3591 54.1021 26.3608 54.1506 26.3677 54.1985C26.3744 54.2531 26.3842 54.3073 26.3971 54.3607C26.4179 54.4222 26.4435 54.4821 26.4734 54.5396C26.5034 54.597 26.5414 54.6497 26.5862 54.6964C26.6259 54.7434 26.6715 54.7851 26.722 54.8204C26.7667 54.8507 26.813 54.8786 26.8607 54.904C26.8801 54.9151 26.9003 54.9247 26.9212 54.9326L26.9675 54.9501C27.0305 54.9753 27.0955 54.9952 27.1619 55.0096C27.3357 55.051 27.5161 55.0571 27.6923 55.0274C27.7222 55.0527 27.7546 55.0751 27.7888 55.0942C28.082 55.1193 28.3771 55.1084 28.6676 55.0619C28.9331 55.0109 29.0803 54.7278 29.3511 54.6573C29.5881 54.5948 29.6746 54.4081 29.7538 54.2216C29.8111 54.0134 29.9467 53.8355 30.1322 53.7251C30.2367 53.6716 30.3304 53.5992 30.4085 53.5116C30.4837 53.4257 30.5517 53.3338 30.6117 53.2367C30.6414 53.1888 30.668 53.1393 30.6941 53.0898C30.7362 53.0109 30.774 52.9297 30.8074 52.8467C30.9512 52.5446 31.0352 52.2177 31.0549 51.8837C31.0666 51.6182 31.0237 51.353 30.929 51.1046V51.1046ZM27.9023 53.3392C27.9755 53.2299 28.0719 53.0856 28.1696 52.9396C28.1919 52.9066 28.2143 52.874 28.2369 52.8419C28.1906 52.9657 28.1453 53.0905 28.0973 53.2127C28.018 53.4565 27.8848 53.6793 27.7077 53.8646C27.743 53.7546 27.7697 53.642 27.7877 53.5278C27.8215 53.4624 27.8598 53.3994 27.9023 53.3392V53.3392Z" fill="#000638"/>
<path d="M26.8152 39.9153C26.8091 39.8553 26.7985 39.7959 26.7836 39.7374C26.7375 39.5787 26.6528 39.4339 26.537 39.316C26.4643 39.2421 26.3797 39.1811 26.2867 39.1354C26.1871 39.0862 26.0797 39.0548 25.9693 39.0426C25.8788 39.0335 25.7875 39.036 25.6976 39.05C25.6333 39.0615 25.5699 39.078 25.508 39.0992C25.3395 39.171 25.1875 39.2767 25.0615 39.4097C24.9745 39.4987 24.8952 39.5949 24.8245 39.6973C24.7676 39.7793 24.8021 39.8637 24.9095 39.9125C25.0447 39.9772 25.1771 40.0424 25.306 40.1188C25.3841 40.1708 25.4738 40.2027 25.5671 40.2119C25.6166 40.2151 25.6658 40.2218 25.7143 40.2319C25.7391 40.2702 25.7354 40.3016 25.681 40.3108C25.5933 40.3251 25.5703 40.3764 25.5811 40.4585C25.6012 40.5922 25.6052 40.7279 25.5928 40.8626C25.5907 40.8835 25.5068 40.8649 25.4539 40.8432C25.3551 40.8029 25.2732 40.7781 25.249 40.8278C25.1547 41.0888 24.9627 41.3029 24.7136 41.425C24.6592 41.4621 24.6085 41.5043 24.5623 41.5512C24.4054 41.6918 24.2843 41.8708 24.0171 41.8959C23.9745 41.9032 23.9352 41.9235 23.9046 41.954C23.874 41.9846 23.8536 42.0238 23.8462 42.0664C23.8264 42.1204 23.7943 42.1691 23.7525 42.2086C23.7107 42.2481 23.6603 42.2774 23.6053 42.2941C23.5881 42.3032 23.5722 42.3145 23.5579 42.3276C23.5792 42.2793 23.6124 42.2373 23.6545 42.2054C23.6965 42.1736 23.7459 42.1529 23.7982 42.1454C23.8136 42.1424 23.8207 42.114 23.8082 42.0964C23.6785 41.9129 23.785 41.9041 23.8657 41.8626C23.9272 41.8311 23.9432 41.7525 23.9653 41.6853C23.9857 41.6115 24.0177 41.5413 24.0599 41.4774C24.1256 41.4027 24.2064 41.3427 24.297 41.3015C24.3795 41.2532 24.4436 41.179 24.4796 41.0904C24.5755 40.895 24.6187 40.678 24.605 40.4608C24.5944 40.3114 24.553 40.1658 24.4833 40.0333C24.4155 39.9028 24.3216 39.7876 24.2074 39.695C24.0931 39.6023 23.9611 39.5342 23.8194 39.4947C23.7143 39.4655 23.6054 39.4521 23.4964 39.4552C23.3356 39.4599 23.178 39.5013 23.0356 39.5761C22.9809 39.6034 22.9248 39.6277 22.8674 39.6488L22.826 39.6657L22.7964 39.68C22.7769 39.6896 22.7583 39.7008 22.7406 39.7134C22.6948 39.7475 22.6441 39.7746 22.5901 39.7936C22.5363 39.816 22.4795 39.8304 22.4215 39.8365C22.3725 39.8415 22.3266 39.8628 22.2911 39.897C22.2556 39.9311 22.2325 39.9761 22.2255 40.0249C22.2147 40.0717 22.1904 40.129 22.1526 40.13C22.0658 40.1293 21.9819 40.161 21.9174 40.219C21.8635 40.2761 21.8145 40.3376 21.7707 40.4028C21.6397 40.5993 21.5195 40.8027 21.4106 41.0123C21.3208 41.1745 21.2134 41.3328 21.258 41.5333C21.2751 41.6056 21.2034 41.6306 21.1728 41.6881C21.117 41.803 21.0108 41.9608 21.036 42.0864C21.0547 42.1805 21.0515 42.2775 21.0267 42.3702C21.004 42.4569 21.0069 42.5482 21.0349 42.6333L21.0358 42.6358C21.0075 42.6652 20.9865 42.7009 20.9744 42.7399C20.9622 42.7788 20.9594 42.8201 20.9661 42.8604C20.9682 42.8934 20.9211 42.9097 20.879 42.8942C20.7393 42.8431 20.6651 42.8513 20.6333 42.945C20.6171 43.0331 20.5714 43.1132 20.5039 43.1722C20.4363 43.2311 20.3508 43.2655 20.2612 43.2697C20.162 43.2686 20.1869 43.4028 20.0931 43.3989C19.9976 43.3957 20.0347 43.5459 19.979 43.5933C19.9348 43.6279 19.9088 43.69 19.8644 43.7245C19.8087 43.7695 19.7443 43.7972 19.7304 43.9001C19.7144 44.0026 19.5812 43.9136 19.5814 44.0474C19.5821 44.0556 19.5806 44.0638 19.5771 44.0712C19.5737 44.0787 19.5683 44.0851 19.5616 44.0898C19.555 44.0946 19.5471 44.0975 19.539 44.0983C19.5308 44.0992 19.5226 44.0978 19.5151 44.0945C19.4713 44.0755 19.4246 44.0642 19.3769 44.0612C19.3479 44.0634 19.3188 44.0634 19.2898 44.0611C19.2657 44.0604 19.2426 44.0767 19.2184 44.0756C19.1671 44.0717 19.1174 44.0561 19.073 44.03C19.0535 44.02 19.1066 43.9102 19.107 43.9006C19.1063 43.8913 19.0042 43.9756 18.9808 43.9609C18.9657 43.9543 18.952 43.9447 18.9406 43.9326C18.9292 43.9206 18.9204 43.9063 18.9147 43.8908C18.9102 43.8706 18.9128 43.8495 18.9221 43.831C18.9313 43.8126 18.9466 43.7978 18.9655 43.7893C18.9991 43.7776 19.0346 43.7724 19.0702 43.7741C19.1065 43.7735 19.1265 43.7781 19.0888 43.7621C19.0718 43.7504 19.0616 43.756 19.0693 43.7376C19.0775 43.7217 19.0885 43.7075 19.1019 43.6956C19.119 43.6836 19.1309 43.6655 19.135 43.6449C19.1391 43.6244 19.1351 43.6031 19.1238 43.5854C19.1093 43.5573 19.1607 43.5449 19.1891 43.5286C19.2709 43.4813 19.2174 43.383 19.1319 43.2715C19.0833 43.2081 19.0371 43.1408 19.1167 43.1231C19.2499 43.0933 19.2795 43 19.3691 42.946C19.521 42.8535 19.6921 42.7849 19.6012 42.5573C19.5991 42.5533 19.5979 42.5489 19.5979 42.5443C19.5979 42.5398 19.599 42.5354 19.6012 42.5314C19.6033 42.5274 19.6064 42.524 19.6102 42.5215C19.6139 42.519 19.6183 42.5175 19.6228 42.517C19.7835 42.5063 19.733 42.3794 19.7506 42.2834C19.7595 42.2073 19.7943 42.1365 19.8491 42.0829C19.904 42.0293 19.9755 41.9961 20.0519 41.9889C20.2077 41.9662 20.2549 41.8697 20.2094 41.7162C20.1376 41.4728 20.3301 41.388 20.2987 41.1606C20.281 41.0345 20.4733 41.0678 20.5525 41.0142C20.7781 40.8597 20.8579 40.5712 21.1746 40.5074C21.2022 40.5019 21.1906 40.4392 21.1708 40.3915C21.1096 40.2458 21.0975 40.1525 21.3207 40.2961C21.3451 40.3117 21.3819 40.3172 21.3879 40.3058C21.4541 40.2004 21.5513 40.1179 21.6661 40.0698C21.7668 40.0223 21.8124 39.9129 21.8809 39.8284C21.8904 39.8167 21.9015 39.7916 21.8895 39.7755C21.8202 39.6816 21.6278 39.5591 21.7483 39.5152C21.8113 39.4921 21.8936 39.4939 21.9511 39.4662C22.0816 39.4056 22.0301 39.1209 21.8498 38.8491C21.7061 38.6263 21.5328 38.4239 21.3347 38.2477C21.2925 38.2069 21.2383 38.1808 21.1801 38.1733C21.107 38.1826 21.0381 38.2128 20.9817 38.2602C20.8669 38.3701 20.7955 38.5276 20.6621 38.613C20.2856 38.857 20.0209 39.2171 19.7239 39.5403C19.5205 39.7607 19.3736 40.0241 19.0665 40.1618C19.0302 40.2822 18.9516 40.3854 18.8451 40.4524C18.8619 40.7377 18.6586 40.8774 18.5701 41.0918C18.4921 41.2893 18.3283 41.4404 18.3787 41.7045C18.3906 41.7649 18.3474 41.8054 18.3247 41.8524L18.0026 42.5067C17.9038 42.7494 17.7508 42.9663 17.5554 43.1408C17.5387 43.1554 17.524 43.1721 17.5116 43.1905C17.4968 43.2154 17.4837 43.2413 17.4724 43.2679C17.4503 43.3218 17.4318 43.3771 17.4169 43.4334C17.338 43.6183 17.3311 43.826 17.3976 44.0158C17.4327 44.1058 17.4357 44.2052 17.4063 44.2972C17.3777 44.3926 17.3865 44.4952 17.4309 44.5843C17.4657 44.6563 17.5104 44.723 17.5637 44.7826C17.6225 44.8351 17.6617 44.906 17.6747 44.9837C17.6997 45.1227 17.7642 45.2516 17.8607 45.3547C18.1677 45.6075 18.5237 45.7938 18.9064 45.9021C19.0337 45.9432 19.1477 45.8316 19.203 45.6727C19.235 45.5817 19.2759 45.5815 19.3432 45.6085C19.4122 45.6358 19.4879 45.6414 19.5602 45.6247C19.6325 45.6079 19.6979 45.5695 19.7479 45.5146C19.7866 45.4709 19.8318 45.4332 19.8818 45.4028C19.9183 45.382 19.9615 45.3762 20.0022 45.3868C20.0851 45.3986 20.1696 45.3854 20.245 45.3488C20.3361 45.3082 20.4228 45.2585 20.504 45.2005C20.5856 45.1459 20.6662 45.0899 20.7407 45.0286C20.7868 44.9931 20.8418 44.9658 20.864 44.9067C20.9168 44.7658 21.0438 44.7187 21.0988 44.5922C21.1191 44.5323 21.155 44.479 21.2028 44.4376C21.2506 44.3963 21.3087 44.3686 21.3708 44.3573C21.4085 44.4108 21.4414 44.4676 21.4692 44.527C21.4844 44.5626 21.5095 44.5932 21.5414 44.6152C21.5733 44.6373 21.6108 44.6498 21.6495 44.6514C22.0163 44.6496 22.3818 44.6074 22.7393 44.5254C22.9328 44.4712 23.1173 44.3888 23.2869 44.281C23.5131 44.1475 23.7162 43.9784 23.8886 43.7802C23.9265 43.7338 23.9719 43.6941 24.023 43.6628C24.0654 43.6329 24.1127 43.6108 24.1627 43.5974C24.2352 43.5892 24.3042 43.5617 24.3624 43.5177C24.4439 43.437 24.4962 43.3135 24.6641 43.3257C24.6771 43.146 24.8518 43.1349 24.9568 43.0492C25.0543 42.9712 25.1252 42.8649 25.1597 42.7448C25.1764 42.6961 25.2034 42.6515 25.2389 42.6142C25.2744 42.5768 25.3176 42.5476 25.3654 42.5284C25.5198 42.454 25.6567 42.3478 25.7671 42.2167C25.8775 42.0856 25.9589 41.9327 26.0058 41.7678C26.0158 41.7419 26.032 41.7188 26.053 41.7005C26.0739 41.6823 26.099 41.6694 26.1261 41.663C26.2529 41.6135 26.3588 41.5218 26.4258 41.4032C26.4949 41.3076 26.4538 41.1453 26.5862 41.0805C26.7279 41.0115 26.6612 40.8238 26.6919 40.6783C26.7 40.6401 26.709 40.603 26.7191 40.5665L26.7536 40.4391C26.7653 40.4012 26.7797 40.3394 26.7916 40.2827C26.8071 40.2113 26.8164 40.1388 26.8194 40.0658L26.8216 40.0033C26.8204 39.9742 26.8183 39.9448 26.8152 39.9153ZM22.8318 43.0922C22.8379 43.0881 22.844 43.0841 22.8501 43.0803C22.8454 43.0964 22.8388 43.0985 22.8318 43.0922V43.0922ZM25.8586 40.0145L25.8561 40.0159L25.8614 40.0122L25.8586 40.0145ZM25.8615 40.0121C25.8605 40.0128 25.8612 40.0123 25.8615 40.0121V40.0121ZM25.9486 40.2289L25.9479 40.2275C25.9486 40.2281 25.9499 40.2283 25.95 40.2295C25.9493 40.2287 25.9534 40.2375 25.9486 40.2288V40.2289Z" fill="#006ADC"/>
<path d="M56.5263 19.7425C56.2935 19.6215 56.35 19.4358 56.3335 19.2205C56.3288 19.1371 56.3075 19.0554 56.2706 18.9804C56.2366 18.9029 56.1981 18.8274 56.1553 18.7544C55.9733 18.4281 55.7635 18.1604 55.6661 17.7978C55.6304 17.6789 55.5689 17.5693 55.486 17.4769C55.0384 16.904 54.4324 16.475 53.7433 16.2431C53.5928 16.1953 53.4628 16.1188 53.3242 16.0756C53.1403 16.0274 52.9651 15.9503 52.8054 15.8471C52.7409 15.8054 52.6684 15.7775 52.5926 15.765C52.5168 15.7526 52.4393 15.7558 52.3648 15.7746C52.2965 15.7987 52.2217 15.7957 52.1556 15.7663C51.9329 15.5899 51.6609 15.5885 51.4012 15.5811C50.9894 15.5644 50.5848 15.5821 50.187 15.595C49.8615 15.6059 49.5337 15.5977 49.2392 15.7443C49.1346 15.7972 49.0323 15.7486 48.9299 15.7526C48.7549 15.7579 48.5555 15.722 48.4146 15.8033C48.1953 15.9322 47.9414 15.8863 47.7306 16.0233C47.5994 16.1118 47.4514 16.1726 47.2958 16.2018C47.1402 16.2311 46.9803 16.2281 46.8259 16.1932C46.6504 16.1685 46.4716 16.1844 46.3032 16.2397C46.0653 16.3092 45.8281 16.3792 45.5883 16.4428C45.3492 16.5191 45.0984 16.5524 44.8476 16.5411C44.7404 16.5273 44.6319 16.5544 44.5438 16.6171C44.1073 16.938 43.6375 17.211 43.1425 17.4313C42.8877 17.571 42.6268 17.7004 42.3813 17.8614C42.2418 17.9479 42.0978 18.0298 41.9633 18.1272C41.8251 18.2171 41.6971 18.3218 41.5815 18.4394C41.4754 18.5423 41.3497 18.623 41.2118 18.6765C41.0766 18.7366 40.9508 18.8159 40.8384 18.9121C40.7456 18.9956 40.6646 19.0988 40.5742 19.1917C40.4837 19.2886 40.3728 19.364 40.2494 19.4125C40.1471 19.7259 39.8605 19.8759 39.6823 20.124C39.5137 20.3363 39.3885 20.5798 39.3139 20.8405C39.2479 21.0522 39.1475 21.2516 39.0167 21.4306C38.6061 22.043 38.4008 22.7701 38.4307 23.5068C38.432 23.6205 38.4066 23.7328 38.3567 23.8348C38.3065 23.9616 38.2735 24.0944 38.2584 24.2298C38.2394 24.3658 38.2334 24.5032 38.2407 24.6403C38.246 24.8787 38.3742 25.092 38.3313 25.334C38.3103 25.4526 38.3278 25.5748 38.3812 25.6827C38.4412 25.7835 38.4959 25.8874 38.545 25.9939C38.5865 26.0954 38.6111 26.199 38.6498 26.3016C38.6871 26.4045 38.7203 26.5094 38.7519 26.6176C38.8177 26.8484 38.8961 27.0754 38.9867 27.2976C39.1588 27.6298 39.3652 27.9432 39.6024 28.2326C39.7056 28.3624 39.8075 28.3729 39.8774 28.2725C39.9663 28.1458 40.0533 28.0183 40.1509 27.9006C40.1877 27.86 40.2158 27.8123 40.2336 27.7605C40.2515 27.7087 40.2586 27.6538 40.2546 27.5991C40.2617 27.4656 40.2521 27.3318 40.2259 27.2007C40.194 27.1281 40.1671 27.0534 40.1453 26.9772C40.1211 26.9026 40.105 26.8255 40.0974 26.7474C40.0817 26.589 40.0563 26.4418 40.0298 26.2929C40.0183 26.1813 39.9783 26.0744 39.9137 25.9827C39.849 25.8909 39.7618 25.8174 39.6605 25.769C39.5656 25.7237 39.4999 25.6553 39.5393 25.5376C39.562 25.4762 39.5704 25.4105 39.5638 25.3455C39.5571 25.2804 39.5357 25.2178 39.5011 25.1623L39.4169 25.0074C39.3925 24.9547 39.3714 24.901 39.3494 24.8466C39.3061 24.7378 39.2654 24.6258 39.229 24.5109C39.2154 24.4741 39.3016 24.4028 39.3576 24.3743C39.4644 24.3204 39.5484 24.2622 39.543 24.1529C39.5338 23.9911 39.5367 23.8288 39.5517 23.6673C39.5565 23.599 39.562 23.5357 39.5685 23.4755C39.5778 23.4159 39.5913 23.3598 39.6042 23.3047C39.6308 23.1946 39.6623 23.0892 39.7021 22.9734C39.7492 22.8596 39.8094 22.7365 39.8813 22.5887C39.9338 22.4715 39.9873 22.3525 40.0405 22.2342C40.2038 21.8539 40.3792 21.4615 40.7317 21.2098C40.8588 21.1132 40.9519 20.9785 40.9971 20.8254C41.0353 20.7238 41.0939 20.631 41.1693 20.5529C41.2412 20.4722 41.3216 20.3995 41.4091 20.3359C41.5799 20.2122 41.6838 20.0066 41.884 19.8947C41.9764 19.8337 42.0624 19.7634 42.1405 19.6849C42.2218 19.6077 42.3078 19.5354 42.398 19.4687C42.5275 19.3758 42.5671 19.1847 42.7399 19.1438C42.912 19.1024 42.996 18.9683 43.0876 18.8245C43.1985 18.6499 43.4859 18.7815 43.5813 18.5535C43.5999 18.512 43.6917 18.5034 43.7549 18.5069C43.8207 18.5137 43.8871 18.5019 43.9465 18.4727C44.0058 18.4435 44.0558 18.3981 44.0905 18.3417C44.1211 18.2835 44.1686 18.2358 44.2268 18.2051C44.285 18.1744 44.3511 18.1621 44.4165 18.1698C44.5817 18.1852 44.7466 18.1383 44.879 18.0383C44.981 17.9585 45.0703 17.8601 45.2188 17.8717C45.4496 17.8627 45.6746 17.7971 45.8741 17.6807C46.017 17.6105 46.1652 17.5516 46.3173 17.5046C46.4709 17.4544 46.6315 17.4289 46.7931 17.4291C47.1204 17.4291 47.4446 17.343 47.7727 17.3526C48.0017 17.3626 48.2311 17.3482 48.457 17.3098C48.7177 17.2854 48.9748 17.2319 49.2234 17.1502C49.4734 17.0438 49.7363 17.2049 49.987 17.1548C50.0812 17.1437 50.176 17.1381 50.2709 17.1381C50.7314 17.1043 51.1941 17.1176 51.652 17.1778C52.0862 17.235 52.5091 17.358 52.9063 17.5425C53.1081 17.6415 53.2935 17.764 53.5552 17.752C53.5747 17.7508 53.604 17.7928 53.5981 17.8126C53.549 17.979 53.5866 18.0394 53.6555 18.0707C53.7307 18.0912 53.8028 18.1217 53.8699 18.1615C53.9933 18.2868 54.1363 18.3936 54.2456 18.528C54.2727 18.5614 54.299 18.5956 54.3233 18.6308C54.3448 18.6676 54.3637 18.7059 54.3799 18.7453C54.4141 18.8268 54.428 18.9153 54.4203 19.0033C54.4197 19.0159 54.4217 19.0284 54.4262 19.0401C54.4306 19.0519 54.4375 19.0626 54.4463 19.0715C54.4918 19.1119 54.5287 19.1612 54.5547 19.2163C54.5806 19.2713 54.595 19.3312 54.5971 19.392L54.6026 19.568C54.5984 19.624 54.6016 19.6804 54.6122 19.7356C54.6292 19.92 54.6299 20.1055 54.6143 20.29C54.6126 20.5176 54.5868 20.7444 54.5371 20.9665C54.4699 21.227 54.3097 21.4668 54.2442 21.7457C54.1784 22.0224 53.8909 22.1321 53.7809 22.3747C53.721 22.4788 53.6554 22.5794 53.5842 22.6762C53.5573 22.7184 53.5424 22.7672 53.5413 22.8173C53.5402 22.8673 53.5529 22.9167 53.578 22.9601C53.6186 23.0383 53.6178 23.1074 53.5618 23.1326C53.4949 23.162 53.4308 23.1973 53.3702 23.2381C53.3108 23.274 53.2555 23.3162 53.2052 23.364C53.1019 23.4664 53.0301 23.5964 52.9986 23.7385C52.9855 23.7663 52.9645 23.7897 52.9381 23.8057C52.9118 23.8217 52.8814 23.8295 52.8506 23.8283C52.7727 23.8141 52.6923 23.8243 52.6204 23.8576C52.5485 23.8908 52.4886 23.9454 52.4489 24.014C52.3548 24.1593 52.2389 24.2893 52.1054 24.3994C52.0397 24.4549 51.9691 24.5042 51.8945 24.5469C51.8153 24.5855 51.7321 24.6154 51.6463 24.6359C51.4777 24.6741 51.4322 24.8573 51.2699 24.889C51.1016 24.9185 51.0583 25.1137 50.9255 25.2004C50.8222 25.272 50.727 25.3582 50.6177 25.4219C50.4715 25.4874 50.3421 25.5849 50.2388 25.7074C50.138 25.8417 49.9294 25.7781 49.8431 25.9496C49.8254 25.9767 49.8011 25.9989 49.7725 26.0139C49.7438 26.029 49.7118 26.0364 49.6795 26.0355C49.3006 26.0035 48.997 26.1806 48.6585 26.2652C48.5589 26.2915 48.4609 26.3225 48.3605 26.3448L48.0588 26.4086L47.7584 26.4749L47.4553 26.5264C47.2993 26.5258 47.1435 26.5167 46.9884 26.4993C46.8093 26.5168 46.643 26.6515 46.4598 26.6872C46.2108 26.7162 45.9607 26.7622 45.7089 26.7722C45.583 26.7754 45.4569 26.7753 45.331 26.7699C45.2681 26.7668 45.2052 26.7636 45.1427 26.7566C45.0802 26.7466 45.0178 26.7349 44.9557 26.7214C44.8633 26.6931 44.774 26.6555 44.6891 26.6092C44.6039 26.5633 44.5044 26.552 44.4111 26.5777C44.198 26.6446 43.9477 26.4741 43.6424 26.6054C43.5931 26.6212 43.5414 26.6282 43.4896 26.626C43.4206 26.6279 43.3554 26.6295 43.2931 26.6358C43.112 26.6557 42.9442 26.7406 42.8207 26.8746C42.7427 26.9627 42.6831 27.0655 42.6454 27.177C42.6133 27.3334 42.5309 27.475 42.4107 27.5801C42.1656 27.7598 42.0805 28.0308 41.9586 28.2138C41.9092 28.2873 41.8599 28.3604 41.8109 28.4332C41.765 28.5019 41.7244 28.574 41.6892 28.6489C41.6144 28.8021 41.5911 28.9755 41.6229 29.1431C41.6258 29.16 41.6245 29.1774 41.6192 29.1938C41.6139 29.2101 41.6047 29.2249 41.5924 29.2369C41.552 29.2668 41.518 29.3045 41.4924 29.3477C41.4668 29.3909 41.45 29.4388 41.4432 29.4885C41.4353 29.5365 41.43 29.5849 41.4272 29.6334C41.4321 29.6587 41.4352 29.6843 41.4366 29.7101C41.4369 29.7479 41.4332 29.7857 41.4254 29.8228C41.4244 29.8417 41.4174 29.8598 41.4056 29.8745C41.3849 29.8963 41.3456 29.8954 41.2935 29.824C41.2112 29.7097 41.2373 29.6767 41.2774 29.9295C41.3015 30.0555 41.3025 30.1849 41.2802 30.3113C41.2531 30.4589 41.234 30.6079 41.2231 30.7577C41.208 30.9137 41.1906 30.897 41.1812 30.8217C41.1709 30.7483 41.1687 30.6163 41.1619 30.5914C41.1413 30.5182 41.1166 30.6147 41.0652 30.6513C41.0521 30.6596 41.0324 30.6497 41.0268 30.6211C41.0204 30.5851 41.0194 30.5484 41.0239 30.5122C41.0398 30.3758 41.0666 30.2409 41.1042 30.1088C41.071 30.1862 41.0425 30.2656 41.0186 30.3464C40.8683 30.781 40.7885 30.902 41.0621 30.1452C41.092 30.0622 41.1241 29.9722 41.1206 29.9789C41.0862 30.0375 41.1128 29.9282 41.1574 29.8311C41.1956 29.7513 41.1469 29.8253 41.1341 29.8153C41.1209 29.8235 41.1094 29.834 41.0999 29.8463C40.9794 29.9718 40.7483 30.2793 40.8028 30.1207C40.8312 30.0399 40.8916 29.9491 40.9121 29.8993C40.9349 29.8427 40.8833 29.8327 40.7871 29.7983C40.6906 29.7691 40.5499 29.7095 40.3901 29.6631C40.1327 29.5811 39.8567 29.578 39.5976 29.6542C39.5598 29.6699 39.5259 29.6939 39.4985 29.7243C39.4665 29.7646 39.4439 29.8116 39.4323 29.8618C39.38 30.0988 39.3496 30.3402 39.3416 30.5828C39.3358 30.8554 39.347 31.1165 39.3568 31.3677C39.3667 31.62 39.3748 31.863 39.3639 32.1282C39.3468 32.4693 39.3538 32.8113 39.385 33.1514C39.405 33.3883 39.4589 33.6211 39.5452 33.8426C39.6044 33.9865 39.6814 34.1223 39.7744 34.247C39.8534 34.3563 39.9474 34.4541 40.0535 34.5374C40.1026 34.5743 40.1576 34.6028 40.2161 34.6217C40.287 34.643 40.3617 34.6482 40.4348 34.637C40.5239 34.6207 40.6106 34.593 40.6928 34.5548C40.8331 34.4831 40.9893 34.4479 41.1468 34.4525C41.1854 34.3921 41.2206 34.351 41.2604 34.297C41.2966 34.2482 41.3361 34.2021 41.3788 34.159C41.4179 34.1085 41.4597 34.0603 41.5041 34.0144C41.5279 33.9912 41.5495 33.9657 41.5685 33.9385L41.6346 33.8557C41.6687 33.7483 41.703 33.6406 41.7374 33.5326C41.7714 33.4261 41.8057 33.3271 41.8403 33.2334C41.9084 33.0339 41.9787 32.8588 42.0506 32.6831C42.1932 32.337 42.3485 31.999 42.4724 31.6154C42.5313 31.4452 42.5903 31.2746 42.6496 31.1035L42.7388 30.8505L42.7817 30.7263L42.8167 30.6168C42.8624 30.4706 42.904 30.3236 42.935 30.1778C42.951 30.0739 42.9546 29.9685 42.946 29.8637C42.9515 29.7613 42.9763 29.6609 43.0191 29.5677L43.2346 28.887C43.2872 28.6938 43.3578 28.5059 43.4454 28.3258C43.4665 28.2851 43.4922 28.247 43.522 28.2122C43.5475 28.183 43.5783 28.1588 43.6127 28.1409C43.6673 28.1142 43.7293 28.1067 43.7887 28.1197C43.8921 28.1353 43.9926 28.1664 44.0867 28.2122C44.2084 28.2571 44.3371 28.2803 44.4669 28.2808C44.7182 28.2947 44.9738 28.3438 45.2206 28.2546C45.4718 28.1572 45.7099 28.364 45.9621 28.2967C46.0683 28.2778 46.1733 28.2532 46.2768 28.2231C46.3761 28.1852 46.4846 28.1781 46.588 28.2027C46.7648 28.2382 46.9456 28.2499 47.1256 28.2377C47.3785 28.21 47.6256 28.163 47.8774 28.1401C48.1303 28.1217 48.3799 28.0918 48.6394 28.0912C48.8 28.0894 48.891 27.9674 48.9181 27.7993C48.9337 27.7065 48.9898 27.6934 49.0817 27.7069C49.1712 27.7218 49.2628 27.717 49.3503 27.6929C49.4378 27.6688 49.519 27.626 49.5882 27.5673C49.6355 27.5153 49.6932 27.4738 49.7575 27.4454C49.8219 27.417 49.8914 27.4024 49.9617 27.4025C50.1061 27.3992 50.2485 27.3678 50.3809 27.31C50.5493 27.2442 50.7105 27.1595 50.8733 27.0801C51.0361 27.001 51.1903 26.9045 51.3469 26.8137C51.4456 26.7681 51.5366 26.7075 51.6167 26.634C51.7781 26.4358 52.0137 26.3383 52.1818 26.1584C52.3592 25.9299 52.6085 25.7679 52.8894 25.6986C52.9951 25.6757 53.0949 25.6312 53.1825 25.5677C53.2665 25.4996 53.3534 25.4342 53.4396 25.3681C53.5231 25.2985 53.6037 25.2254 53.6811 25.1496C53.845 25.0029 53.9709 24.8187 54.0481 24.6127C54.1002 24.4608 54.2538 24.4313 54.3788 24.3588C54.4686 24.301 54.5377 24.216 54.576 24.1161C54.6367 23.9829 54.6727 23.8428 54.8184 23.774C54.9916 23.6947 55.0845 23.5279 55.2098 23.3945C55.4888 23.097 55.6507 22.7059 56.0213 22.4536C56.1201 22.1535 56.2445 21.8625 56.3932 21.5837C56.4583 21.4309 56.4934 21.2669 56.4966 21.1008C56.4984 21.0595 56.4963 21.0181 56.4904 20.9772C56.4493 20.6012 56.4717 20.221 56.5567 19.8524C56.5601 19.833 56.5592 19.813 56.5539 19.794C56.5486 19.775 56.5392 19.7574 56.5263 19.7425V19.7425Z" fill="#006ADC"/>
<path d="M54.9075 21.9735C54.7891 21.8858 54.6668 21.8047 54.5426 21.7218C54.468 21.6617 54.3746 21.63 54.2788 21.6323C54.181 21.6426 54.0449 21.6375 53.9938 21.696C53.8892 21.8199 53.7372 21.9166 53.6206 22.031C53.6239 21.9815 53.6274 21.9287 53.6294 21.8661C53.6346 21.7494 53.6267 21.6325 53.606 21.5176C53.5734 21.3401 53.4967 21.1738 53.383 21.0338C53.2608 20.8865 53.0991 20.7771 52.917 20.7184C52.7876 20.6775 52.6517 20.6611 52.5163 20.6699C52.419 20.6758 52.3228 20.693 52.2295 20.7212C52.1586 20.7422 52.0892 20.7681 52.0219 20.7989C51.9528 20.8301 51.8861 20.8662 51.8221 20.9069C51.6565 21.0141 51.5114 21.1499 51.3934 21.308C51.3651 21.3454 51.3379 21.3844 51.3113 21.4241C51.1866 21.3176 51.0325 21.2515 50.8694 21.2345C50.7128 21.2311 50.5562 21.2406 50.4012 21.2629C50.2735 21.2773 50.1446 21.2775 50.0169 21.2635C49.9188 21.2487 49.8185 21.2648 49.7299 21.3096C49.6008 21.3793 49.478 21.46 49.3628 21.5509C49.2473 21.6449 49.1697 21.7775 49.1445 21.9243C49.1257 22.0343 49.0118 22.0315 48.9214 22.0691C48.8922 22.0854 48.867 22.1081 48.8476 22.1354C48.8282 22.1626 48.8152 22.1939 48.8093 22.2268C48.7854 22.3185 48.7924 22.4182 48.6849 22.4494C48.5629 22.4885 48.521 22.5953 48.4479 22.6722C48.2812 22.8446 48.2335 23.0829 47.9491 23.1792C47.9301 23.2585 47.9071 23.3369 47.8802 23.414C47.8667 23.4514 47.8493 23.4874 47.8284 23.5213C47.8062 23.5556 47.7635 23.6305 47.7221 23.6873C47.655 23.8105 47.6157 23.9468 47.607 24.0867C47.6041 24.119 47.6054 24.1514 47.6107 24.1833C47.6426 24.4642 47.6038 24.7486 47.4977 25.0107C47.4881 25.0356 47.5012 25.0775 47.5239 25.0783C47.6067 25.0825 47.6487 25.1045 47.6692 25.1374C47.6814 25.2028 47.6802 25.2594 47.6096 25.2513C47.55 25.244 47.4896 25.2541 47.4358 25.2805L47.3636 25.3145C47.3425 25.3227 47.3063 25.3421 47.2974 25.3316C47.2461 25.3136 47.2029 25.2827 47.1814 25.2798C47.166 25.2716 47.1761 25.2889 47.1873 25.4001C47.1892 25.4185 47.1851 25.4246 47.1796 25.4076C47.141 25.2684 47.1552 25.3938 47.128 25.447C47.0992 25.5252 47.0273 25.5267 47.0854 25.3308C47.135 25.1774 47.1506 25.2079 47.036 25.3351C46.9464 25.4329 46.9096 25.4295 46.883 25.4219C46.8396 25.4037 46.7914 25.4002 46.7458 25.412C46.6966 25.4175 46.7156 25.3826 46.7514 25.3499C46.7865 25.3161 46.84 25.2845 46.8549 25.2672C46.8827 25.2351 46.9001 25.1952 46.9048 25.1529C46.9081 25.1416 46.9114 25.1411 46.918 25.1287C46.9302 25.0994 46.9454 25.0714 46.9635 25.0453C47.002 24.9878 47.0539 24.9404 47.1147 24.9072C47.1388 24.8945 47.1053 24.8418 47.0703 24.8041C46.9621 24.6894 46.9252 24.6023 47.1786 24.676C47.2067 24.6841 47.2431 24.6803 47.2454 24.6686C47.2737 24.5557 47.3438 24.4577 47.4414 24.3945C47.5228 24.3325 47.5424 24.2254 47.5926 24.1376C47.5974 24.1298 47.5997 24.1208 47.5994 24.1116C47.5991 24.1025 47.5961 24.0937 47.5909 24.0862C47.5082 24.0038 47.3003 23.9106 47.4119 23.8505C47.4708 23.8198 47.5517 23.8131 47.6053 23.7822C47.722 23.7127 47.6517 23.4391 47.4663 23.1701C47.3185 22.9495 47.1376 22.753 46.9299 22.5874C46.8828 22.5481 46.8228 22.5274 46.7613 22.5294C46.6754 22.5531 46.5973 22.5993 46.5352 22.6632C46.4031 22.8098 46.3295 23.0028 46.1919 23.1371C45.7992 23.5224 45.5885 24.0416 45.4055 24.5503C45.3975 24.572 45.3896 24.5937 45.3828 24.6159L45.3573 24.6984C45.3368 24.7655 45.3201 24.8336 45.3071 24.9025C45.2913 24.9697 45.2789 25.0377 45.27 25.1061C45.2603 25.1742 45.2483 25.2422 45.2446 25.3102C45.2183 25.5832 45.2097 25.8526 45.2 26.1477C45.2935 26.338 45.3767 26.5333 45.4489 26.7326C45.6173 26.8309 45.7513 26.9494 45.9042 27.0566C46.0501 27.1742 46.2236 27.2528 46.4083 27.2848C46.574 27.3184 46.744 27.3243 46.9116 27.3024C47.0921 27.275 47.257 27.1846 47.3772 27.0472C47.4405 26.9893 47.5129 26.9422 47.5914 26.9077C47.758 26.8022 47.9147 26.6819 48.0598 26.5483L48.169 26.4549L48.2221 26.4095L48.2587 26.376L48.3104 26.3297C48.33 26.3446 48.3512 26.3574 48.3735 26.3678C48.5879 26.4788 48.8284 26.5293 49.0692 26.5142C49.3375 26.4975 49.5949 26.4016 49.8086 26.2386C49.9141 26.1587 50.0213 26.1333 50.1185 26.0709C50.2392 25.9785 50.3798 25.9154 50.5292 25.8867C50.5894 25.8766 50.6459 25.8509 50.6932 25.8122C50.7264 25.7801 50.749 25.7387 50.758 25.6934C50.7686 25.65 50.7921 25.5963 50.8295 25.6026C51.0205 25.6352 51.1107 25.5137 51.2164 25.4183L51.4578 25.1818C51.5357 25.1006 51.6155 25.022 51.6982 24.9465C51.7624 24.8846 51.8327 24.8269 51.8917 24.7601C51.9079 24.7697 51.9244 24.7797 51.9407 24.789C52.4186 25.0958 53.0748 24.9684 53.5215 24.53C53.5874 24.4687 53.6678 24.425 53.7551 24.403C53.9723 24.3241 54.1585 24.1777 54.2864 23.9853C54.4125 23.8105 54.4128 23.5697 54.5658 23.4224C54.6065 23.3849 54.6376 23.3382 54.6564 23.2862C54.661 23.274 54.665 23.2617 54.6682 23.2492C54.6697 23.2412 54.6707 23.2331 54.6713 23.225C54.6726 23.2084 54.6723 23.1917 54.6705 23.1752C54.6576 23.1111 54.6496 23.0462 54.6464 22.9809C54.6726 22.7849 54.752 22.5998 54.876 22.4457C54.9165 22.3407 54.9657 22.2393 55.023 22.1424C55.0444 22.1092 55.0003 22.0433 54.9075 21.9735ZM52.612 21.6393V21.6392C52.6106 21.6406 52.6119 21.6394 52.612 21.6393V21.6393ZM50.2052 22.1462L50.2053 22.1465L50.2048 22.1463L50.2052 22.1462ZM53.611 22.6907C53.5756 22.7016 53.5457 22.7254 53.527 22.7574C53.5172 22.7884 53.5182 22.8218 53.5299 22.8521C53.5709 22.9985 53.5805 23.1518 53.5582 23.3022C53.5549 23.3292 53.4813 23.297 53.4356 23.2578C53.3504 23.1883 53.2888 23.1344 53.2656 23.1788C53.2116 23.3021 53.1238 23.4077 53.0124 23.4833C52.967 23.5088 52.9164 23.5234 52.8645 23.5261C52.8125 23.5289 52.7606 23.5196 52.7128 23.4991C52.6816 23.4889 52.649 23.4835 52.6161 23.4829C52.6714 23.4176 52.7438 23.3689 52.8252 23.3422C52.9236 23.2997 53.0012 23.2199 53.0409 23.1202C53.1092 22.9948 53.1582 22.8595 53.2345 22.7379C53.2941 22.6071 53.3891 22.4957 53.5088 22.4163C53.5332 22.4601 53.5636 22.5003 53.5992 22.5356C53.6627 22.6015 53.6923 22.6606 53.611 22.6907L53.611 22.6907Z" fill="#000638"/>
<path d="M48.6511 18.0656C48.7272 17.9354 48.6423 17.8833 48.571 17.8384C48.5259 17.8113 48.5578 17.7387 48.573 17.6674C48.5892 17.5969 48.5901 17.5282 48.508 17.5253C48.4801 17.5237 48.4891 17.4553 48.4962 17.4074C48.5116 17.2969 48.4649 17.2255 48.3622 17.2319C48.2571 17.2361 48.1964 17.2153 48.1728 17.1235C48.1686 17.0994 48.1591 17.0764 48.145 17.0563C48.1309 17.0362 48.1126 17.0195 48.0912 17.0074C48.0699 16.9952 48.0462 16.9879 48.0217 16.9861C47.9972 16.9842 47.9727 16.9877 47.9497 16.9964C47.8611 17.0207 47.7737 17.0744 47.7276 17.018C47.7055 16.9957 47.6774 16.9801 47.6468 16.973C47.6161 16.966 47.5841 16.9679 47.5544 16.9784C47.4802 16.9947 47.4075 17.0175 47.3373 17.0467C47.238 17.0773 47.1368 17.1368 47.0399 17.1738C46.945 17.2116 46.8433 17.2295 46.7411 17.2262C46.6292 17.2355 46.519 17.2589 46.4129 17.2957C46.3005 17.3266 46.1808 17.37 46.0714 17.3928C45.9762 17.4006 45.8831 17.4249 45.7962 17.4646C45.7225 17.4205 45.6445 17.3838 45.5635 17.3552C45.4437 17.319 45.3583 17.1949 45.2327 17.1816C45.079 17.1641 44.9138 17.2844 44.7691 17.3254C44.5659 17.384 44.37 17.4656 44.1853 17.5685L43.9039 17.7219L43.762 17.7987C43.7424 17.8088 43.7184 17.8219 43.7016 17.8292L43.6516 17.8487C43.5532 17.8857 43.3692 17.812 43.3399 17.9436C43.3116 18.0744 43.1381 18.0251 43.1229 18.1652C43.1198 18.2011 43.0621 18.1968 43.0249 18.2049C42.9169 18.2286 42.9235 18.3469 42.9589 18.485C42.9783 18.5633 42.9993 18.6453 42.9152 18.6385C42.7739 18.6287 42.709 18.7161 42.6024 18.7517C42.4214 18.8114 42.2181 18.8643 42.2567 19.1196C42.2579 19.1243 42.2579 19.1293 42.2569 19.134C42.2558 19.1388 42.2537 19.1433 42.2508 19.1472C42.2478 19.1511 42.244 19.1542 42.2396 19.1564C42.2353 19.1586 42.2305 19.1599 42.2256 19.16C42.0567 19.1539 42.0826 19.2984 42.05 19.3991C42.029 19.4799 41.9853 19.553 41.924 19.6096C41.8627 19.6663 41.7864 19.7041 41.7042 19.7187C41.6693 19.7222 41.6358 19.7341 41.6066 19.7534C41.5773 19.7726 41.5532 19.7988 41.5363 19.8294C41.5193 19.8601 41.5101 19.8944 41.5094 19.9295C41.5086 19.9645 41.5164 19.9992 41.5321 20.0305C41.6083 20.281 41.4221 20.4042 41.4839 20.6364C41.5208 20.7616 41.3255 20.7721 41.2542 20.8514C41.0586 21.0841 41.0649 21.4022 40.7916 21.6139C40.7673 21.6331 40.8026 21.6911 40.8397 21.7284C40.9538 21.8433 41.0034 21.9204 40.7393 21.8994C40.7103 21.8971 40.6744 21.9118 40.6738 21.9264C40.6589 22.0669 40.6119 22.202 40.5364 22.3213C40.49 22.4469 40.4712 22.5811 40.4813 22.7146C40.48 22.7357 40.4862 22.7751 40.5056 22.7812C40.6191 22.8151 40.8448 22.7655 40.7798 22.918C40.7315 23.0075 40.6968 23.1037 40.677 23.2035C40.6744 23.2662 40.691 23.3281 40.7247 23.3811C40.7583 23.4341 40.8073 23.4755 40.8652 23.4998C41.0073 23.5616 41.1671 23.5694 41.3146 23.5219C41.5638 23.4463 41.805 23.3464 42.0346 23.2235C42.0807 23.2017 42.1256 23.1775 42.1691 23.151C42.1997 23.1241 42.2238 23.1072 42.2194 23.0962C42.2143 23.0802 42.1958 23.0842 42.1831 23.0521C42.1754 23.034 42.1719 23.0144 42.1727 22.9947C42.1736 22.9751 42.1789 22.9559 42.1882 22.9385C42.3284 22.6447 42.366 22.2894 42.4954 21.9771C42.5715 21.7912 42.6185 21.5836 42.7951 21.4481C42.7827 21.5818 42.7898 21.7166 42.8161 21.8483C42.8671 22.0998 42.9878 22.3319 43.1645 22.5181C43.2968 22.656 43.4597 22.7611 43.6399 22.8248C43.8104 22.8844 43.9918 22.9061 44.1715 22.8884C44.3275 22.872 44.4796 22.8294 44.6214 22.7622C44.7074 22.7221 44.7896 22.6745 44.8672 22.6199C44.9116 22.5894 44.9528 22.5546 44.9903 22.516C45.025 22.4812 45.0547 22.4417 45.0785 22.3987C45.165 22.2272 45.4059 22.2511 45.4914 22.0874C45.5266 22.0158 45.5935 21.9701 45.6285 21.8993C45.643 21.8622 45.6463 21.8217 45.6381 21.7828C45.6298 21.7438 45.6103 21.7081 45.5821 21.6801C45.5328 21.6131 45.5172 21.5621 45.5578 21.5536C45.7603 21.5125 45.8876 21.3919 45.836 21.1683C45.8281 21.1341 45.8734 21.1035 45.9196 21.1056C46.0728 21.1126 46.1485 21.0708 46.161 20.9558C46.1587 20.8489 46.1814 20.743 46.2274 20.6465C46.2734 20.55 46.3414 20.4656 46.4259 20.4002C46.5231 20.3313 46.4362 20.2099 46.5242 20.1421C46.5398 20.128 46.5508 20.1096 46.5559 20.0892C46.561 20.0687 46.5598 20.0473 46.5527 20.0275C46.5731 20.0441 46.5947 20.0592 46.6172 20.0726C46.6491 20.0893 46.6824 20.1031 46.7167 20.1138C46.7396 20.1229 46.7631 20.1308 46.7868 20.1375C46.8647 20.1524 46.9449 20.1484 47.021 20.126C47.1462 20.09 47.2654 20.0356 47.3747 19.9646C47.5002 19.8897 47.6361 19.8341 47.7781 19.7994C47.8365 19.7782 47.8889 19.7432 47.931 19.6975C47.9732 19.6518 48.0037 19.5966 48.0202 19.5367C48.0823 19.386 48.1799 19.2525 48.3049 19.1478C48.4214 19.023 48.4328 18.8803 48.5407 18.7406C48.6475 18.5968 48.6304 18.4601 48.6778 18.3228C48.71 18.2177 48.5714 18.1896 48.6511 18.0656ZM46.9282 18.5443C46.9321 18.5423 46.9359 18.5409 46.9397 18.5394C46.936 18.5414 46.9322 18.5431 46.9282 18.5443V18.5443ZM46.9065 18.8492C46.906 18.8448 46.9059 18.8403 46.9061 18.8359C46.9078 18.8342 46.9027 18.8352 46.9099 18.8329L46.9108 18.8326L46.911 18.8325L46.9111 18.8325H46.9112L46.9078 18.8555C46.9075 18.8536 46.9067 18.8508 46.9065 18.8492H46.9065ZM43.356 20.2343C43.3504 20.2465 43.3436 20.2582 43.3375 20.2702C43.3428 20.2295 43.342 20.1882 43.3353 20.1477C43.3274 20.0935 43.3687 20.0672 43.3936 20.0331C43.4256 19.9879 43.4612 19.9457 43.4955 19.9024C43.4941 19.9068 43.4922 19.911 43.4899 19.915C43.4355 20.017 43.3906 20.1239 43.356 20.2343V20.2343ZM43.7116 19.7261C43.6908 19.7197 43.6722 19.7147 43.6552 19.7108C43.6821 19.6803 43.7085 19.6493 43.7367 19.62C43.7402 19.6484 43.7471 19.6763 43.757 19.7032C43.7622 19.7167 43.7304 19.7318 43.7116 19.7261V19.7261ZM46.6568 19.1053C46.6043 19.0907 46.549 19.0883 46.4954 19.0985C46.4984 19.0834 46.5017 19.0681 46.5043 19.0526C46.5161 19.0232 46.518 18.9907 46.5097 18.9601C46.5014 18.9295 46.4834 18.9025 46.4583 18.883C46.4483 18.8753 46.4404 18.8653 46.4353 18.8538C46.4434 18.8486 46.4504 18.8417 46.4558 18.8337C46.4611 18.8256 46.4648 18.8165 46.4664 18.807C46.4922 18.6819 46.6128 18.6987 46.6437 18.5785C46.6522 18.5418 46.6667 18.5069 46.6868 18.4751C46.6928 18.4565 46.7051 18.4405 46.7216 18.4301C46.7481 18.4178 46.7896 18.4384 46.8267 18.5016C46.8367 18.5229 46.8507 18.5421 46.8679 18.5583C46.8514 18.5605 46.8356 18.5661 46.8213 18.5746C46.807 18.5832 46.7947 18.5946 46.7849 18.6081C46.7752 18.6216 46.7683 18.6369 46.7647 18.6531C46.7611 18.6694 46.7608 18.6862 46.7639 18.7025C46.7691 18.8448 46.786 18.9816 46.795 19.1041C46.796 19.123 46.7129 19.1166 46.6568 19.1053V19.1053Z" fill="white"/>
</svg>
