<svg width="230" height="60" viewBox="0 0 230 60" fill="none" xmlns="http://www.w3.org/2000/svg">
<path d="M2.23462 0C0.827636 0 0 1.25 0 2.66667V57.5C0 58.9167 0.827636 60 2.23462 60H227.683C229.09 60 230 58.9167 230 57.5V2.66667C230 1.25 229.09 0 227.683 0H38.3195H2.23462Z" fill="#034EA2"/>
<path d="M85.4886 26.2564C84.6278 26.7729 83.4228 26.945 82.1316 26.945C81.2709 26.945 80.0658 26.945 78.8607 26.7729V25.2235C79.8936 25.3096 80.9266 25.3956 81.9595 25.3956C82.8202 25.3956 83.681 25.3096 84.1974 25.0513C84.8861 24.7931 85.2304 24.1045 85.2304 23.2437C85.2304 22.1248 84.7139 21.6083 83.5949 21.264C82.9063 21.0058 82.2177 20.8336 81.5291 20.6615C79.8076 20.145 78.7747 19.1982 78.7747 17.3045C78.7747 16.1855 79.205 15.0665 80.1519 14.464C81.0987 13.8615 82.1316 13.7754 83.3367 13.7754C84.1974 13.7754 85.2304 13.8615 86.3493 13.9475V15.4108C85.3164 15.3248 84.2835 15.2387 83.5088 15.2387C82.7342 15.2387 82.0455 15.2387 81.5291 15.4969C80.8405 15.8412 80.5823 16.5298 80.5823 17.2184C80.5823 18.2513 81.0987 18.7678 82.0455 19.1121C82.6481 19.2843 83.3367 19.4564 84.1114 19.7146C86.005 20.2311 87.0379 21.1779 87.0379 23.2437C86.9519 24.3627 86.5215 25.5678 85.4886 26.2564Z" fill="white"/>
<path d="M88.7595 18.4229C89.4481 16.7014 89.9646 15.152 90.395 13.5166H92.2026C91.6861 15.3242 90.9114 17.0457 90.3089 18.4229H88.7595Z" fill="white"/>
<path d="M94.6127 13.4307H96.4203V15.1522H94.6127V13.4307ZM96.2481 26.6864H94.6987V17.3902H96.3342L96.2481 26.6864Z" fill="white"/>
<path d="M105.889 26.6862L105.802 26.1698C104.77 26.5141 103.651 26.9444 102.532 26.9444C101.499 26.9444 100.638 26.6001 99.9493 25.9115C99.0886 25.0508 98.7443 23.7596 98.7443 22.0381C98.7443 20.2305 99.3468 18.7672 100.294 17.9926C101.068 17.39 102.101 17.1318 103.306 17.1318C104.081 17.1318 104.942 17.3039 105.544 17.5622V13.5166H107.18V26.6862H105.889ZM105.63 24.9647V18.9394C105.028 18.6812 104.253 18.509 103.565 18.509C101.499 18.509 100.466 19.5419 100.466 22.0381C100.466 24.5343 101.499 25.5672 102.962 25.5672C103.909 25.5672 104.77 25.2229 105.63 24.9647Z" fill="white"/>
<path d="M113.894 26.9444C112.861 26.9444 111.742 26.6861 110.967 25.9114C110.106 24.9646 109.762 23.6735 109.762 22.038C109.762 20.4887 110.106 19.0254 111.139 18.1646C111.914 17.5621 112.775 17.2178 114.066 17.2178C115.099 17.2178 116.132 17.476 116.906 18.1646C118.025 19.1114 118.111 20.5747 118.111 22.4684H111.397C111.483 24.6203 112.43 25.6532 114.238 25.6532C115.357 25.6532 116.476 25.395 117.767 25.1368V26.4279C116.562 26.6001 115.185 26.9444 113.894 26.9444ZM113.98 18.3368C112.172 18.3368 111.57 19.4557 111.483 21.2633H116.476C116.39 19.2836 115.701 18.3368 113.98 18.3368Z" fill="white"/>
<path d="M127.235 26.6863V20.747C127.235 19.1116 126.375 18.5091 124.997 18.5091C124.223 18.5091 123.362 18.7673 122.243 19.1116V26.6002H120.608V17.3901H121.985L122.071 17.9065C123.19 17.5622 124.395 17.1318 125.514 17.1318C126.547 17.1318 127.494 17.3901 128.182 18.1647C128.785 18.8534 128.871 19.7141 128.871 20.747V26.6863H127.235Z" fill="white"/>
<path d="M134.982 26.9446C133.949 26.9446 132.916 26.6003 132.486 25.3952C132.228 24.7066 132.142 23.8459 132.142 22.899V18.7674H130.592V17.4762H132.142L132.314 14.6357H133.777V17.4762H136.532V18.7674H133.777V22.7269C133.777 23.4155 133.777 24.018 133.949 24.5345C134.122 25.3092 134.552 25.6535 135.413 25.6535C135.843 25.6535 136.359 25.5674 136.79 25.4813V26.7725C136.187 26.7725 135.499 26.9446 134.982 26.9446Z" fill="white"/>
<path d="M138.942 13.4307H140.749V15.1522H138.942V13.4307ZM140.577 26.6864H139.028V17.3902H140.663L140.577 26.6864Z" fill="white"/>
<path d="M150.045 26.6865V18.7675H145.742V26.6865H144.106V18.7675H142.557V17.4764H144.106C144.106 16.0992 144.364 14.9802 145.225 14.2055C146 13.5169 147.119 13.3447 148.668 13.3447C149.529 13.3447 150.39 13.4308 151.164 13.5169V14.7219C150.39 14.6359 149.529 14.5498 148.668 14.5498C146.258 14.5498 145.742 15.4105 145.742 17.3042H151.681V26.6004H150.045V26.6865Z" fill="white"/>
<path d="M158.309 26.9444C157.276 26.9444 156.157 26.6861 155.382 25.9114C154.522 24.9646 154.177 23.6735 154.177 22.038C154.177 20.4887 154.522 19.0254 155.554 18.1646C156.329 17.5621 157.19 17.2178 158.481 17.2178C159.514 17.2178 160.547 17.476 161.322 18.1646C162.441 19.1114 162.527 20.5747 162.527 22.4684H155.813C155.899 24.6203 156.846 25.6532 158.653 25.6532C159.772 25.6532 160.891 25.395 162.182 25.1368V26.4279C160.977 26.6001 159.6 26.9444 158.309 26.9444ZM158.395 18.3368C156.587 18.3368 155.985 19.4557 155.899 21.2633H160.891C160.805 19.2836 160.116 18.3368 158.395 18.3368Z" fill="white"/>
<path d="M165.109 26.6863V17.3901H166.486L166.572 17.9926C167.949 17.4761 168.724 17.1318 169.843 17.1318H170.015V18.5951H169.671C168.724 18.5951 168.035 18.7673 166.744 19.1977V26.6863H165.109Z" fill="white"/>
<path d="M183.185 26.6863V26.1698C181.98 26.5141 180.947 26.9445 179.828 26.9445C179.053 26.9445 178.278 26.7723 177.676 26.1698C177.073 25.6534 176.815 24.9647 176.815 24.0179C176.815 23.0711 177.159 22.1242 178.106 21.6078C178.795 21.2635 179.57 21.1774 180.516 21.1774C181.205 21.1774 182.152 21.2635 183.013 21.3496V20.9192C183.013 19.1116 182.238 18.5091 180.172 18.5091C179.397 18.5091 178.623 18.5951 177.848 18.6812V17.304C178.709 17.2179 179.57 17.1318 180.43 17.1318C181.635 17.1318 182.927 17.2179 183.701 18.0787C184.476 18.8534 184.648 19.8002 184.648 21.1774V26.7723H183.185V26.6863ZM182.927 22.4685C182.152 22.3825 181.205 22.3825 180.516 22.3825C178.881 22.3825 178.278 22.985 178.278 24.0179C178.278 24.9647 178.967 25.6534 180.172 25.6534C181.033 25.6534 181.98 25.3951 182.927 25.0508V22.4685Z" fill="white"/>
<path d="M189.727 26.6868L186.111 17.3906H187.919L190.673 25.0514H190.759L193.514 17.3906H195.235L191.62 26.6868H189.727Z" fill="white"/>
<path d="M200.228 26.9444C199.195 26.9444 198.076 26.6861 197.301 25.9114C196.44 24.9646 196.096 23.6735 196.096 22.038C196.096 20.4887 196.44 19.0254 197.473 18.1646C198.248 17.5621 199.109 17.2178 200.4 17.2178C201.433 17.2178 202.466 17.476 203.24 18.1646C204.359 19.1114 204.446 20.5747 204.446 22.4684H197.732C197.818 24.6203 198.765 25.6532 200.572 25.6532C201.691 25.6532 202.81 25.395 204.101 25.1368V26.4279C202.896 26.6001 201.519 26.9444 200.228 26.9444ZM200.314 18.3368C198.506 18.3368 197.904 19.4557 197.818 21.2633H202.81C202.724 19.2836 202.122 18.3368 200.314 18.3368Z" fill="white"/>
<path d="M210.127 26.9445C209.18 26.9445 208.147 26.6863 207.458 25.9116C206.597 24.9647 206.253 23.6736 206.253 22.0382C206.253 20.4888 206.684 18.8534 207.889 17.9926C208.749 17.304 209.868 17.1318 210.987 17.1318C211.676 17.1318 212.365 17.2179 213.225 17.304V18.6812C212.537 18.5951 211.848 18.5091 211.16 18.5091C208.922 18.5091 208.061 19.628 208.061 22.0382C208.061 24.1901 208.922 25.5673 210.729 25.5673C211.504 25.5673 212.537 25.3091 213.397 25.0508V26.428C212.278 26.6863 211.16 26.9445 210.127 26.9445Z" fill="white"/>
<path d="M81.6152 41.7495V46.7419H79.4633V34.1748H87.6405V35.8963H81.6152V40.028H86.8658V41.7495H81.6152Z" fill="white"/>
<path d="M90.3949 46.7419V37.4457H92.1164L92.2025 38.0483C93.4936 37.5318 94.3544 37.1875 95.5595 37.1875H95.8177V38.9951H95.2151C94.3544 38.9951 93.5797 39.1672 92.3746 39.5976V46.828H90.3949V46.7419Z" fill="white"/>
<path d="M103.478 46.7418V46.2253C102.273 46.6557 101.24 47 100.035 47C99.2607 47 98.486 46.8279 97.8835 46.2253C97.2809 45.7089 97.0227 45.0203 97.0227 44.0734C97.0227 43.0405 97.367 42.0937 98.3999 41.5772C99.0885 41.2329 99.8632 41.1469 100.81 41.1469C101.499 41.1469 102.445 41.1469 103.22 41.319V40.9747C103.22 39.3393 102.618 38.8228 100.552 38.8228C99.7771 38.8228 98.9164 38.9089 98.1417 38.995V37.4456C99.0025 37.3595 100.035 37.2734 100.896 37.2734C102.187 37.2734 103.478 37.4456 104.339 38.1342C105.2 38.9089 105.286 39.9418 105.286 41.2329V46.8279H103.478V46.7418ZM103.22 42.6101C102.532 42.5241 101.671 42.5241 101.068 42.5241C99.5189 42.5241 99.0025 43.0405 99.0025 43.9874C99.0025 44.8481 99.605 45.5367 100.724 45.5367C101.499 45.5367 102.359 45.2785 103.22 45.0203V42.6101Z" fill="white"/>
<path d="M115.443 46.7419V40.8888C115.443 39.3394 114.668 38.8229 113.377 38.8229C112.689 38.8229 111.828 38.9951 110.881 39.4255V46.7419H108.901V37.4457H110.623L110.709 37.9622C111.914 37.6179 113.033 37.1875 114.152 37.1875C115.185 37.1875 116.132 37.4457 116.82 38.2204C117.423 38.909 117.595 39.7698 117.595 40.8888V46.7419H115.443Z" fill="white"/>
<path d="M124.137 47C123.19 47 122.157 46.7418 121.382 45.9671C120.522 45.1063 120.177 43.7291 120.177 42.1798C120.177 40.6304 120.608 39.081 121.813 38.1342C122.673 37.4456 123.792 37.2734 124.997 37.2734C125.686 37.2734 126.461 37.3595 127.322 37.4456V39.081C126.719 38.995 125.944 38.995 125.256 38.995C123.19 38.995 122.329 40.0279 122.329 42.2658C122.329 44.2456 123.104 45.5367 124.825 45.5367C125.6 45.5367 126.633 45.2785 127.494 45.0203V46.5696C126.289 46.7418 125.17 47 124.137 47Z" fill="white"/>
<path d="M133.261 47.0002C132.228 47.0002 131.109 46.7419 130.248 45.9672C129.387 45.1065 129.043 43.7293 129.043 42.0938C129.043 40.5445 129.387 39.0812 130.42 38.1343C131.195 37.4457 132.142 37.1875 133.433 37.1875C134.466 37.1875 135.585 37.4457 136.359 38.1343C137.478 39.1672 137.651 40.5445 137.651 42.5242H131.109C131.109 44.504 132.056 45.4508 133.777 45.4508C134.896 45.4508 136.101 45.1926 137.306 44.9343V46.4837C136.101 46.6559 134.638 47.0002 133.261 47.0002ZM133.433 38.5647C131.797 38.5647 131.281 39.5976 131.195 41.2331H135.757C135.671 39.4255 135.068 38.5647 133.433 38.5647Z" fill="white"/>
<path d="M145.139 47.0005C143.848 47.0005 142.471 46.6562 141.524 45.6233C140.319 44.4183 139.889 42.6107 139.889 40.4588C139.889 38.3929 140.491 36.3271 142.04 35.036C143.246 34.0891 144.709 33.917 146.258 33.917C147.205 33.917 148.152 34.0031 149.185 34.0891V35.8967C148.324 35.8107 147.291 35.7246 146.43 35.7246C143.159 35.7246 142.04 37.5322 142.04 40.4588C142.04 43.2993 143.246 45.1069 145.742 45.1069C146.861 45.1069 148.238 44.7626 149.357 44.4183V46.2259C147.98 46.6562 146.516 47.0005 145.139 47.0005Z" fill="white"/>
<path d="M152.972 46.0533C152.025 45.2786 151.595 43.9014 151.595 42.0938C151.595 40.2862 152.025 38.9951 152.972 38.1343C153.833 37.3597 154.952 37.1875 156.243 37.1875C157.448 37.1875 158.567 37.4457 159.514 38.1343C160.461 38.909 160.891 40.2862 160.891 42.0078C160.891 43.8153 160.461 45.1065 159.514 45.9672C158.653 46.7419 157.448 46.9141 156.243 46.9141C155.038 47.0002 153.833 46.7419 152.972 46.0533ZM158.825 42.0938C158.825 39.8559 158.051 38.7369 156.243 38.7369C154.349 38.7369 153.661 39.7698 153.661 42.0078C153.661 44.2457 154.435 45.4508 156.243 45.4508C158.137 45.4508 158.825 44.4179 158.825 42.0938Z" fill="white"/>
<path d="M170.36 46.7419V40.8888C170.36 39.3394 169.585 38.8229 168.294 38.8229C167.605 38.8229 166.744 38.9951 165.798 39.4255V46.7419H163.818V37.4457H165.539L165.625 37.9622C166.83 37.6179 167.949 37.1875 169.068 37.1875C170.101 37.1875 171.048 37.4457 171.737 38.2204C172.339 38.909 172.511 39.7698 172.511 40.8888V46.7419H170.36Z" fill="white"/>
<path d="M182.582 46.7419V40.8888C182.582 39.3394 181.808 38.8229 180.516 38.8229C179.828 38.8229 178.967 38.9951 178.02 39.4255V46.7419H176.041V37.4457H177.762L177.848 37.9622C179.053 37.6179 180.172 37.1875 181.291 37.1875C182.324 37.1875 183.271 37.4457 183.96 38.2204C184.562 38.909 184.734 39.7698 184.734 40.8888V46.7419H182.582Z" fill="white"/>
<path d="M191.448 47.0002C190.415 47.0002 189.296 46.7419 188.435 45.9672C187.575 45.1065 187.23 43.7293 187.23 42.0938C187.23 40.5445 187.575 39.0812 188.608 38.1343C189.382 37.4457 190.329 37.1875 191.62 37.1875C192.653 37.1875 193.772 37.4457 194.547 38.1343C195.666 39.1672 195.838 40.5445 195.838 42.5242H189.296C189.296 44.504 190.243 45.4508 191.965 45.4508C193.084 45.4508 194.289 45.1926 195.494 44.9343V46.4837C194.289 46.6559 192.825 47.0002 191.448 47.0002ZM191.62 38.5647C189.985 38.5647 189.468 39.5976 189.382 41.2331H193.944C193.772 39.4255 193.17 38.5647 191.62 38.5647Z" fill="white"/>
<path d="M202.035 47C201.089 47 200.056 46.7418 199.281 45.9671C198.42 45.1063 198.076 43.7291 198.076 42.1798C198.076 40.6304 198.506 39.081 199.711 38.1342C200.572 37.4456 201.691 37.2734 202.896 37.2734C203.585 37.2734 204.359 37.3595 205.22 37.4456V39.081C204.618 38.995 203.843 38.995 203.154 38.995C201.089 38.995 200.228 40.0279 200.228 42.2658C200.228 44.2456 201.003 45.5367 202.724 45.5367C203.499 45.5367 204.532 45.2785 205.392 45.0203V46.5696C204.273 46.7418 203.068 47 202.035 47Z" fill="white"/>
<path d="M211.246 47.0004C210.213 47.0004 209.266 46.6561 208.749 45.5371C208.405 44.8485 208.319 43.9877 208.319 42.9548V38.9953H206.856V37.446H208.319L208.577 34.6055H210.385V37.446H213.053V38.9953H210.385V42.6105C210.385 43.2991 210.385 43.9017 210.557 44.3321C210.729 45.0207 211.16 45.2789 211.934 45.2789C212.365 45.2789 212.881 45.1928 213.311 45.1067V46.6561C212.537 46.8283 211.848 47.0004 211.246 47.0004Z" fill="white"/>
<path d="M15 17.1863V44.1477L38.9603 57.667L63 44.1477V17.1863L38.9603 3.66699L15 17.1863Z" fill="white"/>
<path d="M51.7217 30.6256L44.8652 18.7762L39 8.66699V22.505V52.667L58 41.6463L51.7217 30.6256Z" fill="#034EA2"/>
<path d="M44.8652 18.7954L51.7218 30.6671L58 19.7086L50.3174 15.2256L44.8652 18.7954Z" fill="#0069CC"/>
<path d="M50.3174 15.2255L39 8.66699L44.8652 18.7953L50.3174 15.2255Z" fill="#ED1C24"/>
<path d="M44.8652 18.7953L39 8.66699L44.8652 18.7953Z" fill="#0069CC"/>
<path d="M57.9999 41.709V19.709L51.7217 30.6675L57.9999 41.709Z" fill="#ED1C24"/>
<path d="M26.3609 30.6256L33.2174 18.7762L39 8.66699V22.505V52.667L20 41.6463L26.3609 30.6256Z" fill="#0069CC"/>
<path d="M33.2174 18.7954L26.3609 30.6671L20 19.7086L27.6826 15.2256L33.2174 18.7954Z" fill="#ED1C24"/>
<path d="M27.6826 15.2255L39 8.66699L33.2174 18.7953L27.6826 15.2255Z" fill="#034EA2"/>
<path d="M20 41.709V19.709L26.3609 30.6675L20 41.709Z" fill="#034EA2"/>
<path d="M44.2461 32.8772C44.5846 32.8772 44.923 32.7922 45.2615 32.8772C45.5153 32.9622 45.8538 32.9622 45.8538 33.0472C45.7692 33.5572 45.0076 33.6422 44.6692 34.1522C44.5846 34.1522 44.5846 34.1522 44.4999 34.1522C44.3307 34.2372 44.4153 34.5772 44.2461 34.5772C44.0769 34.4922 43.9076 34.5772 43.6538 34.6622C43.9076 34.9172 44.2461 35.0872 44.5846 35.0022C44.6692 35.0022 44.7538 35.0872 44.7538 35.2572C44.7538 35.2572 44.8384 35.2572 44.8384 35.1722C44.923 35.1722 44.923 35.1722 44.923 35.2572C44.923 35.3422 44.923 35.4272 44.923 35.5122C44.7538 35.7672 44.4153 35.6822 44.1615 35.6822C44.6692 35.7672 45.1769 35.7672 45.5999 35.6822C45.9384 35.5122 45.5999 34.9172 45.8538 34.6622C45.7692 34.6622 45.8538 34.4922 45.6846 34.4922C45.7692 34.4072 45.9384 34.1522 46.023 34.1522C46.1076 34.1522 46.3615 34.0672 46.3615 33.9822C46.3615 33.8972 46.1076 33.8122 46.1923 33.6422C46.5307 33.3872 46.8692 33.0472 46.6999 32.6222C46.6153 32.4522 46.1076 32.4522 45.8538 32.3672C45.5153 32.2822 45.1769 32.3672 44.8384 32.4522C44.4999 32.4522 44.2461 32.6222 43.9076 32.7072C43.4846 32.8772 43.1461 33.1322 42.723 33.3872C43.3153 33.1322 43.7384 33.0472 44.2461 32.8772Z" fill="#034EA2"/>
<path d="M50.2322 36.4367C50.0616 36.1004 49.8058 35.8481 49.55 35.5117C49.2942 35.0912 48.9531 34.7548 48.8678 34.2503C48.6973 33.7457 48.8678 33.3252 48.8678 32.8207C48.8678 31.8956 48.612 30.9706 48.3562 30.1296C48.1857 29.7092 48.1004 29.2046 47.9299 28.7841C47.8446 28.5318 47.7593 28.2796 47.5888 28.0273C47.5035 27.9432 47.5035 27.6909 47.5888 27.6068C47.8446 27.4386 48.1004 27.1863 48.271 27.0181C48.4415 26.6818 48.271 26.2613 48.0151 26.0931C47.5888 25.9249 47.6741 26.5136 47.333 26.6818C47.2477 26.6818 47.2477 26.6818 47.1624 26.6818C47.0772 26.5136 47.2477 26.4295 47.333 26.3454C47.333 26.2613 47.333 26.1772 47.2477 26.1772C46.9919 26.1772 46.7361 26.0931 46.6508 26.009C45.9687 25.1681 45.116 24.7476 44.178 24.4112C44.4338 24.4953 44.6896 24.4953 44.9454 24.4953C45.3718 24.5794 45.8834 24.4953 46.2245 24.3271C46.5655 24.1589 46.5655 23.7384 46.6508 23.4021C46.7361 23.318 46.6508 23.2339 46.6508 23.0657C46.6508 22.8975 46.4803 22.7293 46.395 22.5611C46.395 22.5611 46.3097 22.477 46.2245 22.3088C45.5423 21.552 42.8989 19.3655 37.9532 19.7019C35.8215 19.8701 33.1781 20.4588 30.1084 21.9725C30.0231 21.9725 29.9378 22.0566 29.7673 22.0566C29.2557 22.3088 28.5735 22.7293 28.1472 23.2339C27.6355 23.8225 27.2092 24.4953 27.0387 25.2521C26.2712 25.7567 25.7596 26.5136 25.3332 27.2704C24.8216 28.2796 24.1395 29.1205 24.1395 30.2137C24.1395 30.2978 24.1395 30.3819 24.1395 30.3819C24.2247 30.7183 24.2247 30.9706 24.31 31.307C24.4805 31.9797 24.6511 32.6525 24.7364 33.3252C24.8216 33.6616 24.9069 33.998 24.9922 34.3344C25.1627 34.6707 24.9922 35.0912 25.248 35.4276C25.3332 35.5958 25.3332 35.8481 25.5891 35.9322C25.5891 36.0163 25.5891 36.1004 25.5891 36.1844C25.6743 36.2685 25.6743 36.2685 25.7596 36.2685C25.7596 36.3526 25.7596 36.4367 25.7596 36.5208C26.2712 37.1095 26.8681 37.6141 27.2092 38.2868C27.3797 38.6232 26.6123 38.455 26.2712 38.3709C25.6743 38.1186 25.248 37.6141 24.7364 37.1936L24.6511 37.2777C24.9069 37.6982 25.8449 38.2027 25.3332 38.5391C25.0774 38.7073 24.7364 38.3709 24.5658 38.6232C24.4805 38.7073 24.5658 38.8755 24.5658 38.9596C24.2247 38.7073 23.7984 38.8755 23.4573 38.7073C23.2015 38.6232 23.1162 38.2027 22.8604 38.2027C22.093 38.0345 21.3255 37.8663 20.4728 37.8663C20.3876 37.8663 20.3023 37.8663 20.3023 37.8663C19.5349 37.7822 18.7674 37.6982 18.0853 37.7822V38.6232C18.7674 38.455 19.4496 38.2868 20.1318 38.2868C20.217 38.2868 20.3023 38.2868 20.3023 38.2868C20.4728 38.2868 20.7286 38.2027 20.8992 38.2868C20.6434 38.2868 20.3023 38.2868 20.0465 38.3709C19.3643 38.455 18.6822 38.7073 18 38.9596V39.8005C18.3411 39.8846 18.7674 39.8846 19.1085 39.9687C19.5349 40.0528 19.9612 40.1369 20.3876 40.3051C20.9845 40.4733 21.4108 40.7256 21.9224 40.9778C22.1782 41.146 22.2635 41.3142 22.5193 41.4824C22.8604 41.6506 23.2868 41.6506 23.5426 41.4824C23.6278 41.4824 23.7984 41.4824 23.8837 41.4824C24.8216 41.2301 25.7596 40.9778 26.3565 40.221C26.3565 40.3051 26.4418 40.3051 26.4418 40.3051C26.2712 40.8097 26.2712 41.3142 25.9301 41.8188C25.9301 41.9029 25.8449 41.987 26.0154 42.0711C26.1007 42.0711 26.1007 42.0711 26.1007 42.0711C26.0154 42.0711 26.0154 42.0711 26.0154 42.1552C26.0154 42.2393 26.1859 42.1552 26.2712 42.2393C25.9301 42.3234 25.6743 42.4074 25.5038 42.6597C25.5038 42.7438 25.5891 42.7438 25.6743 42.7438C25.5891 42.8279 25.3332 42.8279 25.3332 42.912L25.4185 42.9961C25.3332 42.9961 25.3332 42.9961 25.3332 43.0802C25.3332 43.1643 25.3332 43.1643 25.3332 43.2484C25.1627 43.2484 25.0774 43.4166 24.9922 43.4166C25.248 43.5848 25.4185 43.4166 25.6743 43.4166C24.9922 43.6689 24.4805 44.0893 23.7984 44.2575C23.7131 44.2575 23.7984 44.4257 23.7131 44.4257C23.8837 44.5098 24.0542 44.3416 24.2247 44.3416C23.8837 44.5939 23.5426 44.7621 23.2015 44.9303L25.248 46.1076C26.1007 45.603 26.8681 45.0144 27.5503 44.2575L27.6355 44.3416C27.465 44.9303 27.1239 45.3508 26.6123 45.7712C26.2712 45.9394 26.0154 46.2758 25.7596 46.3599L27.2945 47.2008C27.6355 46.9486 27.8914 46.7804 28.3177 46.6122C28.403 46.6122 28.4882 46.6963 28.6588 46.6963C29.1704 46.1917 29.7673 45.603 30.62 45.7712C30.62 45.8553 30.62 45.8553 30.7053 45.8553C30.7053 45.8553 30.7905 45.8553 30.7905 45.7712C30.7905 45.8553 30.7905 45.8553 30.7053 45.8553C30.4495 46.0235 30.2789 46.1917 30.0231 46.3599C29.9378 46.444 30.0231 46.444 30.1084 46.444C30.4495 46.2758 30.62 46.1076 30.8758 45.9394C30.7905 46.0235 30.7905 46.1076 30.7905 46.1917C30.0231 46.7804 29.4262 47.369 28.8293 48.0418L36.93 52.667C37.1858 52.3306 37.5269 51.826 37.868 51.4056C39.4028 49.2191 41.6199 46.2758 42.302 45.603C42.5578 45.4349 42.8137 45.4349 43.1547 45.3508C44.178 45.3508 45.2865 45.603 46.3097 45.6871C46.395 45.6871 46.5655 45.7712 46.6508 45.7712C46.9919 45.8553 47.4183 45.7712 47.8446 45.6871C48.271 45.5189 48.7826 45.2667 48.9531 44.7621C49.1237 44.3416 49.2089 43.8371 48.9531 43.4166C48.5268 42.912 49.2942 42.6597 49.55 42.3234C49.7205 41.987 49.3795 41.8188 49.3795 41.5665C49.2942 41.4824 49.0384 41.4824 48.9531 41.3142C49.3795 41.146 50.0616 40.7256 49.7205 40.221C49.55 39.8846 49.2089 39.4641 49.55 39.1278C49.9764 38.8755 50.6585 38.8755 50.8291 38.455C51.3407 37.6141 50.5732 37.0254 50.2322 36.4367ZM47.5888 33.4093C47.5035 33.4934 47.7593 33.5775 47.7593 33.7457C47.6741 33.8298 47.5035 33.9139 47.4183 33.9139C47.333 33.998 47.1624 34.1662 47.0772 34.2503C47.1624 34.2503 47.0772 34.4185 47.2477 34.4185C46.9919 34.7548 47.4183 35.3435 46.9919 35.4276C46.5655 35.5958 46.0539 35.5958 45.5423 35.4276C45.7981 35.3435 46.1392 35.5117 46.3097 35.2594C46.3097 35.1753 46.3097 35.0912 46.3097 35.0071C46.3097 34.923 46.2245 34.923 46.2245 34.923C46.1392 35.0071 46.1392 35.0071 46.1392 35.0071C46.1392 34.923 45.9687 34.7548 45.9687 34.7548C45.6276 34.8389 45.2865 34.6707 45.0307 34.4185C45.2012 34.3344 45.3718 34.2503 45.6276 34.3344C45.7981 34.3344 45.7128 33.998 45.8834 33.9139C45.9687 33.9139 45.9687 33.9139 46.0539 33.9139C46.395 33.4093 47.1624 33.2411 47.2477 32.8207C47.2477 32.7366 46.9066 32.7366 46.6508 32.6525C46.3097 32.5684 45.9687 32.6525 45.6276 32.6525C45.116 32.8207 44.6896 32.8207 44.2633 33.0729C44.6043 32.8207 45.0307 32.5684 45.457 32.4002C45.7981 32.3161 46.0539 32.1479 46.395 32.1479C46.7361 32.0638 47.1624 31.9797 47.4183 32.0638C47.7593 32.1479 48.1857 32.1479 48.271 32.3161C48.1857 32.8207 47.9299 33.157 47.5888 33.4093Z" fill="white"/>
</svg>
