<svg width="347" height="57" viewBox="0 0 347 57" fill="none" xmlns="http://www.w3.org/2000/svg">
<path d="M1.15625 28.3169C1.15625 13.1291 13.4684 0.816895 28.6563 0.816895H318.276C333.463 0.816895 345.776 13.1291 345.776 28.3169C345.776 43.5047 333.463 55.8169 318.276 55.8169H28.6563C13.4684 55.8169 1.15625 43.5047 1.15625 28.3169Z" stroke="#273077"/>
<path d="M54.2749 33.3321C54.2749 34.4422 53.3643 35.3421 52.241 35.3421C51.1176 35.3421 50.207 34.4422 50.207 33.3321C50.207 32.222 51.1176 31.3221 52.241 31.3221C53.3643 31.3221 54.2749 32.222 54.2749 33.3321Z" fill="#273077"/>
<path d="M40.8648 25.8251C40.8648 26.9352 39.9542 27.8351 38.8308 27.8351C37.7075 27.8351 36.7969 26.9352 36.7969 25.8251C36.7969 24.715 37.7075 23.8152 38.8308 23.8152C39.9542 23.8152 40.8648 24.7149 40.8648 25.8251Z" fill="#F29FC5"/>
<path d="M50.4273 31.132C50.4273 32.2421 49.5167 33.142 48.3933 33.142C47.27 33.142 46.3594 32.2421 46.3594 31.132C46.3594 30.0219 47.27 29.1221 48.3933 29.1221C49.5167 29.1221 50.4273 30.0219 50.4273 31.132Z" fill="#008ECF"/>
<path d="M45.5054 33.5634C45.5054 34.6735 44.5948 35.5734 43.4714 35.5734C42.3481 35.5734 41.4375 34.6735 41.4375 33.5634C41.4375 32.4533 42.3481 31.5535 43.4714 31.5535C44.5948 31.5535 45.5054 32.4533 45.5054 33.5634Z" fill="#F29FC5"/>
<path d="M45.5045 38.3063C45.5045 39.4166 44.5937 40.3169 43.4699 40.3169C42.3464 40.3169 41.4355 39.4166 41.4355 38.3063C41.4355 37.196 42.3464 36.2957 43.4699 36.2957C44.5937 36.2957 45.5045 37.196 45.5045 38.3063Z" fill="#273077"/>
<path d="M54.2749 23.3238C54.2749 24.4339 53.3643 25.3338 52.241 25.3338C51.1176 25.3338 50.207 24.4339 50.207 23.3238C50.207 22.2137 51.1176 21.3138 52.241 21.3138C53.3643 21.3138 54.2749 22.2137 54.2749 23.3238Z" fill="#273077"/>
<path d="M50.4273 25.8251C50.4273 26.9352 49.5167 27.8351 48.3933 27.8351C47.27 27.8351 46.3594 26.9352 46.3594 25.8251C46.3594 24.715 47.27 23.8152 48.3933 23.8152C49.5167 23.8151 50.4273 24.7149 50.4273 25.8251Z" fill="#273077"/>
<path d="M40.564 31.3122C40.564 32.4223 39.6534 33.3222 38.53 33.3222C37.4067 33.3222 36.4961 32.4223 36.4961 31.3122C36.4961 30.2021 37.4067 29.3022 38.53 29.3022C39.6534 29.3022 40.564 30.2021 40.564 31.3122Z" fill="#273077"/>
<path d="M36.6845 22.8888C36.9276 23.9722 36.2361 25.0451 35.1398 25.2853C34.0435 25.5255 32.9578 24.8422 32.7147 23.7588C32.4716 22.6756 33.1631 21.6025 34.2594 21.3623C35.3556 21.1221 36.4415 21.8053 36.6845 22.8888Z" fill="#273077"/>
<path d="M36.4855 27.2368C36.3951 27.8625 35.8088 28.297 35.1757 28.2077C34.5429 28.1184 34.1029 27.539 34.1934 26.9134C34.2838 26.288 34.8701 25.8533 35.5029 25.9425C36.136 26.032 36.5757 26.6112 36.4855 27.2368Z" fill="#E1000F"/>
<path d="M48.1532 35.5179C48.0494 36.2366 47.3756 36.7362 46.6484 36.6336C45.9209 36.5309 45.4156 35.8651 45.5194 35.1463C45.6233 34.4276 46.297 33.9282 47.0242 34.0308C47.7517 34.1334 48.257 34.7993 48.1532 35.5179Z" fill="#E1000F"/>
<path d="M52.0978 27.1873C52.0352 27.6209 51.6284 27.9226 51.1896 27.8605C50.7506 27.7986 50.4455 27.3969 50.5081 26.963C50.571 26.5294 50.9775 26.2278 51.4165 26.2898C51.8553 26.3516 52.1604 26.7536 52.0978 27.1873Z" fill="#E1000F"/>
<path d="M44.1749 23.4529C44.0846 24.0785 43.4982 24.513 42.8652 24.4238C42.2324 24.3344 41.7924 23.7551 41.8829 23.1295C41.9732 22.5041 42.5596 22.0693 43.1924 22.1586C43.8254 22.2479 44.2651 22.8272 44.1749 23.4529Z" fill="#E1000F"/>
<path d="M47.505 21.9685C47.4147 22.5942 46.8283 23.0287 46.1953 22.9394C45.5625 22.8501 45.1224 22.2707 45.213 21.6451C45.3033 21.0197 45.8897 20.585 46.5225 20.6742C47.1555 20.7637 47.5952 21.3429 47.505 21.9685Z" fill="#F29FC5"/>
<path d="M39.9776 34.5512C39.8873 35.1769 39.301 35.6114 38.6679 35.5222C38.0351 35.4328 37.5951 34.8535 37.6856 34.2279C37.7759 33.6024 38.3623 33.1677 38.9951 33.257C39.6282 33.3463 40.0678 33.9257 39.9776 34.5512Z" fill="#FFE000"/>
<path d="M51.3624 29.4056C51.2721 30.0313 50.6857 30.4658 50.0527 30.3765C49.4199 30.2872 48.9799 29.7078 49.0704 29.0823C49.1607 28.4568 49.7471 28.0221 50.3799 28.1113C51.0129 28.2008 51.4527 28.7803 51.3624 29.4056Z" fill="#FFE000"/>
<path d="M50.0373 34.7215C50.3785 35.2557 50.217 35.9623 49.6763 36.2996C49.1355 36.637 48.4207 36.4771 48.0792 35.9429C47.738 35.4086 47.8996 34.702 48.4404 34.3649C48.981 34.0274 49.6962 34.1873 50.0373 34.7215Z" fill="#273077"/>
<path d="M41.1944 21.2897C41.1041 21.9151 40.5178 22.3498 39.8847 22.2606C39.2519 22.1712 38.8119 21.5916 38.9024 20.9663C38.9927 20.3408 39.5791 19.9061 40.2119 19.9954C40.845 20.0847 41.2846 20.6641 41.1944 21.2897Z" fill="#FFE000"/>
<path d="M45.6059 18.4257C45.6059 19.5904 44.6504 20.5346 43.4719 20.5346C42.2934 20.5346 41.3379 19.5904 41.3379 18.4257C41.3379 17.2611 42.2934 16.3169 43.4719 16.3169C44.6503 16.3169 45.6059 17.2611 45.6059 18.4257Z" fill="#008ECF"/>
<path d="M36.7241 33.3222C36.7241 34.4323 35.8135 35.3322 34.6902 35.3322C33.5668 35.3322 32.6562 34.4323 32.6562 33.3222C32.6562 32.2121 33.5668 31.3123 34.6902 31.3123C35.8135 31.3123 36.7241 32.2121 36.7241 33.3222Z" fill="#008ECF"/>
<path d="M46.745 27.9086C46.745 29.8468 45.155 31.418 43.1937 31.418C41.2325 31.418 39.6426 29.8468 39.6426 27.9086C39.6426 25.9704 41.2325 24.3992 43.1937 24.3992C45.1551 24.3993 46.745 25.9704 46.745 27.9086Z" fill="#008ECF"/>
<path d="M63.2863 33.7649L64.6303 32.5329C65.3663 33.4609 66.2623 33.9889 67.2383 33.9889C68.3423 33.9889 68.9823 33.3649 68.9823 32.4209C68.9823 30.1009 63.7663 30.6609 63.7663 26.9169C63.7663 25.2049 65.1903 23.7969 67.2223 23.7969C68.8383 23.7969 70.0383 24.5329 70.9343 25.6529L69.5743 26.8689C68.9183 25.9569 68.1503 25.4289 67.2383 25.4289C66.2623 25.4289 65.6383 26.0209 65.6383 26.8689C65.6383 29.1729 70.8543 28.5969 70.8543 32.3729C70.8223 34.3729 69.2703 35.6369 67.2703 35.6369C65.5103 35.6369 64.2783 34.9649 63.2863 33.7649ZM80.4541 34.0049C79.7021 35.0129 78.4701 35.6369 76.9661 35.6369C74.1821 35.6369 72.5341 33.6369 72.5341 31.2849C72.5341 28.8689 74.0701 26.9329 76.6301 26.9329C78.8541 26.9329 80.2941 28.4529 80.2941 30.5009C80.2941 30.8689 80.2461 31.2369 80.1821 31.4769H74.2301C74.3421 33.2369 75.4141 34.1489 76.9661 34.1489C77.9421 34.1489 78.7581 33.7169 79.2541 33.0449L80.4541 34.0049ZM76.5981 28.3089C75.3981 28.3089 74.5661 28.9969 74.3101 30.2449H78.6461C78.6141 29.2369 77.8941 28.3089 76.5981 28.3089ZM90.5438 34.0849C91.4558 34.0849 92.1918 33.6369 92.6398 33.0129L93.9358 34.0049C93.1998 34.9969 92.0158 35.6369 90.5278 35.6369C87.8238 35.6369 86.1278 33.6369 86.1278 31.2849C86.1278 28.9329 87.8238 26.9329 90.5278 26.9329C91.9998 26.9329 93.1998 27.5729 93.9358 28.5649L92.6398 29.5569C92.1918 28.9329 91.4558 28.4849 90.5278 28.4849C88.9758 28.4849 87.8558 29.7009 87.8558 31.2849C87.8558 32.8849 88.9758 34.0849 90.5438 34.0849ZM99.09 26.9329C101.714 26.9329 103.474 28.9009 103.474 31.2849C103.474 33.6689 101.714 35.6369 99.09 35.6369C96.482 35.6369 94.706 33.6689 94.706 31.2849C94.706 28.9009 96.482 26.9329 99.09 26.9329ZM99.106 34.0849C100.626 34.0849 101.746 32.8209 101.746 31.2849C101.746 29.7169 100.626 28.4849 99.106 28.4849C97.554 28.4849 96.434 29.7329 96.434 31.2849C96.434 32.8369 97.554 34.0849 99.106 34.0849ZM105.533 35.3169V27.2529H107.181V28.0369C107.789 27.3969 108.589 26.9329 109.741 26.9329C111.517 26.9329 112.877 28.1329 112.877 30.4689V35.3169H111.213V30.5329C111.213 29.2529 110.509 28.4849 109.357 28.4849C108.253 28.4849 107.597 29.1729 107.181 29.8769V35.3169H105.533ZM115.44 35.3169V27.2529H117.088V28.0369C117.696 27.3969 118.496 26.9329 119.648 26.9329C121.424 26.9329 122.784 28.1329 122.784 30.4689V35.3169H121.12V30.5329C121.12 29.2529 120.416 28.4849 119.264 28.4849C118.16 28.4849 117.504 29.1729 117.088 29.8769V35.3169H115.44ZM132.626 34.0049C131.874 35.0129 130.642 35.6369 129.138 35.6369C126.354 35.6369 124.706 33.6369 124.706 31.2849C124.706 28.8689 126.242 26.9329 128.802 26.9329C131.026 26.9329 132.466 28.4529 132.466 30.5009C132.466 30.8689 132.418 31.2369 132.354 31.4769H126.402C126.514 33.2369 127.586 34.1489 129.138 34.1489C130.114 34.1489 130.93 33.7169 131.426 33.0449L132.626 34.0049ZM128.77 28.3089C127.57 28.3089 126.738 28.9969 126.482 30.2449H130.818C130.786 29.2369 130.066 28.3089 128.77 28.3089ZM138.356 34.0849C139.268 34.0849 140.004 33.6369 140.452 33.0129L141.748 34.0049C141.012 34.9969 139.828 35.6369 138.34 35.6369C135.636 35.6369 133.94 33.6369 133.94 31.2849C133.94 28.9329 135.636 26.9329 138.34 26.9329C139.812 26.9329 141.012 27.5729 141.748 28.5649L140.452 29.5569C140.004 28.9329 139.268 28.4849 138.34 28.4849C136.788 28.4849 135.668 29.7009 135.668 31.2849C135.668 32.8849 136.788 34.0849 138.356 34.0849ZM143.967 32.5169V28.7409H142.447V27.2529H143.967V25.2369H145.631V27.2529H148.303V28.7409H145.631V32.5169C145.631 33.6049 146.207 33.9569 147.103 33.9569C147.647 33.9569 148.015 33.8929 148.303 33.7809V35.2369C147.919 35.3969 147.471 35.4769 146.847 35.4769C144.959 35.4769 143.967 34.4849 143.967 32.5169ZM157.392 34.0049C156.64 35.0129 155.408 35.6369 153.904 35.6369C151.12 35.6369 149.472 33.6369 149.472 31.2849C149.472 28.8689 151.008 26.9329 153.568 26.9329C155.792 26.9329 157.232 28.4529 157.232 30.5009C157.232 30.8689 157.184 31.2369 157.12 31.4769H151.168C151.28 33.2369 152.352 34.1489 153.904 34.1489C154.88 34.1489 155.696 33.7169 156.192 33.0449L157.392 34.0049ZM153.536 28.3089C152.336 28.3089 151.504 28.9969 151.248 30.2449H155.584C155.552 29.2369 154.832 28.3089 153.536 28.3089ZM159.393 35.3169V27.2529H161.041V28.1649C161.601 27.5409 162.305 27.0929 163.297 27.0929C163.553 27.0929 163.793 27.1409 164.001 27.2049V28.8209C163.745 28.7569 163.489 28.7089 163.153 28.7089C162.129 28.7089 161.457 29.2529 161.041 29.9409V35.3169H159.393ZM172.351 35.5569C170.751 35.5569 169.663 34.6449 169.663 33.2209C169.663 32.0049 170.607 31.1249 172.319 30.8369L174.927 30.4049V29.9889C174.927 28.9969 174.191 28.3889 173.151 28.3889C172.271 28.3889 171.583 28.7889 171.119 29.4449L169.887 28.5009C170.607 27.5409 171.759 26.9329 173.199 26.9329C175.375 26.9329 176.575 28.2129 176.575 29.9889V35.3169H174.927V34.4049C174.351 35.1089 173.343 35.5569 172.351 35.5569ZM171.327 33.1569C171.327 33.7809 171.823 34.2129 172.655 34.2129C173.663 34.2129 174.447 33.7329 174.927 32.9649V31.5729L172.751 31.9409C171.743 32.1169 171.327 32.5489 171.327 33.1569ZM177.896 27.2529H179.672L182.04 33.5249L184.392 27.2529H186.184L183.128 35.3169H180.936L177.896 27.2529ZM194.845 34.0049C194.093 35.0129 192.861 35.6369 191.357 35.6369C188.573 35.6369 186.925 33.6369 186.925 31.2849C186.925 28.8689 188.461 26.9329 191.021 26.9329C193.245 26.9329 194.685 28.4529 194.685 30.5009C194.685 30.8689 194.637 31.2369 194.573 31.4769H188.621C188.733 33.2369 189.805 34.1489 191.357 34.1489C192.333 34.1489 193.149 33.7169 193.645 33.0449L194.845 34.0049ZM190.989 28.3089C189.789 28.3089 188.957 28.9969 188.701 30.2449H193.037C193.005 29.2369 192.285 28.3089 190.989 28.3089ZM200.575 34.0849C201.487 34.0849 202.223 33.6369 202.671 33.0129L203.967 34.0049C203.231 34.9969 202.047 35.6369 200.559 35.6369C197.855 35.6369 196.159 33.6369 196.159 31.2849C196.159 28.9329 197.855 26.9329 200.559 26.9329C202.031 26.9329 203.231 27.5729 203.967 28.5649L202.671 29.5569C202.223 28.9329 201.487 28.4849 200.559 28.4849C199.007 28.4849 197.887 29.7009 197.887 31.2849C197.887 32.8849 199.007 34.0849 200.575 34.0849ZM210.386 35.3169V24.1169H216.626V25.6689H212.21V28.8369H215.986V30.3889H212.21V35.3169H210.386ZM218.096 35.3169V27.2529H219.744V28.1649C220.304 27.5409 221.008 27.0929 222 27.0929C222.256 27.0929 222.496 27.1409 222.704 27.2049V28.8209C222.448 28.7569 222.192 28.7089 221.856 28.7089C220.832 28.7089 220.16 29.2529 219.744 29.9409V35.3169H218.096ZM226.367 35.5569C224.767 35.5569 223.679 34.6449 223.679 33.2209C223.679 32.0049 224.623 31.1249 226.335 30.8369L228.943 30.4049V29.9889C228.943 28.9969 228.207 28.3889 227.167 28.3889C226.287 28.3889 225.599 28.7889 225.135 29.4449L223.903 28.5009C224.623 27.5409 225.775 26.9329 227.215 26.9329C229.391 26.9329 230.591 28.2129 230.591 29.9889V35.3169H228.943V34.4049C228.367 35.1089 227.359 35.5569 226.367 35.5569ZM225.343 33.1569C225.343 33.7809 225.839 34.2129 226.671 34.2129C227.679 34.2129 228.463 33.7329 228.943 32.9649V31.5729L226.767 31.9409C225.759 32.1169 225.343 32.5489 225.343 33.1569ZM233.174 35.3169V27.2529H234.822V28.0369C235.43 27.3969 236.23 26.9329 237.382 26.9329C239.158 26.9329 240.518 28.1329 240.518 30.4689V35.3169H238.854V30.5329C238.854 29.2529 238.15 28.4849 236.998 28.4849C235.894 28.4849 235.238 29.1729 234.822 29.8769V35.3169H233.174ZM246.856 34.0849C247.768 34.0849 248.504 33.6369 248.952 33.0129L250.248 34.0049C249.512 34.9969 248.328 35.6369 246.84 35.6369C244.136 35.6369 242.44 33.6369 242.44 31.2849C242.44 28.9329 244.136 26.9329 246.84 26.9329C248.312 26.9329 249.512 27.5729 250.248 28.5649L248.952 29.5569C248.504 28.9329 247.768 28.4849 246.84 28.4849C245.288 28.4849 244.168 29.7009 244.168 31.2849C244.168 32.8849 245.288 34.0849 246.856 34.0849ZM258.938 34.0049C258.186 35.0129 256.954 35.6369 255.45 35.6369C252.666 35.6369 251.018 33.6369 251.018 31.2849C251.018 28.8689 252.554 26.9329 255.114 26.9329C257.338 26.9329 258.778 28.4529 258.778 30.5009C258.778 30.8689 258.73 31.2369 258.666 31.4769H252.714C252.826 33.2369 253.898 34.1489 255.45 34.1489C256.426 34.1489 257.242 33.7169 257.738 33.0449L258.938 34.0049ZM255.082 28.3089C253.882 28.3089 253.05 28.9969 252.794 30.2449H257.13C257.098 29.2369 256.378 28.3089 255.082 28.3089ZM264.436 25.7969V24.1169H273.476V25.7969H269.876V35.3169H268.036V25.7969H264.436ZM274.252 35.3169V27.2529H275.9V28.1649C276.46 27.5409 277.164 27.0929 278.156 27.0929C278.412 27.0929 278.652 27.1409 278.86 27.2049V28.8209C278.604 28.7569 278.348 28.7089 278.012 28.7089C276.988 28.7089 276.316 29.2529 275.9 29.9409V35.3169H274.252ZM282.523 35.5569C280.923 35.5569 279.835 34.6449 279.835 33.2209C279.835 32.0049 280.779 31.1249 282.491 30.8369L285.099 30.4049V29.9889C285.099 28.9969 284.363 28.3889 283.323 28.3889C282.443 28.3889 281.755 28.7889 281.291 29.4449L280.059 28.5009C280.779 27.5409 281.931 26.9329 283.371 26.9329C285.547 26.9329 286.747 28.2129 286.747 29.9889V35.3169H285.099V34.4049C284.523 35.1089 283.515 35.5569 282.523 35.5569ZM281.499 33.1569C281.499 33.7809 281.995 34.2129 282.827 34.2129C283.835 34.2129 284.619 33.7329 285.099 32.9649V31.5729L282.923 31.9409C281.915 32.1169 281.499 32.5489 281.499 33.1569ZM288.068 27.2529H289.844L292.212 33.5249L294.564 27.2529H296.356L293.3 35.3169H291.108L288.068 27.2529ZM299.914 35.5569C298.314 35.5569 297.226 34.6449 297.226 33.2209C297.226 32.0049 298.17 31.1249 299.882 30.8369L302.49 30.4049V29.9889C302.49 28.9969 301.754 28.3889 300.714 28.3889C299.834 28.3889 299.146 28.7889 298.682 29.4449L297.45 28.5009C298.17 27.5409 299.322 26.9329 300.762 26.9329C302.938 26.9329 304.138 28.2129 304.138 29.9889V35.3169H302.49V34.4049C301.914 35.1089 300.906 35.5569 299.914 35.5569ZM298.89 33.1569C298.89 33.7809 299.386 34.2129 300.218 34.2129C301.226 34.2129 302.01 33.7329 302.49 32.9649V31.5729L300.314 31.9409C299.306 32.1169 298.89 32.5489 298.89 33.1569ZM307.553 25.4609C306.945 25.4609 306.433 24.9489 306.433 24.3409C306.433 23.7329 306.945 23.2209 307.553 23.2209C308.161 23.2209 308.673 23.7329 308.673 24.3409C308.673 24.9489 308.161 25.4609 307.553 25.4609ZM306.721 35.3169V27.2529H308.369V35.3169H306.721ZM311.065 35.3169V23.3169H312.713V35.3169H311.065Z" fill="#273077"/>
</svg>
