<?xml version="1.0" encoding="utf-8"?>
<!-- Generator: Adobe Illustrator 21.0.0, SVG Export Plug-In . SVG Version: 6.00 Build 0)  -->
<svg version="1.1" id="Calque_1" xmlns="http://www.w3.org/2000/svg" xmlns:xlink="http://www.w3.org/1999/xlink" x="0px" y="0px"
	 viewBox="0 0 245.8 130" style="enable-background:new 0 0 245.8 130;" xml:space="preserve">
<style type="text/css">
	.st0{clip-path:url(#SVGID_2_);}
	.st1{clip-path:url(#SVGID_4_);}
	.st2{fill:#FFFFFF;}
	.st3{fill:#E2011C;}
	.st4{fill:#003189;}
	.st5{fill:#7F7F7F;}
	.st6{fill:#373C42;}
</style>
<g>
	<defs>
		<rect id="SVGID_1_" width="245.8" height="130"/>
	</defs>
	<clipPath id="SVGID_2_">
		<use xlink:href="#SVGID_1_"  style="overflow:visible;"/>
	</clipPath>
	<g class="st0">
		<g>
			<defs>
				<rect id="SVGID_3_" width="690.3" height="130"/>
			</defs>
			<clipPath id="SVGID_4_">
				<use xlink:href="#SVGID_3_"  style="overflow:visible;"/>
			</clipPath>
			<g class="st1">
				<path class="st2" d="M0,0h244.6v74.6H0V0z"/>
				<path d="M195.3,129.9c-0.1,0-0.1-0.2,0-0.5c0.1-0.4,0.2-0.4,0.8-0.3c0.5,0.1,0.6,0,0.8-0.3c0.4-0.5,0.1-0.9-0.6-0.8
					c-0.6,0.1-0.6,0.1-0.5-0.3c0.3-1.2,0.4-1.2-0.6-1.3c-1.2-0.2-2.4-0.8-3.3-1.7c-1.3-1.3-1.8-2.7-1.7-4.9c0.1-1.1,0.2-1.5,0.6-2.3
					c1.2-2.4,3.9-3.6,7.6-3.4c0.8,0,1.8,0.2,2.2,0.3l0.8,0.2l0.1,2.6h-0.5c-0.3,0-0.5-0.1-0.5-0.2c0-0.4-1-1.2-1.7-1.5
					c-0.9-0.3-2.6-0.2-3.5,0.1c-2,0.9-2.9,3.1-2.3,5.7c0.3,1.2,0.7,2,1.6,2.8c0.8,0.8,1.7,1.1,2.9,1.1c1.3,0,2.3-0.5,2.9-1.5
					c0.4-0.7,0.5-0.8,0.9-0.5c0.2,0.1,0.2,0.3,0,1.4l-0.2,1.3l-0.7,0.2c-0.4,0.1-1.3,0.3-2,0.3c-1.3,0.1-1.3,0.1-1.3,0.4
					c0,0.2,0.1,0.3,0.4,0.3c0.5,0,1,0.4,1.1,0.8c0.1,0.6-0.3,1.4-0.9,1.7C197.3,129.9,195.6,130,195.3,129.9L195.3,129.9
					L195.3,129.9z M100.7,129.3c-1.4-0.4-2.6-0.9-4-1.9l-1.2-0.8l-1.9-0.1c-2.1-0.1-2.9-0.3-4.2-1.2c-3-2-3.1-7.1-0.2-9.6
					c2.2-1.9,6.1-2.2,8.8-0.9c3.8,1.8,4.2,7.3,0.7,10.1c-0.5,0.4-1,0.8-1.1,0.8c-0.3,0,3.4,1.8,4.5,2.2c1.2,0.4,2.6,0.5,3.6,0.1
					c0.8-0.2,0.9-0.2,1,0.2c0.1,0.3-0.1,0.4-0.8,0.7C104.8,129.6,102.3,129.7,100.7,129.3L100.7,129.3L100.7,129.3z M96,124.9
					c2.7-1.3,3.2-5.3,1-7.8c-2-2.4-5.6-2-6.9,0.7c-1.2,2.5,0.2,6.3,2.6,7.3C93.8,125.4,95,125.4,96,124.9L96,124.9z M12.5,126.4
					c-0.7-0.3-1.5-1.2-2.8-3.1c-1.9-3-2.3-3.4-2.9-3.4H6.3l0,1.6c0,2.9,0.3,4,1.4,4.2c0.3,0.1,0.4,0.2,0.4,0.4v0.4H1.6v-0.3
					c0-0.2,0.1-0.4,0.5-0.5c0.3-0.1,0.7-0.3,0.8-0.5c0.3-0.4,0.3-0.5,0.3-6s0-5.6-0.3-6c-0.2-0.2-0.6-0.5-0.8-0.5
					c-0.4-0.1-0.5-0.2-0.5-0.4c0-0.3,0-0.3,4-0.4c4.3-0.1,5.2,0,6.4,0.5c1.1,0.5,1.9,1.9,1.9,3.1c0,1.4-1.1,3-2.7,3.6l-0.8,0.4
					l1.8,2.4c2.1,2.8,2.7,3.5,3.3,3.8c0.6,0.3,0.6,0.8,0.1,1C15,126.7,12.9,126.6,12.5,126.4L12.5,126.4L12.5,126.4z M8.5,118.4
					c2.1-0.5,2.9-3.2,1.2-4.6c-0.8-0.7-1.6-0.9-2.6-0.8l-0.8,0.1v5.4h0.8C7.5,118.5,8.1,118.5,8.5,118.4L8.5,118.4z M45.1,126.4
					c-0.9-0.3-1.7-0.8-2.1-1.3c-0.8-0.9-0.9-1.4-0.9-5.2c0-4-0.1-4.4-0.9-4.8c-0.3-0.1-0.5-0.3-0.5-0.5c0-0.3,0.1-0.3,2.7-0.3
					c2.7,0,2.7,0,2.7,0.3c0,0.2-0.1,0.3-0.3,0.3c-0.2,0-0.5,0.2-0.7,0.4l-0.4,0.4v3.9c0,3.7,0,3.9,0.3,4.5c0.5,0.8,1.5,1.3,2.7,1.2
					c1.3-0.1,2.1-0.5,2.6-1.5c0.4-0.8,0.4-0.8,0.4-4.3c0-3.1,0-3.6-0.3-3.9c-0.2-0.2-0.5-0.4-0.7-0.5c-0.3-0.1-0.4-0.2-0.4-0.4
					c0-0.3,0.1-0.3,2.1-0.3s2.1,0,2.1,0.3c0,0.2-0.1,0.3-0.4,0.4c-0.7,0.2-0.8,0.5-0.9,4.6l-0.1,3.9l-0.5,0.8c-0.6,1-1.5,1.7-2.7,2
					C48.2,126.6,45.9,126.6,45.1,126.4L45.1,126.4z M107.1,126.4c-0.9-0.3-1.7-0.8-2.1-1.3c-0.8-0.9-0.9-1.5-0.9-5.3
					c0-3.9-0.1-4.3-0.9-4.7c-0.3-0.1-0.5-0.3-0.5-0.5c0-0.3,0.1-0.3,2.7-0.3c2.7,0,2.7,0,2.7,0.3c0,0.2-0.1,0.3-0.3,0.4
					c-0.2,0-0.5,0.2-0.7,0.5c-0.3,0.4-0.3,0.6-0.4,3.8c-0.1,3.9,0.1,4.7,0.8,5.3c1.3,1.2,4,0.9,4.8-0.6c0.5-0.9,0.6-2.1,0.6-5.1
					c-0.1-3.2-0.2-3.6-1-3.8c-0.3-0.1-0.4-0.2-0.4-0.4c0-0.2,0.1-0.3,2.1-0.3s2.2,0,2.2,0.3c0,0.2-0.2,0.3-0.5,0.4
					c-0.3,0.1-0.5,0.3-0.6,0.4s-0.2,2-0.2,4.1l-0.1,3.9l-0.5,0.8c-0.6,1-1.5,1.7-2.7,2C110.2,126.7,107.8,126.7,107.1,126.4
					L107.1,126.4z M157.5,126.4c-0.6-0.3-1.4-1.1-2.6-2.9c-1.5-2.3-1.7-2.5-2.1-2.5c-0.4,0-0.4,0-0.4,1.8c0,2.1,0.2,2.8,0.9,2.9
					c0.4,0.1,0.5,0.2,0.5,0.4v0.3h-5.4v-0.3c0-0.3,0.1-0.4,0.5-0.4c0.9-0.2,1-0.6,0.9-5.5l0-4.4l-0.4-0.4c-0.2-0.2-0.5-0.4-0.7-0.4
					c-0.2,0-0.3-0.1-0.3-0.3c0-0.2,0.2-0.3,1.2-0.4c0.6-0.1,2.4-0.1,3.9-0.1c2.5,0,2.8,0.1,3.4,0.4c1.1,0.5,1.6,1.5,1.6,2.7
					c0,1.2-0.7,2.2-2.1,2.9c-0.4,0.2-0.7,0.4-0.6,0.5c0.1,0.1,0.8,0.9,1.6,2c1.5,2.1,2.3,3,2.7,3c0.3,0,0.3,0.7,0,0.8
					C159.7,126.6,158,126.5,157.5,126.4L157.5,126.4L157.5,126.4z M154.5,119.6c0.6-0.3,1.3-1,1.4-1.6c0.2-0.7-0.2-1.7-0.8-2.2
					c-0.6-0.5-1.1-0.6-2-0.5l-0.6,0.1v4.4h0.8C153.7,119.8,154.3,119.7,154.5,119.6L154.5,119.6L154.5,119.6z M225.3,126.3
					c-0.5-0.1-0.9-0.2-0.9-0.3c0,0-0.2-0.7-0.3-1.4l-0.2-1.4h0.4c0.2,0,0.4,0.1,0.4,0.1c0,0.4,1,1.5,1.6,1.7c1.6,0.7,3.6,0,3.6-1.2
					c0-0.8-0.4-1.3-2-2.2c-2.1-1.2-3-1.9-3.4-2.6c-0.4-0.8-0.5-2-0.2-2.9c0.2-0.6,1.2-1.4,2.1-1.8c0.8-0.3,3.5-0.3,4.6,0l0.8,0.3
					v2.6h-0.5c-0.4,0-0.5-0.1-0.6-0.4c-0.2-0.6-1-1.3-1.7-1.5c-1.9-0.5-3.4,1.3-2.2,2.6c0.2,0.2,1.3,1,2.3,1.6c2,1.2,2.8,1.9,3,2.7
					c0.6,1.8-0.4,3.4-2.3,4C228.9,126.7,226.6,126.7,225.3,126.3L225.3,126.3L225.3,126.3z M17,126c0-0.3,0.1-0.3,0.4-0.3
					c0.2,0,0.5-0.2,0.7-0.4c0.3-0.4,0.3-0.5,0.3-4.9c0-3.2-0.1-4.6-0.2-4.8c-0.2-0.4-0.6-0.7-1-0.7c-0.2,0-0.3-0.1-0.3-0.4v-0.4h9.5
					v3l-0.4,0c-0.3,0-0.5-0.2-0.6-0.5c-0.3-0.9-0.8-1.1-2.7-1.1l-1.7-0.1v4.1l1.3-0.1c1.4-0.1,2.1-0.4,2.2-1c0-0.2,0.2-0.3,0.5-0.3
					h0.4v3.7H25c-0.4,0-0.4-0.1-0.4-0.3c0-0.6-0.5-0.9-2.1-0.9l-1.4-0.1v2c0,2.4,0,2.5,1.8,2.5c1.8,0,2.7-0.4,3.2-1.4
					c0.2-0.5,0.8-0.6,1-0.2c0.1,0.3-0.3,1.9-0.7,2.5l-0.2,0.4l-4.6,0l-4.6,0L17,126L17,126z M29.2,126.1c0-0.3,0.1-0.4,0.5-0.4
					c0.8-0.2,0.9-0.4,0.9-5c0.1-4.8,0-5.2-0.9-5.6c-0.4-0.2-0.5-0.3-0.5-0.6v-0.3l3.6,0.1c3.9,0.1,4.2,0.1,5.3,0.9
					c1.2,0.9,1.5,2.7,0.7,4c-0.7,1.2-1.9,1.8-3.8,1.9l-1,0.1l-0.2-0.5l-0.3-0.5l0.6-0.1c0.7-0.1,1.5-0.5,2-1
					c0.2-0.3,0.3-0.6,0.3-1.2c0-1.4-0.9-2.2-2.4-2.4l-0.9-0.1l0,4.8c0.1,5.2,0.1,5.4,1,5.5c0.3,0.1,0.4,0.2,0.4,0.4v0.3h-5.4
					L29.2,126.1L29.2,126.1z M55.6,126c0-0.2,0.1-0.3,0.3-0.3c0.2,0,0.5-0.1,0.7-0.3l0.4-0.3l0-4.4c0.1-5,0-5.4-0.9-5.7
					c-0.3-0.1-0.5-0.3-0.5-0.4c0-0.2,0.2-0.3,2.4-0.3c4.6-0.1,5.6,0,6.4,0.3c1,0.4,1.4,1,1.5,2.1c0,0.5,0,1,0,1.2
					c-0.2,0.6-0.9,1.3-1.7,1.6l-0.8,0.3L64,120c1.5,0.4,2.5,1.9,2.3,3.4c-0.2,1.3-0.8,2.1-2.2,2.7c-0.8,0.3-1,0.3-4.6,0.3h-3.8
					L55.6,126L55.6,126z M62.6,124.9c0.8-0.5,1.1-1.2,1-2.2c-0.1-1.5-1.3-2.4-3.1-2.4h-1l0,2.2c0,2.1,0.1,2.2,0.4,2.4
					C60.6,125.4,61.9,125.4,62.6,124.9L62.6,124.9z M62,119c1-0.3,1.5-1,1.4-1.9c-0.1-1.1-1.1-1.7-2.8-1.7h-1v3.9l0.8,0
					C60.9,119.2,61.6,119.1,62,119L62,119z M68.5,126c0-0.2,0.1-0.3,0.4-0.4c0.2,0,0.6-0.2,0.8-0.5c0.3-0.4,0.3-0.6,0.3-4.8
					c0-3.5-0.1-4.5-0.2-4.8c-0.3-0.4-0.6-0.7-1-0.7c-0.2,0-0.3-0.1-0.3-0.3c0-0.3,0-0.3,2.9-0.3c2.9,0,2.9,0,2.9,0.3
					c0,0.2-0.1,0.3-0.3,0.3c-0.2,0-0.5,0.2-0.8,0.3l-0.4,0.4l-0.1,4.5l0,4.5l0.4,0.2c0.3,0.2,0.7,0.2,1.6,0.2
					c1.5-0.1,2.2-0.4,2.6-1.3c0.3-0.6,0.6-0.7,1-0.5c0.1,0.1,0.1,0.4-0.1,1.2c-0.2,0.6-0.4,1.3-0.6,1.5l-0.3,0.3l-4.4-0.1l-4.4-0.1
					L68.5,126L68.5,126L68.5,126z M79.6,126.1c0-0.3,0.1-0.4,0.5-0.4c0.9-0.2,0.9-0.5,0.9-5.4c0-4,0-4.3-0.3-4.7
					c-0.2-0.3-0.5-0.5-0.7-0.6c-0.3-0.1-0.4-0.2-0.4-0.4c0-0.3,0-0.3,2.7-0.3s2.7,0,2.7,0.3c0,0.2-0.1,0.3-0.4,0.4
					c-0.3,0.1-0.5,0.3-0.7,0.5c-0.3,0.4-0.3,0.8-0.3,4.8c0,4.9,0.1,5.3,0.9,5.4c0.3,0.1,0.4,0.2,0.4,0.4v0.3h-5.4L79.6,126.1
					L79.6,126.1z M117.6,126.1c0-0.2,0.1-0.3,0.5-0.4c0.9-0.2,0.9-0.5,0.9-5.4c0-4.2,0-4.3-0.4-4.8c-0.2-0.3-0.5-0.5-0.7-0.5
					c-0.3,0-0.3-0.1-0.3-0.4v-0.3h9.4v1.5c0,1.5,0,1.5-0.4,1.5c-0.3,0-0.4-0.1-0.5-0.5c-0.2-0.8-0.8-1.1-2.7-1.2l-1.6-0.1l-0.1,0.7
					c-0.1,0.4-0.1,1.3-0.1,2v1.4l1.3-0.1c1.5-0.1,2.1-0.3,2.2-0.9c0.1-0.3,0.2-0.4,0.5-0.4h0.4v3.7h-0.4c-0.3,0-0.4-0.1-0.4-0.2
					c0-0.7-0.8-1-2.4-1h-1.3l0.1,2c0.1,2.4,0.1,2.4,2,2.4c1.7,0,2.6-0.4,3-1.3c0.2-0.5,0.4-0.6,0.7-0.6c0.2,0,0.4,0.1,0.5,0.2
					c0.1,0.2-0.6,2.5-0.8,2.8c-0.2,0.2-1,0.2-4.7,0.2l-4.5,0L117.6,126.1L117.6,126.1L117.6,126.1z M135.1,126.1
					c0-0.2,0.1-0.4,0.5-0.5c0.3-0.1,0.6-0.4,0.8-0.6c0.3-0.4,0.3-0.6,0.3-5.8c0-6.1,0-6.2-1.1-6.5c-0.4-0.1-0.6-0.2-0.6-0.5v-0.4
					h11.1v3.6h-0.5c-0.4,0-0.5-0.1-0.5-0.3c0-0.5-0.6-1.3-1.2-1.5c-0.4-0.1-1.2-0.3-2.4-0.3l-1.8-0.1v4.9l1.3,0
					c1.8,0,2.3-0.2,2.7-0.9c0.2-0.4,0.4-0.5,0.8-0.5h0.5v4.3l-0.5-0.1c-0.4,0-0.5-0.1-0.6-0.3c-0.3-0.8-1.2-1.2-3.2-1.2h-1l0.1,2.5
					c0.1,2.9,0.2,3.3,1.2,3.6c0.4,0.1,0.6,0.3,0.6,0.5v0.3H135L135.1,126.1L135.1,126.1L135.1,126.1z M160.5,126.1
					c0-0.3,0.1-0.4,0.3-0.4c0.5,0,1-0.9,2.2-3.6c1.6-3.7,3.2-7.4,3.2-7.6c0-0.2,0.2-0.2,0.8-0.2l0.8,0l2.1,5
					c2.3,5.4,2.8,6.2,3.3,6.4c0.2,0.1,0.4,0.3,0.4,0.5c0,0.3,0,0.3-2.7,0.3h-2.7v-0.3c0-0.3,0.1-0.4,0.5-0.4c0.7-0.1,0.7-0.5,0.2-2
					l-0.5-1.2h-3.8l-0.4,1c-0.5,1.3-0.5,2.1,0.1,2.2c0.3,0,0.4,0.1,0.4,0.4v0.4h-4.1L160.5,126.1L160.5,126.1z M167.9,121
					c0-0.2-1.2-3.1-1.3-3.1c-0.1,0-0.2,0.3-0.4,0.6l-0.7,1.6l-0.4,1h1.3C167.2,121.1,167.8,121.1,167.9,121L167.9,121L167.9,121z
					 M174.7,126.1c0-0.2,0.1-0.4,0.4-0.4c0.9-0.2,0.9-0.4,1-5c0.1-4.8,0-5.2-0.9-5.6c-0.3-0.1-0.5-0.3-0.5-0.4
					c0-0.2,0.2-0.2,1.8-0.2h1.8l1,1.2c0.6,0.7,2,2.2,3.3,3.6c0.9,0.9,1.7,1.9,2.6,2.8l0.4,0.4l-0.1-3.2c-0.1-3.5-0.1-3.9-1-4.1
					c-0.3-0.1-0.4-0.2-0.4-0.4c0-0.2,0.1-0.3,2.1-0.3c2,0,2.1,0,2.1,0.3c0,0.2-0.1,0.3-0.4,0.3c-0.2,0-0.5,0.2-0.7,0.5
					c-0.3,0.4-0.3,0.6-0.4,5.7l-0.1,5.3h-0.7c-0.6,0-0.8-0.1-1.2-0.6c-0.4-0.5-7.2-8-7.4-8.3c0,0,0,1.5,0,3.5c0.1,4,0.2,4.5,0.9,4.6
					c0.4,0.1,0.5,0.2,0.5,0.4v0.3h-4.3L174.7,126.1L174.7,126.1L174.7,126.1z M202.5,126.1c0-0.2,0.1-0.4,0.2-0.4
					c0.3,0,0.9-0.7,1.3-1.5c0.6-1.2,3.3-7.5,3.8-8.8l0.4-1.2l1.4,0.1l2.1,4.9c1.2,2.7,2.2,5.1,2.4,5.4c0.4,0.6,0.9,1.2,1.1,1.2
					c0.1,0,0.2,0.2,0.2,0.4v0.4h-5.4v-0.4c0-0.2,0.1-0.4,0.3-0.4c0.8,0,0.8-0.6,0.3-2.2l-0.4-1.1h-3.7l-0.3,1
					c-0.6,1.8-0.6,2.3,0.1,2.3c0.2,0,0.3,0.1,0.3,0.4v0.4h-4.1L202.5,126.1L202.5,126.1L202.5,126.1z M209.3,119.7
					c-0.3-0.8-0.6-1.6-0.6-1.7c-0.1-0.1-0.4,0.4-0.8,1.4c-0.4,0.9-0.7,1.6-0.7,1.7c0,0.1,0.6,0.1,1.3,0.1h1.3L209.3,119.7
					L209.3,119.7L209.3,119.7z M216.5,126.1c0-0.3,0.1-0.4,0.4-0.4c0.2,0,0.5-0.1,0.7-0.3c0.3-0.3,0.3-0.6,0.3-4.8
					c0-2.5,0-4.6,0-4.8c-0.1-0.4-0.7-0.9-1.1-0.9c-0.2,0-0.3-0.1-0.3-0.3c0-0.3,0-0.3,2.7-0.3c2.6,0,2.7,0,2.7,0.3
					c0,0.2-0.2,0.4-0.5,0.5c-0.3,0.1-0.5,0.4-0.6,0.6c-0.2,0.5-0.4,5-0.2,7.4c0.1,1.7,0.2,2.1,0.4,2.3c0.2,0.2,0.4,0.3,0.6,0.3
					c0.2,0,0.3,0.1,0.3,0.4v0.4h-5.4L216.5,126.1L216.5,126.1z M234.3,126.1c0-0.2,0.1-0.3,0.4-0.3c0.2,0,0.5-0.2,0.7-0.4
					c0.3-0.4,0.3-0.5,0.3-4.9c0-3.1-0.1-4.6-0.2-4.8c-0.2-0.4-0.6-0.7-1-0.7c-0.2,0-0.3-0.1-0.3-0.4v-0.4h9.5v3l-0.4,0
					c-0.3,0-0.5-0.2-0.6-0.5c-0.3-0.8-0.8-1.1-2.7-1.1l-1.7-0.1v4.1h1c1.4,0,2-0.2,2.3-0.8c0.2-0.3,0.3-0.5,0.6-0.5h0.4v3.7h-0.4
					c-0.4,0-0.4-0.1-0.4-0.3c0-0.6-0.5-0.9-2.1-0.9l-1.4-0.1v2c0,2.4,0,2.5,1.8,2.5c1.8,0,2.7-0.4,3.2-1.4c0.2-0.5,0.8-0.6,1-0.2
					c0.1,0.3-0.3,1.9-0.7,2.5l-0.2,0.4l-4.6,0l-4.6,0L234.3,126.1L234.3,126.1L234.3,126.1z M21.3,112.9l-0.4-0.3l0.9-1.3
					c0.5-0.7,1-1.3,1.2-1.3c0.5,0,2.2,0.3,2.2,0.4c-0.1,0.2-3.2,2.7-3.4,2.7C21.8,113.2,21.5,113.1,21.3,112.9L21.3,112.9z M1.1,103
					h242.2v1.3H1.1L1.1,103L1.1,103z M93.3,100.1c-1.3-0.4-2-1.5-1.8-2.6c0.2-0.8,0.6-1.3,1.5-1.7l0.8-0.3l-0.5-0.2
					c-0.3-0.1-0.5-0.4-0.5-0.5c0-0.3,1.2-1.3,1.5-1.3c0.1,0,0-0.2-0.2-0.5c-0.8-1.2-0.2-3,1.4-3.8c0.8-0.4,1.1-0.4,4-0.2
					c1.7,0.1,1.7,0.1,1.6,0.4c0,0.2-0.1,0.4-0.1,0.4c0,0.1-0.3,0.1-0.6,0.1h-0.6l0.1,0.8c0.2,1.8-1.3,3.1-3.6,3.1
					c-1.2,0-1.8,0.2-1.3,0.5c0.1,0.1,0.9,0.3,1.7,0.6c2.6,0.8,3.1,1.2,3,2.4c-0.1,1.3-1.3,2.4-2.9,2.9
					C95.8,100.4,94.1,100.4,93.3,100.1L93.3,100.1z M96.8,99.2c1.3-0.6,1.8-1.7,1.1-2.3c-0.5-0.4-2.5-1-3.1-0.9
					c-1.1,0.2-2.1,1.4-1.9,2.3C93.2,99.5,95.1,100,96.8,99.2L96.8,99.2z M97.2,92.7c1-0.5,1.3-2,0.7-2.8c-0.9-1-2.6,0.1-2.6,1.8
					c0,0.5,0.1,0.7,0.4,1C96.3,93.1,96.6,93.1,97.2,92.7L97.2,92.7z M103.3,96c-0.7-0.1-1.1-0.5-1.1-1.3c-0.2-1.9,1.6-4.7,3.6-5.6
					c1-0.5,3.1-0.5,4.4-0.1c0.1,0,0,0.5-0.3,1.5c-0.6,2-1,3.9-0.8,4.3c0.1,0.2,0.2,0.2,0.7,0.1c0.4-0.1,0.5-0.1,0.6,0
					c0.2,0.3,0.1,0.4-0.8,0.7c-1.2,0.4-1.8,0.3-2-0.3l-0.1-0.4l-0.6,0.3C105.7,95.9,104.2,96.2,103.3,96L103.3,96z M106,94.8
					c0.5-0.2,0.9-0.5,1.1-0.7c0.2-0.3,0.9-2.4,1.1-3.7c0.1-0.5,0.1-0.5-0.5-0.7c-1.1-0.3-2.1,0.4-3,2c-0.9,1.6-1.1,3-0.5,3.4
					C104.6,95.3,104.8,95.3,106,94.8L106,94.8z M181.3,96c-0.7-0.2-1-0.4-1.2-1c-0.3-1,0.4-2.9,1.6-4.3c1.4-1.7,2.9-2.2,5.2-1.9
					c0.6,0.1,1.1,0.2,1.2,0.3c0.1,0.1-0.1,1-0.4,2c-0.3,1.1-0.6,2.4-0.6,2.9l0,0.9l0.7,0c0.6,0,0.7,0,0.7,0.3c0,0.3-0.1,0.4-0.9,0.6
					c-1.3,0.4-1.8,0.3-1.9-0.2c0-0.2-0.1-0.4-0.1-0.4c0,0-0.4,0.2-0.9,0.3c-0.8,0.3-2.3,0.7-2.6,0.7C181.9,96.1,181.6,96.1,181.3,96
					L181.3,96L181.3,96z M184,94.8c0.4-0.2,0.8-0.4,1-0.6c0.4-0.4,1-2.2,1.3-3.9c0.1-0.4,0.1-0.5-0.5-0.6c-0.5-0.1-0.7-0.1-1.2,0.1
					c-1,0.4-2,1.9-2.5,3.7C181.5,95.2,182.1,95.6,184,94.8L184,94.8L184,94.8z M11.5,95.7c0-0.2,0.2-1.5,0.6-3
					c0.8-2.9,0.8-3.1-0.1-2.9c-0.4,0.1-0.5,0.1-0.5-0.2c0-0.3,0.1-0.4,0.9-0.6c0.5-0.1,1.2-0.3,1.5-0.3c0.5,0,0.6,0,0.6,0.4
					c0,0.3-0.2,1.6-0.6,2.9c-0.4,1.3-0.6,2.5-0.6,2.7c0.1,0.2,0.2,0.2,0.8,0.1c0.7-0.1,0.7-0.1,0.7,0.2c0,0.3-0.2,0.4-0.9,0.6
					c-0.5,0.1-1.2,0.2-1.6,0.2C11.7,96,11.6,95.9,11.5,95.7L11.5,95.7z M17.6,95.7l-0.4-0.3l1.2-4.9c0.7-2.7,1.2-5.1,1.2-5.3
					c-0.1-0.4-0.1-0.4-0.7-0.3c-0.3,0.1-0.4,0-0.4-0.3c0-0.4,0.6-0.6,2.1-0.8c0.9-0.1,0.9-0.1,0.9,0.3c0,0.2-0.2,1.4-0.6,2.6
					c-0.3,1.3-0.6,2.4-0.6,2.5c0,0.1,0.2,0.1,0.7-0.1c1.8-0.7,3.3-0.7,3.9,0.1c0.5,0.7,0.3,2.6-0.6,4.1c-0.4,0.8-1.7,2-2.5,2.3
					C21.1,96.1,18.2,96.1,17.6,95.7L17.6,95.7z M21.7,94.8c0.8-0.5,1.7-2.2,1.9-3.8c0.3-1.5-0.9-1.8-2.6-0.7c-0.4,0.2-0.7,0.6-0.8,1
					c-0.3,0.7-0.9,3-0.9,3.4C19.2,95.3,20.8,95.4,21.7,94.8L21.7,94.8z M27.7,95.6c-0.4-0.4-0.5-0.5-0.5-1.5c0-2.4,1.5-4.6,3.6-5.2
					c1-0.3,2-0.2,2.6,0.3c0.4,0.3,0.4,0.4,0.4,1c0,1.5-1.5,2.6-3.6,2.7c-0.6,0-1.2,0.1-1.2,0.2c-0.2,0.2-0.1,1.1,0.1,1.4
					c0.4,0.7,1,0.7,2.3,0.1c0.8-0.4,1-0.4,1.2-0.2c0.3,0.4,0.1,0.5-1.1,1.1c-1,0.4-1.4,0.5-2.3,0.5C28.3,96,28.2,96,27.7,95.6
					L27.7,95.6L27.7,95.6z M30.6,92.1c1.4-0.3,2.2-1.6,1.6-2.3c-0.4-0.4-0.8-0.4-1.4,0c-0.4,0.3-1.2,1.4-1.4,2.1
					c-0.1,0.3,0,0.3,0.3,0.3C29.8,92.3,30.3,92.2,30.6,92.1L30.6,92.1z M35.9,95.9c0,0,0.3-1.1,0.6-2.5c0.3-1.3,0.6-2.7,0.6-3.1
					v-0.6l-0.6,0.1C36,90,36,89.9,36,89.7c0-0.3,0.5-0.6,1.8-0.8c0.9-0.2,1.2-0.1,1.2,0.5v0.3l0.6-0.3c1-0.6,1.6-0.7,2.3-0.4
					c0.4,0.1,0.6,0.3,0.6,0.4c-0.4,1.4-0.7,1.8-1,1.8c-0.3,0-0.4-0.1-0.4-0.5c0-1-1-1-1.7,0c-0.4,0.7-0.9,2.1-1.3,4.1
					c-0.1,0.6-0.3,1.1-0.4,1.1C37.4,95.9,36,96,35.9,95.9L35.9,95.9z M43.9,95.8c-0.2-0.2-0.1-0.7,0.8-4.4l0.4-1.5h-0.5
					c-0.3,0-0.5,0-0.5-0.1c0-0.2,0.4-0.6,0.6-0.6c0.4,0,1.1-0.7,1.5-1.3c0.3-0.7,0.5-0.8,1-0.8c0.3,0,0.4,0.1,0.3,0.5
					c-0.1,0.3-0.1,0.7-0.2,1L47.1,89h0.7c0.8,0,0.9,0.1,0.6,0.6c-0.1,0.2-0.3,0.2-0.8,0.2c-0.9,0-0.7-0.3-1.4,2.9
					c-0.5,2.3-0.5,2.5,0.4,2.3c0.7-0.2,0.8-0.2,0.7,0.2c0,0.2-0.2,0.4-0.8,0.6C45.4,96.1,44.2,96.1,43.9,95.8L43.9,95.8z M50.4,95.6
					c-1.2-1.1-0.3-4.3,1.5-5.9c0.8-0.6,1.9-1.1,2.7-1.1c0.5,0,1.6,0.5,1.7,0.7c0.3,0.4,0.2,1.5-0.1,1.9c-0.7,1-2.1,1.6-3.7,1.6h-0.9
					v0.8c0,1.5,0.7,1.7,2.5,0.9c0.6-0.2,1.1-0.4,1.1-0.4c0,0,0.1,0.2,0.1,0.4c0,0.2-0.2,0.4-1.1,0.8c-1,0.5-1.3,0.5-2.3,0.5
					C50.9,96,50.7,96,50.4,95.6L50.4,95.6L50.4,95.6z M53.2,92.1c0.8-0.2,1.4-0.7,1.7-1.2c0.2-0.5,0.2-0.5-0.1-0.9
					c-0.4-0.5-0.9-0.5-1.5,0c-0.5,0.4-1.4,1.8-1.4,2.1C51.9,92.3,52.5,92.3,53.2,92.1z M112.9,95.9c-0.2-0.2-0.1-1,0.7-4
					c1-4,1.6-6.3,1.6-6.7c0-0.3-0.1-0.3-0.6-0.2c-0.5,0.1-0.6,0.1-0.6-0.3c0-0.4,0.4-0.5,2-0.8c0.8-0.1,1.1,0,1.1,0.4
					c0,0.2-0.5,2.5-1.2,5c-0.7,2.6-1.2,4.9-1.2,5.1v0.5l0.7-0.1c0.7-0.1,0.7-0.1,0.7,0.2c0,0.2-0.2,0.4-0.9,0.6
					C114.3,96,113.1,96.1,112.9,95.9L112.9,95.9z M118.9,95.8c-0.2-0.3-0.1-0.9,0.6-3.3c0.4-1.2,0.6-2.4,0.6-2.5
					c-0.1-0.2-0.1-0.3-0.8-0.1c-0.4,0.1-0.4,0.1-0.4-0.2c0-0.3,0.7-0.6,1.9-0.9c0.9-0.1,1.3-0.1,1.3,0.3c0,0.1-0.3,1.4-0.7,2.9
					c-0.4,1.5-0.7,2.8-0.6,2.9c0.1,0.1,0.4,0.1,0.8,0.1c0.7-0.1,0.7-0.1,0.7,0.2c0,0.2-0.2,0.4-0.9,0.6
					C120.2,96.1,119.1,96.1,118.9,95.8L118.9,95.8z M124.7,95.8c-0.1-0.1,0-0.6,0.1-1c0.4-1.4,1.1-4.8,1.1-4.8c0,0-0.2-0.1-0.5-0.1
					c-0.7,0-0.6-0.4,0.3-0.8c0.5-0.2,0.8-0.5,1.2-1.2c0.5-0.8,0.6-0.9,1-0.9h0.4l-0.2,0.9c-0.1,0.5-0.2,0.9-0.2,1
					c0,0.1,0.4,0.1,0.8,0.1c0.8,0,0.9,0,0.7,0.5c-0.1,0.3-0.2,0.3-0.9,0.3h-0.8l-0.5,2.4c-0.3,1.3-0.5,2.5-0.4,2.7
					c0.1,0.2,0.2,0.2,0.6,0.1c0.7-0.2,0.8-0.2,0.8,0.2c0,0.3-0.1,0.4-0.9,0.6C125.9,96.1,124.9,96.1,124.7,95.8L124.7,95.8z
					 M131.3,95.7c-0.4-0.3-0.5-0.5-0.5-1.3c-0.1-1.8,0.8-3.8,2.2-4.8c1.5-1,3.2-1.2,4.1-0.3c0.4,0.4,0.5,0.5,0.4,1.1
					c-0.1,1.4-1.7,2.5-3.7,2.5c-1.3,0.1-1.4,0.2-1.2,1.2c0.3,1.1,0.8,1.2,2.4,0.5c1.1-0.4,1.3-0.4,1.3,0c0,0.5-1.9,1.2-3.3,1.3
					C131.9,96.1,131.7,96,131.3,95.7L131.3,95.7L131.3,95.7z M134.7,91.9c1-0.5,1.4-1.5,0.9-2c-0.7-0.7-2,0.2-2.7,1.9l-0.2,0.6
					l0.7-0.1C133.8,92.2,134.2,92,134.7,91.9L134.7,91.9z M172.7,96c0,0,0.3-1.1,0.6-2.5c0.4-1.3,0.6-2.7,0.6-3.1v-0.6l-0.6,0.1
					c-0.6,0.1-0.6,0.1-0.6-0.2c0-0.3,0.3-0.5,1.6-0.8c1.1-0.3,1.5-0.2,1.5,0.4v0.3l0.6-0.3c1-0.6,1.6-0.7,2.3-0.4
					c0.4,0.1,0.6,0.3,0.6,0.3c0,0.1-0.1,0.5-0.4,1c-0.3,0.7-0.4,0.9-0.7,0.9s-0.4-0.1-0.4-0.5c0-1-0.9-1.1-1.6-0.1
					c-0.5,0.7-0.8,1.5-1.2,3.5c-0.2,0.9-0.4,1.7-0.4,1.7C174.4,95.9,172.7,96.1,172.7,96L172.7,96L172.7,96z M191,95.8
					c-0.1-0.3,0-1.2,0.6-3.7l0.5-2.2l-0.4,0c-0.5-0.1-0.6-0.5-0.1-0.7c0.6-0.2,1.2-0.7,1.5-1.4c0.4-0.7,0.5-0.8,1-0.8
					c0.4,0,0.4,0.1,0.3,0.5c-0.1,0.3-0.1,0.7-0.2,1l-0.1,0.5h0.7c0.8,0,0.9,0.1,0.6,0.6c-0.1,0.2-0.3,0.2-0.8,0.2
					c-0.9,0-0.7-0.3-1.4,2.9c-0.5,2.3-0.5,2.5,0.4,2.3c0.7-0.2,0.8-0.2,0.7,0.2c0,0.2-0.2,0.4-0.8,0.6
					C192.4,96.1,191.2,96.1,191,95.8L191,95.8z M197.4,95.7c-1.2-1.1-0.4-4.3,1.5-5.9c0.8-0.6,1.9-1.1,2.7-1.1
					c0.5,0,1.6,0.5,1.7,0.7c0.3,0.4,0.2,1.5-0.1,2c-0.7,1-2.1,1.6-3.7,1.6h-0.9l0.1,0.9c0.1,1.4,0.7,1.6,2.4,0.8
					c0.6-0.2,1.1-0.4,1.1-0.4c0,0,0.1,0.2,0.1,0.4c0.1,0.2-0.2,0.4-1.1,0.8c-1,0.5-1.3,0.5-2.2,0.5C198.1,96.1,197.9,96,197.4,95.7
					L197.4,95.7z M200.8,91.9c1.1-0.5,1.6-1.6,0.9-2.1c-0.5-0.3-0.8-0.3-1.4,0.2c-0.5,0.4-1.4,1.8-1.4,2.2
					C198.9,92.4,200,92.3,200.8,91.9L200.8,91.9z M205.6,95.9c0-0.1,0.3-1.2,0.6-2.6c0.4-1.4,0.6-2.7,0.6-2.9c0-0.4-0.1-0.4-0.6-0.4
					c-0.4,0-0.6,0-0.7-0.2c-0.1-0.2,0.1-0.3,0.7-0.5c0.5-0.2,0.9-0.3,1.4-0.4c0.6-0.1,0.6-0.1,1,0.7c0,0,0.4-0.2,0.9-0.4
					c1.1-0.5,1.3-0.5,2-0.1l0.5,0.3l-0.3,0.9c-0.3,0.8-0.4,0.9-0.7,0.9c-0.3,0-0.4-0.1-0.4-0.5c0-1.3-1.3-1-2,0.4
					c-0.2,0.3-0.5,1.5-0.8,2.7c-0.3,1.1-0.5,2.1-0.5,2.1C207.2,95.9,205.7,96,205.6,95.9L205.6,95.9L205.6,95.9z M213.6,95.9
					c0-0.1,0.3-1,0.6-2.1c0.3-1.2,0.6-2.4,0.6-3l0-1l-0.6,0.1c-0.4,0-0.6,0-0.6-0.2c-0.1-0.2,0.1-0.3,0.7-0.5
					c1.4-0.4,1.8-0.4,2.1-0.2c0.2,0.2,0.2,0.4,0.3,0.6c0,0.2,0,0.3,0.1,0.3c0,0,0.5-0.2,1.1-0.4c1.3-0.5,3-0.8,3.5-0.6
					c0.3,0.2,0.4,0.2,0.3,0.9c-0.1,0.4-0.3,1.5-0.6,2.5c-0.3,1-0.5,2-0.5,2.2c0,0.5,0,0.5,0.6,0.5c0.5,0,0.7,0.1,0.8,0.2
					c0.1,0.3,0,0.4-1,0.7c-1.1,0.3-2.2,0.3-2.3,0c-0.1-0.1,0.2-1.4,0.5-2.8c0.7-2.8,0.7-3.1,0.4-3.3c-0.4-0.1-1.6,0.4-2.3,1
					c-0.6,0.5-0.7,0.6-1.1,2.1c-0.2,0.8-0.4,1.8-0.5,2.2c-0.1,0.4-0.2,0.7-0.3,0.7C214.7,95.9,213.5,96,213.6,95.9L213.6,95.9
					L213.6,95.9z M224.5,95.8c-0.1-0.1,0.2-1.4,0.6-3c0.4-1.5,0.7-2.8,0.6-2.9c-0.1-0.1-0.2-0.2-0.6-0.1c-0.2,0.1-0.4,0.1-0.6,0.1
					c0,0,0-0.1,0-0.3c0-0.3,0.1-0.4,0.8-0.5c1.9-0.5,2.5-0.4,2.3,0.3c0,0.2-0.4,1.4-0.7,2.8c-0.4,1.3-0.6,2.5-0.6,2.6
					c0.1,0.2,0.3,0.2,0.8,0.1c0.7-0.1,0.7-0.1,0.7,0.2C227.8,95.9,224.7,96.4,224.5,95.8L224.5,95.8L224.5,95.8z M230.5,95.8
					c-0.1-0.2,0-0.9,0.6-3.4c0.7-2.8,0.7-2.5,0.1-2.5c-0.7,0-0.6-0.4,0.2-0.8c0.5-0.2,0.8-0.5,1.1-1.2c0.4-0.7,0.6-0.9,0.9-0.9
					c0.5-0.1,0.5,0,0.1,1.5l-0.1,0.5h0.8c0.7,0,0.8,0,0.7,0.2c-0.1,0.1-0.1,0.3-0.1,0.4c0,0.2-0.2,0.2-0.8,0.2h-0.8l-0.5,2.4
					c-0.3,1.3-0.5,2.5-0.4,2.7c0.1,0.2,0.2,0.2,0.6,0.1c0.7-0.2,0.8-0.2,0.8,0.2c0,0.3-0.1,0.4-0.9,0.6
					C231.7,96.2,230.7,96.2,230.5,95.8L230.5,95.8z M237,95.7c-0.4-0.4-0.5-0.4-0.5-1.8c0-1.3,0-1.5,0.6-2.5c0.7-1.3,1.5-2,2.8-2.4
					c2.3-0.8,3.9,0.5,2.9,2.3c-0.6,1-2.1,1.7-3.6,1.7c-0.9,0-1,0-1.1,0.4c-0.1,0.5,0,1.2,0.4,1.5c0.4,0.4,1,0.3,2.1-0.2
					c0.8-0.4,1-0.4,1.1-0.2c0.3,0.4,0.1,0.6-0.9,1c-0.8,0.4-1.3,0.5-2.2,0.5C237.7,96.1,237.5,96.1,237,95.7L237,95.7z M240.5,91.8
					c1.1-0.5,1.4-1.6,0.7-2.1c-0.3-0.2-0.5-0.2-0.8-0.1c-0.6,0.2-1.4,1.1-1.7,2l-0.3,0.7l0.7-0.1C239.6,92.2,240.2,92,240.5,91.8
					L240.5,91.8z M0,95.6c0-0.1,0.2-0.3,0.4-0.3c0.5-0.1,0.9-0.5,1.2-1.1c0.4-0.9,1.7-6.8,1.8-8.1c0-1.1,0-1.1-0.5-1.4
					c-1-0.6-0.7-0.7,2-0.7c2.2,0,2.5,0,2.5,0.2c0,0.1-0.2,0.3-0.5,0.3c-1,0.2-1.4,1.1-2.4,5.5c-0.9,4.2-0.9,4.1-0.5,4.4
					c0.3,0.3,0.5,0.3,1.7,0.2c1.7-0.1,2.3-0.3,2.9-1.2C9.1,93,9.2,93,9.5,93.1c0.2,0.1,0.2,0.2,0,0.8c-0.2,0.4-0.4,0.9-0.6,1.3
					l-0.4,0.6l-4.3,0C0.2,95.9,0,95.9,0,95.6L0,95.6z M80.4,95.7c0-0.1,0.3-0.3,0.6-0.5c0.4-0.2,0.7-0.5,0.9-0.9
					c0.5-0.8,1.8-7,1.9-8.2c0-1,0-1-0.5-1.3c-1.1-0.6-0.8-0.7,4-0.7c4.4,0,4.5,0,4.4,0.3c-0.1,0.1-0.2,0.7-0.3,1.3
					c-0.2,0.8-0.2,1-0.5,1c-0.3,0-0.3,0-0.3-0.3c0-1-0.6-1.2-2.9-1.2h-1.5l-0.4,1.8c-0.2,0.7-0.3,1.4-0.5,2.1
					c-0.1,0.2,0.1,0.2,1.3,0.2c1.6,0,2.1-0.2,2.5-0.8c0.4-0.6,1-0.6,0.8-0.1L89.6,90c-0.2,1-0.3,1.3-0.5,1.3c-0.2,0-0.3-0.2-0.4-0.4
					c-0.1-0.2-0.3-0.5-0.5-0.6c-0.4-0.2-2.9-0.3-3.1-0.1c-0.1,0.1-0.6,2.2-0.8,3.4c-0.1,0.6-0.1,0.7,0.3,0.9
					c0.3,0.2,0.7,0.2,1.8,0.2c1.7-0.1,2.2-0.3,2.9-1.2c0.3-0.4,0.6-0.6,0.7-0.5c0.3,0.1,0.3,0.4-0.2,1.4c-0.7,1.5-0.3,1.4-5.2,1.4
					C81.2,95.8,80.5,95.8,80.4,95.7L80.4,95.7z M161.2,95.7c0-0.1,0.2-0.3,0.5-0.4c1-0.3,1.3-1.1,2.3-5.8c0.9-4,0.8-4.6-0.2-4.9
					c-0.2-0.1-0.3-0.2-0.3-0.3c0.1-0.1,1.3-0.2,4.5-0.2c4.3,0,4.4,0,4.3,0.2c-0.1,0.2-0.2,0.7-0.3,1.3c-0.2,0.8-0.2,1-0.5,1
					c-0.3,0-0.4,0-0.4-0.4c0-0.9-0.8-1.2-2.9-1.1l-1.3,0l-0.4,1.9c-0.2,1-0.4,1.9-0.4,2c0,0.3,2.4,0.2,3,0c0.2-0.1,0.5-0.4,0.6-0.7
					c0.1-0.3,0.3-0.4,0.5-0.4c0.4,0,0.4-0.1,0,1.8c-0.3,1.4-0.4,1.6-0.6,1.6c-0.2,0-0.3-0.1-0.3-0.3c0-0.7-1.5-1.2-2.9-1l-0.6,0.1
					l-0.3,1.6c-0.6,2.8-0.5,3.1,0.3,3.4c1,0.4,0.4,0.5-2.1,0.5C161.7,95.8,161.3,95.7,161.2,95.7L161.2,95.7L161.2,95.7z M67.9,92.6
					c-0.7-0.3-1.3-1.2-1.3-1.9c0-1.1,1.1-2.2,2.4-2.2c1.5,0,2.4,0.8,2.4,2.1C71.4,92.3,69.7,93.3,67.9,92.6L67.9,92.6z M148.9,92.6
					c-0.3-0.1-0.7-0.4-0.9-0.7c-0.4-0.4-0.4-0.7-0.4-1.3c0-1.3,0.9-2.1,2.4-2.1c0.7,0,1,0.1,1.5,0.4c1.1,0.8,1.3,2.1,0.4,3.1
					C151,92.8,149.9,93,148.9,92.6L148.9,92.6L148.9,92.6z M53.8,87.5c-0.3-0.3-0.3-0.3,1.5-2.1l0.6-0.6l0.9,0.2
					c0.5,0.1,0.9,0.2,0.9,0.3c0,0.1-3.4,2.6-3.5,2.6C54.1,87.8,54,87.7,53.8,87.5L53.8,87.5z M134.7,87.5l-0.4-0.3l1.2-1.2
					c0.7-0.7,1.3-1.2,1.3-1.2c0.4,0,1.8,0.4,1.7,0.4c0,0.1-3,2.2-3.4,2.5C135.1,87.8,134.9,87.7,134.7,87.5L134.7,87.5z M240.4,87.5
					l-0.4-0.3l1.2-1.2c0.7-0.7,1.3-1.2,1.4-1.2c0.3,0,1.8,0.3,1.7,0.4c0,0.1-3,2.3-3.4,2.5C240.9,87.8,240.6,87.7,240.4,87.5
					L240.4,87.5z M13.5,86.8c-0.6-0.6,0-1.7,1-1.7c0.7,0,1,0.3,1,0.9C15.5,87,14.2,87.5,13.5,86.8L13.5,86.8z M120.8,86.9
					c-0.4-0.3-0.4-1.2,0-1.5c0.7-0.6,1.9-0.2,1.9,0.6C122.7,86.8,121.5,87.4,120.8,86.9L120.8,86.9z M226.4,86.8
					c-0.7-0.6,0-1.7,1-1.7c1,0,1.4,1,0.7,1.7C227.6,87.2,226.8,87.2,226.4,86.8L226.4,86.8z M87.1,82.7c-0.2-0.2-0.2-0.3,1-1.5
					l1.2-1.2l0.9,0.2c0.5,0.1,0.9,0.2,0.9,0.3c0,0.1-3.2,2.4-3.5,2.4C87.4,83,87.2,82.9,87.1,82.7L87.1,82.7z"/>
				<path class="st3" d="M139.9,74.6l0.4-0.9c0.6-1.6,1.3-2.8,2.2-4.1c1-1.4,3.2-3.4,4.1-3.8c1.1-0.5,2.5-0.7,4.2-0.5
					c1.5,0.1,6,0.8,7.9,1.2c1.4,0.3,3.4,0.3,4.4,0.1c1.9-0.5,3-1.4,3.5-3c0.4-1.2,0.4-2.3,0-3c-0.5-1-0.5-1.2,0.9-2.4
					c0.7-0.6,1.2-1.1,1.2-1.2c0-0.4-0.9-1.9-1.1-1.9c-0.1,0-0.4-0.1-0.6-0.3l-0.4-0.3l0.8-0.4c1.1-0.5,1.9-1.3,1.9-1.8
					c0-0.2-0.2-0.8-0.5-1.3c-0.5-0.9-0.7-1.8-0.4-2.3c0.2-0.3,0.5-0.5,2.2-0.9c1.4-0.4,1.9-0.7,2.1-1.6c0.2-0.7,0.1-1.1-0.4-2
					c-0.4-0.7-2.8-4.1-3.5-4.9c-1-1.1-2.1-3-2.5-4.1c-0.3-1-0.4-1.1-0.1-2.4c0.5-2.8,0.2-5.1-1.3-9.6c-1.1-3.3-1.4-4.2-1.8-4.8
					c-0.6-1.1-0.6-1.4,0.7-2.3c0.6-0.5,1.2-0.9,1.3-1.1c0.4-0.7-0.1-1.9-0.8-2.3c-0.5-0.2-0.7-0.1-1.2,0.7c-0.4,0.6-0.5,0.7-0.9,0.7
					c-0.6,0-0.7-0.2-0.3-0.7c0.5-0.6,0.4-0.7-0.3-0.8c-0.6-0.1-0.8-0.3-2-1.4c-1.6-1.5-2.7-2.1-4.8-3c-1-0.4-1.3-0.6-1-0.5
					c0.3,0,1.4,0.1,2.4,0.2c2.9,0.1,3.7-0.2,4.4-2.1c0.5-1.3,0.7-1.9-0.4-2.8L156.3,0h88.2v74.6H139.9L139.9,74.6z"/>
				<path class="st4" d="M64.7,74.6c-0.6-0.1-1.2-0.1-1.2-0.1c-0.1-0.1,0.7-0.5,4-2.3c1.1-0.6,1.5-0.9,1.4-1c-0.1-0.1-1-0.1-2.1-0.2
					c-1.5-0.1-1.9-0.1-2.4,0.1c-0.3,0.1-1.5,0.4-2.7,0.7c-2.9,0.7-3.8,1.1-4.8,2.3l-0.3,0.4H0V0h112.3l-2.2,1.3
					c-1.2,0.5-2.6,1.3-3.1,1.7c-1.7,1.3-4,4.2-4.6,5.8c-0.2,0.6-0.4,0.8-1.1,1.2c-1,0.6-2.2,1.8-3.2,3.1c-1.3,1.8-3.9,5.8-4.4,7
					c-0.8,1.7-0.7,3.1,0.4,8.3c0.5,2.3,1,4.6,1.2,5.2c0.2,0.6,0.3,1.5,0.4,2.1c0.1,1.1,0.2,1.3,0.9,2.6c0.2,0.4,0.3,0.8,0.3,0.9
					c0,0.1,0.1,0.3,0.3,0.4c0.2,0.1,0.3,0.3,0.3,0.5c0,0.2,0.4,0.7,1.2,1.5c1.8,1.8,3.1,3.5,3.1,4c0,0.4-0.7,0.6-1.9,0.3
					c-1.3-0.3-2.5-0.9-4.1-2.4c-0.7-0.6-1.3-1.1-1.3-0.9s0.5,0.7,1.1,1.3c1.2,1.2,1.4,1.5,1.1,2c-0.2,0.4-0.8,0.5-1.5,0.3
					c-0.9-0.2-1.4,0.1-1.2,0.7c0.1,0.4,0.1,0.4-0.2,0.4c-0.5-0.2-1.6-0.4-2.5-0.5c-0.9-0.1-1-0.1-1.5-0.8c-0.4-0.5-0.7-0.7-1.1-0.8
					c-1.6-0.4-5.5-1-8.1-1.3c-4.6-0.5-5.8-0.5-8-0.2c-1.7,0.2-2.2,0.3-3.1,0.7c-1.7,0.8-4.5,3.1-4.5,3.8c0,0.3,0.6,0.2,1.3-0.2
					c2.2-1.2,9.7-2.9,13.4-3.1c1.8-0.1,1.7,0-0.5,0.4c-0.6,0.1-2,0.4-3.2,0.7c-1.1,0.3-3.1,0.8-4.4,1.1c-1.3,0.3-2.7,0.6-3.2,0.8
					l-0.9,0.3l1.3,0c6.9,0.1,14.7,2,17.9,4.5c1.4,1.1,1.9,1.2,3.9,1c2.8-0.3,6.4-1.5,7.9-2.6c0.7-0.5,1.2-0.7,1.2-0.4
					c0,0.5-0.9,3-1.3,3.6c-0.4,0.7-0.5,0.8-0.2,1c0.1,0.1,0.2,0.2,0.2,0.2c-0.1,0.1,0.1,0.1,0.2,0.2c0.5,0.2,0.4,0.3-0.4,0.5
					C97.7,56,97,56.3,97,56.5c0,0.1,0.1,0.1,0.2,0.1c0.4,0,0.1,0.3-0.4,0.4c-0.4,0.1-0.4,0.1-0.3,0.2c0.2,0.1,0.2,0.1,0,0.1
					c-0.1,0-0.2,0.1-0.2,0.3c0,0.2-0.2,0.4-0.5,0.5c-0.8,0.3-0.6,0.5,0.5,0.4c0.6-0.1,0.9-0.1,0.8,0c-0.1,0-1,0.4-2,0.8
					c-1,0.4-2.2,0.9-2.8,1.1c-0.6,0.2-1.1,0.4-1.1,0.6c-0.1,0.2,0.2,0.2,1,0c0.1-0.1,0.3,0,0.3,0c0,0.1-1.7,0.9-3.7,1.9
					c-2,1-3.9,2-4.2,2.3c-0.3,0.3-0.7,0.5-0.8,0.5c-0.2,0-0.4,0.2-0.5,0.4c-0.3,0.6-0.3,0.7,0.5,0.6c1.1-0.2,1.6-0.2,1.7,0
					c0,0.1-0.1,0.2-0.2,0.2c-0.2,0-0.4,0.1-0.5,0.2c-0.1,0.1-0.4,0.2-0.6,0.2c-0.3,0-0.5,0.2-0.8,0.5c-0.2,0.2-0.5,0.5-0.6,0.5
					s0.1,0.1,0.6,0c7.2-0.5,8.5-0.7,11.4-2c2.5-1.1,5-2.8,6.8-4.5c0.5-0.5,1-0.9,1.1-0.9c0.2,0,0.1,0.8-0.3,1.5
					c-0.6,1.2-2,2.4-4.7,4c-1.4,0.8-2.9,1.6-3.3,1.7c-1.4,0.4-3.6,0.8-5.9,1.1c-7.5,1-10.4,1.7-13.3,3.4c-0.5,0.3-1,0.5-1.1,0.5
					c-0.1,0-0.5,0.2-0.8,0.4c-0.8,0.7-0.2,0.5,1.5-0.3c1.8-0.8,2.7-1,1.2-0.2c-1.8,1-3.1,1.6-4.4,1.6h-7L64.7,74.6L64.7,74.6z
					 M55.4,66.3c0.3-0.1,1.2-0.6,2.1-1.1c0.9-0.5,1.9-1,2.3-1.2l2.5-1c2-0.8,5-1.6,5.1-1.3c0.1,0.1,0.5,0.2,1,0.2
					c0.7,0,0.8,0.1,0.5,0.2c-0.2,0.1-0.4,0.2-0.4,0.2c0,0.3,1.5,0.2,2.1-0.1c0.2-0.1,0.8-0.2,1.2-0.3c0.5-0.1,0.8-0.2,0.8-0.3
					c0-0.2,0.1-0.2,0.6-0.1c0.7,0.1,2.1-0.1,6-1c2.6-0.6,4.6-1.2,6.3-1.9l1.3-0.5l-1.3-0.7c-3.1-1.8-6.2-2.9-13-4.6
					c-1.2-0.3-2.2-0.6-2.3-0.7c-0.1-0.1-0.1-0.1,0.2,0c0.7,0.2,1.2,0.3,1.2,0.1c0-0.2-0.5-0.4-1.5-0.5c-0.9-0.1-1.5-0.4-0.9-0.4
					c1,0-0.7-0.6-2.6-0.9c-1.4-0.2-1.5-0.3-0.9-0.5c0.5-0.2,1.1-1.1,0.9-1.4c-0.1-0.3-0.3-0.3-1,0.2c-1.5,0.9-2.8,2.4-3.6,3.9
					c-0.4,0.9-0.3,0.9,1.9,1c1.8,0.1,1.9,0.1,1.4,0.3c-0.4,0.2-0.8,0.3-1.2,0.3c-1.3,0.2-2,0.7-1.4,1.1c0.2,0.1,0.1,0.2-0.3,0.4
					C62,55.8,62,55.8,62.2,56c0.2,0.1,0.6,0.1,1,0.1c0.6,0,0.8,0,1.1,0.2l0.4,0.3L64,56.9c-0.4,0.2-0.8,0.6-1,0.9
					c-0.1,0.2-0.7,0.8-1.2,1.3c-0.5,0.5-0.9,1-0.9,1.1c0,0.1-0.7,0.8-1.6,1.4c-2.4,1.7-3.5,2.7-3.5,3.2c0,0.2-0.1,0.5-0.4,0.6
					c-0.8,0.4-1.1,1-0.7,1c0.1,0,0.4-0.1,0.7-0.2L55.4,66.3z M74,64.6c0.6-0.1,1.3-0.2,1.5-0.4l0.4-0.2l-0.8-0.3l-0.8-0.3l-0.8,0.3
					c-0.4,0.2-1,0.4-1.3,0.5c-1.2,0.4-1.3,0.9-0.2,0.8C72.7,64.8,73.4,64.7,74,64.6L74,64.6z M47,58.1c3.5-3.3,6-5.3,9.2-7.3
					c1.1-0.7,1.8-1.1,1.9-1c0.1,0.3,0.6,0.2,1.3-0.2c0.9-0.5,1.3-1,2.4-2.8c1.1-1.8,1.5-2.3,3.2-3.4c0.8-0.5,1.9-1.3,2.5-1.8
					c0.9-0.6,1.1-0.7,1-0.5c-0.1,0.2,0,0.3,0.1,0.3c0.4,0,2.1-0.7,2.1-0.8c0.1-0.3-1.6-0.5-2.9-0.4c-1,0.1-1.3,0.2-2.5,0.7
					c-2.9,1.4-4.9,2.9-8.9,6.5c-2.8,2.6-5.1,4.3-6.2,4.8c-0.4,0.2-0.6,0.5-1.1,1.3c-0.9,1.6-2.4,3.9-3.9,5.7
					c-1.4,1.8-1.7,2.4-0.6,1.2C45.4,59.6,46.2,58.8,47,58.1L47,58.1z M82.5,73.8c4.3-0.8,4.7-0.9,7.7-1c3.4-0.1,3.8-0.2,5.8-1.1
					c0.6-0.3,0.9-0.3,1-0.2c0.2,0.2,1.3-0.3,3.4-1.7c0.9-0.6,2.1-1.3,2.7-1.6c1-0.5,1.3-0.5,1.7-0.5c0.5,0.1,0.6,0,1.3-0.5
					c1.7-1.4,3.2-2,4.7-2c0.4,0,0.6,0.1,0.6,0.2c0,0.1,0.1,0.2,0.2,0.1c0.4-0.2,0.2,0-0.9,0.8c-1.3,0.9-1.2,1.2,0.1,0.3
					c1.3-0.8,1.3-0.8,1.3-0.5c0,0.2-0.5,0.7-1.4,1.3c-2.1,1.5-3.5,2.8-5.7,5l-2,1.9H78L82.5,73.8L82.5,73.8z M82.5,44.6
					c0.2,0,0.4,0,0.6,0c0.2,0,0,0.1-0.3,0.1C82.5,44.6,82.4,44.6,82.5,44.6z"/>
				<path class="st5" d="M156.7,39.1c-0.7-0.1-0.3-0.3,0.5-0.3c0.8,0,1.3-0.3,1.3-0.8c0-0.3-0.1-0.3-0.3-0.2c-0.2,0.1-0.4,0-0.6-0.2
					c-0.1-0.2-0.5-0.3-1-0.4c-0.9-0.1-2.4-0.9-2.1-1.1c0.1-0.1,0.6-0.2,1-0.2c0.8-0.1,0.9-0.1,1.1-0.6c0.1-0.3,0.3-0.5,0.6-0.6
					c0.2,0,0.6-0.2,0.8-0.4c0.2-0.2,0.9-0.7,1.6-1c1.1-0.7,1.8-1.3,1.5-1.6c-0.3-0.2-2.6-0.5-3.8-0.4c-1.3,0.1-3.6,0.5-4.5,0.8
					c-1,0.3-0.7,0,0.6-0.7c1.8-1,5.2-1.9,7.1-1.9c0.7,0,3.2,0.5,3.5,0.7c0.6,0.4-0.1,1.9-1.1,2.7l-0.4,0.3l0.7,0.7l-0.4,0.3
					c-0.2,0.1-0.5,0.3-0.6,0.3s-0.5,0.2-0.8,0.4c-0.4,0.4-0.5,0.5-0.4,0.8c0.1,0.2,0.1,0.4,0,0.6c-0.1,0.2-0.1,0.6-0.1,1.1
					c0.1,1-0.1,1.3-0.8,1.5C159.8,39.2,157.7,39.2,156.7,39.1L156.7,39.1L156.7,39.1z"/>
				<g>
					<path class="st6" d="M319.5,80.8h8.7V37.5h-8.7V53c-3.1-2.8-6.7-4.2-10.9-4.2c-9,0-16.3,6.7-16.3,16.5
						c0,9.6,7.7,16.4,16.5,16.4c4.4,0,7.6-1.4,10.7-4.1L319.5,80.8L319.5,80.8z M310.4,55.9c5.5,0,9.5,3.7,9.5,9.2
						c0,5.7-4.2,9.4-9.5,9.4c-5.4,0-9.3-3.9-9.3-9.3C301.1,60,304.6,55.9,310.4,55.9L310.4,55.9z M362.6,80.8h8.7V49.5h-8.7V53
						c-3.1-2.8-6.7-4.2-10.9-4.2c-9,0-16.3,6.7-16.3,16.5c0,9.6,7.7,16.4,16.5,16.4c4.4,0,7.6-1.4,10.7-4.1L362.6,80.8L362.6,80.8
						L362.6,80.8z M353.5,55.9c5.5,0,9.5,3.7,9.5,9.2c0,5.7-4.2,9.4-9.5,9.4c-5.4,0-9.3-3.9-9.3-9.3C344.1,60,347.7,55.9,353.5,55.9
						L353.5,55.9L353.5,55.9z M381,49.5h-4.4v6.7h4.4v24.5h8.7V56.3h5.2v-6.7h-5.1V38h-8.7L381,49.5L381,49.5z M425.3,80.8h8.7V49.5
						h-8.7V53c-3.1-2.8-6.7-4.2-10.9-4.2c-9,0-16.3,6.7-16.3,16.5c0,9.6,7.7,16.4,16.5,16.4c4.4,0,7.6-1.4,10.7-4.1L425.3,80.8
						L425.3,80.8L425.3,80.8z M416.1,55.9c5.5,0,9.5,3.7,9.5,9.2c0,5.7-4.2,9.4-9.5,9.4c-5.4,0-9.3-3.9-9.3-9.3
						C406.8,60,410.4,55.9,416.1,55.9L416.1,55.9z M447.4,72.6c-2.7,0-5,1.9-5,4.5c0,2.5,2.3,4.5,5,4.5c2.8,0,5-2.1,5-4.5
						S450.2,72.6,447.4,72.6z M495.2,49.5h-8.7V53c-3.3-2.8-6.7-4.2-11-4.2c-8.8,0-16.2,6.4-16.2,16c0,9.4,7.3,16.1,16.6,16.1
						c4.5,0,7.6-1.4,10.5-3.9c0,2.9-0.1,5.1-2.2,6.8c-1.6,1.3-4.2,2.1-7.4,2.1c-3.7,0-6.3-0.8-8-2.7h-9.6c2.3,6.5,8.4,9.9,17.9,9.9
						c5.3,0,9.5-1.1,12.6-3.5c4-3.1,5.3-7.1,5.3-13.2L495.2,49.5L495.2,49.5L495.2,49.5z M477.5,55.9c5.7,0,9.5,3.9,9.5,8.9
						c0,5.3-4,8.8-9.3,8.8c-5.4,0-9.5-3.6-9.5-8.8C468.1,60,471.8,55.9,477.5,55.9L477.5,55.9z M520.3,48.7c-9.5,0-17.9,7-17.9,16.5
						c0,9.2,8,16.4,18,16.4c10.6,0,18.3-7.4,18.3-16.5C538.7,55.9,530.4,48.7,520.3,48.7L520.3,48.7z M520.4,56.1
						c5.7,0,9.5,3.8,9.5,9.1c0,5.5-4.2,9-9.5,9c-5.6,0-9.3-3.8-9.3-9.1C511.1,60,515,56.1,520.4,56.1z M545.7,63.9
						c0,2.6-0.1,4.1,0.3,6.6c1.4,7.3,6.5,11.1,14.9,11.1c4.8,0,8.4-1.2,11.2-3.9c3.7-3.6,4.1-7.9,4.1-13.7V49.5h-8.7v16.7
						c0,5.3-1.9,8.2-6.5,8.2c-4.6,0-6.5-2.9-6.5-8.5V49.5h-8.7L545.7,63.9L545.7,63.9L545.7,63.9z M596,80.8h5.6l14.7-31.3h-8.8
						L598.8,68L590,49.5h-8.9L596,80.8L596,80.8z M623.6,74.6c1.1,0,2,0.3,2.8,1c0.8,0.7,1.2,1.5,1.2,2.5c0,1-0.4,1.8-1.2,2.5
						c-0.8,0.7-1.7,1-2.8,1c-1.1,0-2-0.3-2.8-1c-0.7-0.7-1.1-1.5-1.1-2.5s0.4-1.8,1.1-2.5C621.6,74.9,622.5,74.6,623.6,74.6
						L623.6,74.6L623.6,74.6z M660,50.3l-0.7,2.3h-5.6l-4.2,15.1c-1.9,6.7-3.7,11.8-5.6,15.5c-2.7,5.1-5.6,8.7-8.7,10.7
						c-2.4,1.5-4.7,2.2-7.1,2.2c-1.5,0-2.8-0.4-3.9-1.2c-0.8-0.6-1.2-1.3-1.2-2.2c0-0.7,0.3-1.4,1-1.9c0.6-0.5,1.4-0.8,2.4-0.8
						c0.7,0,1.3,0.2,1.8,0.6c0.5,0.4,0.7,0.8,0.7,1.4c0,0.5-0.3,1-0.8,1.4c-0.4,0.3-0.6,0.6-0.6,0.7c0,0.2,0.1,0.4,0.3,0.5
						c0.2,0.2,0.6,0.2,1.1,0.2c1.1,0,2.3-0.3,3.5-0.9c1.2-0.6,2.3-1.6,3.2-2.8c1-1.2,1.8-3,2.7-5.3c0.4-1,1.3-4.2,2.9-9.6l6.7-23.4
						H641l0.5-2.3c2.1,0,3.6-0.1,4.4-0.4c0.8-0.3,1.6-0.8,2.3-1.5c0.7-0.8,1.6-2.2,2.8-4.2c1.5-2.8,3-4.9,4.3-6.4
						c1.9-2.1,3.9-3.6,5.9-4.6c2.1-1,4.1-1.6,5.9-1.6c1.9,0,3.5,0.4,4.7,1.3c1.2,0.9,1.8,1.8,1.8,2.9c0,0.8-0.3,1.5-0.9,2
						c-0.6,0.6-1.3,0.8-2.3,0.8c-0.8,0-1.4-0.2-2-0.6c-0.5-0.4-0.7-0.9-0.7-1.5c0-0.4,0.2-0.8,0.5-1.3c0.3-0.6,0.5-0.9,0.5-1.1
						c0-0.3-0.1-0.6-0.3-0.7c-0.3-0.2-0.8-0.3-1.5-0.3c-1.6,0-3.1,0.5-4.3,1.4c-1.7,1.2-3.2,3.1-4.6,5.7c-0.7,1.4-2,4.7-3.8,10.1
						L660,50.3L660,50.3L660,50.3z"/>
					<path class="st6" d="M662.6,51.4l13.2-1.9l-5.5,16.8c4.5-6.9,8.5-11.7,12.2-14.5c2.1-1.6,3.8-2.4,5.1-2.4c0.8,0,1.5,0.2,2,0.7
						c0.5,0.4,0.7,1.1,0.7,1.9c0,1.5-0.4,3-1.3,4.4c-0.6,1-1.5,1.6-2.6,1.6c-0.6,0-1.1-0.2-1.5-0.5c-0.4-0.3-0.7-0.9-0.8-1.6
						c0-0.4-0.2-0.7-0.3-0.9c-0.2-0.2-0.5-0.3-0.7-0.3c-0.4,0-0.8,0.1-1.2,0.3c-0.7,0.3-1.7,1.2-3,2.7c-2.1,2.3-4.4,5.2-6.9,8.8
						c-1.1,1.5-2,3.2-2.8,5.1c-1.1,2.6-1.7,4.2-1.8,4.7l-1.2,4.4h-5.9l7.1-21.5c0.8-2.5,1.2-4.3,1.2-5.3c0-0.4-0.2-0.8-0.6-1
						c-0.5-0.4-1.2-0.6-2-0.6c-0.5,0-1.5,0.1-3,0.3L662.6,51.4L662.6,51.4L662.6,51.4z"/>
				</g>
			</g>
		</g>
	</g>
</g>
</svg>
