<svg xmlns="http://www.w3.org/2000/svg" width="139" height="140" fill="none" viewBox="0 0 139 140"><path fill="#F2F3F5" d="M61.855 69.027c-1.81-.002-3.61.27-5.338.806-8.641 2.614-14.056 11.172-12.717 20.1 1.339 8.929 9.027 15.522 18.055 15.484a18.867 18.867 0 0 0 5.365-.806c8.567-2.685 13.897-11.213 12.559-20.09-1.339-8.877-8.947-15.454-17.924-15.494Z"/><path fill="#006ADC" d="M56.851 76.867a13.9 13.9 0 1 1-17.208-9.119c7.262-2.158 14.916 1.897 17.208 9.119Z"/><path fill="#FFAD1D" d="M96.216 120.457c2.212 7.189-1.82 14.81-9.007 17.025-7.188 2.216-14.81-1.813-17.029-9-2.218-7.187 1.808-14.811 8.994-17.032a13.622 13.622 0 0 1 17.042 9.007Z"/><path fill="#6C38D9" d="M12.01 100.33a9.396 9.396 0 1 0 1.382 18.689 9.397 9.397 0 0 0-1.382-18.689"/><path fill="#FE5455" d="M98.801 83.51a6.424 6.424 0 0 0-2.03.307 6.95 6.95 0 0 0 2.03 13.594 7.526 7.526 0 0 0 2.057-.306 6.95 6.95 0 0 0-2.057-13.594Z"/><path fill="#B3B4C3" d="M24.13 29.662c-1.546 0-3.083.234-4.559.695-7.724 2.398-12.294 10.346-10.48 18.228 1.813 7.882 9.397 13.033 17.392 11.814 7.996-1.218 13.7-8.395 13.083-16.46-.618-8.064-7.348-14.289-15.436-14.277Z"/><path fill="#E6E6EB" d="M86.18 2.696c-2.886.001-5.754.442-8.507 1.307-13.586 4.23-22.067 17.723-19.988 31.8 2.079 14.076 14.1 24.54 28.328 24.662a29.247 29.247 0 0 0 8.507-1.28c13.632-4.195 22.16-17.714 20.077-31.824-2.084-14.11-14.154-24.587-28.417-24.665"/><path fill="#18A47D" d="M114.341 18.96a11.926 11.926 0 0 0-11.872 10.85 11.926 11.926 0 0 0 11.9 13.002 11.927 11.927 0 1 0-.028-23.853Z"/></svg>