<svg width="286" height="274" viewBox="0 0 143 137" fill="none" xmlns="http://www.w3.org/2000/svg">
<path d="M69.1993 122.238C69.0489 122.238 70.3487 123.087 50.5194 109.54C43.2866 104.602 37.3688 97.9731 33.2802 90.2285C29.1916 82.4839 27.0559 73.8581 27.0586 65.1005V25.7549C27.0587 25.7041 27.0718 25.654 27.0965 25.6096C27.1213 25.5651 27.1569 25.5277 27.2 25.5007C27.2466 25.4706 31.9945 22.4995 39.5043 19.5719C46.4365 16.864 57.2154 13.6477 69.1993 13.6477C81.1832 13.6477 91.9606 16.8686 98.8928 19.5719C106.404 22.4995 111.152 25.4706 111.199 25.5007C111.242 25.5277 111.277 25.5651 111.302 25.6096C111.327 25.654 111.34 25.7041 111.34 25.7549V65.1005C111.342 73.8588 109.205 82.485 105.115 90.2296C101.025 97.9743 95.1059 104.603 87.8717 109.54C68.0319 123.099 69.3437 122.238 69.1993 122.238ZM27.6603 25.9249V65.1005C27.6576 73.7599 29.7693 82.2891 33.812 89.9469C37.8547 97.6047 43.7062 104.16 50.8579 109.042L69.1993 121.572L87.5407 109.042C94.6925 104.16 100.544 97.6047 104.587 89.9469C108.629 82.2891 110.741 73.7599 110.738 65.1005V25.9249C109.902 25.4164 105.407 22.7567 98.6611 20.1285C91.7801 17.4462 81.0824 14.2509 69.1993 14.2509C57.3162 14.2509 46.6186 17.4462 39.7375 20.1285C32.9919 22.7567 28.4968 25.4164 27.6603 25.9249Z" fill="#000091"/>
<path d="M54.0833 104.323C47.6996 99.9646 42.4767 94.1138 38.8682 87.2784C35.2596 80.443 33.3746 72.8299 33.377 65.1005V29.2827C39.1478 26.274 53.1475 19.9676 69.1993 19.9676C85.251 19.9676 99.2433 26.2679 105.022 29.2827V65.1005C105.024 72.8299 103.139 80.443 99.5304 87.2784C95.9219 94.1138 90.6989 99.9646 84.3153 104.323L69.1993 114.649L54.0833 104.323Z" fill="#FCC63A"/>
<path d="M0.736328 85.9227H71.6288V98.6302H0.736328V85.9227Z" fill="#18753C"/>
<path d="M9.87998 95.9704C9.80018 95.9704 9.72365 95.9387 9.66723 95.8823C9.6108 95.8259 9.5791 95.7493 9.5791 95.6695V88.7103C9.5791 88.6305 9.6108 88.5539 9.66723 88.4975C9.72365 88.4411 9.80018 88.4094 9.87998 88.4094C9.95978 88.4094 10.0363 88.4411 10.0927 88.4975C10.1492 88.5539 10.1809 88.6305 10.1809 88.7103V95.6695C10.1809 95.7493 10.1492 95.8259 10.0927 95.8823C10.0363 95.9387 9.95978 95.9704 9.87998 95.9704Z" fill="white"/>
<path d="M6.86675 94.2299C6.80062 94.2297 6.73636 94.2078 6.68393 94.1675C6.63149 94.1272 6.5938 94.0708 6.57667 94.0069C6.55954 93.943 6.56394 93.8753 6.58918 93.8141C6.61443 93.753 6.6591 93.7019 6.71631 93.6687L12.7504 90.1891C12.7846 90.1673 12.8229 90.1527 12.863 90.1461C12.903 90.1395 12.944 90.1411 12.9834 90.1508C13.0228 90.1604 13.0598 90.1779 13.0923 90.2023C13.1248 90.2266 13.152 90.2573 13.1723 90.2924C13.1926 90.3276 13.2056 90.3664 13.2105 90.4067C13.2154 90.447 13.2121 90.4879 13.2008 90.5268C13.1895 90.5658 13.1704 90.6021 13.1447 90.6335C13.119 90.6649 13.0872 90.6908 13.0513 90.7096C6.60499 94.4284 6.9856 94.2299 6.86675 94.2299Z" fill="white"/>
<path d="M12.901 94.2299C12.7806 94.2299 13.1522 94.4224 6.72247 90.7096C6.65698 90.668 6.61011 90.6027 6.59165 90.5273C6.57319 90.4519 6.58456 90.3723 6.6234 90.3051C6.66223 90.2379 6.72552 90.1884 6.80005 90.1667C6.87458 90.1451 6.95459 90.1531 7.02335 90.1891L13.0514 93.6687C13.1086 93.7019 13.1533 93.753 13.1785 93.8142C13.2038 93.8753 13.2082 93.943 13.191 94.0069C13.1739 94.0708 13.1362 94.1272 13.0838 94.1675C13.0314 94.2078 12.9671 94.2297 12.901 94.2299ZM20.4921 96.0291C20.4123 96.0291 20.3357 95.9974 20.2793 95.941C20.2229 95.8846 20.1912 95.808 20.1912 95.7282V88.7675C20.1912 88.6877 20.2229 88.6111 20.2793 88.5547C20.3357 88.4983 20.4123 88.4666 20.4921 88.4666C20.5719 88.4666 20.6484 88.4983 20.7048 88.5547C20.7612 88.6111 20.7929 88.6877 20.7929 88.7675V95.7282C20.7929 95.808 20.7612 95.8846 20.7048 95.941C20.6484 95.9974 20.5719 96.0291 20.4921 96.0291Z" fill="white"/>
<path d="M17.4791 94.2885C17.4129 94.2884 17.3487 94.2665 17.2962 94.2262C17.2438 94.1859 17.2061 94.1294 17.189 94.0656C17.1718 94.0017 17.1762 93.9339 17.2015 93.8728C17.2267 93.8117 17.2714 93.7606 17.3286 93.7274L23.3567 90.2478C23.3909 90.226 23.4292 90.2114 23.4693 90.2048C23.5093 90.1982 23.5503 90.1998 23.5897 90.2094C23.6291 90.2191 23.6661 90.2366 23.6986 90.261C23.7311 90.2853 23.7583 90.316 23.7786 90.3511C23.7989 90.3862 23.8119 90.4251 23.8168 90.4654C23.8217 90.5057 23.8184 90.5465 23.807 90.5855C23.7957 90.6245 23.7767 90.6608 23.751 90.6922C23.7253 90.7236 23.6935 90.7495 23.6575 90.7683C17.2158 94.4856 17.5964 94.2885 17.4791 94.2885Z" fill="white"/>
<path d="M23.5055 94.2885C23.3866 94.2885 23.7567 94.4811 17.327 90.7683C17.2615 90.7266 17.2146 90.6613 17.1961 90.5859C17.1777 90.5106 17.1891 90.431 17.2279 90.3638C17.2667 90.2966 17.33 90.247 17.4045 90.2254C17.4791 90.2038 17.5591 90.2118 17.6278 90.2478L23.6559 93.7274C23.7131 93.7606 23.7578 93.8117 23.783 93.8728C23.8083 93.9339 23.8127 94.0017 23.7955 94.0656C23.7784 94.1294 23.7407 94.1859 23.6883 94.2262C23.6358 94.2665 23.5716 94.2884 23.5055 94.2885ZM31.1041 96.0863C31.0243 96.0863 30.9478 96.0546 30.8913 95.9981C30.8349 95.9417 30.8032 95.8652 30.8032 95.7854V88.8261C30.8032 88.7463 30.8349 88.6698 30.8913 88.6134C30.9478 88.5569 31.0243 88.5252 31.1041 88.5252C31.1839 88.5252 31.2604 88.5569 31.3168 88.6134C31.3733 88.6698 31.405 88.7463 31.405 88.8261V95.7854C31.405 95.8652 31.3733 95.9417 31.3168 95.9981C31.2604 96.0546 31.1839 96.0863 31.1041 96.0863Z" fill="white"/>
<path d="M28.095 94.3547C28.0284 94.3552 27.9635 94.3335 27.9105 94.2931C27.8575 94.2527 27.8194 94.1959 27.8022 94.1315C27.785 94.0672 27.7896 93.9989 27.8154 93.9375C27.8411 93.8761 27.8866 93.8249 27.9445 93.7921L33.9621 90.3049C34.0313 90.265 34.1135 90.2542 34.1907 90.275C34.2678 90.2957 34.3336 90.3462 34.3735 90.4155C34.4134 90.4847 34.4242 90.5669 34.4034 90.6441C34.3827 90.7213 34.3322 90.787 34.2629 90.8269C27.8257 94.5442 28.2078 94.3547 28.095 94.3547Z" fill="white"/>
<path d="M34.113 94.3547C33.9941 94.3547 34.3657 94.5458 27.936 90.8345C27.8668 90.7946 27.8162 90.7288 27.7955 90.6516C27.7747 90.5745 27.7855 90.4922 27.8254 90.423C27.8653 90.3538 27.9311 90.3032 28.0082 90.2825C28.0854 90.2618 28.1676 90.2725 28.2369 90.3124L34.2634 93.7846C34.3256 93.8153 34.3753 93.8665 34.404 93.9297C34.4328 93.9929 34.4388 94.064 34.4211 94.1311C34.4034 94.1982 34.3631 94.2571 34.3069 94.2978C34.2508 94.3386 34.1822 94.3587 34.113 94.3547ZM41.7131 96.1449C41.6333 96.1449 41.5568 96.1132 41.5004 96.0568C41.4439 96.0004 41.4122 95.9238 41.4122 95.8441V88.8833C41.4122 88.8035 41.4439 88.7269 41.5004 88.6705C41.5568 88.6141 41.6333 88.5824 41.7131 88.5824C41.7929 88.5824 41.8694 88.6141 41.9259 88.6705C41.9823 88.7269 42.014 88.8035 42.014 88.8833V95.8441C42.014 95.9238 41.9823 96.0004 41.9259 96.0568C41.8694 96.1132 41.7929 96.1449 41.7131 96.1449Z" fill="white"/>
<path d="M38.6998 94.4044C38.6336 94.4043 38.5694 94.3824 38.5169 94.3421C38.4645 94.3018 38.4268 94.2453 38.4097 94.1814C38.3926 94.1175 38.3969 94.0498 38.4222 93.9887C38.4474 93.9275 38.4921 93.8764 38.5493 93.8432L44.5759 90.3636C44.6101 90.3418 44.6484 90.3272 44.6884 90.3206C44.7285 90.3141 44.7694 90.3156 44.8089 90.3253C44.8483 90.3349 44.8853 90.3525 44.9178 90.3768C44.9503 90.4012 44.9775 90.4318 44.9978 90.467C45.0181 90.5021 45.0311 90.541 45.036 90.5813C45.0409 90.6215 45.0375 90.6624 45.0262 90.7014C45.0149 90.7403 44.9959 90.7766 44.9702 90.808C44.9445 90.8394 44.9127 90.8653 44.8767 90.8841C38.438 94.603 38.8186 94.4044 38.6998 94.4044Z" fill="white"/>
<path d="M44.7261 94.4044C44.6073 94.4044 44.9788 94.5969 38.5491 90.8841C38.5132 90.8653 38.4814 90.8394 38.4557 90.808C38.43 90.7766 38.4109 90.7403 38.3996 90.7014C38.3883 90.6624 38.385 90.6215 38.3899 90.5813C38.3948 90.541 38.4078 90.5021 38.4281 90.467C38.4484 90.4318 38.4756 90.4012 38.5081 90.3768C38.5405 90.3525 38.5776 90.3349 38.617 90.3253C38.6564 90.3156 38.6974 90.3141 38.7374 90.3206C38.7774 90.3272 38.8157 90.3418 38.85 90.3636L44.8765 93.8432C44.9337 93.8764 44.9784 93.9275 45.0037 93.9887C45.0289 94.0498 45.0333 94.1175 45.0162 94.1814C44.9991 94.2453 44.9614 94.3018 44.9089 94.3421C44.8565 94.3824 44.7922 94.4043 44.7261 94.4044ZM54.7107 95.5582H48.1034C48.0236 95.5582 47.9471 95.5265 47.8907 95.4701C47.8343 95.4137 47.8026 95.3372 47.8026 95.2574C47.8026 95.1776 47.8343 95.101 47.8907 95.0446C47.9471 94.9882 48.0236 94.9565 48.1034 94.9565H54.7152C54.795 94.9565 54.8715 94.9882 54.9279 95.0446C54.9844 95.101 55.0161 95.1776 55.0161 95.2574C55.0161 95.3372 54.9844 95.4137 54.9279 95.4701C54.8715 95.5265 54.795 95.5582 54.7152 95.5582H54.7107ZM65.4986 95.5582H58.8868C58.807 95.5582 58.7305 95.5265 58.6741 95.4701C58.6177 95.4137 58.586 95.3372 58.586 95.2574C58.586 95.1776 58.6177 95.101 58.6741 95.0446C58.7305 94.9882 58.807 94.9565 58.8868 94.9565H65.4986C65.5784 94.9565 65.6549 94.9882 65.7113 95.0446C65.7678 95.101 65.7995 95.1776 65.7995 95.2574C65.7995 95.3372 65.7678 95.4137 65.7113 95.4701C65.6549 95.5265 65.5784 95.5582 65.4986 95.5582Z" fill="white"/>
<path d="M80.4869 58.0269H76.6552V48.6561C76.6552 46.6788 75.8697 44.7824 74.4715 43.3842C73.0733 41.9859 71.1769 41.2004 69.1995 41.2004C67.2221 41.2004 65.3257 41.9859 63.9275 43.3842C62.5293 44.7824 61.7438 46.6788 61.7438 48.6561V58.0269H57.9121V48.6561C57.9121 45.6625 59.1013 42.7916 61.2181 40.6748C63.3349 38.558 66.2059 37.3688 69.1995 37.3688C72.1931 37.3688 75.0641 38.558 77.1809 40.6748C79.2977 42.7916 80.4869 45.6625 80.4869 48.6561V58.0269Z" fill="#B34000"/>
<path d="M82.4663 51.3384H55.932C54.714 51.3384 53.7266 52.3258 53.7266 53.5439V72.8737C53.7266 74.0917 54.714 75.0791 55.932 75.0791H82.4663C83.6843 75.0791 84.6717 74.0917 84.6717 72.8737V53.5439C84.6717 52.3258 83.6843 51.3384 82.4663 51.3384Z" fill="#CE0500"/>
<path d="M69.1994 64.0896C70.6401 64.0896 71.808 62.9217 71.808 61.481C71.808 60.0403 70.6401 58.8724 69.1994 58.8724C67.7587 58.8724 66.5908 60.0403 66.5908 61.481C66.5908 62.9217 67.7587 64.0896 69.1994 64.0896Z" fill="white"/>
<path d="M67.9873 62.4739H70.4124V67.5451H67.9873V62.4739Z" fill="white"/>
<path d="M132.041 125.309C137.932 125.309 142.708 120.533 142.708 114.641C142.708 108.75 137.932 103.974 132.041 103.974C126.149 103.974 121.373 108.75 121.373 114.641C121.373 120.533 126.149 125.309 132.041 125.309Z" fill="#000091"/>
<path d="M136.64 117.828C138.4 117.828 139.827 116.401 139.827 114.641C139.827 112.882 138.4 111.455 136.64 111.455C134.881 111.455 133.454 112.882 133.454 114.641C133.454 116.401 134.881 117.828 136.64 117.828Z" fill="white"/>
<path d="M128.485 110.44V118.843H117.924C117.895 118.378 117.689 117.942 117.349 117.623C117.009 117.304 116.56 117.127 116.094 117.127C115.628 117.127 115.18 117.304 114.84 117.623C114.5 117.942 114.294 118.378 114.264 118.843H109.312L107.367 117.551L105.468 118.843L103.488 117.551L101.984 118.843H96.5923L93.3594 114.75L96.5923 110.44H128.485Z" fill="#000091"/>
<path d="M121.59 114.404H98.5323C98.4525 114.404 98.376 114.372 98.3196 114.316C98.2631 114.259 98.2314 114.183 98.2314 114.103C98.2314 114.023 98.2631 113.946 98.3196 113.89C98.376 113.834 98.4525 113.802 98.5323 113.802H121.59C121.67 113.802 121.746 113.834 121.803 113.89C121.859 113.946 121.891 114.023 121.891 114.103C121.891 114.183 121.859 114.259 121.803 114.316C121.746 114.372 121.67 114.404 121.59 114.404Z" fill="white"/>
<path d="M133.197 99.2048C133.117 99.2048 133.041 99.1731 132.984 99.1167C132.928 99.0603 132.896 98.9838 132.896 98.904V97.0987C132.896 97.0189 132.928 96.9424 132.984 96.886C133.041 96.8295 133.117 96.7978 133.197 96.7978C133.277 96.7978 133.354 96.8295 133.41 96.886C133.466 96.9424 133.498 97.0189 133.498 97.0987V98.904C133.498 98.9838 133.466 99.0603 133.41 99.1167C133.354 99.1731 133.277 99.2048 133.197 99.2048ZM133.197 95.5943C133.117 95.5943 133.041 95.5626 132.984 95.5062C132.928 95.4498 132.896 95.3732 132.896 95.2934V93.4882C132.896 93.4084 132.928 93.3319 132.984 93.2754C133.041 93.219 133.117 93.1873 133.197 93.1873C133.277 93.1873 133.354 93.219 133.41 93.2754C133.466 93.3319 133.498 93.4084 133.498 93.4882V95.2934C133.498 95.3732 133.466 95.4498 133.41 95.5062C133.354 95.5626 133.277 95.5943 133.197 95.5943ZM133.197 91.9838C133.117 91.9838 133.041 91.9521 132.984 91.8957C132.928 91.8393 132.896 91.7627 132.896 91.6829V89.8777C132.896 89.7979 132.928 89.7214 132.984 89.6649C133.041 89.6085 133.117 89.5768 133.197 89.5768C133.277 89.5768 133.354 89.6085 133.41 89.6649C133.466 89.7214 133.498 89.7979 133.498 89.8777V91.6829C133.498 91.7627 133.466 91.8393 133.41 91.8957C133.354 91.9521 133.277 91.9838 133.197 91.9838ZM133.197 88.3733C133.117 88.3733 133.041 88.3416 132.984 88.2852C132.928 88.2288 132.896 88.1522 132.896 88.0724V86.2672C132.896 86.1874 132.928 86.1108 132.984 86.0544C133.041 85.998 133.117 85.9663 133.197 85.9663C133.277 85.9663 133.354 85.998 133.41 86.0544C133.466 86.1108 133.498 86.1874 133.498 86.2672V88.0724C133.498 88.1522 133.466 88.2288 133.41 88.2852C133.354 88.3416 133.277 88.3733 133.197 88.3733ZM133.197 84.7628C133.117 84.7628 133.041 84.7311 132.984 84.6747C132.928 84.6182 132.896 84.5417 132.896 84.4619V82.6566C132.896 82.5769 132.928 82.5003 132.984 82.4439C133.041 82.3875 133.117 82.3558 133.197 82.3558C133.277 82.3558 133.354 82.3875 133.41 82.4439C133.466 82.5003 133.498 82.5769 133.498 82.6566V84.4619C133.498 84.5417 133.466 84.6182 133.41 84.6747C133.354 84.7311 133.277 84.7628 133.197 84.7628ZM133.197 81.1523C133.117 81.1523 133.041 81.1206 132.984 81.0641C132.928 81.0077 132.896 80.9312 132.896 80.8514V79.0461C132.896 78.9663 132.928 78.8898 132.984 78.8334C133.041 78.777 133.117 78.7453 133.197 78.7453C133.277 78.7453 133.354 78.777 133.41 78.8334C133.466 78.8898 133.498 78.9663 133.498 79.0461V80.8514C133.498 80.9312 133.466 81.0077 133.41 81.0641C133.354 81.1206 133.277 81.1523 133.197 81.1523ZM133.197 77.5418C133.117 77.5418 133.041 77.5101 132.984 77.4536C132.928 77.3972 132.896 77.3207 132.896 77.2409V75.4356C132.896 75.3558 132.928 75.2793 132.984 75.2229C133.041 75.1664 133.117 75.1347 133.197 75.1347C133.277 75.1347 133.354 75.1664 133.41 75.2229C133.466 75.2793 133.498 75.3558 133.498 75.4356V77.2409C133.498 77.3207 133.466 77.3972 133.41 77.4536C133.354 77.5101 133.277 77.5418 133.197 77.5418ZM133.197 73.9312C133.117 73.9312 133.041 73.8995 132.984 73.8431C132.928 73.7867 132.896 73.7102 132.896 73.6304V71.8251C132.896 71.7453 132.928 71.6688 132.984 71.6124C133.041 71.5559 133.117 71.5242 133.197 71.5242C133.277 71.5242 133.354 71.5559 133.41 71.6124C133.466 71.6688 133.498 71.7453 133.498 71.8251V73.6304C133.498 73.7102 133.466 73.7867 133.41 73.8431C133.354 73.8995 133.277 73.9312 133.197 73.9312ZM133.197 70.3207C133.117 70.3207 133.041 70.289 132.984 70.2326C132.928 70.1762 132.896 70.0996 132.896 70.0198V68.2146C132.896 68.1348 132.928 68.0583 132.984 68.0018C133.041 67.9454 133.117 67.9137 133.197 67.9137C133.277 67.9137 133.354 67.9454 133.41 68.0018C133.466 68.0583 133.498 68.1348 133.498 68.2146V70.0198C133.498 70.0996 133.466 70.1762 133.41 70.2326C133.354 70.289 133.277 70.3207 133.197 70.3207ZM133.197 66.7102C133.117 66.7102 133.041 66.6785 132.984 66.6221C132.928 66.5657 132.896 66.4891 132.896 66.4093V64.6041C132.896 64.5243 132.928 64.4477 132.984 64.3913C133.041 64.3349 133.117 64.3032 133.197 64.3032C133.277 64.3032 133.354 64.3349 133.41 64.3913C133.466 64.4477 133.498 64.5243 133.498 64.6041V66.4093C133.498 66.4891 133.466 66.5657 133.41 66.6221C133.354 66.6785 133.277 66.7102 133.197 66.7102ZM133.197 63.0997C133.117 63.0997 133.041 63.068 132.984 63.0116C132.928 62.9551 132.896 62.8786 132.896 62.7988V60.9936C132.896 60.9138 132.928 60.8372 132.984 60.7808C133.041 60.7244 133.117 60.6927 133.197 60.6927C133.277 60.6927 133.354 60.7244 133.41 60.7808C133.466 60.8372 133.498 60.9138 133.498 60.9936V62.7988C133.498 62.8786 133.466 62.9551 133.41 63.0116C133.354 63.068 133.277 63.0997 133.197 63.0997ZM132.216 60.47H130.411C130.331 60.47 130.255 60.4383 130.198 60.3819C130.142 60.3255 130.11 60.249 130.11 60.1692C130.11 60.0894 130.142 60.0128 130.198 59.9564C130.255 59.9 130.331 59.8683 130.411 59.8683H132.216C132.296 59.8683 132.373 59.9 132.429 59.9564C132.486 60.0128 132.517 60.0894 132.517 60.1692C132.517 60.249 132.486 60.3255 132.429 60.3819C132.373 60.4383 132.296 60.47 132.216 60.47ZM128.606 60.47H126.801C126.721 60.47 126.644 60.4383 126.588 60.3819C126.531 60.3255 126.5 60.249 126.5 60.1692C126.5 60.0894 126.531 60.0128 126.588 59.9564C126.644 59.9 126.721 59.8683 126.801 59.8683H128.606C128.686 59.8683 128.762 59.9 128.819 59.9564C128.875 60.0128 128.907 60.0894 128.907 60.1692C128.907 60.249 128.875 60.3255 128.819 60.3819C128.762 60.4383 128.686 60.47 128.606 60.47ZM124.995 60.47H123.19C123.11 60.47 123.034 60.4383 122.977 60.3819C122.921 60.3255 122.889 60.249 122.889 60.1692C122.889 60.0894 122.921 60.0128 122.977 59.9564C123.034 59.9 123.11 59.8683 123.19 59.8683H124.995C125.075 59.8683 125.152 59.9 125.208 59.9564C125.264 60.0128 125.296 60.0894 125.296 60.1692C125.296 60.249 125.264 60.3255 125.208 60.3819C125.152 60.4383 125.075 60.47 124.995 60.47ZM121.385 60.47H119.58C119.5 60.47 119.423 60.4383 119.367 60.3819C119.31 60.3255 119.279 60.249 119.279 60.1692C119.279 60.0894 119.31 60.0128 119.367 59.9564C119.423 59.9 119.5 59.8683 119.58 59.8683H121.385C121.465 59.8683 121.541 59.9 121.598 59.9564C121.654 60.0128 121.686 60.0894 121.686 60.1692C121.686 60.249 121.654 60.3255 121.598 60.3819C121.541 60.4383 121.465 60.47 121.385 60.47ZM117.774 60.47H115.969C115.889 60.47 115.813 60.4383 115.756 60.3819C115.7 60.3255 115.668 60.249 115.668 60.1692C115.668 60.0894 115.7 60.0128 115.756 59.9564C115.813 59.9 115.889 59.8683 115.969 59.8683H117.774C117.854 59.8683 117.931 59.9 117.987 59.9564C118.043 60.0128 118.075 60.0894 118.075 60.1692C118.075 60.249 118.043 60.3255 117.987 60.3819C117.931 60.4383 117.854 60.47 117.774 60.47ZM114.164 60.47H112.358C112.279 60.47 112.202 60.4383 112.146 60.3819C112.089 60.3255 112.058 60.249 112.058 60.1692C112.058 60.0894 112.089 60.0128 112.146 59.9564C112.202 59.9 112.279 59.8683 112.358 59.8683H114.164C114.244 59.8683 114.32 59.9 114.377 59.9564C114.433 60.0128 114.465 60.0894 114.465 60.1692C114.465 60.249 114.433 60.3255 114.377 60.3819C114.32 60.4383 114.244 60.47 114.164 60.47Z" fill="#000091"/>
<path d="M104.036 12.9165C103.992 12.9173 103.948 12.9081 103.907 12.8897C103.867 12.8713 103.831 12.8442 103.802 12.8102C103.773 12.7763 103.752 12.7363 103.741 12.6933C103.729 12.6503 103.727 12.6053 103.736 12.5615L105.906 0.64681C105.921 0.56821 105.965 0.498455 106.031 0.452892C106.097 0.407329 106.178 0.389689 106.256 0.403853C106.335 0.418017 106.404 0.462825 106.45 0.52842C106.496 0.594014 106.513 0.675021 106.499 0.753621L104.331 12.6668C104.319 12.7364 104.283 12.7996 104.229 12.8453C104.175 12.8909 104.107 12.9162 104.036 12.9165ZM111.828 16.6038C111.77 16.6035 111.714 16.587 111.666 16.556C111.618 16.5251 111.58 16.4811 111.556 16.4291C111.532 16.3771 111.523 16.3194 111.531 16.2627C111.538 16.2059 111.562 16.1526 111.599 16.1088L119.437 6.87495C119.488 6.8141 119.562 6.77628 119.642 6.76979C119.721 6.7633 119.8 6.78868 119.861 6.84035C119.922 6.89202 119.96 6.96574 119.966 7.0453C119.973 7.12486 119.947 7.20374 119.896 7.26458L112.056 16.4985C112.028 16.5315 111.993 16.558 111.953 16.5762C111.914 16.5944 111.871 16.6038 111.828 16.6038ZM115.465 24.1467C115.403 24.1469 115.342 24.1278 115.291 24.0919C115.24 24.0561 115.202 24.0053 115.181 23.9467C115.154 23.8717 115.159 23.7892 115.193 23.7173C115.227 23.6454 115.288 23.5899 115.363 23.563L128.036 19.0319C128.111 19.0051 128.194 19.0094 128.266 19.0436C128.338 19.0779 128.393 19.1394 128.42 19.2146C128.447 19.2898 128.443 19.3726 128.408 19.4447C128.374 19.5168 128.313 19.5723 128.237 19.599C114.642 24.4597 115.545 24.1467 115.465 24.1467ZM16.0752 136.694C13.3455 136.695 10.6631 135.981 8.29455 134.624C8.26027 134.604 8.23023 134.578 8.20612 134.547C8.18201 134.515 8.16432 134.479 8.15405 134.441C8.14378 134.403 8.14114 134.363 8.14628 134.324C8.15141 134.285 8.16422 134.247 8.18398 134.213C8.20373 134.178 8.23005 134.148 8.26142 134.124C8.29279 134.1 8.3286 134.082 8.3668 134.072C8.40501 134.062 8.44487 134.059 8.48409 134.064C8.52332 134.069 8.56115 134.082 8.59543 134.102C11.9205 136.008 15.8471 136.576 19.5758 135.689C23.3045 134.801 26.5548 132.526 28.6649 129.327C30.7751 126.127 31.5863 122.243 30.9334 118.467C30.2805 114.69 28.2126 111.304 25.1508 108.998C22.089 106.693 18.2635 105.641 14.4534 106.057C10.6432 106.473 7.13492 108.326 4.64286 111.238C2.1508 114.15 0.862376 117.902 1.03996 121.731C1.21755 125.56 2.84778 129.177 5.5987 131.845C5.64099 131.903 5.66113 131.975 5.65548 132.046C5.64983 132.118 5.61877 132.185 5.56791 132.236C5.51704 132.286 5.44973 132.317 5.37813 132.323C5.30652 132.328 5.23535 132.308 5.17747 132.265C2.57587 129.737 0.934092 126.383 0.533277 122.778C0.132462 119.172 0.997549 115.54 2.98039 112.502C4.96324 109.464 7.94049 107.211 11.4023 106.127C14.8641 105.042 18.5951 105.196 21.9564 106.56C25.3177 107.924 28.1002 110.414 29.8274 113.604C31.5545 116.794 32.1189 120.486 31.4239 124.046C30.7289 127.606 28.8177 130.814 26.0177 133.121C23.2176 135.427 19.7028 136.688 16.0752 136.688V136.694Z" fill="#18753C"/>
<path d="M27.2197 127.466C26.0926 129.426 24.4688 131.054 22.5119 132.186C20.5551 133.318 18.3344 133.914 16.0737 133.914C13.813 133.914 11.5923 133.318 9.63549 132.186C7.67864 131.054 6.05481 129.426 4.92773 127.466C6.05523 125.507 7.67911 123.88 9.63577 122.749C11.5924 121.617 13.8127 121.022 16.0729 121.022C18.3332 121.022 20.5535 121.617 22.5101 122.749C24.4668 123.88 26.0907 125.507 27.2182 127.466H27.2197Z" fill="#18753C"/>
<path d="M16.0751 121.583C19.1816 121.583 21.7 119.064 21.7 115.958C21.7 112.851 19.1816 110.333 16.0751 110.333C12.9685 110.333 10.4502 112.851 10.4502 115.958C10.4502 119.064 12.9685 121.583 16.0751 121.583Z" fill="#18753C"/>
<path d="M43.3242 121.199H41.519C41.4392 121.199 41.3627 121.167 41.3062 121.111C41.2498 121.054 41.2181 120.978 41.2181 120.898C41.2181 120.818 41.2498 120.742 41.3062 120.685C41.3627 120.629 41.4392 120.597 41.519 120.597H43.3242C43.404 120.597 43.4806 120.629 43.537 120.685C43.5934 120.742 43.6251 120.818 43.6251 120.898C43.6251 120.978 43.5934 121.054 43.537 121.111C43.4806 121.167 43.404 121.199 43.3242 121.199ZM39.7137 121.199H37.9085C37.8287 121.199 37.7521 121.167 37.6957 121.111C37.6393 121.054 37.6076 120.978 37.6076 120.898C37.6076 120.818 37.6393 120.742 37.6957 120.685C37.7521 120.629 37.8287 120.597 37.9085 120.597H39.7137C39.7935 120.597 39.87 120.629 39.9265 120.685C39.9829 120.742 40.0146 120.818 40.0146 120.898C40.0146 120.978 39.9829 121.054 39.9265 121.111C39.87 121.167 39.7935 121.199 39.7137 121.199ZM36.1032 121.199H34.2979C34.2181 121.199 34.1416 121.167 34.0852 121.111C34.0288 121.054 33.9971 120.978 33.9971 120.898C33.9971 120.818 34.0288 120.742 34.0852 120.685C34.1416 120.629 34.2181 120.597 34.2979 120.597H36.1032C36.183 120.597 36.2595 120.629 36.316 120.685C36.3724 120.742 36.4041 120.818 36.4041 120.898C36.4041 120.978 36.3724 121.054 36.316 121.111C36.2595 121.167 36.183 121.199 36.1032 121.199ZM44.8286 120.898C44.7488 120.898 44.6723 120.866 44.6159 120.81C44.5594 120.753 44.5277 120.677 44.5277 120.597V118.792C44.5277 118.712 44.5594 118.636 44.6159 118.579C44.6723 118.523 44.7488 118.491 44.8286 118.491C44.9084 118.491 44.9849 118.523 45.0414 118.579C45.0978 118.636 45.1295 118.712 45.1295 118.792V120.597C45.1295 120.677 45.0978 120.753 45.0414 120.81C44.9849 120.866 44.9084 120.898 44.8286 120.898ZM44.8286 117.287C44.7488 117.287 44.6723 117.256 44.6159 117.199C44.5594 117.143 44.5277 117.066 44.5277 116.987V115.181C44.5277 115.102 44.5594 115.025 44.6159 114.969C44.6723 114.912 44.7488 114.88 44.8286 114.88C44.9084 114.88 44.9849 114.912 45.0414 114.969C45.0978 115.025 45.1295 115.102 45.1295 115.181V116.987C45.1295 117.066 45.0978 117.143 45.0414 117.199C44.9849 117.256 44.9084 117.287 44.8286 117.287ZM44.8286 113.677C44.7488 113.677 44.6723 113.645 44.6159 113.589C44.5594 113.532 44.5277 113.456 44.5277 113.376V111.571C44.5277 111.491 44.5594 111.415 44.6159 111.358C44.6723 111.302 44.7488 111.27 44.8286 111.27C44.9084 111.27 44.9849 111.302 45.0414 111.358C45.0978 111.415 45.1295 111.491 45.1295 111.571V113.376C45.1295 113.456 45.0978 113.532 45.0414 113.589C44.9849 113.645 44.9084 113.677 44.8286 113.677ZM44.8286 110.066C44.7488 110.066 44.6723 110.035 44.6159 109.978C44.5594 109.922 44.5277 109.845 44.5277 109.766V107.96C44.5277 107.881 44.5594 107.804 44.6159 107.748C44.6723 107.691 44.7488 107.659 44.8286 107.659C44.9084 107.659 44.9849 107.691 45.0414 107.748C45.0978 107.804 45.1295 107.881 45.1295 107.96V109.766C45.1295 109.845 45.0978 109.922 45.0414 109.978C44.9849 110.035 44.9084 110.066 44.8286 110.066ZM44.8286 106.456C44.7488 106.456 44.6723 106.424 44.6159 106.368C44.5594 106.311 44.5277 106.235 44.5277 106.155V104.35C44.5277 104.27 44.5594 104.193 44.6159 104.137C44.6723 104.081 44.7488 104.049 44.8286 104.049C44.9084 104.049 44.9849 104.081 45.0414 104.137C45.0978 104.193 45.1295 104.27 45.1295 104.35V106.155C45.1295 106.235 45.0978 106.311 45.0414 106.368C44.9849 106.424 44.9084 106.456 44.8286 106.456ZM44.8286 102.845C44.7488 102.845 44.6723 102.814 44.6159 102.757C44.5594 102.701 44.5277 102.624 44.5277 102.545V100.739C44.5277 100.659 44.5594 100.583 44.6159 100.527C44.6723 100.47 44.7488 100.438 44.8286 100.438C44.9084 100.438 44.9849 100.47 45.0414 100.527C45.0978 100.583 45.1295 100.659 45.1295 100.739V102.545C45.1295 102.624 45.0978 102.701 45.0414 102.757C44.9849 102.814 44.9084 102.845 44.8286 102.845Z" fill="#000091"/>
</svg>
