<svg xmlns="http://www.w3.org/2000/svg" width="440" height="440" fill="none" viewBox="0 0 440 440"><g opacity=".1"><path fill="#006ADC" d="M395.275 320.633c.029-.69-.311-1.207-2.285-1.266-.746-.021-1.235-.169-.785-.617.509-.491.386-.85-.15-1.169a11.999 11.999 0 0 1-2.361-1.802c-.112-.108.542-.407 1.005-.547.868-.264 1.538-.517 1.406-.851a5.544 5.544 0 0 1-.008-5.217c.128-.423.198-.861.208-1.303.149-1.417-.186-2.826 1.227-4.316a1.228 1.228 0 0 0-.085-1.69 2.279 2.279 0 0 1-.137-2.337 2.332 2.332 0 0 0-.061-1.155 3.25 3.25 0 0 1-.034-1.395 4.13 4.13 0 0 0-.133-1.761 7.305 7.305 0 0 1-.382-1.557c-.129-.841-1.399-.861-1.218-1.853.149-1.044-.811-1.26-1.676-1.364-.542-.042-.546-.585-.692-1.06-.13-.479-.372-.929-1.139-.631-.271.101-.393-.369-.487-.688a.997.997 0 0 0-1.579-.694c-.844.447-1.31.417-1.715-.258a1.62 1.62 0 0 0-2.135-.776c-.668.286-1.185.71-1.856.226-.909-.819-1.772-.439-2.577-.136a4.071 4.071 0 0 1-3.384.318c-1.203-.533-2.333-.219-3.51-.659a4.165 4.165 0 0 0-2.377-.272c-.846.192-1.73.062-2.434.826-.713.77-1.75-.683-2.472-.311-.277.143-.57.063-.849.118-.355.071-.669.111-1.006.166-.337.038-.568.077-.997.109-.661.064-1.325.092-1.989.084a1.569 1.569 0 0 1-1.208-.488c-.167-.18-.089-.378-1.286.415-.09.056-.003-.112.126-.238 1.068-1.051 1.242-1.205 1.115-1.167-.125.046-.556.263-.548.179.087-.349-.923-.348.834-1.173.119-.087.15-.189.06-.255-.968-.677.406-1.544.435-2.443.012-.376.067-.766.112-1.179.022-.202.043-.427.053-.639l.008-.329-.012-.43a34.651 34.651 0 0 0-.825-5.596l-.368-2.147a5.096 5.096 0 0 0-1.65-3.106c-1.325-.999-1.449-3.222-3.199-3.789a17.738 17.738 0 0 0-2.175-.807 2.203 2.203 0 0 0-2.04.955c-.517.593-.942.867-1.147.599a3.049 3.049 0 0 0-2.175-1.326 3.049 3.049 0 0 0-2.421.793c-.27.197-.727.008-.931-.341a3.766 3.766 0 0 0-.529-.73 3.113 3.113 0 0 0-.281-.257 1.225 1.225 0 0 0-.192-.182.744.744 0 0 0-.888.01 2.915 2.915 0 0 1-3.781.038c-.609-.524-1.062.513-1.629.021-.595-.51-1.013.747-1.556.81-.429.051-.845.364-1.268.426-.535.078-1.073.011-1.531.727-.454.711-1.051-.509-1.485.536-.132.313-.412.333-.589.114a3.565 3.565 0 0 0-.824-.745.69.69 0 0 0-.247-.298c-.154-.092-.326-.025-.471-.094a1.781 1.781 0 0 1-.747-.702c-.082-.126.562-.899.587-.968.027-.076-.828.427-.959.308a1.348 1.348 0 0 1-.441-.463 3.56 3.56 0 0 1 0-2.133c.174-.56 1.523-1.193.77-1.603-.763-.444.472-1.02-.396-1.458-.215-.117.138-.331.296-.492.45-.468-.328-.793-1.415-1.167a3.04 3.04 0 0 1-.767-.344c-.159-.134-.167-.466.124-.738 1.009-1.04.973-2.241 1.608-3.467 1.04-2.058 1.83-4.556-.173-5.19a.293.293 0 0 1-.187-.313.314.314 0 0 1 .044-.122c.735-1.497-.499-1.804-1.267-2.421a16.227 16.227 0 0 1-1.719-1.5 4.275 4.275 0 0 1-1.079-1.962 1.754 1.754 0 0 0-.439-.828 2.037 2.037 0 0 0-.82-.418 3.154 3.154 0 0 0-2.253.327 9.144 9.144 0 0 1-3.513.902 6.3 6.3 0 0 0-3.148.905c-1.019.746-2.102-.709-2.664-.945-1.982-.676-3.911.521-5.961-1.004-.183-.133-.442.331-.571.745-.399 1.269-.751 1.932-1.321-.272-.063-.241-.249-.489-.34-.452a4.406 4.406 0 0 1-2.789.005c-.839-.213-1.619.305-2.415.527-.11.036-.286.16-.278.331.05 1.002.737 2.812-.171 2.525a13.151 13.151 0 0 0-1.457-.647c-1.076-.183-1.765 2.134-1.478 4.902a34.301 34.301 0 0 0 1.304 6.68 3.1 3.1 0 0 0 .65 1.257 1.79 1.79 0 0 0 1.264.338c.877-.204 1.693-.914 2.617-.795 2.587.341 5.017-.389 7.542-.432.851-.014 1.7-.148 2.554-.1.435.015.866.094 1.278.234.181.073.512.164.499.285.038.141.057.287.058.434.112-.462.232-.277.176.038.324-.774.595-.965.754-1.009.175-.041.237.052.531-.113a.77.77 0 0 1 .612-.041 3.313 3.313 0 0 0 1.329-.329c.376-.127.228.106.236.217.015.534.048 1.134.044 1.779a16.36 16.36 0 0 1-.138 2.075 6.658 6.658 0 0 1-.973 2.662 2.35 2.35 0 0 0-.207 1.55c.073.891-.017 1.843.895 2.566.465.369.329.826.142 1.31-.109.237-.181.49-.215.749a1.63 1.63 0 0 0 .247.979c.239.506.526.988.856 1.44a1.696 1.696 0 0 1 .488 1.51c-.143 1-.005 2.019.399 2.944a26.528 26.528 0 0 0 5.232 6.057c.66.605 1.662-.026 2.455-1.192.45-.65.699-.567 1.02-.169a1.984 1.984 0 0 0 2.673.366 1.798 1.798 0 0 1 2.153-.177 2.13 2.13 0 0 0 1.387.589 7.576 7.576 0 0 0 1.701-.097c.556-.058 1.11-.129 1.652-.23.328-.055.678.013.959-.304.678-.763 1.447-.456 2.122-1.042a1.513 1.513 0 0 1 2.473.218c.294.362.618.68.905.671.601-.025 1.201.095 1.771.024.142-.015.281-.048.415-.098a1.14 1.14 0 0 0 .135-.201 8.3 8.3 0 0 0 .376-.853c.256-.574.262.212.253.564.005.247.121.128.304-.096.241-.319.677-.814.512-.225-.228.688.022.504.01.746-.038.259.103.29.059.504-.04.2-.328.592-1.22 1.216.132-.066.294-.115.296-.074.001.028-.091.107-.366.218-.296.109.113-.015.235-.002l.281-.028c.437-.03.725.039.772.129a1.768 1.768 0 0 1-.661 1.409c-.084.083.027.259.206.295 1.873.373 1.227.889.938 1.512-.22.466.127.991.378 1.484.298.522.516 1.086.645 1.673a2.59 2.59 0 0 1-.028.891 4.969 4.969 0 0 1-.376 1.298 2.777 2.777 0 0 0-.09 1.793 12.812 12.812 0 0 0 2.119 4.727 7.783 7.783 0 0 0 4.147 2.912c.743.204 1.254.709 1.936.875a5.143 5.143 0 0 1 2.372 1.328 1.754 1.754 0 0 0 2.225.117c.351-.212.83-.428 1.048-.185a2.95 2.95 0 0 0 3.13.791l2.003-.313c.742-.107 1.431-.216 2.11-.279 1.117-.1 2.216.044 3.042-1.069.29-.397.684.056 1.021.087.572.053 1.275.489 1.648-.083.591-.897 1.457-.328 2.005-1.232.723-1.188 1.646-1.389 2.729-.294a1.56 1.56 0 0 0 1.559.473 8.158 8.158 0 0 1 1.976-.201 1.939 1.939 0 0 1 1.817 1.114c.1.102.167.231.193.371a.26.26 0 0 1 .009-.078c.24-1.462.884-1.39 1.113-1.181.138.127.249.279.327.449.106.197-.092.489.298.505.155.017.004.172-.228.308-.32.202-.799.342-.776.384.007.036.019.07.036.103l.067.224c.052.156.086.317.1.481a1.131 1.131 0 0 1-.603 1.021c1.078.654.164 1.468.09 2.213a2.581 2.581 0 0 0 .679 2.005 1.48 1.48 0 0 1 .049 1.746 6.23 6.23 0 0 0 .367 6.342.966.966 0 0 1-.178 1.078 3.529 3.529 0 0 0-.423 2.776c.115.825 1.279 1.411.797 2.342-.527 1.004.887 1.48 1.4 2.164a12.907 12.907 0 0 1 1.447 4.529l.792 1.606.975 1.675c.278.468.954.383 1.792-.177 1.064-.709 2.114-1.416 3.205-2.09a5.553 5.553 0 0 0 1.771-1.526c.387-.613 1.146-1.359 1.077-1.733-.128-1.049.632-2.329.737-3.296ZM151.697 318.916l-.736-3.743a5.063 5.063 0 0 0-.801-2.19c-.452-.573-.938-1.537-1.354-1.598-1.13-.163-2.287-1.279-3.408-1.537-.794-.179-1.551.095-1.95 2.057-.15.739-.367 1.196-.793.698-.467-.544-.894-.442-1.285.069a20.534 20.534 0 0 1-1.979 2.309c-.108.107-.416-.534-.568-.994-.282-.862-.569-1.523-.928-1.379a6.456 6.456 0 0 1-5.465.422 5.055 5.055 0 0 0-1.35-.079c-.833.005-1.827.168-2.756.239a12.48 12.48 0 0 1-3.246-.167 1.902 1.902 0 0 0-1.995 1.179 6.08 6.08 0 0 1-2.228 2.264c-.832.7-.839 1.926-1.519 2.809-.675.915-.39 2.215-.562 3.302-.122.847 1.148 1.581.619 2.366a1.071 1.071 0 0 0 .026 1.174c.24.358.562.654.939.863.83.512-1.122 1.638.29 2.032.26.068-.008.439-.212.687-.483.574-.437 1.022.27 1.259.741.246.93.596.443 1.144-.571.647-.683 1.184-.18 1.575.398.338.873.427.421.766-.774.469-.407.77-.159 1.236.36.596.573 1.443-.353 1.613-.872.109-1.119.563-1.951.311-.582-.207-.932-.37-1.136-.275-.262.11-.558-.136-.692.514-.042.165-.12.192-.207.143a.604.604 0 0 1-.142-.12c-.063-.052-.214-.107-.318-.169-.459-.244-.924-.535-1.354-.358a4.131 4.131 0 0 1-.992.1 72.934 72.934 0 0 1-9.922.839c-.876.012-1.797-.113-2.478 1.306-.049.104-.247-.047-.289-.215-.692-2.775-1.193-.767-1.773-.794-1.435-.074-2.78 1.058-4.337-.632-.108-.118-.243-.147-.335-.056a1.502 1.502 0 0 1-1.67.238 10.563 10.563 0 0 0-3.237-.164c-1.713.22-3.376.724-4.923 1.49a13.38 13.38 0 0 0-4.018 3.78c-1.253 1.546-2.638 3.287-2.573 5.39.006.461-.059.919-.19 1.36-.138.419-.32.82-.483 1.235a3.915 3.915 0 0 0-.368 2.667c.234.829.222 1.686.52 2.5a1.987 1.987 0 0 0 1.817 1.236c.74.085 1.178.293 1.03.657-.088.22-.16.446-.217.676-.061.202-.126.338-.164.505-.082.28-.094.575-.037.861.12.519.546.929 1.36 1.179.25.077.17.439-.122.666-.96.774-1.221 1.271-.674 1.695 1.029.779 1.607 1.745.615 2.704-.116.138-.16.141-.146.153.042.02.087.033.134.038.121.025.252.072-.01.119-.544.053.704.186.727.355.022.1.294.276.306.409.007.17-.117.238.456.723.121.107.156.174.148.217-.062.163-.63-.081-.049.537.216.241.141.36-.087.256-.38-.23-.802-.38-1.242-.44-.2.009-.31.141-.498.136a2.881 2.881 0 0 1-.612-.093 2.683 2.683 0 0 0-.293-.071c-.166-.023-.39-.015-.602-.037-.346-.009-.639-.907-.929-.97-.358-.082-.862.828-1.31.842a9.624 9.624 0 0 1-2.222-.148 6.845 6.845 0 0 1-2.511-1.003c-.615-.407-1.047-1.947-1.973-1.404-.9.556-1.54-.828-2.514-.096-.239.184-.565-.203-.844-.392-.827-.537-1.587.223-2.221 1.32-.367.62-.701 1.234-1.261.734-.96-.867-2.033-.538-3.134-.755-1.874-.377-4.249-.46-4.995 1.883a.396.396 0 0 1-.439.295c-1.529-.384-1.818 1.013-2.364 1.871a5.334 5.334 0 0 1-3.658 2.761 2.102 2.102 0 0 0-1.638 2.928c.27.906.27 1.871.004 2.777a3.717 3.717 0 0 0 .112 2.584c.487.979-1.12 1.397-1.539 2.251-1.183 2.434-.168 4.837-1.74 7.174-.142.216.326.535.74.696 1.27.502 1.928.881-.263 1.514-.24.07-.483.281-.445.387a5.698 5.698 0 0 1 .132 3.102c.004.89.24 1.764.685 2.536.041.113.175.289.346.272.998-.108 2.761-.904 2.532.035a15.76 15.76 0 0 0-.557 1.508c-.117 1.085 2.213 1.621 4.972 1.223a33.01 33.01 0 0 0 6.618-1.589c.46-.14.88-.392 1.218-.735.247-.408.337-.891.254-1.361-.26-.912-1.032-1.714-.96-2.639.193-2.591-.583-4.767-.457-6.824.074-1.351-.169-2.798 1.437-3.401-.322-.531 0-.913.453-1.157-1.109-1.356.027-1.799.165-2.57.114-.331.281-.641.496-.917a2.142 2.142 0 0 0 .057-1.497c-.064-.363.167-.399.31-.483a4.748 4.748 0 0 1 2.263-.954 2.854 2.854 0 0 1 3.061 1.389 1.372 1.372 0 0 0 .983.546c.649.164 1.271.546 2.175-.029.92-.6 1.246 1.268 2.186 1.007.39-.11.75.015 1.166-.193.425-.225.751-.061 1.154.241a4.3 4.3 0 0 0 2.048 1.164c2.195.144 3.975.544 7.4.92 1.003.127 1.435-.92 1.328-2.224-.053-.732.227-.788.785-.638a2.05 2.05 0 0 0 2.579-1.069c.36-.776.68-1.281 1.627-1.395a3.647 3.647 0 0 0 2.027-1.187 8.567 8.567 0 0 0 1.44-2.12l.15-.342c.423-.887.736-1.821.934-2.782a3.198 3.198 0 0 0 .125-1.759c-.527-1.386-.16-2.664-.804-3.9a6.074 6.074 0 0 1-.762-2.053 2.669 2.669 0 0 1 .451-1.763c.288-.366.427-.828.388-1.293-.433-1.502-.362-3.026-2.294-3.684-.679-.223-.055-.827.173-1.277a.498.498 0 0 0-.135-.596.481.481 0 0 0-.195-.097c-.357-.027-.928-.099-.38-.326.654-.231.406-.337.603-.474.217-.124.182-.258.335-.35.158-.079.52-.11 1.485.293-.243-.128-.466-.46.132-.04.262.209-.081-.099-.141-.22l-.189-.245c-.576-.775-.346-1.167.21-.198.044.078.014-.03-.05-.203-.654-1.797-.197-1.215-.03-.925.074.108.112.077.151-.004.057-.088.007-.223.26-.358.9-.59 1.809-1.103 2.874-.088a1.268 1.268 0 0 0 1.025.371c2.034.065 4.051-.391 5.859-1.325.418-.268.862-.107 1.257-.265a1.581 1.581 0 0 1 1.646.299c.47.348.89.201 1.253-.422.157-.269.406-.556.574-.341.851 1.105 1.584.705 2.345.545a25.207 25.207 0 0 1 3.611-.608c.499.003.997-.021 1.493-.073.252-.04.495-.122.719-.243.13-.065.202-.139.374-.24.199-.104.388-.227.566-.365.524-.402 1.112.038 1.689.033.953.009 2.215.271 2.799-.445.85-1.077 2.38-1.003 2.901-2.302a5.427 5.427 0 0 1 1.222-1.992 5.785 5.785 0 0 1 2.185-1.148 2.94 2.94 0 0 0 1.824-2.03 21.05 21.05 0 0 0 .894-3.814 10.439 10.439 0 0 1 1.128-3.998 1.756 1.756 0 0 0 .032-1.839 6.034 6.034 0 0 0-.658-.861c-.186-.209-.351-.439-.502-.639a7.226 7.226 0 0 1-.719-1.24 10.786 10.786 0 0 1-.71-2.4c-.168-.826-.252-1.58-.356-2.255-.028-.299.232-.39-.164-.646-.184-.129.104-.183.44-.154.334.021.708.125.701.084-.025-.039-.375-.462.616.223-.872-.756.039-.115.077.019.079.084-.053-.046-.223-.577-.128-.417.034-.361.148-.041l.122.347c.212.097.441.152.674.164a5.537 5.537 0 0 0 1.569-.038 7.404 7.404 0 0 0 3.006-1.305.81.81 0 0 1 .981.122 2.833 2.833 0 0 0 2.355.42c.657-.078 1.172-1.238 1.901-.653.77.62 1.217-.738 1.823-1.119a6.219 6.219 0 0 1 3.838-.4l3.063-.584c.451-.091.592-.752.399-1.738Z"/><path fill="#000638" d="m314.309 300.236-.43-.82-.242-.415-.385-.654-.243-.433-.365-.953a15.676 15.676 0 0 1-.95-4.011 14.303 14.303 0 0 0-1.501-3.856 5.65 5.65 0 0 0-.571-.865 14.736 14.736 0 0 1-2.824-8.761 1.021 1.021 0 0 0-.456-.802c-2.121-.567-1.946-2.256-2.133-3.99a13.131 13.131 0 0 0-1.448-3.871c-1.315-2.801-2.534-5.598-2.262-8.825a9.376 9.376 0 0 0-.367-3.129c-1.629-6.109-3.024-12.323-5.607-18.166-.581-1.313-.733-2.68-1.185-3.916a13.815 13.815 0 0 1-.89-5.097 6.045 6.045 0 0 0-1.375-3.924 2.9 2.9 0 0 1-.792-1.806c.508-2.596-.49-4.911-1.281-7.3l-3.868-11.363c-1.057-3.138-1.961-6.439-4.23-9.118a10.541 10.541 0 0 1-1.244-3.183c-.751-1.805-1.441-4.084-2.97-5.374-1.191-.995-2.149-2.198-3.386-3.38a11.22 11.22 0 0 0-4.851-2.933 20.384 20.384 0 0 0-7.388-.481 28.44 28.44 0 0 0-3.615.675c-.994.297-2.008.52-3.035.668a13.495 13.495 0 0 0-4.929 1.837c-2.183 1.172-4.337 2.413-6.572 3.471a20.472 20.472 0 0 1-6.985 2.348 4.988 4.988 0 0 0-2.829 1.189c-3.859 3.739-8.526 6.228-13.221 8.699l-7.534 3.924a73.101 73.101 0 0 0-8.317 4.62c-2.413 1.723-5.296 1.606-7.802 3.007-2.053 1.147-4.07 2.768-6.609 2.924-1.931 2.228-4.803 2.674-7.275 3.891a28.168 28.168 0 0 0-6.168 4.041 16.435 16.435 0 0 1-5.348 2.922 59.523 59.523 0 0 0-17.422 9.736 6.98 6.98 0 0 1-2.809 1.26 25.011 25.011 0 0 0-6.77 2.882c-1.853 1.002-3.104 2.927-5.286 3.341-2.303.439-3.331 2.464-4.988 3.704a60.995 60.995 0 0 1-10.867 5.755 94769.43 94769.43 0 0 1-8.643 4.84c-1.271.716-1.559 1.594-.838 2.345.391.406.79.805 1.186 1.206a9.046 9.046 0 0 0-1.084 1.13 2.416 2.416 0 0 0-.43 1.894 15.89 15.89 0 0 0 1.69 3.831c1.702 2.684 3.867 5.122 5.292 7.927 4.015 7.908 9.039 15.19 13.567 22.781 3.069 5.146 6.598 10.059 8.516 15.82a22.888 22.888 0 0 1 3.77 6.22c3.641 2.969 5.43 7.351 8.133 11.033 2.495 3.399 4.309 7.307 7.734 9.988a9.973 9.973 0 0 1 1.856 2.562l8.108 12.693c.399.596.853 1.217 1.352 1.842a18.309 18.309 0 0 0 1.992 2.128 13.44 13.44 0 0 0 4.955 2.918 14.68 14.68 0 0 0 5.788.564c.494-.04.99-.1 1.487-.177l1.348-.215c.77-.12 1.489-.235 2.159-.318a17.486 17.486 0 0 0 4.063-1.185 22.932 22.932 0 0 0 6.686-3.128c2.03-1.637 4.804-.846 6.948-2.167.895-.551 1.935-.908 2.762-1.532a5.915 5.915 0 0 1 2.868-1.081 24.34 24.34 0 0 0 5.162-1.027 66.333 66.333 0 0 1 14.205-3.966 3.06 3.06 0 0 0 2.518-2.878c.123-.816.672-.983 1.566-.948a7.096 7.096 0 0 0 4.891-1.64 5.565 5.565 0 0 1 3.682-1.578 14.818 14.818 0 0 0 4.09-.893c1.68-.547 3.305-1.257 4.946-1.922 1.64-.662 3.276-1.335 4.901-2.034a12.503 12.503 0 0 0 2.861-1.369c1.934-1.519 4.372-2.081 6.373-3.44a13.68 13.68 0 0 1 7.865-2.668 8.668 8.668 0 0 0 3.094-.438c3.931-1.528 8.123-2.552 11.33-5.545 1.124-1.054 2.584-.782 3.962-.942a6.574 6.574 0 0 0 2.806-1.211c.578-.403 1.121-.846 1.712-1.184a4.247 4.247 0 0 1 2.077-.592 8.304 8.304 0 0 0 3.039-.795 19.747 19.747 0 0 0 1.906-.987 36.195 36.195 0 0 0 1.942-1.22 13.736 13.736 0 0 0 5.644-8.047c.65-3.331.577-6.762-.212-10.063Zm-15.251 6.782c-.325.038-.568-.149-.456.05.039.093.008.131-.024.161l-.522.282-.667.38a3.247 3.247 0 0 0-1.538 2.256c-.112.792-.529 1.356-1.191 1.363a11.671 11.671 0 0 0-8.638 3.3 2.282 2.282 0 0 1-1.877.379 5.149 5.149 0 0 0-4.848.629 23.64 23.64 0 0 1-10.776 4.052c-1.894.136-3.023 1.656-4.817 1.786-1.864.138-2.911 1.859-4.549 2.525-1.306.53-2.513 1.304-3.817 1.846a14.21 14.21 0 0 0-4.634 2.472c-1.292 1.233-3.42.715-4.597 2.267a2.68 2.68 0 0 1-1.866.815c-3.997-.005-7.507 1.788-11.159 3.055-4.342 1.505-8.696 2.974-13.006 4.571-1.708.634-3.551.401-5.133.958-1.932.686-3.514 2.319-5.421 3.151a101.508 101.508 0 0 1-15.85 6.022c-2.039.512-4.419-.084-6.107 1.324-.793.6-1.723.992-2.706 1.139l-.548.103a3.59 3.59 0 0 0-.344.08c-.049.02-.076.115-.125.337-.062.227-.2-.128-.23-.302-.066-.509-.316.317-1.311.919-.233.172-.51.275-.799.295-.125-.015-.187-.026-.254-.122a1.075 1.075 0 0 1-.178-.579 7.337 7.337 0 0 0-.743-2.57c-.434-.962-.922-1.903-1.255-2.892-1.123-3.365-2.061-6.74-5.265-8.845a1.362 1.362 0 0 1-.557-.878c-.11-2.357-1.911-3.511-3.237-5.115a17.588 17.588 0 0 1-4.19-8.412 8.632 8.632 0 0 0-1.305-3.439 8.641 8.641 0 0 0-2.616-2.587c-3.33-2.172-4.688-6.146-7.803-8.544-1.694-1.307-1.504-3.799-2.376-5.701-2.505-5.449-6.634-10.073-8.275-15.958-.146-.519-.987-1.042-1.589-1.255-1.846-.645-3.059-1.436-1.714-3.54a1.137 1.137 0 0 0-.055-1.01 36.718 36.718 0 0 1-4.097-7.265 43.62 43.62 0 0 0-4.039-6.208c-.195-.283-.578-.728-.752-.684-1.013.256-1.972 2.318-2.987-.153-.533-1.293-.812-2.688-1.399-3.953-.03-.063-.074-.118-.106-.18a57.668 57.668 0 0 0 6.074-1.833c2.302-.923 4.421-2.261 5.209-4.848a2.231 2.231 0 0 1 2.138-1.832 5.512 5.512 0 0 0 3.655-1.873c1.684-1.774 3.4-3.529 5.222-5.168.289-.262 1.283-.036 1.798.225a2.66 2.66 0 0 0 2.897.112 63.84 63.84 0 0 1 15.473-8.188c1.313-.514 2.561-1.197 3.829-1.827 4.085-2.033 7.952-4.498 12.582-5.335a10.525 10.525 0 0 0 4.608-2.51 19.816 19.816 0 0 1 6.343-3.405c2.174-.832 4.06-2.446 6.41-3.27 2.291-.805 4.308-2.419 6.542-3.467 1.615-.758 2.425-2.579 4.295-2.903a7.44 7.44 0 0 0 4.167-2.989c1.417-1.578 4.174-.632 5.443-2.775.234-.395 1.207-.527 1.847-.58a4.698 4.698 0 0 0 3.593-1.897 4.452 4.452 0 0 1 3.435-2.036 8.175 8.175 0 0 0 4.797-1.992 6.864 6.864 0 0 1 3.463-2.174 17.17 17.17 0 0 0 6.612-3.236 33.298 33.298 0 0 1 9.089-4.755c.837-.247 1.66-.544 2.475-.869l1.22-.503.303-.131.205-.065.396-.136a2.5 2.5 0 0 1 2.178.26c.367.279.693.608.967.979.191.274.787.884 1.317 1.5 1.305 1.468 2.279 3.699 3.947 5.671 1.698 2.051 1.186 4.999 2.365 7.414.44.899.678 1.901 1.031 2.857a279.323 279.323 0 0 1 8.586 30.084c.641 2.705 1.169 5.551 3.142 7.748a.944.944 0 0 1-.017.882c-2.405 1.974.057 3.652.451 5.452.965 4.453 3.141 8.69 2.56 13.445-.038.358.03.72.198 1.04 1.823 3.203 1.408 6.889 2.366 10.288.774 2.755 1.421 5.558 2.322 8.278 1.017 3.06 2.305 6.03 3.426 9.059.624 1.683 1.139 3.431 1.714 5.143a20.868 20.868 0 0 0 1.409 3.227c.074.14.063.1.077.11l.034.01.083.022.239.061c.397.124.157.404-.167.405Z"/><path fill="#000638" d="M253.202 178.746a13.896 13.896 0 0 0-2.992-4.228 5.036 5.036 0 0 0-.809-.647 14.055 14.055 0 0 1-5.324-6.732c-.069-.224-.438-.516-.633-.475a1.899 1.899 0 0 1-1.971-.49 2.849 2.849 0 0 1-.399-.758l-.437-1.079a10.409 10.409 0 0 0-2.4-2.907 16.45 16.45 0 0 1-4.84-6.924 7.798 7.798 0 0 0-1.467-2.595c-3.759-4.661-7.983-9.393-13.633-12.427-1.282-.622-2.235-1.606-3.395-2.199a14.288 14.288 0 0 1-2.191-1.359 15.208 15.208 0 0 1-1.943-1.63 5.404 5.404 0 0 0-3.773-1.565c-.621-.037-1.531-.107-1.856-.501a7.185 7.185 0 0 0-2.976-2.094 22.93 22.93 0 0 0-3.486-1.06 94.177 94.177 0 0 0-11.244-2.147c-3.069-.411-6.204-.975-9.205.011-1.067.323-1.991-.171-2.992-.207-1.695-.116-3.629-.485-5.065.14a12.146 12.146 0 0 1-3.426.863c-1.157.149-2.28.496-3.321 1.024a14.115 14.115 0 0 1-8.689 2.127 10.856 10.856 0 0 0-4.98 1.075c-2.228.931-4.389 2.018-6.577 3.041a28.19 28.19 0 0 1-6.789 2.629 4.701 4.701 0 0 0-2.676 1.516c-3.295 4.257-7.082 7.759-10.522 11.8a63.57 63.57 0 0 0-5.052 6.745 36.347 36.347 0 0 0-4.324 8.235c-.869 2.722-3.112 4.401-4.03 7.07-.726 2.185-1.009 4.65-2.612 6.54.308 2.848-1.198 5.193-1.791 7.82a20.944 20.944 0 0 0-.393 7.12 18.09 18.09 0 0 1-.434 5.852 35.559 35.559 0 0 0 1.217 19.183c.303.962.391 1.978.26 2.978a14.822 14.822 0 0 0 .113 3.608c.209 1.185.512 2.36.811 3.546.592 2.019 2.179 3.58 2.272 5.763a4.764 4.764 0 0 0 1.173 2.895c.631.822 1.344 1.565 1.927 2.415 2.084 3.25 3.557 6.785 5.993 10.703.806 1.187 1.892 2.409 2.95 3.735 1.17 1.255 2.338 2.614 3.695 3.819 1.096 1.026 2.01 1.021 2.481.082.6-1.187 1.178-2.381 1.862-3.501a3.362 3.362 0 0 0 .443-2.745c-.324-1.208-.222-2.689-.873-3.561a27.738 27.738 0 0 1-2.746-6.533c.666-.528 1.322-.954 1.985.678.612 1.199.996 2.537 1.689 3.729a6.234 6.234 0 0 0 7.971 2.244 12.269 12.269 0 0 0 4.837-4.787 2.378 2.378 0 0 0 .239-1.755 9.785 9.785 0 0 0-1.739-2.741c-.745-.972-1.605-1.865-2.446-2.786a8.15 8.15 0 0 1-1.138-1.47 14.403 14.403 0 0 1-.914-1.608c-2.902-6.248-5.693-12.659-6.684-19.611-.624-4.651-1.181-9.535.526-14.018-.093-.942-.06-1.891.098-2.824.128-.936.383-1.85.759-2.717a10.334 10.334 0 0 1 .274-5.34l.774-2.571c.3-.84.651-1.655.892-2.513.227-.792.503-1.569.824-2.328.364-.734.733-1.466 1.067-2.216.356-.737.585-1.55.909-2.3.319-.792.543-1.618.668-2.462a4.957 4.957 0 0 1 1.231-2.192 40.83 40.83 0 0 1 8.134-8.51 21.246 21.246 0 0 1 10.623-5.022c1.102-.16 2.174-.48 3.184-.95.922-.307 1.862-.568 2.764-.924a9.015 9.015 0 0 0 2.63-1.33 3.842 3.842 0 0 1 2.839-.541 6.98 6.98 0 0 0 2.891-.145c.781-.291 1.638-.438 2.398-.759a3.787 3.787 0 0 1 2.427-.18c1.331.417 2.704.688 4.094.807a71.45 71.45 0 0 1 2.872.199c.947.123 1.879.329 2.802.53.885.212 1.746.514 2.569.902.83.31 1.614.734 2.329 1.259.874.644 1.878.074 2.849-.963.538-.585.909-.336 1.321.23.369.543.865.989 1.444 1.299.557.319 1.172.52 1.809.593a2.726 2.726 0 0 1 2.553 1.461c.57.878 1.251 1.678 2.026 2.38.918.946 1.978 1.725 2.909 2.734l1.441 1.437 1.394 1.554a11.624 11.624 0 0 0 1.756 1.826 9.515 9.515 0 0 1 2.149 2.052 14.777 14.777 0 0 0 1.99 2.271 9.449 9.449 0 0 1 3.4 6.2 6.88 6.88 0 0 0 .71 2.627c1.853 3.22 3.08 6.599 6.619 9.479.278.215.512.483.687.788.261.399.488.82.677 1.258.395.886.721 1.87 1.165 2.831.329.692.726 1.35 1.184 1.964l.346.454c.134.109.273.205.409.302.274.192.546.368.807.527.392.182.79.325 1.171.484.425.106.788.285 1.232.37.842.249 1.765.392 2.607.645 2.006.662 4.383-.427 6.741-1.667.964-.461 1.923-1.035 2.917-1.565 1.029-.489 2.031-1.06 3.106-1.473.875-.359 1.71-.808 2.493-1.338.75-.452 1.471-.951 2.16-1.492a16.806 16.806 0 0 0 3.4-4.08c.74-4.309-.945-8.458-2.781-12.907Zm-138.171 28.639c.132-1.207.154-2.431.196-3.646-.04-3.363.471-6.71 1.511-9.908-.145 1.52-.05 3.054.281 4.544a5.06 5.06 0 0 1-.328 2.891 17.4 17.4 0 0 0-.99 2.948 22.059 22.059 0 0 0-.197 4.381c.007 1.469.105 2.937.296 4.394.171 1.459.267 2.924.357 4.391.129 1.298.161 2.605.094 3.908a35.297 35.297 0 0 1-1.422-6.712 33.58 33.58 0 0 1 .202-7.191Zm4.806 27.559a4.486 4.486 0 0 0-1.176-3.334 29.564 29.564 0 0 1-1.99-2.553 26.744 26.744 0 0 1-1.768-2.755c-.172-.304.315-1.126.707-1.514a2.719 2.719 0 0 0 1.044-1.959c.195.257.429.482.694.667 1.613 1.132 2.545 2.109.708 3.82a1.145 1.145 0 0 0-.207.997c.558 1.285 1.116 2.552 1.54 3.87.221.657.424 1.321.616 1.995l.688 1.995c.062.184.154.36.225.541a1.55 1.55 0 0 1-1.081-1.77Zm101.813-71.07c-.832-1.075-1.825-1.996-2.764-3.02a10.85 10.85 0 0 0-3.844-3.405 4.994 4.994 0 0 1-1.816-1.729 3.7 3.7 0 0 0-2.138-1.425 2.777 2.777 0 0 1-1.581-1.25 14.033 14.033 0 0 0-1.835-2.308 19.515 19.515 0 0 0-1.072-1.021 26.39 26.39 0 0 0-1.225-.85 55.536 55.536 0 0 0-2.567-1.563c-.894-.455-1.825-.845-2.724-1.292l-1.615-.781c-.543-.249-1.112-.422-1.669-.634-1.12-.402-2.245-.815-3.378-1.187l-3.453-.808c-.576-.124-1.16-.27-1.732-.368l-1.694-.222a11.56 11.56 0 0 1-2.551-.74c-.801-.3-1.636-.502-2.485-.602a8.838 8.838 0 0 0-3.09.395 19.36 19.36 0 0 1-3.062.627c-5.573.557-10.92 1.896-16.432 2.893-1.998.438-4.439-.302-6.094 1.222a7.755 7.755 0 0 1-2.832 1.351 5.914 5.914 0 0 0-2.673 1.565c-.374.407-1.258.515-1.92.719a4.997 4.997 0 0 0-3.34 3.754c-.311.975-.67 1.924-1.898 2.17-2.063.462-3.707 1.928-5.484 3.014-3.106 1.713-6.201 3.836-7.071 7.629-.09.348-.299.654-.591.865-2.063 1.093-2.469 3.227-3.214 5.15a23.746 23.746 0 0 1-1.998 4.262c-.227.399-.462.793-.707 1.182.154-.409.345-.802.572-1.176a18.05 18.05 0 0 0 1.226-2.821 16.89 16.89 0 0 1 1.194-2.865c.696-1.297.231-3.021 1.482-4.066 1.26-1.028 1.368-2.476 1.621-3.985.169-.89.932-1.393 1.636-1.921a2.579 2.579 0 0 0 1.441-2.147c-.003-.42.786-.772 1.289-.981a3.81 3.81 0 0 0 1.458-.977 3.04 3.04 0 0 0 .809-1.497 2.959 2.959 0 0 1 2.24-2.433 6.3 6.3 0 0 0 3.585-2.38c.691-.914 1.249-1.973 2.552-2.22a9.272 9.272 0 0 0 2.824-1.211c.857-.547 1.663-1.191 2.501-1.763a16.623 16.623 0 0 1 7.753-3.474c2.877-.366 5.695-1.32 8.588-1.327 1.026-.003 2.023-.044 3.019-.08a48.07 48.07 0 0 0 2.962-.301 45.057 45.057 0 0 0 6.774-.918 6.01 6.01 0 0 1 3.367.223c1.062.41 2.183.645 3.32.697.847.031 1.69.121 2.524.27a46.975 46.975 0 0 1 23.095 8.853c.865.648 1.709 1.343 2.599 1.959a8.6 8.6 0 0 0 3.152 1.292.669.669 0 0 1 .336.645c-1.185 2.746 1.401 2.586 2.379 3.746 2.256 2.719 5.336 5.084 6.181 8.957a11.771 11.771 0 0 1-1.93-1.692Zm3.409 3.674a10.088 10.088 0 0 1 1.438 2.182 6.595 6.595 0 0 1-1.438-2.182Zm12.844 19.162c-.241-.141-.282-.372-.283-.134-.011.231-.092.14-.167.356-.064.169-.215.751-.658 1.937-.304.853-.64 1.193-.663.776a9.219 9.219 0 0 0-.061-1.915.56.56 0 0 0-.399-.3 6.764 6.764 0 0 0-1.501-1.137 1.45 1.45 0 0 1-.441-1.429 3.993 3.993 0 0 0-1.01-4.166 21.753 21.753 0 0 1-4.902-8.164c.297.634.637 1.246 1.018 1.833.984 1.429 1.732 2.445 2.499 3.498a68.253 68.253 0 0 0 2.245 2.93c.848 1.035 1.709 2.009 2.524 2.964l1.172 1.415.537.697.118.087c.112.056.092.17.11.249.015.089.12.161.402.458.252.323-.291.207-.54.045ZM244.983 260.293a15.375 15.375 0 0 0-1.088-2.535c-.231-.415-.47-.828-.716-1.226l-.74-1.011a32.793 32.793 0 0 0-7.032-6.41 25.354 25.354 0 0 1-6.097-5.494 4.446 4.446 0 0 0-2.342-1.274 13.319 13.319 0 0 0-1.792-.34 18.274 18.274 0 0 0-2.025-.104 11.697 11.697 0 0 0-6.621 1.688 48.585 48.585 0 0 0-6.152 1.541 63.962 63.962 0 0 0-6.01 2.566c-.871.248-2.132-.228-2.882.239-.98.591-1.542 2.098-2.438 2.929a8.865 8.865 0 0 1-2.498 1.637c-.939.474-1.927.982-2.873 1.551a7.046 7.046 0 0 0-2.187 2.237 3.884 3.884 0 0 0-.2 3.161c-.347.669-.977.997-1.674 1.774a8.264 8.264 0 0 0-1.86 4.421c-.339 2.209-1.602 5.709-1.549 9.986a15.87 15.87 0 0 0 .524 3.674c.15.594.345 1.175.586 1.739a8.62 8.62 0 0 0 .81 1.636c.344.573.537.871.816 1.267.271.349.565.68.88.99a5.58 5.58 0 0 0 1.841 1.311c2.847 1.225 4.841 3.245 7.408 4.338a11.79 11.79 0 0 1 4.46 3.651c1.119 1.32 4.083 1.609 6.808 1.306l.077-.009c.003.03.002.059.006.089a14.196 14.196 0 0 0 2.33 6.264 13.18 13.18 0 0 0 6.419 5.003 7.484 7.484 0 0 0 6.327-.374c.372-.23 1.231.517 1.934.727.47.151.96.234 1.454.247a9.182 9.182 0 0 0 6.663-2.874 19.048 19.048 0 0 0 3.977-6.168 15.462 15.462 0 0 0 1.108-7.704 19.25 19.25 0 0 0-.704-3.542 23.28 23.28 0 0 0-.541-1.613l-.306-.774-.163-.377-.081-.188-.028-.051c-.393-.8.572-1.571 1.148-2.002-.034-.392-.725-.799-1.801-1.484-.285-.159-.257-.513.036-.94.305-.52.405-.97 1.17-2.473 1.206-2.527 1.985-5.102 2.299-5.288a7.819 7.819 0 0 0 3.996-6.789c.076-1.67-.153-3.34-.677-4.928Zm-14.541 4.525a6.384 6.384 0 0 0-1.924 2.113c-.352.769-.63 1.569-.83 2.39.183.51.328 1.032.433 1.562l.127.787.039.379c-.01.075.051.103-.02.219a3.373 3.373 0 0 0-.42.504 14.27 14.27 0 0 0-1.477 2.141 10.464 10.464 0 0 0-.811 2.085 8.543 8.543 0 0 0 .109 4.775 18.588 18.588 0 0 0 2.135 4.357c.432.712.849 1.32 1.218 2.073.156.273.276.564.357.868a2.39 2.39 0 0 1-.119 1.396c-.182.44-.451.95-.793 1.081a7.982 7.982 0 0 1-1.539.588c.308.43.445.96.382 1.486a1.393 1.393 0 0 1-.989 1.245c-.26.053-.53.006-.756-.132-.354-.234-.827.895-1.729 1.749-.844.879-2.081 1.431-2.647.602a11.51 11.51 0 0 1-.477-.802l-.477-.897-1.073-2.057-.031-.056a27 27 0 0 0-.093-.892 10.368 10.368 0 0 0-1.084-4.814 62.917 62.917 0 0 1-5.384-5.702 3.934 3.934 0 0 0-2.183-1.152 2.513 2.513 0 0 1-1.86-1.484c-.672-1.691-1.487-1.317-2.497-1.098-.982.29-2.16.253-1.984-1.403.115-.576.17-1.162.164-1.748a4.078 4.078 0 0 0-.237-1.017c-.051-.107-.147-.375-.153-.382 0-.015-.06-.025-.094-.098-.104-.071-.251-.244-.376-.262a1.281 1.281 0 0 1-.289-.416 4.469 4.469 0 0 1-.31-.547 6.542 6.542 0 0 1-.541-5.668 12.66 12.66 0 0 1 2.87-3.778c.308-.246.583-.513.889-.753.332-.22.653-.444.965-.673.311-.23.698-.397 1.029-.608l.51-.308.617-.325a30.307 30.307 0 0 1 9.327-3.5 11.33 11.33 0 0 1 2.216-.115c.417.015.832.055 1.245.119.443.066.888.138 1.317.235 1.646.315 3.205.979 4.573 1.946.6.43.582 1.387.467 2.247-.205 1.154.313 1.133.996 1.198.678.013 1.534.145 1.456.822a2.084 2.084 0 0 1-.526.581c-.24.213-.458.381-.447.476-.023.188 1.28.184.729.663Z"/><path fill="#006ADC" d="M288.552 246.045c.068-1.186-1.217-2.099-.771-3.336.451-1.282-.422-2.289-1.29-3.211-.514-.553-.386-1.288-.368-2.068a1.878 1.878 0 0 0-1.084-1.997c-.354-.145-.436-.942-.507-1.495a2.71 2.71 0 0 0-2.233-2.469 6.045 6.045 0 0 1-1.161-.302c.037-.41.074-.82.12-1.227.127-1.066.372-2.122.55-3.182l.121-.831c.067-.471.121-.965.16-1.449.084-.939.11-1.883.076-2.825a10.42 10.42 0 0 1 .12-2.556l.315-2.481a8.355 8.355 0 0 0-.34-4.581 17.264 17.264 0 0 0-1.596-3.353 1.757 1.757 0 0 0-2.261-.651c-.67.296-1.169.224-1.349-.321a4.666 4.666 0 0 0-5.368-3.426l-.04-.105c-.048-.126-.125-.394-.182-.584a30.4 30.4 0 0 1-.341-1.247c-.195-.867-.414-1.567-.617-2.349a19.548 19.548 0 0 1-.802-5.02 5.283 5.283 0 0 0-4.426-5.112c-1.725-.226-3.363-.764-5.105-.911a6.645 6.645 0 0 0-4.888 1.334 4.04 4.04 0 0 1-2.37.865 6.359 6.359 0 0 0-2.63.623 20.546 20.546 0 0 0-3.555 2.607c-.55.497-1.168 1.053-1.651 1.52l-1.033 1.047a18.751 18.751 0 0 1-4.594 3.689c-.327.174-.342.905-.222 1.401.373 1.536.418 2.544-1.833 1.804a.708.708 0 0 0-.724.201 21.183 21.183 0 0 1-3.212 4.448 14.735 14.735 0 0 0-2.127 4.388c-.085.21-.17.592-.027.699.818.608 2.859.703 1.782 2.031a23.55 23.55 0 0 0-1.835 2.044c-1.107 1.74.231 4.506 2.734 5.797a18.6 18.6 0 0 0 6.478 2.086c.52.09 1.055 0 1.516-.255a4.949 4.949 0 0 0 1.242-1.789c.321-1.59.866-3.125 1.62-4.561 2.635-3.678 4.746-7.629 7.821-10.921 2.686-2.805 2.616-3.187 3.308-1.93.059-.634.333-.486.325-.036.38-1.018.792-1.081.951-.914.184.175.203.484.437.615.225.103.302.52.412.604.199.305.361.634.48.979.159.322.352.627.576.909-.241.133-.481.269-.725.402-.852.485-1.742.901-2.66 1.243a3.923 3.923 0 0 0-1.197.752c-.134.116-.26.242-.374.378l-.269.335c-.295.493-.739.88-1.268 1.105-1.262.401-1.15 2.048-1.936 2.882-.613.694-1.044 1.545-1.609 2.27a5.654 5.654 0 0 0-1.662 3.004c-.084 1.257-1.799 1.449-1.551 2.924a1.2 1.2 0 0 1-.649 1.128c-2.53 1.222-3.456 3.715-4.637 5.927l-.271.496-.341.711a19.17 19.17 0 0 0-.586 1.475 15.564 15.564 0 0 0-.763 3.307 11.666 11.666 0 0 0 .308 4.433c.124.472.287.933.489 1.377.215.501.476.98.779 1.432a9.452 9.452 0 0 0 2.459 2.533c.556.392 1.104.703 1.622 1.006l.413.241c-.21.291-.381.609-.508.944-.283.783-.737 1.572-1.038 2.462a15.752 15.752 0 0 0-.757 3.946 13 13 0 0 0 .09 2.431c.138.919.388 1.818.745 2.677.367.889.85 1.725 1.435 2.489a11.724 11.724 0 0 0 1.88 1.879 13.563 13.563 0 0 0 3.699 2.082 14.797 14.797 0 0 0 8.075.903 16.061 16.061 0 0 0 7.174-3.375c1.923-1.548 3.517-3.286 3.448-5.59-.009-.165.357-.413.532-.368 2.913.722 2.076-1.722 2.681-2.751 1.612-2.687 1.754-5.772 4.388-7.808a.737.737 0 0 0 .295-.603 4.433 4.433 0 0 1 .181-1.466c.052.338.126.672.222 1.001.359 1.44-1.108 2.771-1.144 4.196-.075 1.187.374 2.547-.873 3.598.875 1.511-.27 2.786-.646 4.123a8.945 8.945 0 0 0-.159 3.787c.076.53.046 1.07-.088 1.589a4.053 4.053 0 0 1-.691 1.435 20.824 20.824 0 0 0-3.347 9.7 1.795 1.795 0 0 1-.885 1.328 7.685 7.685 0 0 0-2.355 2.989c-.536.915-.084 2.411-1.262 2.956-1.22.563-.608 2.109-1.007 3.139-.681 1.994-2.248 3.365-3.948 4.992l-1.547 1.878c-.56.664-1.198 1.315-1.804 2.003-.505.56-.314 1.275.476 1.9l3.037 2.339a3.35 3.35 0 0 0 2.316.893c.945-.072 2.195.135 2.812-.358 1.624-1.352 3.902-2.012 5.513-3.463a3.474 3.474 0 0 0 1.043-4.419c-.339-.772-.378-1.393.441-1.683a2.054 2.054 0 0 0 1.385-1.996c.116-1.555.118-3.141.315-4.599.028-.231.835-.291 1.334-.242.943.106 1.74.06 1.972-.619a32.404 32.404 0 0 1 4.285-9.494 17.92 17.92 0 0 0 1.012-2.328c.506-1.27.793-2.61 1.294-3.885a10.985 10.985 0 0 1 2.043-3.726 3.934 3.934 0 0 0 .551-3.149 8.19 8.19 0 0 1 .605-4.347c.454-1.377-.004-2.896.5-4.375.179-1.517.215-3.048.106-4.572Zm-33.658 7.747h.009c-.003.009.001.004.001.004l-.01-.004Zm2.575-.222a1.36 1.36 0 0 1-.391.516c-.153.128-.295.174-.387.337a.578.578 0 0 1-.422.283c-.055-.029-.111-.054-.166-.087.548-.828.861-1.79.905-2.782.035-.617.704-.677 1.087-1.001.279-.226.572-.435.877-.623a24.667 24.667 0 0 0-1.503 3.357Z"/><path fill="#80829B" d="M263.977 219.409c-.12-.465-.4-.874-.792-1.152a5.17 5.17 0 0 0 .34-1.012c.342-1.148.578-2.326.706-3.518a1.643 1.643 0 0 0-1.411-1.764c-.692-.142-1.084-.471-.858-.997a4.784 4.784 0 0 0-1.096-5.532 4.912 4.912 0 0 0-1.662-.882 1.363 1.363 0 0 1-.823-1.148 2.395 2.395 0 0 0-2.333-2.696c-3.391-.566-6.781-.411-10.233-1.279a4.776 4.776 0 0 0-2.599.267 7.459 7.459 0 0 1-2.556.462 3.565 3.565 0 0 0-1.347.191 3.24 3.24 0 0 0-1.075.556 5.385 5.385 0 0 1-1.438 1.035c-.863.3-1.603.869-2.42 1.209a5.216 5.216 0 0 0-2.734 1.784c-.635 1.018-2.129.317-2.587 1.661a.998.998 0 0 1-1.038.588c-2.598-.364-4.407 1.009-6.409 1.87-2.394 1.018-4.795 2.027-7.134 3.165-.925.453-2.158.086-3.021.488-1.054.491-1.644 1.879-2.643 2.505a34.184 34.184 0 0 1-8.499 4.448c-1.157.341-2.833-.352-3.528.833-.699 1.2-2.333.648-2.933 1.956-.155.33-.738.245-1.147.287-1.185.126-1.526 1.224-1.694 2.56-.095.761-.229 1.534-1.065 1.385-1.411-.256-2.409.503-3.64.668-2.098.27-4.234.401-5.109 2.801a.47.47 0 0 1-.5.31c-1.585-.391-2.06.958-2.911 1.808a5.99 5.99 0 0 1-4.977 2.002 3.05 3.05 0 0 0-3.381 2.276c-.856 2.502-3.305 2.941-4.332 5.225-.557 1.242-2.307.593-3.432 1.012-3.234 1.187-5.552 3.964-9.251 4.36-.327.036-.509.679-.525 1.169-.052 1.499-.325 2.428-2.069.883-.191-.169-.565-.239-.684-.127a11.995 11.995 0 0 1-4.117 2.335 14.134 14.134 0 0 0-3.379 2.495c-.152.123-.372.384-.302.543.409.925 2.055 2.105.58 2.578-.771.25-1.668.27-2.407.576-1.663.699-2.028 3.533-.843 6.084a18.565 18.565 0 0 0 3.849 5.613c.369.392.869.635 1.405.684a5.255 5.255 0 0 0 2.222-.831 29.142 29.142 0 0 1 4.179-3.261c4.468-2.145 8.311-5.219 12.503-7.776 2.837-1.732 5.441-3.894 8.955-4.454a7.12 7.12 0 0 1 3.448-2.089c1.289-2.604 3.904-3.3 5.873-4.925 1.83-1.489 4.113-2.292 5.305-4.738.273-.565.895-.778 1.393-1.094 2.325-1.482 4.661-2.945 7.042-4.334a19.867 19.867 0 0 1 6.543-2.807 7.992 7.992 0 0 0-1.035 1.726 8.197 8.197 0 0 1-.988 1.78l-1.185 1.965a11.555 11.555 0 0 0-.868 2.454c-.169.9-.153 1.825.046 2.719l.497 1.913c.201.56.43 1.109.689 1.645.398.781.886 1.513 1.453 2.182.631.718 1.343 1.36 2.121 1.914.757.48 1.559.885 2.394 1.21.737.26 1.496.456 2.267.586 2.309.326 4.659.206 6.923-.355a53.544 53.544 0 0 0 9.9-3.511c1.565-.711 3.237-1.383 3.913-3.337.047-.143.43-.173.558-.049 1.838 1.767 2.207.218 2.894-.559l.606 1.106a3.435 3.435 0 0 0 1.747 1.761c.882.331 1.912.984 2.657.796 1.983-.551 4.28-.243 6.289-.896a3.364 3.364 0 0 0 2.617-3.588c-.011-.832.173-1.436 1.032-1.352a1.91 1.91 0 0 0 2.012-1.241c.663-1.379 1.34-2.777 2-4.023.091-.19.912.02 1.443.203.976.367 1.928.467 2.476-.143 1.906-2.095 2.836-3.305 3.998-4.426a27.95 27.95 0 0 1 1.797-1.736c.623-.626 1.422-1.326 2.283-2.234a9.285 9.285 0 0 0 1.455-2.248 11.132 11.132 0 0 0 1.066-3.987 13.798 13.798 0 0 0-.466-4.531Zm-37.482 1.994c-.121-.742.182-.848.749-.737a2.365 2.365 0 0 0 2.66-1.081 1.798 1.798 0 0 1 1.897-1.1 4.87 4.87 0 0 0 2.271-.38 25.52 25.52 0 0 0 2.497-1.14l2.405-1.119a3.19 3.19 0 0 0 1.364-.749 3.53 3.53 0 0 1 1.481-1.011c.176-.052.339-.141.478-.26.108-.101.199-.218.268-.348.427-.777 1.365-1 1.378.133.002.401-.055.752.062.754.264-.01.391.148.686.128a14.16 14.16 0 0 0 2.216-.722.68.68 0 0 1 .388-.053c.259.115-.455.741-.831 1.075-.323.302-.13.363.222.407.499.035 1.205.171.25.569-1.098.412-.903.569-1.324.78-.439.193-.557.371-.865.496a1.734 1.734 0 0 1-1.584-.371.703.703 0 0 1 .091.16c.062-.022-.102.171-.209.301a7.536 7.536 0 0 1-.353.403 4.442 4.442 0 0 1-1.818 1.227c-.688.247-.987 1.069-1.452 1.653a2.08 2.08 0 0 0-.204.567c-.022.06-.05.115-.072.175-.936.257-2.227-.891-2.965.438-.157.284-.748.078-1.137-.087a1.668 1.668 0 0 0-2.246.554 1.617 1.617 0 0 1-2.149.756 2.856 2.856 0 0 0-1.536-.264 2.856 2.856 0 0 0-1.448.58c-.653.527-1.215 1.179-2.161.939a3.54 3.54 0 0 0-.906-.091c.342-.05.674-.121 1.024-.151.894-.07 1.087-1.106.873-2.431Zm-11.724 5.449a8.36 8.36 0 0 0 2.968-.544 22.379 22.379 0 0 1 5.853-2.173c-.771.248-1.511.583-2.206.998a13.025 13.025 0 0 1-5.648 2.005 10.58 10.58 0 0 0-2.457.451 1.907 1.907 0 0 1 1.49-.737Zm-4.783 15.971a.62.62 0 0 1-.102-.054l.029.012c.046.02.154.07.146.07l-.073-.028Zm2.145-2.054c.19-.171.393-.327.606-.469-.152.271-.392.541-.606.469Zm4.783-2.099a3.16 3.16 0 0 1-2.468.61 1.412 1.412 0 0 0-.774.079c.039-.06.075-.122.107-.186a3.372 3.372 0 0 1 4.217-1.88c.313.08.637.109.959.087-.086.083-.183.15-.267.235-.554.41-1.149.764-1.774 1.055ZM388.212 193.99c-.392-2.529-.349-4.803-.633-7.4a25.321 25.321 0 0 0-2.695-7.226 12.5 12.5 0 0 0-1.04-1.751 17.805 17.805 0 0 0-1.373-1.582c-.524-.475-1.021-.979-1.579-1.412-.586-.422-1.048-.859-1.771-1.338-.084-.061-.178-.098-.266-.151.692-1.749 1.285-3.539 1.981-5.244a28.085 28.085 0 0 0 1.85-6.964 29.17 29.17 0 0 0 .379-8.284c-.459-2.776.83-5.474.239-8.483-.223-1.101-.327-2.28-.631-3.472a22.01 22.01 0 0 0-1.681-4.562 15.985 15.985 0 0 0-3.266-4.414 15.084 15.084 0 0 0-4.43-2.825c.031-.13.059-.262.09-.392a47.808 47.808 0 0 0 1.873-10.096c.008-3.231 1.691-5.87 1.61-8.984-.016-1.359.174-2.747.148-4.11a3.123 3.123 0 0 0-1.141-2.544 1.366 1.366 0 0 1-.652-1.561 11.561 11.561 0 0 0-.065-8.9 2.63 2.63 0 0 1 .141-1.857 5.41 5.41 0 0 0 .449-4.788 61.103 61.103 0 0 1-2.689-11.495c-.207-1.976-1.67-3.216-2.093-5.05-.468-1.948-2.268-2.937-3.34-4.486-.458-.612-.971-1.184-1.48-1.752-.522-.559-1.089-1.081-1.596-1.651a26.539 26.539 0 0 0-2.147-2.072 9.823 9.823 0 0 0-2.507-1.448 7.998 7.998 0 0 1-2.373-1.47 4.62 4.62 0 0 0-2.578-1.05 3.759 3.759 0 0 1-2.027-.82c-3.327-2.597-7.897-3.149-12.287-3.01a26 26 0 0 0-7.966 1.594 22.751 22.751 0 0 0-7.135 4.587 24.841 24.841 0 0 1-2.397 2.15 15.028 15.028 0 0 0-2.068 2.373 22.504 22.504 0 0 0-1.941 7.173c-1.324 6.374-.472 12.117-.344 17.645.082 2.027-.758 4.146.179 5.973.947 1.836.277 3.904 1.309 5.579a3.5 3.5 0 0 1 .064 1.808 4.965 4.965 0 0 0 1.815 3.942 2.32 2.32 0 0 1 .858 2.4 35.049 35.049 0 0 0-.545 5.456 40.196 40.196 0 0 0-.643 4.476 9.262 9.262 0 0 0 .684 4.459 1.116 1.116 0 0 1-.012.902c-1.067 1.749-.296 3.443-.253 5.251a13.907 13.907 0 0 1-1.669 7.964 8.274 8.274 0 0 0-1.034 6.125c.735 3.377-.988 6.627-.856 10.037.085 1.888-1.733 3.15-2.517 4.778a40.535 40.535 0 0 0-1.681 3.537c-.515 1.2-1.084 2.379-1.627 3.567a28.21 28.21 0 0 1-1.886 3.419 15.26 15.26 0 0 1-2.385 2.985 2.241 2.241 0 0 0-.325 1.651c.201 1.603-.001 2.876-2.062 2.515a.924.924 0 0 0-.749.355 16.796 16.796 0 0 1-4.444 4.853c-1.495 1.087-2.684 2.547-4.103 3.611-.192.159-.502.414-.459.561.234.829 1.898 1.669-.032 2.42-.516.148-1.042.242-1.552.341-.514.091-1.03.105-1.511.234a6.19 6.19 0 0 0-2.918 1.7 11.95 11.95 0 0 0-1.164 1.416 5.71 5.71 0 0 0-.772 1.664 7.527 7.527 0 0 0 .202 5.668 2.387 2.387 0 0 0 1.645 1.025c.803.079 1.612.08 2.415.001a9.808 9.808 0 0 0 2.4-.443 38.918 38.918 0 0 0 9.444-4.943 38.157 38.157 0 0 0 10.086-9.477 74.257 74.257 0 0 0 6.93-11.249c2.72-5.151 4.63-10.632 7.555-15.706a32.412 32.412 0 0 1 2.053-6.777c-.088-4.472 1.391-8.74 1.778-13.147.116-2.033.48-4.047.542-6.082.049-1.014.068-2.027.017-3.033a17.624 17.624 0 0 0-.516-3c-.143-1-.174-2.012-.094-3.018.001-4.725-.257-9.447-.776-14.143-.479-4.674-1.429-9.397-1.201-13.891a17.956 17.956 0 0 0-.384-3.75 26.343 26.343 0 0 0-1.33-6.26c-.881-2.06.487-4.03.148-5.942-.115-.805-.025-1.645-.176-2.421a3.27 3.27 0 0 1 .422-2.215c.283-.55.608-1.078.972-1.578.33-.495.609-.989.885-1.447.333-.684.743-1.329 1.22-1.921.241-.288.538-.531.797-.799l.398-.39.441-.286a7.586 7.586 0 0 1 1.826-.916 7.769 7.769 0 0 1 2.062-.268 1.338 1.338 0 0 0 1.013-.526c.282-.43.488-.905.61-1.404.175-.619.593-.63 1.165-.407a4.59 4.59 0 0 0 1.752.457 4.493 4.493 0 0 0 1.813-.146c.477-.115.967-.16 1.456-.133.498.09.966.299 1.366.609.814.586 1.678 1.1 2.582 1.536a32.893 32.893 0 0 1 3.23 1.84c.521.33.963.742 1.464 1.094l1.34 1.214a12.089 12.089 0 0 0 1.65 1.68c1.572 1.05 2.317 2.866 3.518 4.343a8.495 8.495 0 0 1 2.059 6.37 8.15 8.15 0 0 0 .016 2.565c.751 3.4.67 6.976 2.179 10.416.533 1.223-.085 2.338-.383 3.512a6.474 6.474 0 0 0 .076 2.673 5.435 5.435 0 0 1 .099 3.591 21.57 21.57 0 0 0-.904 4.506c-.696 3.265-.724 6.836-2.835 9.58a19.56 19.56 0 0 1-1.649 6.986 14.353 14.353 0 0 0-.775 3.54c-.038.3-.049.602-.033.904-.004.135-.016.268-.023.402-.453.213-.901.437-1.338.68a19.26 19.26 0 0 0-4.049 2.96c-.709.66-.992.979-1.47 1.453l-1.334 1.375c-1.865 1.94-3.975 4.174-4.586 7.267-.047.203-.494.716-.663.727-2.782.147-2.862 3.633-2.978 6.96-.047 1.134.09 2.267.407 3.356.376 1.14.948 2.204 1.691 3.147.349.469.742.905 1.174 1.301.233.208.453.403.711.602.29.208.589.407.893.593a8.44 8.44 0 0 0 4.844 1.144 9.2 9.2 0 0 0 2.285-.473c.584-.212 1.15-.472 1.691-.777a16.35 16.35 0 0 0 2.363-1.639c1.284-1.05 2.287-1.987 3.342-2.828.313-.259.562-.588.726-.959a27.534 27.534 0 0 1 2.646-4.877 31.716 31.716 0 0 0 2.617-4.483c.755-1.74 1.529-3.493 2.222-5.275.165.148.316.31.451.484a7.73 7.73 0 0 1 1.257 3.001c.468 2.129.373 4.771 1.172 7.327.295.929-.172 1.737-.271 2.595a14.994 14.994 0 0 0-.529 4.406c.413 2.119-.496 4.112-.241 6.199a9.532 9.532 0 0 1-2.178 7.564c-.175.204-.323.417-.474.63a12.73 12.73 0 0 0-1.958.916 7.514 7.514 0 0 1-3.008.619 3.935 3.935 0 0 0-2.881 1.3c-.274.353-1.237.502-1.876.629a5.07 5.07 0 0 0-3.619 2.496 20.969 20.969 0 0 1-1.3 2.059 12.89 12.89 0 0 0-1.609 2.707 5.18 5.18 0 0 0-.288 1.317 5.968 5.968 0 0 0 .147 1.525c.147.487.351.956.606 1.396.248.38.532.737.847 1.065a6.258 6.258 0 0 0 3.403 1.711c1.661.288 3.233.215 5.127.438a7.098 7.098 0 0 0 2.418-.119 8.873 8.873 0 0 0 2.23-.88 12.369 12.369 0 0 0 3.37-2.868 35.892 35.892 0 0 0 3.351-5.02c.216.158.416.338.595.537.225.331.417.683.572 1.051.239.76.529 1.503.868 2.224a5.016 5.016 0 0 1 .96 4.304c1.177 1.651.434 3.709.16 5.555-.264 1.707-.419 3.347-.599 5.16a9.644 9.644 0 0 1-.543 2.174 7.396 7.396 0 0 1-1.204 1.937 149.573 149.573 0 0 1-9.84 11.339 4.208 4.208 0 0 1-2.115 1.126c-.954.233-1.797.621-2.696.929-.882.33-1.701.805-2.586 1.161-1.507.522-2.67 2.056-4.444 1.864a4.413 4.413 0 0 0-2.346.643c-.709.395-1.442.745-2.195 1.048a8.46 8.46 0 0 1-2.255.437c-.776.082-1.555.125-2.335.127a28.907 28.907 0 0 1-4.897-.718l-1.711-.238c-.593-.098-1.176-.311-1.796-.463l-1.889-.506-1.842-.756c-1.02-.407-1.743-.131-1.921.697-.216 1.053-.355 2.133-.559 3.205a2.62 2.62 0 0 0 .745 2.389c.438.461.837 1.05 1.308 1.508.455.453.994.814 1.587 1.062.808.294 1.586.664 2.373 1l2.398.88a20.12 20.12 0 0 0 5.007 1.309 8.958 8.958 0 0 0 3.638-.13 5.34 5.34 0 0 0 3.024-1.696 2.354 2.354 0 0 1 2.519-.907c.324.073.656.112.989.116.325-.024.648-.077.963-.159a7.073 7.073 0 0 0 1.858-.796c.487-.303.984-.566 1.455-.893l1.395-.996c.913-.685 1.876-1.212 2.738-1.953.277-.221 1.145-.02 1.598.2a2.533 2.533 0 0 0 2.679.044c1.617-1.2 2.989-2.05 4.064-2.965 1.077-.912 2.021-1.645 2.938-2.358a54.499 54.499 0 0 1 2.705-2.307c1.003-.782 1.945-1.824 3.231-2.99a8.999 8.999 0 0 0 1.329-1.56l1.211-1.678a19.029 19.029 0 0 0 1.707-2.868 27.26 27.26 0 0 0 1.499-2.989 42.306 42.306 0 0 1 1.432-3.05 5452.1 5452.1 0 0 1 1.47-3.138 9.388 9.388 0 0 0 .591-5.314Zm-33.859-42.695.001-.005-.001.005Zm7.194 33.897.003-.005.012.008s-.023.008-.015-.003Z"/><path fill="#000638" d="M371.397 91.99a9.753 9.753 0 0 0-3.514-6.481 8.727 8.727 0 0 0-3.615-1.735 24.952 24.952 0 0 0-3.376-11.314c-.999-1.789-2.1-3.52-3.297-5.182-.089-.12-.184-.223-.276-.336l-.005-.03a18.4 18.4 0 0 0-3.177-7.162 5.934 5.934 0 0 0-6.83-2.033 9.01 9.01 0 0 0-2.978 1.767c-.883.735-1.666 1.527-2.62 2.247a27.074 27.074 0 0 0-7.024 8.436 20.196 20.196 0 0 0-2.559 8.768c-.074 2.867.779 3.707 1.549 3.709a2.931 2.931 0 0 0 2.029-1.36c1.092-1.665 2.287-3.592 3.649-5.533l1.032-1.465c.168-.213.394-.547.506-.665.117-.138.235-.242.345-.36l1.236-1.254c.386-.395.744-.796 1.125-1.252a6.939 6.939 0 0 1 1.38-1.401 3.903 3.903 0 0 1 1.911-.637 16.98 16.98 0 0 1 1.837-.017c.162.012.173.363.132.783-.076.07-.145.158-.224.224a20.015 20.015 0 0 0-3.437 2.56 4.214 4.214 0 0 0-.695 1.183l-.598 1.414a8.263 8.263 0 0 1-1.519 2.552 46.931 46.931 0 0 0-1.812 2.262l-.918 1.247-.789 1.272a84.061 84.061 0 0 0-1.549 2.688l-.528.977-.443.872a42.211 42.211 0 0 0-2.752 7.43c-.225 2.594-.388 5.135-.367 8.112-.063.399-.075 1.026-.096 1.54-.006.291-.021.495-.009.859.021.421.057.844.108 1.265a9 9 0 0 0 .429 1.912c.095.298.184.582.327.943l.21.519.285.606c.082.176.238.452.384.692.165.281.349.551.549.807.257.344.545.664.86.956.19.177.388.346.592.505.258.195.53.371.813.527a6.586 6.586 0 0 0 4.176.791c.123.394.276.778.455 1.15a8.783 8.783 0 0 0 2.127 2.83 9.306 9.306 0 0 0 2.876 1.749c.866.337 1.772.56 2.696.666.286.037.573.059.861.067a18.783 18.783 0 0 1-2.378 5.173c-1.513 1.846-1.487 1.92.003 2.993a4.495 4.495 0 0 0 3.354 1.58 41.955 41.955 0 0 0 7.701-4.491c2.176-1.7 2.773-5.033 4.917-6.906a6.108 6.108 0 0 0 1.791-2.776c.16-.508.282-1.026.366-1.551l.102-.8.214-1.221c.256-1.602.392-3.114.78-4.662a24.079 24.079 0 0 1 1.786-5.157c.436-.921.811-1.869 1.122-2.839.287-.952.532-1.931.719-2.882.269-1.698.286-3.427.051-5.13Zm-20.107 18.272c-.052-.088-.096-.147-.14-.212.062-.358.223-.692.465-.964a2.85 2.85 0 0 1 1.101-.744c.333-.141.565-.199.654-.507a8.98 8.98 0 0 0-.028-2.228c.174-.221.393-.011.622.185a22.408 22.408 0 0 1-.347 1.543 7.872 7.872 0 0 1-1.427 3.121c-.373.37-.445.282-.512.303a1.516 1.516 0 0 1-.388-.497Zm-6.619-15.937.02-.017c-.518 1.804-1.063 3.584-1.674 5.265a6.068 6.068 0 0 1-.233.526c.373-2 1.007-3.94 1.887-5.774Z"/><path fill="#006ADC" d="M366.333 104.815a11.048 11.048 0 0 0-.946-4.57c.056-.624.094-1.254.11-1.888.03-.596.016-1.207.002-1.808.005-.627-.047-1.119-.068-1.857.005-.778-.111-1.49-.166-2.204l-.08-1.052-.14-1.012A32.783 32.783 0 0 0 364.021 84a9.539 9.539 0 0 0-3.84-5.44 10.145 10.145 0 0 0-5.363-.895c-1.764.217-3.456.83-4.95 1.792-.778.55-1.563 1.037-2.321 1.606l-2.224 1.82-2.002 1.758-1.504 1.352a5.232 5.232 0 0 0-1.445 4.05 5.808 5.808 0 0 1-.926 3.846c-2.41 2.76-4.681 6.576-4.568 10.328.192 3.667 2.896 2.609 3.588 2.017a46.696 46.696 0 0 0 5.924-6.832 17.636 17.636 0 0 0 3.552-7.775c.039-.33.831-.352 1.267-.499a6.214 6.214 0 0 0 2.754-1.496 5.915 5.915 0 0 1 1.367-.944 1.691 1.691 0 0 1 1.444-.031 4.537 4.537 0 0 1 1.908 2.127c.4.911.632 1.887.685 2.88a.888.888 0 0 1-.143.563c-.054.086-.114.153-.182.24a4.11 4.11 0 0 1-.23.333c-.342.432-.778.811-1.097 1.216-.009.03-.007.06-.014.09-.62.11-1.233.257-1.835.44-.8.236-1.638.647-2.453.97-.818.421-1.637.885-2.447 1.349-.796.53-1.606 1.02-2.377 1.594-.756.605-1.525 1.181-2.253 1.81l-1.065.996c-.241.228-.476.466-.7.718-.452.5-.914.976-1.329 1.517a26.064 26.064 0 0 0-2.341 3.34 25.178 25.178 0 0 0-3.077 7.863c-.144.711-.229 1.444-.338 2.167l-.072 1.106-.032.553c-.009.199-.025.322-.022.654.002.702.09 1.401.263 2.081.13.503.316.991.554 1.454a6.314 6.314 0 0 0 1.318 1.728 6.081 6.081 0 0 0 2.194 1.293 6.243 6.243 0 0 0 2.334.303 7.006 7.006 0 0 0 2.065-.456c-.324.495-.64 1.054-.959 1.632a14.387 14.387 0 0 1-2.685 4.027c-1.313.957-1.273 1.042.063 2.283a6.77 6.77 0 0 0 2.99 2.179 47.224 47.224 0 0 0 6.602-.735c1.889-.433 2.523-2.511 4.528-2.964 1.738-.397 2.161-1.719 2.553-3.064a4.439 4.439 0 0 1 2.483-3.454 5.79 5.79 0 0 0 2.054-1.407 13.438 13.438 0 0 0 2.509-4.025 26.94 26.94 0 0 0 .754-2.253l.536-2.462a53.954 53.954 0 0 0 .817-12.528Zm-24.749 17.164c-.006.014-.009.015-.006.007l.006-.007Z"/><path fill="#80829B" d="M309.824 126.434a3.05 3.05 0 0 0-1.36-1.726c-.595-.381-.894-.777-.475-1.353a1.663 1.663 0 0 0-.015-1.995l-2.155-3.077c-.111-.154.367-.605.723-.84.662-.43 1.167-.896.946-1.445l-1.045-2.368a16.5 16.5 0 0 1-.764-1.764c-.179-.565-.417-1.086-.594-1.714-.183-.625-.363-1.332-.665-2.173a8.7 8.7 0 0 0-.937-1.888c-.586-.977-1.261-1.893-1.943-2.812a12.824 12.824 0 0 1-1.681-3.176 3.274 3.274 0 0 0-2.096-1.767 9.38 9.38 0 0 1-3.169-2.127 30.445 30.445 0 0 0-3.544-1.733 11.147 11.147 0 0 0-4.181-.923c-1.095-.164-1.981.86-3.08.508-1.128-.353-2.003.404-2.707 1.175a5.668 5.668 0 0 1-.156-3.237.555.555 0 0 0-.115-.515c-1.304-1.334-.963-3.542-1.782-5.23a31.762 31.762 0 0 0-2.111-4.06 39.446 39.446 0 0 0-3.294-3.957c-.61-.726-1.188-1.501-1.833-2.22a7.307 7.307 0 0 0-2.178-1.852c-1.6-.884-1.984-2.892-3.609-3.722-.726-.336-1.316-.899-2.025-1.253a1.769 1.769 0 0 0-1.905.3c-.491.383-.92.487-1.107.147a4.537 4.537 0 0 0-1.86-1.907 3.558 3.558 0 0 0-2.684-.31.954.954 0 0 1-.893-.624 2.22 2.22 0 0 0-2.364-1.68c-1.144.065-2.29.052-3.432-.037a10.23 10.23 0 0 1-3.381-.784c-1.124-.404-2.018.54-3.091.204-1.165-.309-1.949.912-2.965 1.216-.817.325-1.612.7-2.381 1.126a5.19 5.19 0 0 0-2.676 1.986c-.54 1.015-2.126.93-2.343 2.327a1.5 1.5 0 0 1-.841 1.014 4.864 4.864 0 0 0-1.647 1.076 6.565 6.565 0 0 0-1.211 1.523 16.423 16.423 0 0 0-1.467 3.532 20.853 20.853 0 0 0-.863 8.416c.122 1.06-.431 2.156-.228 3.152.241 1.222 1.374 2.145 1.858 3.23a42.43 42.43 0 0 0 2.31 4.209 34.67 34.67 0 0 1 2.145 3.913c.445.979.126 2.516 1.228 2.966 1.108.445.908 1.881 2.061 2.18.291.077.308.571.395.891.267.94 1.189 1.028 2.295.956.622-.046 1.268-.057 1.233.627-.074 1.146.611 1.806.795 2.717.328 1.569.312 3.01 2.164 3.494a.284.284 0 0 1 .221.235.27.27 0 0 1-.006.113c-.413 1.157.583 1.454 1.176 2.084a3.322 3.322 0 0 1 .788 3.659 1.903 1.903 0 0 0 1.009 2.627c1.773 1.007 1.342 2.801 2.732 4.083.739.734-.356 1.72-.507 2.558-.392 2.377.498 4.908-1.165 7.047-.146.172.18.54.489.774.932.699 1.348 1.35-.571 1.358-.21.002-.458.125-.455.228a3.972 3.972 0 0 1-1.049 2.592 7.495 7.495 0 0 0-.814 2.023.336.336 0 0 0 .059.358c.637.541 2.188 1.075 1.396 1.584-.442.185-.894.343-1.354.474-.406.213-.458.749-.372 1.542a12.81 12.81 0 0 0 .746 2.947 13.84 13.84 0 0 0 2.828 4.916 1.71 1.71 0 0 0 1.367.49 6 6 0 0 0 2.508-1.35 32.236 32.236 0 0 0 3.602-4.968c3.233-4.454 3.798-9.635 4.143-14.19.238-3.174-.259-6.259.449-9.513a9.519 9.519 0 0 1-.651-3.821c-1.764-2.002-1.813-4.491-2.974-6.632-1.047-1.929-1.628-4.177-3.74-5.432-.492-.277-.692-.839-.978-1.299a64.862 64.862 0 0 0-4.399-5.976 14.597 14.597 0 0 1-3.508-5.933 4.262 4.262 0 0 0-.883-1.613c-.632-.852-1.054-1.782-2.134-2.232-1.119-.489-.367-2.022-1.132-2.639-.34-.272-.443-.612-.824-.83a.952.952 0 0 1-.41-1.007c.164-.634.217-1.29.156-1.942a4.884 4.884 0 0 1 .705-4.507c.336-.33-.347-.692-1.333-1.094-.561-.224-.492-.4-.16-.554.281-.07.524-.248.675-.494a.677.677 0 0 0-.041-.7c-.182-.44-.2-.86.38-.876.36-.017.704-.15.982-.378.311-.204.568-.496.913-.752.374-.27.763-.518 1.166-.743.259-.147.588-.182.788-.513.52-.783 1.379-.707 2.124-1.21a2.843 2.843 0 0 1 1.438-.53c.551.06 1.061.317 1.435.726.255.311.588.55.966.69.347.053.692.13 1.037.196.34.114.686.208 1.037.282a4.444 4.444 0 0 0 2.399-.204c.69-.286.852.577 1.16 1.039a1.238 1.238 0 0 0 1.049.428c.57.026 1.241-.084 1.442.606.221.816.855 1.1 1.292 1.618.464.581 1.028 1.089 1.515 1.643a3.16 3.16 0 0 1 .704 2.324c.83.647 1.783 1.233 1.998 2.44.097.552.746.766 1.124 1.167.127.085.266.148.412.19a2.905 2.905 0 0 1 2.006 3.028c-.016.123.161.266.312.234 1.581-.33 1.406.509 1.493 1.227.038.562.516.977.909 1.41a3.82 3.82 0 0 1 1.247 3.7c-.118.468-.093.96.07 1.414.61 1.867 1.085 3.774 1.828 5.602-.079.251-.217.48-.402.668a4.992 4.992 0 0 0-1.005 3.929c.24 1.633.072 3.3-.491 4.852-.5 1.729-.86 3.497-1.076 5.284a8.654 8.654 0 0 0 .113 4.539 9.476 9.476 0 0 0 1.916 3.711 6.789 6.789 0 0 0 2.782 1.897 5.926 5.926 0 0 0 3.326.188l.678-.171.559-.178a12.09 12.09 0 0 0 1.158-.401 10.776 10.776 0 0 0 2.272-1.162 6.64 6.64 0 0 0 2.683-3.313c.104-.411.258-.83.381-1.219.107-.37.219-.745.296-1.122a32.562 32.562 0 0 0-.008-8.999c-.305-2.7-.741-5.276-1.203-7.837-.096-.65-.248-1.29-.454-1.914.25-.117.509-.215.773-.294.591-.17 1.204-.043 1.964-.293.791-.23 1.18 1.123 1.881 1.349.597.189 1.508.2 1.678 1.336 1.183-.309 1.483.902 2.082 1.558a5.056 5.056 0 0 0 2.137 1.301 2.321 2.321 0 0 1 1.344 1.607 14.92 14.92 0 0 0 3.443 6.149 1.167 1.167 0 0 1 .125 1.115 4.692 4.692 0 0 0 .038 2.644c.079.712 1.116 1.339.607 2.136-.574.805.599 1.424.789 2.188.218.698.242 1.442.07 2.152a11.743 11.743 0 0 1-.675 2.209c-.09.547-.215 1.088-.376 1.619a14.071 14.071 0 0 1-.561 1.749c-.168.482.22.944 1.008 1.216l3.032.957a2.742 2.742 0 0 0 2.05.009c.711-.331 1.742-.587 2.007-1.186.796-1.565 2.193-2.962 2.78-4.723a3.738 3.738 0 0 0 .164-1.89Zm-35.741-5.882-.004.002c-.022-.011-.017-.011.004-.002Z"/><path fill="#000638" d="M274.054 100.706c-.095-.331-.212-.661-.326-.988a21.788 21.788 0 0 1-.372-1.134c-.335-.95-.585-1.899-.94-2.779l-1.907-5.18a32.923 32.923 0 0 0-3.903-7.802 19.11 19.11 0 0 0-5.303-5.467 9.15 9.15 0 0 0-3.062-1.376 7.67 7.67 0 0 0-3.518-.052c-.271.062-.537.14-.797.235-1.025-1.033-2.074-2.003-3.109-2.968l-1.247-1.177a14.361 14.361 0 0 0-2.198-1.763 8.27 8.27 0 0 0-4.683-1.364 7.453 7.453 0 0 0-3.082.768 7.84 7.84 0 0 0-2.41 1.852 5.239 5.239 0 0 0-1.43 3.95c.062.816.355 1.597.845 2.252a5.104 5.104 0 0 1 1.423 3.33c-.394 3.25-.02 7.274 2.253 9.796 1.122 1.233 2.107 1.19 2.785.806a2.827 2.827 0 0 0 1.235-1.556c.569-2.529.881-5.109.93-7.7.007-.383-.015-.754-.027-1.13.483.513.92 1.067 1.308 1.655.388.61.789 1.233 1.193 1.865a25.347 25.347 0 0 0-.398 1.883 47.399 47.399 0 0 0-.711 8.417 11.882 11.882 0 0 1-.838 3.722 4.927 4.927 0 0 0-.038 2.486 9.17 9.17 0 0 0 .913 2.126c.383.646.812 1.235 1.144 1.861.397.641.68 1.346.838 2.083a8.24 8.24 0 0 0 .926 3.32c.083.105.178.2.284.282.097.076.212.156.4.284.4.259.815.494 1.241.706a17.476 17.476 0 0 0 3.971 1.423 7.639 7.639 0 0 0 4.692-.441 8.263 8.263 0 0 0 2.15-1.363c-.02.208-.037.416-.045.624a3.542 3.542 0 0 1-1.778 2.621c-1.612 1.176-.278 6.194-1.204 7.992-.659 1.279-.585 1.334 1.184 1.772a7.701 7.701 0 0 0 3.662.516 47.255 47.255 0 0 0 5.344-3.179c1.427-1.075.96-2.952 2.493-4.088 1.324-.987 1.061-2.188.766-3.392a3.396 3.396 0 0 1 .571-3.665 5.037 5.037 0 0 0 1.171-1.896 13.496 13.496 0 0 0-.396-8.167Zm-15.647 2.171c-.021-.015-.04-.035-.061-.05l.018-.02.006.006.023.029c.006.01.045.063.014.035Z"/><path fill="#006ADC" d="M271.835 111.748a9.078 9.078 0 0 0-.961-2.28 6.706 6.706 0 0 1-1.155-5.106c.162-1.18.155-2.376-.024-3.553a16.436 16.436 0 0 0-.761-2.978 10.786 10.786 0 0 0-1.166-2.164 7.71 7.71 0 0 0-2.7-2.197 14.588 14.588 0 0 0-3.009-1.061 13.806 13.806 0 0 0-3.508-.3 41.36 41.36 0 0 1-3.343-4.965 12.866 12.866 0 0 1-.858-3.622 17.537 17.537 0 0 0-.394-1.925 9.203 9.203 0 0 0-.3-.93 1.345 1.345 0 0 0-.121-.263l-.252-.41c-.17-.26-.355-.51-.553-.75a12.314 12.314 0 0 0-2.543-1.88 9.576 9.576 0 0 0-4.515-1.285 7.856 7.856 0 0 0-3.656.818 7.544 7.544 0 0 0-3.931 5.041 8.335 8.335 0 0 0-.211 1.724l.116 3.183a37.67 37.67 0 0 1-.052 3.12c-.121 2.656 3.669 3.506 3.624 5.746-.046 2.942.264 6.411 2.236 8.765a2.197 2.197 0 0 0 2.691.887 28.703 28.703 0 0 0-.21 2.159 29.63 29.63 0 0 0 .97 9.462 19.179 19.179 0 0 0 4.022 8.3c.419.395.881.744 1.376 1.039.188.109.381.209.579.298a6.03 6.03 0 0 0 3.183.523 5.871 5.871 0 0 0 4.189-2.568c.296-.445.532-.927.7-1.434.394.024.789.026 1.182.006a8.47 8.47 0 0 0 3.668-.452 31.893 31.893 0 0 0 4.236-4.318c1.034-1.407.014-2.964 1.108-4.463.207-.274.355-.589.432-.924a3.638 3.638 0 0 0-.089-1.243Zm-21.632-15.483c-.493.585-.938 1.21-1.331 1.867a20.76 20.76 0 0 0-.02-1.836c-.024-.356-.06-.708-.105-1.057a2.273 2.273 0 0 0 1.456 1.026Zm-3.513-7.74a55.881 55.881 0 0 1 2.076 3.343 4.06 4.06 0 0 1-.123 2.698 9.333 9.333 0 0 0-2.392-5.075c-.19-.195.219-.623.439-.966Z"/></g></svg>