<svg xmlns="http://www.w3.org/2000/svg" width="687" height="791" fill="none" viewBox="0 0 687 791"><path fill="#F2F3F5" d="M310.183 387.519a104.603 104.603 0 0 0-31.184 4.71c-50.487 15.266-82.123 65.267-74.299 117.428 7.824 52.161 52.739 90.679 105.483 90.461a110.274 110.274 0 0 0 31.345-4.71c50.045-15.689 81.189-65.51 73.369-117.37-7.819-51.861-52.269-90.284-104.714-90.519Z"/><path fill="#006ADC" d="M280.947 433.319c9.979 31.436-.046 65.786-25.369 86.918-25.322 21.133-60.911 24.851-90.054 9.408-29.143-15.442-46.052-46.978-42.785-79.798 3.266-32.819 26.059-60.404 57.674-69.799 42.429-12.61 87.141 11.083 100.534 53.271Z"/><path fill="#FFAD1D" d="M510.924 687.984c12.927 41.996-10.628 86.522-52.619 99.464-41.992 12.943-86.526-10.596-99.485-52.582-12.958-41.986 10.564-86.53 52.545-99.504a79.583 79.583 0 0 1 99.559 52.622Z"/><path fill="#5B12EB" d="M18.974 570.396a56.012 56.012 0 0 0-16.241 2.437c-27.446 8.461-43.731 36.648-37.353 64.651 6.38 28.004 33.265 46.357 61.668 42.097 28.404-4.261 48.722-29.695 46.603-58.337-2.118-28.643-25.956-50.811-54.677-50.848"/><path fill="#FE5455" d="M526.03 472.136a37.496 37.496 0 0 0-11.856 1.787c-19.205 5.893-31.213 24.943-28.247 44.811 2.966 19.869 20.015 34.581 40.103 34.609a43.991 43.991 0 0 0 12.019-1.787c19.234-5.902 31.245-24.999 28.235-44.892-3.011-19.893-20.135-34.581-40.254-34.528Z"/><path fill="#B3B4C3" d="M89.787 157.541a89.21 89.21 0 0 0-26.636 4.06c-45.127 14.01-71.824 60.441-61.229 106.49 10.595 46.049 54.899 76.143 101.611 69.023 46.713-7.121 80.037-49.049 76.43-96.164-3.606-47.114-42.924-83.481-90.176-83.409Z"/><path fill="#E6E6EB" d="M452.292 0a165.825 165.825 0 0 0-49.698 7.633c-79.371 24.71-128.924 103.543-116.777 185.779 12.148 82.236 82.376 143.376 165.501 144.083a170.847 170.847 0 0 0 49.699-7.471c79.639-24.515 129.461-103.491 117.291-185.925C606.138 61.665 535.619.456 452.292 0"/><path fill="#18A47D" d="M616.819 95.012c-36.036.015-66.115 27.507-69.362 63.397-3.248 35.889 21.408 68.334 56.856 74.817a66.792 66.792 0 0 0 12.669 1.137c36.036-.015 66.115-27.507 69.362-63.397 3.248-35.89-21.408-68.334-56.856-74.817a66.76 66.76 0 0 0-12.669-1.137Z"/></svg>