<svg xmlns="http://www.w3.org/2000/svg" width="498" height="298" fill="none" viewBox="0 0 498 298"><g clip-path="url(#a)"><path fill="#fff" d="M387.897 11.852H127.04c-19.645 0-35.571 15.92-35.571 35.557v215.034c0 19.638 15.926 35.557 35.571 35.557h260.857c19.646 0 35.572-15.919 35.572-35.557V47.409c0-19.637-15.926-35.556-35.572-35.556Z"/><path fill="#F2F3F5" d="M247.772 125.016a20.704 20.704 0 0 0-6.179.933c-10.005 3.023-16.274 12.928-14.724 23.26 1.552 10.331 10.452 17.961 20.903 17.918a21.887 21.887 0 0 0 6.211-.933c9.918-3.108 16.089-12.976 14.539-23.249-1.548-10.272-10.357-17.883-20.75-17.929Z"/><path fill="#006ADC" d="M241.98 134.089a16.083 16.083 0 0 1-5.027 17.216 16.097 16.097 0 0 1-17.845 1.863 16.084 16.084 0 0 1-8.478-15.806 16.085 16.085 0 0 1 11.429-13.825c8.406-2.498 17.267 2.195 19.921 10.552Z"/><path fill="#FFAD1D" d="M287.552 184.531c2.562 8.319-2.106 17.138-10.426 19.702-8.322 2.563-17.147-2.1-19.715-10.415-2.568-8.317 2.093-17.14 10.412-19.71a15.774 15.774 0 0 1 19.729 10.423Z"/><path fill="#5B12EB" d="M190.068 161.241a10.874 10.874 0 1 0 1.599 21.626 10.872 10.872 0 0 0-1.599-21.626Z"/><path fill="#FE5455" d="M290.543 141.777a7.44 7.44 0 0 0-2.35.354 8.042 8.042 0 0 0 2.35 15.731 8.692 8.692 0 0 0 2.381-.354 8.043 8.043 0 0 0-2.381-15.731Z"/><path fill="#B3B4C3" d="M204.096 79.462c-1.79 0-3.569.27-5.278.804-8.942 2.775-14.232 11.972-12.133 21.093 2.1 9.122 10.88 15.083 20.135 13.672 9.257-1.41 15.86-9.715 15.145-19.048-.715-9.332-8.505-16.535-17.869-16.521Z"/><path fill="#E6E6EB" d="M275.932 48.258c-3.342 0-6.662.51-9.849 1.512-15.729 4.894-25.548 20.51-23.141 36.798 2.408 16.29 16.324 28.4 32.797 28.54a33.86 33.86 0 0 0 9.848-1.48c15.78-4.856 25.654-20.5 23.241-36.828-2.412-16.328-16.384-28.452-32.896-28.542Z"/><path fill="#18A47D" d="M308.537 67.077c-7.141.003-13.102 5.449-13.744 12.558-.643 7.109 4.242 13.535 11.266 14.82.829.154 1.669.23 2.511.225 7.141-.003 13.1-5.449 13.744-12.558.643-7.109-4.242-13.535-11.266-14.82a13.253 13.253 0 0 0-2.511-.225Z"/><path stroke="#006ADC" stroke-dasharray="2 2" stroke-width="2" d="m216.817 133.761-60.98-54.182H42.347"/><path stroke="#18A47D" stroke-dasharray="2 2" stroke-width="2" d="m316.756 77.886 30.585-40.636h40.558"/><path fill="#fff" stroke="#18A47D" stroke-width="2" d="M479.368.847H401.45c-9.823 0-17.786 7.96-17.786 17.778v37.25c0 9.819 7.963 17.778 17.786 17.778h77.918c9.823 0 17.786-7.96 17.786-17.778v-37.25c0-9.819-7.963-17.778-17.786-17.778Z"/><path stroke="#FE5455" stroke-dasharray="2 2" stroke-width="2" d="m296.428 157.466 30.584 30.477h40.559"/><path fill="#fff" stroke="#FE5455" stroke-width="2" d="M437.021 153.233h-57.592c-7.952 0-14.398 6.444-14.398 14.392v27.091c0 7.949 6.446 14.392 14.398 14.392h57.592c7.952 0 14.398-6.443 14.398-14.392v-27.091c0-7.948-6.446-14.392-14.398-14.392Z"/><path fill="#000638" d="M173.266 240.55c-.225 0-.401-.068-.525-.203-.124-.136-.186-.317-.186-.542v-10.684c0-.237.062-.418.186-.542a.736.736 0 0 1 .542-.203c.203 0 .361.039.474.118.124.08.237.216.339.407l4.54 8.517h-.525l4.539-8.517c.102-.191.209-.327.322-.407.114-.079.271-.118.474-.118.226 0 .402.068.525.203.124.124.187.305.187.542v10.684c0 .225-.063.406-.187.542-.113.135-.288.203-.525.203-.237 0-.418-.068-.542-.203-.113-.136-.169-.317-.169-.542v-9.126h.373l-4.066 7.602c-.09.147-.186.259-.288.339-.09.067-.22.101-.389.101a.695.695 0 0 1-.407-.118 1.14 1.14 0 0 1-.271-.322l-4.116-7.619h.407v9.143c0 .225-.063.406-.187.542-.113.135-.288.203-.525.203Zm17.098.034c-.813 0-1.519-.175-2.117-.525a3.555 3.555 0 0 1-1.389-1.49c-.327-.643-.491-1.4-.491-2.269 0-.655.089-1.241.271-1.761.191-.53.462-.982.813-1.354.35-.373.767-.656 1.253-.847a4.348 4.348 0 0 1 1.66-.305c.813 0 1.52.175 2.117.525a3.549 3.549 0 0 1 1.389 1.49c.327.632.492 1.383.492 2.252 0 .655-.097 1.248-.288 1.778-.182.53-.446.982-.796 1.354a3.586 3.586 0 0 1-1.271.864 4.458 4.458 0 0 1-1.643.288Zm0-1.219c.496 0 .927-.119 1.287-.356.373-.237.656-.581.847-1.033.204-.452.305-1.011.305-1.676 0-.994-.22-1.749-.66-2.269-.441-.52-1.034-.779-1.779-.779-.486 0-.915.119-1.287.356-.361.225-.644.564-.847 1.016-.203.452-.305 1.011-.305 1.676 0 .994.22 1.756.661 2.286.452.52 1.045.779 1.778.779Zm6.735 1.185c-.237 0-.424-.068-.559-.203-.136-.136-.203-.334-.203-.593v-6.908c0-.259.067-.452.203-.576.135-.135.322-.203.559-.203.237 0 .417.068.542.203.136.124.203.317.203.576v1.388l-.186-.254c.237-.643.62-1.129 1.152-1.456.542-.327 1.157-.491 1.846-.491.666 0 1.213.119 1.643.356.429.237.751.598.966 1.083.213.486.322 1.101.322 1.846v4.436c0 .259-.068.457-.204.593-.125.135-.311.203-.559.203-.249 0-.44-.068-.576-.203-.135-.136-.203-.334-.203-.593v-4.351c0-.733-.142-1.27-.423-1.609-.283-.338-.736-.508-1.355-.508-.724 0-1.305.225-1.745.677-.43.441-.644 1.038-.644 1.795v3.996c0 .53-.261.796-.779.796Zm14.11-.034c-.237 0-.424-.073-.559-.22-.136-.147-.203-.351-.203-.61v-6.755c0-.271.067-.474.203-.61.135-.147.322-.22.559-.22.247 0 .44.073.576.22.135.136.203.339.203.61v6.755c0 .259-.068.463-.203.61-.125.147-.317.22-.576.22Zm0-10.244c-.305 0-.549-.079-.728-.237-.17-.169-.254-.389-.254-.66 0-.293.084-.513.254-.66.179-.158.423-.237.728-.237.327 0 .569.079.728.237.17.147.254.367.254.66 0 .271-.084.491-.254.66-.159.158-.401.237-.728.237Zm6.408 10.312c-.723 0-1.362-.17-1.914-.508-.542-.351-.966-.847-1.271-1.49-.304-.655-.457-1.417-.457-2.286 0-.88.146-1.637.44-2.269.305-.643.729-1.134 1.271-1.473.552-.35 1.196-.525 1.931-.525.733 0 1.365.186 1.897.559.53.361.886.847 1.067 1.456h-.186v-4.893c0-.259.061-.452.186-.576.136-.135.327-.203.576-.203.247 0 .441.068.576.203.136.124.203.317.203.576v10.599c0 .259-.067.457-.203.593-.135.135-.329.203-.576.203-.237 0-.423-.068-.559-.203-.135-.136-.203-.334-.203-.593v-1.541l.186.305a2.585 2.585 0 0 1-1.067 1.507c-.532.373-1.164.559-1.897.559Zm.356-1.219c.496 0 .924-.119 1.287-.356.373-.237.654-.581.847-1.033.203-.452.305-1.011.305-1.676 0-.994-.22-1.749-.661-2.269-.44-.52-1.033-.779-1.778-.779-.487 0-.915.119-1.288.356-.362.225-.643.564-.847 1.016-.203.452-.305 1.011-.305 1.676 0 .994.221 1.756.661 2.286.451.52 1.043.779 1.779.779Zm10.246 1.219c-.893 0-1.66-.17-2.304-.508a3.714 3.714 0 0 1-1.473-1.473c-.351-.644-.526-1.4-.526-2.269 0-.859.17-1.609.509-2.252a3.904 3.904 0 0 1 1.422-1.507c.61-.361 1.305-.542 2.084-.542.554 0 1.05.097 1.491.288.452.181.835.445 1.151.796.317.35.554.779.712 1.287.169.496.254 1.061.254 1.693a.535.535 0 0 1-.17.423c-.101.09-.254.136-.457.136h-5.793v-.982h5.404l-.288.237c0-.588-.09-1.084-.271-1.49-.17-.419-.424-.734-.763-.949-.327-.215-.74-.321-1.236-.321-.542 0-1.005.13-1.389.389-.385.249-.678.605-.881 1.067-.203.452-.305.977-.305 1.575v.101c0 1.016.242 1.783.728 2.303.487.52 1.186.779 2.101.779.361 0 .728-.046 1.101-.136.384-.089.75-.254 1.101-.491.169-.101.322-.147.457-.135.148 0 .266.046.356.135.09.08.147.181.169.305a.655.655 0 0 1-.05.373.804.804 0 0 1-.322.355 4.471 4.471 0 0 1-1.338.61c-.509.135-1 .203-1.474.203Zm6-.034c-.238 0-.424-.068-.559-.203-.136-.136-.204-.334-.204-.593v-6.908c0-.259.068-.452.204-.576.135-.135.321-.203.559-.203.237 0 .416.068.542.203.135.124.203.317.203.576v1.388l-.186-.254c.237-.643.62-1.129 1.151-1.456.542-.327 1.157-.491 1.847-.491.665 0 1.213.119 1.643.356.428.237.75.598.965 1.083.214.486.322 1.101.322 1.846v4.436c0 .259-.068.457-.203.593-.125.135-.312.203-.559.203-.249 0-.441-.068-.576-.203-.136-.136-.203-.334-.203-.593v-4.351c0-.733-.143-1.27-.424-1.609-.283-.338-.735-.508-1.355-.508-.723 0-1.304.225-1.745.677-.43.441-.643 1.038-.643 1.795v3.996c0 .53-.261.796-.779.796Zm12.351.034c-.665 0-1.224-.119-1.677-.356a2.332 2.332 0 0 1-.999-1.033c-.213-.452-.322-1.004-.322-1.659v-4.165h-1.084c-.203 0-.361-.051-.474-.153a.598.598 0 0 1-.17-.44c0-.191.058-.338.17-.44.113-.102.271-.152.474-.152h1.084v-1.846c0-.259.068-.452.203-.576.136-.135.329-.203.576-.203.249 0 .436.068.559.203.136.124.204.317.204.576v1.846h2.049c.215 0 .38.05.491.152.114.102.17.249.17.44a.59.59 0 0 1-.17.44c-.111.102-.276.153-.491.153h-2.049v4.03c0 .621.13 1.088.389 1.405.261.317.69.474 1.288.474.215 0 .396-.017.542-.051a1.35 1.35 0 0 1 .389-.067.274.274 0 0 1 .254.101c.08.08.119.225.119.44 0 .158-.027.305-.085.441-.044.123-.14.208-.288.254a3.341 3.341 0 0 1-.542.118 3.064 3.064 0 0 1-.61.068Zm3.546-.068c-.238 0-.424-.073-.559-.22-.136-.147-.204-.351-.204-.61v-6.755c0-.271.068-.474.204-.61.135-.147.321-.22.559-.22.247 0 .44.073.576.22.135.136.203.339.203.61v6.755c0 .259-.068.463-.203.61-.126.147-.317.22-.576.22Zm0-10.244c-.305 0-.549-.079-.729-.237a.893.893 0 0 1-.254-.66c0-.293.085-.513.254-.66.18-.158.424-.237.729-.237.327 0 .569.079.728.237.169.147.254.367.254.66a.893.893 0 0 1-.254.66c-.159.158-.401.237-.728.237Zm4.51 10.278c-.249 0-.44-.068-.575-.203-.136-.136-.204-.334-.204-.593v-6.383h-1.016c-.203 0-.363-.051-.474-.153a.59.59 0 0 1-.17-.44c0-.191.056-.338.17-.44.111-.102.271-.152.474-.152h1.44l-.424.406v-.626c0-1.096.265-1.926.796-2.489.542-.576 1.332-.91 2.372-.999l.525-.034c.169-.022.305.005.406.084.102.068.17.158.204.271a.634.634 0 0 1 0 .356.673.673 0 0 1-.153.305.452.452 0 0 1-.305.152l-.372.017c-.678.056-1.169.259-1.474.609-.305.339-.457.847-.457 1.524v.678l-.221-.254h1.948c.214 0 .378.05.492.152.111.102.169.249.169.44a.602.602 0 0 1-.169.44c-.114.102-.278.153-.492.153h-1.727v6.383c0 .53-.254.796-.763.796Zm5.265-.034c-.237 0-.423-.073-.559-.22-.135-.147-.203-.351-.203-.61v-6.755c0-.271.068-.474.203-.61.136-.147.322-.22.559-.22.249 0 .44.073.576.22.135.136.203.339.203.61v6.755c0 .259-.068.463-.203.61-.124.147-.317.22-.576.22Zm0-10.244c-.305 0-.547-.079-.728-.237-.17-.169-.254-.389-.254-.66 0-.293.084-.513.254-.66.181-.158.423-.237.728-.237.327 0 .571.079.728.237.17.147.254.367.254.66 0 .271-.084.491-.254.66-.157.158-.401.237-.728.237Zm5.883 10.312a3.485 3.485 0 0 1-1.542-.339 2.716 2.716 0 0 1-1.067-.914 2.314 2.314 0 0 1-.372-1.287c0-.61.152-1.089.457-1.439.305-.351.818-.598 1.541-.745.724-.158 1.694-.237 2.914-.237h.796v.982h-.762c-.869 0-1.559.039-2.067.118-.496.08-.847.22-1.05.424-.203.191-.305.462-.305.812 0 .441.153.801.457 1.084.317.283.746.423 1.288.423.428 0 .808-.101 1.135-.304a2.35 2.35 0 0 0 .779-.847c.191-.361.288-.774.288-1.236v-1.947c0-.666-.136-1.147-.407-1.439-.271-.305-.728-.458-1.372-.458-.372 0-.757.051-1.152.153a6.204 6.204 0 0 0-1.236.474c-.169.079-.317.107-.44.085a.566.566 0 0 1-.305-.204.84.84 0 0 1-.119-.355c0-.136.029-.266.085-.39a.594.594 0 0 1 .339-.271 6.05 6.05 0 0 1 1.473-.524 6.23 6.23 0 0 1 1.389-.17c.734 0 1.338.119 1.813.356.474.225.83.581 1.067 1.067.237.474.355 1.083.355 1.828v4.47c0 .259-.062.457-.186.593-.124.135-.305.203-.542.203a.736.736 0 0 1-.542-.203c-.124-.136-.186-.334-.186-.593v-1.202h.152c-.09.418-.259.779-.508 1.084a2.554 2.554 0 0 1-.932.711c-.36.157-.774.237-1.236.237Zm7.168-.034c-.237 0-.423-.068-.559-.203-.135-.136-.203-.334-.203-.593v-6.908c0-.259.068-.452.203-.576.136-.135.322-.203.559-.203.237 0 .419.068.542.203.136.124.204.317.204.576v1.388l-.187-.254c.237-.643.622-1.129 1.152-1.456.542-.327 1.157-.491 1.846-.491.666 0 1.215.119 1.644.356.428.237.75.598.965 1.083.215.486.322 1.101.322 1.846v4.436c0 .259-.068.457-.203.593-.124.135-.31.203-.559.203-.249 0-.441-.068-.576-.203-.136-.136-.204-.334-.204-.593v-4.351c0-.733-.14-1.27-.423-1.609-.283-.338-.733-.508-1.355-.508-.723 0-1.304.225-1.745.677-.428.441-.643 1.038-.643 1.795v3.996c0 .53-.26.796-.78.796Zm12.354.034c-.668 0-1.227-.119-1.677-.356a2.323 2.323 0 0 1-1-1.033c-.215-.452-.321-1.004-.321-1.659v-4.165h-1.084c-.204 0-.363-.051-.475-.153a.594.594 0 0 1-.169-.44c0-.191.056-.338.169-.44.112-.102.271-.152.475-.152h1.084v-1.846c0-.259.067-.452.203-.576.135-.135.327-.203.576-.203.247 0 .433.068.559.203.135.124.203.317.203.576v1.846h2.05c.213 0 .377.05.491.152.112.102.169.249.169.44a.598.598 0 0 1-.169.44c-.114.102-.278.153-.491.153h-2.05v4.03c0 .621.129 1.088.39 1.405.259.317.687.474 1.287.474.213 0 .395-.017.542-.051a1.34 1.34 0 0 1 .39-.067.276.276 0 0 1 .254.101c.078.08.118.225.118.44 0 .158-.029.305-.084.441a.421.421 0 0 1-.288.254 3.416 3.416 0 0 1-.542.118 3.103 3.103 0 0 1-.61.068Zm10.012 0c-.665 0-1.224-.124-1.677-.373a2.286 2.286 0 0 1-.982-1.1c-.215-.486-.322-1.096-.322-1.829v-4.436c0-.259.063-.452.186-.576.136-.135.327-.203.576-.203.249 0 .441.068.576.203.136.124.203.317.203.576v4.436c0 .699.141 1.219.424 1.558.283.327.728.491 1.338.491.678 0 1.225-.225 1.643-.677.429-.453.644-1.05.644-1.795v-4.013c0-.259.063-.452.186-.576.136-.135.327-.203.576-.203.249 0 .441.068.576.203.136.124.203.317.203.576v6.908c0 .53-.249.796-.745.796-.249 0-.44-.068-.576-.203-.124-.136-.186-.334-.186-.593v-1.473l.22.288c-.225.655-.593 1.156-1.101 1.507-.496.338-1.084.508-1.762.508Zm7.392-.034c-.237 0-.423-.068-.559-.203-.135-.136-.203-.334-.203-.593v-6.908c0-.259.068-.452.203-.576.136-.135.322-.203.559-.203.238 0 .419.068.542.203.136.124.204.317.204.576v1.388l-.187-.254c.238-.643.622-1.129 1.152-1.456.542-.327 1.159-.491 1.847-.491.667 0 1.214.119 1.643.356.43.237.752.598.965 1.083.215.486.322 1.101.322 1.846v4.436c0 .259-.068.457-.203.593-.124.135-.31.203-.559.203-.248 0-.441-.068-.576-.203-.136-.136-.204-.334-.204-.593v-4.351c0-.733-.14-1.27-.423-1.609-.281-.338-.733-.508-1.355-.508-.722 0-1.304.225-1.745.677-.428.441-.643 1.038-.643 1.795v3.996c0 .53-.26.796-.78.796Zm9.694-.034c-.237 0-.423-.073-.559-.22-.135-.147-.203-.351-.203-.61v-6.755c0-.271.068-.474.203-.61.136-.147.322-.22.559-.22.249 0 .441.073.576.22.136.136.204.339.204.61v6.755c0 .259-.068.463-.204.61-.123.147-.316.22-.576.22Zm0-10.244c-.304 0-.547-.079-.728-.237a.893.893 0 0 1-.254-.66c0-.293.085-.513.254-.66.181-.158.424-.237.728-.237.327 0 .571.079.729.237.169.147.254.367.254.66a.893.893 0 0 1-.254.66c-.158.158-.402.237-.729.237Zm9.949 13.326c-.249 0-.441-.068-.576-.204-.124-.135-.187-.326-.187-.575v-4.267h.187a2.696 2.696 0 0 1-1.067 1.473c-.531.373-1.164.559-1.898.559-.733 0-1.377-.17-1.931-.508-.542-.351-.965-.847-1.27-1.49-.293-.655-.44-1.417-.44-2.286 0-.88.152-1.637.457-2.269.305-.643.728-1.134 1.27-1.473.554-.35 1.191-.525 1.914-.525.734 0 1.367.186 1.898.559.542.372.897.869 1.067 1.49l-.187.305v-1.541c0-.259.068-.452.204-.576.135-.135.321-.203.559-.203.249 0 .44.068.576.203.135.124.203.317.203.576v9.973c0 .249-.068.44-.203.575-.136.136-.327.204-.576.204Zm-3.185-4.233c.496 0 .927-.119 1.287-.356.373-.237.656-.581.847-1.033.204-.452.305-1.011.305-1.676 0-.994-.22-1.749-.66-2.269-.441-.52-1.034-.779-1.779-.779-.486 0-.915.119-1.287.356-.361.225-.644.564-.847 1.016-.203.452-.305 1.011-.305 1.676 0 .994.22 1.756.661 2.286.452.52 1.045.779 1.778.779Zm9.382 1.219c-.665 0-1.224-.124-1.676-.373a2.283 2.283 0 0 1-.983-1.1c-.213-.486-.322-1.096-.322-1.829v-4.436c0-.259.063-.452.187-.576.135-.135.328-.203.575-.203.249 0 .441.068.576.203.136.124.204.317.204.576v4.436c0 .699.142 1.219.423 1.558.283.327.729.491 1.338.491.678 0 1.227-.225 1.643-.677.431-.453.644-1.05.644-1.795v-4.013c0-.259.063-.452.186-.576.136-.135.329-.203.576-.203.249 0 .441.068.576.203.136.124.203.317.203.576v6.908c0 .53-.247.796-.745.796-.247 0-.44-.068-.576-.203-.123-.136-.186-.334-.186-.593v-1.473l.22.288c-.225.655-.593 1.156-1.101 1.507-.496.338-1.084.508-1.762.508Zm10.443 0c-.892 0-1.66-.17-2.303-.508a3.698 3.698 0 0 1-1.474-1.473c-.351-.644-.525-1.4-.525-2.269 0-.859.169-1.609.508-2.252a3.877 3.877 0 0 1 1.423-1.507c.61-.361 1.304-.542 2.083-.542.552 0 1.05.097 1.491.288.45.181.835.445 1.152.796.315.35.552.779.711 1.287.17.496.254 1.061.254 1.693a.541.541 0 0 1-.169.423c-.102.09-.254.136-.458.136h-5.793v-.982h5.404l-.288.237c0-.588-.092-1.084-.271-1.49-.169-.419-.424-.734-.762-.949-.329-.215-.741-.321-1.237-.321-.542 0-1.006.13-1.389.389-.384.249-.677.605-.881 1.067-.203.452-.305.977-.305 1.575v.101c0 1.016.243 1.783.729 2.303.484.52 1.186.779 2.1.779.361 0 .729-.046 1.101-.136a3.286 3.286 0 0 0 1.101-.491c.17-.101.322-.147.458-.135.145 0 .264.046.355.135.09.08.146.181.17.305a.648.648 0 0 1-.051.373.81.81 0 0 1-.322.355c-.373.259-.82.462-1.338.61a5.73 5.73 0 0 1-1.474.203ZM153.695 274.524c-.644 0-1.135-.178-1.474-.534-.339-.355-.508-.855-.508-1.498v-14.299c0-.643.169-1.143.508-1.498.339-.356.83-.534 1.474-.534.626 0 1.109.178 1.448.534.339.355.508.855.508 1.498v14.299c0 .643-.169 1.143-.508 1.498-.322.356-.805.534-1.448.534Zm7.162 0c-.627 0-1.11-.169-1.449-.508-.321-.339-.482-.821-.482-1.448v-9.016c0-.626.161-1.101.482-1.422.339-.339.805-.508 1.398-.508.61 0 1.075.169 1.397.508.322.321.483.796.483 1.422V265l-.279-.838c.389-.83.965-1.465 1.727-1.905.779-.457 1.66-.686 2.643-.686.999 0 1.821.195 2.464.584.644.373 1.127.948 1.448 1.727.322.762.483 1.736.483 2.921v5.765c0 .627-.169 1.109-.508 1.448-.322.339-.796.508-1.423.508-.609 0-1.084-.169-1.423-.508-.321-.339-.482-.821-.482-1.448v-5.587c0-.864-.161-1.482-.483-1.854-.305-.39-.779-.584-1.423-.584-.813 0-1.465.253-1.956.761-.475.508-.712 1.186-.712 2.032v5.232c0 1.304-.635 1.956-1.905 1.956Zm19.252.051c-1.355 0-2.541-.263-3.557-.788a5.669 5.669 0 0 1-2.312-2.286c-.542-.982-.813-2.141-.813-3.479 0-.999.152-1.896.457-2.692a5.56 5.56 0 0 1 1.321-2.032 5.874 5.874 0 0 1 2.135-1.27c.83-.305 1.753-.457 2.769-.457.525 0 1.084.068 1.677.203.593.119 1.177.33 1.753.635.339.152.568.373.686.66.136.271.186.559.153.864-.034.288-.144.55-.331.787-.169.22-.389.373-.66.457-.271.068-.576.017-.915-.152a3.75 3.75 0 0 0-1.016-.406 3.973 3.973 0 0 0-.966-.127c-.508 0-.957.084-1.346.254-.39.152-.72.381-.991.685a3.214 3.214 0 0 0-.61 1.093c-.136.44-.203.948-.203 1.523 0 1.118.271 1.998.813 2.642.559.626 1.338.939 2.337.939.305 0 .627-.033.966-.101.338-.085.677-.22 1.016-.406.339-.17.644-.212.915-.127.271.084.482.245.635.482.169.22.262.483.279.787.034.288-.017.576-.152.864-.119.271-.339.482-.661.635a6.999 6.999 0 0 1-1.727.609 7.192 7.192 0 0 1-1.652.204Zm10.558 0c-1.508 0-2.634-.415-3.379-1.245-.746-.846-1.118-2.099-1.118-3.759v-11.454c0-.644.161-1.126.483-1.448.338-.338.821-.508 1.448-.508.61 0 1.075.17 1.397.508.339.322.508.804.508 1.448v11.302c0 .694.144 1.21.432 1.549.305.322.703.483 1.195.483.135 0 .262-.009.381-.026a2.68 2.68 0 0 1 .381-.025c.271-.034.457.051.559.254.118.186.178.567.178 1.143 0 .508-.102.897-.305 1.168-.204.254-.517.423-.94.508-.17.017-.365.034-.585.051-.22.034-.432.051-.635.051Zm8.563 0c-1.051 0-1.923-.195-2.618-.585-.694-.389-1.211-.973-1.549-1.752-.322-.796-.483-1.778-.483-2.946v-5.74c0-.643.161-1.126.483-1.448.338-.321.813-.482 1.422-.482.61 0 1.085.161 1.423.482.339.322.508.805.508 1.448v5.841c0 .745.153 1.304.458 1.677.305.355.787.533 1.448.533.728 0 1.321-.254 1.779-.762.474-.525.711-1.21.711-2.057v-5.232c0-.643.161-1.126.483-1.448.339-.321.813-.482 1.423-.482.626 0 1.101.161 1.423.482.338.322.508.805.508 1.448v9.016c0 1.304-.619 1.956-1.855 1.956-.61 0-1.076-.169-1.398-.508-.321-.339-.482-.821-.482-1.448v-1.701l.381.99c-.373.864-.906 1.532-1.601 2.006-.694.475-1.516.712-2.464.712Zm15.165 0c-.745 0-1.516-.068-2.312-.204a7.711 7.711 0 0 1-2.135-.685c-.338-.17-.584-.381-.736-.635a1.572 1.572 0 0 1-.178-.813c.017-.271.101-.516.254-.737.169-.22.381-.364.635-.431.271-.085.567-.06.889.076.695.288 1.33.491 1.906.609a8.393 8.393 0 0 0 1.702.178c.729 0 1.254-.11 1.576-.33.338-.237.508-.542.508-.914 0-.339-.11-.593-.331-.762-.22-.169-.542-.288-.965-.356l-2.668-.482c-1.05-.187-1.863-.568-2.439-1.143-.559-.593-.839-1.346-.839-2.261 0-.846.238-1.574.712-2.184.474-.626 1.126-1.1 1.956-1.422.847-.339 1.804-.508 2.871-.508.763 0 1.466.068 2.109.203a7.401 7.401 0 0 1 1.855.66c.305.153.517.356.635.61.136.254.178.516.127.787a1.488 1.488 0 0 1-.305.737c-.169.22-.389.364-.66.432-.254.067-.551.034-.89-.102a7.267 7.267 0 0 0-1.499-.533 5.234 5.234 0 0 0-1.321-.178c-.762 0-1.313.127-1.651.381-.339.237-.509.542-.509.914 0 .288.094.534.28.737.203.186.508.313.915.381l2.668.482c1.101.187 1.939.559 2.515 1.118.576.542.864 1.287.864 2.235 0 1.287-.508 2.303-1.525 3.048-.999.728-2.337 1.092-4.014 1.092Zm9.66-.077c-.627 0-1.109-.177-1.448-.533-.322-.372-.483-.889-.483-1.549v-8.686c0-.678.161-1.194.483-1.549.339-.373.821-.559 1.448-.559.61 0 1.076.186 1.397.559.339.355.509.871.509 1.549v8.686c0 .66-.161 1.177-.483 1.549-.322.356-.796.533-1.423.533Zm0-14.959c-.711 0-1.262-.161-1.652-.482-.372-.339-.558-.813-.558-1.423 0-.626.186-1.1.558-1.422.39-.339.941-.508 1.652-.508s1.253.169 1.626.508c.373.322.559.796.559 1.422 0 .61-.186 1.084-.559 1.423-.373.321-.915.482-1.626.482Zm10.863 15.036c-1.338 0-2.507-.263-3.506-.788a5.545 5.545 0 0 1-2.287-2.26c-.542-.982-.813-2.142-.813-3.48 0-.999.152-1.896.457-2.692a5.56 5.56 0 0 1 1.321-2.032 5.743 5.743 0 0 1 2.109-1.295c.813-.305 1.719-.457 2.719-.457 1.338 0 2.498.262 3.481.787a5.556 5.556 0 0 1 2.312 2.235c.559.965.838 2.117.838 3.454 0 1.016-.161 1.922-.482 2.718a5.809 5.809 0 0 1-1.322 2.057 5.725 5.725 0 0 1-2.108 1.321c-.814.288-1.72.432-2.719.432Zm0-2.87c.559 0 1.042-.136 1.448-.407.407-.271.728-.669.966-1.193.237-.542.355-1.228.355-2.058 0-1.236-.254-2.141-.762-2.717-.508-.593-1.177-.889-2.007-.889-.542 0-1.025.127-1.448.381-.407.254-.729.652-.966 1.194-.22.524-.33 1.202-.33 2.031 0 1.236.254 2.159.762 2.769.508.592 1.169.889 1.982.889Zm10.897 2.819c-.627 0-1.11-.169-1.449-.508-.322-.339-.482-.821-.482-1.448v-9.016c0-.626.16-1.101.482-1.422.339-.339.805-.508 1.398-.508.61 0 1.075.169 1.397.508.322.321.483.796.483 1.422V265l-.28-.838c.39-.83.966-1.465 1.728-1.905.779-.457 1.66-.686 2.643-.686.999 0 1.821.195 2.464.584.644.373 1.127.948 1.449 1.727.321.762.482 1.736.482 2.921v5.765c0 .627-.169 1.109-.508 1.448-.322.339-.796.508-1.423.508-.61 0-1.084-.169-1.423-.508-.321-.339-.482-.821-.482-1.448v-5.587c0-.864-.161-1.482-.483-1.854-.305-.39-.779-.584-1.423-.584-.813 0-1.465.253-1.956.761-.475.508-.712 1.186-.712 2.032v5.232c0 1.304-.635 1.956-1.905 1.956Zm29.297.051c-1.931 0-3.583-.381-4.955-1.143a7.922 7.922 0 0 1-3.176-3.2c-.728-1.389-1.092-3.023-1.092-4.902 0-1.406.203-2.667.61-3.784.423-1.135 1.033-2.1 1.829-2.896.796-.813 1.762-1.439 2.896-1.879 1.152-.44 2.448-.661 3.888-.661.847 0 1.702.111 2.566.331.881.203 1.643.499 2.287.889.423.237.711.533.864.888.152.356.195.712.127 1.067a1.645 1.645 0 0 1-.432.914c-.22.254-.5.415-.839.483-.338.068-.72-.008-1.143-.229a5.752 5.752 0 0 0-1.601-.66 7.223 7.223 0 0 0-1.702-.203c-1.135 0-2.092.229-2.871.686-.762.44-1.338 1.083-1.728 1.93-.39.847-.584 1.888-.584 3.124 0 1.219.194 2.26.584 3.124.39.863.966 1.524 1.728 1.981.779.44 1.736.66 2.871.66.542 0 1.092-.068 1.651-.203a6.548 6.548 0 0 0 1.652-.635c.44-.22.83-.296 1.169-.229.355.051.643.204.864.458.237.237.381.524.432.863.067.339.033.677-.102 1.016-.136.339-.39.626-.762.864-.627.423-1.398.753-2.312.99a10.81 10.81 0 0 1-2.719.356Zm13.451 0c-1.338 0-2.507-.263-3.506-.788a5.545 5.545 0 0 1-2.287-2.26c-.542-.982-.813-2.142-.813-3.48 0-.999.152-1.896.457-2.692a5.56 5.56 0 0 1 1.321-2.032 5.743 5.743 0 0 1 2.109-1.295c.813-.305 1.72-.457 2.719-.457 1.338 0 2.498.262 3.481.787a5.556 5.556 0 0 1 2.312 2.235c.559.965.838 2.117.838 3.454 0 1.016-.16 1.922-.482 2.718a5.809 5.809 0 0 1-1.322 2.057c-.575.576-1.278 1.016-2.108 1.321-.813.288-1.72.432-2.719.432Zm0-2.87c.559 0 1.042-.136 1.448-.407.407-.271.729-.669.966-1.193.237-.542.355-1.228.355-2.058 0-1.236-.254-2.141-.762-2.717-.508-.593-1.177-.889-2.007-.889-.542 0-1.025.127-1.448.381-.407.254-.729.652-.966 1.194-.22.524-.33 1.202-.33 2.031 0 1.236.254 2.159.762 2.769.508.592 1.169.889 1.982.889Zm10.897 2.819c-.627 0-1.11-.169-1.449-.508-.321-.339-.482-.821-.482-1.448v-9.016c0-.626.161-1.101.482-1.422.339-.339.805-.508 1.398-.508.61 0 1.075.169 1.397.508.322.321.483.796.483 1.422V265l-.279-.838c.389-.83.965-1.465 1.727-1.905.779-.457 1.66-.686 2.643-.686.999 0 1.821.195 2.464.584.644.373 1.127.948 1.449 1.727.321.762.482 1.736.482 2.921v5.765c0 .627-.169 1.109-.508 1.448-.322.339-.796.508-1.423.508-.609 0-1.084-.169-1.422-.508-.322-.339-.483-.821-.483-1.448v-5.587c0-.864-.161-1.482-.483-1.854-.305-.39-.779-.584-1.423-.584-.813 0-1.465.253-1.956.761-.475.508-.712 1.186-.712 2.032v5.232c0 1.304-.635 1.956-1.905 1.956Zm15.111 0c-.627 0-1.11-.169-1.449-.508-.321-.339-.482-.821-.482-1.448v-9.016c0-.626.161-1.101.482-1.422.339-.339.805-.508 1.398-.508.61 0 1.076.169 1.397.508.322.321.483.796.483 1.422V265l-.279-.838c.389-.83.965-1.465 1.727-1.905.78-.457 1.66-.686 2.643-.686.999 0 1.821.195 2.464.584.644.373 1.127.948 1.449 1.727.322.762.482 1.736.482 2.921v5.765c0 .627-.169 1.109-.508 1.448-.322.339-.796.508-1.423.508-.609 0-1.084-.169-1.422-.508-.322-.339-.483-.821-.483-1.448v-5.587c0-.864-.161-1.482-.483-1.854-.305-.39-.779-.584-1.423-.584-.813 0-1.465.253-1.956.761-.474.508-.712 1.186-.712 2.032v5.232c0 1.304-.635 1.956-1.905 1.956Zm19.659.051c-1.474 0-2.744-.263-3.811-.788-1.051-.542-1.864-1.295-2.44-2.26-.558-.982-.838-2.134-.838-3.454 0-1.287.271-2.413.813-3.378a5.762 5.762 0 0 1 2.261-2.286c.983-.559 2.092-.838 3.329-.838.898 0 1.711.152 2.439.457a5.137 5.137 0 0 1 1.88 1.27c.525.542.923 1.211 1.194 2.006.271.779.407 1.651.407 2.616 0 .322-.102.568-.305.737-.203.152-.5.229-.889.229h-7.978v-1.982h6.402l-.406.356c0-.694-.102-1.27-.305-1.727-.203-.474-.5-.83-.889-1.067-.373-.237-.839-.355-1.398-.355-.626 0-1.16.144-1.6.432-.441.287-.78.702-1.017 1.244-.237.542-.355 1.194-.355 1.956v.203c0 1.287.296 2.235.889 2.844.61.61 1.507.915 2.693.915.407 0 .872-.051 1.398-.153a5.988 5.988 0 0 0 1.473-.482c.39-.187.737-.246 1.042-.178.305.051.542.186.711.406.17.22.263.474.28.762.034.288-.026.576-.178.864-.152.271-.406.499-.762.685a6.88 6.88 0 0 1-1.957.712 8.997 8.997 0 0 1-2.083.254Zm13.539 0c-1.355 0-2.541-.263-3.557-.788a5.669 5.669 0 0 1-2.312-2.286c-.542-.982-.813-2.141-.813-3.479 0-.999.152-1.896.457-2.692a5.56 5.56 0 0 1 1.321-2.032 5.874 5.874 0 0 1 2.135-1.27c.83-.305 1.753-.457 2.769-.457.525 0 1.084.068 1.677.203.593.119 1.177.33 1.753.635.339.152.568.373.686.66.136.271.186.559.153.864-.034.288-.144.55-.331.787-.169.22-.389.373-.66.457-.271.068-.576.017-.915-.152a3.75 3.75 0 0 0-1.016-.406 3.973 3.973 0 0 0-.966-.127c-.508 0-.957.084-1.346.254-.39.152-.72.381-.991.685a3.214 3.214 0 0 0-.61 1.093c-.136.44-.203.948-.203 1.523 0 1.118.271 1.998.813 2.642.559.626 1.338.939 2.337.939.305 0 .627-.033.966-.101.338-.085.677-.22 1.016-.406.339-.17.644-.212.915-.127.271.084.482.245.635.482.169.22.262.483.279.787.034.288-.017.576-.152.864-.119.271-.339.482-.661.635a7.013 7.013 0 0 1-1.727.609 7.192 7.192 0 0 1-1.652.204Zm12.259 0c-1.169 0-2.152-.195-2.948-.585a3.877 3.877 0 0 1-1.753-1.701c-.373-.745-.559-1.685-.559-2.819v-4.775h-1.067c-.474 0-.847-.127-1.118-.381-.254-.254-.381-.601-.381-1.041 0-.474.127-.83.381-1.067.271-.254.644-.381 1.118-.381h1.067v-1.93c0-.644.17-1.126.508-1.448.339-.339.813-.508 1.423-.508.627 0 1.101.169 1.423.508.322.322.483.804.483 1.448v1.93h2.414c.474 0 .838.127 1.092.381.254.237.381.593.381 1.067 0 .44-.127.787-.381 1.041-.254.254-.618.381-1.092.381h-2.414v4.622c0 .711.161 1.245.483 1.6.338.356.872.534 1.6.534.254 0 .491-.026.712-.077a4.7 4.7 0 0 1 .609-.101.682.682 0 0 1 .585.228c.152.153.229.5.229 1.042 0 .406-.068.762-.204 1.066-.135.305-.372.525-.711.661-.22.084-.525.152-.915.203a5.488 5.488 0 0 1-.965.102Z"/><path fill="#E4E4E4" d="M434.762 34.993h14.679a1.128 1.128 0 0 1 1.13 1.129V47.41a1.128 1.128 0 0 1-1.13 1.129h-18.067a1.131 1.131 0 0 1-1.13-1.129V36.122a1.131 1.131 0 0 1 1.13-1.129h1.128v-1.129a7.905 7.905 0 0 1 14.977-3.534l-2.02 1.01a5.65 5.65 0 0 0-6.349-2.972 5.644 5.644 0 0 0-4.348 5.496v1.13Zm-2.26 2.258v9.03h15.811v-9.03h-15.811Zm5.647 3.386h4.516v2.258h-4.516v-2.258ZM403.989 179.478H415a.843.843 0 0 1 .846.846v8.466a.842.842 0 0 1-.846.847h-13.551a.843.843 0 0 1-.847-.847v-8.466a.848.848 0 0 1 .847-.846h.846v-.847a5.932 5.932 0 0 1 4.567-5.769 5.926 5.926 0 0 1 6.666 3.119l-1.516.757a4.24 4.24 0 0 0-4.762-2.228 4.234 4.234 0 0 0-3.261 4.121v.847Zm-1.694 1.693v6.773h11.858v-6.773h-11.858Zm4.235 2.54h3.388v1.693h-3.388v-1.693Z"/><path fill="#fff" stroke="#006ADC" stroke-width="2" d="M108.409 46.563H22.021C10.327 46.563.848 56.038.848 67.727v40.637c0 11.689 9.48 21.164 21.173 21.164h86.388c11.694 0 21.173-9.475 21.173-21.164V67.727c0-11.689-9.479-21.165-21.173-21.165Z"/><path fill="#E4E4E4" d="M57.592 84.658h22.02a1.694 1.694 0 0 1 1.694 1.693v16.932a1.692 1.692 0 0 1-1.694 1.693H52.51a1.692 1.692 0 0 1-1.694-1.693V86.351a1.693 1.693 0 0 1 1.694-1.693h1.694v-1.693a11.848 11.848 0 0 1 9.133-11.54 11.86 11.86 0 0 1 13.331 6.239l-3.03 1.513a8.467 8.467 0 0 0-9.523-4.456 8.469 8.469 0 0 0-6.523 8.244v1.693Zm-3.388 3.386v13.546h23.714V88.044H54.204Zm8.47 5.08h6.775v3.386h-6.776v-3.386Z"/></g><defs><clipPath id="a"><path fill="#fff" d="M0 0h498v298H0z"/></clipPath></defs></svg>