<svg id="itou_beta_gouv_fr" data-name="itou_beta_gouv_fr" xmlns="http://www.w3.org/2000/svg" width="146.46" height="19"><defs><style>.cls-1{fill:#373c42}</style></defs><path class="cls-1" d="M34.57 14.55V2.28h2.34V6.2a4.43 4.43 0 0 1 1.38-.91A4.52 4.52 0 0 1 39.94 5a5.07 5.07 0 0 1 2.52.63 4.56 4.56 0 0 1 1.77 1.77 4.93 4.93 0 0 1 .64 2.49 5 5 0 0 1-1.15 3.27 4.46 4.46 0 0 1-3.62 1.61 4.94 4.94 0 0 1-1.86-.32 4.72 4.72 0 0 1-1.53-1.08v1.18zm5-7.51a2.69 2.69 0 0 0-2 .81 2.85 2.85 0 0 0-.79 2.07 2.71 2.71 0 0 0 .81 2 2.85 2.85 0 0 0 2.08.79 2.79 2.79 0 0 0 2.04-.71 2.74 2.74 0 0 0 .79-2 2.79 2.79 0 0 0-.81-2.08A2.89 2.89 0 0 0 39.57 7zm17.27 3.89h-7.58a2.21 2.21 0 0 0 .94 1.32 3.1 3.1 0 0 0 1.77.49 3.06 3.06 0 0 0 1.21-.21 2.76 2.76 0 0 0 .94-.71h2.56a3.83 3.83 0 0 1-.78 1.28 5 5 0 0 1-3.9 1.67 5.84 5.84 0 0 1-2.08-.37 5.25 5.25 0 0 1-1.68-1 4.71 4.71 0 0 1-1.11-1.52 4.39 4.39 0 0 1-.41-1.88 4.58 4.58 0 0 1 .68-2.44 4.91 4.91 0 0 1 1.87-1.76 5.36 5.36 0 0 1 2.6-.64 5.28 5.28 0 0 1 2.59.64 4.61 4.61 0 0 1 1.8 1.77 5 5 0 0 1 .65 2.54 4 4 0 0 1-.07.83zM49.2 9h5.42a2.23 2.23 0 0 0-.92-1.35 3.13 3.13 0 0 0-1.78-.47 3.06 3.06 0 0 0-1.74.47A2.44 2.44 0 0 0 49.2 9zm10.32 5.56v-7.2h-1.15v-2h1.15V2.28h2.34v3.07h1.41v2h-1.41v7.19zm15.6-9.2v9.2H73v-1.2a4 4 0 0 1-3.25 1.41 5.22 5.22 0 0 1-2.54-.61 4.45 4.45 0 0 1-1.76-1.71A4.84 4.84 0 0 1 64.8 10a4.92 4.92 0 0 1 .64-2.49 4.52 4.52 0 0 1 1.78-1.73 5.25 5.25 0 0 1 2.57-.62 4.44 4.44 0 0 1 1.83.34A3.7 3.7 0 0 1 73 6.58V5.35zM70 7.17A2.71 2.71 0 0 0 68 8a2.82 2.82 0 0 0-.8 2.06A2.55 2.55 0 0 0 68 12a2.94 2.94 0 0 0 2.09.75 2.81 2.81 0 0 0 2.03-.75 2.66 2.66 0 0 0 .78-2 2.7 2.7 0 0 0-.81-2A2.89 2.89 0 0 0 70 7.17zm9.18 5.73a1 1 0 0 0-1 .94 1 1 0 0 0 1 .9 1 1 0 0 0 1-.9 1 1 0 0 0-1.01-.95zm11.58-7.55H93v7.46a8.58 8.58 0 0 1-.25 2.27 3.86 3.86 0 0 1-.82 1.55 5 5 0 0 1-4 1.6 6.06 6.06 0 0 1-3.11-.77 4.49 4.49 0 0 1-1.91-2.16h2.66a3.12 3.12 0 0 0 1.08.76 3.74 3.74 0 0 0 1.38.22 2.59 2.59 0 0 0 2-.73 3.36 3.36 0 0 0 .74-2.21 4.41 4.41 0 0 1-1.43 1.1 4.29 4.29 0 0 1-1.78.34 4.91 4.91 0 0 1-2.48-.62 4.38 4.38 0 0 1-1.71-1.74 5.14 5.14 0 0 1-.61-2.52 4.58 4.58 0 0 1 1.37-3.4 4.7 4.7 0 0 1 3.44-1.35 3.83 3.83 0 0 1 3.2 1.38zm-3 1.82a2.56 2.56 0 0 0-1.94.77 2.85 2.85 0 0 0-.74 2 2.57 2.57 0 0 0 2.75 2.76 2.61 2.61 0 0 0 2.82-2.7 2.7 2.7 0 0 0-.79-2 2.84 2.84 0 0 0-2.07-.83zm12.77-2a5.3 5.3 0 0 1 2.58.65A4.94 4.94 0 0 1 105 7.55a4.51 4.51 0 0 1 .69 2.42 4.45 4.45 0 0 1-.69 2.4 5 5 0 0 1-1.89 1.75 5.6 5.6 0 0 1-5.22 0A5 5 0 0 1 96 12.37a4.42 4.42 0 0 1-.7-2.4 4.49 4.49 0 0 1 .41-1.89 4.74 4.74 0 0 1 1.11-1.54 5.3 5.3 0 0 1 1.68-1 5.57 5.57 0 0 1 2.06-.4zm-.1 2A2.81 2.81 0 0 0 97.69 10a2.67 2.67 0 0 0 .83 2 2.72 2.72 0 0 0 2 .82 2.77 2.77 0 0 0 2-.82 2.64 2.64 0 0 0 .83-2 2.67 2.67 0 0 0-.83-2 2.82 2.82 0 0 0-2.05-.84zm16.22-1.82v9.2h-2.17v-.88a4.38 4.38 0 0 1-1.3.85 4.5 4.5 0 0 1-3.28-.13 3.2 3.2 0 0 1-1.27-1.08 3.63 3.63 0 0 1-.53-1.23 8.37 8.37 0 0 1-.15-1.8V5.35h2.35v4.5a7.73 7.73 0 0 0 .11 1.5 1.84 1.84 0 0 0 .38.85 1.76 1.76 0 0 0 1.36.55 2.48 2.48 0 0 0 1.09-.23 1.67 1.67 0 0 0 .73-.65 2.13 2.13 0 0 0 .26-.8 9.86 9.86 0 0 0 .07-1.37V5.35zm5.82 9.2l-3.94-9.2h2.61l2.26 6.1 2.22-6.1h2.65l-3.94 9.2zm7-1.66a.93.93 0 0 0-.91.95.91.91 0 0 0 .9.9.92.92 0 0 0 .95-.9 1 1 0 0 0-.86-.95zm-99 0a1 1 0 0 0-1 .94 1 1 0 0 0 1 .9 1 1 0 0 0 1-.9 1 1 0 0 0-.89-.94zM0 4.51v-2h1.19v2zm0 9.8V5.57h1.19v8.75zm4.27 0V6.64H2.38V5.57h1.89V2.5h1.18v3.07h2v1.07h-2v7.68zm8.29-9a4.49 4.49 0 0 1 2.3.6 4.25 4.25 0 0 1 1.61 1.65A4.8 4.8 0 0 1 17 10a4.48 4.48 0 0 1-1.27 3.27 4.27 4.27 0 0 1-3.2 1.3 4.84 4.84 0 0 1-2.39-.59 4.3 4.3 0 0 1-1.68-1.64A4.59 4.59 0 0 1 7.91 10a4.44 4.44 0 0 1 1.32-3.34 4.53 4.53 0 0 1 3.32-1.3zm-.09 1.09a3.16 3.16 0 0 0-2.39 1 3.51 3.51 0 0 0-1 2.52 3.38 3.38 0 0 0 1 2.48 3.32 3.32 0 0 0 2.46 1 3.13 3.13 0 0 0 2.37-1 3.45 3.45 0 0 0 .94-2.4 3.53 3.53 0 0 0-1-2.54 3.23 3.23 0 0 0-2.39-1.02zm14-.87v8.75h-1.21V13a2.91 2.91 0 0 1-1.12 1.19 3.44 3.44 0 0 1-1.7.38 4.09 4.09 0 0 1-1.8-.38 3.14 3.14 0 0 1-1.27-1.1 4.86 4.86 0 0 1-.64-2.77V5.57h1.19v4.72a3.9 3.9 0 0 0 .45 2.11 2.08 2.08 0 0 0 .88.77 2.88 2.88 0 0 0 1.28.27 2.85 2.85 0 0 0 1.27-.28 2.44 2.44 0 0 0 .94-.8 4.1 4.1 0 0 0 .53-2.29v-4.5z"/><path class="cls-1" d="M132.67 6h1.93l-1.95 9c-.51 2.33-1.21 3.49-2.12 3.49a.38.38 0 0 1-.42-.36.4.4 0 0 1 .08-.21.63.63 0 0 0 .11-.36.83.83 0 0 0-.84-.83.84.84 0 0 0-.78.91 1.51 1.51 0 0 0 1.66 1.36c1.93 0 3.43-2.12 4.36-6.08L136.29 6h2.35l.13-.68h-2.31c.63-3.32 1.46-4.85 2.65-4.85.3 0 .47.11.47.27a.47.47 0 0 1-.08.21.72.72 0 0 0-.13.44.77.77 0 0 0 .78.85.91.91 0 0 0 .91-.87c0-.78-.78-1.38-1.84-1.38a3.28 3.28 0 0 0-2.67 1.46 12.19 12.19 0 0 0-1.74 3.9h-2zm7.48 8.51c1.17-3.71 1.53-4.57 2.5-6.21.74-1.21 1.33-1.86 1.69-1.86.15 0 .25.08.36.3a.69.69 0 0 0 .76.47.93.93 0 0 0 1-1.06 1 1 0 0 0-1-1.1 2.44 2.44 0 0 0-1.63.91 10.92 10.92 0 0 0-2.12 3l-.32.78 1.19-4.66h-.06c-1.55.27-1.78.32-3.33.57V6a3.9 3.9 0 0 1 .72-.11c.47 0 .74.21.74.59a10.82 10.82 0 0 1-.34 1.78l-1.8 6.27z"/></svg>