<svg xmlns="http://www.w3.org/2000/svg" version="1.1" id="Calque_1" x="0" y="0" xml:space="preserve" width="200" height="85.46"><style type="text/css" id="style2">.st1{fill:#ee2b36}.st5{fill:#2c307a}</style><g id="g16" transform="matrix(1.18694 0 0 1.18694 -4.99 -21)" stroke-width=".84"><path d="M164.7 80.4h-.8c-.1 0-.2-.1-.2-.3v-.3c0-.2.1-.3.2-.3h.8v-1.9c0-1.6.9-2.4 2-2.4.7 0 1.2.3 1.4.6.1.1.1.2.1.3l-.2.4c-.1.1-.2.1-.3 0-.2-.1-.6-.4-1-.4-.6 0-1.1.4-1.1 1.5v1.9h1.5c.1 0 .2.1.2.3v.3c0 .1-.1.3-.2.3h-1.5v4.5c0 .1-.1.3-.2.3h-.4c-.1 0-.2-.1-.2-.3l-.1-4.5m4-.6c0-.1.1-.3.2-.3h.2c.1 0 .2.1.2.2l.1.4s.5-.7 1.6-.7c.4 0 1 .1.9.5l-.2.5c-.1.2-.2.2-.3.1-.1-.1-.3-.1-.5-.1-1 0-1.4.8-1.4.8v3.7c0 .1-.1.3-.2.3h-.4c-.1 0-.2-.1-.2-.3v-5.1" id="path6" fill="#a0a0c6" stroke-width=".89"/><path class="st1" d="M134 85.4c.4 0 .7-.3.7-.7 0-.4-.3-.7-.7-.7-.4 0-.7.3-.7.7 0 .4.3.7.7.7m28-.1c.4 0 .7-.3.7-.7 0-.4-.3-.7-.7-.7-.4 0-.7.3-.7.7.1.4.3.7.7.7" id="path8" fill="#ee2b36" stroke-width=".89"/><path d="M140.4 81.9c0-.9-.5-1.6-1.3-1.6s-1.4.6-1.4 1.6c0 .9.6 1.6 1.4 1.6.7 0 1.3-.7 1.3-1.6zm-1.3 6.7c.9 0 1.7-.5 1.7-1.3 0-.2-.1-.9-1-.9h-1.4s-.9.3-.9 1.1c0 .6.7 1.1 1.6 1.1zm-1.8-5.3s-.4-.6-.4-1.4c0-1.3.8-2.4 2.2-2.5h2.2c.1 0 .2.1.2.3v.2c0 .1-.1.2-.1.2l-.7.2s.6.5.6 1.6c0 1.3-.8 2.4-2.2 2.4-.8 0-1.2-.3-1.2-.3s-.6.3-.6.8c0 .3.2.7.7.7h1.9c1.1 0 2 .6 2 1.8 0 1.2-1.1 2.3-2.7 2.3-1.7 0-2.5-1-2.5-1.9 0-.8.6-1.2.8-1.3-.3-.1-1-.5-1-1.3-.1-1.2.8-1.8.8-1.8m8.1 1.1c1 0 1.7-.9 1.7-2s-.7-2-1.7-2-1.7.9-1.7 2 .8 2 1.7 2zm0-4.9c1.4 0 2.6 1.3 2.6 2.9 0 1.6-1.1 2.9-2.6 2.9-1.4 0-2.6-1.3-2.6-2.9 0-1.6 1.2-2.9 2.6-2.9m4.3.4c0-.1.1-.3.2-.3h.4c.1 0 .2.1.2.3v2.9c0 1.1.4 1.6 1.2 1.6 1 0 1.5-.8 1.5-.8v-3.7c0-.1.1-.3.2-.3h.4c.1 0 .2.1.2.3v5c0 .1-.1.3-.2.3h-.2c-.1 0-.2-.1-.2-.2l-.1-.4s-.6.7-1.7.7c-1.5 0-2-1-2-2.5l.1-2.9m6 0c-.1-.2 0-.3.2-.3h.4c.1 0 .2.1.2.2l1.6 4 1.7-4c0-.1.1-.2.2-.2h.3c.2 0 .3.1.2.3l-2.2 5.2c0 .1-.1.1-.2.1h-.1c-.1 0-.2-.1-.2-.1l-2.1-5.2" id="path10" fill="#6367a7" stroke-width=".89"/><path d="M71.8 76c-.1-.2 0-.4.2-.4h1.3c.1 0 .2.1.2.2l2.5 6h.1l2.5-6c0-.1.1-.2.2-.2h1.3c.2 0 .3.2.2.4l-4 9.4c0 .1-.1.2-.2.2H76c-.1 0-.2-.1-.2-.2l-4-9.4m10.9 8c.7 0 1.2-.6 1.2-1.4 0-.8-.6-1.4-1.3-1.4-.7 0-1.2.6-1.2 1.4 0 .8.6 1.4 1.3 1.4zm0-4.3c1.5 0 2.7 1.3 2.7 2.9 0 1.6-1.2 2.9-2.7 2.9-1.5 0-2.7-1.3-2.7-2.9 0-1.6 1.2-2.9 2.7-2.9m3.6 5.2 1.7-2.4-1.6-2.3c-.1-.2 0-.4.2-.4h1.1c.2 0 .3 0 .4.2l.9 1.3.9-1.3c.1-.2.2-.2.4-.2h1.2c.2 0 .3.2.2.4l-1.6 2.3 1.7 2.4c.1.2.1.4-.2.4h-1.1c-.2 0-.3-.1-.4-.2l-.9-1.4-1 1.5c0 .1-.1.1-.2.1h-1.3c-.5 0-.5-.2-.4-.4" id="path12" fill="#2a3882" stroke-width=".89"/><path class="st1" d="M92.9 80c0-.2.1-.3.2-.3h1.1c.1 0 .2.1.2.3v2.7c0 .7.4 1.2 1 1.2.5 0 1-.5 1-1V80c0-.2.1-.3.3-.3h1c.1 0 .2.1.2.3v5c0 .1-.1.3-.2.3h-.5c-.1 0-.2-.1-.2-.2l-.2-.5c-.2.2-.7.8-1.7.8-1.6 0-2.2-1.3-2.2-2.7V80m6.7 4.6.3-.8c.1-.1.2-.2.3-.1 0 0 .6.3 1.2.3.3 0 .4-.1.4-.3 0-.3-.2-.4-.9-.7-1-.4-1.5-1-1.5-1.8s.6-1.6 1.9-1.6c.8 0 1.3.2 1.6.4.1.1.2.2.1.4l-.3.7c-.1.1-.2.1-.3.1 0 0-.6-.3-1.1-.3-.3 0-.4.1-.4.3 0 .3.2.3.7.5 1 .4 1.8.9 1.8 2 0 .9-.8 1.7-2.1 1.7-.9 0-1.5-.3-1.7-.5 0 0-.1-.1 0-.3m7-.4c.4 0 .8-.4.9-.5v-.8s-.4-.2-.7-.2c-.5 0-.8.3-.8.8 0 .4.2.7.6.7zm0-2.4c.5 0 1 .2 1 .2 0-.7-.2-1-.7-1-.5 0-1.2.1-1.5.2-.2.1-.3-.1-.3-.2l-.1-.7c0-.2.1-.3.2-.3s.9-.3 1.8-.3c1.6 0 2 .9 2 2.4v3c0 .1-.1.3-.2.3h-.5c-.1 0-.2 0-.2-.2l-.2-.4c-.3.3-.8.7-1.6.7-1 0-1.8-.7-1.8-1.9 0-1.1.8-1.8 2.1-1.8m6.5 1.3c.5 0 .9-.4.9-1s-.4-1-.9-1-.9.4-.9 1c0 .5.4 1 .9 1zm0 5.1c.7 0 1.2-.4 1.2-.9 0-.3-.2-.7-1-.7-.3 0-.6 0-.8.1-.2.1-.6.3-.6.7.1.5.5.8 1.2.8zm-1.9-4.9s-.4-.5-.4-1.3c0-1.3 1-2.4 2.3-2.4h2.4c.1 0 .2.1.2.3v.5c0 .1-.1.2-.1.2l-.7.3s.5.4.5 1.4c0 1.1-.9 2.2-2.2 2.2-.5 0-.8-.1-1-.1-.2 0-.5.2-.5.5s.2.5.5.5h1.7c1.2 0 2.2.7 2.2 1.9 0 1.3-1 2.4-2.8 2.4-1.9 0-2.7-1-2.7-1.9 0-.8.6-1.2.8-1.3-.2-.1-1-.4-1-1.5-.1-1.2.8-1.7.8-1.7m9.1-1.5c0-.5-.5-.9-1-.9s-.9.4-1 .9zm-.9-2.2c1.3 0 2.4 1.1 2.4 2.6v.4c0 .1-.1.2-.2.2h-3.3c0 .6.5 1.2 1.3 1.2.4 0 .8-.2 1-.4.1-.1.2-.1.3 0l.5.7c.1.1.1.2 0 .4-.4.4-1.1.8-1.9.8-1.6 0-2.7-1.3-2.7-2.9-.1-1.7 1-3 2.6-3m3.9.4c0-.2.1-.3.2-.3h.5c.1 0 .2.1.2.2l.2.5c.2-.3.7-.9 1.5-.9.6 0 1.2.2 1 .6l-.5.9c-.1.1-.2.2-.3.1 0 0-.2-.1-.4-.1-.5 0-.8.4-.9.6V85c0 .2-.1.3-.3.3h-1c-.1 0-.2-.1-.2-.3v-5m4.4 4.6.3-.8c.1-.1.2-.2.3-.1 0 0 .6.3 1.2.3.3 0 .4-.1.4-.3 0-.3-.2-.4-.9-.7-1-.4-1.5-1-1.5-1.8s.6-1.6 1.9-1.6c.8 0 1.3.2 1.6.4.1.1.2.2.1.4l-.1.6c-.1.1-.2.1-.3.1 0 0-.6-.3-1.1-.3-.3 0-.4.1-.4.3 0 .3.2.3.7.5 1 .4 1.8.9 1.8 2 0 .9-.8 1.7-2.1 1.7-.9 0-1.5-.3-1.7-.5-.1 0-.2-.1-.2-.2" id="path14" fill="#ee2b36" stroke-width=".89"/></g><g id="g22" transform="matrix(1.18694 0 0 1.18694 -4.99 -21)" stroke-width=".84"><path d="M31.7 68.9h113.5c14.9 0 27-10.7 27-23.9v-2.9c0-13.2-12.1-23.9-27-23.9H31.7c-1.9 0-3.7.2-5.5.5C14 21.1 4.8 30.7 4.8 42.2v2.9c0 13.1 12.1 23.8 26.9 23.8z" id="path18" fill="#fff" stroke-width=".89"/><path class="st5" d="M145.2 69.4H31.7C16.5 69.4 4.2 58.5 4.2 45v-2.9c0-11.5 9.2-21.5 21.9-23.9 1.8-.3 3.7-.5 5.6-.5h113.5c15.2 0 27.5 10.9 27.5 24.4V45c0 13.5-12.3 24.4-27.5 24.4zM31.7 18.8c-1.8 0-3.6.2-5.4.5-12.2 2.3-21 11.9-21 22.9v2.9c0 12.9 11.9 23.4 26.5 23.4h113.5c14.6 0 26.5-10.5 26.5-23.4v-2.9c0-12.9-11.9-23.4-26.5-23.4H31.7Z" id="path20" fill="#2c307a" stroke-width=".89"/></g><g id="g56" transform="matrix(1.18694 0 0 1.18694 -4.99 -21)" stroke-width=".84"><g id="g38"><path class="st5" d="m50.7 37.6 1.2-1.4c.6.8 1.3 1.3 2.2 1.3 1.2 0 1.7-.7 1.7-2.1v-5.8h-4v-1.7h6.1v7.4c0 2.6-1.3 3.9-3.8 3.9-1.4 0-2.6-.6-3.4-1.6z" id="path24" fill="#2c307a" stroke-width=".84"/><path class="st5" d="M68.6 35.4h-6.7c.2 1.2 1.3 2 2.8 2 1 0 1.7-.3 2.3-.9l1.1 1.2c-.8.9-2 1.4-3.4 1.4-2.9 0-4.7-1.8-4.7-4.4 0-2.6 1.9-4.4 4.4-4.4 2.5 0 4.3 1.7 4.3 4.4 0 .3-.1.5-.1.7zm-6.7-1.3h4.8c-.2-1.2-1.1-2.1-2.4-2.1-1.3 0-2.2.8-2.4 2.1Z" id="path26" fill="#2c307a" stroke-width=".84"/><path class="st5" d="M83.3 27.2V39h-1.9v-1.1c-.7.8-1.7 1.2-2.8 1.2-2.5 0-4.3-1.7-4.3-4.4s1.8-4.4 4.3-4.4c1.1 0 2.1.4 2.7 1.2v-4.4h2zm-1.9 7.6c0-1.6-1.1-2.7-2.5-2.7s-2.5 1-2.5 2.7c0 1.7 1.1 2.7 2.5 2.7 1.4-.1 2.5-1.1 2.5-2.7z" id="path28" fill="#2c307a" stroke-width=".84"/><path class="st5" d="M85.3 34.8c0-2.6 1.9-4.4 4.5-4.4 2.7 0 4.6 1.8 4.6 4.4 0 2.6-1.9 4.4-4.6 4.4-2.6-.1-4.5-1.9-4.5-4.4zm7 0c0-1.6-1.1-2.7-2.5-2.7s-2.5 1-2.5 2.7c0 1.7 1.1 2.7 2.5 2.7 1.4-.1 2.5-1.1 2.5-2.7z" id="path30" fill="#2c307a" stroke-width=".84"/><path class="st5" d="M104.7 34.1V39h-2v-4.6c0-1.5-.8-2.3-2-2.3-1.4 0-2.4.9-2.4 2.6V39h-2v-8.5h1.9v1.1c.7-.8 1.7-1.2 2.9-1.2 2.1 0 3.6 1.2 3.6 3.7z" id="path32" fill="#2c307a" stroke-width=".84"/><path class="st5" d="M115.6 34.1V39h-2v-4.6c0-1.5-.8-2.3-2-2.3-1.4 0-2.4.9-2.4 2.6V39h-2v-8.5h1.9v1.1c.7-.8 1.7-1.2 2.9-1.2 2.1 0 3.6 1.2 3.6 3.7z" id="path34" fill="#2c307a" stroke-width=".84"/><path class="st5" d="M126.2 35.4h-6.7c.2 1.2 1.3 2 2.8 2 1 0 1.7-.3 2.3-.9l1.1 1.2c-.8.9-2 1.4-3.4 1.4-2.9 0-4.7-1.8-4.7-4.4 0-2.6 1.9-4.4 4.4-4.4 2.5 0 4.3 1.7 4.3 4.4 0 .3-.1.5-.1.7zm-6.7-1.3h4.8c-.2-1.2-1.1-2.1-2.4-2.1-1.2 0-2.2.8-2.4 2.1z" id="path36" fill="#2c307a" stroke-width=".84"/></g><g id="g54"><path class="st5" d="M57.6 52.3v7.5h-3v-7.1c0-2.3-1.1-3.4-2.9-3.4-2 0-3.4 1.3-3.4 3.9v6.6h-3v-7.1c0-2.3-1.1-3.4-2.9-3.4-2 0-3.4 1.3-3.4 3.9v6.6h-3v-13h2.9v1.7c1-1.2 2.5-1.8 4.3-1.8 1.9 0 3.5.7 4.4 2.2 1-1.3 2.8-2.2 4.9-2.2 2.9-.1 5.1 1.7 5.1 5.6z" id="path40" fill="#2c307a" stroke-width=".84"/><path class="st5" d="M59.8 53.2c0-3.9 2.9-6.6 6.9-6.6s6.9 2.8 6.9 6.6-2.9 6.7-6.9 6.7-6.9-2.8-6.9-6.7zm10.8 0c0-2.5-1.7-4.1-3.9-4.1s-3.8 1.6-3.8 4.1c0 2.5 1.7 4.1 3.8 4.1 2.2 0 3.9-1.6 3.9-4.1z" id="path42" fill="#2c307a" stroke-width=".84"/><path class="st5" d="M88.6 52.3v7.5h-3v-7.1c0-2.3-1.1-3.4-3.1-3.4-2.2 0-3.6 1.3-3.6 3.9v6.6h-3v-13h2.9v1.7c1-1.2 2.6-1.8 4.5-1.8 3-.1 5.3 1.7 5.3 5.6z" id="path44" fill="#2c307a" stroke-width=".84"/><path class="st5" d="M108.6 52.1v7.6h-2.9v-1.6c-.7 1.1-2.1 1.8-4.1 1.8-3 0-4.8-1.6-4.8-3.9 0-2.2 1.5-3.9 5.4-3.9h3.4v-.2c0-1.8-1.1-2.8-3.2-2.8-1.5 0-3 .5-3.9 1.3l-1.2-2.2c1.4-1.1 3.4-1.6 5.5-1.6 3.7 0 5.8 1.8 5.8 5.5zm-3 3.6v-1.5h-3.1c-2.1 0-2.6.8-2.6 1.7 0 1.1.9 1.8 2.5 1.8 1.4 0 2.7-.7 3.2-2z" id="path46" fill="#2c307a" stroke-width=".84"/><path class="st5" d="m123.7 46.7-5.6 13H115l-5.6-13h3.2l4 9.6 4.2-9.6z" id="path48" fill="#2c307a" stroke-width=".84"/><path class="st5" d="M124.5 42.8c0-1 .8-1.8 1.9-1.8 1.1 0 1.9.8 1.9 1.8 0 1.1-.8 1.9-1.9 1.9-1.1-.1-1.9-.9-1.9-1.9zm.4 3.9h3v13h-3z" id="path50" fill="#2c307a" stroke-width=".84"/><path class="st5" d="m129.7 58.4 1.2-2.3c1.1.8 2.9 1.3 4.5 1.3 1.9 0 2.7-.5 2.7-1.4 0-2.5-8-.1-8-5.3 0-2.5 2.2-4.1 5.7-4.1 1.7 0 3.7.4 4.9 1.1l-1.2 2.3c-1.2-.7-2.5-1-3.7-1-1.9 0-2.7.6-2.7 1.5 0 2.6 8 .3 8 5.4 0 2.4-2.2 4-5.9 4-2.1 0-4.3-.6-5.5-1.5z" id="path52" fill="#2c307a" stroke-width=".84"/></g></g></svg>