<?xml version="1.0" encoding="UTF-8" standalone="no"?>
<!-- Generator: Adobe Illustrator 22.1.0, SVG Export Plug-In . SVG Version: 6.00 Build 0)  -->

<svg
   xmlns:dc="http://purl.org/dc/elements/1.1/"
   xmlns:cc="http://creativecommons.org/ns#"
   xmlns:rdf="http://www.w3.org/1999/02/22-rdf-syntax-ns#"
   xmlns:svg="http://www.w3.org/2000/svg"
   xmlns="http://www.w3.org/2000/svg"
   xmlns:sodipodi="http://sodipodi.sourceforge.net/DTD/sodipodi-0.dtd"
   xmlns:inkscape="http://www.inkscape.org/namespaces/inkscape"
   version="1.1"
   id="Calque_1"
   x="0px"
   y="0px"
   viewBox="0 0 200.00001 85.459936"
   xml:space="preserve"
   sodipodi:docname="bouton-blanc.svg"
   width="200"
   height="85.459938"
   inkscape:version="0.92.4 (5da689c313, 2019-01-14)"><metadata
   id="metadata63"><rdf:RDF><cc:Work
       rdf:about=""><dc:format>image/svg+xml</dc:format><dc:type
         rdf:resource="http://purl.org/dc/dcmitype/StillImage" /><dc:title>Bouton Je donne mon avis</dc:title></cc:Work></rdf:RDF></metadata><defs
   id="defs61" /><sodipodi:namedview
   pagecolor="#ffffff"
   bordercolor="#666666"
   borderopacity="1"
   objecttolerance="10"
   gridtolerance="10"
   guidetolerance="10"
   inkscape:pageopacity="0"
   inkscape:pageshadow="2"
   inkscape:window-width="2560"
   inkscape:window-height="1403"
   id="namedview59"
   showgrid="false"
   inkscape:pagecheckerboard="true"
   showborder="false"
   fit-margin-top="0"
   fit-margin-left="0"
   fit-margin-right="0"
   fit-margin-bottom="0"
   inkscape:zoom="2.1141889"
   inkscape:cx="80.466039"
   inkscape:cy="35.75"
   inkscape:window-x="0"
   inkscape:window-y="0"
   inkscape:window-maximized="1"
   inkscape:current-layer="Calque_1" />
<style
   type="text/css"
   id="style2">
	.st0{fill:#A0A0C6;}
	.st1{fill:#EE2B36;}
	.st2{fill:#6367A7;}
	.st3{fill:#2A3882;}
	.st4{fill:#FFFFFF;}
	.st5{fill:#2C307A;}
</style>
<title
   id="title4">Bouton Je donne mon avis</title>
<g
   id="g16"
   transform="matrix(1.1869436,0,0,1.1869436,-4.9851631,-21.008902)"
   style="stroke-width:0.84250003">
	<path
   class="st0"
   d="m 164.7,80.4 h -0.8 c -0.1,0 -0.2,-0.1 -0.2,-0.3 v -0.3 c 0,-0.2 0.1,-0.3 0.2,-0.3 h 0.8 v -1.9 c 0,-1.6 0.9,-2.4 2,-2.4 0.7,0 1.2,0.3 1.4,0.6 0.1,0.1 0.1,0.2 0.1,0.3 l -0.2,0.4 c -0.1,0.1 -0.2,0.1 -0.3,0 -0.2,-0.1 -0.6,-0.4 -1,-0.4 -0.6,0 -1.1,0.4 -1.1,1.5 v 1.9 h 1.5 c 0.1,0 0.2,0.1 0.2,0.3 v 0.3 c 0,0.1 -0.1,0.3 -0.2,0.3 h -1.5 v 4.5 c 0,0.1 -0.1,0.3 -0.2,0.3 H 165 c -0.1,0 -0.2,-0.1 -0.2,-0.3 l -0.1,-4.5 m 4,-0.6 c 0,-0.1 0.1,-0.3 0.2,-0.3 h 0.2 c 0.1,0 0.2,0.1 0.2,0.2 l 0.1,0.4 c 0,0 0.5,-0.7 1.6,-0.7 0.4,0 1,0.1 0.9,0.5 l -0.2,0.5 c -0.1,0.2 -0.2,0.2 -0.3,0.1 -0.1,-0.1 -0.3,-0.1 -0.5,-0.1 -1,0 -1.4,0.8 -1.4,0.8 v 3.7 c 0,0.1 -0.1,0.3 -0.2,0.3 h -0.4 c -0.1,0 -0.2,-0.1 -0.2,-0.3 v -5.1"
   id="path6"
   inkscape:connector-curvature="0"
   style="fill:#a0a0c6;stroke-width:0.88725787" />
	<path
   class="st1"
   d="m 134,85.4 c 0.4,0 0.7,-0.3 0.7,-0.7 0,-0.4 -0.3,-0.7 -0.7,-0.7 -0.4,0 -0.7,0.3 -0.7,0.7 0,0.4 0.3,0.7 0.7,0.7 m 28,-0.1 c 0.4,0 0.7,-0.3 0.7,-0.7 0,-0.4 -0.3,-0.7 -0.7,-0.7 -0.4,0 -0.7,0.3 -0.7,0.7 0.1,0.4 0.3,0.7 0.7,0.7"
   id="path8"
   inkscape:connector-curvature="0"
   style="fill:#ee2b36;stroke-width:0.88725787" />
	<path
   class="st2"
   d="m 140.4,81.9 c 0,-0.9 -0.5,-1.6 -1.3,-1.6 -0.8,0 -1.4,0.6 -1.4,1.6 0,0.9 0.6,1.6 1.4,1.6 0.7,0 1.3,-0.7 1.3,-1.6 z m -1.3,6.7 c 0.9,0 1.7,-0.5 1.7,-1.3 0,-0.2 -0.1,-0.9 -1,-0.9 h -1.4 c 0,0 -0.9,0.3 -0.9,1.1 0,0.6 0.7,1.1 1.6,1.1 z m -1.8,-5.3 c 0,0 -0.4,-0.6 -0.4,-1.4 0,-1.3 0.8,-2.4 2.2,-2.5 h 2.2 c 0.1,0 0.2,0.1 0.2,0.3 v 0.2 c 0,0.1 -0.1,0.2 -0.1,0.2 l -0.7,0.2 c 0,0 0.6,0.5 0.6,1.6 0,1.3 -0.8,2.4 -2.2,2.4 -0.8,0 -1.2,-0.3 -1.2,-0.3 0,0 -0.6,0.3 -0.6,0.8 0,0.3 0.2,0.7 0.7,0.7 h 1.9 c 1.1,0 2,0.6 2,1.8 0,1.2 -1.1,2.3 -2.7,2.3 -1.7,0 -2.5,-1 -2.5,-1.9 0,-0.8 0.6,-1.2 0.8,-1.3 v 0 c -0.3,-0.1 -1,-0.5 -1,-1.3 -0.1,-1.2 0.8,-1.8 0.8,-1.8 m 8.1,1.1 c 1,0 1.7,-0.9 1.7,-2 0,-1.1 -0.7,-2 -1.7,-2 -1,0 -1.7,0.9 -1.7,2 0,1.1 0.8,2 1.7,2 z m 0,-4.9 c 1.4,0 2.6,1.3 2.6,2.9 0,1.6 -1.1,2.9 -2.6,2.9 -1.4,0 -2.6,-1.3 -2.6,-2.9 0,-1.6 1.2,-2.9 2.6,-2.9 m 4.3,0.4 c 0,-0.1 0.1,-0.3 0.2,-0.3 h 0.4 c 0.1,0 0.2,0.1 0.2,0.3 v 2.9 c 0,1.1 0.4,1.6 1.2,1.6 1,0 1.5,-0.8 1.5,-0.8 v -3.7 c 0,-0.1 0.1,-0.3 0.2,-0.3 h 0.4 c 0.1,0 0.2,0.1 0.2,0.3 v 5 c 0,0.1 -0.1,0.3 -0.2,0.3 h -0.2 c -0.1,0 -0.2,-0.1 -0.2,-0.2 l -0.1,-0.4 c 0,0 -0.6,0.7 -1.7,0.7 -1.5,0 -2,-1 -2,-2.5 l 0.1,-2.9 m 6,0 c -0.1,-0.2 0,-0.3 0.2,-0.3 h 0.4 c 0.1,0 0.2,0.1 0.2,0.2 l 1.6,4 v 0 l 1.7,-4 c 0,-0.1 0.1,-0.2 0.2,-0.2 h 0.3 c 0.2,0 0.3,0.1 0.2,0.3 l -2.2,5.2 c 0,0.1 -0.1,0.1 -0.2,0.1 H 158 c -0.1,0 -0.2,-0.1 -0.2,-0.1 l -2.1,-5.2"
   id="path10"
   inkscape:connector-curvature="0"
   style="fill:#6367a7;stroke-width:0.88725787" />
	<path
   class="st3"
   d="m 71.8,76 c -0.1,-0.2 0,-0.4 0.2,-0.4 h 1.3 c 0.1,0 0.2,0.1 0.2,0.2 l 2.5,6 h 0.1 l 2.5,-6 c 0,-0.1 0.1,-0.2 0.2,-0.2 h 1.3 c 0.2,0 0.3,0.2 0.2,0.4 l -4,9.4 c 0,0.1 -0.1,0.2 -0.2,0.2 H 76 c -0.1,0 -0.2,-0.1 -0.2,-0.2 l -4,-9.4 m 10.9,8 c 0.7,0 1.2,-0.6 1.2,-1.4 0,-0.8 -0.6,-1.4 -1.3,-1.4 -0.7,0 -1.2,0.6 -1.2,1.4 0,0.8 0.6,1.4 1.3,1.4 z m 0,-4.3 c 1.5,0 2.7,1.3 2.7,2.9 0,1.6 -1.2,2.9 -2.7,2.9 -1.5,0 -2.7,-1.3 -2.7,-2.9 0,-1.6 1.2,-2.9 2.7,-2.9 m 3.6,5.2 1.7,-2.4 -1.6,-2.3 c -0.1,-0.2 0,-0.4 0.2,-0.4 h 1.1 c 0.2,0 0.3,0 0.4,0.2 l 0.9,1.3 v 0 L 89.9,80 c 0.1,-0.2 0.2,-0.2 0.4,-0.2 h 1.2 c 0.2,0 0.3,0.2 0.2,0.4 l -1.6,2.3 1.7,2.4 c 0.1,0.2 0.1,0.4 -0.2,0.4 h -1.1 c -0.2,0 -0.3,-0.1 -0.4,-0.2 l -0.9,-1.4 v 0 l -1,1.5 c 0,0.1 -0.1,0.1 -0.2,0.1 h -1.3 c -0.5,0 -0.5,-0.2 -0.4,-0.4"
   id="path12"
   inkscape:connector-curvature="0"
   style="fill:#2a3882;stroke-width:0.88725787" />
	<path
   class="st1"
   d="m 92.9,80 c 0,-0.2 0.1,-0.3 0.2,-0.3 h 1.1 c 0.1,0 0.2,0.1 0.2,0.3 v 2.7 c 0,0.7 0.4,1.2 1,1.2 0.5,0 1,-0.5 1,-1 V 80 c 0,-0.2 0.1,-0.3 0.3,-0.3 h 1 c 0.1,0 0.2,0.1 0.2,0.3 v 5 c 0,0.1 -0.1,0.3 -0.2,0.3 H 97.2 C 97.1,85.3 97,85.2 97,85.1 l -0.2,-0.5 c -0.2,0.2 -0.7,0.8 -1.7,0.8 -1.6,0 -2.2,-1.3 -2.2,-2.7 V 80 m 6.7,4.6 0.3,-0.8 c 0.1,-0.1 0.2,-0.2 0.3,-0.1 0,0 0.6,0.3 1.2,0.3 0.3,0 0.4,-0.1 0.4,-0.3 0,-0.3 -0.2,-0.4 -0.9,-0.7 -1,-0.4 -1.5,-1 -1.5,-1.8 0,-0.8 0.6,-1.6 1.9,-1.6 0.8,0 1.3,0.2 1.6,0.4 0.1,0.1 0.2,0.2 0.1,0.4 l -0.3,0.7 c -0.1,0.1 -0.2,0.1 -0.3,0.1 0,0 -0.6,-0.3 -1.1,-0.3 -0.3,0 -0.4,0.1 -0.4,0.3 0,0.3 0.2,0.3 0.7,0.5 1,0.4 1.8,0.9 1.8,2 0,0.9 -0.8,1.7 -2.1,1.7 -0.9,0 -1.5,-0.3 -1.7,-0.5 0,0 -0.1,-0.1 0,-0.3 m 7,-0.4 c 0.4,0 0.8,-0.4 0.9,-0.5 v -0.8 c 0,0 -0.4,-0.2 -0.7,-0.2 -0.5,0 -0.8,0.3 -0.8,0.8 0,0.4 0.2,0.7 0.6,0.7 z m 0,-2.4 c 0.5,0 1,0.2 1,0.2 0,-0.7 -0.2,-1 -0.7,-1 -0.5,0 -1.2,0.1 -1.5,0.2 -0.2,0.1 -0.3,-0.1 -0.3,-0.2 L 105,80.3 c 0,-0.2 0.1,-0.3 0.2,-0.3 0.1,0 0.9,-0.3 1.8,-0.3 1.6,0 2,0.9 2,2.4 v 3 c 0,0.1 -0.1,0.3 -0.2,0.3 h -0.5 c -0.1,0 -0.2,0 -0.2,-0.2 l -0.2,-0.4 c -0.3,0.3 -0.8,0.7 -1.6,0.7 -1,0 -1.8,-0.7 -1.8,-1.9 0,-1.1 0.8,-1.8 2.1,-1.8 m 6.5,1.3 c 0.5,0 0.9,-0.4 0.9,-1 0,-0.6 -0.4,-1 -0.9,-1 -0.5,0 -0.9,0.4 -0.9,1 0,0.5 0.4,1 0.9,1 z m 0,5.1 c 0.7,0 1.2,-0.4 1.2,-0.9 0,-0.3 -0.2,-0.7 -1,-0.7 -0.3,0 -0.6,0 -0.8,0.1 -0.2,0.1 -0.6,0.3 -0.6,0.7 0.1,0.5 0.5,0.8 1.2,0.8 z m -1.9,-4.9 c 0,0 -0.4,-0.5 -0.4,-1.3 0,-1.3 1,-2.4 2.3,-2.4 h 2.4 c 0.1,0 0.2,0.1 0.2,0.3 v 0.5 c 0,0.1 -0.1,0.2 -0.1,0.2 l -0.7,0.3 c 0,0 0.5,0.4 0.5,1.4 0,1.1 -0.9,2.2 -2.2,2.2 -0.5,0 -0.8,-0.1 -1,-0.1 -0.2,0 -0.5,0.2 -0.5,0.5 0,0.3 0.2,0.5 0.5,0.5 h 1.7 c 1.2,0 2.2,0.7 2.2,1.9 0,1.3 -1,2.4 -2.8,2.4 -1.9,0 -2.7,-1 -2.7,-1.9 0,-0.8 0.6,-1.2 0.8,-1.3 v 0 c -0.2,-0.1 -1,-0.4 -1,-1.5 -0.1,-1.2 0.8,-1.7 0.8,-1.7 m 9.1,-1.5 c 0,-0.5 -0.5,-0.9 -1,-0.9 -0.5,0 -0.9,0.4 -1,0.9 z m -0.9,-2.2 c 1.3,0 2.4,1.1 2.4,2.6 0,0.1 0,0.3 0,0.4 0,0.1 -0.1,0.2 -0.2,0.2 h -3.3 c 0,0.6 0.5,1.2 1.3,1.2 0.4,0 0.8,-0.2 1,-0.4 0.1,-0.1 0.2,-0.1 0.3,0 l 0.5,0.7 c 0.1,0.1 0.1,0.2 0,0.4 -0.4,0.4 -1.1,0.8 -1.9,0.8 -1.6,0 -2.7,-1.3 -2.7,-2.9 -0.1,-1.7 1,-3 2.6,-3 m 3.9,0.4 c 0,-0.2 0.1,-0.3 0.2,-0.3 h 0.5 c 0.1,0 0.2,0.1 0.2,0.2 l 0.2,0.5 c 0.2,-0.3 0.7,-0.9 1.5,-0.9 0.6,0 1.2,0.2 1,0.6 l -0.5,0.9 c -0.1,0.1 -0.2,0.2 -0.3,0.1 0,0 -0.2,-0.1 -0.4,-0.1 -0.5,0 -0.8,0.4 -0.9,0.6 V 85 c 0,0.2 -0.1,0.3 -0.3,0.3 h -1 c -0.1,0 -0.2,-0.1 -0.2,-0.3 v -5 m 4.4,4.6 0.3,-0.8 c 0.1,-0.1 0.2,-0.2 0.3,-0.1 0,0 0.6,0.3 1.2,0.3 0.3,0 0.4,-0.1 0.4,-0.3 0,-0.3 -0.2,-0.4 -0.9,-0.7 -1,-0.4 -1.5,-1 -1.5,-1.8 0,-0.8 0.6,-1.6 1.9,-1.6 0.8,0 1.3,0.2 1.6,0.4 0.1,0.1 0.2,0.2 0.1,0.4 L 131,81 c -0.1,0.1 -0.2,0.1 -0.3,0.1 0,0 -0.6,-0.3 -1.1,-0.3 -0.3,0 -0.4,0.1 -0.4,0.3 0,0.3 0.2,0.3 0.7,0.5 1,0.4 1.8,0.9 1.8,2 0,0.9 -0.8,1.7 -2.1,1.7 -0.9,0 -1.5,-0.3 -1.7,-0.5 -0.1,0 -0.2,-0.1 -0.2,-0.2"
   id="path14"
   inkscape:connector-curvature="0"
   style="fill:#ee2b36;stroke-width:0.88725787" />
</g>
<g
   id="g22"
   transform="matrix(1.1869436,0,0,1.1869436,-4.9851631,-21.008902)"
   style="stroke-width:0.84250003">
	<path
   class="st4"
   d="m 31.7,68.9 h 113.5 c 14.9,0 27,-10.7 27,-23.9 v -2.9 c 0,-13.2 -12.1,-23.9 -27,-23.9 H 35.9 31.7 c -1.9,0 -3.7,0.2 -5.5,0.5 C 14,21.1 4.8,30.7 4.8,42.2 v 2.9 c 0,13.1 12.1,23.8 26.9,23.8 z"
   id="path18"
   inkscape:connector-curvature="0"
   style="fill:#ffffff;stroke-width:0.88725787" />
	<path
   class="st5"
   d="M 145.2,69.4 H 31.7 C 16.5,69.4 4.2,58.5 4.2,45 v -2.9 c 0,-11.5 9.2,-21.5 21.9,-23.9 1.8,-0.3 3.7,-0.5 5.6,-0.5 h 113.5 c 15.2,0 27.5,10.9 27.5,24.4 V 45 c 0,13.5 -12.3,24.4 -27.5,24.4 z M 31.7,18.8 c -1.8,0 -3.6,0.2 -5.4,0.5 -12.2,2.3 -21,11.9 -21,22.9 v 2.9 c 0,12.9 11.9,23.4 26.5,23.4 h 113.5 c 14.6,0 26.5,-10.5 26.5,-23.4 v -2.9 c 0,-12.9 -11.9,-23.4 -26.5,-23.4 H 31.7 Z"
   id="path20"
   inkscape:connector-curvature="0"
   style="fill:#2c307a;stroke-width:0.88725787" />
</g>
<g
   id="g56"
   transform="matrix(1.1869436,0,0,1.1869436,-4.9851631,-21.008902)"
   style="stroke-width:0.84250003">
	<g
   id="g38"
   style="stroke-width:0.84250003">
		<path
   class="st5"
   d="m 50.7,37.6 1.2,-1.4 c 0.6,0.8 1.3,1.3 2.2,1.3 1.2,0 1.7,-0.7 1.7,-2.1 v -5.8 h -4 v -1.7 h 6.1 v 7.4 c 0,2.6 -1.3,3.9 -3.8,3.9 -1.4,0 -2.6,-0.6 -3.4,-1.6 z"
   id="path24"
   inkscape:connector-curvature="0"
   style="fill:#2c307a;stroke-width:0.84250003" />
		<path
   class="st5"
   d="m 68.6,35.4 h -6.7 c 0.2,1.2 1.3,2 2.8,2 1,0 1.7,-0.3 2.3,-0.9 l 1.1,1.2 c -0.8,0.9 -2,1.4 -3.4,1.4 -2.9,0 -4.7,-1.8 -4.7,-4.4 0,-2.6 1.9,-4.4 4.4,-4.4 2.5,0 4.3,1.7 4.3,4.4 0,0.3 -0.1,0.5 -0.1,0.7 z m -6.7,-1.3 h 4.8 C 66.5,32.9 65.6,32 64.3,32 63,32 62.1,32.8 61.9,34.1 Z"
   id="path26"
   inkscape:connector-curvature="0"
   style="fill:#2c307a;stroke-width:0.84250003" />
		<path
   class="st5"
   d="M 83.3,27.2 V 39 h -1.9 v -1.1 c -0.7,0.8 -1.7,1.2 -2.8,1.2 -2.5,0 -4.3,-1.7 -4.3,-4.4 0,-2.7 1.8,-4.4 4.3,-4.4 1.1,0 2.1,0.4 2.7,1.2 v -4.4 h 2 z m -1.9,7.6 c 0,-1.6 -1.1,-2.7 -2.5,-2.7 -1.4,0 -2.5,1 -2.5,2.7 0,1.7 1.1,2.7 2.5,2.7 1.4,-0.1 2.5,-1.1 2.5,-2.7 z"
   id="path28"
   inkscape:connector-curvature="0"
   style="fill:#2c307a;stroke-width:0.84250003" />
		<path
   class="st5"
   d="m 85.3,34.8 c 0,-2.6 1.9,-4.4 4.5,-4.4 2.7,0 4.6,1.8 4.6,4.4 0,2.6 -1.9,4.4 -4.6,4.4 -2.6,-0.1 -4.5,-1.9 -4.5,-4.4 z m 7,0 c 0,-1.6 -1.1,-2.7 -2.5,-2.7 -1.4,0 -2.5,1 -2.5,2.7 0,1.7 1.1,2.7 2.5,2.7 1.4,-0.1 2.5,-1.1 2.5,-2.7 z"
   id="path30"
   inkscape:connector-curvature="0"
   style="fill:#2c307a;stroke-width:0.84250003" />
		<path
   class="st5"
   d="M 104.7,34.1 V 39 h -2 v -4.6 c 0,-1.5 -0.8,-2.3 -2,-2.3 -1.4,0 -2.4,0.9 -2.4,2.6 V 39 h -2 v -8.5 h 1.9 v 1.1 c 0.7,-0.8 1.7,-1.2 2.9,-1.2 2.1,0 3.6,1.2 3.6,3.7 z"
   id="path32"
   inkscape:connector-curvature="0"
   style="fill:#2c307a;stroke-width:0.84250003" />
		<path
   class="st5"
   d="M 115.6,34.1 V 39 h -2 v -4.6 c 0,-1.5 -0.8,-2.3 -2,-2.3 -1.4,0 -2.4,0.9 -2.4,2.6 V 39 h -2 v -8.5 h 1.9 v 1.1 c 0.7,-0.8 1.7,-1.2 2.9,-1.2 2.1,0 3.6,1.2 3.6,3.7 z"
   id="path34"
   inkscape:connector-curvature="0"
   style="fill:#2c307a;stroke-width:0.84250003" />
		<path
   class="st5"
   d="m 126.2,35.4 h -6.7 c 0.2,1.2 1.3,2 2.8,2 1,0 1.7,-0.3 2.3,-0.9 l 1.1,1.2 c -0.8,0.9 -2,1.4 -3.4,1.4 -2.9,0 -4.7,-1.8 -4.7,-4.4 0,-2.6 1.9,-4.4 4.4,-4.4 2.5,0 4.3,1.7 4.3,4.4 0,0.3 -0.1,0.5 -0.1,0.7 z m -6.7,-1.3 h 4.8 c -0.2,-1.2 -1.1,-2.1 -2.4,-2.1 -1.2,0 -2.2,0.8 -2.4,2.1 z"
   id="path36"
   inkscape:connector-curvature="0"
   style="fill:#2c307a;stroke-width:0.84250003" />
	</g>
	<g
   id="g54"
   style="stroke-width:0.84250003">
		<path
   class="st5"
   d="m 57.6,52.3 v 7.5 h -3 v -7.1 c 0,-2.3 -1.1,-3.4 -2.9,-3.4 -2,0 -3.4,1.3 -3.4,3.9 v 6.6 h -3 v -7.1 c 0,-2.3 -1.1,-3.4 -2.9,-3.4 -2,0 -3.4,1.3 -3.4,3.9 v 6.6 h -3 v -13 h 2.9 v 1.7 c 1,-1.2 2.5,-1.8 4.3,-1.8 1.9,0 3.5,0.7 4.4,2.2 1,-1.3 2.8,-2.2 4.9,-2.2 2.9,-0.1 5.1,1.7 5.1,5.6 z"
   id="path40"
   inkscape:connector-curvature="0"
   style="fill:#2c307a;stroke-width:0.84250003" />
		<path
   class="st5"
   d="m 59.8,53.2 c 0,-3.9 2.9,-6.6 6.9,-6.6 4,0 6.9,2.8 6.9,6.6 0,3.8 -2.9,6.7 -6.9,6.7 -4,0 -6.9,-2.8 -6.9,-6.7 z m 10.8,0 c 0,-2.5 -1.7,-4.1 -3.9,-4.1 -2.2,0 -3.8,1.6 -3.8,4.1 0,2.5 1.7,4.1 3.8,4.1 2.2,0 3.9,-1.6 3.9,-4.1 z"
   id="path42"
   inkscape:connector-curvature="0"
   style="fill:#2c307a;stroke-width:0.84250003" />
		<path
   class="st5"
   d="m 88.6,52.3 v 7.5 h -3 v -7.1 c 0,-2.3 -1.1,-3.4 -3.1,-3.4 -2.2,0 -3.6,1.3 -3.6,3.9 v 6.6 h -3 v -13 h 2.9 v 1.7 c 1,-1.2 2.6,-1.8 4.5,-1.8 3,-0.1 5.3,1.7 5.3,5.6 z"
   id="path44"
   inkscape:connector-curvature="0"
   style="fill:#2c307a;stroke-width:0.84250003" />
		<path
   class="st5"
   d="m 108.6,52.1 v 7.6 h -2.9 v -1.6 c -0.7,1.1 -2.1,1.8 -4.1,1.8 -3,0 -4.8,-1.6 -4.8,-3.9 0,-2.2 1.5,-3.9 5.4,-3.9 h 3.4 v -0.2 c 0,-1.8 -1.1,-2.8 -3.2,-2.8 -1.5,0 -3,0.5 -3.9,1.3 l -1.2,-2.2 c 1.4,-1.1 3.4,-1.6 5.5,-1.6 3.7,0 5.8,1.8 5.8,5.5 z m -3,3.6 v -1.5 h -3.1 c -2.1,0 -2.6,0.8 -2.6,1.7 0,1.1 0.9,1.8 2.5,1.8 1.4,0 2.7,-0.7 3.2,-2 z"
   id="path46"
   inkscape:connector-curvature="0"
   style="fill:#2c307a;stroke-width:0.84250003" />
		<path
   class="st5"
   d="m 123.7,46.7 -5.6,13 H 115 l -5.6,-13 h 3.2 l 4,9.6 4.2,-9.6 z"
   id="path48"
   inkscape:connector-curvature="0"
   style="fill:#2c307a;stroke-width:0.84250003" />
		<path
   class="st5"
   d="m 124.5,42.8 c 0,-1 0.8,-1.8 1.9,-1.8 1.1,0 1.9,0.8 1.9,1.8 0,1.1 -0.8,1.9 -1.9,1.9 -1.1,-0.1 -1.9,-0.9 -1.9,-1.9 z m 0.4,3.9 h 3 v 13 h -3 z"
   id="path50"
   inkscape:connector-curvature="0"
   style="fill:#2c307a;stroke-width:0.84250003" />
		<path
   class="st5"
   d="m 129.7,58.4 1.2,-2.3 c 1.1,0.8 2.9,1.3 4.5,1.3 1.9,0 2.7,-0.5 2.7,-1.4 0,-2.5 -8,-0.1 -8,-5.3 0,-2.5 2.2,-4.1 5.7,-4.1 1.7,0 3.7,0.4 4.9,1.1 l -1.2,2.3 c -1.2,-0.7 -2.5,-1 -3.7,-1 -1.9,0 -2.7,0.6 -2.7,1.5 0,2.6 8,0.3 8,5.4 0,2.4 -2.2,4 -5.9,4 -2.1,0 -4.3,-0.6 -5.5,-1.5 z"
   id="path52"
   inkscape:connector-curvature="0"
   style="fill:#2c307a;stroke-width:0.84250003" />
	</g>
</g>
</svg>