<svg width="461" height="320" viewBox="0 0 461 320" fill="none" xmlns="http://www.w3.org/2000/svg">
<g clip-path="url(#clip0)">
<path opacity="0.1" d="M260.755 43.5137C231.206 43.5534 202.763 35.141 175.558 25.7956C148.352 16.4502 121.357 5.98522 92.3565 1.55072C73.7057 -1.29975 52.4973 -1.03773 37.9182 9.31209C23.8847 19.2689 19.8209 35.7484 17.8601 50.9734C16.3856 62.4269 15.7057 74.4481 21.2282 84.9249C25.0627 92.198 31.6249 98.1927 36.25 105.124C52.3945 129.238 42.6857 160.041 26.9958 184.715C19.639 196.292 11.0212 207.388 5.45921 219.627C-0.102817 231.867 -2.38376 245.746 3.28895 257.827C8.91028 269.8 21.6077 278.491 35.234 284.426C62.9058 296.503 95.1237 299.091 126.476 300.088C195.877 302.299 265.412 297.789 334.761 293.279C360.425 291.612 386.203 289.932 411.337 285.101C425.292 282.421 439.661 278.443 449.556 269.725C462.115 258.657 464.684 240.585 455.545 227.595C440.219 205.808 399.806 201.699 388.816 178.125C382.756 165.147 387.982 150.263 395.679 137.754C412.187 110.913 440.602 86.8702 441.08 56.849C441.408 36.2327 426.632 16.1207 404.561 7.16035C381.428 -2.22476 349.886 0.189008 333.678 17.6809C317.012 35.7007 286.846 43.4859 260.755 43.5137Z" fill="#006ADC"/>
<path d="M392.358 256.209C392.358 256.209 387.499 252.989 382.685 255.28C382.685 255.28 384.167 258.146 390.263 257.876L392.358 256.209Z" fill="#006ADC"/>
<path d="M392.975 256.38C392.975 256.38 394.453 262.033 390.745 265.88C390.745 265.88 388.516 263.55 390.745 257.841L392.975 256.38Z" fill="#006ADC"/>
<path d="M399.015 250.953C399.015 250.953 398.655 246.146 387.844 247.742C387.844 247.742 387.792 250.842 391.587 252.311C395.382 253.78 397.122 252.541 399.015 250.953Z" fill="#006ADC"/>
<path d="M399.695 250.92C399.695 250.92 404.265 252.393 400.189 262.576C400.189 262.576 397.173 261.901 396.631 257.848C396.09 253.794 397.695 252.397 399.695 250.92Z" fill="#006ADC"/>
<path d="M405.799 244.1C405.799 244.1 406.42 236.188 395.371 236.998C395.371 236.998 394.58 244.144 403.85 246.002L405.799 244.1Z" fill="#006ADC"/>
<path d="M413.101 235.167C413.101 235.167 411.587 226.198 400.542 228.87C400.542 228.87 400.502 236.624 411.298 237.302L413.101 235.167Z" fill="#006ADC"/>
<path d="M418.437 225.934C418.437 225.934 415.899 217.2 404.957 219.812C404.957 219.812 407.562 227.668 417.71 227.545L418.437 225.934Z" fill="#006ADC"/>
<path d="M423.505 216.914C423.505 216.914 421.026 207.85 410.459 210.562C410.459 210.562 413.986 219.173 422.805 218.446L423.505 216.914Z" fill="#006ADC"/>
<path d="M426.77 208.346C426.77 208.346 424.865 197.261 415.014 199.715C415.014 199.715 417.876 209.799 426.047 209.962L426.77 208.346Z" fill="#006ADC"/>
<path d="M429.833 197.996C429.833 197.996 427.544 186.825 417.579 190.056C417.579 190.056 421.484 200.617 429.126 199.525L429.833 197.996Z" fill="#006ADC"/>
<path d="M431.715 188.365C431.715 188.365 428.083 177.19 420.378 177.491C420.378 177.491 424.09 189.294 431.071 190.592L431.715 188.365Z" fill="#006ADC"/>
<path d="M432.933 178.964C432.933 178.964 428.98 165.514 422.71 166.55C422.71 166.55 425.446 176.832 432.711 181.061L432.933 178.964Z" fill="#006ADC"/>
<path d="M433.621 167.75C433.621 167.75 429.913 156.542 423.738 156.094C423.738 156.094 426.26 167.122 433.498 170.664L433.621 167.75Z" fill="#006ADC"/>
<path d="M434.368 157.284C434.368 157.284 429.747 146.065 425.671 145.811C425.671 145.811 427.679 156.859 433.973 159.126L434.368 157.284Z" fill="#006ADC"/>
<path d="M434.879 147.55C434.879 147.55 432.036 135.366 427.953 134.354C427.953 134.354 428.51 144.322 434.467 148.463L434.879 147.55Z" fill="#006ADC"/>
<path d="M436.42 134.797C436.42 134.797 433.431 125.082 430.123 123.602C430.123 123.602 430.775 135.055 435.657 137.171L436.42 134.797Z" fill="#006ADC"/>
<path d="M437.696 126.461L438.297 109.334C438.297 109.334 432.111 122.244 437.25 129.466L437.696 126.461Z" fill="#006ADC"/>
<path d="M442.472 109.425C442.472 109.425 446.927 96.9194 448.006 96.2207C448.006 96.2207 439.27 104.335 440.124 114.773L442.472 109.425Z" fill="#006ADC"/>
<path d="M406.099 244.041C406.099 244.041 413.934 243.012 413.701 254.132C413.701 254.132 406.621 255.292 404.308 246.093L406.099 244.041Z" fill="#006ADC"/>
<path d="M413.472 234.865C413.472 234.865 422.524 234.837 421.773 246.219C421.773 246.219 414.171 247.585 411.665 237.017L413.472 234.865Z" fill="#006ADC"/>
<path d="M418.524 226.668C418.524 226.668 426.742 222.798 432 232.79C432 232.79 424.41 236.014 417.796 228.284L418.524 226.668Z" fill="#006ADC"/>
<path d="M423.686 216.998C423.686 216.998 432.102 212.881 437.043 222.639C437.043 222.639 428.276 225.672 422.99 218.542L423.686 216.998Z" fill="#006ADC"/>
<path d="M426.663 208.587C426.663 208.587 434.763 200.818 441.226 208.675C441.226 208.675 432.953 215.07 426.292 210.318L426.663 208.587Z" fill="#006ADC"/>
<path d="M429.376 197.731C429.376 197.731 437.523 189.791 443.935 198.096C443.935 198.096 434.791 204.619 429.083 199.398L429.376 197.731Z" fill="#006ADC"/>
<path d="M430.897 188.048C430.897 188.048 437.174 178.123 444.567 180.338C444.567 180.338 438.052 190.847 430.968 190.378L430.897 188.048Z" fill="#006ADC"/>
<path d="M432.748 178.901C432.748 178.901 439.073 166.403 445.058 168.579C445.058 168.579 440.496 178.186 432.585 181.009L432.748 178.901Z" fill="#006ADC"/>
<path d="M433.186 167.098C433.186 167.098 439.689 157.26 445.781 158.463C445.781 158.463 440.464 168.44 432.554 169.945L433.186 167.098Z" fill="#006ADC"/>
<path d="M433.692 157.066C433.692 157.066 438.732 146.026 442.828 145.95C442.828 145.95 440.408 156.911 434.032 158.94L433.692 157.066Z" fill="#006ADC"/>
<path d="M434.68 147.311C434.68 147.311 440.282 136.131 444.492 136.107C444.492 136.107 441.626 145.667 434.866 148.291L434.68 147.311Z" fill="#006ADC"/>
<path d="M435.522 135.495C435.522 135.495 439.712 126.245 443.183 125.197C443.183 125.197 441.088 136.472 435.985 137.949L435.522 135.495Z" fill="#006ADC"/>
<path d="M438.194 126.124L447.559 111.796C447.559 111.796 445.16 125.929 436.827 128.867L438.194 126.124Z" fill="#006ADC"/>
<path d="M444.623 110.58C444.623 110.58 455.506 103.037 455.901 101.818C455.901 101.818 450.367 112.383 440.088 114.248L444.623 110.58Z" fill="#006ADC"/>
<path d="M445.275 107.187C445.275 107.187 457.77 95.1219 460.961 95.1338C460.961 95.1338 450.655 95.6062 444.974 106.544L445.275 107.187Z" fill="#006ADC"/>
<path d="M435.645 137.286L436.099 137.346C438.447 118.889 441.871 107.968 445.737 106.63L445.587 106.193C441.487 107.623 438.04 118.377 435.645 137.286Z" fill="#444053"/>
<path d="M432.189 181.425L432.877 181.481C433.024 179.758 433.134 177.995 433.209 176.236C433.866 160.96 434.881 146.93 436.218 136.413L435.822 135.917C434.482 146.457 433.178 160.908 432.522 176.209C432.446 177.955 432.336 179.71 432.189 181.425Z" fill="#444053"/>
<path d="M379.534 265.014C379.653 264.962 391.761 259.531 404.328 246.581C411.691 238.997 417.809 230.287 422.453 220.776C428.264 208.894 431.806 194.292 432.992 180.107L432.277 180.445C429.608 212.284 415.175 234.04 403.7 245.891C391.255 258.726 379.281 264.101 379.163 264.153L379.534 265.014Z" fill="#444053"/>
<path d="M410.887 33.8359H31.0401C30.1427 33.8359 29.282 34.194 28.6474 34.8313C28.0128 35.4686 27.6562 36.333 27.6562 37.2343V47.1355H414.271V37.2343C414.271 36.333 413.914 35.4686 413.279 34.8313C412.645 34.194 411.784 33.8359 410.887 33.8359Z" fill="#3F3D56"/>
<path d="M27.6562 47.1357V269.949C27.6563 271.766 28.3751 273.509 29.6547 274.794C30.9343 276.079 32.6697 276.801 34.4793 276.801H407.448C409.257 276.801 410.993 276.079 412.272 274.794C413.552 273.509 414.271 271.766 414.271 269.949V47.1357H27.6562Z" fill="white"/>
<path opacity="0.8" d="M33.779 41.9748C34.6523 41.9748 35.3603 41.2639 35.3603 40.3868C35.3603 39.5098 34.6523 38.7988 33.779 38.7988C32.9057 38.7988 32.1978 39.5098 32.1978 40.3868C32.1978 41.2639 32.9057 41.9748 33.779 41.9748Z" fill="#FA5959"/>
<path opacity="0.8" d="M38.1276 41.9748C39.0009 41.9748 39.7089 41.2639 39.7089 40.3868C39.7089 39.5098 39.0009 38.7988 38.1276 38.7988C37.2543 38.7988 36.5464 39.5098 36.5464 40.3868C36.5464 41.2639 37.2543 41.9748 38.1276 41.9748Z" fill="#FED253"/>
<path opacity="0.8" d="M42.4763 41.9748C43.3496 41.9748 44.0575 41.2639 44.0575 40.3868C44.0575 39.5098 43.3496 38.7988 42.4763 38.7988C41.603 38.7988 40.895 39.5098 40.895 40.3868C40.895 41.2639 41.603 41.9748 42.4763 41.9748Z" fill="#8CCF4D"/>
<path opacity="0.05" d="M374.308 84.2871H63.5933V221.499H374.308V84.2871Z" fill="black"/>
<path d="M371.937 85.3281H65.9658V219.514H371.937V85.3281Z" fill="#3F3D56"/>
<path d="M149.376 119.862C143.356 119.862 137.471 121.655 132.465 125.014C127.46 128.373 123.558 133.147 121.255 138.733C118.951 144.319 118.348 150.465 119.522 156.395C120.697 162.325 123.596 167.772 127.853 172.047C132.11 176.322 137.534 179.234 143.438 180.413C149.343 181.593 155.463 180.987 161.025 178.674C166.587 176.36 171.341 172.442 174.686 167.415C178.03 162.388 179.815 156.477 179.815 150.431C179.815 146.417 179.028 142.442 177.498 138.733C175.969 135.024 173.727 131.654 170.9 128.816C168.074 125.977 164.718 123.725 161.025 122.189C157.332 120.653 153.374 119.862 149.376 119.862ZM154.836 151.166V165.64H144.075V151.166C142.586 150.034 141.489 148.461 140.938 146.669C140.387 144.877 140.41 142.956 141.005 141.178C141.599 139.4 142.735 137.854 144.251 136.76C145.768 135.665 147.588 135.075 149.456 135.075C151.323 135.075 153.143 135.665 154.66 136.76C156.176 137.854 157.312 139.4 157.906 141.178C158.501 142.956 158.524 144.877 157.973 146.669C157.422 148.461 156.325 150.034 154.836 151.166Z" fill="#006ADC"/>
<path opacity="0.05" d="M149.376 119.862C143.356 119.862 137.471 121.655 132.465 125.014C127.46 128.373 123.558 133.147 121.255 138.733C118.951 144.319 118.348 150.465 119.522 156.395C120.697 162.325 123.596 167.772 127.853 172.047C132.11 176.322 137.534 179.234 143.438 180.413C149.343 181.593 155.463 180.987 161.025 178.674C166.587 176.36 171.341 172.442 174.686 167.415C178.03 162.388 179.815 156.477 179.815 150.431C179.815 146.417 179.028 142.442 177.498 138.733C175.969 135.024 173.727 131.654 170.9 128.816C168.074 125.977 164.718 123.725 161.025 122.189C157.332 120.653 153.374 119.862 149.376 119.862ZM154.836 151.166V165.64H144.075V151.166C142.586 150.034 141.489 148.461 140.938 146.669C140.387 144.877 140.41 142.956 141.005 141.178C141.599 139.4 142.735 137.854 144.251 136.76C145.768 135.665 147.588 135.075 149.456 135.075C151.323 135.075 153.143 135.665 154.66 136.76C156.176 137.854 157.312 139.4 157.906 141.178C158.501 142.956 158.524 144.877 157.973 146.669C157.422 148.461 156.325 150.034 154.836 151.166Z" fill="black"/>
<path d="M149.376 111.129C141.636 111.129 134.069 113.434 127.633 117.753C121.198 122.071 116.181 128.21 113.219 135.391C110.257 142.573 109.482 150.476 110.992 158.1C112.502 165.724 116.23 172.727 121.703 178.223C127.176 183.72 134.149 187.463 141.741 188.98C149.333 190.496 157.202 189.718 164.353 186.743C171.504 183.769 177.616 178.731 181.916 172.268C186.217 165.804 188.512 158.205 188.512 150.432C188.512 140.008 184.389 130.011 177.049 122.641C169.71 115.27 159.756 111.129 149.376 111.129ZM156.393 151.377V169.984H142.557V151.377C140.642 149.921 139.23 147.898 138.521 145.594C137.813 143.289 137.843 140.819 138.607 138.532C139.371 136.245 140.832 134.258 142.782 132.849C144.732 131.441 147.073 130.683 149.475 130.683C151.877 130.683 154.218 131.441 156.168 132.849C158.118 134.258 159.578 136.245 160.343 138.532C161.107 140.819 161.137 143.289 160.428 145.594C159.72 147.898 158.308 149.921 156.393 151.377Z" fill="#006ADC"/>
<path d="M331.219 145.274H204.72V158.772H331.219V145.274Z" fill="white"/>
<path d="M331.219 169.889H303.942V183.387H331.219V169.889Z" fill="#006ADC"/>
<path d="M217.172 151.821H214.884L216.919 149.78C216.956 149.743 216.976 149.692 216.976 149.639C216.976 149.587 216.956 149.536 216.919 149.499C216.901 149.48 216.879 149.465 216.855 149.455C216.831 149.445 216.805 149.44 216.779 149.44C216.753 149.44 216.727 149.445 216.703 149.455C216.679 149.465 216.657 149.48 216.639 149.499L214.603 151.543V149.24C214.603 149.188 214.582 149.137 214.545 149.1C214.508 149.063 214.458 149.042 214.405 149.042C214.353 149.043 214.303 149.064 214.267 149.101C214.23 149.138 214.209 149.188 214.208 149.24V151.543L212.176 149.487C212.157 149.468 212.135 149.453 212.111 149.443C212.087 149.433 212.061 149.428 212.035 149.428C212.009 149.428 211.983 149.433 211.959 149.443C211.935 149.453 211.913 149.468 211.895 149.487C211.859 149.524 211.838 149.575 211.838 149.628C211.838 149.68 211.859 149.731 211.895 149.768L213.931 151.809H211.638C211.586 151.81 211.536 151.831 211.499 151.868C211.463 151.905 211.441 151.955 211.44 152.008C211.44 152.06 211.461 152.111 211.498 152.148C211.535 152.185 211.586 152.206 211.638 152.206H213.931L211.895 154.251C211.859 154.288 211.838 154.339 211.838 154.392C211.838 154.444 211.859 154.495 211.895 154.532C211.933 154.568 211.983 154.588 212.035 154.588C212.087 154.588 212.138 154.568 212.176 154.532L214.208 152.488V154.787C214.208 154.839 214.228 154.89 214.265 154.927C214.303 154.964 214.353 154.985 214.405 154.985C214.458 154.985 214.508 154.964 214.545 154.927C214.582 154.89 214.603 154.839 214.603 154.787V152.488L216.639 154.532C216.677 154.568 216.727 154.588 216.779 154.588C216.831 154.588 216.881 154.568 216.919 154.532C216.956 154.495 216.976 154.444 216.976 154.392C216.976 154.339 216.956 154.288 216.919 154.251L214.884 152.206H217.172C217.225 152.206 217.275 152.185 217.312 152.148C217.349 152.111 217.37 152.06 217.37 152.008C217.367 151.957 217.345 151.91 217.308 151.875C217.271 151.84 217.223 151.821 217.172 151.821Z" fill="#006ADC"/>
<path d="M225.473 151.821H223.184L225.22 149.78C225.257 149.743 225.277 149.692 225.277 149.639C225.277 149.587 225.257 149.536 225.22 149.499C225.202 149.48 225.18 149.465 225.156 149.455C225.132 149.445 225.106 149.44 225.08 149.44C225.054 149.44 225.028 149.445 225.004 149.455C224.98 149.465 224.958 149.48 224.94 149.499L222.904 151.543V149.24C222.904 149.188 222.883 149.137 222.846 149.1C222.809 149.063 222.758 149.042 222.706 149.042C222.654 149.043 222.604 149.064 222.567 149.101C222.531 149.138 222.509 149.188 222.508 149.24V151.543L220.476 149.487C220.458 149.468 220.436 149.453 220.412 149.443C220.388 149.433 220.362 149.428 220.336 149.428C220.31 149.428 220.284 149.433 220.26 149.443C220.236 149.453 220.214 149.468 220.196 149.487C220.159 149.524 220.139 149.575 220.139 149.628C220.139 149.68 220.159 149.731 220.196 149.768L222.232 151.809H219.939C219.887 151.81 219.837 151.831 219.8 151.868C219.763 151.905 219.742 151.955 219.741 152.008C219.741 152.06 219.762 152.111 219.799 152.148C219.836 152.185 219.886 152.206 219.939 152.206H222.232L220.196 154.251C220.159 154.288 220.139 154.339 220.139 154.392C220.139 154.444 220.159 154.495 220.196 154.532C220.234 154.568 220.284 154.588 220.336 154.588C220.388 154.588 220.438 154.568 220.476 154.532L222.508 152.488V154.787C222.508 154.839 222.529 154.89 222.566 154.927C222.603 154.964 222.654 154.985 222.706 154.985C222.758 154.985 222.809 154.964 222.846 154.927C222.883 154.89 222.904 154.839 222.904 154.787V152.488L224.94 154.532C224.978 154.568 225.028 154.588 225.08 154.588C225.132 154.588 225.182 154.568 225.22 154.532C225.257 154.495 225.277 154.444 225.277 154.392C225.277 154.339 225.257 154.288 225.22 154.251L223.184 152.206H225.473C225.526 152.206 225.576 152.185 225.613 152.148C225.65 152.111 225.671 152.06 225.671 152.008C225.668 151.957 225.646 151.91 225.609 151.875C225.572 151.84 225.524 151.821 225.473 151.821Z" fill="#006ADC"/>
<path d="M233.775 151.821H231.486L233.522 149.78C233.558 149.743 233.579 149.692 233.579 149.639C233.579 149.587 233.558 149.536 233.522 149.499C233.504 149.48 233.482 149.465 233.458 149.455C233.434 149.445 233.408 149.44 233.382 149.44C233.356 149.44 233.33 149.445 233.306 149.455C233.282 149.465 233.26 149.48 233.241 149.499L231.205 151.543V149.24C231.205 149.188 231.185 149.137 231.148 149.1C231.11 149.063 231.06 149.042 231.008 149.042C230.956 149.043 230.906 149.064 230.869 149.101C230.832 149.138 230.811 149.188 230.81 149.24V151.543L228.778 149.487C228.76 149.468 228.738 149.453 228.714 149.443C228.69 149.433 228.664 149.428 228.638 149.428C228.612 149.428 228.586 149.433 228.562 149.443C228.538 149.453 228.516 149.468 228.498 149.487C228.461 149.524 228.441 149.575 228.441 149.628C228.441 149.68 228.461 149.731 228.498 149.768L230.533 151.809H228.241C228.189 151.81 228.139 151.831 228.102 151.868C228.065 151.905 228.044 151.955 228.043 152.008C228.043 152.06 228.064 152.111 228.101 152.148C228.138 152.185 228.188 152.206 228.241 152.206H230.533L228.498 154.251C228.461 154.288 228.441 154.339 228.441 154.392C228.441 154.444 228.461 154.495 228.498 154.532C228.536 154.568 228.586 154.588 228.638 154.588C228.69 154.588 228.74 154.568 228.778 154.532L230.81 152.488V154.787C230.81 154.839 230.831 154.89 230.868 154.927C230.905 154.964 230.955 154.985 231.008 154.985C231.06 154.985 231.11 154.964 231.148 154.927C231.185 154.89 231.205 154.839 231.205 154.787V152.488L233.241 154.532C233.279 154.568 233.33 154.588 233.382 154.588C233.434 154.588 233.484 154.568 233.522 154.532C233.558 154.495 233.579 154.444 233.579 154.392C233.579 154.339 233.558 154.288 233.522 154.251L231.486 152.206H233.775C233.827 152.206 233.878 152.185 233.915 152.148C233.952 152.111 233.973 152.06 233.973 152.008C233.97 151.957 233.947 151.91 233.911 151.875C233.874 151.84 233.825 151.821 233.775 151.821Z" fill="#006ADC"/>
<path d="M242.077 151.821H239.788L241.824 149.78C241.861 149.743 241.881 149.692 241.881 149.639C241.881 149.587 241.861 149.536 241.824 149.499C241.806 149.48 241.784 149.465 241.76 149.455C241.736 149.445 241.71 149.44 241.684 149.44C241.658 149.44 241.632 149.445 241.608 149.455C241.584 149.465 241.562 149.48 241.544 149.499L239.508 151.543V149.24C239.508 149.188 239.487 149.137 239.45 149.1C239.413 149.063 239.362 149.042 239.31 149.042C239.258 149.043 239.208 149.064 239.171 149.101C239.135 149.138 239.113 149.188 239.112 149.24V151.543L237.08 149.487C237.062 149.468 237.04 149.453 237.016 149.443C236.992 149.433 236.966 149.428 236.94 149.428C236.914 149.428 236.888 149.433 236.864 149.443C236.84 149.453 236.818 149.468 236.8 149.487C236.763 149.524 236.743 149.575 236.743 149.628C236.743 149.68 236.763 149.731 236.8 149.768L238.836 151.809H236.543C236.491 151.81 236.441 151.831 236.404 151.868C236.367 151.905 236.346 151.955 236.345 152.008C236.345 152.06 236.366 152.111 236.403 152.148C236.44 152.185 236.49 152.206 236.543 152.206H238.836L236.8 154.251C236.763 154.288 236.743 154.339 236.743 154.392C236.743 154.444 236.763 154.495 236.8 154.532C236.838 154.568 236.888 154.588 236.94 154.588C236.992 154.588 237.042 154.568 237.08 154.532L239.112 152.488V154.787C239.112 154.839 239.133 154.89 239.17 154.927C239.207 154.964 239.258 154.985 239.31 154.985C239.362 154.985 239.413 154.964 239.45 154.927C239.487 154.89 239.508 154.839 239.508 154.787V152.488L241.544 154.532C241.582 154.568 241.632 154.588 241.684 154.588C241.736 154.588 241.786 154.568 241.824 154.532C241.861 154.495 241.881 154.444 241.881 154.392C241.881 154.339 241.861 154.288 241.824 154.251L239.788 152.206H242.077C242.13 152.206 242.18 152.185 242.217 152.148C242.254 152.111 242.275 152.06 242.275 152.008C242.272 151.957 242.25 151.91 242.213 151.875C242.176 151.84 242.128 151.821 242.077 151.821Z" fill="#006ADC"/>
<path d="M250.379 151.821H248.09L250.126 149.78C250.162 149.743 250.182 149.692 250.182 149.639C250.182 149.587 250.162 149.536 250.126 149.499C250.107 149.48 250.085 149.465 250.061 149.455C250.037 149.445 250.011 149.44 249.985 149.44C249.959 149.44 249.933 149.445 249.909 149.455C249.885 149.465 249.863 149.48 249.845 149.499L247.809 151.543V149.24C247.809 149.188 247.788 149.137 247.751 149.1C247.714 149.063 247.664 149.042 247.611 149.042C247.559 149.043 247.51 149.064 247.473 149.101C247.436 149.138 247.415 149.188 247.414 149.24V151.543L245.382 149.487C245.363 149.468 245.342 149.453 245.317 149.443C245.293 149.433 245.268 149.428 245.241 149.428C245.215 149.428 245.189 149.433 245.165 149.443C245.141 149.453 245.119 149.468 245.101 149.487C245.065 149.524 245.044 149.575 245.044 149.628C245.044 149.68 245.065 149.731 245.101 149.768L247.137 151.809H244.844C244.792 151.81 244.742 151.831 244.705 151.868C244.669 151.905 244.647 151.955 244.646 152.008C244.646 152.06 244.667 152.111 244.704 152.148C244.741 152.185 244.792 152.206 244.844 152.206H247.137L245.101 154.251C245.065 154.288 245.044 154.339 245.044 154.392C245.044 154.444 245.065 154.495 245.101 154.532C245.139 154.568 245.189 154.588 245.241 154.588C245.294 154.588 245.344 154.568 245.382 154.532L247.414 152.488V154.787C247.414 154.839 247.434 154.89 247.472 154.927C247.509 154.964 247.559 154.985 247.611 154.985C247.664 154.985 247.714 154.964 247.751 154.927C247.788 154.89 247.809 154.839 247.809 154.787V152.488L249.845 154.532C249.883 154.568 249.933 154.588 249.985 154.588C250.037 154.588 250.087 154.568 250.126 154.532C250.162 154.495 250.182 154.444 250.182 154.392C250.182 154.339 250.162 154.288 250.126 154.251L248.09 152.206H250.379C250.431 152.206 250.481 152.185 250.518 152.148C250.555 152.111 250.576 152.06 250.576 152.008C250.573 151.957 250.551 151.91 250.514 151.875C250.478 151.84 250.429 151.821 250.379 151.821Z" fill="#006ADC"/>
<path d="M258.68 151.821H256.391L258.427 149.78C258.463 149.743 258.484 149.692 258.484 149.639C258.484 149.587 258.463 149.536 258.427 149.499C258.408 149.48 258.387 149.465 258.362 149.455C258.338 149.445 258.312 149.44 258.286 149.44C258.26 149.44 258.234 149.445 258.21 149.455C258.186 149.465 258.164 149.48 258.146 149.499L256.11 151.543V149.24C256.11 149.188 256.089 149.137 256.052 149.1C256.015 149.063 255.965 149.042 255.913 149.042C255.86 149.043 255.811 149.064 255.774 149.101C255.737 149.138 255.716 149.188 255.715 149.24V151.543L253.683 149.487C253.665 149.468 253.643 149.453 253.619 149.443C253.595 149.433 253.569 149.428 253.543 149.428C253.517 149.428 253.491 149.433 253.467 149.443C253.443 149.453 253.421 149.468 253.402 149.487C253.366 149.524 253.345 149.575 253.345 149.628C253.345 149.68 253.366 149.731 253.402 149.768L255.438 151.809H253.145C253.093 151.81 253.044 151.831 253.007 151.868C252.97 151.905 252.949 151.955 252.948 152.008C252.948 152.06 252.969 152.111 253.006 152.148C253.043 152.185 253.093 152.206 253.145 152.206H255.438L253.402 154.251C253.366 154.288 253.345 154.339 253.345 154.392C253.345 154.444 253.366 154.495 253.402 154.532C253.44 154.568 253.491 154.588 253.543 154.588C253.595 154.588 253.645 154.568 253.683 154.532L255.715 152.488V154.787C255.715 154.839 255.736 154.89 255.773 154.927C255.81 154.964 255.86 154.985 255.913 154.985C255.965 154.985 256.015 154.964 256.052 154.927C256.089 154.89 256.11 154.839 256.11 154.787V152.488L258.146 154.532C258.184 154.568 258.234 154.588 258.286 154.588C258.339 154.588 258.389 154.568 258.427 154.532C258.463 154.495 258.484 154.444 258.484 154.392C258.484 154.339 258.463 154.288 258.427 154.251L256.391 152.206H258.68C258.732 152.206 258.782 152.185 258.82 152.148C258.857 152.111 258.877 152.06 258.877 152.008C258.874 151.957 258.852 151.91 258.815 151.875C258.779 151.84 258.73 151.821 258.68 151.821Z" fill="#006ADC"/>
<path d="M266.982 151.821H264.693L266.729 149.78C266.765 149.743 266.785 149.692 266.785 149.639C266.785 149.587 266.765 149.536 266.729 149.499C266.71 149.48 266.688 149.465 266.664 149.455C266.64 149.445 266.614 149.44 266.588 149.44C266.562 149.44 266.536 149.445 266.512 149.455C266.488 149.465 266.466 149.48 266.448 149.499L264.412 151.543V149.24C264.412 149.188 264.391 149.137 264.354 149.1C264.317 149.063 264.267 149.042 264.214 149.042C264.162 149.043 264.113 149.064 264.076 149.101C264.039 149.138 264.018 149.188 264.017 149.24V151.543L261.985 149.487C261.966 149.468 261.945 149.453 261.92 149.443C261.896 149.433 261.871 149.428 261.844 149.428C261.818 149.428 261.793 149.433 261.768 149.443C261.744 149.453 261.722 149.468 261.704 149.487C261.668 149.524 261.647 149.575 261.647 149.628C261.647 149.68 261.668 149.731 261.704 149.768L263.74 151.809H261.447C261.395 151.81 261.345 151.831 261.309 151.868C261.272 151.905 261.251 151.955 261.25 152.008C261.25 152.06 261.27 152.111 261.307 152.148C261.344 152.185 261.395 152.206 261.447 152.206H263.74L261.704 154.251C261.668 154.288 261.647 154.339 261.647 154.392C261.647 154.444 261.668 154.495 261.704 154.532C261.742 154.568 261.792 154.588 261.844 154.588C261.897 154.588 261.947 154.568 261.985 154.532L264.017 152.488V154.787C264.017 154.839 264.038 154.89 264.075 154.927C264.112 154.964 264.162 154.985 264.214 154.985C264.267 154.985 264.317 154.964 264.354 154.927C264.391 154.89 264.412 154.839 264.412 154.787V152.488L266.448 154.532C266.486 154.568 266.536 154.588 266.588 154.588C266.64 154.588 266.69 154.568 266.729 154.532C266.765 154.495 266.785 154.444 266.785 154.392C266.785 154.339 266.765 154.288 266.729 154.251L264.693 152.206H266.982C267.034 152.206 267.084 152.185 267.121 152.148C267.158 152.111 267.179 152.06 267.179 152.008C267.176 151.957 267.154 151.91 267.117 151.875C267.08 151.84 267.032 151.821 266.982 151.821Z" fill="#006ADC"/>
<path d="M275.283 151.821H272.994L275.03 149.78C275.066 149.743 275.087 149.692 275.087 149.639C275.087 149.587 275.066 149.536 275.03 149.499C275.011 149.48 274.99 149.465 274.965 149.455C274.941 149.445 274.915 149.44 274.889 149.44C274.863 149.44 274.837 149.445 274.813 149.455C274.789 149.465 274.767 149.48 274.749 149.499L272.713 151.543V149.24C272.713 149.188 272.692 149.137 272.655 149.1C272.618 149.063 272.568 149.042 272.516 149.042C272.463 149.043 272.414 149.064 272.377 149.101C272.34 149.138 272.319 149.188 272.318 149.24V151.543L270.286 149.487C270.268 149.468 270.246 149.453 270.222 149.443C270.198 149.433 270.172 149.428 270.146 149.428C270.12 149.428 270.094 149.433 270.07 149.443C270.046 149.453 270.024 149.468 270.005 149.487C269.969 149.524 269.949 149.575 269.949 149.628C269.949 149.68 269.969 149.731 270.005 149.768L272.041 151.809H269.748C269.696 151.81 269.647 151.831 269.61 151.868C269.573 151.905 269.552 151.955 269.551 152.008C269.551 152.06 269.572 152.111 269.609 152.148C269.646 152.185 269.696 152.206 269.748 152.206H272.041L270.005 154.251C269.969 154.288 269.949 154.339 269.949 154.392C269.949 154.444 269.969 154.495 270.005 154.532C270.043 154.568 270.094 154.588 270.146 154.588C270.198 154.588 270.248 154.568 270.286 154.532L272.318 152.488V154.787C272.318 154.839 272.339 154.89 272.376 154.927C272.413 154.964 272.463 154.985 272.516 154.985C272.568 154.985 272.618 154.964 272.655 154.927C272.692 154.89 272.713 154.839 272.713 154.787V152.488L274.749 154.532C274.787 154.568 274.837 154.588 274.889 154.588C274.942 154.588 274.992 154.568 275.03 154.532C275.066 154.495 275.087 154.444 275.087 154.392C275.087 154.339 275.066 154.288 275.03 154.251L272.994 152.206H275.283C275.335 152.206 275.385 152.185 275.423 152.148C275.46 152.111 275.48 152.06 275.48 152.008C275.477 151.957 275.455 151.91 275.418 151.875C275.382 151.84 275.333 151.821 275.283 151.821Z" fill="#006ADC"/>
<path d="M283.584 151.821H281.295L283.331 149.78C283.368 149.743 283.388 149.692 283.388 149.639C283.388 149.587 283.368 149.536 283.331 149.499C283.313 149.48 283.291 149.465 283.267 149.455C283.243 149.445 283.217 149.44 283.191 149.44C283.165 149.44 283.139 149.445 283.115 149.455C283.091 149.465 283.069 149.48 283.05 149.499L281.015 151.543V149.24C281.015 149.188 280.994 149.137 280.957 149.1C280.92 149.063 280.869 149.042 280.817 149.042C280.765 149.043 280.715 149.064 280.678 149.101C280.641 149.138 280.62 149.188 280.619 149.24V151.543L278.587 149.487C278.569 149.468 278.547 149.453 278.523 149.443C278.499 149.433 278.473 149.428 278.447 149.428C278.421 149.428 278.395 149.433 278.371 149.443C278.347 149.453 278.325 149.468 278.307 149.487C278.27 149.524 278.25 149.575 278.25 149.628C278.25 149.68 278.27 149.731 278.307 149.768L280.343 151.809H278.05C277.998 151.81 277.948 151.831 277.911 151.868C277.874 151.905 277.853 151.955 277.852 152.008C277.852 152.06 277.873 152.111 277.91 152.148C277.947 152.185 277.997 152.206 278.05 152.206H280.343L278.307 154.251C278.27 154.288 278.25 154.339 278.25 154.392C278.25 154.444 278.27 154.495 278.307 154.532C278.345 154.568 278.395 154.588 278.447 154.588C278.499 154.588 278.549 154.568 278.587 154.532L280.619 152.488V154.787C280.619 154.839 280.64 154.89 280.677 154.927C280.714 154.964 280.764 154.985 280.817 154.985C280.869 154.985 280.92 154.964 280.957 154.927C280.994 154.89 281.015 154.839 281.015 154.787V152.488L283.05 154.532C283.088 154.568 283.139 154.588 283.191 154.588C283.243 154.588 283.293 154.568 283.331 154.532C283.368 154.495 283.388 154.444 283.388 154.392C283.388 154.339 283.368 154.288 283.331 154.251L281.295 152.206H283.584C283.637 152.206 283.687 152.185 283.724 152.148C283.761 152.111 283.782 152.06 283.782 152.008C283.779 151.957 283.757 151.91 283.72 151.875C283.683 151.84 283.635 151.821 283.584 151.821Z" fill="#006ADC"/>
<path d="M291.886 151.821H289.597L291.633 149.78C291.67 149.743 291.69 149.692 291.69 149.639C291.69 149.587 291.67 149.536 291.633 149.499C291.615 149.48 291.593 149.465 291.569 149.455C291.545 149.445 291.519 149.44 291.493 149.44C291.467 149.44 291.441 149.445 291.417 149.455C291.393 149.465 291.371 149.48 291.353 149.499L289.317 151.543V149.24C289.317 149.188 289.296 149.137 289.259 149.1C289.222 149.063 289.172 149.042 289.119 149.042C289.067 149.043 289.017 149.064 288.98 149.101C288.944 149.138 288.922 149.188 288.921 149.24V151.543L286.89 149.487C286.871 149.468 286.849 149.453 286.825 149.443C286.801 149.433 286.775 149.428 286.749 149.428C286.723 149.428 286.697 149.433 286.673 149.443C286.649 149.453 286.627 149.468 286.609 149.487C286.572 149.524 286.552 149.575 286.552 149.628C286.552 149.68 286.572 149.731 286.609 149.768L288.645 151.809H286.352C286.3 151.81 286.25 151.831 286.213 151.868C286.176 151.905 286.155 151.955 286.154 152.008C286.154 152.06 286.175 152.111 286.212 152.148C286.249 152.185 286.3 152.206 286.352 152.206H288.645L286.609 154.251C286.572 154.288 286.552 154.339 286.552 154.392C286.552 154.444 286.572 154.495 286.609 154.532C286.647 154.568 286.697 154.588 286.749 154.588C286.801 154.588 286.851 154.568 286.89 154.532L288.921 152.488V154.787C288.921 154.839 288.942 154.89 288.979 154.927C289.016 154.964 289.067 154.985 289.119 154.985C289.172 154.985 289.222 154.964 289.259 154.927C289.296 154.89 289.317 154.839 289.317 154.787V152.488L291.353 154.532C291.391 154.568 291.441 154.588 291.493 154.588C291.545 154.588 291.595 154.568 291.633 154.532C291.67 154.495 291.69 154.444 291.69 154.392C291.69 154.339 291.67 154.288 291.633 154.251L289.597 152.206H291.886C291.939 152.206 291.989 152.185 292.026 152.148C292.063 152.111 292.084 152.06 292.084 152.008C292.081 151.957 292.059 151.91 292.022 151.875C291.985 151.84 291.937 151.821 291.886 151.821Z" fill="#006ADC"/>
<path d="M300.188 151.821H297.899L299.935 149.78C299.971 149.743 299.991 149.692 299.991 149.639C299.991 149.587 299.971 149.536 299.935 149.499C299.916 149.48 299.894 149.465 299.87 149.455C299.846 149.445 299.82 149.44 299.794 149.44C299.768 149.44 299.742 149.445 299.718 149.455C299.694 149.465 299.672 149.48 299.654 149.499L297.618 151.543V149.24C297.618 149.188 297.597 149.137 297.56 149.1C297.523 149.063 297.473 149.042 297.42 149.042C297.368 149.043 297.319 149.064 297.282 149.101C297.245 149.138 297.224 149.188 297.223 149.24V151.543L295.191 149.487C295.172 149.468 295.151 149.453 295.127 149.443C295.102 149.433 295.077 149.428 295.05 149.428C295.024 149.428 294.999 149.433 294.974 149.443C294.95 149.453 294.929 149.468 294.91 149.487C294.874 149.524 294.853 149.575 294.853 149.628C294.853 149.68 294.874 149.731 294.91 149.768L296.946 151.809H294.653C294.601 151.81 294.551 151.831 294.515 151.868C294.478 151.905 294.457 151.955 294.456 152.008C294.456 152.06 294.476 152.111 294.513 152.148C294.551 152.185 294.601 152.206 294.653 152.206H296.946L294.91 154.251C294.874 154.288 294.853 154.339 294.853 154.392C294.853 154.444 294.874 154.495 294.91 154.532C294.948 154.568 294.998 154.588 295.05 154.588C295.103 154.588 295.153 154.568 295.191 154.532L297.223 152.488V154.787C297.223 154.839 297.244 154.89 297.281 154.927C297.318 154.964 297.368 154.985 297.42 154.985C297.473 154.985 297.523 154.964 297.56 154.927C297.597 154.89 297.618 154.839 297.618 154.787V152.488L299.654 154.532C299.692 154.568 299.742 154.588 299.794 154.588C299.846 154.588 299.896 154.568 299.935 154.532C299.971 154.495 299.991 154.444 299.991 154.392C299.991 154.339 299.971 154.288 299.935 154.251L297.899 152.206H300.188C300.24 152.206 300.29 152.185 300.327 152.148C300.364 152.111 300.385 152.06 300.385 152.008C300.382 151.957 300.36 151.91 300.323 151.875C300.287 151.84 300.238 151.821 300.188 151.821Z" fill="#006ADC"/>
<path d="M363.829 200.116C363.817 199.636 363.758 199.159 363.651 198.691C363.295 197.349 362.493 195.725 361.172 195.32C359.809 194.901 358.492 194.343 357.243 193.653C357.006 189.397 357.978 185.042 356.919 180.917C356.523 179.409 355.871 177.964 355.697 176.419C355.48 174.498 356.001 172.449 355.239 170.679C354.638 169.281 353.317 168.297 351.898 167.78C350.479 167.264 348.949 167.125 347.443 166.986C345.545 166.832 339.402 166.101 337.26 167.804C337.112 167.92 336.979 168.053 336.864 168.201C336.817 168.267 336.775 168.336 336.738 168.408L336.718 168.439C336.675 168.522 336.64 168.609 336.611 168.698C336.582 168.795 336.559 168.894 336.544 168.995C336.544 169.027 336.544 169.059 336.544 169.091C336.544 169.122 336.544 169.23 336.544 169.301V169.408C336.544 169.48 336.544 169.551 336.544 169.627C336.544 169.702 336.544 169.682 336.544 169.71C336.572 170.067 336.623 170.424 336.623 170.778C336.628 170.954 336.612 171.13 336.576 171.302C336.444 171.77 336.221 172.207 335.92 172.588L335.848 172.691C335.805 172.755 335.762 172.814 335.722 172.878C335.682 172.941 335.651 172.989 335.619 173.045C335.588 173.1 335.556 173.136 335.528 173.188C335.49 173.253 335.456 173.321 335.426 173.39C335.426 173.43 335.382 173.466 335.366 173.505C335.317 173.613 335.277 173.724 335.248 173.839C335.155 174.184 335.147 174.546 335.224 174.895C335.33 175.34 335.514 175.763 335.765 176.145C335.864 176.308 335.971 176.467 336.082 176.626L336.358 177.003C336.307 177.371 336.279 177.742 336.275 178.114C336.276 179.358 336.557 180.584 337.098 181.703C337.639 182.821 338.425 183.801 339.398 184.57C339.555 186.246 339.538 187.935 339.347 189.608C339.311 189.957 339.268 190.31 339.221 190.66C339.173 191.009 339.137 191.239 339.09 191.529C338.512 191.612 337.922 191.568 337.363 191.398C337.104 191.282 336.841 191.18 336.572 191.092C335.422 190.803 334.247 191.954 333.109 191.604C333.109 191.66 333.077 191.712 333.058 191.763C332.82 191.615 332.547 191.534 332.267 191.529C331.591 191.497 331.042 191.005 330.551 190.541L329.045 189.115C328.947 189.028 328.859 188.929 328.784 188.822C328.703 188.667 328.642 188.503 328.602 188.333C328.349 187.511 327.737 186.856 327.144 186.233C327.031 186.091 326.882 185.982 326.713 185.919C326.647 185.91 326.581 185.91 326.515 185.919C326.475 185.864 326.431 185.811 326.385 185.761C326.282 185.643 326.173 185.531 326.057 185.427C325.337 184.76 325.266 184.189 324.641 183.442C324.097 182.73 323.603 181.981 323.163 181.199C323.112 180.782 323.04 180.353 322.953 179.921C322.754 178.93 322.464 177.96 322.088 177.023L321.297 175.264L321.206 175.355C320.633 174.498 320.02 174.029 319.471 174.14C318.55 174.331 318.095 176.125 318.241 178.472L318.558 180.854C318.558 180.913 318.585 180.973 318.601 181.032C318.544 181.315 318.515 181.602 318.514 181.89C318.514 182.223 318.822 182.469 318.985 182.767C319.244 183.171 319.381 183.641 319.38 184.121C319.36 184.292 319.309 184.454 319.301 184.621C319.322 184.994 319.451 185.353 319.672 185.653L321.649 188.988L322.044 189.687L322.068 189.719C322.193 189.963 322.374 190.172 322.598 190.33C322.675 191.165 322.896 191.98 323.25 192.74C323.317 192.891 323.392 193.034 323.471 193.177C324.003 194.054 324.628 194.87 325.337 195.61L326.278 196.67C327.207 197.71 328.136 198.754 329.144 199.715C329.505 200.101 329.941 200.407 330.425 200.616C330.662 200.712 330.92 200.742 331.172 200.705C331.425 200.668 331.664 200.565 331.864 200.406C331.864 200.898 331.864 201.391 331.864 201.883C332.011 201.892 332.152 201.94 332.274 202.023C332.396 202.105 332.494 202.219 332.558 202.352C332.621 202.485 332.649 202.633 332.636 202.78C332.624 202.927 332.573 203.068 332.488 203.189C331.658 205.329 330.82 207.488 329.563 209.406C330.45 209.933 331.273 210.564 332.014 211.284C332.495 211.819 332.922 212.4 333.291 213.019C333.326 213.312 333.354 213.602 333.37 213.892C333.662 218.624 331.84 223.321 330.207 227.831C329.737 229.109 329.223 230.447 329.263 231.777C328.953 231.969 328.657 232.182 328.377 232.416C328.701 233.266 328.575 234.024 328.539 234.933C328.527 235.478 328.416 236.016 328.211 236.521C328.039 236.871 327.849 237.212 327.642 237.541C326.618 239.356 326.393 241.511 326.187 243.584C326.065 244.834 326.547 246.363 325.982 247.482C325.005 249.404 324.139 251.452 324.005 253.588C324 254.069 323.939 254.547 323.823 255.013C323.701 255.41 323.483 255.748 323.372 256.137C323.259 256.658 323.232 257.195 323.293 257.725C323.369 259.628 323.087 261.528 322.463 263.327C321.969 264.744 321.424 266.26 321.811 267.717C320.857 268.724 320.268 270.023 320.139 271.406C320.129 271.759 320.086 272.112 320.012 272.458C319.892 272.812 319.732 273.151 319.538 273.47C318.742 274.925 318.37 276.576 318.463 278.234C317.277 279.85 316.684 281.843 316.332 283.824C315.98 285.805 315.826 287.822 315.375 289.779C314.774 292.367 313.687 294.983 313.474 297.635C312.193 298.457 311.64 300.049 311.395 301.554C311.149 303.058 311.11 304.639 310.481 306.028C310.157 306.751 309.691 307.398 309.382 308.136C309.166 308.724 309.007 309.332 308.908 309.95C308.718 310.919 308.552 311.999 308.785 312.928C308.45 313.285 308.059 313.584 307.627 313.813C307.69 313.567 307.742 313.321 307.785 313.071C306.765 314 304.915 313.674 304.101 314.79C303.857 315.149 303.761 315.591 303.835 316.02C303.909 316.449 304.146 316.832 304.496 317.089C304.751 317.244 305.027 317.363 305.315 317.442C307.291 318.077 309.323 318.716 311.355 318.379C311.595 318.353 311.828 318.278 312.039 318.16C312.303 317.965 312.521 317.713 312.675 317.422C312.98 316.938 313.284 316.453 313.585 315.969C314.313 316.187 315.053 316.361 315.802 316.489C315.877 317.124 315.933 317.759 315.96 318.395C316.356 318.474 316.885 318.498 317.071 318.129C317.128 317.989 317.151 317.838 317.138 317.688C317.138 317.406 317.178 317.033 317.202 316.652H317.281C318.487 316.701 319.687 316.457 320.779 315.941C320.356 312.424 321.752 308.986 322.961 305.659C324.238 302.157 325.333 298.592 326.436 295.027C327.227 292.518 328.1 290.088 328.875 287.575C329.85 284.399 330.829 281.223 331.812 278.047C332.239 276.65 332.67 275.268 333.16 273.879C334.192 271.067 335.417 268.331 336.825 265.689C337.22 264.938 337.616 264.196 337.94 263.418C338.335 262.469 338.616 261.477 338.932 260.496C339.621 258.484 340.451 256.523 341.414 254.628C341.442 254.577 341.462 254.529 341.49 254.481C341.81 255.796 342.13 257.129 342.343 258.451C342.632 260.072 342.655 261.73 342.411 263.358C342.221 264.466 341.861 265.562 341.905 266.685C341.964 268.238 342.79 269.647 343.197 271.144C343.46 272.264 343.608 273.408 343.64 274.558C343.751 276.344 344.715 278.349 344.035 280.005C341.92 285.249 342.944 291.172 341.739 296.679C341.118 299.505 339.217 302.161 339.367 305.051C339.472 307.103 339.651 309.148 339.904 311.189C339.965 311.833 340.132 312.462 340.399 313.051C340.556 313.361 340.737 313.658 340.94 313.94C340.766 314.008 340.62 314.186 340.493 314.564C340.169 315.556 340.493 316.787 341.371 317.343C341.729 317.535 342.114 317.669 342.513 317.74C343.051 317.893 343.607 317.971 344.166 317.97C344.34 317.96 344.513 317.939 344.684 317.906C345.295 318.164 345.919 318.389 346.554 318.581C346.554 318.744 346.585 318.907 346.605 319.07C346.606 319.155 346.625 319.238 346.66 319.316C346.696 319.393 346.747 319.462 346.81 319.518C346.909 319.564 347.018 319.584 347.127 319.574H349.273C349.273 319.395 349.273 319.212 349.273 319.034C349.519 319.06 349.767 319.033 350.002 318.957C350.237 318.88 350.453 318.755 350.637 318.589C350.827 318.346 350.962 318.064 351.032 317.763C351.617 315.77 352.199 313.776 352.776 311.781C353.468 309.575 353.756 307.261 353.626 304.952C352.863 297.635 354.539 290.295 353.993 282.958C353.665 278.549 353.891 274.115 354.665 269.762C354.843 268.777 355.061 267.777 355.14 266.796C355.314 264.946 355.1 263.077 355.231 261.238C355.274 260.595 355.361 259.956 355.44 259.317C355.982 255.35 356.266 251.352 356.29 247.347C356.278 246.021 356.196 244.695 356.045 243.377C356.457 243.272 356.831 243.052 357.124 242.742C357.476 242.282 357.385 241.635 357.381 241.047C357.381 239.642 357.97 238.316 358.445 236.99C359.053 235.161 359.552 233.297 359.939 231.408C360.347 229.886 360.57 228.319 360.603 226.743C360.603 226.584 360.595 226.425 360.579 226.267C360.728 226.163 360.852 226.027 360.943 225.87C361.046 225.637 361.11 225.389 361.133 225.135C361.275 224.123 361.421 223.106 361.564 222.09C361.669 221.362 361.773 220.636 361.876 219.911L363.133 211.101C363.24 210.335 363.35 209.573 363.457 208.81L363.785 206.532C363.821 206.262 363.86 205.992 363.888 205.738C364.853 204.118 363.931 201.958 363.829 200.116ZM353.341 233.099C352.875 231.987 352.44 230.848 352.55 229.649H352.507C352.611 229.28 352.593 228.887 352.456 228.53C352.333 228.24 352.12 227.994 351.989 227.704C351.849 227.35 351.776 226.973 351.776 226.592C351.677 224.178 351.867 221.76 352.341 219.391C352.392 219.113 352.448 218.831 352.499 218.553C352.665 218.457 352.817 218.338 352.95 218.2C353.158 217.962 353.329 217.694 353.46 217.406C353.906 216.504 354.314 215.587 354.689 214.654C354.812 214.353 354.989 214.003 355.294 213.928C355.231 216.25 355.468 218.62 354.527 220.717C354.348 221.055 354.215 221.415 354.132 221.788C354.045 222.38 354.29 222.979 354.203 223.567C354.159 223.873 354.029 224.155 353.977 224.456C353.938 224.604 353.939 224.76 353.979 224.908C354.02 225.056 354.098 225.19 354.207 225.298C354.259 225.335 354.316 225.364 354.377 225.385C354.353 225.544 354.333 225.707 354.317 225.862C354.286 226.187 354.27 226.493 354.25 226.683C354.159 227.655 354.124 228.63 354.144 229.605C354.144 230.657 354.183 231.71 354.167 232.781C354.182 233.089 354.131 233.396 354.017 233.683C353.939 233.83 353.837 233.964 353.717 234.08C353.602 233.722 353.475 233.409 353.341 233.099Z" fill="url(#paint0_linear)"/>
<path d="M322.136 187.035C323.342 186.787 323.753 183.805 323.053 180.375C322.353 176.944 320.808 174.365 319.602 174.613C318.395 174.861 317.985 177.843 318.685 181.274C319.385 184.704 320.93 187.283 322.136 187.035Z" fill="#FBBEBE"/>
<path d="M340.557 314.638C340.233 315.623 340.557 316.853 341.434 317.389C341.79 317.58 342.172 317.714 342.569 317.786C343.105 317.938 343.66 318.015 344.217 318.013C344.901 317.981 345.557 317.711 346.241 317.616C346.32 317.596 346.404 317.607 346.474 317.647C346.509 317.684 346.534 317.728 346.549 317.776C346.564 317.824 346.569 317.875 346.561 317.925C346.569 318.316 346.598 318.705 346.648 319.092C346.649 319.178 346.668 319.262 346.703 319.339C346.738 319.416 346.79 319.485 346.854 319.541C346.953 319.587 347.062 319.606 347.17 319.597H349.313C349.361 317.706 349.155 315.818 348.7 313.983C348.67 313.843 348.617 313.708 348.542 313.586C348.36 313.386 348.121 313.247 347.858 313.189C347.334 312.97 346.768 312.871 346.202 312.899C345.51 312.99 344.933 313.439 344.344 313.812C343.755 314.185 342.952 314.515 342.237 314.324C341.521 314.134 340.924 313.534 340.557 314.638Z" fill="#3F3D56"/>
<path d="M309.098 312.897C308.495 313.545 307.757 314.049 306.935 314.374L306.572 314.549C306.521 314.568 306.478 314.602 306.449 314.648C306.442 314.679 306.442 314.711 306.449 314.742C306.456 314.772 306.469 314.801 306.489 314.826C306.791 315.296 307.238 315.654 307.762 315.846C308.286 316.037 308.858 316.051 309.39 315.886C309.626 315.827 309.844 315.713 310.027 315.553C310.328 315.194 310.501 314.744 310.517 314.275C310.636 313.791 310.616 313.282 310.458 312.81C309.908 311.567 309.706 312.131 309.098 312.897Z" fill="#FBBEBE"/>
<path d="M317.312 317.788C317.325 317.938 317.302 318.089 317.245 318.228C317.059 318.594 316.542 318.574 316.138 318.494C316.077 317.147 315.915 315.807 315.652 314.485C314.885 314.449 314.332 315.179 313.921 315.834L312.861 317.522C312.708 317.812 312.492 318.065 312.229 318.26C312.017 318.376 311.785 318.451 311.545 318.478C309.521 318.816 307.477 318.177 305.524 317.542C305.237 317.464 304.961 317.346 304.706 317.192C304.357 316.935 304.122 316.553 304.048 316.125C303.974 315.697 304.068 315.257 304.311 314.898C305.129 313.786 306.967 314.104 307.987 313.182C307.881 313.831 307.706 314.465 307.465 315.076C308.829 314.87 309.746 313.615 310.845 312.778C311.121 312.542 311.454 312.384 311.81 312.317C312.076 312.295 312.344 312.323 312.6 312.4C313.867 312.721 315.053 313.307 316.079 314.119C316.494 314.449 317.142 314.913 317.324 315.422C317.518 316.029 317.312 317.141 317.312 317.788Z" fill="#3F3D56"/>
<path d="M344.506 186.801C349.017 186.801 352.673 183.128 352.673 178.599C352.673 174.069 349.017 170.396 344.506 170.396C339.995 170.396 336.339 174.069 336.339 178.599C336.339 183.128 339.995 186.801 344.506 186.801Z" fill="#FBBEBE"/>
<path d="M360.595 227.025C360.562 228.593 360.34 230.152 359.935 231.666C359.548 233.547 359.049 235.403 358.44 237.224C357.97 238.546 357.381 239.872 357.385 241.274C357.385 241.857 357.48 242.504 357.124 242.965C356.807 243.288 356.408 243.518 355.97 243.628C355.751 243.686 355.549 243.795 355.38 243.946C355.211 244.097 355.08 244.286 354.997 244.497C354.626 243.94 354.348 243.326 354.175 242.679C353.466 240.498 352.807 238.305 352.198 236.101C352.142 235.974 352.118 235.835 352.128 235.697C352.138 235.559 352.181 235.425 352.254 235.307C352.354 235.219 352.471 235.153 352.597 235.112C353.003 234.946 353.374 234.707 353.692 234.406C353.842 234.272 353.965 234.112 354.056 233.933C354.171 233.649 354.224 233.343 354.21 233.036C354.21 231.984 354.21 230.936 354.183 229.884C354.166 228.912 354.203 227.941 354.293 226.974C354.293 226.783 354.329 226.477 354.361 226.152C354.42 225.529 354.538 224.806 354.874 224.564C355.377 224.226 356.879 224.679 357.448 224.758C358.428 224.893 359.425 225.052 360.381 225.239C360.52 225.824 360.592 226.424 360.595 227.025Z" fill="#3F3D56"/>
<path d="M327.618 187.782C327.302 188.417 326.542 188.723 325.957 189.124L323.953 190.505C323.819 190.627 323.662 190.719 323.492 190.778C323.321 190.837 323.141 190.86 322.961 190.847C322.798 190.786 322.648 190.694 322.521 190.575C322.395 190.455 322.293 190.312 322.222 190.152C322.223 190.142 322.223 190.131 322.222 190.12L321.807 189.422L319.83 186.095C319.61 185.797 319.482 185.441 319.462 185.071C319.462 184.9 319.522 184.741 319.538 184.57C319.543 184.091 319.405 183.621 319.142 183.221C318.984 182.923 318.668 182.677 318.676 182.343C318.661 181.905 318.736 181.468 318.897 181.061C319.104 180.684 319.402 180.365 319.763 180.132C319.949 179.997 320.138 179.87 320.336 179.735C320.441 179.663 320.557 179.609 320.68 179.576C321.008 179.509 321.332 179.783 321.664 179.794C323.091 180.755 323.641 182.573 324.764 183.884C325.396 184.63 325.459 185.202 326.175 185.869C326.29 185.972 326.4 186.083 326.507 186.198C326.648 186.353 326.768 186.527 326.863 186.714C326.993 187.056 327.78 187.457 327.618 187.782Z" fill="#3F3D56"/>
<path d="M341.636 186.805C342.225 188.055 342.683 189.429 342.513 190.802C342.479 191.175 342.361 191.534 342.169 191.854C341.6 192.732 340.406 192.891 339.367 192.942C339.148 192.924 338.927 192.949 338.718 193.018C338.509 193.086 338.316 193.195 338.149 193.339C338.01 193.542 337.942 193.785 337.956 194.031C337.969 194.277 338.064 194.511 338.224 194.697C338.558 195.055 338.973 195.327 339.434 195.491C341.078 196.218 342.853 196.817 344.64 196.65C345.47 196.571 346.277 196.329 347.103 196.206C348.004 196.108 348.909 196.057 349.815 196.055C350.89 196.015 351.961 195.908 353.033 195.801L355.871 195.519C356.026 195.521 356.177 195.466 356.294 195.364C356.503 195.118 356.235 194.757 355.974 194.57C354.468 193.45 352.55 192.68 351.692 190.997C351.297 190.203 351.175 189.258 350.882 188.401C350.59 187.543 350.123 186.769 349.941 185.895C349.844 185.129 349.801 184.357 349.811 183.585C349.821 182.806 349.538 182.052 349.02 181.473C348.455 180.945 347.637 180.81 346.87 180.778C344.98 180.695 342.968 181.147 341.628 182.485C341.268 182.846 340.96 183.279 340.588 183.605C340.217 183.93 339.711 184.026 339.956 184.454C340.201 184.883 340.683 185.149 340.944 185.526C341.208 185.933 341.439 186.361 341.636 186.805Z" fill="#FBBEBE"/>
<path d="M357.737 198.353C357.238 201.41 356.428 204.407 355.318 207.297C354.759 208.602 354.284 209.942 353.894 211.307C353.59 212.538 353.649 213.856 353.369 215.091C353.021 216.627 352.673 218.167 352.392 219.716C351.921 222.08 351.733 224.492 351.831 226.901C351.832 227.281 351.904 227.657 352.044 228.009C352.175 228.295 352.384 228.541 352.507 228.835C352.599 229.093 352.636 229.367 352.617 229.64C352.598 229.914 352.523 230.18 352.396 230.423C352.193 230.877 351.918 231.295 351.582 231.661C347.898 232.765 343.956 232.404 340.118 232.638C336.58 232.852 333.002 233.583 329.516 232.975C329.12 231.387 329.78 229.724 330.346 228.176C331.986 223.678 333.801 218.993 333.508 214.281C333.478 213.731 333.416 213.184 333.322 212.641C332.749 209.302 333.374 205.844 334.374 202.609C334.995 200.592 334.967 198.444 334.825 196.344C334.754 195.662 334.745 194.975 334.797 194.292C334.854 193.594 335.112 192.927 335.54 192.374C335.54 192.346 335.576 192.319 335.595 192.291C335.615 192.263 335.769 192.267 335.892 192.291C335.923 192.304 335.957 192.311 335.991 192.311C336.025 192.311 336.058 192.304 336.09 192.291L336.133 192.263C336.15 192.251 336.17 192.245 336.19 192.245C336.211 192.245 336.231 192.251 336.248 192.263C336.339 192.319 336.39 192.509 336.588 192.545C336.88 192.589 337.174 192.617 337.469 192.628C337.824 192.639 338.177 192.689 338.521 192.779H338.568C339.082 192.866 339.61 192.821 340.102 192.648C340.429 192.566 340.746 192.443 341.043 192.283C341.13 192.188 341.675 192.1 341.786 192.033C342.146 191.814 342.067 190.79 342.142 190.369C342.183 189.947 342.283 189.533 342.438 189.139C342.618 188.847 342.867 188.605 343.162 188.433C343.457 188.26 343.789 188.163 344.13 188.15C344.811 188.134 345.491 188.195 346.158 188.333C347.633 188.543 349.143 188.507 350.59 188.849C351.317 189.019 352.112 189.278 352.78 188.944C352.962 188.988 352.989 189.146 352.989 189.341C352.972 189.526 352.935 189.708 352.878 189.885C352.625 190.981 353.483 191.989 354.274 192.783C354.608 193.157 355.002 193.473 355.44 193.716C355.835 193.899 356.231 193.974 356.626 194.173C356.946 194.344 357.218 194.594 357.417 194.899C357.645 195.249 357.798 195.642 357.867 196.054C357.952 196.822 357.908 197.599 357.737 198.353Z" fill="#3F3D56"/>
<path opacity="0.1" d="M357.737 198.353C357.239 201.41 356.428 204.407 355.318 207.297C354.76 208.603 354.284 209.942 353.895 211.307C353.59 212.538 353.649 213.856 353.369 215.091C353.021 216.627 352.673 218.167 352.392 219.716C352.309 219.763 352.222 219.807 352.135 219.847C351.644 220.083 351.122 220.251 350.586 220.347C349.622 220.464 348.646 220.432 347.692 220.252L342.051 219.493C339.798 219.188 337.398 218.818 335.726 217.286C334.797 216.444 334.188 215.333 333.52 214.261C333.49 213.711 333.427 213.164 333.334 212.621C332.761 209.282 333.386 205.825 334.386 202.589C335.007 200.572 334.979 198.424 334.837 196.324C334.766 195.642 334.757 194.955 334.809 194.272C334.866 193.574 335.124 192.908 335.552 192.354C335.668 192.32 335.785 192.294 335.904 192.275C335.983 192.259 336.064 192.248 336.145 192.243H336.26C336.393 192.244 336.526 192.26 336.655 192.291C336.924 192.377 337.188 192.479 337.446 192.597H337.493C337.832 192.709 338.188 192.76 338.545 192.747C339.066 192.747 339.604 192.664 340.126 192.628C340.77 192.527 341.43 192.646 342 192.966C342.367 193.262 342.716 193.582 343.043 193.922C343.439 194.234 343.884 194.477 344.36 194.641C347.762 195.945 351.538 195.866 354.883 194.419C355.204 194.235 355.569 194.142 355.938 194.149C356.211 194.202 356.47 194.313 356.697 194.474C356.934 194.613 357.168 194.748 357.409 194.871C357.637 195.221 357.79 195.614 357.86 196.027C357.95 196.803 357.909 197.59 357.737 198.353Z" fill="black"/>
<path d="M361.179 195.725C359.605 195.242 358.093 194.576 356.673 193.74C356.445 193.58 356.186 193.469 355.914 193.414C355.543 193.41 355.178 193.503 354.854 193.684C351.511 195.131 347.737 195.211 344.335 193.907C343.86 193.742 343.415 193.499 343.019 193.188C342.69 192.849 342.342 192.529 341.975 192.231C340.675 191.386 338.876 192.378 337.421 191.834C337.163 191.719 336.899 191.617 336.63 191.529C335.48 191.239 334.31 192.39 333.179 192.041C332.759 193.189 332.448 194.375 332.25 195.582C332.09 196.969 332.004 198.363 331.993 199.759C331.993 200.596 331.954 201.434 331.993 202.272C332.133 202.294 332.266 202.346 332.384 202.423C332.503 202.501 332.604 202.602 332.681 202.72C332.733 202.859 332.754 203.007 332.744 203.154C332.733 203.301 332.69 203.445 332.618 203.574C331.792 205.706 330.954 207.861 329.701 209.771C330.584 210.299 331.404 210.928 332.144 211.645C333.527 213.114 334.207 215.174 335.702 216.532C337.386 218.06 339.785 218.433 342.027 218.735L347.668 219.493C348.623 219.673 349.6 219.707 350.565 219.593C351.101 219.495 351.62 219.325 352.111 219.089C352.431 218.954 352.724 218.76 352.973 218.517C353.181 218.279 353.353 218.012 353.483 217.723C353.929 216.826 354.337 215.909 354.712 214.98C354.843 214.65 355.04 214.265 355.396 214.237C357.491 212.34 359.468 210.394 361.563 208.497C362.405 207.796 363.16 206.996 363.812 206.115C364.852 204.57 363.907 202.383 363.812 200.517C363.801 200.04 363.741 199.565 363.634 199.1C363.294 197.746 362.496 196.126 361.179 195.725Z" fill="#006ADC"/>
<path opacity="0.1" d="M327.618 187.781C327.302 188.416 326.543 188.722 325.958 189.123L323.954 190.504C323.82 190.625 323.663 190.718 323.492 190.777C323.322 190.835 323.141 190.859 322.961 190.846C322.798 190.785 322.649 190.692 322.522 190.573C322.395 190.454 322.293 190.31 322.222 190.151C322.222 190.06 322.222 189.96 322.222 189.865C322.207 189.544 322.25 189.222 322.349 188.916C322.545 188.467 322.849 188.074 323.234 187.773C323.978 187.065 324.864 186.524 325.831 186.185C325.982 186.126 326.146 186.109 326.306 186.137C326.367 186.153 326.426 186.179 326.48 186.213C326.621 186.368 326.741 186.541 326.836 186.729C326.994 187.054 327.78 187.455 327.618 187.781Z" fill="black"/>
<path d="M332.338 191.965C331.666 191.933 331.116 191.445 330.626 190.981L329.128 189.583C329.028 189.498 328.94 189.399 328.867 189.289C328.786 189.135 328.725 188.971 328.685 188.801C328.368 187.999 327.87 187.282 327.231 186.705C327.119 186.563 326.97 186.455 326.8 186.395C326.639 186.366 326.473 186.382 326.321 186.443C325.353 186.781 324.468 187.323 323.724 188.031C323.339 188.333 323.035 188.726 322.839 189.174C322.739 189.48 322.696 189.802 322.712 190.123C322.721 191.172 322.956 192.207 323.4 193.156C323.467 193.303 323.542 193.45 323.621 193.593C324.149 194.468 324.772 195.282 325.479 196.019L326.42 197.075C327.345 198.115 328.27 199.155 329.274 200.112C329.634 200.497 330.071 200.803 330.555 201.009C330.798 201.109 331.064 201.139 331.324 201.097C331.583 201.055 331.826 200.942 332.026 200.771C332.215 200.551 332.358 200.294 332.445 200.016C333.053 198.428 333.631 196.777 333.666 195.066C333.675 194.381 333.646 193.695 333.579 193.013C333.52 192.291 333.01 192.009 332.338 191.965Z" fill="#006ADC"/>
<path d="M356.294 247.546C356.271 251.54 355.988 255.528 355.448 259.484C355.369 260.123 355.282 260.762 355.238 261.402C355.108 263.256 355.321 265.118 355.147 266.96C355.056 267.956 354.851 268.945 354.677 269.917C353.904 274.258 353.678 278.68 354.005 283.078C354.55 290.395 352.878 297.715 353.637 305.012C353.729 306.431 353.651 307.856 353.404 309.256C353.262 310.125 353.058 310.982 352.791 311.821C352.214 313.808 351.634 315.793 351.052 317.776C350.983 318.077 350.848 318.359 350.657 318.601C350.455 318.777 350.218 318.907 349.963 318.983C349.707 319.059 349.438 319.079 349.174 319.042C346.893 318.971 344.747 317.982 342.675 317.017C342.437 316.923 342.216 316.789 342.023 316.62C341.592 316.172 341.628 315.465 341.438 314.874C341.248 314.282 340.734 313.726 340.442 313.119C340.201 312.544 340.056 311.934 340.011 311.313C339.747 309.28 339.568 307.239 339.473 305.191C339.323 302.309 341.22 299.657 341.845 296.854C343.031 291.343 342.027 285.436 344.134 280.208C344.798 278.556 343.833 276.555 343.739 274.777C343.704 273.629 343.556 272.488 343.296 271.37C342.901 269.878 342.066 268.472 342.007 266.924C341.964 265.804 342.323 264.713 342.509 263.609C342.756 261.985 342.733 260.331 342.442 258.714C342.232 257.38 341.912 256.046 341.592 254.744L341.521 254.891C340.558 256.781 339.729 258.738 339.042 260.747C338.726 261.719 338.449 262.712 338.054 263.657C337.73 264.451 337.331 265.177 336.939 265.923C335.536 268.555 334.314 271.281 333.283 274.082C332.792 275.455 332.362 276.861 331.935 278.238L329.005 287.766C328.215 290.272 327.349 292.693 326.574 295.194C325.479 298.767 324.384 302.309 323.111 305.802C321.925 309.117 320.514 312.551 320.937 316.053C319.847 316.567 318.65 316.811 317.446 316.763C315.409 316.582 313.41 316.095 311.517 315.318C310.762 315.036 309.979 314.719 309.469 314.096C308.591 313.02 308.809 311.444 309.074 310.074C309.174 309.457 309.332 308.85 309.548 308.264C309.849 307.533 310.339 306.886 310.647 306.163C311.268 304.778 311.307 303.21 311.552 301.705C311.797 300.2 312.343 298.612 313.624 297.795C313.841 295.151 314.924 292.542 315.521 289.958C315.972 288.001 316.122 285.988 316.478 284.003C316.834 282.018 317.407 280.033 318.601 278.425C318.507 276.767 318.879 275.116 319.676 273.661C319.868 273.341 320.026 273.002 320.146 272.649C320.22 272.304 320.262 271.953 320.273 271.601C320.404 270.221 320.991 268.925 321.941 267.92C321.546 266.471 322.095 264.959 322.589 263.553C323.212 261.76 323.493 259.865 323.42 257.968C323.358 257.438 323.384 256.901 323.495 256.38C323.605 255.983 323.823 255.645 323.949 255.264C324.062 254.797 324.122 254.319 324.127 253.839C324.281 251.691 325.147 249.666 326.104 247.749C326.673 246.629 326.191 245.109 326.309 243.862C326.515 241.79 326.74 239.646 327.764 237.84C327.954 237.498 328.159 237.173 328.329 236.819C328.535 236.315 328.647 235.776 328.657 235.231C328.693 234.322 328.82 233.568 328.495 232.722C330.61 230.956 333.496 230.459 336.247 230.34C338.999 230.221 341.782 230.471 344.474 229.884C345.264 229.705 346.055 229.459 346.889 229.34C348.783 229.062 350.704 229.495 352.574 229.923C352.443 231.114 352.878 232.258 353.364 233.365C355.263 237.852 356.258 242.672 356.294 247.546Z" fill="#33313F"/>
<path opacity="0.1" d="M346.985 248.455L342.443 258.714C342.233 257.38 341.913 256.046 341.593 254.744L341.521 254.89V254.676L343.996 249.209L346.985 248.455Z" fill="black"/>
<path opacity="0.1" d="M360.595 227.025C360.333 227.222 360.02 227.339 359.694 227.363C359.193 227.381 358.693 227.312 358.215 227.16L354.658 226.267C354.546 226.24 354.438 226.201 354.333 226.152C354.393 225.529 354.511 224.806 354.847 224.564C355.349 224.226 356.852 224.679 357.421 224.758C358.401 224.893 359.397 225.052 360.354 225.239C360.502 225.823 360.583 226.423 360.595 227.025Z" fill="black"/>
<path d="M363.603 203.403C363.678 203.733 363.785 204.058 363.848 204.392C363.955 205.21 363.927 206.04 363.765 206.849L363.441 209.12L363.117 211.403L361.864 220.188L361.556 222.364L361.121 225.401C361.1 225.654 361.036 225.901 360.931 226.131C360.801 226.347 360.621 226.527 360.405 226.656C360.189 226.784 359.944 226.856 359.694 226.866C359.193 226.882 358.693 226.813 358.215 226.663L354.657 225.766C354.501 225.738 354.353 225.677 354.223 225.588C354.114 225.481 354.035 225.347 353.995 225.2C353.955 225.053 353.954 224.897 353.993 224.75C354.045 224.448 354.175 224.166 354.219 223.865C354.306 223.277 354.06 222.674 354.147 222.09C354.233 221.718 354.366 221.359 354.543 221.022C355.729 218.39 355.041 215.317 355.444 212.459C355.807 210.209 356.753 208.095 358.187 206.329C359.073 205.214 360.089 204.212 361.216 203.344C361.658 202.998 362.362 202.288 362.919 202.153C363.635 202.002 363.485 202.903 363.603 203.403Z" fill="#006ADC"/>
<path d="M336.678 169.206C336.418 170.039 336.825 170.957 336.639 171.806C336.437 172.743 335.56 173.394 335.311 174.335C334.915 175.768 336.125 177.074 337.011 178.265C340.292 182.688 339.861 188.81 338.738 194.205C337.835 198.533 336.585 202.782 335.002 206.909C334.508 208.191 333.963 209.493 332.99 210.454C334.809 209.93 336.742 209.402 338.564 209.91C340.873 210.553 342.865 212.804 345.205 212.292C346.613 211.979 347.601 210.724 348.866 210.029C351.238 208.747 354.096 209.553 356.741 209.966C357.31 210.101 357.907 210.071 358.46 209.878C358.883 209.65 359.242 209.318 359.504 208.914C360.684 207.393 361.391 205.556 361.536 203.634C361.598 202.676 361.457 201.717 361.123 200.818C360.788 199.919 360.267 199.102 359.595 198.421C359.033 197.889 358.361 197.46 357.93 196.833C357.511 196.1 357.287 195.272 357.278 194.427C356.966 190.06 358.025 185.602 356.934 181.378C356.539 179.873 355.895 178.432 355.721 176.892C355.503 174.974 356.021 172.922 355.262 171.167C354.665 169.773 353.349 168.785 351.93 168.277C350.51 167.769 348.992 167.626 347.486 167.483C345.32 167.3 337.584 166.367 336.678 169.206Z" fill="#33313F"/>
<g opacity="0.1">
<path opacity="0.1" d="M338.738 194.203C337.839 198.514 336.596 202.745 335.022 206.856C335.295 206.312 335.524 205.74 335.741 205.172C337.326 201.046 338.576 196.798 339.477 192.468C340.604 187.069 341.035 180.955 337.754 176.529C336.963 175.473 335.947 174.329 335.983 173.091C335.69 173.465 335.463 173.887 335.311 174.337C334.915 175.771 336.125 177.077 337.01 178.268C340.291 182.686 339.86 188.808 338.738 194.203Z" fill="black"/>
<path opacity="0.1" d="M336.686 171.404C337.004 171.009 337.24 170.554 337.382 170.067C337.443 169.477 337.427 168.882 337.335 168.296C337.03 168.526 336.802 168.843 336.678 169.205C336.445 169.908 336.714 170.67 336.686 171.404Z" fill="black"/>
<path opacity="0.1" d="M360.247 207.166C359.985 207.569 359.626 207.9 359.203 208.127C358.651 208.323 358.053 208.353 357.484 208.214C354.839 207.817 351.949 206.999 349.609 208.281C348.34 208.972 347.356 210.227 345.945 210.544C343.608 211.068 341.616 208.817 339.307 208.162C337.671 207.706 335.947 208.083 334.299 208.559C333.971 209.261 333.529 209.902 332.99 210.457C334.809 209.933 336.742 209.405 338.564 209.913C340.873 210.556 342.865 212.807 345.205 212.295C346.613 211.982 347.601 210.727 348.866 210.032C351.238 208.75 354.096 209.556 356.741 209.969C357.31 210.104 357.907 210.073 358.46 209.881C358.883 209.653 359.242 209.321 359.504 208.917C360.22 207.968 360.773 206.905 361.14 205.772C360.876 206.258 360.578 206.724 360.247 207.166Z" fill="black"/>
</g>
</g>
<defs>
<linearGradient id="paint0_linear" x1="303.836" y1="243.131" x2="364.319" y2="243.131" gradientUnits="userSpaceOnUse">
<stop stop-color="#808080" stop-opacity="0.25"/>
<stop offset="0.54" stop-color="#808080" stop-opacity="0.12"/>
<stop offset="1" stop-color="#808080" stop-opacity="0.1"/>
</linearGradient>
<clipPath id="clip0">
<rect width="461" height="319.622" fill="white"/>
</clipPath>
</defs>
</svg>
