<svg width="402" height="326" fill="none" xmlns="http://www.w3.org/2000/svg"><g clip-path="url(#a)"><path d="M270.84 299.38a412.15 412.15 0 0 1-57.77-3.92 340.8 340.8 0 0 1-13.54-2.2c-19.92-3.64-38.71-8.96-55.84-15.8-57.01-22.8-92.86-17.96-112.89-9.87-21.67 8.75-30 23.06-30.09 23.2l-.71-.4c.08-.14 8.52-14.67 30.44-23.54 12.85-5.2 27.75-7.47 44.3-6.75 20.66.9 43.96 6.48 69.25 16.59 17.08 6.83 35.82 12.14 55.69 15.77A342.07 342.07 0 0 0 215 294.9c50.27 6.91 98.76 2.74 130.6-1.97 26.23-3.89 43.11-8.43 43.28-8.48l.22.8c-.17.04-17.1 4.6-43.39 8.49a517.05 517.05 0 0 1-74.87 5.63ZM270.9 64.13c-14.45 0-28.52-.67-42.1-2.02-31.2-3.11-59.83-9.81-85.11-19.92-57.01-22.8-92.86-17.95-112.89-9.86C9.13 41.08.8 55.39.71 55.53l-.71-.4c.08-.15 8.52-14.67 30.44-23.54 12.85-5.2 27.75-7.47 44.3-6.75 20.66.89 43.96 6.47 69.25 16.59 57.1 22.83 120.64 23.73 163.88 20.46 46.88-3.54 80.68-12.6 81.01-12.7l.22.8c-.34.1-34.2 9.17-81.15 12.72a492.2 492.2 0 0 1-37.05 1.42Z" fill="#3F3D56"/><path d="M268.77 3.96s-16.11-5.75-26.47 17.27c-10.37 23.02-26.49 48.34-26.49 48.34l9.22 2.3s2.3-16.11 8.06-18.41l-2.3 20.72s69.07 24.17 100.15-2.3l-1.15-8.06s4.6 1.15 4.6 8.05l3.46-3.45s-3.45-6.9-13.81-16.11c-6.8-6.05-9.14-17.55-9.95-24.73-.6-6-3-11.69-6.89-16.3-6.88-7.98-19.43-16.46-38.43-7.32Z" fill="#2F2E41"/><path d="M366.6 134.23s30.33 25.86 34.79 41.03c4.46 15.16-16.95 16.94-16.95 16.94l-46.39 4.46s-.89 21.4-8.92 24.08c-8.03 2.68-1.63-35.4-1.63-35.4l45.34-12.76-20.51-21.4 14.27-16.95ZM224.76 160.98l-3.57 47.27-19.62 80.27s-17.85 36.57-2.68 37.46c15.16.9 14.27-34.78 14.27-34.78l28.55-75.81 2.67-51.73-19.62-2.68ZM274.71 78.04a29.44 29.44 0 1 0 .01-58.87 29.44 29.44 0 0 0 0 58.87Z" fill="#FBBEBE"/><path d="M261.33 62.88s10.7 38.35-6.24 48.16c-16.95 9.81 42.82 16.94 58.88-12.49 0 0-28.55-9.8-20.52-35.67h-32.12Z" fill="#FBBEBE"/><path d="m240.82 115.5-5.36-1.78s-10.7 4.45-10.7 12.48c0 8.03-1.78 40.14-1.78 40.14l24.08 2.67-6.24-53.51Z" fill="#006ADC"/><path d="M345.65 293.34c-32.93 4.88-80.92 8.82-130.7 1.97v-1.44c0-2.78.1-5.53.31-8.25 2.56-33.5 19.81-61.42 26.5-71.1a99.29 99.29 0 0 1 2.62-3.64s51.74-.84 78.5 9.86c1.3.54 2.48 1.32 3.49 2.28 9.98 9.2 15.84 39.1 19.28 70.32Z" fill="#2F2E41"/><path d="M326.45 103.01s11.6-6.24 23.2 7.14l23.2 26.75L355 156.53 321.1 136l5.35-33Z" fill="#006ADC"/><path d="M242.9 48.8c10.43-7.55 18.86-16.23 24.44-26.56 0 0 19.13 21.24 30.81 22.3 11.7 1.07 1.07-25.49 1.07-25.49l-21.25-5.31-20.19 2.12-15.94 10.63 1.06 22.3Z" fill="#2F2E41"/><path d="M309.5 96.77s-12.48 19.73-49.95 10.31l-21.26 5.86-2.83.78s2.68 53.5 9.82 63.32c7.13 9.81 5.35 15.16 3.56 16.05-1.78.9-6.24-.89-3.56 3.57 2.67 4.46 6.24 1.78 2.67 4.46-3.56 2.68-5.35 12.49-5.35 12.49l83.85 10.7s-2.67-34.78 4.47-52.62c7.13-17.84 8.92-24.97 8.92-24.97l-5.36-44.6-24.97-5.35Z" fill="#006ADC"/><path d="M135.23 79.31H20.44v143.45h114.79V79.31Z" fill="#E6E6E6"/><path d="M53.04 91.4h-24.6v16.4h24.6V91.4ZM123.75 123.37h-95.1v5.74h95.1v-5.74ZM123.75 138.53h-95.1v5.74h95.1v-5.74ZM123.75 153.7h-95.1v5.74h95.1v-5.74ZM123.75 168.87h-95.1v5.73h95.1v-5.73ZM123.75 184.03h-95.1v5.74h95.1v-5.74Z" fill="#fff"/><path d="M157.78 222.56a22.47 22.47 0 1 1-44.95-.04 22.47 22.47 0 0 1 44.95.04Z" fill="#006ADC"/><path d="m154.3 210.52-22.2 22.18c-1.4-2.16-9.17-12.2-9.17-12.2 1-1 2.06-1.94 3.18-2.8l6.45 8.6 19.13-19.14a22.47 22.47 0 0 1 2.6 3.36Z" fill="#fff"/></g><defs><clipPath id="a"><path fill="#fff" d="M0 0h402v326H0z"/></clipPath></defs></svg>