<svg width="461" height="320" fill="none" xmlns="http://www.w3.org/2000/svg"><g clip-path="url(#a)"><path opacity=".1" d="M260.75 43.51c-29.54.04-57.99-8.37-85.2-17.71-27.2-9.35-54.2-19.81-83.2-24.25C73.72-1.3 52.5-1.04 37.93 9.31c-14.04 9.96-18.1 26.44-20.06 41.66-1.47 11.46-2.15 23.48 3.37 33.95 3.83 7.28 10.4 13.27 15.02 20.2 16.14 24.12 6.44 54.92-9.25 79.6-7.36 11.57-15.98 22.67-21.54 34.9-5.56 12.25-7.84 26.13-2.17 38.2 5.62 11.98 18.32 20.67 31.94 26.6 27.68 12.08 59.9 14.67 91.25 15.67 69.4 2.2 138.93-2.3 208.28-6.81 25.67-1.67 51.44-3.35 76.58-8.18 13.95-2.68 28.32-6.66 38.22-15.38 12.56-11.06 15.12-29.14 5.99-42.13-15.33-21.78-55.74-25.9-66.73-49.47-6.06-12.97-.84-27.86 6.86-40.37 16.5-26.84 44.92-50.88 45.4-80.9.33-20.62-14.45-40.73-36.52-49.69-23.13-9.38-54.67-6.97-70.88 10.52-16.67 18.02-46.83 25.8-72.93 25.83Z" fill="#006ADC"/><path d="M392.36 256.2s-4.86-3.21-9.68-.92c0 0 1.49 2.87 7.58 2.6l2.1-1.67ZM392.98 256.38s1.47 5.65-2.24 9.5c0 0-2.22-2.33 0-8.04l2.24-1.46ZM399.01 250.95s-.36-4.8-11.17-3.2c0 0-.05 3.1 3.75 4.56 3.8 1.47 5.53.23 7.43-1.36ZM399.7 250.92s4.56 1.47.49 11.66c0 0-3.02-.68-3.56-4.73-.54-4.06 1.06-5.45 3.06-6.93ZM405.8 244.1s.62-7.91-10.43-7.1c0 0-.79 7.14 8.48 9l1.95-1.9ZM413.1 235.17s-1.51-8.97-12.56-6.3c0 0-.04 7.75 10.76 8.43l1.8-2.13ZM418.44 225.93s-2.54-8.73-13.48-6.12c0 0 2.6 7.86 12.75 7.73l.73-1.6ZM423.5 216.91s-2.47-9.06-13.04-6.35c0 0 3.53 8.61 12.35 7.89l.7-1.54ZM426.77 208.35s-1.9-11.09-11.76-8.63c0 0 2.87 10.08 11.04 10.24l.72-1.61ZM429.83 198s-2.29-11.18-12.25-7.94c0 0 3.9 10.56 11.55 9.47l.7-1.53ZM431.71 188.37s-3.63-11.18-11.33-10.88c0 0 3.71 11.8 10.7 13.1l.63-2.22ZM432.93 178.96s-3.95-13.45-10.22-12.41c0 0 2.74 10.28 10 14.51l.22-2.1ZM433.62 167.75s-3.7-11.2-9.88-11.66c0 0 2.52 11.03 9.76 14.57l.12-2.91ZM434.37 157.28s-4.62-11.22-8.7-11.47c0 0 2 11.05 8.3 13.32l.4-1.85ZM434.88 147.55s-2.84-12.18-6.93-13.2c0 0 .56 9.97 6.52 14.11l.4-.91ZM436.42 134.8s-2.99-9.72-6.3-11.2c0 0 .65 11.46 5.54 13.57l.76-2.37ZM437.7 126.46l.6-17.13s-6.19 12.91-1.05 20.14l.45-3ZM442.47 109.42s4.46-12.5 5.54-13.2c0 0-8.74 8.11-7.89 18.55l2.35-5.34ZM406.1 244.04s7.83-1.03 7.6 10.1c0 0-7.08 1.15-9.4-8.05l1.8-2.05ZM413.47 234.87s9.05-.03 8.3 11.35c0 0-7.6 1.37-10.1-9.2l1.8-2.16ZM418.52 226.67s8.22-3.87 13.48 6.12c0 0-7.59 3.22-14.2-4.5l.72-1.62ZM423.69 217s8.41-4.12 13.35 5.64c0 0-8.76 3.03-14.05-4.1l.7-1.54Z" fill="#006ADC"/><path d="M426.66 208.59s8.1-7.77 14.57.09c0 0-8.28 6.39-14.94 1.64l.37-1.73ZM429.38 197.73s8.14-7.94 14.56.37c0 0-9.15 6.52-14.86 1.3l.3-1.67ZM430.9 188.05s6.27-9.93 13.67-7.71c0 0-6.52 10.5-13.6 10.04l-.07-2.33ZM432.75 178.9s6.32-12.5 12.3-10.32c0 0-4.55 9.6-12.47 12.43l.17-2.1ZM433.19 167.1s6.5-9.84 12.6-8.64c0 0-5.33 9.98-13.24 11.48l.64-2.84ZM433.7 157.07s5.03-11.04 9.13-11.12c0 0-2.42 10.96-8.8 12.99l-.34-1.87ZM434.68 147.31s5.6-11.18 9.81-11.2c0 0-2.86 9.56-9.62 12.18l-.19-.98ZM435.52 135.5s4.2-9.25 7.66-10.3c0 0-2.1 11.27-7.2 12.75l-.46-2.45Z" fill="#006ADC"/><path d="m438.2 126.12 9.36-14.32s-2.4 14.13-10.73 17.07l1.36-2.75ZM444.62 110.58s10.89-7.54 11.28-8.76c0 0-5.53 10.56-15.81 12.43l4.53-3.67ZM445.27 107.19s12.5-12.07 15.7-12.06c0 0-10.32.48-16 11.41l.3.65Z" fill="#006ADC"/><path d="m435.64 137.29.46.06c2.35-18.46 5.77-29.38 9.64-30.72l-.15-.44c-4.1 1.43-7.55 12.19-9.94 31.1Z" fill="#444053"/><path d="m432.19 181.43.69.05c.14-1.72.25-3.48.33-5.24.66-15.28 1.67-29.31 3-39.83l-.39-.5c-1.34 10.55-2.64 25-3.3 40.3-.07 1.75-.18 3.5-.33 5.22Z" fill="#444053"/><path d="M379.53 265.01c.12-.05 12.23-5.48 24.8-18.43a100.09 100.09 0 0 0 18.12-25.8c5.81-11.89 9.36-26.49 10.54-40.67l-.71.33c-2.67 31.84-17.1 53.6-28.58 65.45-12.44 12.84-24.42 18.21-24.54 18.26l.37.86Z" fill="#444053"/><path d="M410.89 33.84H31.04a3.38 3.38 0 0 0-3.38 3.4v9.9h386.61v-9.9a3.4 3.4 0 0 0-3.38-3.4Z" fill="#3F3D56"/><path d="M27.66 47.14v222.8a6.87 6.87 0 0 0 6.82 6.86h372.97a6.8 6.8 0 0 0 6.82-6.85V47.14H27.66Z" fill="#fff"/><path opacity=".8" d="M33.78 41.97a1.58 1.58 0 1 0 0-3.16 1.58 1.58 0 0 0 0 3.16Z" fill="#FA5959"/><path opacity=".8" d="M38.13 41.97a1.58 1.58 0 1 0 0-3.16 1.58 1.58 0 0 0 0 3.16Z" fill="#FED253"/><path opacity=".8" d="M42.48 41.97a1.58 1.58 0 1 0-.01-3.16 1.58 1.58 0 0 0 0 3.16Z" fill="#8CCF4D"/><path opacity=".05" d="M374.3 84.29H63.6v137.2h310.7V84.3Z" fill="#000"/><path d="M371.94 85.33H65.97V219.5h305.97V85.33Z" fill="#3F3D56"/><path d="M149.38 119.86c-6.02 0-11.9 1.8-16.91 5.15-5.01 3.36-8.91 8.14-11.22 13.72a30.7 30.7 0 0 0 6.6 33.32 30.4 30.4 0 0 0 33.18 6.62 30.47 30.47 0 0 0 13.66-11.25 30.67 30.67 0 0 0-3.79-38.6 30.42 30.42 0 0 0-21.52-8.96Zm5.46 31.3v14.48h-10.77v-14.47a8.95 8.95 0 0 1 5.39-16.1 8.9 8.9 0 0 1 8.45 6.1 8.99 8.99 0 0 1-3.07 10Z" fill="#006ADC"/><path opacity=".05" d="M149.38 119.86c-6.02 0-11.9 1.8-16.91 5.15-5.01 3.36-8.91 8.14-11.22 13.72a30.7 30.7 0 0 0 6.6 33.32 30.4 30.4 0 0 0 33.18 6.62 30.47 30.47 0 0 0 13.66-11.25 30.67 30.67 0 0 0-3.79-38.6 30.42 30.42 0 0 0-21.52-8.96Zm5.46 31.3v14.48h-10.77v-14.47a8.95 8.95 0 0 1 5.39-16.1 8.9 8.9 0 0 1 8.45 6.1 8.99 8.99 0 0 1-3.07 10Z" fill="#000"/><path d="M149.38 111.13c-7.74 0-15.31 2.3-21.75 6.62a39.27 39.27 0 0 0-14.41 17.64 39.46 39.46 0 0 0 8.48 42.83 39.08 39.08 0 0 0 42.65 8.52 39.17 39.17 0 0 0 17.57-14.47 39.42 39.42 0 0 0-4.87-49.63 39.05 39.05 0 0 0-27.67-11.51Zm7.01 40.25v18.6h-13.83v-18.6a11.52 11.52 0 0 1 6.91-20.7 11.43 11.43 0 0 1 10.87 7.85 11.56 11.56 0 0 1-3.95 12.85Z" fill="#006ADC"/><path d="M331.22 145.27h-126.5v13.5h126.5v-13.5Z" fill="#fff"/><path d="M331.22 169.89h-27.28v13.5h27.28v-13.5ZM217.17 151.82h-2.29l2.04-2.04a.2.2 0 0 0 .06-.14.2.2 0 0 0-.28-.18.19.19 0 0 0-.06.04l-2.04 2.04v-2.3a.2.2 0 0 0-.2-.2.2.2 0 0 0-.2.2v2.3l-2.02-2.05a.2.2 0 0 0-.15-.06.19.19 0 0 0-.14.06.2.2 0 0 0 0 .28l2.04 2.04h-2.3a.2.2 0 0 0-.19.2.2.2 0 0 0 .2.2h2.3l-2.04 2.04a.2.2 0 0 0 0 .28.2.2 0 0 0 .28 0l2.03-2.04v2.3c0 .05.02.1.05.14a.2.2 0 0 0 .34-.14v-2.3l2.04 2.04a.2.2 0 0 0 .28 0 .2.2 0 0 0 .06-.14.2.2 0 0 0-.06-.14l-2.04-2.04h2.3a.2.2 0 0 0 .19-.2.2.2 0 0 0-.2-.19ZM225.47 151.82h-2.29l2.04-2.04a.2.2 0 0 0 .06-.14.2.2 0 0 0-.28-.18.19.19 0 0 0-.06.04l-2.04 2.04v-2.3a.2.2 0 0 0-.2-.2.2.2 0 0 0-.2.2v2.3l-2.02-2.05a.19.19 0 0 0-.14-.06.19.19 0 0 0-.14.06.2.2 0 0 0-.06.14c0 .05.02.1.06.14l2.03 2.04h-2.3a.2.2 0 0 0-.19.2.2.2 0 0 0 .2.2h2.3l-2.04 2.04a.2.2 0 0 0-.06.14c0 .05.02.1.06.14a.2.2 0 0 0 .28 0l2.03-2.04v2.3a.2.2 0 0 0 .2.2.2.2 0 0 0 .2-.2v-2.3l2.03 2.04a.2.2 0 0 0 .28 0 .2.2 0 0 0 .06-.14.2.2 0 0 0-.06-.14l-2.04-2.04h2.3a.2.2 0 0 0 .2-.2.2.2 0 0 0-.2-.19ZM233.78 151.82h-2.3l2.04-2.04a.2.2 0 0 0 0-.28.19.19 0 0 0-.14-.06.2.2 0 0 0-.14.06l-2.03 2.04v-2.3a.2.2 0 0 0-.06-.14.2.2 0 0 0-.14-.06.2.2 0 0 0-.2.2v2.3l-2.03-2.05a.19.19 0 0 0-.14-.06.19.19 0 0 0-.14.06.2.2 0 0 0-.06.14c0 .05.02.1.06.14l2.03 2.04h-2.29a.2.2 0 0 0-.2.2.2.2 0 0 0 .2.2h2.3l-2.04 2.04a.2.2 0 0 0-.06.14c0 .05.02.1.06.14a.2.2 0 0 0 .28 0l2.03-2.04v2.3a.2.2 0 0 0 .2.2.2.2 0 0 0 .14-.06.2.2 0 0 0 .06-.14v-2.3l2.03 2.04a.2.2 0 0 0 .28 0 .2.2 0 0 0 0-.28l-2.03-2.04h2.28a.2.2 0 0 0 .2-.2.2.2 0 0 0-.2-.19ZM242.08 151.82h-2.3l2.04-2.04a.2.2 0 0 0 .06-.14.2.2 0 0 0-.27-.18.19.19 0 0 0-.07.04l-2.03 2.04v-2.3a.2.2 0 0 0-.2-.2.2.2 0 0 0-.2.2v2.3l-2.03-2.05a.19.19 0 0 0-.14-.06.19.19 0 0 0-.14.06.2.2 0 0 0-.06.14c0 .05.02.1.06.14l2.04 2.04h-2.3a.2.2 0 0 0-.2.2.2.2 0 0 0 .2.2h2.3l-2.04 2.04a.2.2 0 0 0-.06.14c0 .05.02.1.06.14a.2.2 0 0 0 .28 0l2.03-2.04v2.3a.2.2 0 0 0 .2.2.2.2 0 0 0 .2-.2v-2.3l2.03 2.04a.2.2 0 0 0 .28 0 .2.2 0 0 0 .06-.14.2.2 0 0 0-.06-.14l-2.03-2.04h2.29a.2.2 0 0 0 .2-.2.2.2 0 0 0-.2-.19ZM250.38 151.82h-2.29l2.04-2.04a.2.2 0 0 0 .05-.14.2.2 0 0 0-.05-.14.2.2 0 0 0-.14-.06.19.19 0 0 0-.14.06l-2.04 2.04v-2.3a.2.2 0 0 0-.2-.2.2.2 0 0 0-.2.2v2.3l-2.03-2.05a.2.2 0 0 0-.14-.06.19.19 0 0 0-.14.06.2.2 0 0 0 0 .28l2.04 2.04h-2.3a.2.2 0 0 0-.2.2.2.2 0 0 0 .2.2h2.3l-2.04 2.04a.2.2 0 0 0 0 .28.2.2 0 0 0 .28 0l2.03-2.04v2.3c0 .05.02.1.06.14a.2.2 0 0 0 .34-.14v-2.3l2.03 2.04a.2.2 0 0 0 .29 0 .2.2 0 0 0 .05-.14.2.2 0 0 0-.05-.14l-2.04-2.04h2.29a.2.2 0 0 0 .2-.2.2.2 0 0 0-.2-.19ZM258.68 151.82h-2.29l2.04-2.04a.2.2 0 0 0 0-.28.2.2 0 0 0-.14-.06.19.19 0 0 0-.14.06l-2.04 2.04v-2.3a.2.2 0 0 0-.2-.2.2.2 0 0 0-.2.2v2.3l-2.03-2.05a.19.19 0 0 0-.14-.06.2.2 0 0 0-.2.2c0 .05.03.1.06.14l2.04 2.04h-2.3a.2.2 0 0 0-.13.34.2.2 0 0 0 .14.06h2.29l-2.04 2.04a.2.2 0 0 0 0 .28.2.2 0 0 0 .28 0l2.03-2.04v2.3a.2.2 0 0 0 .2.2.2.2 0 0 0 .2-.2v-2.3l2.04 2.04a.2.2 0 0 0 .28 0 .2.2 0 0 0 0-.28l-2.04-2.04h2.29a.2.2 0 0 0 .14-.06.2.2 0 0 0 .06-.14.2.2 0 0 0-.2-.19ZM266.98 151.82h-2.29l2.04-2.04a.2.2 0 0 0 .06-.14.2.2 0 0 0-.06-.14.2.2 0 0 0-.14-.06.19.19 0 0 0-.14.06l-2.04 2.04v-2.3a.2.2 0 0 0-.2-.2.2.2 0 0 0-.2.2v2.3L262 149.5a.2.2 0 0 0-.15-.06.19.19 0 0 0-.14.06.2.2 0 0 0 0 .28l2.04 2.04h-2.3a.2.2 0 0 0-.2.2c.01.05.03.1.07.14a.2.2 0 0 0 .14.06h2.29l-2.04 2.04a.2.2 0 0 0 0 .28.2.2 0 0 0 .29 0l2.03-2.04v2.3a.2.2 0 0 0 .2.2.2.2 0 0 0 .2-.2v-2.3l2.03 2.04a.2.2 0 0 0 .28 0 .2.2 0 0 0 .06-.14.2.2 0 0 0-.06-.14l-2.04-2.04h2.3a.2.2 0 0 0 .19-.2.2.2 0 0 0-.2-.19ZM275.28 151.82H273l2.04-2.04a.2.2 0 0 0 0-.28.2.2 0 0 0-.14-.06.19.19 0 0 0-.14.06l-2.04 2.04v-2.3a.2.2 0 0 0-.2-.2.2.2 0 0 0-.2.2v2.3l-2.02-2.05a.19.19 0 0 0-.14-.06.2.2 0 0 0-.14.06.2.2 0 0 0-.06.14c0 .05.02.1.06.14l2.03 2.04h-2.3a.2.2 0 0 0-.13.34.2.2 0 0 0 .14.06h2.3l-2.05 2.04a.2.2 0 0 0-.05.14c0 .05.02.1.06.14a.2.2 0 0 0 .28 0l2.03-2.04v2.3a.2.2 0 0 0 .2.2.2.2 0 0 0 .2-.2v-2.3l2.03 2.04a.2.2 0 0 0 .28 0 .2.2 0 0 0 0-.28l-2.04-2.04h2.3a.2.2 0 0 0 .13-.06.2.2 0 0 0 .06-.14.2.2 0 0 0-.2-.19ZM283.58 151.82h-2.28l2.03-2.04a.2.2 0 0 0 .06-.14.2.2 0 0 0-.27-.18.2.2 0 0 0-.07.04l-2.04 2.04v-2.3a.2.2 0 0 0-.2-.2.2.2 0 0 0-.2.2v2.3l-2.02-2.05a.19.19 0 0 0-.14-.06.19.19 0 0 0-.14.06.2.2 0 0 0-.06.14c0 .05.02.1.06.14l2.03 2.04h-2.29a.2.2 0 0 0-.2.2.2.2 0 0 0 .2.2h2.3l-2.04 2.04a.2.2 0 0 0-.06.14c0 .05.02.1.06.14a.2.2 0 0 0 .28 0l2.03-2.04v2.3a.2.2 0 0 0 .2.2.2.2 0 0 0 .2-.2v-2.3l2.03 2.04a.2.2 0 0 0 .28 0 .2.2 0 0 0 .06-.14.2.2 0 0 0-.06-.14l-2.03-2.04h2.28a.2.2 0 0 0 .2-.2.2.2 0 0 0-.2-.19ZM291.89 151.82h-2.3l2.04-2.04a.2.2 0 0 0 .06-.14.2.2 0 0 0-.27-.18.19.19 0 0 0-.07.04l-2.03 2.04v-2.3a.2.2 0 0 0-.2-.2.2.2 0 0 0-.2.2v2.3l-2.03-2.05a.2.2 0 0 0-.14-.06.19.19 0 0 0-.14.06.2.2 0 0 0-.06.14c0 .05.02.1.06.14l2.03 2.04h-2.29a.2.2 0 0 0-.2.2.2.2 0 0 0 .2.2h2.3l-2.04 2.04a.2.2 0 0 0-.06.14c0 .05.02.1.06.14a.2.2 0 0 0 .28 0l2.03-2.04v2.3a.2.2 0 0 0 .2.2.2.2 0 0 0 .2-.2v-2.3l2.03 2.04a.2.2 0 0 0 .28 0 .2.2 0 0 0 .06-.14.2.2 0 0 0-.06-.14l-2.03-2.04h2.29a.2.2 0 0 0 .2-.2.2.2 0 0 0-.2-.19ZM300.19 151.82h-2.3l2.05-2.04a.2.2 0 0 0 .05-.14.2.2 0 0 0-.06-.14.2.2 0 0 0-.14-.06.19.19 0 0 0-.14.06l-2.03 2.04v-2.3a.2.2 0 0 0-.2-.2.2.2 0 0 0-.2.2v2.3l-2.03-2.05a.2.2 0 0 0-.06-.05.2.2 0 0 0-.16 0 .2.2 0 0 0-.12.19c0 .05.02.1.06.14l2.04 2.04h-2.3a.2.2 0 0 0-.2.2c0 .05.03.1.06.14a.2.2 0 0 0 .14.06h2.3l-2.04 2.04a.2.2 0 0 0 0 .28.2.2 0 0 0 .28 0l2.03-2.04v2.3a.2.2 0 0 0 .2.2.2.2 0 0 0 .2-.2v-2.3l2.03 2.04a.2.2 0 0 0 .29 0 .2.2 0 0 0 .05-.14.2.2 0 0 0-.06-.14l-2.03-2.04h2.29a.2.2 0 0 0 .2-.2.2.2 0 0 0-.2-.19Z" fill="#006ADC"/><path d="M363.83 200.12a7.2 7.2 0 0 0-.18-1.43c-.35-1.34-1.16-2.97-2.48-3.37a20.7 20.7 0 0 1-3.93-1.67c-.23-4.25.74-8.6-.32-12.73-.4-1.51-1.05-2.96-1.22-4.5-.22-1.92.3-3.97-.46-5.74a5.65 5.65 0 0 0-3.34-2.9c-1.42-.52-2.95-.66-4.46-.8-1.9-.15-8.04-.88-10.18.82a1.68 1.68 0 0 0-.52.6l-.02.04a1.72 1.72 0 0 0-.18.56v.71c.03.36.08.71.08 1.07 0 .17 0 .35-.04.52-.14.47-.36.9-.66 1.29l-.07.1-.13.19-.1.16-.1.15-.1.2c0 .04-.04.08-.05.12a2.22 2.22 0 0 0-.14 1.39c.1.44.28.86.53 1.25l.32.48.28.37a8.26 8.26 0 0 0 3.04 7.57 24.38 24.38 0 0 1-.18 6.09l-.13.87c-.58.08-1.17.04-1.73-.13a8.07 8.07 0 0 0-.79-.3c-1.15-.3-2.32.85-3.46.5 0 .06-.03.11-.05.16a1.55 1.55 0 0 0-.8-.23c-.67-.03-1.22-.53-1.7-.99l-1.51-1.42c-.1-.1-.2-.2-.27-.3a5.62 5.62 0 0 0-1.64-2.59 1 1 0 0 0-.43-.31h-.2c-.03-.06-.08-.1-.13-.16-.1-.12-.2-.23-.32-.33-.72-.67-.8-1.24-1.42-1.99a19.21 19.21 0 0 1-1.48-2.24 16.9 16.9 0 0 0-1.07-4.18l-.8-1.76-.08.1c-.58-.86-1.19-1.33-1.74-1.22-.92.2-1.38 1.99-1.23 4.33l.32 2.38c0 .06.02.12.04.18-.06.28-.09.57-.09.86 0 .33.31.58.48.88.25.4.4.87.39 1.35-.02.17-.07.33-.08.5.02.37.15.73.37 1.03l1.98 3.34.4.7.02.03c.12.24.3.45.53.61a7.3 7.3 0 0 0 .87 2.85c.53.87 1.16 1.69 1.87 2.43l.94 1.06c.93 1.04 1.86 2.08 2.86 3.05.37.38.8.69 1.29.9a1.43 1.43 0 0 0 1.43-.21v1.47a.82.82 0 0 1 .7.47.83.83 0 0 1-.07.84 32.81 32.81 0 0 1-2.93 6.22c.89.52 1.71 1.15 2.45 1.87.49.54.91 1.12 1.28 1.74.04.3.06.58.08.87.3 4.73-1.53 9.43-3.16 13.94-.47 1.28-.99 2.62-.95 3.95-.3.19-.6.4-.88.64.32.85.2 1.6.16 2.51a4.48 4.48 0 0 1-.9 2.61c-1.02 1.82-1.25 3.97-1.45 6.04-.13 1.25.36 2.78-.2 3.9-.99 1.92-1.85 3.97-1.99 6.1 0 .49-.06.97-.18 1.43-.12.4-.34.74-.45 1.13a4.87 4.87 0 0 0-.08 1.59c.08 1.9-.2 3.8-.83 5.6-.5 1.41-1.04 2.93-.65 4.39a6.2 6.2 0 0 0-1.67 3.69c-.01.35-.05.7-.13 1.05-.12.35-.28.7-.47 1.01a8.89 8.89 0 0 0-1.08 4.76 13.29 13.29 0 0 0-2.13 5.6c-.35 1.98-.5 4-.95 5.95-.6 2.59-1.7 5.2-1.9 7.86-1.29.82-1.84 2.4-2.09 3.91-.24 1.5-.28 3.09-.9 4.48-.33.72-.8 1.37-1.1 2.1-.22.6-.38 1.2-.48 1.82a7.11 7.11 0 0 0-.13 2.98c-.33.36-.72.65-1.15.88l.16-.74c-1.03.93-2.88.6-3.69 1.72a1.68 1.68 0 0 0 .4 2.3c.25.15.53.27.81.35 1.98.64 4.01 1.28 6.05.94.24-.03.47-.1.68-.22.26-.2.48-.45.63-.74l.91-1.45c.73.22 1.47.4 2.22.52.08.63.13 1.27.16 1.9.4.08.93.1 1.11-.26.06-.14.08-.3.07-.44 0-.28.04-.66.06-1.04h.08c1.2.05 2.4-.2 3.5-.7-.42-3.53.97-6.96 2.18-10.3 1.28-3.5 2.37-7.06 3.48-10.62.79-2.51 1.66-4.94 2.44-7.45l2.93-9.53c.43-1.4.86-2.78 1.35-4.17a65.11 65.11 0 0 1 3.66-8.2c.4-.74.8-1.48 1.12-2.26.4-.95.68-1.94 1-2.92a45.47 45.47 0 0 1 2.47-5.87l.08-.15c.32 1.32.64 2.65.85 3.97.3 1.62.31 3.28.07 4.9-.19 1.12-.55 2.21-.5 3.33.05 1.56.88 2.97 1.29 4.46a17 17 0 0 1 .44 3.42c.11 1.78 1.07 3.79.4 5.44-2.12 5.25-1.1 11.17-2.3 16.68-.62 2.82-2.52 5.48-2.37 8.37.1 2.05.28 4.1.53 6.14.06.64.23 1.27.5 1.86.16.31.34.6.54.89-.17.07-.32.25-.45.62-.32 1 0 2.23.88 2.78.36.2.74.33 1.14.4a6 6 0 0 0 1.66.23l.51-.06c.62.25 1.24.48 1.87.67 0 .16.03.33.06.49a.62.62 0 0 0 .2.45c.1.04.2.06.32.05h2.14v-.54a1.77 1.77 0 0 0 1.37-.44c.19-.24.32-.53.4-.83l1.74-5.98c.69-2.2.98-4.52.85-6.83-.77-7.31.9-14.65.36-22-.32-4.4-.1-8.83.68-13.19.17-.98.4-1.98.47-2.96.17-1.85-.04-3.72.1-5.56.03-.64.12-1.28.2-1.92.54-3.97.83-7.97.85-11.97a37.9 37.9 0 0 0-.25-3.97c.42-.1.8-.33 1.08-.64.36-.46.26-1.1.26-1.7 0-1.4.59-2.72 1.06-4.05.61-1.83 1.11-3.7 1.5-5.58.4-1.52.63-3.1.66-4.67 0-.16 0-.31-.02-.47.15-.1.27-.24.36-.4.1-.23.17-.48.2-.74l.42-3.04.32-2.18 1.25-8.8.33-2.3.33-2.28.1-.8c.96-1.61.04-3.77-.06-5.61Zm-10.49 32.98c-.46-1.11-.9-2.25-.79-3.45h-.04c.1-.37.08-.76-.05-1.12-.13-.29-.34-.54-.47-.83a3.02 3.02 0 0 1-.21-1.1c-.1-2.42.09-4.84.56-7.2l.16-.85c.17-.1.32-.21.45-.35.2-.24.38-.5.51-.8.45-.9.85-1.81 1.23-2.75.12-.3.3-.65.6-.72-.06 2.32.18 4.69-.76 6.79-.18.34-.31.7-.4 1.07-.08.59.16 1.19.07 1.78-.04.3-.17.59-.22.89a.88.88 0 0 0 .23.84c.05.03.1.06.17.08l-.06.48-.07.82c-.1.97-.13 1.95-.1 2.92 0 1.06.03 2.11.02 3.18.01.3-.04.62-.15.9a1.6 1.6 0 0 1-.3.4c-.12-.36-.25-.67-.38-.98Z" fill="url(#b)"/><path d="M322.14 187.03c1.2-.24 1.61-3.22.91-6.66-.7-3.43-2.24-6-3.45-5.76-1.2.25-1.62 3.23-.92 6.66.7 3.43 2.25 6.01 3.46 5.76Z" fill="#FBBEBE"/><path d="M340.56 314.64c-.33.98 0 2.21.87 2.75.36.19.74.32 1.14.4.54.15 1.09.22 1.65.22.68-.03 1.34-.3 2.02-.4.08-.01.16 0 .23.04a.33.33 0 0 1 .1.28 10.83 10.83 0 0 0 .13 1.4.6.6 0 0 0 .15.21c.1.05.21.07.32.06h2.14a21.1 21.1 0 0 0-.61-5.62 1.26 1.26 0 0 0-.16-.4 1.3 1.3 0 0 0-.68-.4 3.8 3.8 0 0 0-1.66-.28c-.69.09-1.27.54-1.86.91-.58.38-1.39.7-2.1.51-.72-.19-1.32-.79-1.68.32Z" fill="#3F3D56"/><path d="M309.1 312.9a5.93 5.93 0 0 1-2.17 1.47l-.36.18a.25.25 0 0 0-.12.1.21.21 0 0 0 .04.18 2.56 2.56 0 0 0 2.9 1.06c.24-.06.45-.18.64-.34.3-.36.47-.8.49-1.28.12-.48.1-.99-.06-1.46-.55-1.24-.75-.68-1.36.09Z" fill="#FBBEBE"/><path d="M317.31 317.79c.01.15 0 .3-.06.44-.2.36-.7.34-1.11.26a26.75 26.75 0 0 0-.49-4c-.76-.04-1.32.69-1.73 1.34l-1.06 1.7a2.2 2.2 0 0 1-.63.73c-.21.12-.44.2-.69.22-2.02.34-4.06-.3-6.02-.94-.28-.08-.56-.2-.81-.35a1.68 1.68 0 0 1-.4-2.3c.82-1.1 2.66-.79 3.68-1.7a9.2 9.2 0 0 1-.53 1.89c1.37-.21 2.29-1.46 3.39-2.3.27-.24.6-.4.96-.46.27-.02.53 0 .79.08 1.27.32 2.45.9 3.48 1.72.41.33 1.06.8 1.24 1.3.2.6 0 1.72 0 2.37Z" fill="#3F3D56"/><path d="M344.5 186.8a8.18 8.18 0 0 0 8.17-8.2c0-4.53-3.65-8.2-8.16-8.2a8.18 8.18 0 0 0-8.17 8.2c0 4.53 3.66 8.2 8.17 8.2Z" fill="#FBBEBE"/><path d="M360.6 227.03a19.56 19.56 0 0 1-.67 4.64 48.06 48.06 0 0 1-1.49 5.55c-.47 1.33-1.06 2.65-1.06 4.05 0 .59.1 1.23-.26 1.7-.31.32-.71.55-1.15.66a1.44 1.44 0 0 0-.97.87 6.14 6.14 0 0 1-.82-1.82c-.71-2.18-1.37-4.38-1.98-6.58a.85.85 0 0 1 .05-.8c.1-.08.22-.15.35-.19.4-.16.77-.4 1.1-.7.14-.14.26-.3.36-.48.11-.28.16-.59.15-.9 0-1.05 0-2.1-.03-3.15-.01-.97.02-1.94.11-2.9 0-.2.04-.5.07-.83.06-.62.18-1.34.51-1.59.5-.33 2 .12 2.58.2.98.13 1.98.3 2.93.48.14.58.21 1.18.22 1.78ZM327.62 187.78c-.32.64-1.08.94-1.66 1.34l-2 1.38a1.33 1.33 0 0 1-1 .35 1.32 1.32 0 0 1-.74-.7v-.03l-.41-.7-1.98-3.32a1.9 1.9 0 0 1-.37-1.03c0-.17.06-.33.08-.5 0-.48-.14-.95-.4-1.35-.16-.3-.47-.54-.46-.88-.02-.44.06-.87.22-1.28.2-.38.5-.7.86-.93l.58-.4c.1-.07.22-.12.34-.15.33-.07.65.2.98.21 1.43.97 1.98 2.78 3.1 4.1.64.74.7 1.31 1.42 1.98l.33.33c.14.15.26.33.35.51.13.35.92.75.76 1.07Z" fill="#3F3D56"/><path d="M341.64 186.8a7.41 7.41 0 0 1 .87 4c-.03.38-.15.73-.34 1.05-.57.88-1.76 1.04-2.8 1.1a1.64 1.64 0 0 0-1.22.39 1.11 1.11 0 0 0 .07 1.36c.34.36.75.63 1.21.8 1.65.72 3.42 1.32 5.21 1.15.83-.08 1.64-.32 2.46-.44.9-.1 1.8-.15 2.71-.16 1.08-.04 2.15-.14 3.22-.25l2.84-.28c.16 0 .3-.05.42-.16.21-.24-.06-.6-.32-.79-1.5-1.12-3.42-1.89-4.28-3.57-.4-.8-.51-1.74-.8-2.6-.3-.86-.77-1.63-.95-2.5-.1-.77-.14-1.54-.13-2.31a3.1 3.1 0 0 0-.79-2.12c-.56-.53-1.38-.66-2.15-.7-1.89-.08-3.9.38-5.24 1.72-.36.36-.67.79-1.04 1.11-.37.33-.88.43-.63.85.24.43.72.7.98 1.08.27.4.5.83.7 1.28Z" fill="#FBBEBE"/><path d="M357.74 198.35a45.3 45.3 0 0 1-2.42 8.95 33.7 33.7 0 0 0-1.43 4c-.3 1.24-.24 2.56-.52 3.8-.35 1.53-.7 3.07-.98 4.62a30.44 30.44 0 0 0-.56 7.18c0 .38.07.76.21 1.1.13.3.34.54.47.84a1.99 1.99 0 0 1-.11 1.58c-.2.46-.48.88-.82 1.24-3.68 1.1-7.62.74-11.46.98-3.54.21-7.12.94-10.6.34-.4-1.6.26-3.26.83-4.8 1.64-4.5 3.45-9.19 3.16-13.9-.03-.55-.1-1.1-.19-1.64-.57-3.34.05-6.8 1.05-10.03.63-2.02.6-4.17.45-6.27-.07-.68-.07-1.37-.02-2.05.05-.7.31-1.36.74-1.92 0-.02.04-.05.06-.08.01-.03.17-.02.3 0a.26.26 0 0 0 .19 0l.04-.03a.1.1 0 0 1 .12 0c.09.06.14.25.34.28.29.05.58.08.88.09.35 0 .7.06 1.05.15h.05c.51.09 1.04.04 1.53-.13.33-.08.65-.2.94-.37.09-.1.63-.18.75-.25.36-.22.28-1.24.35-1.66.04-.42.14-.84.3-1.23a2.08 2.08 0 0 1 1.69-.99c.68-.02 1.36.04 2.03.18 1.47.21 2.98.18 4.43.52.73.17 1.52.43 2.19.1.18.04.2.2.2.4 0 .18-.05.36-.1.53-.25 1.1.6 2.1 1.4 2.9.33.38.72.7 1.16.94.4.18.8.25 1.19.45.32.17.59.42.79.73.22.35.38.74.45 1.15.08.77.04 1.55-.13 2.3Z" fill="#3F3D56"/><path opacity=".1" d="M357.74 198.35c-.5 3.06-1.31 6.06-2.42 8.95a33.75 33.75 0 0 0-1.43 4c-.3 1.24-.24 2.56-.52 3.8-.35 1.53-.7 3.07-.98 4.62l-.25.13c-.5.23-1.02.4-1.55.5-.97.11-1.94.08-2.9-.1l-5.64-.76c-2.25-.3-4.65-.67-6.32-2.2-.93-.85-1.54-1.96-2.21-3.03-.03-.55-.1-1.1-.19-1.64-.57-3.34.06-6.8 1.06-10.03.62-2.02.59-4.17.45-6.27-.07-.68-.08-1.36-.03-2.05.06-.7.31-1.36.74-1.92a2.84 2.84 0 0 1 .6-.1h.11c.13 0 .27.01.4.04.26.09.53.19.79.3h.04a3 3 0 0 0 1.06.16c.52 0 1.05-.09 1.58-.12.64-.1 1.3.02 1.87.34.37.3.72.61 1.04.95.4.31.84.56 1.32.72 3.4 1.3 7.18 1.23 10.52-.22.32-.18.69-.28 1.06-.27.27.05.53.16.76.32l.7.4c.24.35.39.74.46 1.16.09.77.05 1.56-.12 2.32Z" fill="#000"/><path d="M361.18 195.72a21.06 21.06 0 0 1-4.5-1.98 2.02 2.02 0 0 0-.77-.33c-.37 0-.73.1-1.06.27a13.93 13.93 0 0 1-10.52.23c-.47-.17-.91-.41-1.31-.72-.33-.34-.68-.66-1.04-.96-1.3-.84-3.1.15-4.56-.4a8.22 8.22 0 0 0-.79-.3c-1.15-.3-2.32.86-3.45.51a19.5 19.5 0 0 0-.93 3.54 39.14 39.14 0 0 0-.26 4.18c0 .84-.04 1.67 0 2.51a1 1 0 0 1 .7.45 1.04 1.04 0 0 1-.07.85 32.6 32.6 0 0 1-2.92 6.2c.88.53 1.7 1.16 2.44 1.88 1.39 1.46 2.07 3.52 3.56 4.88 1.69 1.53 4.09 1.9 6.33 2.2l5.64.76c.95.18 1.93.22 2.9.1a6.1 6.1 0 0 0 1.54-.5c.32-.14.61-.33.86-.57.21-.24.38-.5.51-.8.45-.9.86-1.81 1.23-2.74.13-.33.33-.72.69-.74 2.1-1.9 4.07-3.85 6.16-5.74.84-.7 1.6-1.5 2.25-2.38 1.04-1.55.1-3.74 0-5.6a7.05 7.05 0 0 0-.18-1.42c-.34-1.35-1.13-2.97-2.45-3.38Z" fill="#006ADC"/><path opacity=".1" d="M327.62 187.78c-.32.64-1.08.94-1.66 1.34l-2 1.38a1.34 1.34 0 0 1-1 .35 1.32 1.32 0 0 1-.74-.7v-.28c-.01-.33.03-.65.13-.95.2-.45.5-.85.88-1.15a7.24 7.24 0 0 1 2.6-1.59.89.89 0 0 1 .48-.04c.06.01.12.04.17.07.14.16.26.33.36.52.15.32.94.73.78 1.05Z" fill="#000"/><path d="M332.34 191.97c-.67-.04-1.22-.53-1.71-.99l-1.5-1.4a1.4 1.4 0 0 1-.26-.3 5.6 5.6 0 0 0-1.64-2.58.95.95 0 0 0-.43-.3.87.87 0 0 0-.48.04c-.97.34-1.85.88-2.6 1.6-.38.3-.69.69-.88 1.13-.1.31-.14.63-.13.95a7.3 7.3 0 0 0 .91 3.47c.53.88 1.15 1.7 1.86 2.43l.94 1.05c.93 1.05 1.85 2.09 2.85 3.04.36.39.8.7 1.29.9a1.42 1.42 0 0 0 1.47-.24c.19-.22.33-.48.42-.75a14.9 14.9 0 0 0 1.22-4.95c0-.69-.02-1.38-.1-2.06-.05-.72-.56-1-1.23-1.04Z" fill="#006ADC"/><path d="M356.3 247.55c-.03 3.99-.31 7.98-.85 11.93-.08.64-.17 1.28-.21 1.92-.13 1.86.08 3.72-.1 5.56-.08 1-.29 1.99-.46 2.96-.78 4.34-1 8.76-.68 13.16.55 7.31-1.12 14.63-.36 21.93.09 1.42.01 2.85-.24 4.25-.14.87-.34 1.72-.6 2.56l-1.75 5.96c-.07.3-.2.58-.4.82a1.87 1.87 0 0 1-1.48.44c-2.28-.07-4.42-1.06-6.5-2.02-.23-.1-.45-.23-.65-.4-.43-.45-.4-1.16-.58-1.75-.2-.59-.7-1.14-1-1.75a5.75 5.75 0 0 1-.43-1.8 74.23 74.23 0 0 1-.54-6.13c-.15-2.88 1.75-5.53 2.38-8.34 1.18-5.5.18-11.41 2.28-16.64.67-1.65-.3-3.65-.4-5.43a17.38 17.38 0 0 0-.43-3.41c-.4-1.5-1.23-2.9-1.3-4.45-.04-1.12.32-2.2.5-3.31.26-1.63.23-3.28-.06-4.9a48.1 48.1 0 0 0-.85-3.97l-.07.15a44.9 44.9 0 0 0-2.48 5.86c-.31.97-.6 1.96-.99 2.9-.32.8-.72 1.53-1.11 2.27a65.29 65.29 0 0 0-3.66 8.16c-.49 1.38-.92 2.78-1.34 4.16l-2.94 9.53c-.79 2.5-1.65 4.92-2.43 7.42-1.1 3.58-2.19 7.12-3.46 10.61-1.19 3.32-2.6 6.75-2.17 10.25a7.48 7.48 0 0 1-3.5.71 20.36 20.36 0 0 1-5.92-1.44 4.6 4.6 0 0 1-2.05-1.22c-.88-1.08-.66-2.66-.4-4.03.1-.61.26-1.22.48-1.8.3-.74.79-1.38 1.1-2.1.62-1.4.66-2.96.9-4.47.25-1.5.8-3.09 2.07-3.9.22-2.65 1.3-5.26 1.9-7.84.45-1.96.6-3.97.96-5.96.35-1.98.93-3.97 2.12-5.57-.1-1.66.28-3.31 1.08-4.77.19-.32.35-.66.47-1.01.07-.35.11-.7.12-1.05a6.21 6.21 0 0 1 1.67-3.68c-.4-1.45.16-2.96.65-4.37.62-1.79.9-3.69.83-5.58a4.9 4.9 0 0 1 .07-1.59c.12-.4.33-.73.46-1.12.11-.46.17-.94.18-1.42.15-2.15 1.02-4.17 1.97-6.1.57-1.11.1-2.63.2-3.88.21-2.07.44-4.21 1.46-6.02.2-.34.4-.67.57-1.02.2-.5.32-1.04.33-1.59.03-.9.16-1.66-.17-2.5 2.12-1.77 5-2.27 7.76-2.39 2.75-.12 5.53.13 8.22-.46.8-.17 1.58-.42 2.42-.54 1.9-.28 3.81.16 5.68.58-.13 1.2.3 2.34.8 3.45 1.9 4.48 2.89 9.3 2.92 14.18Z" fill="#33313F"/><path opacity=".1" d="m346.99 248.46-4.55 10.25a48.1 48.1 0 0 0-.85-3.97l-.07.15v-.21l2.48-5.47 2.99-.75ZM360.6 227.03c-.27.2-.58.3-.9.33-.5.02-1-.05-1.49-.2l-3.55-.9a1.72 1.72 0 0 1-.33-.1c.06-.63.18-1.35.52-1.6.5-.33 2 .12 2.57.2.98.13 1.98.3 2.93.48.15.58.23 1.18.25 1.78Z" fill="#000"/><path d="M363.6 203.4c.08.33.19.66.25 1 .1.81.08 1.64-.09 2.45l-.32 2.27-.32 2.28-1.26 8.79-.3 2.17-.44 3.04c-.02.25-.08.5-.19.73a1.53 1.53 0 0 1-1.24.74c-.5.01-1-.06-1.48-.2l-3.55-.9c-.16-.03-.3-.1-.44-.18a.86.86 0 0 1-.23-.84c.06-.3.19-.58.23-.88.09-.6-.16-1.2-.07-1.78.08-.37.22-.73.4-1.07 1.18-2.63.5-5.7.9-8.56.36-2.25 1.3-4.37 2.74-6.13.88-1.12 1.9-2.12 3.03-2.99.44-.34 1.14-1.05 1.7-1.19.71-.15.56.75.68 1.25Z" fill="#006ADC"/><path d="M336.68 169.2c-.26.84.14 1.76-.04 2.6-.2.94-1.08 1.6-1.33 2.53-.4 1.44.81 2.74 1.7 3.93 3.28 4.43 2.85 10.55 1.73 15.95a82.56 82.56 0 0 1-3.74 12.7c-.5 1.28-1.04 2.58-2.01 3.54 1.82-.52 3.75-1.05 5.57-.54 2.31.64 4.3 2.9 6.64 2.38 1.41-.31 2.4-1.57 3.67-2.26 2.37-1.28 5.23-.48 7.87-.06.57.13 1.17.1 1.72-.1.42-.22.78-.55 1.04-.96a9.82 9.82 0 0 0 2.04-5.28 6.82 6.82 0 0 0-1.94-5.2c-.57-.54-1.24-.97-1.67-1.6a4.95 4.95 0 0 1-.65-2.4c-.31-4.37.75-8.83-.35-13.05-.4-1.5-1.04-2.95-1.2-4.49-.23-1.92.3-3.97-.47-5.72a5.6 5.6 0 0 0-3.33-2.9c-1.42-.5-2.94-.64-4.44-.79-2.17-.18-9.9-1.11-10.81 1.73Z" fill="#33313F"/><g opacity=".1" fill="#000"><path opacity=".1" d="M338.74 194.2a82.47 82.47 0 0 1-3.72 12.66c.28-.55.5-1.12.72-1.69a82.02 82.02 0 0 0 3.74-12.7c1.12-5.4 1.56-11.51-1.73-15.94-.79-1.06-1.8-2.2-1.77-3.44-.29.38-.52.8-.67 1.25-.4 1.43.81 2.74 1.7 3.93 3.28 4.42 2.85 10.54 1.73 15.93ZM336.69 171.4c.31-.4.55-.85.7-1.33.05-.6.04-1.19-.06-1.77-.3.23-.53.54-.65.9-.24.7.03 1.47 0 2.2ZM360.25 207.17c-.26.4-.62.73-1.05.96a3 3 0 0 1-1.72.08c-2.64-.4-5.53-1.21-7.87.07-1.27.7-2.25 1.95-3.67 2.26-2.33.53-4.32-1.72-6.63-2.38-1.64-.45-3.36-.08-5.01.4-.33.7-.77 1.34-1.31 1.9 1.82-.53 3.75-1.06 5.57-.55 2.31.65 4.3 2.9 6.64 2.38 1.41-.3 2.4-1.56 3.67-2.26 2.37-1.28 5.23-.47 7.87-.06.57.13 1.17.1 1.72-.09.42-.23.78-.56 1.04-.96a10.7 10.7 0 0 0 1.64-3.15c-.26.49-.56.95-.9 1.4Z"/></g></g><defs><linearGradient id="b" x1="303.84" y1="243.13" x2="364.32" y2="243.13" gradientUnits="userSpaceOnUse"><stop stop-color="gray" stop-opacity=".25"/><stop offset=".54" stop-color="gray" stop-opacity=".12"/><stop offset="1" stop-color="gray" stop-opacity=".1"/></linearGradient><clipPath id="a"><path fill="#fff" d="M0 0h461v319.62H0z"/></clipPath></defs></svg>