<svg width="543" height="326" fill="none" xmlns="http://www.w3.org/2000/svg"><g clip-path="url(#a)"><path d="M28.3 325.27c-.04-.16-3.55-16.15 3.62-29.44 7.16-13.29 22.46-19.15 22.61-19.2l.7-.27.17.73c.03.16 3.54 16.16-3.62 29.45-7.17 13.28-22.47 19.14-22.62 19.2l-.7.26-.16-.73Zm25.97-47.13c-3.06 1.32-15.15 7.09-21.2 18.3-6.06 11.23-4.23 24.5-3.65 27.78 3.06-1.31 15.15-7.07 21.2-18.3 6.06-11.23 4.24-24.5 3.65-27.78Z" fill="#F1F1F1"/><path d="M46.3 301.87c-12.88 7.75-17.84 23.14-17.84 23.14s15.92 2.82 28.8-4.92c12.88-7.75 17.84-23.13 17.84-23.13s-15.92-2.83-28.8 4.91Z" fill="#F1F1F1"/><path d="M241.32 177.7a7.05 7.05 0 0 0-6.83-8.4l-5.97-15-10 1.4 8.72 21.06a7.1 7.1 0 0 0 14.08.94Z" fill="#9F616A"/><path d="m222.9 172.43-3.1-7.38-19.3-36.74 1.05-67.98.2-.02c12.35-1.63 20.7 55.27 21.06 57.69l12.2 41.7 2.9 9.2-15.01 3.53Z" fill="#006ADC"/><path d="M193.24 315.77h9.38l4.47-36.2h-13.86v36.2Z" fill="#9F616A"/><path d="M190.84 312.7h18.49a11.78 11.78 0 0 1 11.78 11.78v.39h-30.27V312.7Z" fill="#2F2E41"/><path d="m106.94 301.48 7.7 5.36L139 279.7l-11.36-7.92-20.7 29.7Z" fill="#9F616A"/><path d="m106.73 297.6 15.16 10.56a11.78 11.78 0 0 1 2.93 16.4l-.22.3-24.83-17.29 6.96-9.98ZM188.08 307.26l-.4-67.9-5.91-42.69-11.01 37.55-.02.03-39.9 57.91-15.53-7.86.09-.2c.94-2.26 23.3-55.25 29.31-55.25a3.25 3.25 0 0 0 2.76-1.22c1.77-2.35.33-7.35.32-7.4-1.72-7.13 2.6-9.56 3.47-9.96l2.31-47.82.24.01 62.82 4.4-2.64 59.8-5.67 78.33-.2.02-20.04 2.25Z" fill="#2F2E41"/><path d="m217.59 177.47-.27-.03-67.56-5.44.17-22.35 3.3-58.35.02-.04 13.47-29.23 9.54-4.32 13.93-.73h.03l12.71 3.16 13.22 94.89 1.44 22.44Z" fill="#006ADC"/><path d="M192.37 49.49a17.78 17.78 0 1 0-17.05-31.2 17.78 17.78 0 0 0 17.05 31.2Z" fill="#9F616A"/><path d="M165.95 38.35v-6.93s-5.59-6.58.56-8.24c0 0 1.68-16.57 16.2-8.84 0 0 20.13-3.31 17.9 8.29 0 0 5.02-3.03 3.34 4.7l-3.24 12.47s1.57-8.23-3.46-9.34l-2.8-1.66s-7.82 7.74-19.56-1.65c0 0-5.03-1.2-4.47 3.77.56 4.97-4.47 7.43-4.47 7.43Z" fill="#2F2E41"/><path d="M181.99 160.78a7.06 7.06 0 0 0-8.23-7.04l-8.56-13.68-9.58 3.17 12.36 19.15a7.1 7.1 0 0 0 14-1.6Z" fill="#9F616A"/><path d="m159.88 156.46-15.48-31.42.01-.08c.07-.35 6.3-34.94 11.07-47.66 4.8-12.8 11.36-15.37 11.64-15.47l.13-.05 5.9 5.64-8.16 54.43 8.79 26.24-13.9 8.37Z" fill="#006ADC"/><path d="M542.34 0h-29.98v29.97h29.98V0ZM307.73 116.63h-29.98v29.97h29.98v-29.97Z" fill="#F1F1F1"/><path d="M294.58 133.46h237V13.51h-237v119.95Z" fill="#fff"/><path d="M533.53 135.42h-240.9V11.55h240.9v123.87Zm-237-3.91h233.1V15.46h-233.1v116.05Z" fill="#E5E5E5"/><path d="M505.37 55.59H323.03v6.04h182.34V55.6ZM505.37 70.25H323.03v6.04h182.34v-6.04Z" fill="#E5E5E5"/><path d="M505.37 91.9h-33.89v5.24h33.9V91.9Z" fill="#006ADC"/><path d="M248.94 325.97H.65a.65.65 0 0 1 0-1.3h248.3a.65.65 0 0 1 .65.65.65.65 0 0 1-.66.65Z" fill="#CBCBCB"/></g><defs><clipPath id="a"><path fill="#fff" d="M0 0h542.34v326H0z"/></clipPath></defs></svg>