<svg id="itou" data-name="itou" xmlns="http://www.w3.org/2000/svg" width="1131" height="130"><defs><style>.cls-1{fill:none}.cls-8{fill:#373c42}</style><clipPath id="clip-path"><path class="cls-1" d="M0 0h245.8v130H0z"/></clipPath><clipPath id="clip-path-2"><path class="cls-1" d="M0 0h690.3v130H0z"/></clipPath></defs><g clip-path="url(#clip-path)"><g clip-path="url(#clip-path-2)"><path d="M0 0h244.6v74.6H0z" fill="#fff"/><path d="M195.3 129.9c-.1 0-.1-.2 0-.5s.2-.4.8-.3.6 0 .8-.3c.4-.5.1-.9-.6-.8s-.6.1-.5-.3c.3-1.2.4-1.2-.6-1.3a6.19 6.19 0 0 1-3.3-1.7 5.83 5.83 0 0 1-1.7-4.9 5.19 5.19 0 0 1 .6-2.3c1.2-2.4 3.9-3.6 7.6-3.4a10.58 10.58 0 0 1 2.2.3l.8.2.1 2.6h-.5c-.3 0-.5-.1-.5-.2 0-.4-1-1.2-1.7-1.5a6.93 6.93 0 0 0-3.5.1c-2 .9-2.9 3.1-2.3 5.7a5 5 0 0 0 1.6 2.8 3.77 3.77 0 0 0 2.9 1.1 3.16 3.16 0 0 0 2.9-1.5c.4-.7.5-.8.9-.5.2.1.2.3 0 1.4l-.2 1.3-.7.2a9.43 9.43 0 0 1-2 .3c-1.3.1-1.3.1-1.3.4s.1.3.4.3a1.21 1.21 0 0 1 1.1.8 1.77 1.77 0 0 1-.9 1.7 5.13 5.13 0 0 1-2.4.3zm-94.6-.6a12.14 12.14 0 0 1-4-1.9l-1.2-.8-1.9-.1a6.56 6.56 0 0 1-4.2-1.2c-3-2-3.1-7.1-.2-9.6 2.2-1.9 6.1-2.2 8.8-.9 3.8 1.8 4.2 7.3.7 10.1a6.35 6.35 0 0 1-1.1.8 31.27 31.27 0 0 0 4.5 2.2 5.58 5.58 0 0 0 3.6.1c.8-.2.9-.2 1 .2s-.1.4-.8.7c-1.1.7-3.6.8-5.2.4zm-4.7-4.4c2.7-1.3 3.2-5.3 1-7.8a4.08 4.08 0 0 0-6.9.7c-1.2 2.5.2 6.3 2.6 7.3a4.68 4.68 0 0 0 3.3-.2zm-83.5 1.5c-.7-.3-1.5-1.2-2.8-3.1-1.9-3-2.3-3.4-2.9-3.4h-.5v1.6c0 2.9.3 4 1.4 4.2.3.1.4.2.4.4v.4H1.6v-.3c0-.2.1-.4.5-.5a1.58 1.58 0 0 0 .8-.5c.3-.4.3-.5.3-6s0-5.6-.3-6a1.77 1.77 0 0 0-.8-.5c-.4-.1-.5-.2-.5-.4s0-.3 4-.4c4.3-.1 5.2 0 6.4.5a3.62 3.62 0 0 1 1.9 3.1 4.16 4.16 0 0 1-2.7 3.6l-.8.4 1.8 2.4c2.1 2.8 2.7 3.5 3.3 3.8s.6.8.1 1a14.82 14.82 0 0 1-3.1-.3zm-4-8a2.66 2.66 0 0 0 1.2-4.6 3.15 3.15 0 0 0-2.6-.8l-.8.1v5.4h.8a6.6 6.6 0 0 0 1.4-.1zm36.6 8a4.73 4.73 0 0 1-2.1-1.3c-.8-.9-.9-1.4-.9-5.2 0-4-.1-4.4-.9-4.8-.3-.1-.5-.3-.5-.5s.1-.3 2.7-.3 2.7 0 2.7.3a.27.27 0 0 1-.3.3 1.27 1.27 0 0 0-.7.4l-.4.4v3.9c0 3.7 0 3.9.3 4.5a2.83 2.83 0 0 0 2.7 1.2 2.76 2.76 0 0 0 2.6-1.5c.4-.8.4-.8.4-4.3 0-3.1 0-3.6-.3-3.9a3 3 0 0 0-.7-.5c-.3-.1-.4-.2-.4-.4s.1-.3 2.1-.3 2.1 0 2.1.3-.1.3-.4.4c-.7.2-.8.5-.9 4.6l-.1 3.9-.5.8a4.26 4.26 0 0 1-2.7 2 12.1 12.1 0 0 1-3.8 0zm62 0a4.73 4.73 0 0 1-2.1-1.3c-.8-.9-.9-1.5-.9-5.3s-.1-4.3-.9-4.7c-.3-.1-.5-.3-.5-.5s.1-.3 2.7-.3 2.7 0 2.7.3-.1.3-.3.4a1 1 0 0 0-.7.5c-.3.4-.3.6-.4 3.8-.1 3.9.1 4.7.8 5.3 1.3 1.2 4 .9 4.8-.6.5-.9.6-2.1.6-5.1-.1-3.2-.2-3.6-1-3.8-.3-.1-.4-.2-.4-.4s.1-.3 2.1-.3 2.2 0 2.2.3-.2.3-.5.4a1.54 1.54 0 0 0-.6.4 24.74 24.74 0 0 0-.2 4.1l-.1 3.9-.5.8a4.26 4.26 0 0 1-2.7 2 8.2 8.2 0 0 1-4.1.1zm50.4 0a8.46 8.46 0 0 1-2.6-2.9c-1.5-2.3-1.7-2.5-2.1-2.5s-.4 0-.4 1.8c0 2.1.2 2.8.9 2.9.4.1.5.2.5.4v.3h-5.4v-.3c0-.3.1-.4.5-.4.9-.2 1-.6.9-5.5v-4.4l-.4-.4a1.27 1.27 0 0 0-.7-.4.27.27 0 0 1-.3-.3c0-.2.2-.3 1.2-.4.6-.1 2.4-.1 3.9-.1 2.5 0 2.8.1 3.4.4a2.76 2.76 0 0 1 1.6 2.7 3.24 3.24 0 0 1-2.1 2.9c-.4.2-.7.4-.6.5a24.46 24.46 0 0 1 1.6 2c1.5 2.1 2.3 3 2.7 3s.3.7 0 .8a11.54 11.54 0 0 1-2.6-.1zm-3-6.8a2.73 2.73 0 0 0 1.4-1.6 2.38 2.38 0 0 0-.8-2.2 2.28 2.28 0 0 0-2-.5l-.6.1v4.4h.8a3.73 3.73 0 0 0 1.2-.2zm70.8 6.7c-.5-.1-.9-.2-.9-.3a12.08 12.08 0 0 1-.3-1.4l-.2-1.4h.4a1 1 0 0 1 .4.1 3.25 3.25 0 0 0 1.6 1.7c1.6.7 3.6 0 3.6-1.2 0-.8-.4-1.3-2-2.2-2.1-1.2-3-1.9-3.4-2.6a4.13 4.13 0 0 1-.2-2.9 4.26 4.26 0 0 1 2.1-1.8 11.84 11.84 0 0 1 4.6 0l.8.3v2.6h-.5c-.4 0-.5-.1-.6-.4a2.83 2.83 0 0 0-1.7-1.5c-1.9-.5-3.4 1.3-2.2 2.6a19.25 19.25 0 0 0 2.3 1.6c2 1.2 2.8 1.9 3 2.7a3.08 3.08 0 0 1-2.3 4 7.57 7.57 0 0 1-4.5.1zM17 126c0-.3.1-.3.4-.3a1.27 1.27 0 0 0 .7-.4c.3-.4.3-.5.3-4.9a26.82 26.82 0 0 0-.2-4.8 1.2 1.2 0 0 0-1-.7c-.2 0-.3-.1-.3-.4v-.4h9.5v3H26a.63.63 0 0 1-.6-.5c-.3-.9-.8-1.1-2.7-1.1l-1.7-.1v4.1l1.3-.1c1.4-.1 2.1-.4 2.2-1 0-.2.2-.3.5-.3h.4v3.7H25c-.4 0-.4-.1-.4-.3 0-.6-.5-.9-2.1-.9l-1.4-.1v2c0 2.4 0 2.5 1.8 2.5s2.7-.4 3.2-1.4c.2-.5.8-.6 1-.2a5.6 5.6 0 0 1-.7 2.5l-.2.4H17v-.3zm12.2.1c0-.3.1-.4.5-.4.8-.2.9-.4.9-5 .1-4.8 0-5.2-.9-5.6-.4-.2-.5-.3-.5-.6v-.3l3.6.1c3.9.1 4.2.1 5.3.9a3.08 3.08 0 0 1 .7 4c-.7 1.2-1.9 1.8-3.8 1.9l-1 .1-.2-.5-.3-.5.6-.1a3.81 3.81 0 0 0 2-1 1.92 1.92 0 0 0 .3-1.2c0-1.4-.9-2.2-2.4-2.4l-.9-.1v4.8c.1 5.2.1 5.4 1 5.5.3.1.4.2.4.4v.3h-5.4l.1-.3zm26.4-.1a.27.27 0 0 1 .3-.3 1.08 1.08 0 0 0 .7-.3l.4-.3v-4.4c.1-5 0-5.4-.9-5.7-.3-.1-.5-.3-.5-.4s.2-.3 2.4-.3c4.6-.1 5.6 0 6.4.3a2.16 2.16 0 0 1 1.5 2.1v1.2a3 3 0 0 1-1.7 1.6l-.8.3.6.2a3.15 3.15 0 0 1 2.3 3.4 3.2 3.2 0 0 1-2.2 2.7c-.8.3-1 .3-4.6.3h-3.8l-.1-.4zm7-1.1a2.09 2.09 0 0 0 1-2.2c-.1-1.5-1.3-2.4-3.1-2.4h-1v2.2c0 2.1.1 2.2.4 2.4a2.62 2.62 0 0 0 2.7 0zM62 119a1.73 1.73 0 0 0 1.4-1.9c-.1-1.1-1.1-1.7-2.8-1.7h-1v3.9h.8c.5-.1 1.2-.2 1.6-.3zm6.5 7c0-.2.1-.3.4-.4a1.2 1.2 0 0 0 .8-.5c.3-.4.3-.6.3-4.8a24.87 24.87 0 0 0-.2-4.8c-.3-.4-.6-.7-1-.7a.27.27 0 0 1-.3-.3c0-.3 0-.3 2.9-.3s2.9 0 2.9.3a.27.27 0 0 1-.3.3 4.12 4.12 0 0 0-.8.3l-.4.4-.1 4.5v4.5l.4.2c.3.2.7.2 1.6.2 1.5-.1 2.2-.4 2.6-1.3.3-.6.6-.7 1-.5.1.1.1.4-.1 1.2a5.71 5.71 0 0 1-.6 1.5l-.3.3-4.4-.1-4.4-.1v.1zm11.1.1c0-.3.1-.4.5-.4.9-.2.9-.5.9-5.4 0-4 0-4.3-.3-4.7a1.87 1.87 0 0 0-.7-.6c-.3-.1-.4-.2-.4-.4s0-.3 2.7-.3 2.7 0 2.7.3-.1.3-.4.4a1.79 1.79 0 0 0-.7.5c-.3.4-.3.8-.3 4.8 0 4.9.1 5.3.9 5.4.3.1.4.2.4.4v.3h-5.4l.1-.3zm38 0c0-.2.1-.3.5-.4.9-.2.9-.5.9-5.4 0-4.2 0-4.3-.4-4.8a1 1 0 0 0-.7-.5c-.3 0-.3-.1-.3-.4v-.3h9.4v1.5c0 1.5 0 1.5-.4 1.5s-.4-.1-.5-.5c-.2-.8-.8-1.1-2.7-1.2l-1.6-.1-.1.7a11.52 11.52 0 0 0-.1 2v1.4l1.3-.1c1.5-.1 2.1-.3 2.2-.9.1-.3.2-.4.5-.4h.4v3.7h-.4c-.3 0-.4-.1-.4-.2 0-.7-.8-1-2.4-1h-1.3l.1 2c.1 2.4.1 2.4 2 2.4 1.7 0 2.6-.4 3-1.3.2-.5.4-.6.7-.6a.76.76 0 0 1 .5.2 10.86 10.86 0 0 1-.8 2.8c-.2.2-1 .2-4.7.2h-4.5l-.2-.3zm17.5 0c0-.2.1-.4.5-.5a2.41 2.41 0 0 0 .8-.6c.3-.4.3-.6.3-5.8 0-6.1 0-6.2-1.1-6.5-.4-.1-.6-.2-.6-.5v-.4h11.1v3.6h-.5c-.4 0-.5-.1-.5-.3a2 2 0 0 0-1.2-1.5 9.29 9.29 0 0 0-2.4-.3l-1.8-.1v4.9h1.3c1.8 0 2.3-.2 2.7-.9a.75.75 0 0 1 .8-.5h.5v4.3l-.5-.1c-.4 0-.5-.1-.6-.3-.3-.8-1.2-1.2-3.2-1.2h-1l.1 2.5c.1 2.9.2 3.3 1.2 3.6.4.1.6.3.6.5v.3H135l.1-.2zm25.4 0c0-.3.1-.4.3-.4.5 0 1-.9 2.2-3.6 1.6-3.7 3.2-7.4 3.2-7.6s.2-.2.8-.2h.8l2.1 5c2.3 5.4 2.8 6.2 3.3 6.4a.66.66 0 0 1 .4.5c0 .3 0 .3-2.7.3h-2.7v-.3c0-.3.1-.4.5-.4.7-.1.7-.5.2-2l-.5-1.2h-3.8l-.4 1c-.5 1.3-.5 2.1.1 2.2.3 0 .4.1.4.4v.4h-4.1l-.1-.5zm7.4-5.1a22.22 22.22 0 0 0-1.3-3.1c-.1 0-.2.3-.4.6l-.7 1.6-.4 1h1.3a4.57 4.57 0 0 0 1.5-.1zm6.8 5.1a.37.37 0 0 1 .4-.4c.9-.2.9-.4 1-5 .1-4.8 0-5.2-.9-5.6-.3-.1-.5-.3-.5-.4s.2-.2 1.8-.2h1.8l1 1.2c.6.7 2 2.2 3.3 3.6.9.9 1.7 1.9 2.6 2.8l.4.4-.1-3.2c-.1-3.5-.1-3.9-1-4.1-.3-.1-.4-.2-.4-.4s.1-.3 2.1-.3 2.1 0 2.1.3-.1.3-.4.3a1 1 0 0 0-.7.5c-.3.4-.3.6-.4 5.7l-.1 5.3h-.7a1.22 1.22 0 0 1-1.2-.6c-.4-.5-7.2-8-7.4-8.3v3.5c.1 4 .2 4.5.9 4.6.4.1.5.2.5.4v.3h-4.3l.2-.4zm27.8 0c0-.2.1-.4.2-.4.3 0 .9-.7 1.3-1.5.6-1.2 3.3-7.5 3.8-8.8l.4-1.2 1.4.1 2.1 4.9c1.2 2.7 2.2 5.1 2.4 5.4.4.6.9 1.2 1.1 1.2s.2.2.2.4v.4H210v-.4c0-.2.1-.4.3-.4.8 0 .8-.6.3-2.2l-.4-1.1h-3.7l-.3 1c-.6 1.8-.6 2.3.1 2.3.2 0 .3.1.3.4v.4h-4.1v-.5zm6.8-6.4c-.3-.8-.6-1.6-.6-1.7s-.4.4-.8 1.4a15 15 0 0 0-.7 1.7c0 .1.6.1 1.3.1h1.3l-.5-1.5zm7.2 6.4c0-.3.1-.4.4-.4a1.08 1.08 0 0 0 .7-.3c.3-.3.3-.6.3-4.8v-4.8a1.44 1.44 0 0 0-1.1-.9.27.27 0 0 1-.3-.3c0-.3 0-.3 2.7-.3s2.7 0 2.7.3-.2.4-.5.5a1.17 1.17 0 0 0-.6.6 39.1 39.1 0 0 0-.2 7.4c.1 1.7.2 2.1.4 2.3a.86.86 0 0 0 .6.3c.2 0 .3.1.3.4v.4h-5.4v-.4zm17.8 0c0-.2.1-.3.4-.3a1.27 1.27 0 0 0 .7-.4c.3-.4.3-.5.3-4.9a27.82 27.82 0 0 0-.2-4.8 1.2 1.2 0 0 0-1-.7c-.2 0-.3-.1-.3-.4v-.4h9.5v3h-.4a.63.63 0 0 1-.6-.5c-.3-.8-.8-1.1-2.7-1.1l-1.7-.1v4.1h1c1.4 0 2-.2 2.3-.8.2-.3.3-.5.6-.5h.4v3.7h-.4c-.4 0-.4-.1-.4-.3 0-.6-.5-.9-2.1-.9l-1.4-.1v2c0 2.4 0 2.5 1.8 2.5s2.7-.4 3.2-1.4c.2-.5.8-.6 1-.2a5.6 5.6 0 0 1-.7 2.5l-.2.4h-9.2l.1-.4zm-213-13.2l-.4-.3.9-1.3c.5-.7 1-1.3 1.2-1.3a8.69 8.69 0 0 1 2.2.4 28.76 28.76 0 0 1-3.4 2.7c0 .1-.3 0-.5-.2zM1.1 103h242.2v1.3H1.1V103zm92.2-2.9a2.34 2.34 0 0 1-1.8-2.6 2.31 2.31 0 0 1 1.5-1.7l.8-.3-.5-.2a.79.79 0 0 1-.5-.5c0-.3 1.2-1.3 1.5-1.3.1 0 0-.2-.2-.5a2.72 2.72 0 0 1 1.4-3.8c.8-.4 1.1-.4 4-.2 1.7.1 1.7.1 1.6.4a1 1 0 0 1-.1.4c0 .1-.3.1-.6.1h-.6l.1.8c.2 1.8-1.3 3.1-3.6 3.1-1.2 0-1.8.2-1.3.5.1.1.9.3 1.7.6 2.6.8 3.1 1.2 3 2.4s-1.3 2.4-2.9 2.9a8.17 8.17 0 0 1-3.5-.1zm3.5-.9c1.3-.6 1.8-1.7 1.1-2.3a6.93 6.93 0 0 0-3.1-.9c-1.1.2-2.1 1.4-1.9 2.3.3 1.2 2.2 1.7 3.9.9zm.4-6.5a2 2 0 0 0 .7-2.8c-.9-1-2.6.1-2.6 1.8a1.16 1.16 0 0 0 .4 1 1.09 1.09 0 0 0 1.5 0zm6.1 3.3a1.16 1.16 0 0 1-1.1-1.3c-.2-1.9 1.6-4.7 3.6-5.6a7.28 7.28 0 0 1 4.4-.1q.15 0-.3 1.5c-.6 2-1 3.9-.8 4.3.1.2.2.2.7.1s.5-.1.6 0c.2.3.1.4-.8.7-1.2.4-1.8.3-2-.3l-.1-.4-.6.3a5.67 5.67 0 0 1-3.6.8zm2.7-1.2a3.48 3.48 0 0 0 1.1-.7 16.88 16.88 0 0 0 1.1-3.7c.1-.5.1-.5-.5-.7-1.1-.3-2.1.4-3 2s-1.1 3-.5 3.4c.4.2.6.2 1.8-.3zm75.3 1.2c-.7-.2-1-.4-1.2-1-.3-1 .4-2.9 1.6-4.3a5.08 5.08 0 0 1 5.2-1.9 3.87 3.87 0 0 1 1.2.3 5.68 5.68 0 0 1-.4 2 16.55 16.55 0 0 0-.6 2.9v.9h.7c.6 0 .7 0 .7.3s-.1.4-.9.6c-1.3.4-1.8.3-1.9-.2a1 1 0 0 0-.1-.4 4 4 0 0 1-.9.3 14.79 14.79 0 0 1-2.6.7c-.2-.1-.5-.1-.8-.2zm2.7-1.2a4.37 4.37 0 0 0 1-.6 10.7 10.7 0 0 0 1.3-3.9c.1-.4.1-.5-.5-.6a1.67 1.67 0 0 0-1.2.1c-1 .4-2 1.9-2.5 3.7s0 2.1 1.9 1.3zm-172.5.9a20.26 20.26 0 0 1 .6-3c.8-2.9.8-3.1-.1-2.9-.4.1-.5.1-.5-.2s.1-.4.9-.6a13.12 13.12 0 0 1 1.5-.3c.5 0 .6 0 .6.4a14.39 14.39 0 0 1-.6 2.9 15.16 15.16 0 0 0-.6 2.7c.1.2.2.2.8.1s.7-.1.7.2-.2.4-.9.6a10 10 0 0 1-1.6.2c-.6.2-.7.1-.8-.1zm6.1 0l-.4-.3 1.2-4.9c.7-2.7 1.2-5.1 1.2-5.3-.1-.4-.1-.4-.7-.3-.3.1-.4 0-.4-.3s.6-.6 2.1-.8c.9-.1.9-.1.9.3a13.14 13.14 0 0 1-.6 2.6c-.3 1.3-.6 2.4-.6 2.5s.2.1.7-.1c1.8-.7 3.3-.7 3.9.1s.3 2.6-.6 4.1a6.14 6.14 0 0 1-2.5 2.3 6.72 6.72 0 0 1-4.2.1zm4.1-.9a6 6 0 0 0 1.9-3.8c.3-1.5-.9-1.8-2.6-.7a1.59 1.59 0 0 0-.8 1 19.26 19.26 0 0 0-.9 3.4c-.1.6 1.5.7 2.4.1zm6 .8c-.4-.4-.5-.5-.5-1.5a5.36 5.36 0 0 1 3.6-5.2 2.86 2.86 0 0 1 2.6.3c.4.3.4.4.4 1 0 1.5-1.5 2.6-3.6 2.7-.6 0-1.2.1-1.2.2-.2.2-.1 1.1.1 1.4.4.7 1 .7 2.3.1.8-.4 1-.4 1.2-.2.3.4.1.5-1.1 1.1a5 5 0 0 1-2.3.5c-.9 0-1 0-1.5-.4zm2.9-3.5c1.4-.3 2.2-1.6 1.6-2.3-.4-.4-.8-.4-1.4 0a5.52 5.52 0 0 0-1.4 2.1c-.1.3 0 .3.3.3.1.1.6 0 .9-.1zm5.3 3.8s.3-1.1.6-2.5a25.59 25.59 0 0 0 .6-3.1v-.6l-.6.1c-.5.2-.5.1-.5-.1s.5-.6 1.8-.8c.9-.2 1.2-.1 1.2.5v.3l.6-.3a2.29 2.29 0 0 1 2.3-.4c.4.1.6.3.6.4-.4 1.4-.7 1.8-1 1.8s-.4-.1-.4-.5c0-1-1-1-1.7 0a15 15 0 0 0-1.3 4.1c-.1.6-.3 1.1-.4 1.1a10.74 10.74 0 0 1-1.8 0zm8-.1c-.2-.2-.1-.7.8-4.4l.4-1.5h-.5c-.3 0-.5 0-.5-.1a.9.9 0 0 1 .6-.6c.4 0 1.1-.7 1.5-1.3s.5-.8 1-.8c.3 0 .4.1.3.5s-.1.7-.2 1l-.2.4h.7c.8 0 .9.1.6.6-.1.2-.3.2-.8.2-.9 0-.7-.3-1.4 2.9-.5 2.3-.5 2.5.4 2.3.7-.2.8-.2.7.2 0 .2-.2.4-.8.6a3.68 3.68 0 0 1-2.6 0zm6.5-.2c-1.2-1.1-.3-4.3 1.5-5.9a5.19 5.19 0 0 1 2.7-1.1 3.36 3.36 0 0 1 1.7.7 2.13 2.13 0 0 1-.1 1.9 4.46 4.46 0 0 1-3.7 1.6h-.9v.8c0 1.5.7 1.7 2.5.9.6-.2 1.1-.4 1.1-.4a1 1 0 0 1 .1.4c0 .2-.2.4-1.1.8a3.87 3.87 0 0 1-2.3.5c-1 .2-1.2.2-1.5-.2zm2.8-3.5a2.79 2.79 0 0 0 1.7-1.2c.2-.5.2-.5-.1-.9s-.9-.5-1.5 0a5.89 5.89 0 0 0-1.4 2.1c0 .2.6.2 1.3 0zm59.7 3.8c-.2-.2-.1-1 .7-4 1-4 1.6-6.3 1.6-6.7s-.1-.3-.6-.2-.6.1-.6-.3.4-.5 2-.8c.8-.1 1.1 0 1.1.4 0 .2-.5 2.5-1.2 5s-1.2 4.9-1.2 5.1v.5l.7-.1c.7-.1.7-.1.7.2s-.2.4-.9.6a3.44 3.44 0 0 1-2.3.3zm6-.1c-.2-.3-.1-.9.6-3.3a14.77 14.77 0 0 0 .6-2.5c-.1-.2-.1-.3-.8-.1-.4.1-.4.1-.4-.2s.7-.6 1.9-.9c.9-.1 1.3-.1 1.3.3 0 .1-.3 1.4-.7 2.9a12.27 12.27 0 0 0-.6 2.9c.1.1.4.1.8.1.7-.1.7-.1.7.2s-.2.4-.9.6c-1.2.3-2.3.3-2.5 0zm5.8 0c-.1-.1 0-.6.1-1 .4-1.4 1.1-4.8 1.1-4.8a1.21 1.21 0 0 0-.5-.1c-.7 0-.6-.4.3-.8a2.31 2.31 0 0 0 1.2-1.2c.5-.8.6-.9 1-.9h.4l-.2.9c-.1.5-.2.9-.2 1s.4.1.8.1c.8 0 .9 0 .7.5-.1.3-.2.3-.9.3h-.8l-.5 2.4a9.59 9.59 0 0 0-.4 2.7c.1.2.2.2.6.1.7-.2.8-.2.8.2s-.1.4-.9.6c-1.4.3-2.4.3-2.6 0zm6.6-.1c-.4-.3-.5-.5-.5-1.3a5.79 5.79 0 0 1 2.2-4.8c1.5-1 3.2-1.2 4.1-.3.4.4.5.5.4 1.1-.1 1.4-1.7 2.5-3.7 2.5-1.3.1-1.4.2-1.2 1.2s.8 1.2 2.4.5c1.1-.4 1.3-.4 1.3 0s-1.9 1.2-3.3 1.3c-1.1.2-1.3.1-1.7-.2zm3.4-3.8c1-.5 1.4-1.5.9-2-.7-.7-2 .2-2.7 1.9l-.2.6.7-.1c.4-.1.8-.3 1.3-.4zm38 4.1s.3-1.1.6-2.5a14.26 14.26 0 0 0 .6-3.1v-.6l-.6.1c-.6.1-.6.1-.6-.2s.3-.5 1.6-.8c1.1-.3 1.5-.2 1.5.4v.3l.6-.3a2.29 2.29 0 0 1 2.3-.4 1.36 1.36 0 0 1 .6.3 2.67 2.67 0 0 1-.4 1c-.3.7-.4.9-.7.9s-.4-.1-.4-.5c0-1-.9-1.1-1.6-.1A8.43 8.43 0 0 0 175 94c-.2.9-.4 1.7-.4 1.7a4.66 4.66 0 0 1-1.9.3zm18.3-.2c-.1-.3 0-1.2.6-3.7l.5-2.2h-.4c-.5-.1-.6-.5-.1-.7a2.56 2.56 0 0 0 1.5-1.4c.4-.7.5-.8 1-.8s.4.1.3.5-.1.7-.2 1l-.1.5h.7c.8 0 .9.1.6.6-.1.2-.3.2-.8.2-.9 0-.7-.3-1.4 2.9-.5 2.3-.5 2.5.4 2.3.7-.2.8-.2.7.2 0 .2-.2.4-.8.6-1.1.3-2.3.3-2.5 0zm6.4-.1c-1.2-1.1-.4-4.3 1.5-5.9a5.19 5.19 0 0 1 2.7-1.1 3.36 3.36 0 0 1 1.7.7 2.36 2.36 0 0 1-.1 2 4.46 4.46 0 0 1-3.7 1.6h-.9l.1.9c.1 1.4.7 1.6 2.4.8.6-.2 1.1-.4 1.1-.4a1 1 0 0 1 .1.4c.1.2-.2.4-1.1.8a3.72 3.72 0 0 1-2.2.5 1.94 1.94 0 0 1-1.6-.3zm3.4-3.8c1.1-.5 1.6-1.6.9-2.1-.5-.3-.8-.3-1.4.2a5.42 5.42 0 0 0-1.4 2.2c0 .2 1.1.1 1.9-.3zm4.8 4c0-.1.3-1.2.6-2.6a17.72 17.72 0 0 0 .6-2.9c0-.4-.1-.4-.6-.4s-.6 0-.7-.2.1-.3.7-.5a7.37 7.37 0 0 1 1.4-.4c.6-.1.6-.1 1 .7 0 0 .4-.2.9-.4 1.1-.5 1.3-.5 2-.1l.5.3-.3.9c-.3.8-.4.9-.7.9s-.4-.1-.4-.5c0-1.3-1.3-1-2 .4a15.64 15.64 0 0 0-.8 2.7c-.3 1.1-.5 2.1-.5 2.1a9.65 9.65 0 0 1-1.7 0zm8 0c0-.1.3-1 .6-2.1a17.27 17.27 0 0 0 .6-3v-1l-.6.1c-.4 0-.6 0-.6-.2s.1-.3.7-.5c1.4-.4 1.8-.4 2.1-.2s.2.4.3.6 0 .3.1.3.5-.2 1.1-.4a7.41 7.41 0 0 1 3.5-.6c.3.2.4.2.3.9-.1.4-.3 1.5-.6 2.5a13.58 13.58 0 0 0-.5 2.2c0 .5 0 .5.6.5s.7.1.8.2c.1.3 0 .4-1 .7s-2.2.3-2.3 0a14.29 14.29 0 0 1 .5-2.8c.7-2.8.7-3.1.4-3.3a4 4 0 0 0-2.3 1c-.6.5-.7.6-1.1 2.1-.2.8-.4 1.8-.5 2.2s-.2.7-.3.7a6.22 6.22 0 0 1-1.8.1zm10.9-.1a13.6 13.6 0 0 1 .6-3 12.27 12.27 0 0 0 .6-2.9c-.1-.1-.2-.2-.6-.1a1.27 1.27 0 0 1-.6.1v-.3c0-.3.1-.4.8-.5 1.9-.5 2.5-.4 2.3.3 0 .2-.4 1.4-.7 2.8a17.34 17.34 0 0 0-.6 2.6c.1.2.3.2.8.1.7-.1.7-.1.7.2 0 .8-3.1 1.3-3.3.7zm6 0c-.1-.2 0-.9.6-3.4.7-2.8.7-2.5.1-2.5s-.6-.4.2-.8a1.89 1.89 0 0 0 1.1-1.2c.4-.7.6-.9.9-.9.5-.1.5 0 .1 1.5l-.1.5h.8c.7 0 .8 0 .7.2a.6.6 0 0 0-.1.4c0 .2-.2.2-.8.2h-.8l-.5 2.4a9.59 9.59 0 0 0-.4 2.7c.1.2.2.2.6.1.7-.2.8-.2.8.2s-.1.4-.9.6c-1.1.4-2.1.4-2.3 0zm6.5-.1c-.4-.4-.5-.4-.5-1.8a3.49 3.49 0 0 1 .6-2.5 4.42 4.42 0 0 1 2.8-2.4c2.3-.8 3.9.5 2.9 2.3a4.32 4.32 0 0 1-3.6 1.7c-.9 0-1 0-1.1.4a1.6 1.6 0 0 0 .4 1.5c.4.4 1 .3 2.1-.2.8-.4 1-.4 1.1-.2.3.4.1.6-.9 1a4.19 4.19 0 0 1-2.2.5c-.9.1-1.1.1-1.6-.3zm3.5-3.9c1.1-.5 1.4-1.6.7-2.1a.78.78 0 0 0-.8-.1 3.47 3.47 0 0 0-1.7 2l-.3.7.7-.1a2.89 2.89 0 0 0 1.4-.4zM0 95.6a.45.45 0 0 1 .4-.3 1.84 1.84 0 0 0 1.2-1.1 60.47 60.47 0 0 0 1.8-8.1c0-1.1 0-1.1-.5-1.4-1-.6-.7-.7 2-.7 2.2 0 2.5 0 2.5.2s-.2.3-.5.3c-1 .2-1.4 1.1-2.4 5.5-.9 4.2-.9 4.1-.5 4.4s.5.3 1.7.2c1.7-.1 2.3-.3 2.9-1.2.5-.4.6-.4.9-.3s.2.2 0 .8c-.2.4-.4.9-.6 1.3l-.4.6H4.2c-4 .1-4.2.1-4.2-.2zm80.4.1c0-.1.3-.3.6-.5a2 2 0 0 0 .9-.9c.5-.8 1.8-7 1.9-8.2 0-1 0-1-.5-1.3-1.1-.6-.8-.7 4-.7 4.4 0 4.5 0 4.4.3a4.91 4.91 0 0 0-.3 1.3c-.2.8-.2 1-.5 1s-.3 0-.3-.3c0-1-.6-1.2-2.9-1.2h-1.5l-.4 1.8c-.2.7-.3 1.4-.5 2.1-.1.2.1.2 1.3.2 1.6 0 2.1-.2 2.5-.8s1-.6.8-.1l-.3 1.6c-.2 1-.3 1.3-.5 1.3s-.3-.2-.4-.4a1.47 1.47 0 0 0-.5-.6 8.2 8.2 0 0 0-3.1-.1 24.89 24.89 0 0 0-.8 3.4c-.1.6-.1.7.3.9s.7.2 1.8.2c1.7-.1 2.2-.3 2.9-1.2.3-.4.6-.6.7-.5.3.1.3.4-.2 1.4-.7 1.5-.3 1.4-5.2 1.4-3.4 0-4.1 0-4.2-.1zm80.8 0c0-.1.2-.3.5-.4 1-.3 1.3-1.1 2.3-5.8.9-4 .8-4.6-.2-4.9q-.3-.15-.3-.3a21 21 0 0 1 4.5-.2c4.3 0 4.4 0 4.3.2a6.3 6.3 0 0 0-.3 1.3c-.2.8-.2 1-.5 1s-.4 0-.4-.4c0-.9-.8-1.2-2.9-1.1h-1.3l-.4 1.9c-.2 1-.4 1.9-.4 2 0 .3 2.4.2 3 0a1.41 1.41 0 0 0 .6-.7.51.51 0 0 1 .5-.4c.4 0 .4-.1 0 1.8-.3 1.4-.4 1.6-.6 1.6a.27.27 0 0 1-.3-.3c0-.7-1.5-1.2-2.9-1l-.6.1-.3 1.6c-.6 2.8-.5 3.1.3 3.4 1 .4.4.5-2.1.5a11.39 11.39 0 0 1-2.5.1zm-93.3-3.1a2.35 2.35 0 0 1-1.3-1.9 2.4 2.4 0 0 1 2.4-2.2c1.5 0 2.4.8 2.4 2.1 0 1.7-1.7 2.7-3.5 2zm81 0a2 2 0 0 1-.9-.7 1.48 1.48 0 0 1-.4-1.3c0-1.3.9-2.1 2.4-2.1a2.41 2.41 0 0 1 1.5.4 2 2 0 0 1 .4 3.1 2.83 2.83 0 0 1-3 .6zm-95.1-5.1c-.3-.3-.3-.3 1.5-2.1l.6-.6.9.2c.5.1.9.2.9.3s-3.4 2.6-3.5 2.6l-.4-.4zm80.9 0l-.4-.3 1.2-1.2c.7-.7 1.3-1.2 1.3-1.2a8.51 8.51 0 0 1 1.7.4c0 .1-3 2.2-3.4 2.5 0 .1-.2 0-.4-.2zm105.7 0l-.4-.3 1.2-1.2a7 7 0 0 1 1.4-1.2 5.28 5.28 0 0 1 1.7.4 37.82 37.82 0 0 1-3.4 2.5c0 .1-.3 0-.5-.2zm-226.9-.7c-.6-.6 0-1.7 1-1.7.7 0 1 .3 1 .9a1.19 1.19 0 0 1-2 .8zm107.3.1a1.09 1.09 0 0 1 0-1.5c.7-.6 1.9-.2 1.9.6a1.28 1.28 0 0 1-1.9.9zm105.6-.1c-.7-.6 0-1.7 1-1.7a1 1 0 0 1 .7 1.7 1.35 1.35 0 0 1-1.7 0zM87.1 82.7c-.2-.2-.2-.3 1-1.5l1.2-1.2.9.2c.5.1.9.2.9.3a23.83 23.83 0 0 1-3.5 2.4.37.37 0 0 1-.5-.2z"/><path d="M139.9 74.6l.4-.9a17.84 17.84 0 0 1 2.2-4.1 15.62 15.62 0 0 1 4.1-3.8 7.87 7.87 0 0 1 4.2-.5c1.5.1 6 .8 7.9 1.2a13.18 13.18 0 0 0 4.4.1 4.37 4.37 0 0 0 3.5-3 3.85 3.85 0 0 0 0-3c-.5-1-.5-1.2.9-2.4a5.87 5.87 0 0 0 1.2-1.2 4.34 4.34 0 0 0-1.1-1.9 1.1 1.1 0 0 1-.6-.3l-.4-.3.8-.4c1.1-.5 1.9-1.3 1.9-1.8a3.62 3.62 0 0 0-.5-1.3 2.59 2.59 0 0 1-.4-2.3c.2-.3.5-.5 2.2-.9 1.4-.4 1.9-.7 2.1-1.6a2.24 2.24 0 0 0-.4-2c-.4-.7-2.8-4.1-3.5-4.9a15.07 15.07 0 0 1-2.5-4.1 3.24 3.24 0 0 1-.1-2.4c.5-2.8.2-5.1-1.3-9.6-1.1-3.3-1.4-4.2-1.8-4.8-.6-1.1-.6-1.4.7-2.3a9.65 9.65 0 0 0 1.3-1.1 2 2 0 0 0-.8-2.3c-.5-.2-.7-.1-1.2.7-.4.6-.5.7-.9.7-.6 0-.7-.2-.3-.7s.4-.7-.3-.8-.8-.3-2-1.4a13.94 13.94 0 0 0-4.8-3c-1-.4-1.3-.6-1-.5s1.4.1 2.4.2c2.9.1 3.7-.2 4.4-2.1.5-1.3.7-1.9-.4-2.8l-3.9-3h88.2v74.6z" fill="#e2011c"/><path d="M64.7 74.6a8.33 8.33 0 0 0-1.2-.1c-.1-.1.7-.5 4-2.3 1.1-.6 1.5-.9 1.4-1a13.71 13.71 0 0 0-2.1-.2 5.18 5.18 0 0 0-2.4.1c-.3.1-1.5.4-2.7.7-2.9.7-3.8 1.1-4.8 2.3l-.3.4H0V0h112.3l-2.2 1.3A16.46 16.46 0 0 0 107 3a17.59 17.59 0 0 0-4.6 5.8c-.2.6-.4.8-1.1 1.2a13.17 13.17 0 0 0-3.2 3.1 63.26 63.26 0 0 0-4.4 7c-.8 1.7-.7 3.1.4 8.3.5 2.3 1 4.6 1.2 5.2a15.53 15.53 0 0 1 .4 2.1 5.07 5.07 0 0 0 .9 2.6 2.94 2.94 0 0 1 .3.9.54.54 0 0 0 .3.4.55.55 0 0 1 .3.5q0 .3 1.2 1.5c1.8 1.8 3.1 3.5 3.1 4s-.7.6-1.9.3a8.52 8.52 0 0 1-4.1-2.4c-.7-.6-1.3-1.1-1.3-.9s.5.7 1.1 1.3c1.2 1.2 1.4 1.5 1.1 2s-.8.5-1.5.3c-.9-.2-1.4.1-1.2.7.1.4.1.4-.2.4a12.16 12.16 0 0 0-2.5-.5c-.9-.1-1-.1-1.5-.8a1.94 1.94 0 0 0-1.1-.8c-1.6-.4-5.5-1-8.1-1.3-4.6-.5-5.8-.5-8-.2a8.87 8.87 0 0 0-3.1.7c-1.7.8-4.5 3.1-4.5 3.8 0 .3.6.2 1.3-.2 2.2-1.2 9.7-2.9 13.4-3.1 1.8-.1 1.7 0-.5.4-.6.1-2 .4-3.2.7s-3.1.8-4.4 1.1-2.7.6-3.2.8l-.9.3h1.3c6.9.1 14.7 2 17.9 4.5 1.4 1.1 1.9 1.2 3.9 1a19.84 19.84 0 0 0 7.9-2.6c.7-.5 1.2-.7 1.2-.4a14.3 14.3 0 0 1-1.3 3.6c-.4.7-.5.8-.2 1l.2.2c-.1.1.1.1.2.2.5.2.4.3-.4.5-.5-.2-1.2.1-1.2.3s.1.1.2.1c.4 0 .1.3-.4.4s-.4.1-.3.2.2.1 0 .1-.2.1-.2.3-.2.4-.5.5c-.8.3-.6.5.5.4.6-.1.9-.1.8 0s-1 .4-2 .8-2.2.9-2.8 1.1-1.1.4-1.1.6.2.2 1 0c.1-.1.3 0 .3 0s-1.7.9-3.7 1.9a34.69 34.69 0 0 0-4.2 2.3 1.89 1.89 0 0 1-.8.5.66.66 0 0 0-.5.4c-.3.6-.3.7.5.6 1.1-.2 1.6-.2 1.7 0a.22.22 0 0 1-.2.2.76.76 0 0 0-.5.2 1.07 1.07 0 0 1-.6.2c-.3 0-.5.2-.8.5s-.5.5-.6.5.1.1.6 0c7.2-.5 8.5-.7 11.4-2a25.15 25.15 0 0 0 6.8-4.5 4.52 4.52 0 0 1 1.1-.9c.2 0 .1.8-.3 1.5-.6 1.2-2 2.4-4.7 4a26.32 26.32 0 0 1-3.3 1.7 45.12 45.12 0 0 1-5.9 1.1c-7.5 1-10.4 1.7-13.3 3.4a4.13 4.13 0 0 1-1.1.5 2.85 2.85 0 0 0-.8.4c-.8.7-.2.5 1.5-.3s2.7-1 1.2-.2c-1.8 1-3.1 1.6-4.4 1.6h-6.9zm-9.3-8.3a23.42 23.42 0 0 0 2.1-1.1c.9-.5 1.9-1 2.3-1.2l2.5-1c2-.8 5-1.6 5.1-1.3a1.85 1.85 0 0 0 1 .2c.7 0 .8.1.5.2l-.4.2c0 .3 1.5.2 2.1-.1a10.38 10.38 0 0 1 1.2-.3c.5-.1.8-.2.8-.3s.1-.2.6-.1c.7.1 2.1-.1 6-1a40.29 40.29 0 0 0 6.3-1.9l1.3-.5-1.3-.7c-3.1-1.8-6.2-2.9-13-4.6a13.18 13.18 0 0 1-2.3-.7c-.1-.1-.1-.1.2 0 .7.2 1.2.3 1.2.1s-.5-.4-1.5-.5-1.5-.4-.9-.4c1 0-.7-.6-2.6-.9-1.4-.2-1.5-.3-.9-.5s1.1-1.1.9-1.4-.3-.3-1 .2a10.36 10.36 0 0 0-3.6 3.9c-.4.9-.3.9 1.9 1 1.8.1 1.9.1 1.4.3a2.66 2.66 0 0 1-1.2.3c-1.3.2-2 .7-1.4 1.1.2.1.1.2-.3.4s-.4.1-.2.3a2.79 2.79 0 0 0 1 .1c.6 0 .8 0 1.1.2l.4.3-.7.3a2.93 2.93 0 0 0-1 .9 11.05 11.05 0 0 1-1.2 1.3 4.52 4.52 0 0 0-.9 1.1 6.14 6.14 0 0 1-1.6 1.4c-2.4 1.7-3.5 2.7-3.5 3.2a.62.62 0 0 1-.4.6c-.8.4-1.1 1-.7 1a4.08 4.08 0 0 0 .7-.2zM74 64.6a3.94 3.94 0 0 0 1.5-.4l.4-.2-.8-.3-.8-.3-.8.3a11.21 11.21 0 0 1-1.3.5c-1.2.4-1.3.9-.2.8a17.66 17.66 0 0 1 2-.4zm-27-6.5a55.18 55.18 0 0 1 9.2-7.3c1.1-.7 1.8-1.1 1.9-1 .1.3.6.2 1.3-.2.9-.5 1.3-1 2.4-2.8a8.1 8.1 0 0 1 3.2-3.4 27 27 0 0 0 2.5-1.8c.9-.6 1.1-.7 1-.5s0 .3.1.3a7.09 7.09 0 0 0 2.1-.8c.1-.3-1.6-.5-2.9-.4a6.79 6.79 0 0 0-2.5.7c-2.9 1.4-4.9 2.9-8.9 6.5a31.1 31.1 0 0 1-6.2 4.8c-.4.2-.6.5-1.1 1.3a41.54 41.54 0 0 1-3.9 5.7c-1.4 1.8-1.7 2.4-.6 1.2.8-.8 1.6-1.6 2.4-2.3zm35.5 15.7a37.58 37.58 0 0 1 7.7-1c3.4-.1 3.8-.2 5.8-1.1.6-.3.9-.3 1-.2s1.3-.3 3.4-1.7a30.94 30.94 0 0 1 2.7-1.6 3.13 3.13 0 0 1 1.7-.5c.5.1.6 0 1.3-.5a7.34 7.34 0 0 1 4.7-2c.4 0 .6.1.6.2s.1.2.2.1c.4-.2.2 0-.9.8-1.3.9-1.2 1.2.1.3s1.3-.8 1.3-.5-.5.7-1.4 1.3a41.6 41.6 0 0 0-5.7 5l-2 1.9H78l4.5-.5zm0-29.2h.6c.2 0 0 .1-.3.1s-.4-.1-.3-.1z" fill="#003189"/><path d="M156.7 39.1c-.7-.1-.3-.3.5-.3s1.3-.3 1.3-.8c0-.3-.1-.3-.3-.2s-.4 0-.6-.2-.5-.3-1-.4c-.9-.1-2.4-.9-2.1-1.1a2.15 2.15 0 0 1 1-.2c.8-.1.9-.1 1.1-.6a.9.9 0 0 1 .6-.6 1.52 1.52 0 0 0 .8-.4 6.38 6.38 0 0 1 1.6-1c1.1-.7 1.8-1.3 1.5-1.6a12.12 12.12 0 0 0-3.8-.4 26 26 0 0 0-4.5.8c-1 .3-.7 0 .6-.7a18.34 18.34 0 0 1 7.1-1.9 15.43 15.43 0 0 1 3.5.7c.6.4-.1 1.9-1.1 2.7l-.4.3.7.7-.4.3a3.29 3.29 0 0 1-.6.3 2.85 2.85 0 0 0-.8.4c-.4.4-.5.5-.4.8a.64.64 0 0 1 0 .6 3.11 3.11 0 0 0-.1 1.1c.1 1-.1 1.3-.8 1.5-.3.3-2.4.3-3.4.2z" fill="#7f7f7f"/><path class="cls-8" d="M319.5 80.8h8.7V37.5h-8.7V53a15.68 15.68 0 0 0-10.9-4.2c-9 0-16.3 6.7-16.3 16.5a16.3 16.3 0 0 0 16.5 16.4 15.21 15.21 0 0 0 10.7-4.1v3.2zm-9.1-24.9c5.5 0 9.5 3.7 9.5 9.2a9.11 9.11 0 0 1-9.5 9.4 9 9 0 0 1-9.3-9.3c0-5.2 3.5-9.3 9.3-9.3zm52.2 24.9h8.7V49.5h-8.7V53a15.68 15.68 0 0 0-10.9-4.2c-9 0-16.3 6.7-16.3 16.5a16.3 16.3 0 0 0 16.5 16.4 15.21 15.21 0 0 0 10.7-4.1v3.2zm-9.1-24.9c5.5 0 9.5 3.7 9.5 9.2a9.11 9.11 0 0 1-9.5 9.4 9 9 0 0 1-9.3-9.3c-.1-5.2 3.5-9.3 9.3-9.3zm27.5-6.4h-4.4v6.7h4.4v24.5h8.7V56.3h5.2v-6.7h-5.1V38h-8.7l-.1 11.5zm44.3 31.3h8.7V49.5h-8.7V53a15.68 15.68 0 0 0-10.9-4.2c-9 0-16.3 6.7-16.3 16.5a16.3 16.3 0 0 0 16.5 16.4 15.21 15.21 0 0 0 10.7-4.1v3.2zm-9.2-24.9c5.5 0 9.5 3.7 9.5 9.2a9.11 9.11 0 0 1-9.5 9.4 9 9 0 0 1-9.3-9.3 8.92 8.92 0 0 1 9.3-9.3zm31.3 16.7a4.73 4.73 0 0 0-5 4.5 5 5 0 1 0 5-4.5zm47.8-23.1h-8.7V53a16.1 16.1 0 0 0-11-4.2c-8.8 0-16.2 6.4-16.2 16 0 9.4 7.3 16.1 16.6 16.1a14.94 14.94 0 0 0 10.5-3.9c0 2.9-.1 5.1-2.2 6.8a11.86 11.86 0 0 1-7.4 2.1c-3.7 0-6.3-.8-8-2.7h-9.6c2.3 6.5 8.4 9.9 17.9 9.9 5.3 0 9.5-1.1 12.6-3.5 4-3.1 5.3-7.1 5.3-13.2l.2-26.9zm-17.7 6.4c5.7 0 9.5 3.9 9.5 8.9 0 5.3-4 8.8-9.3 8.8s-9.5-3.6-9.5-8.8c-.1-4.8 3.6-8.9 9.3-8.9zm42.8-7.2c-9.5 0-17.9 7-17.9 16.5 0 9.2 8 16.4 18 16.4 10.6 0 18.3-7.4 18.3-16.5s-8.3-16.4-18.4-16.4zm.1 7.4c5.7 0 9.5 3.8 9.5 9.1 0 5.5-4.2 9-9.5 9-5.6 0-9.3-3.8-9.3-9.1a8.91 8.91 0 0 1 9.3-9zm25.3 7.8a36.08 36.08 0 0 0 .3 6.6c1.4 7.3 6.5 11.1 14.9 11.1 4.8 0 8.4-1.2 11.2-3.9 3.7-3.6 4.1-7.9 4.1-13.7V49.5h-8.7v16.7c0 5.3-1.9 8.2-6.5 8.2s-6.5-2.9-6.5-8.5V49.5h-8.7l-.1 14.4zM596 80.8h5.6l14.7-31.3h-8.8L598.8 68 590 49.5h-8.9L596 80.8zm27.6-6.2a4 4 0 0 1 2.8 1 3.2 3.2 0 0 1 0 5 4.42 4.42 0 0 1-5.6 0 3.39 3.39 0 0 1 0-5 4 4 0 0 1 2.8-1zM660 50.3l-.7 2.3h-5.6l-4.2 15.1a87.55 87.55 0 0 1-5.6 15.5c-2.7 5.1-5.6 8.7-8.7 10.7a13.1 13.1 0 0 1-7.1 2.2 6.45 6.45 0 0 1-3.9-1.2 2.63 2.63 0 0 1-1.2-2.2 2.28 2.28 0 0 1 1-1.9 3.65 3.65 0 0 1 2.4-.8 2.79 2.79 0 0 1 1.8.6 1.62 1.62 0 0 1 .7 1.4 1.87 1.87 0 0 1-.8 1.4 1.49 1.49 0 0 0-.6.7.55.55 0 0 0 .3.5c.2.2.6.2 1.1.2a7.91 7.91 0 0 0 3.5-.9 9.4 9.4 0 0 0 3.2-2.8 19.88 19.88 0 0 0 2.7-5.3c.4-1 1.3-4.2 2.9-9.6l6.7-23.4H641l.5-2.3a15 15 0 0 0 4.4-.4 6.51 6.51 0 0 0 2.3-1.5 32.85 32.85 0 0 0 2.8-4.2 35.08 35.08 0 0 1 4.3-6.4 20.19 20.19 0 0 1 5.9-4.6 14.15 14.15 0 0 1 5.9-1.6 7.69 7.69 0 0 1 4.7 1.3 3.63 3.63 0 0 1 1.8 2.9 2.52 2.52 0 0 1-.9 2 3 3 0 0 1-2.3.8 3.38 3.38 0 0 1-2-.6 1.8 1.8 0 0 1-.7-1.5 2.67 2.67 0 0 1 .5-1.3 4.13 4.13 0 0 0 .5-1.1.78.78 0 0 0-.3-.7 2.81 2.81 0 0 0-1.5-.3 7.14 7.14 0 0 0-4.3 1.4 16.15 16.15 0 0 0-4.6 5.7 94.05 94.05 0 0 0-3.8 10.1l5.8-.2z"/><path class="cls-8" d="M662.6 51.4l13.2-1.9-5.5 16.8c4.5-6.9 8.5-11.7 12.2-14.5q3.15-2.4 5.1-2.4a2.72 2.72 0 0 1 2 .7 2.35 2.35 0 0 1 .7 1.9 8 8 0 0 1-1.3 4.4 3 3 0 0 1-2.6 1.6 2.2 2.2 0 0 1-2.3-2.1 1.9 1.9 0 0 0-.3-.9 1.08 1.08 0 0 0-.7-.3 2.66 2.66 0 0 0-1.2.3 10.57 10.57 0 0 0-3 2.7 85 85 0 0 0-6.9 8.8 24.84 24.84 0 0 0-2.8 5.1 40.72 40.72 0 0 0-1.8 4.7l-1.2 4.4h-5.9l7.1-21.5a20.89 20.89 0 0 0 1.2-5.3 1.1 1.1 0 0 0-.6-1 3.17 3.17 0 0 0-2-.6 28.53 28.53 0 0 0-3 .3l-.4-1.2z"/></g></g><path class="cls-8" d="M486.19 94.11V23.42h13.5V46a25.53 25.53 0 0 1 8-5.26 26 26 0 0 1 9.5-1.57 29.2 29.2 0 0 1 14.55 3.65 26.29 26.29 0 0 1 10.18 10.07 28.42 28.42 0 0 1 3.68 14.37 28.76 28.76 0 0 1-6.6 18.81q-7.75 9.3-20.85 9.3a28.46 28.46 0 0 1-10.72-1.82 27.19 27.19 0 0 1-8.83-6.22v6.78zM515 50.84a15.49 15.49 0 0 0-11.59 4.67 16.41 16.41 0 0 0-4.54 11.92 15.64 15.64 0 0 0 4.67 11.7 16.42 16.42 0 0 0 12 4.56 16.09 16.09 0 0 0 11.81-4.51 15.76 15.76 0 0 0 4.57-11.75 16.08 16.08 0 0 0-4.69-12A16.63 16.63 0 0 0 515 50.84zm99.5 22.43h-43.6a12.75 12.75 0 0 0 5.41 7.62 17.84 17.84 0 0 0 10.18 2.81 17.66 17.66 0 0 0 6.95-1.19 15.88 15.88 0 0 0 5.41-4.09h14.75a22.09 22.09 0 0 1-4.47 7.39q-8.73 9.58-22.34 9.58a33.65 33.65 0 0 1-12-2.15 30.28 30.28 0 0 1-9.7-5.82 27.14 27.14 0 0 1-6.43-8.78 25.3 25.3 0 0 1-2.39-10.82 26.38 26.38 0 0 1 3.95-14.09A28.28 28.28 0 0 1 571 43.57a30.87 30.87 0 0 1 15-3.71 30.45 30.45 0 0 1 14.94 3.67 26.58 26.58 0 0 1 10.4 10.19A28.83 28.83 0 0 1 615 68.37a22.84 22.84 0 0 1-.47 4.9zm-44-11.21h31.22a12.84 12.84 0 0 0-5.31-7.8 18 18 0 0 0-10.28-2.71 17.61 17.61 0 0 0-10.05 2.69 14 14 0 0 0-5.57 7.82zM630 94.11V52.67h-6.6V41.08h6.6V23.42h13.5v17.66h8.14v11.59h-8.14v41.44zm89.92-53v53h-12.36v-6.87a23.18 23.18 0 0 1-18.72 8.13 30.06 30.06 0 0 1-14.61-3.53A25.63 25.63 0 0 1 664.09 82a27.87 27.87 0 0 1-3.65-14.21 28.33 28.33 0 0 1 3.67-14.37 26 26 0 0 1 10.23-10 30.24 30.24 0 0 1 14.79-3.6 25.57 25.57 0 0 1 10.52 2 21.31 21.31 0 0 1 7.89 6.33v-7.1zm-29.59 10.43a15.61 15.61 0 0 0-11.64 4.67 16.23 16.23 0 0 0-4.59 11.87 14.71 14.71 0 0 0 4.64 11.29q4.64 4.32 12 4.32t11.84-4.4a15.35 15.35 0 0 0 4.49-11.49 15.57 15.57 0 0 0-4.7-11.73 16.64 16.64 0 0 0-12.04-4.53zm52.89 33a5.51 5.51 0 0 0-5.6 5.43 5.45 5.45 0 0 0 5.49 5.17c3.15 0 5.8-2.3 5.8-5.17a5.67 5.67 0 0 0-5.69-5.43zM810 41.08h12.91v43a49.47 49.47 0 0 1-1.46 13.1 22.23 22.23 0 0 1-4.74 8.9q-8 9.21-23 9.2a34.92 34.92 0 0 1-17.92-4.44 25.88 25.88 0 0 1-11-12.43h15.34a18 18 0 0 0 6.2 4.37 21.53 21.53 0 0 0 7.95 1.29q7.55 0 11.47-4.21T810 87.11a25.39 25.39 0 0 1-8.26 6.33 24.71 24.71 0 0 1-10.25 1.94 28.3 28.3 0 0 1-14.27-3.6 25.24 25.24 0 0 1-9.85-10 29.64 29.64 0 0 1-3.53-14.51 26.4 26.4 0 0 1 7.89-19.58q7.89-7.81 19.85-7.8 12.12 0 18.42 7.94zm-17.07 10.46A14.73 14.73 0 0 0 781.74 56q-4.24 4.47-4.25 11.8t4.29 11.57q4.3 4.32 11.54 4.32T805 79.32q4.37-4.37 4.37-11.7a15.56 15.56 0 0 0-4.5-11.62q-4.54-4.45-11.94-4.46zm73.59-11.68a30.55 30.55 0 0 1 14.89 3.74 28.48 28.48 0 0 1 10.82 10.16 26 26 0 0 1 4 14 25.63 25.63 0 0 1-4 13.85 28.57 28.57 0 0 1-10.9 10.09 32.24 32.24 0 0 1-30.06 0 28.7 28.7 0 0 1-10.94-10.09 25.46 25.46 0 0 1-4-13.85 25.86 25.86 0 0 1 2.36-10.87 27.29 27.29 0 0 1 6.4-8.87 30.57 30.57 0 0 1 9.66-5.91 32.12 32.12 0 0 1 11.77-2.25zM866 51.54a16.19 16.19 0 0 0-16 16.07A15.4 15.4 0 0 0 854.71 79a15.7 15.7 0 0 0 11.47 4.72A16 16 0 0 0 877.74 79a15.2 15.2 0 0 0 4.81-11.28 15.38 15.38 0 0 0-4.81-11.5A16.25 16.25 0 0 0 866 51.54zm93.5-10.47v53H947V89a25.23 25.23 0 0 1-7.47 4.93 25.94 25.94 0 0 1-18.88-.74 18.45 18.45 0 0 1-7.3-6.19 20.92 20.92 0 0 1-3.08-7.1 48.21 48.21 0 0 1-.89-10.37V41.08h13.55V67a44.52 44.52 0 0 0 .65 8.62 10.59 10.59 0 0 0 2.18 4.88 10.14 10.14 0 0 0 7.84 3.18 14.27 14.27 0 0 0 6.28-1.33A9.65 9.65 0 0 0 944 78.6a12.29 12.29 0 0 0 1.51-4.6 56.79 56.79 0 0 0 .42-7.92v-25zm33.53 53l-22.69-53h15l13 35.14 12.81-35.14h15.29l-22.69 53zm40.58-9.57a5.35 5.35 0 0 0-5.26 5.45 5.27 5.27 0 0 0 5.16 5.16 5.33 5.33 0 0 0 5.45-5.16 5.49 5.49 0 0 0-5.37-5.4zm-570.34 0a5.51 5.51 0 0 0-5.6 5.43 5.45 5.45 0 0 0 5.49 5.17c3.15 0 5.8-2.3 5.8-5.17a5.67 5.67 0 0 0-5.71-5.39zM287 36.27V24.65h6.84v11.62zm0 56.5V42.35h6.84v50.42zm24.58 0V48.51h-10.85v-6.16h10.85v-17.7h6.84v17.7h11.35v6.17h-11.34v44.25zm47.77-51.64a25.89 25.89 0 0 1 13.26 3.44 24.51 24.51 0 0 1 9.27 9.52 27.69 27.69 0 0 1 3.35 13.6q0 11.34-7.29 18.82A24.64 24.64 0 0 1 359.53 94a27.87 27.87 0 0 1-13.78-3.42 24.76 24.76 0 0 1-9.66-9.45 26.45 26.45 0 0 1-3.49-13.5q0-11.48 7.56-19t19.19-7.5zm-.54 6.26A18.21 18.21 0 0 0 345 53.17a20.25 20.25 0 0 0-5.49 14.52A19.48 19.48 0 0 0 345.17 82a19.14 19.14 0 0 0 14.18 5.67 18 18 0 0 0 13.65-5.6q5.34-5.61 5.34-14.29 0-8.91-5.49-14.65a18.6 18.6 0 0 0-14.04-5.74zm80.54-5v50.38h-6.8v-7.84a16.76 16.76 0 0 1-6.48 6.87 19.83 19.83 0 0 1-9.77 2.2 23.57 23.57 0 0 1-10.38-2.18 18.12 18.12 0 0 1-7.32-6.33q-3.69-5.3-3.69-15.93V42.35h6.84v27.19q0 8.29 2.57 12.15a12 12 0 0 0 5.06 4.41 16.61 16.61 0 0 0 7.36 1.58 16.41 16.41 0 0 0 7.32-1.62 14.08 14.08 0 0 0 5.43-4.64q3.06-4.54 3.06-13.19V42.35z"/><path class="cls-8" d="M1051.53 45h11.11l-11.23 52c-2.93 13.43-7 20.14-12.21 20.14a2.17 2.17 0 0 1-2.44-2.07 2.31 2.31 0 0 1 .49-1.22 3.63 3.63 0 0 0 .61-2.07 4.79 4.79 0 0 0-4.83-4.76h-.03c-2.56 0-4.52 2.32-4.52 5.25 0 4.15 4.27 7.45 9.64 7.45 11.11 0 19.78-12.21 25.15-35L1072.4 45h13.6l.73-3.91h-13.31c3.66-19.53 8.42-28.2 15.26-28.2 1.71 0 2.69.61 2.69 1.58a2.7 2.7 0 0 1-.49 1.22 4.15 4.15 0 0 0-.73 2.56c0 2.93 1.83 4.88 4.52 4.88a5.24 5.24 0 0 0 5.24-5c0-4.52-4.51-7.94-10.62-7.94s-10.87 2.69-15.38 8.43c-3.67 4.88-6.23 10.49-10 22.46h-11.47zm43.09 49.07c6.71-21.36 8.79-26.36 14.4-35.76 4.27-7 7.69-10.74 9.76-10.74.86 0 1.47.48 2.08 1.71 1 2.07 1.95 2.69 4.39 2.69 3.67 0 5.74-2.2 5.74-6.1s-2.32-6.34-5.74-6.34c-2.81 0-6.22 1.83-9.4 5.24-5.13 5.13-10.25 12.57-12.21 17.33l-1.83 4.52 6.83-26.85-.36-.24c-8.91 1.58-10.25 1.83-19.17 3.3v2.07a22.46 22.46 0 0 1 4.15-.61c2.69 0 4.27 1.22 4.27 3.42a62.37 62.37 0 0 1-2 10.25l-10.37 36.13z"/></svg>