<svg xmlns="http://www.w3.org/2000/svg" viewBox="0 0 831 663"><g fill="none"><path fill="#000" d="m20.21 661.7.47-1.43c-6.16-1.16-6.95-1.16-4.5-7.88l2.5-6.9h6.8c3.07 0 3.11 1.26 2.65 4.6h1.76l4.07-11.17H32.2c-1.52 2.64-2.73 4.58-6.06 4.58h-6.71l3.56-9.77c1.11-3.1 1.76-3.75 5.92-3.75h2.97c4.3 0 4.81 1.16 4.81 5.51h1.72l1.43-7.6H14.28l-.46 1.45c4.95 1.02 5.42 1.48 3.1 7.87l-5.55 15.18c-2.32 6.35-3.3 6.86-8.99 7.88l-.42 1.43h18.25zm35.47-18.61c.88-3.01.42-5.65-1.9-5.65-2.73 0-3.43 2.08-6.2 8.06v-3.43c0-2.46-.8-4.63-3.01-4.63-2.6 0-4.96 4.03-6.76 8H39c1.25-1.8 2.4-2.86 3.33-2.86 1.12 0 1.72 1.71 0 5.5l-5 11.12c-.92 2.08.05 3.43 2.09 3.43 1.25 0 1.8-.33 2.31-1.67l4.91-13.01a80.73 80.73 0 0 1 4.21-4.86h4.82zm22.5-6.72-1.94-.14-2.18 2.13h-.46c-10.56 0-19.68 11.86-19.68 20.47 0 2.4 1.48 3.8 3.8 3.8 2.73 0 5.42-3.9 8.43-8.06l-.14 1.48c-.37 4.26.92 6.58 3.15 6.58 2.59 0 4.95-4.03 6.76-8.01h-1.2c-1.26 1.8-2.42 2.87-3.34 2.87-.97 0-1.67-1.76 0-5.51l6.8-15.6zM58.7 655.41c0-5.7 6.34-13.43 9.91-13.43.79 0 1.53.09 2.18.27l-3.71 9.87c-2.13 2.6-5.42 5.74-6.95 5.74-.87 0-1.43-.74-1.43-2.45zM82.07 641h4.26l-6.76 18.47c-.6 1.57.23 3.15 1.86 3.15 3.84 0 10.04-3.8 12.22-8.99h-1.2c-1.72 1.81-5 4.22-7.83 4.73l6.2-17.37h6.35l.79-2.64H91.8l2.36-6.67h-2.45l-4.4 6.67-5.24.74v1.9zm30.24 12.68h-1.57c-2 2.36-4.12 4.22-6.25 4.22-2.18 0-3.3-1.3-3.3-4.22 0-1.2.15-2.4.38-3.52l12.83-4.2c2.5-5.94-.51-8.53-4.03-8.53-6.07 0-12.97 10.14-12.97 19.03 0 3.98 1.9 6.16 4.86 6.16 3.48 0 7.1-3.38 10.05-8.94zm-4.4-12.83c1.72 0 3.2 1.3 2.4 4.59l-7.96 1.85c1.4-3.7 3.71-6.44 5.56-6.44zm28.44 2.23c.88-3.01.42-5.65-1.9-5.65-2.74 0-3.43 2.08-6.2 8.06v-3.43c0-2.46-.8-4.63-3.02-4.63-2.59 0-4.95 4.03-6.76 8h1.2c1.26-1.8 2.42-2.86 3.34-2.86 1.11 0 1.71 1.71 0 5.5l-5 11.12c-.93 2.08.04 3.43 2.08 3.43 1.25 0 1.8-.33 2.32-1.67l4.9-13.01c1.4-1.71 2.65-3.2 4.22-4.86h4.82zm.09 16.11c-.93 2.08.04 3.43 2.08 3.43 1.25 0 1.8-.32 2.32-1.67l4.9-13.01c2.28-2.78 6.95-5.74 8.8-5.74 1.35 0 1.16 1.11.28 2.77l-7.55 14.5a2.13 2.13 0 0 0 1.86 3.15c3.7 0 8.1-3.34 9.86-8.01h-1.2c-1.2 1.71-3.24 3.61-5.15 3.94l6.49-13.11a10.48 10.48 0 0 0 1.25-4.5c0-2.12-1.2-3.51-3.43-3.51-3.2 0-6.43 3.61-10.28 8.06v-3.43c0-2.46-.78-4.63-3-4.63-1.4 0-2.74 1.2-4 2.92v.46c2.42-.14 3.48 3.47 1.77 7.27l-5 11.11zm40.8-28.34a3.05 3.05 0 0 0 3.05-3.05 3.08 3.08 0 0 0-3.06-3.06 3.05 3.05 0 0 0-3.05 3.06 3.02 3.02 0 0 0 3.05 3.05zm-1.3 9.26c.5-1.71-.65-2.68-1.53-2.68-3.7 0-8.1 3.33-9.86 8h1.2c1.2-1.7 3.24-3.6 5.14-3.93l-7.09 18.43c-.65 1.72.65 2.69 1.53 2.69 3.52 0 7.65-3.38 9.4-8.01h-1.2c-1.2 1.71-3.24 3.61-5.14 3.93l7.55-18.43zm5.74.88h4.26l-6.76 18.48c-.6 1.57.23 3.15 1.85 3.15 3.84 0 10.05-3.8 12.23-8.98h-1.2c-1.72 1.8-5.01 4.2-7.83 4.72l6.2-17.37h6.34l.8-2.64h-6.17l2.37-6.67h-2.46l-4.4 6.67-5.23.74v1.9zm27.69-5.92 9.03-8.43v-.97h-4.86l-5.56 9.4h1.39zm2.55 18.61h-1.58c-1.99 2.36-4.12 4.22-6.25 4.22-2.18 0-3.29-1.3-3.29-4.22 0-1.2.14-2.4.37-3.52l12.83-4.2c2.5-5.94-.5-8.53-4.03-8.53-6.06 0-12.96 10.14-12.96 19.03 0 3.98 1.9 6.16 4.86 6.16 3.47 0 7.08-3.38 10.05-8.94zm-4.4-12.83c1.7 0 3.2 1.3 2.4 4.59l-7.96 1.85c1.39-3.7 3.7-6.44 5.56-6.44zM29.38 567.75l9.03-6.21v-.97h-5.47l-5 7.18h1.44zm-3.7 19.4c3.05 0 3.1 1.25 2.63 4.58h1.76l4.08-11.16h-1.76c-1.53 2.64-2.73 4.59-6.07 4.59h-6.71l3.38-9.3c1.11-3.11 1.76-3.71 5.92-3.71h2.97c4.3 0 4.82 1.16 4.82 5.46h1.71l1.44-7.6H14.27l-.46 1.44c4.95 1.02 5.42 1.48 3.1 7.87l-5.55 15.2c-2.32 6.34-3.3 6.84-8.99 7.86l-.42 1.44H30.4l5.1-8.06h-1.95c-3.25 3.06-7.32 5.97-13.02 5.97-7.54 0-6.85-.32-4.35-7.22l2.69-7.36h6.8zm32.36 19.82c0-2.97-2.64-4.03-6.94-5.32-3.7-1.12-5.37-1.44-5.37-2.65 0-.97.78-2.12 2.36-2.96 6.06-.32 10-5.79 10-10.37 0-.97-.19-1.81-.51-2.55h5.14l.79-2.64h-8.16a6.28 6.28 0 0 0-3.28-.92c-6.44 0-10.6 5.64-10.6 10.23 0 3.47 2.22 5.65 4.9 6.16-3 1.34-4.68 2.91-4.68 4.77 0 1.06.38 1.8 1.25 2.5-6.94 2.03-9.67 4.35-9.67 7.64 0 3.2 4.21 4.54 9.21 4.54 8.48 0 15.56-4.59 15.56-8.43zM48 594.28c-1.53 0-2.14-1.3-2.14-2.78 0-4.12 2.23-10.19 5.7-10.19 1.53 0 2.13 1.3 2.13 2.78 0 4.12-2.22 10.2-5.7 10.2zm-9.59 14.96c0-2.46 2.36-3.99 5.74-5.33a41.7 41.7 0 0 0 5 1.9c3.52 1.16 4.87 1.62 4.87 2.69 0 2.27-3.85 3.98-9.08 3.98-4.4 0-6.53-.92-6.53-3.24zm47.14-30.75-1.95-.14-2.17 2.13h-.47c-10.55 0-19.67 11.86-19.67 20.47 0 2.4 1.48 3.8 3.8 3.8 2.72 0 5.41-3.9 8.42-8.06l-.14 1.48c-.37 4.26.93 6.58 3.15 6.58 2.6 0 4.96-4.03 6.76-8.02h-1.2c-1.26 1.8-2.41 2.88-3.34 2.88-.97 0-1.67-1.76 0-5.52l6.81-15.6zm-19.5 19.03c0-5.7 6.35-13.43 9.92-13.43.78 0 1.52.1 2.17.28l-3.7 9.86c-2.13 2.6-5.42 5.75-6.95 5.75-.88 0-1.43-.75-1.43-2.46zm24.55 3.15 12.92-33.85-.42-.5-8.1.92v.97l1.57 1.2c1.43 1.11.97 2.18-.32 5.6l-10.1 26.59a2.13 2.13 0 0 0 1.85 3.15c3.7 0 7.64-3.34 9.4-8.02h-1.2c-1.2 1.72-3.7 3.62-5.6 3.94zm24.63-27.69a3.06 3.06 0 0 0 3.06-3.06c0-1.66-1.4-3.05-3.06-3.05a3.05 3.05 0 0 0-3.05 3.05 3.03 3.03 0 0 0 3.05 3.06zm-1.3 9.26c.52-1.71-.64-2.68-1.52-2.68-3.7 0-8.1 3.33-9.87 8h1.2c1.21-1.7 3.25-3.6 5.15-3.93l-7.08 18.43c-.66 1.71.64 2.69 1.52 2.69 3.52 0 7.64-3.39 9.4-8.02h-1.2c-1.2 1.72-3.24 3.62-5.14 3.94l7.54-18.43zm5.75.88h4.26l-6.76 18.48c-.6 1.57.23 3.15 1.85 3.15 3.84 0 10.04-3.8 12.22-8.99h-1.2c-1.71 1.8-5 4.22-7.83 4.72l6.21-17.36h6.34l.79-2.64h-6.16l2.36-6.67h-2.45l-4.4 6.67-5.23.74v1.9zm27.69-5.93 9.03-8.42v-.98h-4.86l-5.56 9.4h1.39zm2.54 18.62h-1.57c-2 2.36-4.12 4.21-6.25 4.21-2.18 0-3.29-1.3-3.29-4.21 0-1.2.14-2.41.37-3.52l12.83-4.22c2.5-5.92-.51-8.52-4.03-8.52-6.07 0-12.96 10.15-12.96 19.04 0 3.98 1.9 6.16 4.86 6.16 3.47 0 7.08-3.39 10.05-8.94zm-4.4-12.83c1.72 0 3.2 1.3 2.41 4.59l-7.96 1.85c1.39-3.7 3.7-6.44 5.56-6.44zM31.06 512.13H14.19l-.46 1.44c4.95 1.02 5.41 1.48 3.1 7.87l-5.46 15.19c-2.32 6.34-3.3 6.85-8.99 7.87l-.42 1.44h25.66l5.55-9.91h-1.94c-3.15 3.47-6.85 7.82-12.55 7.82-4.3 0-4.81-.74-2.5-7.22l5.46-15.2c2.27-6.34 3.3-6.84 8.99-7.86l.42-1.44zm18.66 2.96a3.05 3.05 0 0 0 3.06-3.05c0-1.67-1.4-3.06-3.06-3.06a3.05 3.05 0 0 0-3.06 3.06 3.02 3.02 0 0 0 3.06 3.05zm-1.3 9.27c.51-1.71-.65-2.69-1.53-2.69-3.7 0-8.1 3.33-9.86 8.01h1.2c1.21-1.71 3.25-3.61 5.14-3.93l-7.08 18.43c-.65 1.71.65 2.68 1.53 2.68 3.51 0 7.63-3.38 9.4-8H46c-1.2 1.7-3.25 3.6-5.15 3.92l7.55-18.43zm25.2 2.45c0-3.75-1.4-5.14-4-5.14-3.23 0-6.29 3.43-9.34 7.6L68 508.94l-.42-.51-8.1.92v.97l1.58 1.21c1.43 1.11.96 2.27-.33 5.6l-8.33 21.49c-.61 1.58-1.35 3.43-1.35 3.94 0 2.22 3 4.3 5.74 4.3 6.3 0 16.81-11.34 16.81-20.05zM59 543.11c-1.24 0-3.05-1.16-3.05-2.17 0-.33.56-1.76 1.25-3.57l2.08-5.51c2.23-2.64 5.6-5.46 7.5-5.46 1.16 0 2.04.74 2.04 2.45 0 5.05-4.72 14.26-9.81 14.26zm31.45-5.18h-1.58c-1.99 2.36-4.12 4.21-6.25 4.21-2.18 0-3.29-1.3-3.29-4.21 0-1.2.14-2.41.37-3.52l12.83-4.22c2.5-5.92-.5-8.52-4.03-8.52-6.07 0-12.96 10.14-12.96 19.03 0 3.99 1.9 6.16 4.86 6.16 3.47 0 7.08-3.38 10.05-8.93zm-4.4-12.83c1.7 0 3.2 1.3 2.4 4.59l-7.96 1.85c1.39-3.71 3.7-6.44 5.56-6.44zm28.43 2.22c.88-3 .42-5.65-1.9-5.65-2.73 0-3.43 2.09-6.2 8.06v-3.43c0-2.45-.8-4.63-3.01-4.63-2.6 0-4.96 4.03-6.77 8.02h1.21c1.25-1.81 2.4-2.88 3.33-2.88 1.12 0 1.72 1.71 0 5.51l-5 11.11c-.92 2.1.05 3.43 2.08 3.43 1.25 0 1.81-.32 2.32-1.66l4.91-13.02a80.97 80.97 0 0 1 4.22-4.86h4.8zm3.33-2.08h3.38l-6.76 18.48c-.6 1.57.24 3.14 1.86 3.14 3.84 0 10.04-3.8 12.22-8.98h-1.2c-1.71 1.8-5 4.21-7.83 4.72l6.2-17.36h6.35l.79-2.64h-6.16l2.36-6.67h-2.46l-4.4 6.67-4.35.74v1.9zm26.54-5.93 9.03-8.43v-.97h-4.87l-5.55 9.4h1.38zm2.54 18.62h-1.57c-1.99 2.36-4.12 4.21-6.25 4.21-2.18 0-3.3-1.3-3.3-4.21 0-1.2.15-2.41.38-3.52l12.83-4.22c2.5-5.92-.51-8.52-4.03-8.52-6.06 0-12.97 10.14-12.97 19.03 0 3.99 1.9 6.16 4.87 6.16 3.47 0 7.08-3.38 10.04-8.93zm-4.4-12.83c1.72 0 3.2 1.3 2.41 4.59l-7.96 1.85c1.39-3.71 3.7-6.44 5.55-6.44zM2.53 191.17h12.79V146l14.04 23.59h9l14.03-23.6v45.2h12.79v-63H49.25l-15.39 26.45-15.39-26.46H2.54zm80.28 0H95.6v-63H82.81zm30.51 0h12.78v-45.54l28.18 45.54h16.37v-63h-12.78v45.55l-28.16-45.55h-16.39zm75.06 0h12.78v-63h-12.78zm24.84-8.73c5.6 6.67 12.7 10.53 23.31 10.53 11.61 0 20.8-7.1 20.97-18.98 0-21.61-28.6-18.36-28.6-29.8 0-3.78 2.96-6.66 7.46-6.66 4.77 0 8.9 3.16 12.6 7.92l9.35-8.46c-5.39-6.38-12.6-10.61-22.04-10.61-12.07 0-20.35 8.28-20.35 18.26 0 21.33 28.63 18.19 28.63 29.8 0 4.5-3.07 7.19-8.11 7.19-5.13 0-10.16-2.88-13.94-7.74l-9.28 8.55zm50.86-42.66h19.44v51.4h12.78v-51.4h19.44v-11.6h-51.66zm75.68-17.01h11.7l-10.17-12.14h-13.14l11.61 12.14zm-12.69 68.4h36.72v-10.62h-23.94v-16.19h20.35v-10.62h-20.35V138.8h23.94v-10.63h-36.72v63zm51.66 0h12.78v-25.46h6.58l16.83 25.46h15.03l-19.72-27.9c6.48-2.97 10.17-8.64 10.17-16.28 0-11.7-8.54-18.82-22.4-18.82h-19.27v63zm19.98-52.37c5.41 0 8.55 3.23 8.55 8 0 5.14-3.14 8.28-8.54 8.28h-7.2V138.8h7.2zm39.42 52.37h36.72v-10.62H450.9v-16.19h20.34v-10.62h-20.34V138.8h23.94v-10.63h-36.72zm-435.6 92H27.3c19.98 0 33.48-14.48 33.48-31.5s-13.5-31.5-33.48-31.5H2.54v63zm24.94-51.39c11.7 0 20.16 8.64 20.16 19.9 0 11.15-8.45 19.88-20.16 19.88H15.32v-39.78h12.15zm82.89 27.82c0 8.45-4.86 13.4-12.7 13.4-8 0-12.77-4.95-12.77-13.4v-39.43H72.1v38.35c0 16.56 9.71 26.45 25.46 26.45 15.85 0 25.57-9.89 25.57-26.45v-38.35h-12.78v39.43zm45.72-27.82h19.44v51.4h12.78v-51.4h19.44v-11.6h-51.66zm62.99 51.4h12.78V257.7h6.58l16.83 25.47h15.03l-19.72-27.9c6.49-2.97 10.17-8.64 10.17-16.28 0-11.7-8.54-18.82-22.4-18.82h-19.27v63zm19.98-52.38c5.41 0 8.55 3.23 8.55 8 0 5.14-3.14 8.28-8.54 8.28h-7.2V230.8h7.2zm34.2 52.37h13.6l6.02-16.37h25.2l6.04 16.37h13.6l-23.87-63h-16.73l-23.86 63zm23.6-27.26 8.62-23.67 8.64 23.67h-17.27zM334 220.17l23.86 63h16.73l23.86-63h-13.6l-18.63 49.24-18.63-49.24zm60.75 63h13.59l6.03-16.37h25.2l6.03 16.37h13.6l-23.86-63h-16.73l-23.86 63zm23.59-27.26 8.63-23.67 8.63 23.67h-17.26zM469 283.17h12.78v-63H469zm30.5 0h36.72v-11.6H512.3v-51.4H499.5zm55.8 14.41 10.46-26.92h-12.88l-8.19 26.92zM2.54 375.18h24.74c19.99 0 33.49-14.49 33.49-31.5s-13.5-31.5-33.49-31.5H2.53v63zm24.93-51.4c11.7 0 20.16 8.64 20.16 19.9 0 11.15-8.45 19.88-20.16 19.88H15.32v-39.78h12.15zm45.71 51.4h36.72v-10.63H85.96v-16.19h20.35v-10.62H85.97V322.8h23.93v-10.63H73.18zm75.15 0h36.72v-11.62h-23.94v-51.39h-12.78zm44.73-37.08 10.46-25.93h-12.97l-8.1 25.93zm20.52 37.07h36.72v-10.62h-23.94v-16.19h20.35v-10.62h-20.35V322.8h23.94v-10.63h-36.72zm51.66 0h12.78V330l14.05 23.59h9l14.03-23.6v45.2h12.78v-63h-15.92l-15.39 26.45-15.4-26.46h-15.93zm80.28 0h12.78V349.7h8.02c13.86 0 22.3-7.1 22.3-18.71 0-11.7-8.44-18.82-22.3-18.82h-20.8v63zm21.33-52.37c5.4 0 8.64 3.23 8.64 8 0 5.14-3.24 8.28-8.64 8.28h-8.55V322.8h8.55zm32.4 52.37h36.72v-11.6h-23.94v-51.4h-12.78zm73.89-64.8c-19.9 0-33.47 15.3-33.47 33.3 0 18 13.58 33.3 33.47 33.3 19.81 0 33.39-15.3 33.39-33.3 0-18-13.58-33.3-33.4-33.3zm0 54.63c-11.88 0-20.33-9.26-20.33-21.33 0-12.06 8.45-21.32 20.33-21.32 11.8 0 20.25 9.26 20.25 21.32 0 12.07-8.46 21.33-20.25 21.33zm45.72 10.17h12.78v-63h-12.78zm-516.33 92h36.72v-10.62H15.32v-16.19h20.34v-10.62H15.32V414.8h23.93v-10.63H2.53zm46.55-51.39H68.5v51.4H81.3v-51.4h19.43v-11.6H49.08zm86.47 51.4h24.75c19.99 0 33.49-14.49 33.49-31.5s-13.5-31.5-33.49-31.5h-24.75v63zm24.94-51.4c11.7 0 20.16 8.64 20.16 19.9 0 11.15-8.46 19.88-20.16 19.88h-12.16v-39.78h12.16zm45.71 51.4h36.72v-10.63h-23.94v-16.19h20.35v-10.62h-20.35V414.8h23.94v-10.63H206.2zm75.15 0h36.72v-11.62h-23.94v-51.39h-12.78zm44.73-37.08 10.45-25.93h-12.97l-8.09 25.93zm20.52 37.07h12.78v-63H346.6zm30.51 0h12.78v-45.54l28.17 45.54h16.38v-63h-12.78v45.55l-28.16-45.55h-16.4zm69.39-8.73c5.59 6.67 12.7 10.53 23.3 10.53 11.62 0 20.8-7.1 20.98-18.98 0-21.61-28.61-18.36-28.61-29.8 0-3.78 2.97-6.66 7.47-6.66 4.76 0 8.9 3.16 12.59 7.93l9.36-8.47c-5.4-6.38-12.6-10.61-22.05-10.61-12.06 0-20.34 8.28-20.34 18.26 0 21.33 28.62 18.19 28.62 29.8 0 4.5-3.06 7.19-8.1 7.19-5.13 0-10.16-2.88-13.94-7.74l-9.28 8.55zm57.78 8.73H541v-10.62h-23.94v-16.19h20.34v-10.62h-20.34V414.8H541v-10.63h-36.72zm51.66 0h12.78V441.7h6.58l16.82 25.47h15.03l-19.71-27.9c6.48-2.97 10.17-8.64 10.17-16.28 0-11.7-8.55-18.82-22.4-18.82h-19.27v63zm19.98-52.37c5.4 0 8.55 3.23 8.55 8 0 5.14-3.14 8.28-8.55 8.28h-7.2V414.8h7.2zm30.16.98h19.43v51.4h12.79v-51.4h19.43v-11.6h-51.65zm62.99 51.4h12.78v-63h-12.78zm58.58-64.8c-19.89 0-33.46 15.3-33.46 33.3 0 18 13.57 33.3 33.46 33.3 19.82 0 33.4-15.3 33.4-33.3 0-18-13.58-33.3-33.4-33.3zm0 54.62c-11.87 0-20.32-9.26-20.32-21.33 0-12.06 8.45-21.32 20.32-21.32 11.8 0 20.25 9.26 20.25 21.32 0 12.07-8.45 21.33-20.25 21.33zm45.73 10.17h12.78v-45.54l28.17 45.54h16.37v-63h-12.78v45.55l-28.15-45.55h-16.4z"/><path fill="#000091" d="M68.43 60.87c-.16-.16.47 0 .63-.31H67.8c-.16 0-.16-.17-.16-.33-.8.17-1.74.48-2.54.64-1.1.32-2.06 1.11-3.33 1.43-1.74.63-3.16 2.06-5.07 2.69-.16 0-.16-.16-.16-.32.16-.48.8-.63 1.11-1.1 0-.16 0-.32-.16-.32 1.27-1.75 3.02-2.7 4.6-4.13v-.47c.48-.63 1.27-.95 1.59-1.74.16-.48.79-1.11 1.58-1.43-.16-.16-.47-.16-.47-.47-.64 0-1.27.31-1.9-.16.29-.3.63-.46.99-.57a.58.58 0 0 1-.36-.23c-.16-.31.3-.67.79-.79.63-.16 1.42-.16 1.9-.63-1.1-.16-2.37.31-3.49-.32.8-2.06 2.07-3.8 3.97-4.75.15 0 .47 0 .47.15 0 .8-.47 1.43-1.26 1.6 1.26.3 2.53.3 3.8.94-.16.32-.48.16-.64.16.8.48 1.75.16 2.54.8-.48.47-.95 0-1.43 0 4.92 1.42 10.15 2.53 14.27 5.7-3.5 1.74-7.13 2.53-10.94 3.32-.48 0-.8 0-1.27-.15 0 .15 0 .47-.16.47-.63 0-1.1 0-1.58.32-.63.32-1.59.47-2.06 0zM65.18 71.9l-.04.02c-.59.42-1.18.85-1.8 1.2-.68.4-1.4.7-2.1 1.03l-.01-.03c-.06-.08-.17-.12-.27-.07-.6.32-1.11.75-1.6 1.22l-.22.21-.01.01-.02.01-.22.23-.03.02v.02a5.5 5.5 0 0 0-.35.37c-.08.1-.1.15-.21.22-.1.07-.37.07-.35-.12v-.03l-.28.15-.24.13a.26.26 0 0 0-.11-.01.21.21 0 0 0-.12.04 8.03 8.03 0 0 0-1.49 1.46h-.02c0 .02-.02.04-.03.05l-.04.06-.05.07-.02.02-.1.16h-.01a.27.27 0 0 1-.13.07l-.07-.1-.04-.07a5.24 5.24 0 0 1-.14-.26.69.69 0 0 0-.04-.08 9.85 9.85 0 0 0 .5-.57l.03-.04.16-.2a10.55 10.55 0 0 0 .37-.47l.5-.67v-.02l.07-.1a5.03 5.03 0 0 0 .4-.65v-.03a.12.12 0 0 1 .02-.03l.03-.06a4.32 4.32 0 0 0 .17-.41l.03-.1.05-.18v-.04c.03-.07.05-.15.06-.23a.17.17 0 0 0-.02-.1c.18-.3.39-.59.63-.86l-.07.04c-.23.14-.38.35-.59.5-.17.14-.49-.08-.29-.23.14-.1.25-.22.37-.33a.08.08 0 0 1 .01-.02c.26-.26.51-.59.81-.8.18-.14.34-.25.49-.38a3.97 3.97 0 0 1 .42-.47h.02c1.52-1.47 4.07-1.4 6.07-2.34.8-.32 1.74.16 2.54 0 .47 0 .95 0 1.42.32-1.42.77-2.74 1.65-4.04 2.46zm2.84 1.3c-.07.18-.23.33-.39.46.2.05.34.13.21.25-.36.34-.71.68-1.2.84a1.36 1.36 0 0 1-.24.03l-.6.56c-.18.16-1.05.04-.78-.2.4-.35.77-.74 1.16-1.1.23-.2.46-.4.66-.63.11-.13.2-.25.34-.35.13-.1.97-.17.84.14zm-7.36-23.74c-.15.32-.33.35-.47.63-.16.32-.32.48-.63.64-.16 0-.32 0-.32-.16.16-.64.63-1.27 1.27-1.43.15 0 .15.16.15.32zM47.51 59.92s-.16-.16-.16-.32a49.18 49.18 0 0 0 5.07-8.08 21.86 21.86 0 0 0 5.4-4.44c2.69-2.85 5.54-5.39 8.87-6.97a6.14 6.14 0 0 1 4.12.16c-.48.63-1.27.47-1.9.95-.16 0-.32 0-.48-.16.16-.16.16-.32.16-.47-1.59 1.74-3.8 2.53-5.07 4.59-.95 1.59-1.59 3.64-3.65 4.12-.63.16.16-.48-.15-.32-4.92 3.02-8.4 6.66-12.2 10.94zm24.25 3.49c-.32 0-.95.15-.8-.16.16-.8 1.27-.8 1.9-1.11.32-.16.8-.48 1.12-.32.31.48.79.32 1.1.63-.94.96-2.21.48-3.32.96zm24.37 11.35c.9-.9 1.8-1.87 2.71-2.84h-.02a53.49 53.49 0 0 1 5.29-5.4c.59-.52 1.17-1 1.72-1.37.16-.16.16-.48.32-.63-.8.31-1.27.94-2.07 1.26-.15 0-.31-.16-.15-.32l1.7-1.27h-.12c-.16 0-.16-.15-.16-.31-2.06-.32-3.64 1.1-5.07 2.38-.32.15-.63-.16-.79-.16-2.38.8-4.12 2.85-6.5 3.8v-.31c-.95.31-1.87.89-2.85 1.1-1.43.32-2.7.17-3.96.17-1.92.19-3.84.6-5.77 1.02l-.16.04a13.28 13.28 0 0 0-2.95 1.19l-.11.06a4.7 4.7 0 0 1-.23.27c-.34.38-.64.72-1.09.95-.97.5-1.77 1.36-2.62 2.06a.44.44 0 0 1-.26.09c-.85.81-1.69 1.64-2.55 2.44-.06.05-.3.09-.49.05h.02a61.03 61.03 0 0 1 .5-.83 20.86 20.86 0 0 1 1.14-1.7c.06-.08.05-.15 0-.2a.31.31 0 0 0-.22-.09c.79-.76 1.73-1.42 2.66-1.98v-.03c-.11.03-.27-.05-.18-.16.1-.14.18-.29.27-.43l.05-.14a4.77 4.77 0 0 1-.12-.13c-.26.17-.53.32-.75.52-.38.34-.67 1.04-1.25 1.04a.8.8 0 0 1-.23-.04.47.47 0 0 1-.17-.05l.02-.04.02-.05.02-.04.08-.13.08-.14.05-.11.12-.2.08-.14.2-.35.1-.17.17-.3c.08-.12 0-.23-.12-.27.3-.39.65-.7 1.09-.95h-.05c.6-.3 1.21-.68 1.82-1.02l.26-.22c-.9.3-1.72.71-2.52 1.24 0 0-.2.09-.27.15 0 0-.18.06-.39-.15a.18.18 0 0 1-.04-.12c.16-.31.63-.47.95-.79.16 0 .32 0 .32.16 5.07-3.96 12.04-3.01 17.9-5.07l1.43-.95c.8-.32 1.43-1.11 2.38-1.59a6.9 6.9 0 0 0 2.7-3.64c0-.16-.16-.32-.16-.32a24.42 24.42 0 0 1-6.98 5.23c-3.33 1.74-6.97 1.43-10.46 1.9.16-.32.48-.32.8-.32 0-.47.31-.63.63-.95h.47c.16 0 .16-.31.32-.31.32 0 .8-.16.63-.16-.47-.64-1.42.47-2.22 0 .32-.32.16-.8.48-.95h.64c0-.32.31-.63.31-.63 2.38-1.43 4.6-2.54 6.82-3.8-.48 0-.8.47-1.27.15.32 0 0-.48.32-.48 1.74-.47 3.17-1.42 4.91-2.05-.63 0-1.11.47-1.74 0 .31-.16.47-.48.95-.48v-.48c0-.16.16-.16.32-.16-.16 0-.32-.15-.32-.15.16-.32.63-.16.95-.48-.16 0-.48 0-.48-.16.48-.63 1.27-.79 2.06-.95-.16-.32-.63 0-.63-.32 0-.16.16-.16.31-.16h-.31c-.32-.15-.16-.47-.16-.63.95-1.1.95-2.53 1.43-3.8-.16 0-.32 0-.32-.16-1.59 1.74-4.12 2.38-6.5 3.01h-.8a3.2 3.2 0 0 1-2.68-.16c-.64-.31-.95-.8-1.59-1.26a18.24 18.24 0 0 0-3.96-1.9 35.59 35.59 0 0 0-12.2-1.75c1.74-.95 3.66-1.03 5.54-1.58 2.7-.8 5.23-1.75 8.09-1.59-.48-.16-1.11 0-1.59 0-2.22-.16-4.44.48-6.81.95-1.59.32-3.02.95-4.6 1.27-.95.32-1.43 1.27-2.54 1.1v-.47c1.59-1.9 3.5-3.8 6.03-3.96 2.85-.48 5.54 0 8.4.32 2.06.16 3.96.63 6.02 1.1.8 0 .95 1.28 1.59 1.43.94.32 1.9 0 2.85.64 0-.32-.16-.64 0-.95.63-.64 1.42.16 2.06-.16 1.27-.8-1.11-2.22-1.75-3.33 0-.16.16-.31.16-.31 1.27 1.1 2.22 2.37 3.8 3.16.8.32 2.7.8 2.38-.16-.79-1.74-2.38-3.17-3.64-4.75v-.63c-.32 0-.32-.16-.48-.32v-.63c-.63-.32-.47-.96-.8-1.43-.47-.8-.15-1.9-.47-2.85a16.3 16.3 0 0 1-.63-2.7c-.48-2.7-1.11-5.07-1.43-7.6-.31-3.02 1.75-5.4 3.17-8.09 1.11-1.9 2.38-3.8 4.44-5.07.48-1.9 1.75-3.49 3.01-5.07 1.27-1.54 3.37-2.49 4.9-3.17a42.07 42.07 0 0 1 4.2-1.6H.79v83.86H77.8c3.02-2.17 6.03-3.2 10.25-5.28 1.98-.98 6.54-3.07 8.08-4.61z"/><path fill="#E1000F" d="M231.41.79h-90.22s.18.02.86.39c.73.4 1.68.9 2.28 1.21a7.52 7.52 0 0 1 3.02 2.54c.32.47.8 1.43.47 2.06-.31.8-.47 2.06-1.26 2.37a5.9 5.9 0 0 1-3.33.32c-.63 0-1.27-.16-1.9-.32 2.37.96 4.6 2.07 6.18 4.29.16.31.8.47 1.43.47.15 0 .15.32.15.47-.31.32-.63.48-.47.96h.47c.8-.32.64-1.9 1.75-1.43a1.8 1.8 0 0 1 .63 2.38c-.63.63-1.27 1.1-1.9 1.58-.16.32-.16.8 0 1.11.48.63.63 1.27.79 1.9.48 1.1.64 2.38 1.11 3.49.64 2.38 1.27 4.75 1.1 7.13 0 1.27-.62 2.38-.15 3.65.32 1.26 1.11 2.22 1.74 3.32.64.95 1.27 1.59 1.75 2.54.95 1.59 2.7 3.17 1.9 5.07-.47 1.1-2.22.95-3.33 1.59-.95.79-.16 2.05.32 2.85.79 1.42-.95 2.38-2.06 2.85.31.48.95.32 1.1.64.17.79.96 1.26.48 2.05-.63.96-2.53 1.43-1.58 2.85.63 1.12.22 2.35-.16 3.5-.48 1.42-1.74 2.05-2.85 2.37a6.4 6.4 0 0 1-3.01.16 2.26 2.26 0 0 0-.95-.32c-2.7-.31-5.4-1.1-8.09-1.1-.79.15-1.58.3-2.22.62a14.25 14.25 0 0 0-1.91 1.7l-.02.02-.35.39-.2.24-.14.16a14.37 14.37 0 0 0-1.24 1.83l-.08.12-.12.22c-.52.97-.91 1.95-1.2 2.91-1.08 3.63-.6 6.74.15 7.5.21.2 5.24 1.76 8.73 3.31 1.64.73 2.79 1.3 3.74 1.9h88.59V.78"/><path fill="#9D9D9B" d="M146.56 31.38c.63.16 1.58.16 1.58.48-.31 1.26-2.21 1.58-3.16 2.85h-.48c-.47.31-.32 1.1-.79 1.1-.48-.15-.95 0-1.43.16.64.64 1.43 1.12 2.38.96.16 0 .48.31.48.63 0 0 .15 0 .31-.16.16 0 .32 0 .32.16v.63c-.48.64-1.27.32-1.9.48 1.27.31 2.53.31 3.64 0 .96-.32 0-1.9.64-2.7-.32 0 0-.47-.32-.47.31-.32.63-.8.95-.95.32 0 .8-.16.95-.48 0-.31-.63-.47-.47-.79.95-.64 1.74-1.59 1.42-2.54-.16-.47-1.42-.47-2.22-.79-.79-.31-1.74 0-2.69.16-.8 0-1.59.48-2.38.63-1.1.32-2.06.95-3 1.59 1.1-.48 2.21-.64 3.48-.95.95 0 1.75-.24 2.7 0"/></g></svg>