<?xml version="1.0" encoding="utf-8"?>
<!-- Generator: Adobe Illustrator 22.1.0, SVG Export Plug-In . SVG Version: 6.00 Build 0)  -->
<svg version="1.1" xmlns="http://www.w3.org/2000/svg" xmlns:xlink="http://www.w3.org/1999/xlink" x="0px" y="0px"
	 viewBox="0 0 267.7 246.2" style="enable-background:new 0 0 267.7 246.2;" xml:space="preserve">
<style type="text/css">
	.st0{fill:#FFFFFF;}
	.st1{fill:#000091;}
	.st2{fill:#E1000F;}
	.st3{fill:#9C9B9B;}
</style>
<g id="Calque_1">
	<path id="DEVISE_REPUBLICAINE" d="M111.3,200.7c0.6,0,1.1,0.5,0.9,1.6l-2.8,0.6C109.8,201.7,110.7,200.7,111.3,200.7 M112.9,205.3
		h-0.6c-0.7,0.9-1.5,1.5-2.2,1.5s-1.2-0.5-1.2-1.5c0-0.4,0-0.9,0.1-1.2l4.6-1.5c0.9-2.1-0.1-3.1-1.5-3.1c-2.2,0-4.7,3.6-4.7,6.8
		c0,1.5,0.7,2.2,1.7,2.2C110.6,208.5,111.8,207.3,112.9,205.3 M111.9,198.6l3.2-3v-0.4h-1.7l-2,3.3H111.9z M102.1,200.7h1.5
		l-2.5,6.7c-0.2,0.6,0.1,1.1,0.6,1.1c1.4,0,3.6-1.4,4.3-3.2h-0.4c-0.6,0.6-1.9,1.5-2.8,1.7l2.2-6.2h2.2l0.2-1h-2.2l0.9-2.3h-0.9
		l-1.6,2.3l-1.9,0.2v0.6H102.1z M100.1,200.5c0.1-0.6-0.2-1-0.5-1c-1.4,0-2.8,1.2-3.6,2.8h0.4c0.4-0.6,1.1-1.2,1.9-1.4l-2.6,6.6
		c-0.2,0.6,0.2,1,0.5,1c1.2,0,2.7-1.2,3.3-2.8h-0.4c-0.4,0.6-1.1,1.2-1.9,1.4L100.1,200.5z M100.5,197.2c0.6,0,1.1-0.5,1.1-1.1
		c0-0.6-0.5-1.1-1.1-1.1s-1.1,0.5-1.1,1.1C99.3,196.7,99.8,197.2,100.5,197.2 M85.9,207.3c-0.4,0.7,0,1.2,0.7,1.2
		c0.5,0,0.6-0.1,0.9-0.6l1.7-4.7c0.9-1,2.5-2.1,3.2-2.1c0.5,0,0.4,0.4,0.1,1l-2.7,5.2c-0.2,0.5,0.1,1.1,0.6,1.1c1.4,0,3-1.2,3.6-2.8
		h-0.4c-0.4,0.6-1.1,1.2-1.9,1.4l2.3-4.7c0.2-0.6,0.5-1.1,0.5-1.6c0-0.7-0.4-1.2-1.2-1.2c-1.1,0-2.3,1.2-3.7,2.8V201
		c0-0.9-0.2-1.6-1.1-1.6c-0.5,0-1,0.4-1.5,1v0.1c0.9,0,1.2,1.2,0.6,2.6L85.9,207.3z M85.9,201.5c0.4-1.1,0.1-2-0.7-2
		c-1,0-1.2,0.7-2.2,2.8v-1.2c0-0.9-0.2-1.6-1.1-1.6c-1,0-1.7,1.5-2.5,2.8h0.4c0.5-0.6,0.9-1,1.2-1s0.6,0.6,0,2l-1.9,4
		c-0.4,0.7,0,1.2,0.7,1.2c0.5,0,0.6-0.1,0.9-0.6l1.7-4.7c0.5-0.6,1-1.1,1.5-1.7H85.9z M75.6,200.7c0.6,0,1.1,0.5,0.9,1.6l-2.8,0.6
		C74.1,201.7,75,200.7,75.6,200.7 M77.2,205.3h-0.6c-0.7,0.9-1.5,1.5-2.2,1.5s-1.2-0.5-1.2-1.5c0-0.4,0-0.9,0.1-1.2l4.6-1.5
		c0.9-2.1-0.1-3.1-1.5-3.1c-2.2,0-4.7,3.6-4.7,6.8c0,1.5,0.7,2.2,1.7,2.2C74.9,208.5,76.1,207.3,77.2,205.3 M66.3,200.7h1.5
		l-2.5,6.7c-0.2,0.6,0.1,1.1,0.6,1.1c1.4,0,3.6-1.4,4.3-3.2h-0.4c-0.6,0.6-1.9,1.5-2.8,1.7l2.2-6.2h2.2l0.2-1h-2.2l0.9-2.3h-0.6
		l-1.6,2.3l-1.9,0.2V200.7z M58.1,205.9c0-2.1,2.2-4.8,3.6-4.8c0.2,0,0.5,0,0.7,0.1l-1.4,3.6c-0.7,1-2,2.1-2.5,2.1
		C58.2,206.8,58.1,206.6,58.1,205.9 M65,199.1h-0.7l-0.7,0.7h-0.1c-3.8,0-7,4.2-7,7.3c0,0.9,0.5,1.4,1.4,1.4c1,0,2-1.4,3-2.8v0.5
		c-0.1,1.5,0.4,2.3,1.1,2.3c1,0,1.7-1.5,2.5-2.8h-0.4c-0.5,0.6-0.9,1-1.2,1s-0.6-0.6,0-2L65,199.1z M56.9,201.5c0.4-1.1,0.1-2-0.7-2
		c-1,0-1.2,0.7-2.2,2.8v-1.2c0-0.9-0.2-1.6-1.1-1.6c-1,0-1.7,1.5-2.5,2.8h0.4c0.5-0.6,0.9-1,1.2-1c0.4,0,0.6,0.6,0,2l-1.9,4
		c-0.4,0.7,0,1.2,0.7,1.2c0.5,0,0.6-0.1,0.9-0.6l1.7-4.7c0.5-0.6,1-1.1,1.5-1.7H56.9z M44.2,208.2l0.1-0.5c-2.2-0.4-2.5-0.4-1.6-2.8
		l0.9-2.5h2.5c1.1,0,1.1,0.5,1,1.6h0.6l1.5-4h-0.6c-0.5,1-1,1.6-2.2,1.6H44l1.2-3.5c0.4-1.1,0.6-1.4,2.1-1.4h1.1
		c1.5,0,1.7,0.4,1.7,2h0.6l0.5-2.7h-9.1l-0.1,0.5c1.7,0.4,2,0.5,1.1,2.8l-2,5.4c-0.9,2.2-1.2,2.5-3.2,2.8l-0.2,0.5H44.2z M89.1,180
		c0.6,0,1.1,0.5,0.9,1.6l-2.8,0.6C87.6,181,88.5,180,89.1,180 M90.7,184.6h-0.6c-0.7,0.9-1.5,1.5-2.2,1.5s-1.2-0.5-1.2-1.5
		c0-0.4,0-0.9,0.1-1.2l4.6-1.5c0.9-2.1-0.1-3.1-1.5-3.1c-2.2,0-4.7,3.6-4.7,6.8c0,1.5,0.7,2.2,1.7,2.2
		C88.3,187.8,89.6,186.5,90.7,184.6 M89.8,177.9l3.2-3v-0.4h-1.7l-2,3.3H89.8z M79.8,180h1.5l-2.5,6.7c-0.2,0.6,0.1,1.1,0.6,1.1
		c1.4,0,3.6-1.4,4.3-3.2h-0.4c-0.6,0.6-1.9,1.5-2.8,1.7l2.2-6.2H85l0.2-1h-1.9l0.9-2.3h-0.9l-1.6,2.3l-1.9,0.2v0.6H79.8z
		 M77.8,179.7c0.1-0.6-0.2-1-0.5-1c-1.4,0-2.8,1.2-3.6,2.8h0.4c0.4-0.6,1.1-1.2,1.9-1.4l-2.6,6.6c-0.2,0.6,0.2,1,0.5,1
		c1.2,0,2.7-1.2,3.3-2.8h-0.4c-0.4,0.6-1.1,1.2-1.9,1.4L77.8,179.7z M78.2,176.4c0.6,0,1.1-0.5,1.1-1.1s-0.5-1.1-1.1-1.1
		s-1.1,0.5-1.1,1.1C77.2,175.9,77.6,176.4,78.2,176.4 M69.4,186.3l4.6-12.1l-0.1-0.1l-2.8,0.4v0.4l0.6,0.4c0.5,0.4,0.4,0.7-0.1,2
		l-3.6,9.5c-0.2,0.5,0.1,1.1,0.6,1.1c1.4,0,2.7-1.2,3.3-2.8h-0.4C71,185.5,70.2,186.2,69.4,186.3 M60.6,185.2c0-2.1,2.2-4.8,3.6-4.8
		c0.2,0,0.5,0,0.7,0.1l-1.4,3.6c-0.7,1-2,2.1-2.5,2.1C60.8,186,60.6,185.8,60.6,185.2 M67.6,178.4h-0.7l-0.7,0.7H66
		c-3.8,0-7,4.2-7,7.3c0,0.9,0.5,1.4,1.4,1.4c1,0,2-1.4,3-2.8v0.5c-0.1,1.5,0.4,2.3,1.1,2.3c1,0,1.7-1.5,2.5-2.8h-0.4
		c-0.5,0.6-0.9,1-1.2,1c-0.4,0-0.6-0.6,0-2L67.6,178.4z M50.8,189.4c0-0.9,0.9-1.5,2.1-1.9c0.4,0.2,1,0.4,1.7,0.7
		c1.2,0.4,1.7,0.6,1.7,1c0,0.9-1.4,1.5-3.2,1.5C51.5,190.5,50.8,190.2,50.8,189.4 M54.1,184.1c-0.5,0-0.7-0.5-0.7-1
		c0-1.5,0.7-3.7,2.1-3.7c0.5,0,0.7,0.5,0.7,1C56.2,181.8,55.5,184.1,54.1,184.1 M57.8,188.5c0-1.1-1-1.5-2.5-1.9c-1.4-0.4-2-0.5-2-1
		c0-0.4,0.2-0.7,0.9-1.1c2.2-0.1,3.6-2.1,3.6-3.7c0-0.4-0.1-0.6-0.1-0.9h1.9l0.2-1h-3c-0.4-0.2-0.7-0.4-1.2-0.4
		c-2.3,0-3.8,2-3.8,3.7c0,1.2,0.7,2,1.7,2.2c-1.1,0.5-1.7,1-1.7,1.7c0,0.4,0.1,0.6,0.5,0.9c-2.5,0.7-3.5,1.6-3.5,2.7
		s1.5,1.6,3.3,1.6C55.2,191.6,57.8,190,57.8,188.5 M46.2,181.5c1.1,0,1.1,0.5,1,1.6h0.6l1.5-4h-0.7c-0.5,1-1,1.6-2.2,1.6H44l1.2-3.3
		c0.4-1.1,0.6-1.4,2.1-1.4h1.1c1.5,0,1.7,0.4,1.7,2h0.6l0.5-2.7h-9.1l-0.1,0.5c1.7,0.4,2,0.5,1.1,2.8l-2.1,5.4
		c-0.9,2.2-1.2,2.5-3.2,2.8l-0.1,0.5h10.1l1.9-2.8H49c-1.1,1.1-2.6,2.1-4.7,2.1c-2.7,0-2.5-0.1-1.6-2.6l1-2.6L46.2,181.5L46.2,181.5
		z M47.5,174.5l3.2-2.2v-0.4h-2l-1.7,2.6H47.5z M88.1,159.2c0.6,0,1.1,0.5,0.9,1.6l-2.8,0.6C86.5,160.2,87.3,159.2,88.1,159.2
		 M89.6,163.8H89c-0.7,0.9-1.5,1.5-2.2,1.5s-1.2-0.5-1.2-1.5c0-0.5,0-0.9,0.1-1.2l4.6-1.5c0.9-2.1-0.1-3.1-1.5-3.1
		c-2.2,0-4.7,3.6-4.7,6.8c0,1.5,0.7,2.2,1.7,2.2C87.2,167,88.6,165.8,89.6,163.8 M88.7,157.1l3.2-3v-0.4h-1.7l-2,3.3H88.7z
		 M79.2,159.2h1.2l-2.5,6.7c-0.2,0.6,0.1,1.1,0.6,1.1c1.4,0,3.6-1.4,4.3-3.2h-0.4c-0.6,0.6-1.7,1.5-2.8,1.7l2.2-6.2h2.2l0.2-1h-2.2
		L83,156h-0.9l-1.6,2.3l-1.6,0.2v0.6H79.2z M78,160c0.4-1.1,0.1-2-0.7-2c-1,0-1.2,0.7-2.2,2.8v-1.2c0-0.9-0.2-1.6-1.1-1.6
		c-1,0-1.7,1.5-2.5,2.8h0.4c0.5-0.6,0.9-1,1.2-1c0.4,0,0.6,0.6,0,2l-1.7,4c-0.4,0.7,0,1.2,0.7,1.2c0.5,0,0.6-0.1,0.9-0.6l1.9-4.6
		c0.5-0.6,1-1.1,1.5-1.7H78V160z M67.8,159.2c0.6,0,1.1,0.5,0.9,1.6l-2.8,0.6C66.3,160.2,67.1,159.2,67.8,159.2 M69.4,163.8h-0.6
		c-0.7,0.9-1.5,1.5-2.2,1.5s-1.2-0.5-1.2-1.5c0-0.5,0-0.9,0.1-1.2l4.6-1.5c0.9-2.1-0.1-3.1-1.5-3.1c-2.2,0-4.7,3.6-4.7,6.8
		c0,1.5,0.7,2.2,1.7,2.2C67.1,167,68.3,165.8,69.4,163.8 M58.1,165.6c-0.5,0-1.1-0.4-1.1-0.7c0-0.1,0.2-0.6,0.5-1.2l0.7-2
		c0.7-1,2-2,2.7-2c0.4,0,0.7,0.2,0.7,0.9C61.6,162.4,59.9,165.6,58.1,165.6 M63.4,159.8c0-1.4-0.5-1.9-1.5-1.9
		c-1.1,0-2.2,1.2-3.3,2.7l2.7-7.3l-0.1-0.1l-2.8,0.4v0.4l0.6,0.4c0.5,0.4,0.4,0.9-0.1,2l-3,7.7c-0.2,0.6-0.5,1.2-0.5,1.4
		c0,0.7,1.1,1.5,2.1,1.5C59.5,167,63.4,162.9,63.4,159.8 M54.3,159c0.1-0.6-0.2-1-0.5-1c-1.4,0-2.8,1.2-3.6,2.8h0.4
		c0.4-0.6,1.1-1.2,1.9-1.4l-2.6,6.6c-0.2,0.6,0.2,1,0.5,1c1.2,0,2.7-1.2,3.3-2.8h-0.4c-0.4,0.6-1.1,1.2-1.9,1.4L54.3,159z
		 M54.7,155.6c0.6,0,1.1-0.5,1.1-1.1c0-0.6-0.5-1.1-1.1-1.1c-0.6,0-1.1,0.5-1.1,1.1C53.7,155.1,54.1,155.6,54.7,155.6 M48,154.5H42
		l-0.1,0.5c1.7,0.4,2,0.5,1.1,2.8l-2,5.4c-0.9,2.2-1.2,2.5-3.2,2.8l-0.1,0.5h9.1l2-3.6h-0.6c-1.1,1.2-2.5,2.8-4.5,2.8
		c-1.5,0-1.7-0.2-0.9-2.6l2-5.4c0.9-2.2,1.2-2.5,3.2-2.8V154.5z"/>
	<path id="Fond_2_" class="st0" d="M71.8,64.2c0.4-0.4,0.6-0.6,1-1l0,0c0.6-0.7,1.2-1.4,1.9-2c0.2-0.2,0.4-0.4,0.6-0.5
		c0,0,0-0.1,0.1-0.2c-0.2,0.1-0.5,0.4-0.7,0.5c0,0-0.1,0,0-0.1c0.2-0.1,0.4-0.2,0.6-0.5l0,0c0,0,0,0,0-0.1c-0.7-0.1-1.4,0.4-1.9,0.9
		c-0.1,0-0.2,0-0.2,0c-0.9,0.2-1.5,1-2.3,1.4v-0.1c-0.4,0.1-0.6,0.4-1,0.4c-0.5,0.1-1,0-1.4,0c-0.7,0.1-1.4,0.2-2.1,0.4l0,0
		c-0.4,0.1-0.7,0.2-1.1,0.4l0,0c0,0,0,0.1-0.1,0.1c-0.1,0.1-0.2,0.2-0.4,0.4c-0.4,0.1-0.6,0.5-1,0.7c0,0,0,0-0.1,0
		c-0.2,0.2-0.6,0.6-0.9,0.9h-0.1l0,0l0,0c0-0.1,0.1-0.1,0.1-0.2s0.1-0.1,0.1-0.2c0.1-0.1,0.1-0.2,0.2-0.4c0,0,0,0,0-0.1
		c0,0,0,0-0.1,0c0.2-0.2,0.6-0.5,1-0.7l0,0h-0.1l0.1-0.1l0,0l0,0c-0.1,0-0.2,0.1-0.2,0.2c-0.1,0.1-0.2,0.4-0.5,0.4c0,0,0,0-0.1,0
		l0,0l0,0l0,0l0,0l0,0l0,0l0,0c0,0,0,0,0-0.1l0,0c0,0,0-0.1,0.1-0.1l0,0V64v-0.1c0.1-0.1,0.2-0.2,0.4-0.4l0,0
		c0.2-0.1,0.5-0.2,0.6-0.4c0,0,0.1,0,0.1-0.1c-0.4,0.1-0.6,0.2-0.9,0.5h-0.1h-0.1l0,0c0-0.1,0.2-0.1,0.4-0.2h0.1
		c1.9-1.4,4.3-1.1,6.4-1.9c0.1-0.1,0.4-0.2,0.5-0.4c0.2-0.1,0.5-0.4,0.9-0.6c0.5-0.4,0.7-0.7,1-1.4v-0.1c-0.7,0.7-1.6,1.4-2.5,1.9
		c-1.2,0.6-2.5,0.5-3.7,0.7c0-0.1,0.1-0.1,0.2-0.1c0-0.1,0.1-0.2,0.2-0.4H67c0,0,0-0.1,0.1-0.1s0.2,0,0.2,0c-0.1-0.2-0.5,0.1-0.7,0
		c0.1-0.1,0-0.2,0.1-0.4H67c0-0.1,0.1-0.2,0.1-0.2c0.9-0.5,1.6-0.9,2.5-1.4c-0.1,0-0.2,0.1-0.5,0c0.1,0,0-0.1,0.1-0.1
		c0.6-0.1,1.1-0.5,1.7-0.7c-0.2,0-0.4,0.1-0.6,0c0.1,0,0.1-0.1,0.4-0.1v-0.1c0,0,0,0,0.1,0h-0.1c0-0.1,0.2,0,0.4-0.1h-0.1
		c0.1-0.2,0.5-0.2,0.7-0.4c0-0.1-0.2,0-0.2-0.1c0,0,0,0,0.1,0h-0.1c-0.1,0,0-0.1,0-0.2c0.4-0.4,0.4-0.9,0.5-1.4h-0.1
		c-0.6,0.6-1.5,0.9-2.3,1.1h-0.2c-0.2,0.1-0.7,0.1-1,0c-0.2-0.1-0.4-0.2-0.6-0.5c-0.5-0.2-0.9-0.5-1.4-0.7c-1.4-0.5-2.8-0.7-4.3-0.6
		c0.6-0.4,1.4-0.4,2-0.6c1-0.2,1.9-0.6,2.8-0.6c-0.1,0-0.4,0-0.6,0c-0.7,0-1.6,0.1-2.5,0.4c-0.6,0.1-1.1,0.4-1.6,0.5
		c-0.4,0.1-0.5,0.5-0.9,0.4v-0.1c0.6-0.7,1.2-1.4,2.1-1.4c1-0.1,2,0,3,0.1c0.7,0,1.4,0.2,2.1,0.4c0.2,0,0.4,0.5,0.6,0.5
		c0.4,0.1,0.7,0,1,0.2c0-0.1,0-0.2,0-0.4c0.2-0.2,0.5,0,0.7,0c0.5-0.2-0.4-0.7-0.6-1.2v-0.1c0.5,0.4,0.7,0.9,1.4,1.1
		c0.2,0.1,1,0.2,0.9,0c-0.2-0.6-0.9-1.1-1.4-1.7V52c-0.1,0-0.1,0-0.1-0.1v-0.2c-0.2-0.1-0.1-0.4-0.2-0.5c-0.1-0.2,0-0.7-0.1-1
		c-0.1-0.4-0.1-0.6-0.2-1c-0.1-1-0.4-1.9-0.5-2.7c-0.1-1.1,0.6-2,1.1-2.8c0.4-0.7,0.9-1.4,1.6-1.9c0.1-0.7,0.6-1.2,1.1-1.9
		c0.5-0.5,1.2-0.9,1.7-1.1c0.7-0.9,1.4-1.1,1.4-1.1H88c0,0,0,0,0.2,0.1c0.2,0.1,0.6,0.4,0.9,0.5c0.4,0.2,0.9,0.5,1.1,0.9
		c0.1,0.1,0.2,0.5,0.1,0.7c-0.1,0.2-0.1,0.7-0.5,0.9c-0.4,0.1-0.7,0.1-1.2,0.1c-0.2,0-0.5,0-0.7-0.1c0.9,0.4,1.6,0.7,2.2,1.5
		c0,0.1,0.2,0.1,0.5,0.1v0.1c-0.1,0.1-0.2,0.1-0.1,0.4h0.4c0.2-0.1,0.2-0.7,0.6-0.5c0.2,0.1,0.4,0.6,0.2,0.9
		c-0.2,0.2-0.5,0.4-0.7,0.6c0,0.1,0,0.2,0,0.4c0.1,0.2,0.2,0.5,0.2,0.7c0.1,0.4,0.2,0.9,0.4,1.2c0.4,0.9,0.6,1.7,0.5,2.6
		c0,0.5-0.2,0.9,0,1.4c0.1,0.5,0.4,0.7,0.6,1.2c0.2,0.4,0.5,0.6,0.6,0.9c0.4,0.6,1,1.1,0.7,1.9c-0.1,0.4-0.7,0.4-1.2,0.6
		c-0.4,0.2,0,0.7,0.1,1c0.2,0.5-0.4,0.9-0.7,1c0.1,0.1,0.4,0.1,0.4,0.2c0,0.2,0.4,0.5,0.1,0.7c-0.2,0.4-0.9,0.5-0.6,1
		c0.2,0.4,0.1,0.9,0,1.2c-0.1,0.5-0.6,0.7-1,0.9c-0.4,0.1-0.7,0.1-1.1,0c-0.1,0-0.2-0.1-0.4-0.1c-1-0.1-2-0.4-2.8-0.4
		c-0.2,0-0.6,0.1-0.7,0.2c-0.2,0.2-0.5,0.4-0.7,0.6l0,0l-0.1,0.1c0,0,0,0-0.1,0.1l0,0c-0.1,0.2-0.4,0.4-0.5,0.6l0,0c0,0,0,0,0,0.1
		c-0.2,0.4-0.4,0.7-0.4,1c-0.4,1.4-0.2,2.5,0,2.7c0.1,0.1,1.9,0.6,3.1,1.2c0.6,0.2,1,0.5,1.4,0.6H65.2c1.1-0.7,2.1-1.1,3.7-1.9
		C69.7,65.5,71.3,64.7,71.8,64.2 M63.1,60.2c-0.1,0-0.4,0-0.2,0c0-0.2,0.5-0.2,0.7-0.4c0.1,0,0.2-0.1,0.4-0.1
		c0.1,0.1,0.2,0.1,0.4,0.2C64,60.2,63.5,59.9,63.1,60.2 M54.3,58.8L54.3,58.8c0.7-1.1,1.2-2,1.7-3c0.7-0.4,1.4-1,2-1.6
		c1-1,2-2,3.2-2.5c0.5-0.1,1-0.1,1.5,0c-0.1,0.2-0.5,0.1-0.7,0.4h-0.1V52c-0.6,0.6-1.4,0.9-1.9,1.6c-0.4,0.6-0.6,1.4-1.4,1.5
		c-0.2,0,0-0.1,0-0.1C57.1,56.1,55.8,57.3,54.3,58.8 M59.2,55.1c0,0.1-0.1,0.1-0.1,0.2c0,0.1-0.1,0.1-0.2,0.2h-0.1
		C58.7,55.3,58.8,55.1,59.2,55.1C59.2,55,59.2,55.1,59.2,55.1 M61.8,63.6c0,0.1-0.1,0.1-0.1,0.1c0.1,0,0.1,0,0.1,0.1
		c-0.1,0.1-0.2,0.2-0.4,0.2c0,0,0,0-0.1,0c-0.1,0.1-0.1,0.1-0.2,0.2c-0.1,0-0.4,0-0.2-0.1c0.1-0.1,0.2-0.2,0.4-0.4
		c0.1-0.1,0.1-0.1,0.2-0.2l0.1-0.1C61.5,63.5,61.8,63.5,61.8,63.6 M60.8,63.1L60.8,63.1c-0.2,0.1-0.5,0.4-0.6,0.5
		c-0.2,0.1-0.5,0.2-0.7,0.4l0,0c0,0,0,0-0.1,0c-0.2,0.1-0.4,0.2-0.6,0.5c0,0,0,0-0.1,0.1l0,0l0,0c0,0,0,0-0.1,0.1l0,0l0,0l-0.1,0.1
		c0,0,0,0-0.1,0.1h-0.1l0,0h-0.1c0,0,0,0-0.1,0l0,0l0,0c-0.1,0-0.1,0.1-0.2,0.1c-0.1,0.1-0.2,0.2-0.4,0.4l0,0l0,0l0,0l0,0l0,0l0,0
		l0,0l0,0l0,0l0,0c0,0,0,0,0-0.1l0,0l0,0c0-0.1,0.1-0.1,0.1-0.2l0,0c0,0,0,0,0-0.1l0.1-0.1l0,0c0.1-0.1,0.1-0.1,0.1-0.2l0,0l0,0
		c0,0,0-0.1,0.1-0.1c0,0,0-0.1,0.1-0.1l0,0l0,0l0,0v-0.1l0,0l0,0c0,0,0,0,0-0.1l0,0c0,0,0,0,0-0.1l0,0c0.1-0.1,0.1-0.2,0.2-0.2l0,0
		c-0.1,0-0.1,0.1-0.2,0.1c0,0-0.1,0-0.1-0.1l0.1-0.1l0,0c0.1-0.1,0.1-0.2,0.2-0.2c0.1,0,0.1-0.1,0.1-0.1l0,0l0.1-0.1l0,0
		c0.5-0.5,1.5-0.5,2.2-0.9c0.2-0.1,0.6,0,0.9,0c0.1,0,0.4,0,0.5,0.1C61.6,62.5,61.1,62.9,60.8,63.1 M61.9,59.2c0,0,0.1,0,0.2-0.1
		h-0.5c0,0,0,0,0-0.1c-0.2,0-0.6,0.1-0.9,0.2c-0.4,0.1-0.7,0.4-1.2,0.5c-0.6,0.2-1.1,0.7-1.9,1c0,0,0,0,0-0.1c0-0.1,0.2-0.2,0.4-0.4
		V60c0.5-0.6,1.1-1,1.6-1.5v-0.1c0.1-0.2,0.5-0.4,0.6-0.6c0-0.1,0.2-0.4,0.6-0.5c0,0-0.1,0-0.1-0.1c-0.2,0-0.5,0.1-0.7,0
		c0.1-0.1,0.2-0.1,0.4-0.2c0,0-0.1,0-0.1-0.1c0-0.1,0.1-0.2,0.2-0.2c0.2,0,0.5,0,0.7-0.2c-0.4,0-0.9,0.1-1.2-0.1
		c0.2-0.7,0.7-1.4,1.5-1.7h0.1c0,0.2-0.1,0.5-0.5,0.6c0.5,0.1,0.9,0.1,1.4,0.4c0,0.1-0.1,0-0.2,0c0.2,0.1,0.6,0,0.9,0.2
		c-0.1,0.1-0.4,0-0.5,0c1.7,0.5,3.6,0.9,5.1,2.1c-1.2,0.6-2.6,0.9-4,1.2c-0.1,0-0.2,0-0.5,0v0.1c-0.2,0-0.4,0-0.6,0.1
		C62.4,59.3,62.1,59.4,61.9,59.2"/>
	<path id="Rouge_1_" class="st1" d="M71.8,64.2c0.4-0.4,0.6-0.6,1-1l0,0c0.6-0.7,1.2-1.4,1.9-2c0.2-0.2,0.4-0.4,0.6-0.5
		c0,0,0-0.1,0.1-0.2c-0.2,0.1-0.5,0.4-0.7,0.5c0,0-0.1,0,0-0.1c0.2-0.1,0.4-0.2,0.6-0.5l0,0c0,0,0,0,0-0.1c-0.7-0.1-1.4,0.4-1.9,0.9
		c-0.1,0-0.2,0-0.2,0c-0.9,0.2-1.5,1-2.3,1.4v-0.1c-0.4,0.1-0.6,0.4-1,0.4c-0.5,0.1-1,0-1.4,0c-0.7,0.1-1.4,0.2-2.1,0.4l0,0
		c-0.4,0.1-0.7,0.2-1.1,0.4l0,0c0,0,0,0.1-0.1,0.1c-0.1,0.1-0.2,0.2-0.4,0.4c-0.4,0.1-0.6,0.5-1,0.7c0,0,0,0-0.1,0
		c-0.2,0.2-0.6,0.6-0.9,0.9h-0.1l0,0l0,0c0-0.1,0.1-0.1,0.1-0.2s0.1-0.1,0.1-0.2c0.1-0.1,0.1-0.2,0.2-0.4c0,0,0,0,0-0.1
		c0,0,0,0-0.1,0c0.2-0.2,0.6-0.5,1-0.7l0,0h-0.1l0.1-0.1l0,0l0,0c-0.1,0-0.2,0.1-0.2,0.2c-0.1,0.1-0.2,0.4-0.5,0.4c0,0,0,0-0.1,0
		l0,0l0,0l0,0l0,0l0,0l0,0l0,0c0,0,0,0,0-0.1l0,0c0,0,0-0.1,0.1-0.1l0,0V64v-0.1c0.1-0.1,0.2-0.2,0.4-0.4l0,0
		c0.2-0.1,0.5-0.2,0.6-0.4c0,0,0.1,0,0.1-0.1c-0.4,0.1-0.6,0.2-0.9,0.5h-0.1h-0.1l0,0c0-0.1,0.2-0.1,0.4-0.2h0.1
		c1.9-1.4,4.3-1.1,6.4-1.9c0.1-0.1,0.4-0.2,0.5-0.4c0.2-0.1,0.5-0.4,0.9-0.6c0.5-0.4,0.7-0.7,1-1.4v-0.1c-0.7,0.7-1.6,1.4-2.5,1.9
		c-1.2,0.6-2.5,0.5-3.7,0.7c0-0.1,0.1-0.1,0.2-0.1c0-0.1,0.1-0.2,0.2-0.4H67c0,0,0-0.1,0.1-0.1s0.2,0,0.2,0c-0.1-0.2-0.5,0.1-0.7,0
		c0.1-0.1,0-0.2,0.1-0.4H67c0-0.1,0.1-0.2,0.1-0.2c0.9-0.5,1.6-0.9,2.5-1.4c-0.1,0-0.2,0.1-0.5,0c0.1,0,0-0.1,0.1-0.1
		c0.6-0.1,1.1-0.5,1.7-0.7c-0.2,0-0.4,0.1-0.6,0c0.1,0,0.1-0.1,0.4-0.1v-0.1c0,0,0,0,0.1,0h-0.1c0-0.1,0.2,0,0.4-0.1h-0.1
		c0.1-0.2,0.5-0.2,0.7-0.4c0-0.1-0.2,0-0.2-0.1c0,0,0,0,0.1,0h-0.1c-0.1,0,0-0.1,0-0.2c0.4-0.4,0.4-0.9,0.5-1.4h-0.1
		c-0.6,0.6-1.5,0.9-2.3,1.1h-0.2c-0.2,0.1-0.7,0.1-1,0c-0.2-0.1-0.4-0.2-0.6-0.5c-0.5-0.2-0.9-0.5-1.4-0.7c-1.4-0.5-2.8-0.7-4.3-0.6
		c0.6-0.4,1.4-0.4,2-0.6c1-0.2,1.9-0.6,2.8-0.6c-0.1,0-0.4,0-0.6,0c-0.7,0-1.6,0.1-2.5,0.4c-0.6,0.1-1.1,0.4-1.6,0.5
		c-0.4,0.1-0.5,0.5-0.9,0.4v-0.1c0.6-0.7,1.2-1.4,2.1-1.4c1-0.1,2,0,3,0.1c0.7,0,1.4,0.2,2.1,0.4c0.2,0,0.4,0.5,0.6,0.5
		c0.4,0.1,0.7,0,1,0.2c0-0.1,0-0.2,0-0.4c0.2-0.2,0.5,0,0.7,0c0.5-0.2-0.4-0.7-0.6-1.2v-0.1c0.5,0.4,0.7,0.9,1.4,1.1
		c0.2,0.1,1,0.2,0.9,0c-0.2-0.6-0.9-1.1-1.4-1.7V52c-0.1,0-0.1,0-0.1-0.1v-0.2c-0.2-0.1-0.1-0.4-0.2-0.5c-0.1-0.2,0-0.7-0.1-1
		c-0.1-0.4-0.1-0.6-0.2-1c-0.1-1-0.4-1.9-0.5-2.7c-0.1-1.1,0.6-2,1.1-2.8c0.4-0.7,0.9-1.4,1.6-1.9c0.1-0.7,0.6-1.2,1.1-1.9
		c0.5-0.5,1.2-0.9,1.7-1.1c0.7-0.9,1.4-1.1,1.4-1.1H37.7v30h27.6c1.1-0.7,2.1-1.1,3.7-1.9C69.7,65.5,71.3,64.7,71.8,64.2 M63.1,60.2
		c-0.1,0-0.4,0-0.2,0c0-0.2,0.5-0.2,0.7-0.4c0.1,0,0.2-0.1,0.4-0.1c0.1,0.1,0.2,0.1,0.4,0.2C64,60.2,63.5,59.9,63.1,60.2 M54.5,58.8
		C54.5,58.8,54.3,58.8,54.5,58.8c0.7-1.1,1.2-2,1.7-3c0.7-0.4,1.4-1,2-1.6c1-1,2-2,3.2-2.5c0.5-0.1,1-0.1,1.5,0
		c-0.1,0.2-0.5,0.1-0.7,0.4H62V52c-0.6,0.6-1.4,0.9-1.9,1.6c-0.4,0.6-0.6,1.4-1.4,1.5c-0.2,0,0-0.1,0-0.1
		C57.1,56.1,55.8,57.3,54.5,58.8 M59.2,55.1c0,0.1-0.1,0.1-0.1,0.2c0,0.1-0.1,0.1-0.2,0.2h-0.1C58.7,55.3,58.8,55.1,59.2,55.1
		C59.2,55,59.2,55.1,59.2,55.1 M61.8,63.6c0,0.1-0.1,0.1-0.1,0.1c0.1,0,0.1,0,0.1,0.1c-0.1,0.1-0.2,0.2-0.4,0.2c0,0,0,0-0.1,0
		c-0.1,0.1-0.1,0.1-0.2,0.2c-0.1,0-0.4,0-0.2-0.1c0.1-0.1,0.2-0.2,0.4-0.4c0.1-0.1,0.1-0.1,0.2-0.2l0.1-0.1
		C61.5,63.5,61.8,63.5,61.8,63.6 M60.8,63.1L60.8,63.1c-0.2,0.1-0.5,0.4-0.6,0.5c-0.2,0.1-0.5,0.2-0.7,0.4l0,0c0,0,0,0-0.1,0
		c-0.2,0.1-0.4,0.2-0.6,0.5c0,0,0,0-0.1,0.1l0,0l0,0c0,0,0,0-0.1,0.1l0,0l0,0l-0.1,0.1c0,0,0,0-0.1,0.1h-0.1l0,0h-0.1c0,0,0,0-0.1,0
		l0,0l0,0c-0.1,0-0.1,0.1-0.2,0.1c-0.1,0.1-0.2,0.2-0.4,0.4l0,0l0,0l0,0l0,0l0,0l0,0l0,0l0,0l0,0l0,0c0,0,0,0,0-0.1l0,0l0,0
		c0-0.1,0.1-0.1,0.1-0.2l0,0c0,0,0,0,0-0.1l0.1-0.1l0,0c0.1-0.1,0.1-0.1,0.1-0.2l0,0l0,0c0,0,0-0.1,0.1-0.1c0,0,0-0.1,0.1-0.1l0,0
		l0,0l0,0v-0.1l0,0l0,0c0,0,0,0,0-0.1l0,0c0,0,0,0,0-0.1l0,0c0.1-0.1,0.1-0.2,0.2-0.2l0,0c-0.1,0-0.1,0.1-0.2,0.1c0,0-0.1,0-0.1-0.1
		l0.1-0.1l0,0c0.1-0.1,0.1-0.2,0.2-0.2c0.1,0,0.1-0.1,0.1-0.1l0,0l0.1-0.1l0,0c0.5-0.5,1.5-0.5,2.2-0.9c0.2-0.1,0.6,0,0.9,0
		c0.1,0,0.4,0,0.5,0.1C61.6,62.5,61.3,62.9,60.8,63.1 M61.9,59.2c0,0,0.1,0,0.2-0.1h-0.5c0,0,0,0,0-0.1c-0.2,0-0.6,0.1-0.9,0.2
		c-0.4,0.1-0.7,0.4-1.2,0.5c-0.6,0.2-1.1,0.7-1.9,1c0,0,0,0,0-0.1c0-0.1,0.2-0.2,0.4-0.4V60c0.5-0.6,1.1-1,1.6-1.5v-0.1
		c0.1-0.2,0.5-0.4,0.6-0.6c0-0.1,0.2-0.4,0.6-0.5c0,0-0.1,0-0.1-0.1c-0.2,0-0.5,0.1-0.7,0c0.1-0.1,0.2-0.1,0.4-0.2
		c0,0-0.1,0-0.1-0.1c0-0.1,0.1-0.2,0.2-0.2c0.2,0,0.5,0,0.7-0.2c-0.4,0-0.9,0.1-1.2-0.1c0.2-0.7,0.7-1.4,1.5-1.7h0.1
		c0,0.2-0.1,0.5-0.5,0.6c0.5,0.1,0.9,0.1,1.4,0.4c0,0.1-0.1,0-0.2,0c0.2,0.1,0.6,0,0.9,0.2c-0.1,0.1-0.4,0-0.5,0
		c1.7,0.5,3.6,0.9,5.1,2.1c-1.2,0.6-2.6,0.9-4,1.2c-0.1,0-0.2,0-0.5,0v0.1c-0.2,0-0.4,0-0.6,0.1C62.4,59.3,62.1,59.4,61.9,59.2"/>
	<path id="Bleu_1_" class="st2" d="M120.4,37.7H88c0,0,0,0,0.2,0.1c0.2,0.1,0.6,0.4,0.9,0.5c0.4,0.2,0.9,0.5,1.1,0.9
		c0.1,0.1,0.2,0.5,0.1,0.7c-0.1,0.2-0.1,0.7-0.5,0.9c-0.4,0.1-0.7,0.1-1.2,0.1c-0.2,0-0.5,0-0.7-0.1c0.9,0.4,1.6,0.7,2.2,1.5
		c0,0.1,0.2,0.1,0.5,0.1v0.1c-0.1,0.1-0.2,0.1-0.1,0.4h0.4c0.2-0.1,0.2-0.7,0.6-0.5c0.2,0.1,0.4,0.6,0.2,0.9
		c-0.2,0.2-0.5,0.4-0.7,0.6c0,0.1,0,0.2,0,0.4c0.1,0.2,0.2,0.5,0.2,0.7c0.1,0.4,0.2,0.9,0.4,1.2c0.4,0.9,0.6,1.7,0.5,2.6
		c0,0.5-0.2,0.9,0,1.4c0.1,0.5,0.4,0.7,0.6,1.2c0.2,0.4,0.5,0.6,0.6,0.9c0.4,0.6,1,1.1,0.7,1.9c-0.1,0.4-0.7,0.4-1.2,0.6
		c-0.4,0.2,0,0.7,0.1,1c0.2,0.5-0.4,0.9-0.7,1c0.1,0.1,0.4,0.1,0.4,0.2c0,0.2,0.4,0.5,0.1,0.7c-0.2,0.4-0.9,0.5-0.6,1
		c0.2,0.4,0.1,0.9,0,1.2c-0.1,0.5-0.6,0.7-1,0.9c-0.4,0.1-0.7,0.1-1.1,0c-0.1,0-0.2-0.1-0.4-0.1c-1-0.1-2-0.4-2.8-0.4
		c-0.2,0-0.6,0.1-0.7,0.2c-0.2,0.2-0.5,0.4-0.7,0.6l0,0l-0.1,0.1c0,0,0,0-0.1,0.1l0,0c-0.1,0.2-0.4,0.4-0.5,0.6l0,0c0,0,0,0,0,0.1
		c-0.2,0.4-0.4,0.7-0.4,1c-0.4,1.4-0.2,2.5,0,2.7c0.1,0.1,1.9,0.6,3.1,1.2c0.6,0.2,1,0.5,1.4,0.6h31.8V37.7z"/>
	<path id="Yeux_1_" class="st3" d="M89.9,48.7c0.2,0,0.6,0,0.6,0.1c-0.1,0.5-0.7,0.6-1.1,1h-0.1c-0.1,0.1-0.1,0.4-0.2,0.4
		s-0.4,0-0.5,0c0.2,0.2,0.5,0.4,0.9,0.4c0,0,0.1,0.1,0.1,0.2c0,0,0,0,0.1,0h0.1V51c-0.1,0.2-0.5,0.1-0.7,0.1c0.5,0.1,0.9,0.1,1.4,0
		c0.4-0.1,0-0.7,0.2-1c-0.1,0,0-0.1-0.1-0.1c0.1-0.1,0.2-0.2,0.4-0.4c0.1,0,0.2,0,0.4-0.1c0-0.1-0.2-0.1-0.1-0.2
		c0.4-0.2,0.6-0.6,0.5-0.9c0-0.1-0.5-0.1-0.7-0.2c-0.2-0.1-0.6,0-1,0c-0.2,0-0.6,0.1-0.9,0.2c-0.7,0.1-1,0.4-1.4,0.5
		c0.4-0.1,0.7-0.2,1.2-0.4C89.3,48.7,89.6,48.5,89.9,48.7"/>
	<path id="TEXTE" d="M37.7,105.4V83h5.7l5.4,9.2l5.4-9.2H60v22.4h-4.5V89.4l-5,8.3h-3.2l-5-8.3v15.9H37.7z M66.5,105.4V83h4.5v22.4
		H66.5z M77.7,105.4V83h5.8l10,16V83h4.5v22.4h-5.8l-10-16.1v16.1H77.7z M104.6,105.4V83h4.5v22.4H104.6z M113.8,102.3l3.3-3
		c0.7,0.9,1.4,1.5,2.3,2c0.9,0.5,1.8,0.7,2.7,0.7c0.9,0,1.6-0.2,2.1-0.7c0.5-0.5,0.8-1.1,0.8-1.9c0-1-0.5-1.8-1.6-2.3
		c-1.1-0.5-2.2-1.1-3.5-1.7c-1.3-0.6-2.5-1.4-3.5-2.4c-1.1-1-1.6-2.4-1.6-4.2c0-0.9,0.2-1.7,0.5-2.5c0.4-0.8,0.8-1.5,1.5-2.1
		s1.4-1.1,2.3-1.4c0.9-0.3,1.8-0.5,2.9-0.5c1.7,0,3.2,0.3,4.5,1c1.3,0.7,2.4,1.6,3.4,2.7l-3.3,3c-0.7-0.9-1.4-1.5-2.1-2
		c-0.7-0.5-1.5-0.8-2.4-0.8c-0.8,0-1.4,0.2-1.9,0.7c-0.5,0.4-0.7,1-0.7,1.7c0,1,0.5,1.8,1.6,2.3c1.1,0.5,2.2,1.1,3.5,1.7
		c1.3,0.6,2.5,1.4,3.5,2.4c1.1,1,1.6,2.4,1.6,4.3c0,1-0.2,2-0.6,2.8c-0.4,0.8-0.9,1.5-1.6,2.1c-0.7,0.6-1.4,1-2.3,1.3
		c-0.9,0.3-1.9,0.5-2.9,0.5c-1.9,0-3.5-0.3-4.8-1C115.9,104.4,114.7,103.4,113.8,102.3z M132.1,87.1V83h18.4v4.1h-6.9v18.3H139V87.1
		H132.1z M154.8,105.4V83h13.1v3.9h-8.5V92h7.2v3.9h-7.2v5.6h8.5v3.9H154.8z M159.3,81.1l-4.1-4.3h4.7l3.6,4.3H159.3z M173.5,105.4
		V83h6.8c2.5,0,4.4,0.6,5.8,1.8c1.4,1.2,2.1,2.8,2.1,4.9c0,1.3-0.3,2.5-0.9,3.5c-0.6,1-1.5,1.8-2.6,2.3l7,9.9h-5.4l-6-9.1H178v9.1
		H173.5z M180.6,86.9H178v5.6h2.6c1,0,1.7-0.2,2.2-0.7c0.5-0.5,0.8-1.2,0.8-2.1c0-0.9-0.3-1.5-0.8-2
		C182.3,87.1,181.5,86.9,180.6,86.9z M194.9,105.4V83h13.1v3.9h-8.5V92h7.2v3.9h-7.2v5.6h8.5v3.9H194.9z M37.7,137.4V115h8.8
		c1.8,0,3.4,0.3,4.9,0.9c1.5,0.6,2.7,1.4,3.8,2.4c1,1,1.8,2.2,2.4,3.6s0.9,2.8,0.9,4.3c0,1.5-0.3,2.9-0.9,4.3
		c-0.6,1.4-1.4,2.5-2.4,3.6c-1,1-2.3,1.8-3.8,2.4c-1.5,0.6-3.1,0.9-4.9,0.9H37.7z M46.6,119.1h-4.3v14.1h4.3c1,0,2-0.2,2.9-0.5
		c0.9-0.4,1.6-0.9,2.3-1.5c0.6-0.6,1.1-1.4,1.5-2.3c0.4-0.9,0.5-1.8,0.5-2.8c0-1-0.2-1.9-0.5-2.8c-0.4-0.9-0.9-1.6-1.5-2.2
		c-0.6-0.6-1.4-1.1-2.3-1.5C48.6,119.3,47.6,119.1,46.6,119.1z M76.3,129v-14h4.5v13.6c0,2.9-0.8,5.2-2.4,6.9
		c-1.6,1.7-3.8,2.5-6.6,2.5s-5-0.8-6.6-2.5s-2.4-4-2.4-6.9V115h4.5v14c0,1.5,0.4,2.7,1.2,3.5s1.9,1.3,3.3,1.3c1.4,0,2.5-0.4,3.3-1.3
		C75.9,131.7,76.3,130.5,76.3,129z M93.2,119.1V115h18.4v4.1h-6.9v18.3h-4.5v-18.3H93.2z M115.8,137.4V115h6.8
		c2.5,0,4.4,0.6,5.8,1.8c1.4,1.2,2.1,2.8,2.1,4.9c0,1.3-0.3,2.5-0.9,3.5c-0.6,1-1.5,1.8-2.6,2.3l7,9.9h-5.4l-6-9.1h-2.3v9.1H115.8z
		 M122.9,118.9h-2.6v5.6h2.6c1,0,1.7-0.2,2.2-0.7c0.5-0.5,0.8-1.2,0.8-2.1c0-0.9-0.3-1.5-0.8-2C124.7,119.1,123.9,118.9,122.9,118.9
		z M135.4,137.4l8.5-22.4h6l8.5,22.4h-4.8l-2.1-5.8h-9l-2.1,5.8H135.4z M143.8,127.7h6.1l-3.1-8.4L143.8,127.7z M157.3,115h4.8
		l6.6,17.5l6.6-17.5h4.8l-8.5,22.4h-6L157.3,115z M179.2,137.4l8.5-22.4h6l8.5,22.4h-4.8l-2.1-5.8h-9l-2.1,5.8H179.2z M187.6,127.7
		h6.1l-3.1-8.4L187.6,127.7z M205.9,137.4V115h4.5v22.4H205.9z M217,137.4V115h4.5v18.3h8.5v4.1H217z"/>
</g>
<g id="Calque_2">
</g>
</svg>
