<svg width="490" height="220" viewBox="0 0 490 220" fill="none" xmlns="http://www.w3.org/2000/svg">
<path d="M195.101 155.9C195.101 166 186.901 174.3 176.701 174.3C166.501 174.3 158.301 166.1 158.301 155.9C158.301 145.8 166.501 137.5 176.701 137.5C186.901 137.5 195.101 145.8 195.101 155.9Z" fill="#283276"/>
<path d="M74.1008 87.4C74.1008 97.5 65.9008 105.8 55.7008 105.8C45.5008 105.8 37.3008 97.6 37.3008 87.4C37.3008 77.3 45.5008 69 55.7008 69C65.9008 69 74.1008 77.2 74.1008 87.4Z" fill="#F29FC5"/>
<path d="M160.4 135.8C160.4 145.9 152.2 154.2 142 154.2C131.9 154.2 123.6 146 123.6 135.8C123.6 125.7 131.8 117.4 142 117.4C152.2 117.5 160.4 125.7 160.4 135.8Z" fill="#008ECF"/>
<path d="M115.999 158C115.999 168.1 107.799 176.4 97.5992 176.4C87.4992 176.4 79.1992 168.2 79.1992 158C79.1992 147.9 87.3992 139.6 97.5992 139.6C107.799 139.7 115.999 147.9 115.999 158Z" fill="#F29FC5"/>
<path d="M115.999 201.3C115.999 211.4 107.799 219.7 97.5992 219.7C87.4992 219.7 79.1992 211.5 79.1992 201.3C79.1992 191.2 87.3992 182.9 97.5992 182.9C107.799 183 115.999 191.2 115.999 201.3Z" fill="#283276"/>
<path d="M195.101 64.5001C195.101 74.6001 186.901 82.9001 176.701 82.9001C166.501 82.9001 158.301 74.7001 158.301 64.5001C158.301 54.4001 166.501 46.1001 176.701 46.1001C186.901 46.1001 195.101 54.4001 195.101 64.5001Z" fill="#283276"/>
<path d="M160.4 87.4C160.4 97.5 152.2 105.8 142 105.8C131.9 105.8 123.6 97.6 123.6 87.4C123.6 77.3 131.8 69 142 69C152.2 69 160.4 77.2 160.4 87.4Z" fill="#283276"/>
<path d="M71.3996 137.5C71.3996 147.6 63.1996 155.9 52.9996 155.9C42.7996 155.9 34.5996 147.7 34.5996 137.5C34.5996 127.4 42.7996 119.1 52.9996 119.1C63.1996 119.1 71.3996 127.3 71.3996 137.5Z" fill="#283276"/>
<path d="M36.3996 60.5001C38.5996 70.4001 32.3996 80.2001 22.4996 82.4001C12.5996 84.6001 2.79957 78.4001 0.599574 68.5001C-1.60043 58.6001 4.59957 48.8001 14.4996 46.6001C24.3996 44.4001 34.1996 50.6001 36.3996 60.5001Z" fill="#283276"/>
<path d="M34.6007 100.2C33.8007 105.9 28.5007 109.9 22.8007 109.1C17.1007 108.3 13.1007 103 13.9007 97.3002C14.7007 91.6002 20.0007 87.6002 25.7007 88.4002C31.4007 89.2002 35.4007 94.5002 34.6007 100.2Z" fill="#E1000F"/>
<path d="M139.901 175.9C139.001 182.5 132.901 187 126.301 186.1C119.701 185.2 115.201 179.1 116.101 172.5C117.001 165.9 123.101 161.4 129.701 162.3C136.301 163.2 140.801 169.3 139.901 175.9Z" fill="#E1000F"/>
<path d="M175.501 99.8C174.901 103.8 171.301 106.5 167.301 105.9C163.301 105.3 160.601 101.7 161.101 97.7C161.701 93.7 165.301 91 169.301 91.6C173.301 92.2 176.101 95.8 175.501 99.8Z" fill="#E1000F"/>
<path d="M103.999 65.7002C103.199 71.4002 97.8992 75.4002 92.1992 74.6002C86.4992 73.8002 82.4991 68.5002 83.2991 62.8002C84.0991 57.1002 89.3992 53.1002 95.0992 53.9002C100.799 54.7002 104.799 60.0002 103.999 65.7002Z" fill="#E1000F"/>
<path d="M133.999 52.1001C133.199 57.8001 127.899 61.8001 122.199 61.0001C116.499 60.2001 112.499 54.9001 113.299 49.2001C114.099 43.5001 119.399 39.5001 125.099 40.3001C130.899 41.1001 134.899 46.4001 133.999 52.1001Z" fill="#F29FC5"/>
<path d="M66.1007 167C65.3007 172.7 60.0007 176.7 54.3007 175.9C48.6007 175.1 44.6007 169.8 45.4007 164.1C46.2007 158.4 51.5007 154.4 57.2007 155.2C63.0007 156 66.9007 161.3 66.1007 167Z" fill="#FFE000"/>
<path d="M168.9 120.1C168.1 125.8 162.799 129.8 157.099 129C151.399 128.2 147.4 122.9 148.2 117.2C149 111.5 154.3 107.5 160 108.3C165.7 109 169.7 114.3 168.9 120.1Z" fill="#FFE000"/>
<path d="M156.9 168.6C160 173.5 158.5 179.9 153.6 183C148.7 186.1 142.3 184.6 139.2 179.7C136.1 174.8 137.6 168.4 142.5 165.3C147.4 162.3 153.8 163.7 156.9 168.6Z" fill="#283276"/>
<path d="M77.1007 45.8999C76.3007 51.5999 71.0007 55.5999 65.3007 54.7999C59.6007 53.9999 55.6007 48.6999 56.4007 42.9999C57.2007 37.2999 62.5007 33.2999 68.2007 34.0999C73.9007 34.8999 77.9007 40.1999 77.1007 45.8999Z" fill="#FFE000"/>
<path d="M116.901 19.8C116.901 30.4 108.301 39.1 97.6008 39.1C87.0008 39.1 78.3008 30.5 78.3008 19.8C78.3008 9.2 86.9008 0.5 97.6008 0.5C108.301 0.5 116.901 9.1 116.901 19.8Z" fill="#008ECF"/>
<path d="M36.7 155.8C36.7 165.9 28.5 174.2 18.3 174.2C8.09999 174.2 0 166 0 155.8C0 145.7 8.19999 137.4 18.4 137.4C28.6 137.4 36.7 145.7 36.7 155.8Z" fill="#008ECF"/>
<path d="M127.199 106.4C127.199 124.1 112.899 138.4 95.1992 138.4C77.4992 138.4 63.1992 124.1 63.1992 106.4C63.1992 88.6999 77.4992 74.3999 95.1992 74.3999C112.799 74.2999 127.199 88.6999 127.199 106.4Z" fill="#008ECF"/>
<path d="M238.1 43.1001H270.5V51.2001H247.6V67.6001H267.2V75.6001H247.6V101.2H238.1V43.1001Z" fill="#283276"/>
<path d="M278.1 59.4H286.6V64.1C289.5 60.9 293.2 58.5 298.3 58.5C299.6 58.5 300.9 58.7 302 59.1V67.5C300.7 67.2 299.3 66.9 297.6 66.9C292.3 66.9 288.8 69.7 286.6 73.3V101.2H278.1V59.4Z" fill="#283276"/>
<path d="M307.1 90.3002C307.1 84.0002 312 79.4002 320.9 77.9002L334.4 75.7002V73.5002C334.4 68.4002 330.6 65.2002 325.2 65.2002C320.6 65.2002 317.1 67.3002 314.7 70.7002L308.3 65.8002C312 60.8002 318 57.7002 325.5 57.7002C336.8 57.7002 343 64.3002 343 73.6002V101.2H334.5V96.5002C331.5 100.2 326.3 102.5 321.1 102.5C312.7 102.5 307.1 97.7002 307.1 90.3002ZM322.6 95.5002C327.8 95.5002 331.9 93.0002 334.4 89.0002V81.8002L323.1 83.7002C317.9 84.6002 315.7 86.9002 315.7 90.0002C315.7 93.2002 318.3 95.5002 322.6 95.5002Z" fill="#283276"/>
<path d="M355 59.4003H363.5V63.5003C366.7 60.2003 370.8 57.8003 376.8 57.8003C386 57.8003 393.1 64.0003 393.1 76.1003V101.2H384.5V76.4003C384.5 69.8003 380.8 65.8003 374.9 65.8003C369.2 65.8003 365.8 69.4003 363.6 73.0003V101.2H355V59.4003Z" fill="#283276"/>
<path d="M436.8 89.3002L443.5 94.4002C439.7 99.5002 433.5 102.9 425.8 102.9C411.8 102.9 403 92.5002 403 80.3002C403 68.1002 411.8 57.7002 425.8 57.7002C433.4 57.7002 439.7 61.0002 443.5 66.2002L436.8 71.3002C434.5 68.1002 430.7 65.7002 425.8 65.7002C417.7 65.7002 411.9 72.0002 411.9 80.2002C411.9 88.5002 417.7 94.7002 425.8 94.7002C430.6 94.8002 434.5 92.5002 436.8 89.3002Z" fill="#283276"/>
<path d="M471.799 102.9C457.399 102.9 448.799 92.5002 448.799 80.3002C448.799 67.8002 456.799 57.7002 469.999 57.7002C481.499 57.7002 488.999 65.6002 488.999 76.2002C488.999 78.1002 488.799 80.0002 488.399 81.3002H457.499C458.099 90.4002 463.599 95.2002 471.699 95.2002C476.799 95.2002 480.999 93.0002 483.599 89.5002L489.799 94.5002C485.999 99.6002 479.599 102.9 471.799 102.9ZM458.099 74.9002H480.599C480.399 69.7002 476.699 64.9002 469.999 64.9002C463.699 64.9002 459.399 68.4002 458.099 74.9002Z" fill="#283276"/>
<path d="M231.9 117.8H278.8V126.5H260.1V175.9H250.6V126.5H231.9V117.8Z" fill="#283276"/>
<path d="M282.9 134H291.4V138.7C294.3 135.5 298 133.1 303.1 133.1C304.4 133.1 305.7 133.3 306.8 133.7V142.1C305.5 141.8 304.1 141.5 302.4 141.5C297.1 141.5 293.6 144.3 291.4 147.9V175.8H282.9V134Z" fill="#283276"/>
<path d="M311.801 165C311.801 158.7 316.701 154.1 325.601 152.6L339.101 150.4V148.2C339.101 143.1 335.301 139.9 329.901 139.9C325.301 139.9 321.801 142 319.401 145.4L313.001 140.5C316.701 135.5 322.701 132.4 330.201 132.4C341.501 132.4 347.701 139 347.701 148.3V175.9H339.201V171.2C336.201 174.9 331.001 177.2 325.801 177.2C317.501 177.1 311.801 172.4 311.801 165ZM327.301 170.1C332.501 170.1 336.601 167.6 339.101 163.6V156.4L327.801 158.3C322.601 159.2 320.401 161.5 320.401 164.6C320.501 167.9 323.001 170.1 327.301 170.1Z" fill="#283276"/>
<path d="M363.7 134L376 166.6L388.2 134H397.5L381.6 175.9H370.3L354.5 134H363.7Z" fill="#283276"/>
<path d="M402 165C402 158.7 406.9 154.1 415.8 152.6L429.3 150.4V148.2C429.3 143.1 425.5 139.9 420.1 139.9C415.5 139.9 412 142 409.6 145.4L403.2 140.5C406.9 135.5 412.9 132.4 420.4 132.4C431.7 132.4 437.9 139 437.9 148.3V175.9H429.4V171.2C426.4 174.9 421.2 177.2 416 177.2C407.6 177.1 402 172.4 402 165ZM417.5 170.1C422.7 170.1 426.8 167.6 429.3 163.6V156.4L418 158.3C412.8 159.2 410.6 161.5 410.6 164.6C410.6 167.9 413.2 170.1 417.5 170.1Z" fill="#283276"/>
<path d="M459.701 134H451.201V175.8H459.701V134Z" fill="#283276"/>
<path d="M482.201 113.6H473.701V175.8H482.201V113.6Z" fill="#283276"/>
<path d="M450.4 121.3C450.4 118.5 452.7 116.2 455.5 116.2C458.3 116.2 460.6 118.5 460.6 121.3C460.6 124.1 458.3 126.4 455.5 126.4C452.7 126.4 450.4 124 450.4 121.3Z" fill="#283276"/>
</svg>
