<svg id="Calque_1" data-name="Calque 1" xmlns="http://www.w3.org/2000/svg" viewBox="0 0 689.26 290.63"><defs><style>.cls-1{fill:#273375;}.cls-2{fill:#e30613;}</style></defs><path class="cls-1" d="M29.2,24.63h42c27.53,0,44.49,14,44.49,37.57,0,23.44-17,37.39-44.49,37.39H59.09v45.67H29.2ZM59.09,50V74.26H72.85c7.56,0,11.93-5,11.93-12.4C84.78,55,80.41,50,72.85,50Z"/><path class="cls-1" d="M128.93,24.63h39.45c27.53,0,44.49,14,44.49,37.57,0,14.65-6.71,25.68-18.47,31.88l35.93,51.18H195.41L165.86,99.59h-7.05v45.67H128.93ZM158.81,50V74.26h11.42c7.55,0,11.92-5,11.92-12.4,0-6.9-4.37-11.89-11.92-11.89Z"/><path class="cls-1" d="M353.73,85c0,34.46-25.52,63.76-62.79,63.76-37.44,0-63-29.3-63-63.76s25.52-63.76,63-63.76C328.21,21.19,353.73,50.48,353.73,85ZM323,85c0-20.34-13.43-35-32.06-35-18.81,0-32.24,14.81-32.24,35,0,20.33,13.43,35,32.24,35C309.57,119.93,323,105.11,323,85Z"/><path class="cls-2" d="M85.45,238l16.62,13.09c-7.89,10.68-20.32,17.58-35.76,17.58-29.22,0-46.68-21.54-46.68-46.87s17.46-46.88,46.68-46.88c15.44,0,27.87,6.9,35.76,17.58l-16.62,13.1c-4-6-10.75-10-19.48-10-13.93,0-24.18,11-24.18,26.2C41.79,237.09,52,248,66.31,248A22.46,22.46,0,0,0,85.45,238Z"/><path class="cls-2" d="M201.29,221.76c0,26-18.81,46.87-46.34,46.87s-46.34-20.85-46.34-46.87,18.8-46.88,46.34-46.88S201.29,195.74,201.29,221.76Zm-22.16,0c0-15.17-10.25-26.2-23.84-26.2-14.11,0-24.52,11-24.52,26.2S141.18,248,155.29,248C168.88,248,179.13,236.75,179.13,221.76Z"/><path class="cls-2" d="M220.76,178.33h21.32v6.89a34,34,0,0,1,25-10.34c18.31,0,32.91,12.93,32.91,38.61v51.69H278.51V214.35c0-11.55-6.38-18.79-16.79-18.79-10.74,0-16.45,7.41-19.64,12.93v56.69H220.76Z"/><path class="cls-2" d="M324.17,178.33H345.5v6.89a34,34,0,0,1,25-10.34c18.3,0,32.91,12.93,32.91,38.61v51.69H381.93V214.35c0-11.55-6.38-18.79-16.79-18.79-10.74,0-16.45,7.41-19.64,12.93v56.69H324.17Z"/><path class="cls-2" d="M468.56,268.63c-30.06,0-47-21.54-47-46.87,0-25.68,15.78-46.88,43.48-46.88,23.51,0,39,16.2,39,39a59.22,59.22,0,0,1-1.34,12.41H443.37c2,16.2,11.75,22.74,25,22.74,9.23,0,17.29-4.13,21.82-10.34l15.28,12.41C497.6,261.91,484.51,268.63,468.56,268.63ZM444,210.38h39c-.34-8.79-6.72-17.57-18.47-17.57C453.61,192.81,446.39,199,444,210.38Z"/><path class="cls-2" d="M583.89,238l16.63,13.09c-7.89,10.68-20.32,17.58-35.76,17.58-29.22,0-46.68-21.54-46.68-46.87s17.46-46.88,46.68-46.88c15.44,0,27.87,6.9,35.76,17.58l-16.63,13.1c-4-6-10.74-10-19.47-10-13.94,0-24.18,11-24.18,26.2,0,15.33,10.24,26.19,24.52,26.19A22.43,22.43,0,0,0,583.89,238Z"/><path class="cls-2" d="M622.67,198H606.89V178.33h15.78V156.62h21.49v21.71H670V198H644.16v35.49c0,9.65,5,13.44,13.43,13.44,5.88,0,9.74-.68,12.59-1.89v19.13C666,266,661,266.9,653.9,266.9c-21.16,0-31.23-12.23-31.23-33.43Z"/></svg>