<svg width="367" height="38" xmlns="http://www.w3.org/2000/svg"><g fill-rule="nonzero" fill="none"><rect fill="#1B2E57" width="367" height="38" rx="4"/><path d="M92 13.76a.66.66 0 01-.23.28.57.57 0 01-.31.08.79.79 0 01-.4-.14l-.53-.31a4.29 4.29 0 00-.72-.31 3 3 0 00-1-.14 2.84 2.84 0 00-.88.12 1.86 1.86 0 00-.63.34 1.35 1.35 0 00-.38.52 1.7 1.7 0 00-.13.66 1.15 1.15 0 00.26.76c.19.217.42.394.68.52a6.28 6.28 0 001 .39l1.1.36c.375.13.742.28 1.1.45a3.83 3.83 0 011 .65 3 3 0 01.68 1c.184.436.273.907.26 1.38a4.48 4.48 0 01-.3 1.65 3.81 3.81 0 01-.88 1.34c-.407.394-.89.7-1.42.9a5.23 5.23 0 01-1.92.33c-.41 0-.818-.04-1.22-.12a6.43 6.43 0 01-1.16-.35 6 6 0 01-1-.54 5 5 0 01-.86-.7l.7-1.16a.88.88 0 01.24-.21.58.58 0 01.31-.09.86.86 0 01.49.18l.62.41c.266.164.547.302.84.41.372.13.766.191 1.16.18a2.37 2.37 0 001.6-.49 1.76 1.76 0 00.57-1.41 1.31 1.31 0 00-.26-.84 2.08 2.08 0 00-.68-.54 5.17 5.17 0 00-1-.37l-1.1-.33a9.51 9.51 0 01-1.1-.43 3.55 3.55 0 01-1-.66 3 3 0 01-.68-1 3.86 3.86 0 01-.26-1.5 3.58 3.58 0 011.11-2.58 4.08 4.08 0 011.34-.84 4.87 4.87 0 011.81-.32 6.07 6.07 0 012.12.36 4.79 4.79 0 011.66 1l-.6 1.11zM98.38 15a4.49 4.49 0 011.61.28 3.52 3.52 0 011.26.81c.365.374.648.82.83 1.31a5 5 0 01.3 1.78c.009.14.009.28 0 .42a.68.68 0 01-.08.26.33.33 0 01-.16.13.66.66 0 01-.25 0h-5.71a3.18 3.18 0 00.77 2.09 2.38 2.38 0 001.76.67 3.05 3.05 0 00.93-.13 4.29 4.29 0 00.68-.28l.51-.28a.86.86 0 01.43-.13.48.48 0 01.23.05.51.51 0 01.17.15l.65.81c-.24.28-.52.522-.83.72a4.63 4.63 0 01-1 .47c-.324.116-.66.2-1 .25a7.3 7.3 0 01-1 .07 4.94 4.94 0 01-1.79-.32 4 4 0 01-1.44-.95 4.42 4.42 0 01-1-1.55 6 6 0 01-.35-2.14 5.1 5.1 0 01.31-1.78 4.28 4.28 0 01.88-1.45 4.14 4.14 0 011.4-1 4.6 4.6 0 011.89-.26zm0 1.59a2.06 2.06 0 00-1.52.55 2.71 2.71 0 00-.7 1.56h4.18c0-.274-.04-.547-.12-.81a1.88 1.88 0 00-.36-.67 1.71 1.71 0 00-.61-.45 2.09 2.09 0 00-.82-.15l-.05-.03zM114.15 17.13a1.13 1.13 0 01-.19.2.45.45 0 01-.27.07.61.61 0 01-.33-.1l-.39-.23a2.87 2.87 0 00-.54-.23 2.46 2.46 0 00-.77-.1 2.35 2.35 0 00-1 .21 2 2 0 00-.73.61c-.212.3-.361.64-.44 1a5.17 5.17 0 00-.14 1.27 5 5 0 00.16 1.31c.086.36.242.7.46 1a2 2 0 00.72.59 2.17 2.17 0 001 .2c.292.01.584-.034.86-.13a2.7 2.7 0 00.55-.29l.39-.29a.59.59 0 01.37-.13.45.45 0 01.41.21l.64.81a4 4 0 01-.8.72 4.34 4.34 0 01-1.9.72 6.826 6.826 0 01-1 .07 4.102 4.102 0 01-1.61-.32 3.76 3.76 0 01-1.32-.93 4.49 4.49 0 01-.89-1.5 5.78 5.78 0 01-.33-2 5.86 5.86 0 01.29-1.89 4.26 4.26 0 01.86-1.5 3.94 3.94 0 011.4-1 4.84 4.84 0 011.93-.36 4.58 4.58 0 011.81.33 4.44 4.44 0 011.4 1l-.6.68zM120.19 15a5.05 5.05 0 011.88.33 4 4 0 011.44.94c.408.426.722.934.92 1.49a6.18 6.18 0 010 4 4.27 4.27 0 01-.92 1.5 4 4 0 01-1.44 1 5.46 5.46 0 01-3.76 0 4 4 0 01-1.44-1 4.3 4.3 0 01-.93-1.5 6.11 6.11 0 010-4 4.21 4.21 0 01.93-1.49 4.08 4.08 0 011.44-.94 5.09 5.09 0 011.88-.33zm0 7.8a2 2 0 001.71-.77 3.88 3.88 0 00.55-2.27 3.92 3.92 0 00-.55-2.28 2 2 0 00-1.71-.78 2 2 0 00-1.73.79 3.9 3.9 0 00-.56 2.27 3.86 3.86 0 00.56 2.26 2 2 0 001.73.81v-.03zM126.48 24.41v-9.23h1.36a.55.55 0 01.57.4l.15.73a5.05 5.05 0 01.59-.52 4.1 4.1 0 01.66-.4 3.35 3.35 0 01.74-.26 3.9 3.9 0 01.86-.09 3.31 3.31 0 011.34.26 2.64 2.64 0 011 .72c.269.327.47.704.59 1.11.139.46.206.94.2 1.42v5.88h-2.24v-5.9a2 2 0 00-.39-1.31 1.45 1.45 0 00-1.17-.46 2.32 2.32 0 00-1.08.26 3.88 3.88 0 00-1 .71v6.68h-2.18zM136.71 24.41v-9.23h1.36a.55.55 0 01.57.4l.15.73a5.14 5.14 0 01.59-.52 4.1 4.1 0 01.66-.4 3.31 3.31 0 01.74-.26 3.89 3.89 0 01.86-.09 3.31 3.31 0 011.34.26 2.66 2.66 0 011 .72c.269.327.47.704.59 1.11.139.46.206.94.2 1.42v5.88h-2.22v-5.9a2 2 0 00-.39-1.31 1.45 1.45 0 00-1.17-.46 2.31 2.31 0 00-1.08.26 3.86 3.86 0 00-1 .71v6.68h-2.2zM150.76 15a4.49 4.49 0 011.61.28 3.51 3.51 0 011.26.81c.365.374.648.82.83 1.31a5 5 0 01.3 1.78c.009.14.009.28 0 .42a.67.67 0 01-.08.26.32.32 0 01-.16.13.67.67 0 01-.25 0h-5.71a3.19 3.19 0 00.76 2.09 2.38 2.38 0 001.76.67c.315.005.629-.04.93-.13a4.33 4.33 0 00.68-.28l.51-.28a.86.86 0 01.43-.13.48.48 0 01.23.05.52.52 0 01.17.15l.65.81a3.7 3.7 0 01-.83.72 4.62 4.62 0 01-1 .47c-.324.116-.66.2-1 .25a7.31 7.31 0 01-1 .07 4.93 4.93 0 01-1.79-.32 4 4 0 01-1.44-.95 4.45 4.45 0 01-1-1.55 6 6 0 01-.35-2.14 5.1 5.1 0 01.31-1.78 4.28 4.28 0 01.88-1.45 4.13 4.13 0 011.39-1 4.6 4.6 0 011.91-.26zm0 1.59a2.05 2.05 0 00-1.52.55 2.7 2.7 0 00-.7 1.56h4.18c0-.274-.04-.547-.12-.81a1.87 1.87 0 00-.36-.67 1.71 1.71 0 00-.61-.45 2.09 2.09 0 00-.82-.15l-.05-.03zM163.05 17.13a1.13 1.13 0 01-.19.2.45.45 0 01-.27.07.61.61 0 01-.33-.1l-.39-.23a2.87 2.87 0 00-.54-.23 2.46 2.46 0 00-.77-.1 2.35 2.35 0 00-1 .21 2 2 0 00-.73.61c-.212.3-.361.64-.44 1a5.17 5.17 0 00-.14 1.27 5 5 0 00.16 1.31c.086.36.242.7.46 1a2 2 0 00.72.59 2.17 2.17 0 001 .2c.292.01.584-.034.86-.13a2.7 2.7 0 00.55-.29l.39-.29a.59.59 0 01.37-.13.45.45 0 01.41.21l.64.81a4 4 0 01-.8.72 4.34 4.34 0 01-1.9.72 6.826 6.826 0 01-1 .07 4.102 4.102 0 01-1.61-.32 3.76 3.76 0 01-1.32-.93 4.49 4.49 0 01-.89-1.5 5.78 5.78 0 01-.33-2 5.86 5.86 0 01.29-1.89 4.26 4.26 0 01.86-1.5 3.94 3.94 0 011.4-1 4.84 4.84 0 011.93-.36 4.58 4.58 0 011.81.33 4.44 4.44 0 011.4 1l-.6.68zM168.18 24.55a2.43 2.43 0 01-1.84-.68 2.61 2.61 0 01-.65-1.88v-5.15h-.94a.43.43 0 01-.44-.47v-.88l1.49-.24.47-2.52a.44.44 0 01.17-.28.53.53 0 01.33-.1h1.15v2.91h2.43v1.58h-2.43v5a1 1 0 00.22.68.73.73 0 00.58.24 1 1 0 00.35 0l.24-.1.18-.1a.31.31 0 01.16 0 .25.25 0 01.16 0 .74.74 0 01.13.15l.67 1.08a3.37 3.37 0 01-1.12.61 4.13 4.13 0 01-1.31.15zM175.93 15a4.49 4.49 0 011.61.28 3.52 3.52 0 011.26.81c.365.374.648.82.83 1.31a5 5 0 01.3 1.78c.009.14.009.28 0 .42a.68.68 0 01-.08.26.33.33 0 01-.16.13.66.66 0 01-.25 0h-5.71a3.18 3.18 0 00.77 2.09 2.38 2.38 0 001.76.67 3.05 3.05 0 00.93-.13 4.29 4.29 0 00.68-.28l.51-.28a.86.86 0 01.43-.13.48.48 0 01.23.05.51.51 0 01.17.15l.65.81c-.24.28-.52.522-.83.72a4.63 4.63 0 01-1 .47c-.324.116-.66.2-1 .25a7.3 7.3 0 01-1 .07 4.94 4.94 0 01-1.79-.32 4 4 0 01-1.44-.95 4.42 4.42 0 01-1-1.55 6 6 0 01-.35-2.14 5.1 5.1 0 01.31-1.78 4.28 4.28 0 01.88-1.45 4.14 4.14 0 011.4-1 4.6 4.6 0 011.89-.26zm0 1.59a2.06 2.06 0 00-1.52.55 2.71 2.71 0 00-.7 1.56h4.18c0-.274-.04-.547-.12-.81a1.88 1.88 0 00-.36-.67 1.71 1.71 0 00-.61-.45 2.09 2.09 0 00-.8-.15l-.07-.03zM181.74 24.41v-9.23H183a.7.7 0 01.48.13.73.73 0 01.18.43l.13 1.12A4.39 4.39 0 01185 15.5a2.44 2.44 0 011.49-.49c.4-.016.795.092 1.13.31l-.28 1.68a.34.34 0 01-.12.23.4.4 0 01-.24.07 1.51 1.51 0 01-.37-.06 2.47 2.47 0 00-.62-.06 1.89 1.89 0 00-1.19.38 3 3 0 00-.84 1.12v5.75l-2.22-.02zM199.8 24.41h-1a1.07 1.07 0 01-.5-.09.6.6 0 01-.27-.38l-.2-.66c-.22.196-.45.38-.69.55a4.28 4.28 0 01-.7.4 3.63 3.63 0 01-.77.24 4.63 4.63 0 01-.9.08 3.56 3.56 0 01-1.08-.16 2.32 2.32 0 01-.85-.47 2.14 2.14 0 01-.55-.79 2.8 2.8 0 01-.2-1.09c.008-.35.1-.693.27-1a2.59 2.59 0 01.91-.92 5.82 5.82 0 011.7-.68 10.86 10.86 0 012.64-.27v-.54a2.06 2.06 0 00-.39-1.38 1.43 1.43 0 00-1.14-.45 2.75 2.75 0 00-.9.13 3.51 3.51 0 00-.63.28l-.49.28a1 1 0 01-.5.13.64.64 0 01-.39-.12.92.92 0 01-.26-.29l-.4-.71a5.49 5.49 0 013.87-1.5 3.72 3.72 0 011.44.27 3.09 3.09 0 011.08.74c.3.326.528.71.67 1.13.158.464.235.95.23 1.44v5.83zM195.48 23a3 3 0 00.63-.06 2.43 2.43 0 00.54-.19 2.93 2.93 0 00.5-.31c.17-.131.33-.275.48-.43v-1.52a9.07 9.07 0 00-1.62.12 4.3 4.3 0 00-1 .31 1.34 1.34 0 00-.56.44 1 1 0 00-.17.55 1 1 0 00.35.84 1.5 1.5 0 00.85.25zM206.29 24.41h-2l-3.67-9.23h1.84a.7.7 0 01.41.12.6.6 0 01.23.3l1.78 4.93a10.225 10.225 0 01.44 1.68c.053-.273.113-.55.18-.83a7.57 7.57 0 01.27-.85l1.83-4.93a.61.61 0 01.22-.3.65.65 0 01.39-.12H210l-3.71 9.23zM214.78 15a4.49 4.49 0 011.61.28 3.52 3.52 0 011.26.81c.365.374.648.82.83 1.31a5 5 0 01.3 1.78c.009.14.009.28 0 .42a.67.67 0 01-.08.26.33.33 0 01-.16.13.67.67 0 01-.25 0h-5.71a3.18 3.18 0 00.76 2.09 2.38 2.38 0 001.76.67 3.05 3.05 0 00.93-.13 4.31 4.31 0 00.68-.28l.51-.28a.86.86 0 01.43-.13.48.48 0 01.23.05.52.52 0 01.17.15l.65.81a3.7 3.7 0 01-.83.72 4.62 4.62 0 01-1 .47c-.324.116-.66.2-1 .25a7.3 7.3 0 01-1 .07 4.93 4.93 0 01-1.79-.32 4 4 0 01-1.44-.95 4.43 4.43 0 01-1-1.55 6 6 0 01-.35-2.14 5.1 5.1 0 01.31-1.78 4.26 4.26 0 01.88-1.45 4.13 4.13 0 011.39-1 4.6 4.6 0 011.91-.26zm0 1.59a2.05 2.05 0 00-1.52.55 2.7 2.7 0 00-.7 1.56h4.18c0-.274-.04-.547-.12-.81a1.9 1.9 0 00-.36-.67 1.71 1.71 0 00-.61-.45 2.09 2.09 0 00-.82-.15l-.05-.03zM227.08 17.13a1.07 1.07 0 01-.19.2.44.44 0 01-.27.07.61.61 0 01-.33-.1l-.39-.23a2.91 2.91 0 00-.54-.23 2.46 2.46 0 00-.77-.1 2.35 2.35 0 00-1 .21c-.29.14-.541.35-.73.61-.213.3-.362.64-.44 1a5.12 5.12 0 00-.14 1.27 5 5 0 00.16 1.31c.083.36.236.7.45 1a2 2 0 00.72.59 2.17 2.17 0 001 .2c.292.01.584-.034.86-.13a2.7 2.7 0 00.55-.29l.39-.29a.59.59 0 01.37-.13.45.45 0 01.41.21l.64.81a4 4 0 01-.8.72 4.31 4.31 0 01-1.9.72 6.85 6.85 0 01-1 .07 4.093 4.093 0 01-1.61-.32 3.75 3.75 0 01-1.32-.93 4.49 4.49 0 01-.89-1.5 5.8 5.8 0 01-.33-2 5.86 5.86 0 01.29-1.89 4.27 4.27 0 01.86-1.5 4 4 0 011.4-1 4.84 4.84 0 011.93-.36 4.58 4.58 0 011.81.33 4.43 4.43 0 011.4 1l-.59.68zM232.65 27.42V15.18H234a.66.66 0 01.37.1.47.47 0 01.2.31l.18.85a4.67 4.67 0 011.28-1 3.48 3.48 0 011.7-.4 3 3 0 011.38.31 3.09 3.09 0 011.08.91c.324.445.562.947.7 1.48a7.42 7.42 0 01.25 2 6.34 6.34 0 01-.28 1.92 4.71 4.71 0 01-.8 1.53 3.59 3.59 0 01-2.89 1.38 3.3 3.3 0 01-1.33-.24 3.25 3.25 0 01-1-.66v3.78l-2.19-.03zM237 16.76a2.27 2.27 0 00-1.18.29 3.42 3.42 0 00-.91.82V22c.214.282.496.506.82.65.317.128.658.19 1 .18a2.15 2.15 0 00.91-.19c.276-.13.514-.33.69-.58a2.88 2.88 0 00.44-1 5.6 5.6 0 00.15-1.39 6.18 6.18 0 00-.13-1.37 2.65 2.65 0 00-.37-.91 1.48 1.48 0 00-.59-.51 1.84 1.84 0 00-.83-.12zM246.77 15a5.06 5.06 0 011.88.33 4.06 4.06 0 011.44.94c.41.44.72.96.91 1.53a6.2 6.2 0 010 4 4.3 4.3 0 01-.92 1.5 4 4 0 01-1.44 1 5.47 5.47 0 01-3.76 0 4 4 0 01-1.44-1 4.29 4.29 0 01-.93-1.5 6.09 6.09 0 010-4 4.2 4.2 0 01.93-1.49 4.08 4.08 0 011.44-.94 5.09 5.09 0 011.89-.37zm3.11-1.13h-1.48a.63.63 0 01-.45-.16l-.94-.85-.09-.09-.09-.11-.09.11-.09.09-1 .85a.7.7 0 01-.19.11.67.67 0 01-.26 0h-1.54l2.06-2.5h2.09l2.07 2.55zm-3.11 8.94a2 2 0 001.71-.77 3.89 3.89 0 00.55-2.27 3.93 3.93 0 00-.55-2.28 2 2 0 00-1.71-.78 2 2 0 00-1.73.79 3.9 3.9 0 00-.56 2.27 3.86 3.86 0 00.56 2.26 2 2 0 001.73.8v-.02zM255.43 11v13.41h-2.22V11zM261.76 15a4.49 4.49 0 011.61.28 3.52 3.52 0 011.26.81c.365.374.648.82.83 1.31a5 5 0 01.3 1.78c.009.14.009.28 0 .42a.67.67 0 01-.08.26.33.33 0 01-.16.13.67.67 0 01-.25 0h-5.71a3.18 3.18 0 00.76 2.09 2.38 2.38 0 001.76.67 3.05 3.05 0 00.93-.13 4.31 4.31 0 00.68-.28l.51-.28a.86.86 0 01.43-.13.48.48 0 01.23.05.52.52 0 01.17.15l.65.81a3.7 3.7 0 01-.83.72 4.62 4.62 0 01-1 .47c-.324.116-.66.2-1 .25a7.3 7.3 0 01-1 .07 4.93 4.93 0 01-1.79-.32 4 4 0 01-1.44-.95 4.43 4.43 0 01-1-1.55 6 6 0 01-.35-2.14 5.1 5.1 0 01.31-1.78 4.26 4.26 0 01.88-1.45 4.13 4.13 0 011.39-1 4.6 4.6 0 011.91-.26zm0 1.59a2.05 2.05 0 00-1.52.55 2.7 2.7 0 00-.7 1.56h4.18c0-.274-.04-.547-.12-.81a1.9 1.9 0 00-.36-.67 1.71 1.71 0 00-.61-.45 2.09 2.09 0 00-.83-.15l-.04-.03zM274.85 15a4.49 4.49 0 011.61.28 3.52 3.52 0 011.26.81c.365.374.648.82.83 1.31a5 5 0 01.3 1.78c.009.14.009.28 0 .42a.67.67 0 01-.08.26.33.33 0 01-.16.13.67.67 0 01-.25 0h-5.71a3.18 3.18 0 00.76 2.09 2.38 2.38 0 001.76.67 3.05 3.05 0 00.93-.13 4.31 4.31 0 00.68-.28l.51-.28a.86.86 0 01.43-.13.48.48 0 01.23.05.52.52 0 01.17.15l.65.81a3.7 3.7 0 01-.83.72 4.62 4.62 0 01-1 .47c-.324.116-.66.2-1 .25a7.3 7.3 0 01-1 .07 4.93 4.93 0 01-1.79-.32 4 4 0 01-1.44-.95 4.43 4.43 0 01-1-1.55 6 6 0 01-.35-2.14 5.1 5.1 0 01.31-1.78 4.26 4.26 0 01.88-1.45 4.13 4.13 0 011.39-1 4.6 4.6 0 011.91-.26zm0 1.59a2.05 2.05 0 00-1.52.55 2.7 2.7 0 00-.7 1.56h4.18c0-.274-.04-.547-.12-.81a1.9 1.9 0 00-.36-.67 1.71 1.71 0 00-.61-.45 2.09 2.09 0 00-.82-.15l-.05-.03zM280.66 24.41v-9.23H282a.55.55 0 01.57.4l.14.68a5.33 5.33 0 01.51-.5c.176-.15.367-.28.57-.39a3 3 0 01.65-.26 2.89 2.89 0 01.76-.09 2.15 2.15 0 011.44.47c.389.336.68.772.84 1.26A2.83 2.83 0 01288 16a3 3 0 01.71-.54 3.3 3.3 0 01.82-.31 4 4 0 01.88-.1 3.7 3.7 0 011.36.23 2.62 2.62 0 011 .68 3 3 0 01.62 1.1c.147.48.218.979.21 1.48v5.88h-2.2v-5.89a2 2 0 00-.4-1.33 1.42 1.42 0 00-1.13-.45 1.7 1.7 0 00-.63.12 1.54 1.54 0 00-.86.89 2.15 2.15 0 00-.13.77v5.88H286v-5.88a2 2 0 00-.37-1.35 1.39 1.39 0 00-1.1-.42 1.78 1.78 0 00-.9.24 3 3 0 00-.78.65v6.76h-2.19zM295.81 27.42V15.18h1.36a.66.66 0 01.37.1.47.47 0 01.2.31l.18.85a4.67 4.67 0 011.28-1 3.48 3.48 0 011.7-.4 3 3 0 011.38.31 3.09 3.09 0 011.08.91c.324.445.562.947.7 1.48a7.42 7.42 0 01.25 2 6.34 6.34 0 01-.28 1.92 4.71 4.71 0 01-.8 1.53 3.59 3.59 0 01-2.89 1.38 3.3 3.3 0 01-1.33-.24 3.25 3.25 0 01-1-.66v3.78l-2.2-.03zm4.32-10.66a2.27 2.27 0 00-1.18.29 3.42 3.42 0 00-.91.82V22c.214.282.496.506.82.65.317.128.658.19 1 .18a2.15 2.15 0 00.91-.19c.276-.13.514-.33.69-.58a2.88 2.88 0 00.44-1 5.6 5.6 0 00.15-1.39 6.18 6.18 0 00-.13-1.37 2.65 2.65 0 00-.37-.91 1.48 1.48 0 00-.59-.51 1.84 1.84 0 00-.83-.12zM308.36 11v13.41h-2.22V11zM314.81 15a5.06 5.06 0 011.88.33 4.06 4.06 0 011.44.94 4.2 4.2 0 01.87 1.53 6.2 6.2 0 010 4 4.3 4.3 0 01-.92 1.5 4 4 0 01-1.44 1 5.47 5.47 0 01-3.76 0 4 4 0 01-1.44-1 4.29 4.29 0 01-.93-1.5 6.09 6.09 0 010-4 4.2 4.2 0 01.93-1.49 4.08 4.08 0 011.44-.94 5.09 5.09 0 011.93-.37zm0 7.8a2 2 0 001.71-.77 3.89 3.89 0 00.55-2.27 3.93 3.93 0 00-.55-2.28 2 2 0 00-1.71-.78 2 2 0 00-1.73.79 3.9 3.9 0 00-.56 2.27 3.86 3.86 0 00.56 2.26 2 2 0 001.73.81v-.03zM323.8 12.48c0 .187-.041.37-.12.54a1.47 1.47 0 01-.77.74 1.39 1.39 0 01-.56.11 1.34 1.34 0 01-.54-.11 1.44 1.44 0 01-.45-.3 1.46 1.46 0 01-.3-.44 1.31 1.31 0 01-.11-.54 1.41 1.41 0 011.96-1.31c.17.07.326.173.46.3.13.13.236.282.31.45.08.176.12.367.12.56zm-.33 2.69v9.23h-2.22v-9.22l2.22-.01zM57.826 25.292c-1.481-1.538-2.233-3.61-2.233-6.311-.01-1.189.18-2.37.559-3.496a7.641 7.641 0 011.602-2.737 6.938 6.938 0 012.577-1.74 9.32 9.32 0 013.442-.614 8.716 8.716 0 013.227.563c-3.38-4.332-9.102-6.04-14.274-4.261-5.173 1.779-8.67 6.657-8.725 12.172-.056 5.514 3.342 10.463 8.477 12.348 5.135 1.885 10.89.295 14.357-3.966-.897.245-1.825.364-2.755.353-2.697 0-4.773-.772-6.254-2.31z" fill="#FFF"/><path d="M60.503 18h7.028a.466.466 0 00.469-.453 5.661 5.661 0 00-1.199-3.348 3.57 3.57 0 00-2.797-1.196c-1.043-.04-2.05.404-2.757 1.218A5.938 5.938 0 0060 17.518c-.007.263.248.482.503.482zM68.48 20.155h-7.998a.473.473 0 00-.347.12.405.405 0 00-.134.32c.02.777.225 1.54.6 2.235.69 1.344 2.161 2.191 3.765 2.17a5.69 5.69 0 001.443-.175 4.921 4.921 0 001.276-.557 9.36 9.36 0 001.102-.77 62.08 62.08 0 001.2-1.024c.069-.057.146-.105.23-.143.212-.763.34-1.544.383-2.331-.5.1-1.009.152-1.52.155z" fill="#FFF"/><path d="M67.287 26.901c1.582-.565 3.366-2.154 3.674-3.658.196-.982-.399-1.194-.7-1.243h-.196c-.21 0-.419.048-.608.141A12.712 12.712 0 0167 27l.287-.099zM70.079 20a4.341 4.341 0 001.029-.32c.57-.27.892-.873.892-1.962a6.871 6.871 0 00-.98-3.46C70.123 12.775 68.704 11.624 67 11c2.015 2.365 3.108 5.292 3.103 8.307 0 .243-.008.474-.024.693z" fill="#FFF"/><path d="M67.956 23.298a9.577 9.577 0 01-1.116.884c-.397.278-.83.491-1.285.634a5.05 5.05 0 01-1.462.204c-1.625.025-3.114-.963-3.815-2.53a6.52 6.52 0 01-.607-2.604.51.51 0 01.136-.373.443.443 0 01.351-.14h8.095a7.101 7.101 0 001.568-.16v-.709c.005-3.052-.956-6.015-2.727-8.41a8.175 8.175 0 00-3.185-.589 8.743 8.743 0 00-3.398.642 6.842 6.842 0 00-2.557 1.827 8.106 8.106 0 00-1.582 2.861 11.747 11.747 0 00-.55 3.654c0 2.809.706 4.983 2.203 6.598 1.498 1.616 3.532 2.416 6.195 2.416a9.356 9.356 0 002.72-.37 13.916 13.916 0 002.464-5.216c-.084.043-.163.1-.233.166-.212.249-.876.898-1.215 1.215zm-8.13-6.276a5.94 5.94 0 011.246-3.297c.705-.814 1.712-1.259 2.755-1.218a3.568 3.568 0 012.796 1.196 5.663 5.663 0 011.198 3.349.466.466 0 01-.468.452h-7.025c-.29.007-.544-.212-.503-.482z" fill="#1B2E57"/></g></svg>