<?xml version="1.0" encoding="UTF-8" standalone="no"?>
<svg
   xmlns:dc="http://purl.org/dc/elements/1.1/"
   xmlns:cc="http://creativecommons.org/ns#"
   xmlns:rdf="http://www.w3.org/1999/02/22-rdf-syntax-ns#"
   xmlns:svg="http://www.w3.org/2000/svg"
   xmlns="http://www.w3.org/2000/svg"
   xmlns:sodipodi="http://sodipodi.sourceforge.net/DTD/sodipodi-0.dtd"
   xmlns:inkscape="http://www.inkscape.org/namespaces/inkscape"
   width="278"
   height="85"
   version="1.1"
   id="svg40"
   sodipodi:docname="logo_header.svg"
   inkscape:version="1.0.2 (e86c870879, 2021-01-15)">
  <metadata
     id="metadata46">
    <rdf:RDF>
      <cc:Work
         rdf:about="">
        <dc:format>image/svg+xml</dc:format>
        <dc:type
           rdf:resource="http://purl.org/dc/dcmitype/StillImage" />
      </cc:Work>
    </rdf:RDF>
  </metadata>
  <defs
     id="defs44" />
  <sodipodi:namedview
     pagecolor="#ffffff"
     bordercolor="#666666"
     borderopacity="1"
     objecttolerance="10"
     gridtolerance="10"
     guidetolerance="10"
     inkscape:pageopacity="0"
     inkscape:pageshadow="2"
     inkscape:window-width="3840"
     inkscape:window-height="2090"
     id="namedview42"
     showgrid="false"
     inkscape:zoom="6.794964"
     inkscape:cx="189.45921"
     inkscape:cy="36.613287"
     inkscape:window-x="0"
     inkscape:window-y="1473"
     inkscape:window-maximized="1"
     inkscape:current-layer="svg40" />
  <g
     id="g951">
    <g
       fill="none"
       fill-rule="nonzero"
       id="g902"
       transform="matrix(0.09894378,0,0,0.09894378,11.922329,11.922329)">
      <path
         fill="#000000"
         d="m 20.21,661.703 0.466,-1.433 c -6.16,-1.16 -6.95,-1.16 -4.496,-7.875 l 2.504,-6.899 h 6.804 c 3.059,0 3.106,1.25 2.64,4.586 h 1.763 l 4.074,-11.16 h -1.762 c -1.527,2.637 -2.73,4.582 -6.066,4.582 h -6.711 l 3.562,-9.77 c 1.114,-3.101 1.762,-3.75 5.926,-3.75 h 2.965 c 4.308,0 4.816,1.157 4.816,5.508 h 1.715 l 1.434,-7.594 H 14.28 l -0.46,1.438 c 4.952,1.02 5.417,1.48 3.1,7.871 l -5.554,15.188 c -2.316,6.343 -3.289,6.855 -8.984,7.875 l -0.418,1.433 z M 55.684,643.09 c 0.879,-3.012 0.414,-5.653 -1.903,-5.653 -2.73,0 -3.426,2.086 -6.203,8.06 v -3.427 c 0,-2.457 -0.789,-4.633 -3.012,-4.633 -2.59,0 -4.953,4.032 -6.757,8.012 h 1.203 c 1.25,-1.804 2.406,-2.87 3.332,-2.87 1.113,0 1.715,1.714 0,5.51 l -5,11.114 c -0.926,2.082 0.047,3.426 2.086,3.426 1.25,0 1.804,-0.324 2.312,-1.668 l 4.91,-13.012 c 1.387,-1.71 2.637,-3.195 4.211,-4.86 h 4.82 z m 22.504,-6.719 -1.946,-0.137 -2.18,2.13 h -0.46 c -10.559,0 -19.68,11.855 -19.68,20.468 0,2.406 1.48,3.797 3.797,3.797 2.73,0 5.418,-3.89 8.426,-8.059 l -0.137,1.485 c -0.371,4.258 0.926,6.574 3.148,6.574 2.594,0 4.953,-4.027 6.762,-8.012 h -1.203 c -1.25,1.805 -2.41,2.871 -3.336,2.871 -0.973,0 -1.668,-1.758 0,-5.508 l 6.808,-15.609 z M 58.69,655.406 c 0,-5.695 6.344,-13.43 9.91,-13.43 0.786,0 1.528,0.094 2.176,0.278 l -3.707,9.863 c -2.129,2.594 -5.418,5.742 -6.945,5.742 -0.879,0 -1.434,-0.742 -1.434,-2.453 z m 23.383,-14.402 h 4.262 l -6.762,18.476 c -0.601,1.575 0.23,3.149 1.852,3.149 3.844,0 10.05,-3.797 12.226,-8.984 H 92.45 c -1.715,1.808 -5.004,4.214 -7.828,4.722 l 6.207,-17.363 h 6.344 l 0.785,-2.64 h -6.156 l 2.36,-6.669 h -2.454 l -4.398,6.668 -5.235,0.742 v 1.899 z m 30.239,12.687 h -1.575 c -1.992,2.364 -4.12,4.215 -6.25,4.215 -2.175,0 -3.289,-1.297 -3.289,-4.215 0,-1.203 0.14,-2.406 0.371,-3.52 l 12.828,-4.21 c 2.5,-5.93 -0.511,-8.524 -4.03,-8.524 -6.063,0 -12.966,10.145 -12.966,19.036 0,3.98 1.899,6.156 4.864,6.156 3.472,0 7.086,-3.379 10.046,-8.938 z m -4.399,-12.828 c 1.715,0 3.195,1.297 2.406,4.586 l -7.965,1.852 c 1.391,-3.703 3.707,-6.438 5.56,-6.438 z m 28.434,2.227 c 0.879,-3.012 0.418,-5.653 -1.899,-5.653 -2.734,0 -3.43,2.086 -6.207,8.06 v -3.427 c 0,-2.457 -0.785,-4.633 -3.008,-4.633 -2.593,0 -4.957,4.032 -6.761,8.012 h 1.203 c 1.25,-1.804 2.41,-2.87 3.336,-2.87 1.11,0 1.71,1.714 0,5.51 l -5,11.114 c -0.93,2.082 0.043,3.426 2.082,3.426 1.25,0 1.804,-0.324 2.312,-1.668 l 4.91,-13.012 c 1.391,-1.71 2.641,-3.195 4.215,-4.86 h 4.817 z m 0.09,16.113 c -0.926,2.082 0.046,3.426 2.085,3.426 1.25,0 1.805,-0.324 2.317,-1.668 l 4.906,-13.012 c 2.27,-2.777 6.945,-5.742 8.8,-5.742 1.34,0 1.157,1.113 0.274,2.777 l -7.547,14.496 c -0.738,1.434 0.235,3.149 1.856,3.149 3.703,0 8.101,-3.336 9.86,-8.012 h -1.204 c -1.203,1.715 -3.238,3.613 -5.14,3.938 l 6.484,-13.106 c 0.836,-1.668 1.25,-3.242 1.25,-4.492 0,-2.129 -1.203,-3.52 -3.426,-3.52 -3.195,0 -6.437,3.614 -10.281,8.06 v -3.427 c 0,-2.457 -0.785,-4.633 -3.008,-4.633 -1.39,0 -2.734,1.204 -3.984,2.918 v 0.465 c 2.41,-0.14 3.472,3.473 1.761,7.27 l -5.004,11.113 z m 40.796,-28.34 a 3.052,3.052 0 0 0 3.055,-3.054 c 0,-1.668 -1.387,-3.059 -3.055,-3.059 a 3.052,3.052 0 0 0 -3.054,3.059 c 0,1.71 1.34,3.054 3.054,3.054 z m -1.297,9.262 c 0.508,-1.715 -0.648,-2.688 -1.527,-2.688 -3.707,0 -8.101,3.336 -9.863,8.012 h 1.203 c 1.203,-1.715 3.242,-3.613 5.14,-3.937 l -7.085,18.43 c -0.649,1.714 0.648,2.687 1.53,2.687 3.52,0 7.642,-3.379 9.4,-8.012 h -1.204 c -1.207,1.715 -3.242,3.613 -5.14,3.938 l 7.547,-18.43 z m 5.743,0.879 h 4.257 l -6.757,18.476 c -0.602,1.575 0.23,3.149 1.851,3.149 3.844,0 10.047,-3.797 12.227,-8.984 h -1.203 c -1.715,1.808 -5.004,4.214 -7.828,4.722 l 6.207,-17.363 h 6.34 l 0.788,-2.64 h -6.16 l 2.364,-6.669 h -2.453 l -4.403,6.668 -5.23,0.742 z m 27.691,-5.926 9.027,-8.43 v -0.972 h -4.859 l -5.559,9.402 z m 2.547,18.613 h -1.574 c -1.992,2.364 -4.121,4.215 -6.25,4.215 -2.18,0 -3.29,-1.297 -3.29,-4.215 0,-1.203 0.137,-2.406 0.372,-3.52 l 12.824,-4.21 c 2.504,-5.93 -0.508,-8.524 -4.027,-8.524 -6.067,0 -12.965,10.145 -12.965,19.036 0,3.98 1.898,6.156 4.86,6.156 3.476,0 7.085,-3.379 10.05,-8.938 z m -4.398,-12.828 c 1.71,0 3.195,1.297 2.406,4.586 l -7.965,1.852 c 1.39,-3.703 3.703,-6.438 5.559,-6.438 z m -178.14,-73.117 9.031,-6.207 v -0.969 h -5.465 l -5,7.176 z m -3.703,19.402 c 3.054,0 3.101,1.25 2.637,4.586 h 1.761 l 4.074,-11.16 h -1.757 c -1.532,2.64 -2.735,4.582 -6.067,4.582 H 19.61 l 3.38,-9.304 c 1.113,-3.106 1.761,-3.707 5.925,-3.707 h 2.965 c 4.308,0 4.816,1.16 4.816,5.464 h 1.715 l 1.434,-7.593 H 14.28 l -0.46,1.433 c 4.952,1.02 5.417,1.485 3.1,7.875 l -5.554,15.188 c -2.316,6.343 -3.289,6.851 -8.984,7.87 l -0.418,1.438 h 28.433 l 5.094,-8.058 h -1.945 c -3.242,3.054 -7.317,5.972 -13.012,5.972 -7.547,0 -6.855,-0.324 -4.355,-7.222 l 2.687,-7.364 h 6.809 z m 32.367,19.82 c 0,-2.964 -2.64,-4.03 -6.945,-5.323 -3.703,-1.114 -5.371,-1.438 -5.371,-2.641 0,-0.973 0.785,-2.129 2.363,-2.965 6.062,-0.324 10,-5.789 10,-10.371 0,-0.973 -0.188,-1.809 -0.512,-2.547 h 5.145 l 0.785,-2.64 h -8.153 a 6.283,6.283 0 0 0 -3.285,-0.926 c -6.437,0 -10.605,5.648 -10.605,10.234 0,3.473 2.222,5.649 4.91,6.156 -3.012,1.344 -4.68,2.918 -4.68,4.774 0,1.062 0.371,1.804 1.25,2.5 -6.945,2.035 -9.675,4.351 -9.675,7.64 0,3.196 4.214,4.536 9.214,4.536 8.477,0 15.559,-4.582 15.559,-8.426 z M 47.996,594.281 c -1.527,0 -2.133,-1.297 -2.133,-2.777 0,-4.125 2.227,-10.192 5.7,-10.192 1.527,0 2.128,1.297 2.128,2.782 0,4.12 -2.222,10.187 -5.695,10.187 z m -9.586,14.957 c 0,-2.457 2.36,-3.984 5.742,-5.328 1.11,0.559 2.778,1.16 5,1.903 3.52,1.156 4.864,1.62 4.864,2.683 0,2.27 -3.844,3.984 -9.078,3.984 -4.399,0 -6.528,-0.925 -6.528,-3.242 z m 47.14,-30.75 -1.945,-0.136 -2.175,2.128 h -0.465 c -10.559,0 -19.68,11.856 -19.68,20.47 0,2.405 1.48,3.796 3.797,3.796 2.73,0 5.418,-3.89 8.43,-8.058 l -0.14,1.484 c -0.372,4.258 0.925,6.574 3.148,6.574 2.593,0 4.957,-4.027 6.761,-8.012 h -1.207 c -1.25,1.805 -2.406,2.871 -3.332,2.871 -0.972,0 -1.668,-1.757 0,-5.511 l 6.809,-15.606 z M 66.056,597.52 c 0,-5.696 6.343,-13.426 9.91,-13.426 0.785,0 1.527,0.093 2.176,0.277 l -3.704,9.863 c -2.132,2.594 -5.417,5.743 -6.949,5.743 -0.879,0 -1.433,-0.743 -1.433,-2.457 z m 24.543,3.152 12.918,-33.852 -0.418,-0.508 -8.102,0.926 v 0.973 l 1.574,1.203 c 1.434,1.11 0.973,2.176 -0.324,5.602 l -10.098,26.582 c -0.738,1.433 0.235,3.148 1.856,3.148 3.703,0 7.64,-3.336 9.398,-8.012 H 96.2 c -1.203,1.715 -3.703,3.614 -5.601,3.938 z m 24.632,-27.692 a 3.056,3.056 0 0 0 3.06,-3.058 c 0,-1.664 -1.392,-3.055 -3.06,-3.055 a 3.054,3.054 0 0 0 -3.054,3.055 3.026,3.026 0 0 0 3.054,3.058 z m -1.296,9.258 c 0.511,-1.71 -0.649,-2.683 -1.528,-2.683 -3.703,0 -8.101,3.336 -9.863,8.011 h 1.203 c 1.203,-1.714 3.242,-3.613 5.14,-3.937 l -7.081,18.43 c -0.653,1.714 0.644,2.687 1.527,2.687 3.52,0 7.64,-3.383 9.398,-8.012 h -1.203 c -1.203,1.715 -3.242,3.614 -5.14,3.938 z m 5.742,0.883 h 4.261 l -6.761,18.477 c -0.602,1.574 0.23,3.148 1.851,3.148 3.844,0 10.047,-3.797 12.227,-8.984 h -1.203 c -1.715,1.804 -5.004,4.215 -7.828,4.722 l 6.207,-17.363 h 6.343 l 0.786,-2.64 h -6.16 l 2.363,-6.668 h -2.453 l -4.399,6.667 -5.234,0.743 z m 27.691,-5.93 9.031,-8.425 v -0.973 h -4.863 l -5.555,9.398 z m 2.547,18.618 h -1.574 c -1.992,2.363 -4.121,4.214 -6.25,4.214 -2.18,0 -3.29,-1.296 -3.29,-4.214 0,-1.204 0.137,-2.41 0.372,-3.52 l 12.824,-4.215 c 2.504,-5.926 -0.508,-8.52 -4.027,-8.52 -6.067,0 -12.965,10.141 -12.965,19.032 0,3.984 1.898,6.16 4.86,6.16 3.476,0 7.085,-3.383 10.05,-8.937 z m -4.398,-12.829 c 1.714,0 3.195,1.297 2.406,4.586 l -7.965,1.852 c 1.39,-3.703 3.707,-6.438 5.559,-6.438 z M 31.047,512.133 H 14.19 l -0.464,1.433 c 4.957,1.02 5.418,1.485 3.105,7.871 l -5.465,15.192 C 9.05,542.973 8.077,543.48 2.382,544.5 l -0.418,1.438 H 27.62 l 5.555,-9.91 H 31.23 c -3.148,3.472 -6.851,7.824 -12.546,7.824 -4.309,0 -4.817,-0.743 -2.504,-7.223 l 5.465,-15.192 c 2.27,-6.343 3.289,-6.851 8.984,-7.87 z m 18.66,2.96 a 3.052,3.052 0 0 0 3.059,-3.054 c 0,-1.668 -1.391,-3.055 -3.059,-3.055 a 3.05,3.05 0 0 0 -3.055,3.055 3.02,3.02 0 0 0 3.055,3.055 z m -1.297,9.262 c 0.512,-1.71 -0.648,-2.683 -1.527,-2.683 -3.703,0 -8.106,3.332 -9.863,8.012 h 1.203 c 1.207,-1.715 3.242,-3.614 5.14,-3.938 l -7.086,18.43 c -0.644,1.715 0.649,2.687 1.532,2.687 3.515,0 7.636,-3.383 9.398,-8.011 h -1.203 c -1.203,1.71 -3.242,3.613 -5.14,3.933 z m 25.192,2.457 c 0,-3.753 -1.391,-5.14 -3.985,-5.14 -3.238,0 -6.297,3.426 -9.351,7.594 l 7.73,-20.328 -0.414,-0.512 -8.105,0.926 v 0.972 l 1.578,1.207 c 1.433,1.11 0.968,2.27 -0.325,5.602 l -8.335,21.484 c -0.606,1.578 -1.344,3.43 -1.344,3.938 0,2.222 3.008,4.308 5.742,4.308 6.297,0 16.809,-11.347 16.809,-20.05 z M 59.016,543.11 c -1.25,0 -3.055,-1.156 -3.055,-2.175 0,-0.325 0.555,-1.758 1.25,-3.567 l 2.082,-5.508 c 2.223,-2.64 5.602,-5.464 7.5,-5.464 1.16,0 2.039,0.742 2.039,2.453 0,5.047 -4.723,14.261 -9.816,14.261 z m 31.441,-5.183 h -1.574 c -1.992,2.36 -4.121,4.215 -6.25,4.215 -2.18,0 -3.29,-1.297 -3.29,-4.215 0,-1.203 0.137,-2.41 0.372,-3.52 l 12.824,-4.215 c 2.5,-5.925 -0.508,-8.52 -4.027,-8.52 -6.067,0 -12.965,10.141 -12.965,19.032 0,3.985 1.898,6.16 4.86,6.16 3.476,0 7.085,-3.383 10.05,-8.937 z m -4.398,-12.828 c 1.71,0 3.195,1.297 2.406,4.586 l -7.965,1.851 c 1.39,-3.707 3.703,-6.437 5.559,-6.437 z m 28.43,2.222 c 0.882,-3.008 0.417,-5.648 -1.895,-5.648 -2.735,0 -3.43,2.082 -6.207,8.058 v -3.43 c 0,-2.452 -0.79,-4.628 -3.012,-4.628 -2.594,0 -4.953,4.027 -6.762,8.012 h 1.207 c 1.25,-1.809 2.407,-2.871 3.332,-2.871 1.114,0 1.715,1.71 0,5.507 l -5,11.114 c -0.925,2.086 0.047,3.43 2.082,3.43 1.25,0 1.809,-0.325 2.317,-1.669 l 4.91,-13.011 c 1.39,-1.715 2.64,-3.196 4.215,-4.864 h 4.812 z m 3.335,-2.082 h 3.38 l -6.763,18.477 c -0.601,1.574 0.235,3.148 1.856,3.148 3.844,0 10.047,-3.797 12.223,-8.984 h -1.204 c -1.71,1.805 -5,4.215 -7.828,4.723 l 6.207,-17.364 h 6.344 l 0.79,-2.64 h -6.161 l 2.36,-6.668 h -2.454 l -4.398,6.668 -4.352,0.742 z m 26.531,-5.93 9.032,-8.425 v -0.973 h -4.864 l -5.554,9.399 h 1.386 z m 2.547,18.618 h -1.574 c -1.988,2.36 -4.121,4.215 -6.25,4.215 -2.176,0 -3.289,-1.297 -3.289,-4.215 0,-1.203 0.14,-2.41 0.371,-3.52 l 12.828,-4.215 c 2.5,-5.925 -0.508,-8.52 -4.027,-8.52 -6.066,0 -12.969,10.141 -12.969,19.032 0,3.985 1.899,6.16 4.863,6.16 3.473,0 7.086,-3.383 10.047,-8.937 z m -4.398,-12.828 c 1.715,0 3.195,1.297 2.406,4.586 l -7.965,1.851 c 1.39,-3.707 3.707,-6.437 5.559,-6.437 z M 2.535,191.174 h 12.782 v -45.187 l 14.047,23.593 h 9 l 14.03,-23.593 v 45.187 h 12.782 v -63 H 49.254 L 33.864,154.627 18.473,128.174 H 2.536 Z m 80.279,0 h 12.781 v -63 h -12.78 z m 30.51,0 h 12.78 v -45.547 l 28.173,45.547 h 16.375 v -63 H 157.87 v 45.547 l -28.157,-45.547 h -16.39 z m 75.058,0 h 12.781 v -63 h -12.78 z m 24.838,-8.734 c 5.593,6.672 12.702,10.53 23.312,10.53 11.61,0 20.797,-7.108 20.969,-18.983 0,-21.61 -28.61,-18.36 -28.61,-29.797 0,-3.782 2.969,-6.657 7.469,-6.657 4.766,0 8.906,3.157 12.594,7.922 l 9.359,-8.469 c -5.39,-6.374 -12.594,-10.609 -22.047,-10.609 -12.062,0 -20.344,8.281 -20.344,18.266 0,21.328 28.625,18.187 28.625,29.797 0,4.5 -3.062,7.187 -8.109,7.187 -5.125,0 -10.156,-2.875 -13.937,-7.734 l -9.282,8.547 z m 50.864,-42.657 h 19.437 v 51.391 h 12.782 v -51.391 h 19.437 v -11.609 h -51.656 z m 75.676,-17.015 h 11.702 l -10.172,-12.14 h -13.14 z m -12.688,68.406 h 36.718 v -10.625 h -23.937 v -16.188 h 20.344 v -10.624 h -20.344 v -14.938 h 23.937 v -10.625 h -36.718 z m 51.658,0 h 12.782 v -25.469 h 6.578 l 16.828,25.469 h 15.032 l -19.72,-27.906 c 6.485,-2.969 10.173,-8.64 10.173,-16.281 0,-11.704 -8.547,-18.813 -22.406,-18.813 H 378.73 Z m 19.985,-52.375 c 5.407,0 8.547,3.234 8.547,8 0,5.14 -3.14,8.281 -8.547,8.281 h -7.203 V 138.8 h 7.203 z m 39.415,52.375 h 36.718 v -10.625 h -23.937 v -16.187 h 20.344 v -10.625 h -20.344 v -14.938 h 23.937 V 128.174 H 438.13 Z m -435.595,92 h 24.75 c 19.985,0 33.484,-14.484 33.484,-31.5 0,-17.016 -13.5,-31.5 -33.484,-31.5 H 2.535 Z m 24.938,-51.39 c 11.703,0 20.156,8.64 20.156,19.89 0,11.156 -8.453,19.89 -20.156,19.89 H 15.316 v -39.78 z m 82.884,27.812 c 0,8.453 -4.86,13.406 -12.688,13.406 -8.015,0 -12.78,-4.953 -12.78,-13.406 V 220.174 H 72.106 v 38.344 c 0,16.562 9.719,26.453 25.469,26.453 15.843,0 25.562,-9.89 25.562,-26.453 v -38.344 h -12.781 v 39.422 z m 45.726,-27.813 h 19.437 v 51.391 h 12.782 v -51.391 h 19.437 v -11.609 h -51.656 z m 62.987,51.391 h 12.782 v -25.469 h 6.578 l 16.828,25.469 h 15.032 l -19.72,-27.906 c 6.485,-2.969 10.173,-8.64 10.173,-16.282 0,-11.703 -8.547,-18.812 -22.407,-18.812 h -19.265 v 63 z m 19.985,-52.375 c 5.406,0 8.547,3.234 8.547,8 0,5.14 -3.14,8.281 -8.547,8.281 h -7.203 V 230.8 h 7.203 z m 34.193,52.375 h 13.594 l 6.031,-16.375 h 25.203 l 6.031,16.375 h 13.594 l -23.86,-63 h -16.734 z m 23.594,-27.266 8.625,-23.672 8.64,23.672 z m 37.155,-35.734 23.86,63 h 16.734 l 23.86,-63 h -13.595 l -18.64,49.234 -18.625,-49.234 z m 60.749,63 h 13.594 l 6.031,-16.375 h 25.203 l 6.031,16.375 H 459.2 l -23.86,-63 h -16.734 l -23.859,63 z m 23.594,-27.266 8.625,-23.672 8.64,23.672 z m 50.657,27.266 h 12.78 v -63 h -12.78 z m 30.509,0 h 36.718 v -11.609 h -23.937 v -51.391 h -12.78 z m 55.798,14.406 10.454,-26.922 h -12.875 l -8.188,26.922 z M 2.535,375.174 h 24.75 c 19.985,0 33.484,-14.484 33.484,-31.5 0,-17.016 -13.5,-31.5 -33.484,-31.5 H 2.535 Z m 24.938,-51.39 c 11.703,0 20.156,8.64 20.156,19.89 0,11.156 -8.453,19.89 -20.156,19.89 H 15.316 v -39.78 z m 45.711,51.39 h 36.718 V 364.549 H 85.965 v -16.187 h 20.344 V 337.737 H 85.965 v -14.938 h 23.937 V 312.174 H 73.184 Z m 75.148,0 h 36.718 v -11.609 h -23.937 v -51.391 h -12.78 z m 44.729,-37.078 10.454,-25.922 h -12.969 l -8.094,25.922 z m 20.521,37.078 H 250.3 v -10.625 h -23.937 v -16.187 h 20.344 V 337.737 H 226.363 V 322.799 H 250.3 v -10.625 h -36.718 z m 51.66,0 h 12.78 v -45.187 l 14.048,23.593 h 9 l 14.03,-23.593 v 45.187 h 12.782 v -63 H 311.96 l -15.39,26.453 -15.391,-26.453 h -15.937 z m 80.278,0 h 12.781 v -25.469 h 8.016 c 13.86,0 22.312,-7.11 22.312,-18.719 0,-11.703 -8.453,-18.812 -22.312,-18.812 H 345.52 Z m 21.328,-52.375 c 5.406,0 8.64,3.234 8.64,8 0,5.14 -3.234,8.281 -8.64,8.281 h -8.547 V 322.8 h 8.547 z m 32.402,52.375 h 36.717 V 363.565 H 412.03 v -51.391 h -12.78 z m 73.888,-64.797 c -19.89,0 -33.47,15.297 -33.47,33.297 0,18 13.58,33.297 33.47,33.297 19.812,0 33.39,-15.297 33.39,-33.297 0,-18 -13.578,-33.297 -33.39,-33.297 z m 0,54.625 c -11.875,0 -20.328,-9.266 -20.328,-21.328 0,-12.063 8.453,-21.328 20.328,-21.328 11.797,0 20.25,9.265 20.25,21.328 0,12.063 -8.453,21.328 -20.25,21.328 z m 45.722,10.172 h 12.78 v -63 h -12.78 z m -516.325,92 H 39.254 V 456.549 H 15.317 V 440.362 H 35.66 V 429.737 H 15.317 V 414.799 H 39.254 V 404.174 H 2.535 Z m 46.541,-51.391 h 19.437 v 51.391 h 12.782 v -51.391 h 19.437 V 404.174 H 49.076 Z m 86.477,51.391 h 24.75 c 19.984,0 33.484,-14.484 33.484,-31.5 0,-17.016 -13.5,-31.5 -33.484,-31.5 h -24.75 z m 24.937,-51.39 c 11.703,0 20.156,8.64 20.156,19.89 0,11.156 -8.453,19.89 -20.156,19.89 h -12.156 v -39.78 z m 45.712,51.39 h 36.718 v -10.625 h -23.937 v -16.187 h 20.344 v -10.625 h -20.344 v -14.938 h 23.937 v -10.625 h -36.718 z m 75.148,0 h 36.718 v -11.609 h -23.937 v -51.391 h -12.78 z m 44.73,-37.078 10.453,-25.922 h -12.969 l -8.094,25.922 z m 20.52,37.078 h 12.781 v -63 H 346.6 Z m 30.51,0 h 12.78 v -45.547 l 28.172,45.547 h 16.375 v -63 h -12.78 v 45.547 l -28.158,-45.547 h -16.39 z m 69.386,-8.734 c 5.593,6.671 12.703,10.53 23.312,10.53 11.61,0 20.797,-7.109 20.969,-18.984 0,-21.609 -28.61,-18.359 -28.61,-29.796 0,-3.782 2.97,-6.657 7.47,-6.657 4.765,0 8.906,3.157 12.593,7.922 l 9.36,-8.469 c -5.391,-6.375 -12.594,-10.609 -22.047,-10.609 -12.063,0 -20.344,8.281 -20.344,18.266 0,21.328 28.625,18.187 28.625,29.797 0,4.5 -3.063,7.187 -8.11,7.187 -5.125,0 -10.156,-2.875 -13.937,-7.734 z m 57.782,8.734 h 36.718 v -10.625 h -23.937 v -16.187 h 20.344 v -10.625 h -20.344 v -14.938 h 23.937 v -10.625 h -36.718 z m 51.659,0 h 12.78 v -25.469 h 6.579 l 16.828,25.469 h 15.031 l -19.718,-27.906 c 6.484,-2.969 10.171,-8.64 10.171,-16.281 0,-11.704 -8.546,-18.813 -22.406,-18.813 h -19.265 z m 19.984,-52.375 c 5.406,0 8.547,3.234 8.547,8 0,5.14 -3.14,8.281 -8.547,8.281 h -7.203 V 414.8 h 7.203 z m 30.157,0.984 h 19.437 v 51.391 h 12.782 v -51.391 h 19.437 v -11.609 h -51.656 z m 62.989,51.391 h 12.78 v -63 h -12.78 z m 58.587,-64.797 c -19.89,0 -33.469,15.297 -33.469,33.297 0,18 13.578,33.297 33.469,33.297 19.812,0 33.39,-15.297 33.39,-33.297 0,-18 -13.578,-33.297 -33.39,-33.297 z m 0,54.625 c -11.875,0 -20.328,-9.266 -20.328,-21.328 0,-12.063 8.453,-21.328 20.328,-21.328 11.797,0 20.25,9.265 20.25,21.328 0,12.063 -8.453,21.328 -20.25,21.328 z m 45.721,10.172 h 12.781 v -45.547 l 28.172,45.547 h 16.375 v -63 h -12.78 v 45.547 l -28.158,-45.547 h -16.39 z"
         id="path894" />
      <path
         fill="#000091"
         d="m 68.43,60.871 c -0.16,-0.16 0.472,0 0.632,-0.316 h -1.265 c -0.16,0 -0.16,-0.16 -0.16,-0.32 -0.793,0.16 -1.742,0.476 -2.535,0.636 -1.11,0.316 -2.063,1.11 -3.329,1.426 -1.742,0.633 -3.168,2.058 -5.07,2.691 -0.16,0 -0.16,-0.156 -0.16,-0.316 0.16,-0.477 0.793,-0.633 1.11,-1.11 0,-0.156 0,-0.316 -0.16,-0.316 1.269,-1.742 3.015,-2.691 4.597,-4.121 v -0.473 c 0.476,-0.636 1.27,-0.953 1.586,-1.746 0.16,-0.472 0.793,-1.11 1.586,-1.426 -0.16,-0.156 -0.477,-0.156 -0.477,-0.472 -0.637,0 -1.27,0.316 -1.902,-0.16 0.297,-0.297 0.637,-0.457 0.992,-0.563 a 0.583,0.583 0 0 1 -0.36,-0.23 c -0.156,-0.317 0.305,-0.672 0.794,-0.793 0.632,-0.157 1.425,-0.157 1.902,-0.633 -1.11,-0.16 -2.375,0.316 -3.488,-0.316 0.793,-2.063 2.062,-3.805 3.965,-4.754 0.156,0 0.472,0 0.472,0.156 0,0.793 -0.472,1.426 -1.265,1.586 1.265,0.316 2.535,0.316 3.8,0.949 -0.156,0.316 -0.472,0.16 -0.632,0.16 0.792,0.477 1.746,0.156 2.535,0.793 -0.477,0.477 -0.95,0 -1.426,0 4.914,1.426 10.144,2.535 14.266,5.703 -3.489,1.746 -7.133,2.535 -10.938,3.328 -0.477,0 -0.793,0 -1.27,-0.156 0,0.156 0,0.477 -0.156,0.477 -0.633,0 -1.11,0 -1.586,0.316 -0.633,0.316 -1.586,0.473 -2.058,0 z m -3.246,11.024 c -0.012,0.007 -0.028,0.015 -0.04,0.027 -0.593,0.418 -1.183,0.844 -1.808,1.207 -0.68,0.39 -1.387,0.691 -2.094,1.023 -0.004,-0.011 -0.008,-0.023 -0.015,-0.035 -0.055,-0.074 -0.168,-0.12 -0.27,-0.066 -0.602,0.324 -1.11,0.754 -1.598,1.215 -0.074,0.07 -0.144,0.14 -0.218,0.214 l -0.012,0.012 c -0.004,0.004 -0.008,0.008 -0.016,0.012 -0.074,0.074 -0.148,0.148 -0.222,0.226 l -0.028,0.024 c -0.004,0.008 -0.004,0.012 -0.008,0.016 a 5.494,5.494 0 0 0 -0.343,0.37 c -0.082,0.094 -0.11,0.153 -0.215,0.223 -0.098,0.063 -0.371,0.063 -0.344,-0.12 v -0.032 c -0.094,0.05 -0.187,0.102 -0.281,0.144 -0.086,0.043 -0.164,0.09 -0.246,0.137 a 0.257,0.257 0 0 0 -0.11,-0.015 0.21,0.21 0 0 0 -0.117,0.039 c -0.191,0.152 -0.383,0.312 -0.57,0.48 -0.328,0.3 -0.645,0.629 -0.918,0.98 -0.008,0.004 -0.012,0.008 -0.016,0.012 -0.011,0.016 -0.02,0.032 -0.03,0.043 -0.017,0.024 -0.032,0.043 -0.048,0.063 -0.015,0.023 -0.035,0.043 -0.05,0.066 -0.005,0.008 -0.012,0.012 -0.016,0.02 -0.035,0.05 -0.07,0.105 -0.11,0.156 0,0.004 -0.004,0.008 -0.004,0.012 A 0.266,0.266 0 0 1 55.309,78.41 C 55.285,78.379 55.266,78.348 55.242,78.313 55.23,78.289 55.215,78.266 55.199,78.238 a 5.24,5.24 0 0 1 -0.136,-0.254 c 0,-0.004 0,-0.007 -0.004,-0.007 -0.012,-0.028 -0.024,-0.055 -0.04,-0.082 a 9.85,9.85 0 0 0 0.5,-0.57 c 0.012,-0.013 0.02,-0.024 0.032,-0.04 0.054,-0.066 0.11,-0.133 0.164,-0.203 0.09,-0.11 0.18,-0.223 0.265,-0.336 0.036,-0.043 0.067,-0.086 0.098,-0.129 0.176,-0.226 0.34,-0.445 0.496,-0.668 l 0.012,-0.015 c 0.023,-0.036 0.047,-0.067 0.066,-0.102 0.078,-0.11 0.153,-0.227 0.22,-0.34 0.062,-0.101 0.12,-0.207 0.175,-0.316 l 0.012,-0.024 a 0.117,0.117 0 0 1 0.015,-0.03 c 0.012,-0.02 0.016,-0.044 0.028,-0.06 a 4.32,4.32 0 0 0 0.164,-0.414 l 0.035,-0.101 c 0.015,-0.059 0.035,-0.117 0.05,-0.176 0.004,-0.012 0.004,-0.027 0.008,-0.039 0.02,-0.074 0.04,-0.152 0.055,-0.23 a 0.168,0.168 0 0 0 -0.02,-0.11 c 0.172,-0.297 0.383,-0.582 0.63,-0.855 -0.024,0.015 -0.051,0.027 -0.075,0.043 -0.226,0.144 -0.375,0.347 -0.586,0.507 -0.175,0.13 -0.492,-0.085 -0.289,-0.238 0.14,-0.101 0.246,-0.219 0.364,-0.328 a 0.082,0.082 0 0 1 0.015,-0.023 c 0.262,-0.258 0.512,-0.586 0.809,-0.805 0.18,-0.133 0.34,-0.242 0.488,-0.371 0.023,-0.02 0.047,-0.043 0.066,-0.063 0.114,-0.148 0.23,-0.277 0.356,-0.402 0.008,-0.004 0.012,-0.012 0.016,-0.016 1.519,-1.46 4.074,-1.398 6.074,-2.332 0.789,-0.316 1.742,0.16 2.535,0 0.473,0 0.95,0 1.426,0.317 -1.426,0.777 -2.743,1.652 -4.04,2.469 z m 2.84,1.308 c -0.07,0.176 -0.235,0.324 -0.391,0.461 0.199,0.043 0.34,0.129 0.21,0.246 -0.366,0.336 -0.718,0.676 -1.202,0.84 a 1.356,1.356 0 0 1 -0.243,0.031 c -0.195,0.188 -0.39,0.375 -0.59,0.555 -0.19,0.168 -1.062,0.047 -0.792,-0.191 0.398,-0.356 0.773,-0.743 1.168,-1.106 0.226,-0.203 0.46,-0.398 0.66,-0.629 0.11,-0.129 0.203,-0.254 0.34,-0.351 0.129,-0.094 0.968,-0.168 0.84,0.144 z m -7.36,-23.742 c -0.156,0.316 -0.336,0.348 -0.477,0.633 -0.156,0.316 -0.316,0.472 -0.632,0.633 -0.16,0 -0.317,0 -0.317,-0.16 0.157,-0.633 0.633,-1.266 1.27,-1.426 0.156,0 0.156,0.16 0.156,0.32 z M 47.512,59.918 c 0,0 -0.16,-0.156 -0.16,-0.316 2.058,-2.696 3.644,-5.23 5.07,-8.082 2.062,-1.11 3.77,-2.723 5.39,-4.438 2.696,-2.852 5.547,-5.387 8.876,-6.973 1.265,-0.476 2.851,-0.316 4.12,0.16 -0.476,0.633 -1.269,0.473 -1.906,0.95 -0.156,0 -0.312,0 -0.472,-0.16 0.16,-0.157 0.16,-0.317 0.16,-0.473 -1.586,1.742 -3.805,2.535 -5.074,4.594 -0.95,1.586 -1.582,3.644 -3.645,4.12 -0.633,0.16 0.16,-0.476 -0.156,-0.316 -4.914,3.012 -8.403,6.657 -12.203,10.934 z m 24.246,3.488 c -0.317,0 -0.95,0.157 -0.793,-0.16 0.156,-0.793 1.265,-0.793 1.902,-1.11 0.317,-0.156 0.793,-0.476 1.11,-0.316 0.316,0.477 0.793,0.317 1.109,0.633 -0.95,0.953 -2.219,0.477 -3.328,0.953 z m 24.37,11.352 c 0.9,-0.903 1.81,-1.867 2.712,-2.836 h -0.02 c 1.684,-1.906 3.332,-3.723 5.285,-5.395 0.594,-0.53 1.172,-1 1.723,-1.379 0.16,-0.16 0.16,-0.476 0.317,-0.632 -0.79,0.316 -1.266,0.949 -2.06,1.265 -0.155,0 -0.315,-0.156 -0.155,-0.316 l 1.691,-1.27 h -0.11 c -0.156,0 -0.156,-0.156 -0.156,-0.316 -2.062,-0.316 -3.644,1.11 -5.074,2.379 -0.316,0.156 -0.633,-0.16 -0.789,-0.16 -2.379,0.793 -4.12,2.855 -6.5,3.804 v -0.316 c -0.949,0.316 -1.875,0.89 -2.851,1.11 -1.426,0.316 -2.696,0.16 -3.961,0.16 -1.922,0.19 -3.844,0.613 -5.766,1.023 -0.055,0.016 -0.11,0.027 -0.164,0.043 a 13.275,13.275 0 0 0 -2.953,1.187 c -0.035,0.02 -0.07,0.043 -0.11,0.063 a 4.693,4.693 0 0 1 -0.226,0.273 c -0.344,0.375 -0.637,0.72 -1.09,0.95 -0.973,0.496 -1.766,1.359 -2.625,2.058 a 0.438,0.438 0 0 1 -0.254,0.082 c -0.851,0.817 -1.691,1.645 -2.555,2.445 -0.058,0.055 -0.304,0.086 -0.484,0.055 0.008,-0.004 0.012,-0.008 0.016,-0.012 a 61.035,61.035 0 0 1 0.496,-0.82 c 0.152,-0.25 0.308,-0.492 0.472,-0.738 0.215,-0.324 0.438,-0.649 0.672,-0.965 0.063,-0.078 0.047,-0.152 -0.004,-0.207 a 0.314,0.314 0 0 0 -0.218,-0.082 c 0.789,-0.766 1.73,-1.422 2.66,-1.984 v -0.028 c -0.11,0.035 -0.262,-0.047 -0.18,-0.16 0.102,-0.14 0.18,-0.289 0.274,-0.434 l 0.046,-0.14 c -0.039,-0.04 -0.078,-0.082 -0.117,-0.125 -0.257,0.168 -0.527,0.324 -0.746,0.52 -0.379,0.343 -0.676,1.042 -1.25,1.035 a 0.803,0.803 0 0 1 -0.238,-0.036 0.469,0.469 0 0 1 -0.168,-0.054 c 0.008,-0.012 0.012,-0.024 0.02,-0.035 l 0.023,-0.047 0.023,-0.04 c 0.024,-0.046 0.051,-0.09 0.075,-0.136 0.027,-0.047 0.05,-0.09 0.078,-0.137 0.02,-0.035 0.039,-0.074 0.058,-0.11 0.04,-0.066 0.075,-0.136 0.114,-0.202 l 0.082,-0.141 c 0.07,-0.117 0.136,-0.234 0.207,-0.352 0.03,-0.054 0.062,-0.113 0.097,-0.168 l 0.168,-0.289 c 0.078,-0.128 -0.004,-0.238 -0.12,-0.28 0.292,-0.384 0.652,-0.7 1.085,-0.946 h -0.047 c 0.606,-0.305 1.211,-0.68 1.82,-1.02 0.087,-0.074 0.172,-0.152 0.262,-0.226 -0.906,0.304 -1.718,0.715 -2.52,1.246 0,0 -0.21,0.086 -0.269,0.144 0,0 -0.18,0.067 -0.394,-0.144 a 0.184,0.184 0 0 1 -0.04,-0.117 c 0.16,-0.317 0.633,-0.477 0.954,-0.793 0.156,0 0.316,0 0.316,0.16 5.07,-3.965 12.043,-3.012 17.906,-5.074 0.477,-0.317 0.954,-0.633 1.426,-0.95 0.793,-0.316 1.426,-1.109 2.38,-1.585 1.269,-0.95 2.218,-2.06 2.69,-3.645 0,-0.156 -0.156,-0.316 -0.156,-0.316 a 24.418,24.418 0 0 1 -6.972,5.23 c -3.329,1.742 -6.973,1.426 -10.461,1.902 0.16,-0.32 0.476,-0.32 0.793,-0.32 0,-0.473 0.316,-0.633 0.632,-0.95 h 0.477 c 0.16,0 0.16,-0.316 0.316,-0.316 0.317,0 0.793,-0.16 0.633,-0.16 -0.472,-0.633 -1.426,0.477 -2.219,0 0.32,-0.316 0.16,-0.793 0.477,-0.949 h 0.637 c 0,-0.316 0.316,-0.633 0.316,-0.633 2.375,-1.426 4.594,-2.535 6.813,-3.804 -0.477,0 -0.793,0.476 -1.27,0.16 0.32,0 0,-0.477 0.32,-0.477 1.743,-0.476 3.168,-1.426 4.915,-2.058 -0.637,0 -1.114,0.472 -1.747,0 0.317,-0.16 0.477,-0.477 0.954,-0.477 v -0.477 c 0,-0.16 0.156,-0.16 0.316,-0.16 -0.16,0 -0.316,-0.156 -0.316,-0.156 0.156,-0.316 0.632,-0.16 0.949,-0.477 -0.156,0 -0.477,0 -0.477,-0.156 0.477,-0.636 1.27,-0.793 2.063,-0.953 -0.16,-0.316 -0.637,0 -0.637,-0.316 0,-0.16 0.16,-0.16 0.316,-0.16 h -0.316 c -0.316,-0.157 -0.156,-0.473 -0.156,-0.633 0.949,-1.11 0.949,-2.535 1.425,-3.801 -0.16,0 -0.316,0 -0.316,-0.16 -1.586,1.742 -4.121,2.379 -6.5,3.011 h -0.793 c -0.789,0.317 -1.898,0.317 -2.691,-0.16 -0.633,-0.316 -0.95,-0.793 -1.586,-1.265 -1.266,-0.793 -2.535,-1.426 -3.961,-1.903 -3.961,-1.27 -8.082,-1.902 -12.203,-1.746 1.742,-0.949 3.668,-1.027 5.547,-1.582 2.695,-0.793 5.23,-1.742 8.082,-1.586 -0.477,-0.156 -1.11,0 -1.586,0 -2.215,-0.156 -4.438,0.477 -6.813,0.953 -1.586,0.317 -3.012,0.95 -4.597,1.266 -0.95,0.316 -1.426,1.27 -2.536,1.11 v -0.477 c 1.586,-1.899 3.489,-3.8 6.024,-3.961 2.851,-0.477 5.547,0 8.398,0.316 2.063,0.16 3.961,0.637 6.024,1.11 0.793,0 0.949,1.27 1.586,1.425 0.949,0.32 1.898,0 2.851,0.637 0,-0.316 -0.16,-0.636 0,-0.953 0.633,-0.633 1.426,0.16 2.059,-0.156 1.27,-0.793 -1.11,-2.219 -1.742,-3.328 0,-0.16 0.156,-0.317 0.156,-0.317 1.27,1.11 2.222,2.375 3.805,3.168 0.793,0.317 2.695,0.793 2.375,-0.16 -0.79,-1.742 -2.375,-3.168 -3.641,-4.754 v -0.633 c -0.317,0 -0.317,-0.16 -0.477,-0.316 v -0.633 c -0.632,-0.316 -0.476,-0.953 -0.793,-1.43 -0.476,-0.789 -0.16,-1.898 -0.476,-2.851 -0.317,-0.95 -0.477,-1.742 -0.633,-2.691 -0.477,-2.696 -1.11,-5.075 -1.426,-7.61 -0.316,-3.012 1.742,-5.387 3.168,-8.082 1.11,-1.902 2.38,-3.805 4.438,-5.07 0.476,-1.903 1.746,-3.488 3.011,-5.07 1.266,-1.547 3.371,-2.493 4.891,-3.172 a 42.07,42.07 0 0 1 4.215,-1.606 H 0.785 v 83.863 h 77.02 c 3.02,-2.171 6.03,-3.203 10.242,-5.28 1.988,-0.977 6.539,-3.067 8.082,-4.61 z"
         id="path896" />
      <path
         fill="#e1000f"
         d="m 231.41,0.785 h -90.215 c 0,0 0.172,0.027 0.86,0.395 0.73,0.394 1.68,0.898 2.273,1.21 1.164,0.61 2.293,1.372 3.024,2.536 0.316,0.476 0.793,1.43 0.472,2.062 -0.316,0.793 -0.472,2.059 -1.265,2.375 -0.954,0.477 -2.22,0.477 -3.329,0.32 -0.632,0 -1.27,-0.16 -1.902,-0.32 2.375,0.953 4.598,2.063 6.18,4.282 0.16,0.316 0.793,0.472 1.43,0.472 0.156,0 0.156,0.32 0.156,0.477 -0.317,0.316 -0.633,0.476 -0.477,0.953 h 0.477 c 0.793,-0.32 0.633,-1.902 1.742,-1.43 0.793,0.477 1.11,1.586 0.637,2.38 -0.637,0.632 -1.27,1.108 -1.903,1.585 -0.16,0.316 -0.16,0.79 0,1.11 0.477,0.632 0.633,1.265 0.79,1.902 0.476,1.105 0.636,2.375 1.113,3.484 0.632,2.379 1.265,4.754 1.105,7.133 0,1.266 -0.633,2.375 -0.156,3.644 0.316,1.266 1.11,2.22 1.742,3.329 0.637,0.949 1.27,1.586 1.742,2.535 0.953,1.586 2.696,3.168 1.903,5.07 -0.473,1.11 -2.22,0.95 -3.329,1.586 -0.949,0.793 -0.156,2.059 0.32,2.852 0.79,1.425 -0.952,2.378 -2.062,2.851 0.317,0.477 0.95,0.317 1.11,0.637 0.16,0.793 0.953,1.265 0.476,2.058 -0.637,0.954 -2.535,1.426 -1.586,2.852 0.633,1.11 0.223,2.344 -0.16,3.488 -0.473,1.426 -1.742,2.059 -2.851,2.375 -0.95,0.32 -2.059,0.32 -3.008,0.16 -0.32,-0.16 -0.637,-0.316 -0.953,-0.316 -2.696,-0.316 -5.387,-1.11 -8.082,-1.11 -0.793,0.157 -1.586,0.317 -2.22,0.633 a 14.246,14.246 0 0 0 -1.917,1.696 l -0.02,0.023 c -0.117,0.125 -0.234,0.254 -0.343,0.383 -0.07,0.078 -0.137,0.16 -0.207,0.242 -0.043,0.055 -0.09,0.11 -0.133,0.164 a 14.372,14.372 0 0 0 -1.246,1.828 c -0.028,0.04 -0.051,0.079 -0.075,0.121 l -0.12,0.22 c -0.52,0.964 -0.915,1.948 -1.2,2.91 -1.078,3.628 -0.605,6.742 0.149,7.496 0.21,0.21 5.234,1.761 8.73,3.316 1.64,0.73 2.785,1.293 3.738,1.894 h 88.59 V 0.785"
         id="path898" />
      <path
         fill="#9d9d9b"
         d="m 146.563,31.379 c 0.632,0.156 1.582,0.156 1.582,0.476 -0.317,1.266 -2.215,1.582 -3.168,2.852 H 144.5 c -0.473,0.316 -0.316,1.11 -0.79,1.11 -0.476,-0.16 -0.952,0 -1.429,0.156 0.637,0.636 1.43,1.113 2.38,0.953 0.16,0 0.476,0.316 0.476,0.633 0,0 0.156,0 0.316,-0.16 0.156,0 0.317,0 0.317,0.16 v 0.632 c -0.477,0.637 -1.27,0.32 -1.903,0.477 1.27,0.316 2.535,0.316 3.645,0 0.953,-0.316 0,-1.902 0.633,-2.695 -0.317,0 0,-0.473 -0.317,-0.473 0.317,-0.316 0.637,-0.793 0.953,-0.953 0.317,0 0.79,-0.156 0.95,-0.477 0,-0.312 -0.633,-0.472 -0.473,-0.789 0.949,-0.636 1.742,-1.586 1.426,-2.539 -0.16,-0.472 -1.426,-0.472 -2.22,-0.789 -0.792,-0.316 -1.745,0 -2.694,0.156 -0.793,0 -1.586,0.477 -2.375,0.633 -1.114,0.32 -2.063,0.953 -3.012,1.586 1.105,-0.473 2.219,-0.633 3.484,-0.95 0.953,0 1.758,-0.233 2.696,0"
         id="path900" />
    </g>
    <g
       fill-rule="nonzero"
       id="g36"
       style="fill:none">
      <path
         d="m 158.217,45.525 a 1.417,1.417 0 0 1 -0.377,-1.02 V 33.504 a 1.407,1.407 0 0 1 1.53,-1.5 c 0.41,-0.023 0.813,0.125 1.11,0.409 0.28,0.292 0.428,0.686 0.409,1.09 v 9.9 h 5.016 c 0.948,0 1.428,0.419 1.428,1.255 0,0.836 -0.48,1.234 -1.428,1.234 h -6.638 a 1.417,1.417 0 0 1 -1.05,-0.367 z m 18.649,-2.172 c 0.171,0.229 0.258,0.51 0.245,0.795 a 1.02,1.02 0 0 1 -0.194,0.622 1.703,1.703 0 0 1 -0.55,0.48 6.638,6.638 0 0 1 -1.54,0.57 6.515,6.515 0 0 1 -1.632,0.225 5.76,5.76 0 0 1 -2.722,-0.602 4.262,4.262 0 0 1 -1.795,-1.733 5.333,5.333 0 0 1 -0.622,-2.651 5.496,5.496 0 0 1 0.602,-2.55 4.547,4.547 0 0 1 1.682,-1.773 4.802,4.802 0 0 1 2.447,-0.632 c 0.805,-0.017 1.6,0.18 2.305,0.57 a 3.997,3.997 0 0 1 1.53,1.652 c 0.381,0.773 0.57,1.627 0.55,2.488 a 0.948,0.948 0 0 1 -0.204,0.653 0.744,0.744 0 0 1 -0.581,0.234 h -5.476 a 2.63,2.63 0 0 0 0.704,1.672 c 0.456,0.37 1.035,0.553 1.621,0.51 0.345,0.007 0.688,-0.038 1.02,-0.132 0.295,-0.092 0.632,-0.215 1.02,-0.367 l 0.53,-0.215 a 1.55,1.55 0 0 1 0.448,-0.081 0.755,0.755 0 0 1 0.612,0.265 z m -5.353,-4.731 c -0.371,0.437 -0.583,0.987 -0.602,1.56 h 3.773 a 2.59,2.59 0 0 0 -0.52,-1.57 1.642,1.642 0 0 0 -1.295,-0.53 c -0.508,-0.02 -1,0.177 -1.356,0.54 z m 9.003,7.229 a 4.741,4.741 0 0 1 -1.54,-0.622 1.264,1.264 0 0 1 -0.458,-0.469 1.427,1.427 0 0 1 -0.153,-0.673 1.08,1.08 0 0 1 0.255,-0.744 0.785,0.785 0 0 1 0.622,-0.306 c 0.173,10e-4 0.344,0.029 0.51,0.081 l 0.53,0.215 c 0.35,0.157 0.711,0.29 1.08,0.397 0.427,0.108 0.866,0.156 1.305,0.143 0.353,0.01 0.702,-0.063 1.02,-0.214 a 0.642,0.642 0 0 0 0.377,-0.581 0.571,0.571 0 0 0 -0.163,-0.439 1.52,1.52 0 0 0 -0.622,-0.306 16.441,16.441 0 0 0 -1.427,-0.336 5.333,5.333 0 0 1 -2.498,-1.02 2.325,2.325 0 0 1 -0.765,-1.855 2.539,2.539 0 0 1 0.54,-1.58 c 0.402,-0.492 0.931,-0.862 1.53,-1.071 a 5.333,5.333 0 0 1 2.11,-0.398 c 0.56,-0.01 1.12,0.055 1.662,0.194 0.503,0.13 0.984,0.332 1.428,0.601 0.393,0.224 0.63,0.649 0.612,1.101 0.004,0.283 -0.086,0.56 -0.255,0.786 a 0.795,0.795 0 0 1 -0.632,0.305 2.274,2.274 0 0 1 -1.02,-0.346 5.812,5.812 0 0 0 -0.897,-0.388 3.242,3.242 0 0 0 -0.949,-0.122 1.754,1.754 0 0 0 -0.958,0.224 0.693,0.693 0 0 0 -0.347,0.612 0.683,0.683 0 0 0 0.408,0.632 6.536,6.536 0 0 0 1.58,0.428 c 0.702,0.125 1.386,0.33 2.04,0.612 0.421,0.201 0.775,0.52 1.02,0.918 0.238,0.422 0.355,0.902 0.336,1.386 a 2.58,2.58 0 0 1 -1.142,2.213 5.098,5.098 0 0 1 -3.059,0.816 9.625,9.625 0 0 1 -2.08,-0.194 z m 21.769,-2.498 c 0.17,0.229 0.257,0.51 0.244,0.795 a 1.02,1.02 0 0 1 -0.193,0.622 1.703,1.703 0 0 1 -0.55,0.48 6.556,6.556 0 0 1 -1.55,0.57 6.373,6.373 0 0 1 -1.622,0.225 5.76,5.76 0 0 1 -2.722,-0.602 4.211,4.211 0 0 1 -1.795,-1.733 5.944,5.944 0 0 1 0,-5.251 4.547,4.547 0 0 1 1.683,-1.774 4.751,4.751 0 0 1 2.447,-0.632 4.507,4.507 0 0 1 2.294,0.57 c 0.663,0.39 1.198,0.964 1.54,1.652 0.381,0.773 0.57,1.627 0.55,2.488 a 0.948,0.948 0 0 1 -0.204,0.653 0.765,0.765 0 0 1 -0.581,0.234 h -5.475 a 2.63,2.63 0 0 0 0.703,1.672 c 0.456,0.37 1.036,0.553 1.621,0.51 0.345,0.006 0.688,-0.039 1.02,-0.132 0.296,-0.092 0.632,-0.215 1.02,-0.367 l 0.52,-0.215 c 0.148,-0.048 0.302,-0.075 0.458,-0.081 a 0.755,0.755 0 0 1 0.592,0.316 z m -5.353,-4.731 c -0.371,0.437 -0.583,0.987 -0.602,1.56 h 3.773 a 2.59,2.59 0 0 0 -0.52,-1.57 1.642,1.642 0 0 0 -1.295,-0.53 1.784,1.784 0 0 0 -1.356,0.54 z M 218.609,37 c 0.634,0.888 0.934,1.972 0.846,3.06 v 4.567 c 0.018,0.383 -0.131,0.755 -0.408,1.02 -0.288,0.234 -0.648,0.36 -1.02,0.357 -0.37,0 -0.73,-0.126 -1.02,-0.357 a 1.264,1.264 0 0 1 -0.427,-1.02 V 40.06 a 2.04,2.04 0 0 0 -0.327,-1.316 1.213,1.213 0 0 0 -1.02,-0.387 c -0.502,-0.02 -0.986,0.19 -1.315,0.57 a 2.345,2.345 0 0 0 -0.53,1.622 v 4.078 c 0.024,0.384 -0.126,0.758 -0.408,1.02 -0.287,0.234 -0.648,0.36 -1.02,0.357 -0.37,0 -0.729,-0.126 -1.019,-0.357 a 1.264,1.264 0 0 1 -0.428,-1.02 V 40.06 a 2.04,2.04 0 0 0 -0.316,-1.316 1.244,1.244 0 0 0 -1.02,-0.387 c -0.502,-0.02 -0.986,0.19 -1.315,0.57 a 2.345,2.345 0 0 0 -0.49,1.581 v 4.079 c 0.02,0.385 -0.133,0.759 -0.417,1.02 a 1.723,1.723 0 0 1 -2.131,0.04 1.244,1.244 0 0 1 -0.439,-1.02 V 37.49 c -0.024,-0.39 0.14,-0.768 0.439,-1.02 0.292,-0.225 0.65,-0.347 1.02,-0.346 0.37,-0.025 0.736,0.096 1.019,0.336 0.265,0.242 0.407,0.59 0.387,0.949 v 0.193 a 3.253,3.253 0 0 1 1.224,-1.131 3.783,3.783 0 0 1 1.713,-0.388 3.456,3.456 0 0 1 1.774,0.388 c 0.507,0.317 0.894,0.794 1.101,1.356 0.302,-0.54 0.747,-0.988 1.285,-1.295 a 3.762,3.762 0 0 1 1.886,-0.48 c 0.892,-0.046 1.76,0.3 2.376,0.949 z m 11.226,-0.315 a 4.262,4.262 0 0 1 1.498,1.825 c 0.373,0.826 0.558,1.724 0.54,2.63 a 5.995,5.995 0 0 1 -0.54,2.57 3.925,3.925 0 0 1 -3.711,2.335 3.915,3.915 0 0 1 -1.774,-0.398 2.936,2.936 0 0 1 -1.213,-1.122 v 3.691 c 0.015,0.357 -0.13,0.702 -0.398,0.939 a 1.448,1.448 0 0 1 -1.02,0.356 c -0.4,0.017 -0.791,-0.113 -1.1,-0.367 a 1.244,1.244 0 0 1 -0.419,-1.02 V 37.49 c -0.02,-0.38 0.126,-0.752 0.398,-1.02 0.28,-0.25 0.644,-0.385 1.02,-0.377 0.376,-0.013 0.742,0.122 1.019,0.378 0.272,0.267 0.417,0.638 0.398,1.02 v 0.152 c 0.31,-0.51 0.764,-0.917 1.305,-1.172 a 3.844,3.844 0 0 1 1.794,-0.418 3.956,3.956 0 0 1 2.203,0.632 z m -1.459,6.423 a 3.12,3.12 0 0 0 0.571,-2.039 3.334,3.334 0 0 0 -0.57,-2.04 1.917,1.917 0 0 0 -1.601,-0.733 1.937,1.937 0 0 0 -1.611,0.724 3.966,3.966 0 0 0 0,4.078 2.182,2.182 0 0 0 3.211,0 z m 5.72,2.539 a 1.295,1.295 0 0 1 -0.418,-1.02 V 33.412 c -0.019,-0.385 0.134,-0.76 0.418,-1.02 0.291,-0.227 0.65,-0.35 1.02,-0.347 0.37,-0.006 0.73,0.117 1.02,0.347 0.284,0.26 0.437,0.635 0.418,1.02 v 11.215 c 0.02,0.386 -0.134,0.76 -0.418,1.02 -0.289,0.234 -0.649,0.36 -1.02,0.357 -0.37,0 -0.73,-0.126 -1.02,-0.357 z m 6.74,-0.214 c -0.75,-0.394 -1.367,-1 -1.774,-1.744 a 5.873,5.873 0 0 1 0,-5.302 4.333,4.333 0 0 1 1.774,-1.733 6.28,6.28 0 0 1 5.363,0 c 0.753,0.39 1.373,0.993 1.785,1.733 a 5.965,5.965 0 0 1 0,5.302 4.262,4.262 0 0 1 -1.785,1.744 6.179,6.179 0 0 1 -5.363,0 z m 4.833,-4.395 a 3.263,3.263 0 0 0 -0.55,-2.039 1.958,1.958 0 0 0 -1.601,-0.693 c -1.428,0 -2.152,0.928 -2.152,2.763 0,1.835 0.724,2.763 2.152,2.763 1.427,0 2.151,-0.948 2.151,-2.794 z m 5.037,-6.913 a 1.366,1.366 0 0 1 -0.449,-1.09 c -0.026,-0.408 0.14,-0.804 0.449,-1.071 a 1.795,1.795 0 0 1 1.234,-0.398 c 0.444,-0.024 0.882,0.122 1.223,0.408 0.295,0.257 0.462,0.63 0.459,1.02 0.019,0.412 -0.145,0.811 -0.449,1.09 a 2.11,2.11 0 0 1 -2.467,0 z m 0.122,11.522 a 1.295,1.295 0 0 1 -0.418,-1.02 V 37.49 a 1.264,1.264 0 0 1 0.428,-1.02 c 0.29,-0.228 0.65,-0.35 1.02,-0.346 a 1.54,1.54 0 0 1 1.02,0.347 c 0.291,0.256 0.45,0.632 0.428,1.02 v 7.136 c 0.021,0.388 -0.137,0.764 -0.428,1.02 a 1.55,1.55 0 0 1 -1.02,0.357 1.611,1.611 0 0 1 -1.03,-0.357 z m 6.372,0.204 a 4.792,4.792 0 0 1 -1.549,-0.622 1.234,1.234 0 0 1 -0.449,-0.469 1.427,1.427 0 0 1 -0.153,-0.673 1.08,1.08 0 0 1 0.255,-0.744 0.775,0.775 0 0 1 0.622,-0.306 c 0.173,0.002 0.345,0.03 0.51,0.081 l 0.53,0.215 c 0.347,0.157 0.705,0.29 1.07,0.397 0.43,0.107 0.873,0.155 1.316,0.143 0.352,0.012 0.702,-0.062 1.02,-0.214 a 0.653,0.653 0 0 0 0.387,-0.581 0.571,0.571 0 0 0 -0.173,-0.439 1.53,1.53 0 0 0 -0.612,-0.306 16.441,16.441 0 0 0 -1.427,-0.336 5.373,5.373 0 0 1 -2.509,-1.02 2.325,2.325 0 0 1 -0.764,-1.855 2.539,2.539 0 0 1 0.54,-1.58 c 0.401,-0.488 0.926,-0.858 1.52,-1.071 a 5.404,5.404 0 0 1 2.11,-0.398 c 0.557,0 1.113,0.072 1.652,0.214 0.502,0.132 0.982,0.334 1.427,0.602 0.388,0.228 0.619,0.651 0.602,1.1 0.01,0.284 -0.081,0.562 -0.255,0.786 a 0.775,0.775 0 0 1 -0.622,0.306 2.274,2.274 0 0 1 -1.08,-0.347 6.2,6.2 0 0 0 -0.888,-0.387 3.242,3.242 0 0 0 -0.948,-0.123 1.733,1.733 0 0 0 -0.959,0.225 0.693,0.693 0 0 0 0.061,1.244 6.25,6.25 0 0 0 1.58,0.428 8.891,8.891 0 0 1 2.04,0.612 c 0.441,0.195 0.816,0.514 1.08,0.917 a 2.804,2.804 0 0 1 -0.815,3.6 5.098,5.098 0 0 1 -3.059,0.815 9.462,9.462 0 0 1 -2.06,-0.214 z"
         fill="#006adc"
         id="path16" />
      <path
         d="m 164.04,52.835 c 0.106,0.117 0.164,0.27 0.162,0.429 v 9.716 a 0.622,0.622 0 1 1 -1.182,0 v -0.825 a 2.416,2.416 0 0 1 -1.02,1.08 2.926,2.926 0 0 1 -1.52,0.388 3.059,3.059 0 0 1 -1.722,-0.49 3.253,3.253 0 0 1 -1.163,-1.366 4.762,4.762 0 0 1 -0.408,-2.04 4.67,4.67 0 0 1 0.408,-2.038 3.059,3.059 0 0 1 2.886,-1.815 2.926,2.926 0 0 1 1.519,0.377 c 0.445,0.249 0.802,0.63 1.02,1.091 v -4.078 a 0.581,0.581 0 0 1 0.153,-0.429 0.724,0.724 0 0 1 0.917,0 z m -1.653,9.024 c 0.441,-0.61 0.664,-1.35 0.633,-2.1 a 3.273,3.273 0 0 0 -0.592,-2.09 2.04,2.04 0 0 0 -1.672,-0.735 2.04,2.04 0 0 0 -1.682,0.734 3.059,3.059 0 0 0 -0.612,2.04 c -0.047,0.753 0.17,1.499 0.612,2.11 a 2.264,2.264 0 0 0 3.354,0 l -0.04,0.04 z m 10.166,0.101 a 0.52,0.52 0 0 1 0.122,0.358 c 0,0.255 -0.183,0.49 -0.54,0.703 a 4.843,4.843 0 0 1 -2.345,0.643 3.66,3.66 0 0 1 -2.733,-1.02 3.885,3.885 0 0 1 -1.02,-2.824 4.395,4.395 0 0 1 0.45,-2.04 3.232,3.232 0 0 1 1.243,-1.366 3.416,3.416 0 0 1 1.825,-0.49 2.957,2.957 0 0 1 2.305,0.949 3.66,3.66 0 0 1 0.856,2.56 0.673,0.673 0 0 1 -0.122,0.448 0.51,0.51 0 0 1 -0.398,0.132 h -4.904 c 0.092,1.754 0.928,2.63 2.498,2.63 0.346,0.005 0.691,-0.05 1.02,-0.162 0.315,-0.125 0.622,-0.271 0.917,-0.439 0.16,-0.11 0.34,-0.187 0.53,-0.224 0.115,0 0.224,0.053 0.296,0.143 z m -4.527,-4.455 a 2.814,2.814 0 0 0 -0.704,1.723 h 4.323 a 2.651,2.651 0 0 0 -0.56,-1.733 1.917,1.917 0 0 0 -1.5,-0.632 2.04,2.04 0 0 0 -1.56,0.601 v 0.041 z m 12.388,5.771 a 1.295,1.295 0 0 1 -0.418,-1.02 V 51.041 c -0.02,-0.385 0.134,-0.76 0.418,-1.02 0.29,-0.227 0.65,-0.35 1.02,-0.346 0.37,-0.007 0.73,0.116 1.02,0.346 0.284,0.26 0.437,0.635 0.417,1.02 v 11.215 c 0.02,0.386 -0.133,0.76 -0.418,1.02 -0.288,0.234 -0.648,0.36 -1.02,0.357 -0.37,0 -0.73,-0.126 -1.019,-0.357 z m 7.413,-13.102 c 0.331,0.462 0.496,1.023 0.469,1.59 a 4.976,4.976 0 0 1 -1.469,3.56 0.816,0.816 0 0 1 -0.611,0.274 0.887,0.887 0 0 1 -0.581,-0.224 0.704,0.704 0 0 1 -0.041,-1.05 c 0.404,-0.401 0.705,-0.895 0.877,-1.438 a 1.642,1.642 0 0 1 -1.02,-0.49 1.509,1.509 0 0 1 -0.408,-1.09 c -0.03,-0.44 0.117,-0.873 0.408,-1.203 0.293,-0.318 0.71,-0.493 1.142,-0.48 a 1.57,1.57 0 0 1 1.234,0.551 z m 2.722,1.591 A 1.397,1.397 0 0 1 190.1,50.674 c -0.004,-0.389 0.16,-0.76 0.449,-1.02 0.348,-0.28 0.788,-0.421 1.234,-0.398 0.445,-0.024 0.882,0.122 1.223,0.408 0.295,0.257 0.463,0.63 0.46,1.02 0.022,0.408 -0.139,0.804 -0.44,1.08 a 2.11,2.11 0 0 1 -2.477,0 z m 0.173,11.531 a 1.264,1.264 0 0 1 -0.428,-1.02 V 55.14 c -0.022,-0.39 0.14,-0.768 0.439,-1.02 a 1.764,1.764 0 0 1 2.1,0 c 0.284,0.26 0.437,0.634 0.418,1.02 v 7.137 c 0.02,0.385 -0.134,0.759 -0.418,1.02 a 1.744,1.744 0 0 1 -2.11,0 z M 204.12,54.68 c 0.631,0.89 0.93,1.972 0.846,3.06 v 4.516 c 0.024,0.384 -0.126,0.758 -0.408,1.02 a 1.733,1.733 0 0 1 -2.161,0 1.346,1.346 0 0 1 -0.388,-1.02 v -4.374 a 2.274,2.274 0 0 0 -0.367,-1.427 1.356,1.356 0 0 0 -1.121,-0.449 1.937,1.937 0 0 0 -1.479,0.592 c -0.382,0.427 -0.58,0.987 -0.55,1.56 v 4.078 c 0.022,0.382 -0.124,0.754 -0.398,1.02 -0.294,0.26 -0.678,0.395 -1.07,0.377 a 1.56,1.56 0 0 1 -1.091,-0.377 1.315,1.315 0 0 1 -0.398,-1.02 V 55.1 a 1.244,1.244 0 0 1 0.418,-1.02 1.6,1.6 0 0 1 1.09,-0.367 c 0.375,-0.025 0.743,0.104 1.02,0.357 0.256,0.24 0.396,0.578 0.388,0.928 v 0.275 a 3.365,3.365 0 0 1 1.274,-1.193 c 0.571,-0.279 1.2,-0.419 1.836,-0.408 a 3.15,3.15 0 0 1 2.559,1.01 z m 4.894,8.382 a 4.16,4.16 0 0 1 -1.713,-1.723 5.485,5.485 0 0 1 -0.591,-2.62 5.312,5.312 0 0 1 0.632,-2.652 4.395,4.395 0 0 1 1.784,-1.774 5.516,5.516 0 0 1 2.661,-0.622 c 0.534,10e-4 1.066,0.073 1.58,0.214 0.5,0.132 0.977,0.335 1.418,0.602 0.392,0.226 0.627,0.65 0.612,1.101 0.011,0.293 -0.071,0.583 -0.235,0.826 a 0.734,0.734 0 0 1 -0.632,0.326 1.254,1.254 0 0 1 -0.479,-0.091 c -0.153,0 -0.347,-0.143 -0.591,-0.255 a 5.496,5.496 0 0 0 -0.735,-0.337 2.04,2.04 0 0 0 -0.734,-0.122 2.04,2.04 0 0 0 -1.672,0.703 3.059,3.059 0 0 0 -0.581,2.04 3.14,3.14 0 0 0 0.581,2.039 2.04,2.04 0 0 0 1.672,0.703 c 0.246,0.003 0.49,-0.035 0.724,-0.112 0.26,-0.095 0.511,-0.207 0.755,-0.336 l 0.591,-0.265 c 0.148,-0.063 0.308,-0.094 0.47,-0.092 0.25,0 0.484,0.127 0.621,0.336 0.17,0.245 0.256,0.539 0.245,0.836 0.022,0.449 -0.216,0.87 -0.612,1.081 -0.45,0.271 -0.938,0.474 -1.448,0.602 a 6.821,6.821 0 0 1 -1.723,0.214 5.322,5.322 0 0 1 -2.6,-0.622 z m 8.249,0.214 a 1.264,1.264 0 0 1 -0.428,-1.02 V 51.041 a 1.264,1.264 0 0 1 0.428,-1.02 1.784,1.784 0 0 1 2.11,0 c 0.288,0.258 0.442,0.634 0.418,1.02 v 11.215 c 0.024,0.386 -0.13,0.762 -0.418,1.02 a 1.744,1.744 0 0 1 -2.11,0 z m 13.652,-9.196 c 0.276,0.265 0.425,0.636 0.408,1.019 v 7.137 c 0.028,0.389 -0.131,0.767 -0.428,1.02 a 1.58,1.58 0 0 1 -1.08,0.377 1.397,1.397 0 0 1 -1.02,-0.357 1.254,1.254 0 0 1 -0.378,-0.938 v -0.194 a 2.998,2.998 0 0 1 -1.162,1.132 3.997,3.997 0 0 1 -4.364,-0.612 4.517,4.517 0 0 1 -0.887,-3.059 V 55.1 c -0.02,-0.381 0.124,-0.753 0.398,-1.02 a 1.57,1.57 0 0 1 1.09,-0.367 c 0.392,-0.024 0.777,0.108 1.071,0.367 0.273,0.267 0.418,0.639 0.398,1.02 v 4.578 c -0.032,0.45 0.094,0.897 0.357,1.264 0.292,0.293 0.699,0.442 1.111,0.408 0.53,0.02 1.042,-0.196 1.397,-0.591 0.372,-0.424 0.566,-0.976 0.54,-1.54 V 55.14 c -0.023,-0.38 0.118,-0.751 0.388,-1.02 a 1.53,1.53 0 0 1 1.08,-0.367 1.54,1.54 0 0 1 1.081,0.326 z m 4.242,9.39 a 4.792,4.792 0 0 1 -1.55,-0.622 1.234,1.234 0 0 1 -0.449,-0.47 1.427,1.427 0 0 1 -0.153,-0.672 1.08,1.08 0 0 1 0.255,-0.744 0.775,0.775 0 0 1 0.622,-0.306 c 0.174,0 0.347,0.032 0.51,0.091 0.18,0.059 0.358,0.127 0.53,0.204 0.33,0.156 0.672,0.289 1.02,0.398 0.43,0.107 0.872,0.155 1.315,0.143 0.352,0.012 0.702,-0.061 1.02,-0.214 a 0.653,0.653 0 0 0 0.387,-0.582 0.571,0.571 0 0 0 -0.173,-0.438 1.458,1.458 0 0 0 -0.612,-0.306 16.441,16.441 0 0 0 -1.427,-0.336 5.373,5.373 0 0 1 -2.508,-1.02 2.325,2.325 0 0 1 -0.765,-1.856 2.539,2.539 0 0 1 0.54,-1.58 3.589,3.589 0 0 1 1.479,-1.111 5.404,5.404 0 0 1 2.11,-0.398 c 0.558,0 1.113,0.072 1.652,0.214 0.502,0.132 0.983,0.334 1.427,0.602 0.387,0.23 0.617,0.652 0.602,1.1 0.011,0.285 -0.08,0.563 -0.255,0.786 a 0.775,0.775 0 0 1 -0.622,0.306 2.274,2.274 0 0 1 -1.08,-0.347 6.2,6.2 0 0 0 -0.888,-0.387 3.242,3.242 0 0 0 -0.948,-0.123 1.733,1.733 0 0 0 -0.958,0.225 0.693,0.693 0 0 0 0.061,1.244 6.25,6.25 0 0 0 1.58,0.428 c 0.701,0.124 1.386,0.33 2.04,0.612 0.436,0.198 0.807,0.516 1.07,0.917 a 2.804,2.804 0 0 1 -0.816,3.6 5.098,5.098 0 0 1 -3.058,0.815 9.462,9.462 0 0 1 -1.958,-0.173 z m 8.218,-11.705 a 1.366,1.366 0 0 1 -0.449,-1.091 c -0.01,-0.39 0.155,-0.764 0.449,-1.02 a 2.04,2.04 0 0 1 2.447,0 c 0.3,0.253 0.473,0.627 0.469,1.02 0.02,0.414 -0.15,0.815 -0.459,1.09 a 2.1,2.1 0 0 1 -2.457,0 z m 0.194,11.511 a 1.264,1.264 0 0 1 -0.418,-1.02 V 55.12 a 1.264,1.264 0 0 1 0.428,-1.02 c 0.29,-0.228 0.65,-0.35 1.02,-0.346 a 1.57,1.57 0 0 1 1.019,0.347 c 0.288,0.258 0.442,0.633 0.418,1.02 v 7.136 c 0.024,0.386 -0.13,0.762 -0.418,1.02 a 1.744,1.744 0 0 1 -2.11,0 h 0.06 z m 6.709,-0.224 a 4.323,4.323 0 0 1 -1.785,-1.744 5.965,5.965 0 0 1 0,-5.302 4.364,4.364 0 0 1 1.785,-1.733 6.28,6.28 0 0 1 5.363,0 c 0.75,0.392 1.37,0.995 1.784,1.733 a 5.965,5.965 0 0 1 0,5.302 4.323,4.323 0 0 1 -1.784,1.744 6.179,6.179 0 0 1 -5.363,0 z m 4.833,-4.395 a 3.191,3.191 0 0 0 -0.561,-2.039 1.917,1.917 0 0 0 -1.59,-0.683 c -1.438,0 -2.152,0.918 -2.152,2.753 0,1.835 0.714,2.763 2.151,2.763 1.438,0 2.152,-0.948 2.152,-2.794 z m 13.326,-3.977 a 4.66,4.66 0 0 1 0.836,3.06 v 4.516 c 0.022,0.382 -0.123,0.754 -0.398,1.02 a 1.56,1.56 0 0 1 -1.09,0.377 1.52,1.52 0 0 1 -1.071,-0.377 1.305,1.305 0 0 1 -0.388,-1.02 v -4.374 a 2.274,2.274 0 0 0 -0.367,-1.427 1.366,1.366 0 0 0 -1.121,-0.449 1.917,1.917 0 0 0 -1.479,0.592 c -0.389,0.423 -0.59,0.985 -0.56,1.56 v 4.078 c 0.02,0.38 -0.12,0.75 -0.388,1.02 a 1.733,1.733 0 0 1 -2.162,0 1.285,1.285 0 0 1 -0.407,-1.02 V 55.1 a 1.224,1.224 0 0 1 0.428,-1.02 1.58,1.58 0 0 1 1.08,-0.367 c 0.375,-0.022 0.742,0.106 1.02,0.357 0.253,0.241 0.39,0.579 0.377,0.928 v 0.275 c 0.33,-0.507 0.787,-0.918 1.326,-1.193 a 3.966,3.966 0 0 1 1.825,-0.408 3.15,3.15 0 0 1 2.539,1.01 z"
         fill="#000638"
         id="path18" />
      <path
         d="m 132.686,36.94 a 6.913,6.913 0 0 0 -1.957,0.295 6.658,6.658 0 0 0 1.957,13.03 c 0.664,0.002 1.324,-0.098 1.958,-0.295 a 6.668,6.668 0 0 0 -1.958,-13.03"
         fill="#7fb4ed"
         id="path20" />
      <path
         d="m 130.851,39.815 a 5.037,5.037 0 1 1 -6.301,-3.344 5.027,5.027 0 0 1 6.301,3.344 z"
         fill="#006adc"
         id="path22" />
      <path
         d="m 141.608,12.663 a 10.574,10.574 0 1 0 10.074,7.494 10.655,10.655 0 0 0 -10.074,-7.494"
         fill="#e5f0fb"
         id="path24" />
      <path
         d="m 151.906,18.607 a 4.374,4.374 0 0 0 -0.785,8.667 4.364,4.364 0 0 0 1.57,-8.585 4.19,4.19 0 0 0 -0.785,-0.082"
         fill="#3388e3"
         id="path26" />
      <path
         d="m 145.268,55.782 a 4.996,4.996 0 1 1 -6.24,-3.314 4.986,4.986 0 0 1 6.24,3.314 z"
         fill="#006adc"
         id="path28" />
      <path
         d="m 114.435,48.4 a 3.436,3.436 0 1 0 3.283,2.427 3.467,3.467 0 0 0 -3.283,-2.427"
         fill="#4c96e6"
         id="path30" />
      <path
         d="m 146.216,42.242 c -0.252,0.002 -0.502,0.04 -0.744,0.112 a 2.539,2.539 0 0 0 0.744,4.975 c 0.253,0.003 0.504,-0.035 0.745,-0.112 a 2.539,2.539 0 0 0 -0.745,-4.975"
         fill="#b2d2f4"
         id="path32" />
      <path
         d="m 118.87,22.533 a 5.68,5.68 0 0 0 0,11.358 5.68,5.68 0 1 0 0,-11.358"
         fill="#99c3f1"
         id="path34" />
    </g>
  </g>
</svg>
