<?xml version="1.0" encoding="utf-8"?>
<!-- Generator: Adobe Illustrator 16.0.0, SVG Export Plug-In . SVG Version: 6.00 Build 0)  -->
<!DOCTYPE svg PUBLIC "-//W3C//DTD SVG 1.1//EN" "http://www.w3.org/Graphics/SVG/1.1/DTD/svg11.dtd">
<svg version="1.1" id="Calque_1" xmlns="http://www.w3.org/2000/svg" xmlns:xlink="http://www.w3.org/1999/xlink" x="0px" y="0px"
	 width="142.75px" height="114.75px" viewBox="0.5 -45.75 142.75 114.75" enable-background="new 0.5 -45.75 142.75 114.75"
	 xml:space="preserve">
<g>
	<g>
		<path fill="#1B2B66" d="M8.146,45.949c-4.282,0-6.423,2.577-6.423,7.735v13.788h2.705v-6.084h3.716
			c4.298,0,6.447-2.573,6.447-7.704C14.591,48.526,12.442,45.951,8.146,45.949z M11.182,57.099c-0.588,0.858-1.6,1.287-3.04,1.287
			H4.426v-4.701c0-1.575,0.233-2.721,0.702-3.421c0.57-0.873,1.574-1.314,3.016-1.314c1.439,0,2.454,0.441,3.042,1.314
			c0.466,0.702,0.703,1.843,0.703,3.421C11.888,55.239,11.649,56.375,11.182,57.099z"/>
		<polygon fill="#1B2B66" points="22.786,42.215 27.103,44.66 28.32,43.008 22.784,39.863 17.246,43.008 18.468,44.66 		"/>
		<path fill="#1B2B66" d="M22.913,45.951c-4.298,0-6.445,2.575-6.445,7.733c0,5.13,2.147,7.704,6.445,7.704
			c4.28,0,6.421-2.574,6.421-7.704C29.334,48.526,27.196,45.951,22.913,45.951z M25.911,57.102
			c-0.567,0.855-1.564,1.284-2.995,1.284c-1.429,0-2.438-0.429-3.021-1.284c-0.467-0.723-0.698-1.862-0.698-3.417
			c0-1.575,0.23-2.721,0.698-3.421c0.583-0.873,1.593-1.314,3.021-1.314c1.431,0,2.428,0.441,2.995,1.314
			c0.462,0.702,0.696,1.843,0.696,3.421C26.606,55.261,26.372,56.399,25.911,57.102z"/>
		<path fill="#1B2B66" d="M38.428,58.383c-1.679,0-2.839-0.262-3.481-0.791c-0.485-0.382-0.727-0.983-0.727-1.771V39.863h-2.705
			v15.929c0,3.731,2.305,5.597,6.916,5.597v-0.004h-0.003V58.383z"/>
		<path fill="#1B2B66" d="M93.281,45.951c-2.283,0-3.975,0.778-5.068,2.331c-1.109-1.555-2.805-2.331-5.097-2.331
			c-4.277,0-6.42,2.575-6.42,7.733v7.704h2.702v-7.727c0-1.568,0.239-2.706,0.702-3.408c0.571-0.868,1.575-1.309,3.013-1.309
			c1.443,0,2.456,0.44,3.044,1.309c0.471,0.702,0.704,1.84,0.704,3.408v7.727h2.7v-7.727c0-1.568,0.236-2.706,0.709-3.408
			c0.573-0.868,1.573-1.309,3.012-1.309c1.443,0,2.455,0.44,3.045,1.309c0.467,0.702,0.709,1.84,0.709,3.408v7.727h2.696v-7.704
			C99.729,48.526,97.584,45.951,93.281,45.951z"/>
		<path fill="#1B2B66" d="M108.338,45.949c-4.281,0-6.421,2.577-6.421,7.735v13.788h2.7v-6.084h3.721
			c4.298,0,6.444-2.573,6.444-7.704C114.782,48.526,112.636,45.951,108.338,45.949z M111.378,57.099
			c-0.591,0.858-1.6,1.287-3.04,1.287h-3.721v-4.701c0-1.575,0.236-2.721,0.704-3.421c0.568-0.873,1.578-1.314,3.014-1.314
			c1.441,0,2.455,0.441,3.043,1.314c0.467,0.702,0.701,1.843,0.701,3.421C112.079,55.239,111.845,56.375,111.378,57.099z"/>
		<path fill="#1B2B66" d="M119.468,55.821V39.866h-2.708v15.928c0,3.732,2.303,5.598,6.911,5.598h0.002v-3.006
			c-1.678,0-2.844-0.261-3.481-0.789C119.708,57.21,119.468,56.61,119.468,55.821z"/>
		<path fill="#1B2B66" d="M130.897,45.951c-4.298,0-6.443,2.575-6.443,7.733c0,5.13,2.146,7.704,6.443,7.704
			c4.288,0,6.425-2.574,6.425-7.704C137.322,48.526,135.186,45.951,130.897,45.951z M133.918,57.102
			c-0.572,0.855-1.575,1.284-3.018,1.284c-1.434,0-2.438-0.429-3.016-1.284c-0.464-0.702-0.699-1.841-0.699-3.417
			c0-1.575,0.235-2.721,0.699-3.421c0.577-0.873,1.579-1.314,3.016-1.314c1.44,0,2.445,0.441,3.018,1.314
			c0.467,0.702,0.704,1.843,0.704,3.421C134.622,55.261,134.385,56.399,133.918,57.102z"/>
		<rect x="139.322" y="39.863" fill="#1B2B66" width="2.705" height="2.998"/>
		<rect x="139.322" y="45.951" fill="#1B2B66" width="2.705" height="15.438"/>
		<path fill="#1B2B66" d="M45.831,45.951c-3.908,0-6.466,2.859-6.466,7.79c0,5.805,3.038,7.821,6.859,7.821
			c2.679,0,4.152-0.806,5.715-2.378l-1.958-1.831c-1.078,1.087-1.983,1.567-3.699,1.567c-2.5,0-3.882-1.656-3.882-4.275h9.904
			v-1.356C52.304,48.952,49.926,45.951,45.831,45.951z M42.403,52.509c0.029-0.933,0.09-1.384,0.388-2.078
			c0.485-1.141,1.596-1.925,3.04-1.925c1.44,0,2.527,0.784,3.006,1.925c0.307,0.693,0.392,1.146,0.426,2.078H42.403z"/>
		<path fill="#1B2B66" d="M68.068,45.949c-3.91,0-6.47,2.861-6.47,7.797c0,5.8,3.04,7.816,6.859,7.816
			c2.675,0,4.151-0.806,5.716-2.378l-1.956-1.831c-1.085,1.087-1.987,1.567-3.701,1.567c-2.502,0-3.884-1.656-3.884-4.275v-0.004
			h9.903v-1.353C74.538,48.952,72.16,45.949,68.068,45.949z M64.634,52.509c0.032-0.933,0.091-1.384,0.39-2.078
			c0.488-1.141,1.597-1.925,3.042-1.925c1.443,0,2.525,0.784,3.006,1.925c0.3,0.693,0.393,1.146,0.422,2.078H64.634z"/>
	</g>
	<g>
		<path fill="#1B2B66" d="M71.907,10.191c-4.22-4.348-6.349-10.215-6.354-17.776c0-3.55,0.529-6.829,1.577-9.847
			c1.047-3.014,2.57-5.579,4.565-7.717c1.988-2.135,4.433-3.771,7.37-4.919c2.932-1.143,6.19-1.724,9.797-1.724
			c3.733,0.002,7.001,0.632,9.851,1.863c-6.711-8.682-17.192-14.294-29.013-14.294c-20.261,0-36.687,16.424-36.687,36.686
			c0,20.261,16.425,36.684,36.687,36.684c11.505,0,21.765-5.307,28.49-13.593c-2.45,0.763-5.253,1.161-8.427,1.159
			C82.016,16.702,76.125,14.516,71.907,10.191z"/>
		<path fill="#1B2B66" d="M101.348-5.209H78.079c-0.77,0-1.433,0.521-1.402,1.39c0.11,2.606,0.683,4.961,1.743,7.016
			c1.139,2.229,2.686,3.949,4.623,5.089c1.92,1.146,4.058,1.722,6.36,1.722c1.522,0,2.93-0.179,4.217-0.542
			c1.283-0.367,2.523-0.936,3.717-1.709c1.161-0.737,2.238-1.551,3.222-2.412c0.97-0.853,2.854-2.613,3.505-3.208
			c0.292-0.273,0.688-0.493,1.154-0.642h-0.002c0.593-2.323,0.953-4.731,1.074-7.208C104.933-5.386,103.287-5.209,101.348-5.209z"/>
		<path fill="#1B2B66" d="M88.462-24.7c-3.216-0.006-5.962,1.146-8.044,3.398c-2.011,2.161-3.206,5.259-3.684,9.205
			c-0.117,0.745,0.631,1.351,1.388,1.355h20.752c0.727,0,1.434-0.589,1.387-1.266c-0.36-4.039-1.502-7.187-3.533-9.345
			C94.635-23.58,91.814-24.706,88.462-24.7z"/>
		<path fill="#1B2B66" d="M107.07,1.326c-0.179-0.018-0.36-0.03-0.557-0.03c-0.466,0-0.878,0.077-1.253,0.192
			c-1.319,5.211-3.751,9.974-7.035,14.032c0.09-0.026,0.181-0.047,0.269-0.075c4.605-1.618,9.79-6.212,10.673-10.543
			C109.742,2.069,108.008,1.458,107.07,1.326z"/>
		<path fill="#1B2B66" d="M100.827-28.875c-0.643-0.379-1.336-0.693-2.03-0.999c4.752,6.188,7.585,13.93,7.585,22.336
			c0,0.591-0.015,1.19-0.043,1.779c0.804-0.201,1.541-0.439,2.134-0.748c1.437-0.741,2.25-2.382,2.263-5.358
			c0-3.205-0.815-6.341-2.474-9.452C106.618-24.398,104.159-26.91,100.827-28.875z"/>
	</g>
</g>
</svg>
