<?xml version="1.0" encoding="UTF-8" standalone="no"?>
<svg
   data-svgdocument=""
   id="_u3rYugtTdbOIixfmeLH_9"
   class="fl-svgdocument"
   x="0"
   y="0"
   overflow="hidden"
   data-bbox="56.02673814795418 167.58857282157794 399.9465237040917 100.24371771145013"
   viewBox="48.7 205.95 103.91497 100.10696"
   version="1.1"
   sodipodi:docname="logo_rdv-insertion.svg"
   width="103.91497"
   height="100.10696"
   inkscape:version="1.2.2 (b0a8486541, 2022-12-01)"
   xmlns:inkscape="http://www.inkscape.org/namespaces/inkscape"
   xmlns:sodipodi="http://sodipodi.sourceforge.net/DTD/sodipodi-0.dtd"
   xmlns="http://www.w3.org/2000/svg"
   xmlns:svg="http://www.w3.org/2000/svg">
  <sodipodi:namedview
     id="namedview170"
     pagecolor="#ffffff"
     bordercolor="#000000"
     borderopacity="0.25"
     inkscape:showpageshadow="2"
     inkscape:pageopacity="0.0"
     inkscape:pagecheckerboard="0"
     inkscape:deskcolor="#d1d1d1"
     showgrid="false"
     showguides="false"
     inkscape:zoom="3.2731132"
     inkscape:cx="156.57876"
     inkscape:cy="50.105202"
     inkscape:window-width="1920"
     inkscape:window-height="1011"
     inkscape:window-x="1920"
     inkscape:window-y="32"
     inkscape:window-maximized="1"
     inkscape:current-layer="_u3rYugtTdbOIixfmeLH_9" />
  <defs
     id="_TalAbqNc3W0CmzKFmhq4c"
     transform="matrix(0.9291672110557556, 0, 0, 0.9291672110557556, 21.60029411315918, 18.506458282470703)" />
  <g
     id="_yhKftlJO5k3FGe_HqkKAW"
     transform="matrix(0.7561948,0,0,0.72848364,-116.6621,69.804243)">
    <path
       id="_6y6w9qskfNP9aZBePAvix"
       fill="#083b66"
       transform="matrix(0.46424267,-0.31314623,0.31314623,0.46424267,218.68262,242.23972)"
       data-type="rect"
       data-x="-0.013"
       data-y="0"
       data-width="176.769"
       data-height="176.769"
       d="M -0.013,0 H 176.756 V 176.769 H -0.013 Z" />
    <path
       id="_x1G6V-Hsr1jq7qBPtG3DG"
       d="m 11.476,66.845 c -1.025,0 -1.898,-0.783 -1.99,-1.824 -0.04,-0.45 -0.095,-0.914 -0.149,-1.387 -0.277,-2.371 -0.623,-5.322 0.688,-8.052 1.57,-3.272 5.917,-3.191 8.238,-2.626 1.074,0.261 1.732,1.342 1.472,2.415 -0.26,1.072 -1.34,1.727 -2.409,1.474 -1.055,-0.25 -3.291,-0.372 -3.695,0.469 -0.809,1.685 -0.561,3.805 -0.32,5.855 0.06,0.512 0.118,1.013 0.161,1.5 0.098,1.1 -0.716,2.07 -1.816,2.168 -0.062,0.005 -0.122,0.008 -0.18,0.008 z"
       fill="#ffffff"
       transform="matrix(1.2331512,0,0,1.2331512,226.48904,194.92766)" />
    <path
       id="_88dj5PyOrhbmGkKPu85Rz"
       d="m 18.598,63.696 c -1.026,0 -1.899,-0.785 -1.99,-1.826 -0.04,-0.453 -0.095,-0.921 -0.15,-1.397 -0.276,-2.367 -0.62,-5.313 0.689,-8.04 1.572,-3.269 5.919,-3.189 8.238,-2.627 1.073,0.26 1.733,1.341 1.473,2.414 -0.259,1.071 -1.335,1.728 -2.409,1.475 -1.053,-0.248 -3.293,-0.37 -3.696,0.472 -0.808,1.681 -0.561,3.797 -0.321,5.843 0.06,0.517 0.118,1.022 0.161,1.514 0.097,1.101 -0.718,2.07 -1.818,2.166 -0.06,0.004 -0.12,0.006 -0.177,0.006 z"
       fill="#ffffff"
       transform="matrix(1.2331512,0,0,1.2331512,226.48973,194.92676)" />
    <path
       id="_9zBy5JYkTvaUmxi2mVirs"
       d="m 38.22,75.45 c -0.929,0 -1.762,-0.65 -1.957,-1.596 -0.477,-2.311 -7.649,-34.64 -8.795,-39.804 -0.19,-0.046 -0.497,-0.075 -0.94,-0.021 -0.259,0.031 -0.602,0.532 -0.796,0.945 0.263,2.861 1.684,18.308 2.343,23.794 0.132,1.097 -0.65,2.092 -1.747,2.224 -1.085,0.131 -2.092,-0.649 -2.224,-1.747 -0.731,-6.082 -2.381,-24.184 -2.397,-24.365 -0.022,-0.256 0.003,-0.513 0.077,-0.758 0.113,-0.377 1.197,-3.695 4.27,-4.064 3.552,-0.425 4.826,1.654 4.959,1.893 0.096,0.17 0.165,0.353 0.207,0.543 0.345,1.552 8.44,38.025 8.962,40.553 0.223,1.082 -0.473,2.14 -1.555,2.363 -0.138,0.028 -0.273,0.04 -0.407,0.04 z"
       fill="#ffffff"
       transform="matrix(1.2331512,0,0,1.2331512,226.37238,195.08717)" />
    <path
       id="_9IXZ23jXr_jGdKbKtA1CV"
       d="m 36.462,94.681 c -0.747,0 -1.465,-0.421 -1.808,-1.142 -0.474,-0.997 -0.05,-2.19 0.948,-2.665 2.774,-1.318 4.439,-4.622 4.837,-6.394 0.07,-0.318 0.119,-0.635 0.17,-0.956 0.267,-1.694 0.598,-3.803 3.318,-7.169 3.45,-4.269 6.869,-5.123 8.512,-5.534 1.149,-0.289 2.416,0.01 3.642,0.298 0.293,0.069 0.693,0.163 1.045,0.229 -0.064,-0.514 -0.418,-1.048 -1.471,-1.977 -1.757,-1.551 -6.261,-0.682 -8.471,0.573 -5.374,3.054 -8.939,1.729 -10.985,0.079 -0.859,-0.693 -0.994,-1.953 -0.301,-2.812 0.694,-0.86 1.952,-0.993 2.812,-0.301 1.567,1.266 3.755,1.116 6.497,-0.443 2.516,-1.431 9.309,-3.438 13.094,-0.095 2.06,1.815 3.3,3.643 2.656,6.66 -0.173,0.81 -0.618,1.463 -1.289,1.888 -1.323,0.84 -2.939,0.461 -4.503,0.094 -0.554,-0.131 -1.481,-0.353 -1.78,-0.307 -1.383,0.347 -3.738,0.936 -6.347,4.162 -2.047,2.533 -2.257,3.865 -2.479,5.276 -0.063,0.405 -0.128,0.802 -0.218,1.207 -0.701,3.126 -3.197,7.316 -7.023,9.135 -0.276,0.132 -0.568,0.194 -0.856,0.194 z"
       fill="#ffffff"
       transform="matrix(1.2331512,0,0,1.2331512,226.46092,194.89192)" />
    <path
       id="_-y56rPu53oofsph_5kt5p"
       d="m 85.429,46.693 c -0.952,0 -1.852,-0.127 -2.562,-0.3 -1.074,-0.261 -1.732,-1.342 -1.472,-2.415 0.26,-1.071 1.34,-1.728 2.409,-1.474 1.053,0.249 3.291,0.371 3.695,-0.469 0.809,-1.685 0.561,-3.805 0.32,-5.855 -0.06,-0.512 -0.118,-1.013 -0.161,-1.5 -0.098,-1.1 0.716,-2.07 1.816,-2.168 1.104,-0.089 2.071,0.716 2.168,1.816 0.04,0.45 0.095,0.914 0.149,1.387 0.277,2.371 0.623,5.322 -0.688,8.052 -1.087,2.271 -3.515,2.926 -5.674,2.926 z"
       fill="#ffffff"
       transform="matrix(1.2331512,0,0,1.2331512,226.75165,195.1888)" />
    <path
       id="_WXZqcyn8m42I2UIskguQh"
       d="m 78.299,49.843 c -0.949,0 -1.847,-0.127 -2.555,-0.299 -1.073,-0.26 -1.733,-1.341 -1.473,-2.414 0.259,-1.071 1.335,-1.729 2.409,-1.475 1.053,0.248 3.294,0.369 3.696,-0.472 0.808,-1.681 0.561,-3.797 0.321,-5.843 -0.06,-0.517 -0.118,-1.022 -0.161,-1.514 -0.097,-1.101 0.718,-2.07 1.818,-2.166 1.097,-0.112 2.07,0.719 2.166,1.818 0.04,0.453 0.095,0.921 0.15,1.397 0.276,2.367 0.62,5.313 -0.689,8.04 -1.09,2.273 -3.522,2.928 -5.682,2.928 z"
       fill="#ffffff"
       transform="matrix(1.2331512,0,0,1.2331512,226.48979,194.92943)" />
    <path
       id="_JKs9eDBk10ntuoRlGScD_"
       d="m 74.154,69.349 c -2.856,0 -3.916,-1.732 -4.037,-1.949 -0.096,-0.17 -0.165,-0.353 -0.207,-0.543 -0.345,-1.552 -8.44,-38.025 -8.962,-40.553 -0.223,-1.082 0.473,-2.14 1.555,-2.363 1.083,-0.227 2.14,0.474 2.363,1.555 0.477,2.311 7.649,34.64 8.795,39.804 0.19,0.046 0.497,0.075 0.94,0.021 0.259,-0.031 0.602,-0.532 0.796,-0.945 -0.263,-2.861 -1.684,-18.308 -2.343,-23.794 -0.132,-1.097 0.65,-2.092 1.747,-2.224 1.093,-0.13 2.092,0.65 2.224,1.747 0.731,6.082 2.381,24.184 2.397,24.365 0.022,0.256 -0.003,0.513 -0.077,0.758 -0.113,0.377 -1.197,3.695 -4.27,4.064 -0.325,0.039 -0.632,0.057 -0.921,0.057 z"
       fill="#ffffff"
       transform="matrix(1.2331512,0,0,1.2331512,226.37274,195.08804)" />
    <path
       id="_eaqEJLqxmAiupka-qJKo7"
       d="m 48.375,34.801 c -2.021,0 -4.026,-0.479 -5.548,-1.823 -2.06,-1.815 -3.3,-3.643 -2.656,-6.66 0.173,-0.81 0.618,-1.463 1.289,-1.888 1.323,-0.839 2.939,-0.461 4.503,-0.094 0.553,0.131 1.484,0.354 1.78,0.307 1.383,-0.347 3.738,-0.936 6.347,-4.162 2.047,-2.533 2.257,-3.865 2.479,-5.276 0.063,-0.405 0.128,-0.802 0.218,-1.207 0.701,-3.126 3.197,-7.316 7.023,-9.135 0.996,-0.473 2.19,-0.051 2.665,0.948 0.474,0.997 0.05,2.19 -0.948,2.665 -2.774,1.318 -4.439,4.622 -4.837,6.394 -0.07,0.318 -0.119,0.635 -0.17,0.956 -0.267,1.694 -0.598,3.803 -3.318,7.169 -3.45,4.269 -6.869,5.123 -8.512,5.534 -1.15,0.288 -2.416,-0.01 -3.642,-0.298 -0.293,-0.069 -0.693,-0.163 -1.045,-0.229 0.064,0.514 0.418,1.048 1.471,1.977 1.759,1.551 6.262,0.684 8.471,-0.573 5.375,-3.054 8.939,-1.729 10.985,-0.079 0.859,0.693 0.994,1.953 0.301,2.812 -0.695,0.861 -1.952,0.992 -2.812,0.301 -1.566,-1.266 -3.755,-1.115 -6.497,0.443 -1.506,0.855 -4.541,1.918 -7.547,1.918 z"
       fill="#ffffff"
       transform="matrix(1.2331512,0,0,1.2331512,226.46223,194.89119)" />
    <path
       id="_gaNJvBAefjbOp1k_C3Jxf"
       d="M 93.308,14.563 H 91.715 91.61 V 11.476 H 90.221 88.63 88.524 V 11.371 8.969 8.391 h -1.39 -1.591 -0.105 V 8.284 6.392 5.305 H 57.769 v 1.509 1.471 0.106 h -3.087 v 1.49 1.49 0.105 h -3.085 v 1.779 1.201 0.106 H 50.336 48.51 48.405 V 11.475 H 47.547 45.425 45.319 V 11.37 10.97 8.39 H 42.233 V 8.305 h 0.002 l 0.009,-2.98 h -27.66 l -0.02,3.066 h -0.106 -1.489 -1.49 v 3.084 H 8.375 v 2.362 0.616 0.11 H 8.284 6.161 5.305 v 3.085 2.98 0.106 2.98 0.106 2.979 0.106 2.979 0.106 2.979 0.106 2.98 0.105 2.98 0.106 2.979 0.105 2.979 0.107 2.98 0.102 2.98 h 1.264 v 0.004 h 1.822 v 0.104 0.548 2.43 h 3.086 v 0.004 0.107 2.98 h 3.086 v 0.105 2.979 h 3.086 v 0.105 0.556 0.397 2.037 h 3.087 v 0.106 0.547 2.432 h 3.085 v 0.104 1.063 1.917 h 3.087 v 0.109 1.061 1.92 h 3.086 v 0.104 1.062 1.915 h 3.087 v 0.005 0.106 1.059 1.922 h 3.085 v 0.104 1.061 1.921 h 3.086 v 0.104 1.061 1.921 h 3.087 v 0.105 1.06 1.921 h 3.086 v 0.105 1.06 1.921 h 3.086 v 3.085 H 51.49 V 91.61 h 0.107 1.805 1.175 v -0.95 -2.03 -0.105 h 3.086 V 87.578 85.545 85.44 h 3.085 v -1.12 -1.861 -0.104 h 3.087 v -1.491 -1.49 -0.104 h 3.086 v -1.49 -1.49 -0.111 h 3.087 v -1.921 -1.057 -0.104 h 3.085 v -1.709 -1.271 -0.109 h 3.088 V 68.766 67.028 66.92 h 3.085 v -1.489 -1.489 -0.106 h 3.087 v -1.49 -1.49 -0.105 h 3.086 V 59.905 57.77 57.665 h 3.086 v -0.523 -2.457 -0.111 h 3.086 V 53.69 51.596 51.492 h 1.166 v -0.004 h 1.92 V 48.508 48.406 45.426 45.319 42.34 42.235 39.256 39.15 36.17 36.065 33.085 32.979 30 29.894 26.915 26.809 23.83 23.724 20.744 20.638 17.658 14.573 H 93.308 Z M 26.8,11.371 h -9.258 v 0.019 3.067 h -3.086 v 0.02 3.066 H 11.37 V 29.888 H 8.284 v -12.326 -0.02 h 0.857 v -0.004 h 2.213 v 0.004 h 0.016 v -3.069 h -0.016 v -0.021 h 0.122 v 0.004 h 2.979 V 11.39 11.371 h 3.086 V 8.305 H 26.8 Z"
       fill="#ec4c4c"
       transform="matrix(0.3571043,0,0,0.3571043,269.30447,237.75626)" />
  </g>
</svg>
