<svg xmlns="http://www.w3.org/2000/svg" width="1023.83" height="130"><defs><clipPath id="clip-path"><path class="cls-1" d="M0 0h245.8v130H0z"/></clipPath><clipPath id="clip-path-2"><path class="cls-1" d="M0 0h690.3v130H0z"/></clipPath><style>.cls-1{fill:none}.cls-8{fill:#373c42}</style></defs><g clip-path="url(#clip-path)"><g clip-path="url(#clip-path-2)"><path d="M0 0h244.6v74.6H0z" fill="#fff"/><path d="M195.3 129.9c-.1 0-.1-.2 0-.5s.2-.4.8-.3.6 0 .8-.3c.4-.5.1-.9-.6-.8s-.6.1-.5-.3c.3-1.2.4-1.2-.6-1.3a6.19 6.19 0 01-3.3-1.7 5.83 5.83 0 01-1.7-4.9 5.19 5.19 0 01.6-2.3c1.2-2.4 3.9-3.6 7.6-3.4a10.58 10.58 0 012.2.3l.8.2.1 2.6h-.5c-.3 0-.5-.1-.5-.2 0-.4-1-1.2-1.7-1.5a6.93 6.93 0 00-3.5.1c-2 .9-2.9 3.1-2.3 5.7a5 5 0 001.6 2.8 3.77 3.77 0 002.9 1.1 3.16 3.16 0 002.9-1.5c.4-.7.5-.8.9-.5.2.1.2.3 0 1.4l-.2 1.3-.7.2a9.43 9.43 0 01-2 .3c-1.3.1-1.3.1-1.3.4s.1.3.4.3a1.21 1.21 0 011.1.8 1.77 1.77 0 01-.9 1.7 5.13 5.13 0 01-2.4.3zm-94.6-.6a12.14 12.14 0 01-4-1.9l-1.2-.8-1.9-.1a6.56 6.56 0 01-4.2-1.2c-3-2-3.1-7.1-.2-9.6 2.2-1.9 6.1-2.2 8.8-.9 3.8 1.8 4.2 7.3.7 10.1a6.35 6.35 0 01-1.1.8 31.27 31.27 0 004.5 2.2 5.58 5.58 0 003.6.1c.8-.2.9-.2 1 .2s-.1.4-.8.7c-1.1.7-3.6.8-5.2.4zm-4.7-4.4c2.7-1.3 3.2-5.3 1-7.8a4.08 4.08 0 00-6.9.7c-1.2 2.5.2 6.3 2.6 7.3a4.68 4.68 0 003.3-.2zm-83.5 1.5c-.7-.3-1.5-1.2-2.8-3.1-1.9-3-2.3-3.4-2.9-3.4h-.5v1.6c0 2.9.3 4 1.4 4.2.3.1.4.2.4.4v.4H1.6v-.3c0-.2.1-.4.5-.5a1.58 1.58 0 00.8-.5c.3-.4.3-.5.3-6s0-5.6-.3-6a1.77 1.77 0 00-.8-.5c-.4-.1-.5-.2-.5-.4s0-.3 4-.4c4.3-.1 5.2 0 6.4.5a3.62 3.62 0 011.9 3.1 4.16 4.16 0 01-2.7 3.6l-.8.4 1.8 2.4c2.1 2.8 2.7 3.5 3.3 3.8s.6.8.1 1a14.82 14.82 0 01-3.1-.3zm-4-8a2.66 2.66 0 001.2-4.6 3.15 3.15 0 00-2.6-.8l-.8.1v5.4h.8a6.6 6.6 0 001.4-.1zm36.6 8a4.73 4.73 0 01-2.1-1.3c-.8-.9-.9-1.4-.9-5.2 0-4-.1-4.4-.9-4.8-.3-.1-.5-.3-.5-.5s.1-.3 2.7-.3 2.7 0 2.7.3a.27.27 0 01-.3.3 1.27 1.27 0 00-.7.4l-.4.4v3.9c0 3.7 0 3.9.3 4.5a2.83 2.83 0 002.7 1.2 2.76 2.76 0 002.6-1.5c.4-.8.4-.8.4-4.3 0-3.1 0-3.6-.3-3.9a3 3 0 00-.7-.5c-.3-.1-.4-.2-.4-.4s.1-.3 2.1-.3 2.1 0 2.1.3-.1.3-.4.4c-.7.2-.8.5-.9 4.6l-.1 3.9-.5.8a4.26 4.26 0 01-2.7 2 12.1 12.1 0 01-3.8 0zm62 0a4.73 4.73 0 01-2.1-1.3c-.8-.9-.9-1.5-.9-5.3s-.1-4.3-.9-4.7c-.3-.1-.5-.3-.5-.5s.1-.3 2.7-.3 2.7 0 2.7.3-.1.3-.3.4a1 1 0 00-.7.5c-.3.4-.3.6-.4 3.8-.1 3.9.1 4.7.8 5.3 1.3 1.2 4 .9 4.8-.6.5-.9.6-2.1.6-5.1-.1-3.2-.2-3.6-1-3.8-.3-.1-.4-.2-.4-.4s.1-.3 2.1-.3 2.2 0 2.2.3-.2.3-.5.4a1.54 1.54 0 00-.6.4 24.74 24.74 0 00-.2 4.1l-.1 3.9-.5.8a4.26 4.26 0 01-2.7 2 8.2 8.2 0 01-4.1.1zm50.4 0a8.46 8.46 0 01-2.6-2.9c-1.5-2.3-1.7-2.5-2.1-2.5s-.4 0-.4 1.8c0 2.1.2 2.8.9 2.9.4.1.5.2.5.4v.3h-5.4v-.3c0-.3.1-.4.5-.4.9-.2 1-.6.9-5.5v-4.4l-.4-.4a1.27 1.27 0 00-.7-.4.27.27 0 01-.3-.3c0-.2.2-.3 1.2-.4.6-.1 2.4-.1 3.9-.1 2.5 0 2.8.1 3.4.4a2.76 2.76 0 011.6 2.7 3.24 3.24 0 01-2.1 2.9c-.4.2-.7.4-.6.5a24.46 24.46 0 011.6 2c1.5 2.1 2.3 3 2.7 3s.3.7 0 .8a11.54 11.54 0 01-2.6-.1zm-3-6.8a2.73 2.73 0 001.4-1.6 2.38 2.38 0 00-.8-2.2 2.28 2.28 0 00-2-.5l-.6.1v4.4h.8a3.73 3.73 0 001.2-.2zm70.8 6.7c-.5-.1-.9-.2-.9-.3a12.08 12.08 0 01-.3-1.4l-.2-1.4h.4a1 1 0 01.4.1 3.25 3.25 0 001.6 1.7c1.6.7 3.6 0 3.6-1.2 0-.8-.4-1.3-2-2.2-2.1-1.2-3-1.9-3.4-2.6a4.13 4.13 0 01-.2-2.9 4.26 4.26 0 012.1-1.8 11.84 11.84 0 014.6 0l.8.3v2.6h-.5c-.4 0-.5-.1-.6-.4a2.83 2.83 0 00-1.7-1.5c-1.9-.5-3.4 1.3-2.2 2.6a19.25 19.25 0 002.3 1.6c2 1.2 2.8 1.9 3 2.7a3.08 3.08 0 01-2.3 4 7.57 7.57 0 01-4.5.1zM17 126c0-.3.1-.3.4-.3a1.27 1.27 0 00.7-.4c.3-.4.3-.5.3-4.9a26.82 26.82 0 00-.2-4.8 1.2 1.2 0 00-1-.7c-.2 0-.3-.1-.3-.4v-.4h9.5v3H26a.63.63 0 01-.6-.5c-.3-.9-.8-1.1-2.7-1.1l-1.7-.1v4.1l1.3-.1c1.4-.1 2.1-.4 2.2-1 0-.2.2-.3.5-.3h.4v3.7H25c-.4 0-.4-.1-.4-.3 0-.6-.5-.9-2.1-.9l-1.4-.1v2c0 2.4 0 2.5 1.8 2.5s2.7-.4 3.2-1.4c.2-.5.8-.6 1-.2a5.6 5.6 0 01-.7 2.5l-.2.4H17v-.3zm12.2.1c0-.3.1-.4.5-.4.8-.2.9-.4.9-5 .1-4.8 0-5.2-.9-5.6-.4-.2-.5-.3-.5-.6v-.3l3.6.1c3.9.1 4.2.1 5.3.9a3.08 3.08 0 01.7 4c-.7 1.2-1.9 1.8-3.8 1.9l-1 .1-.2-.5-.3-.5.6-.1a3.81 3.81 0 002-1 1.92 1.92 0 00.3-1.2c0-1.4-.9-2.2-2.4-2.4l-.9-.1v4.8c.1 5.2.1 5.4 1 5.5.3.1.4.2.4.4v.3h-5.4l.1-.3zm26.4-.1a.27.27 0 01.3-.3 1.08 1.08 0 00.7-.3l.4-.3v-4.4c.1-5 0-5.4-.9-5.7-.3-.1-.5-.3-.5-.4s.2-.3 2.4-.3c4.6-.1 5.6 0 6.4.3a2.16 2.16 0 011.5 2.1v1.2a3 3 0 01-1.7 1.6l-.8.3.6.2a3.15 3.15 0 012.3 3.4 3.2 3.2 0 01-2.2 2.7c-.8.3-1 .3-4.6.3h-3.8l-.1-.4zm7-1.1a2.09 2.09 0 001-2.2c-.1-1.5-1.3-2.4-3.1-2.4h-1v2.2c0 2.1.1 2.2.4 2.4a2.62 2.62 0 002.7 0zM62 119a1.73 1.73 0 001.4-1.9c-.1-1.1-1.1-1.7-2.8-1.7h-1v3.9h.8c.5-.1 1.2-.2 1.6-.3zm6.5 7c0-.2.1-.3.4-.4a1.2 1.2 0 00.8-.5c.3-.4.3-.6.3-4.8a24.87 24.87 0 00-.2-4.8c-.3-.4-.6-.7-1-.7a.27.27 0 01-.3-.3c0-.3 0-.3 2.9-.3s2.9 0 2.9.3a.27.27 0 01-.3.3 4.12 4.12 0 00-.8.3l-.4.4-.1 4.5v4.5l.4.2c.3.2.7.2 1.6.2 1.5-.1 2.2-.4 2.6-1.3.3-.6.6-.7 1-.5.1.1.1.4-.1 1.2a5.71 5.71 0 01-.6 1.5l-.3.3-4.4-.1-4.4-.1v.1zm11.1.1c0-.3.1-.4.5-.4.9-.2.9-.5.9-5.4 0-4 0-4.3-.3-4.7a1.87 1.87 0 00-.7-.6c-.3-.1-.4-.2-.4-.4s0-.3 2.7-.3 2.7 0 2.7.3-.1.3-.4.4a1.79 1.79 0 00-.7.5c-.3.4-.3.8-.3 4.8 0 4.9.1 5.3.9 5.4.3.1.4.2.4.4v.3h-5.4l.1-.3zm38 0c0-.2.1-.3.5-.4.9-.2.9-.5.9-5.4 0-4.2 0-4.3-.4-4.8a1 1 0 00-.7-.5c-.3 0-.3-.1-.3-.4v-.3h9.4v1.5c0 1.5 0 1.5-.4 1.5s-.4-.1-.5-.5c-.2-.8-.8-1.1-2.7-1.2l-1.6-.1-.1.7a11.52 11.52 0 00-.1 2v1.4l1.3-.1c1.5-.1 2.1-.3 2.2-.9.1-.3.2-.4.5-.4h.4v3.7h-.4c-.3 0-.4-.1-.4-.2 0-.7-.8-1-2.4-1h-1.3l.1 2c.1 2.4.1 2.4 2 2.4 1.7 0 2.6-.4 3-1.3.2-.5.4-.6.7-.6a.76.76 0 01.5.2 10.86 10.86 0 01-.8 2.8c-.2.2-1 .2-4.7.2h-4.5l-.2-.3zm17.5 0c0-.2.1-.4.5-.5a2.41 2.41 0 00.8-.6c.3-.4.3-.6.3-5.8 0-6.1 0-6.2-1.1-6.5-.4-.1-.6-.2-.6-.5v-.4h11.1v3.6h-.5c-.4 0-.5-.1-.5-.3a2 2 0 00-1.2-1.5 9.29 9.29 0 00-2.4-.3l-1.8-.1v4.9h1.3c1.8 0 2.3-.2 2.7-.9a.75.75 0 01.8-.5h.5v4.3l-.5-.1c-.4 0-.5-.1-.6-.3-.3-.8-1.2-1.2-3.2-1.2h-1l.1 2.5c.1 2.9.2 3.3 1.2 3.6.4.1.6.3.6.5v.3H135l.1-.2zm25.4 0c0-.3.1-.4.3-.4.5 0 1-.9 2.2-3.6 1.6-3.7 3.2-7.4 3.2-7.6s.2-.2.8-.2h.8l2.1 5c2.3 5.4 2.8 6.2 3.3 6.4a.66.66 0 01.4.5c0 .3 0 .3-2.7.3h-2.7v-.3c0-.3.1-.4.5-.4.7-.1.7-.5.2-2l-.5-1.2h-3.8l-.4 1c-.5 1.3-.5 2.1.1 2.2.3 0 .4.1.4.4v.4h-4.1l-.1-.5zm7.4-5.1a22.22 22.22 0 00-1.3-3.1c-.1 0-.2.3-.4.6l-.7 1.6-.4 1h1.3a4.57 4.57 0 001.5-.1zm6.8 5.1a.37.37 0 01.4-.4c.9-.2.9-.4 1-5 .1-4.8 0-5.2-.9-5.6-.3-.1-.5-.3-.5-.4s.2-.2 1.8-.2h1.8l1 1.2c.6.7 2 2.2 3.3 3.6.9.9 1.7 1.9 2.6 2.8l.4.4-.1-3.2c-.1-3.5-.1-3.9-1-4.1-.3-.1-.4-.2-.4-.4s.1-.3 2.1-.3 2.1 0 2.1.3-.1.3-.4.3a1 1 0 00-.7.5c-.3.4-.3.6-.4 5.7l-.1 5.3h-.7a1.22 1.22 0 01-1.2-.6c-.4-.5-7.2-8-7.4-8.3v3.5c.1 4 .2 4.5.9 4.6.4.1.5.2.5.4v.3h-4.3l.2-.4zm27.8 0c0-.2.1-.4.2-.4.3 0 .9-.7 1.3-1.5.6-1.2 3.3-7.5 3.8-8.8l.4-1.2 1.4.1 2.1 4.9c1.2 2.7 2.2 5.1 2.4 5.4.4.6.9 1.2 1.1 1.2s.2.2.2.4v.4H210v-.4c0-.2.1-.4.3-.4.8 0 .8-.6.3-2.2l-.4-1.1h-3.7l-.3 1c-.6 1.8-.6 2.3.1 2.3.2 0 .3.1.3.4v.4h-4.1v-.5zm6.8-6.4c-.3-.8-.6-1.6-.6-1.7s-.4.4-.8 1.4a15 15 0 00-.7 1.7c0 .1.6.1 1.3.1h1.3l-.5-1.5zm7.2 6.4c0-.3.1-.4.4-.4a1.08 1.08 0 00.7-.3c.3-.3.3-.6.3-4.8v-4.8a1.44 1.44 0 00-1.1-.9.27.27 0 01-.3-.3c0-.3 0-.3 2.7-.3s2.7 0 2.7.3-.2.4-.5.5a1.17 1.17 0 00-.6.6 39.1 39.1 0 00-.2 7.4c.1 1.7.2 2.1.4 2.3a.86.86 0 00.6.3c.2 0 .3.1.3.4v.4h-5.4v-.4zm17.8 0c0-.2.1-.3.4-.3a1.27 1.27 0 00.7-.4c.3-.4.3-.5.3-4.9a27.82 27.82 0 00-.2-4.8 1.2 1.2 0 00-1-.7c-.2 0-.3-.1-.3-.4v-.4h9.5v3h-.4a.63.63 0 01-.6-.5c-.3-.8-.8-1.1-2.7-1.1l-1.7-.1v4.1h1c1.4 0 2-.2 2.3-.8.2-.3.3-.5.6-.5h.4v3.7h-.4c-.4 0-.4-.1-.4-.3 0-.6-.5-.9-2.1-.9l-1.4-.1v2c0 2.4 0 2.5 1.8 2.5s2.7-.4 3.2-1.4c.2-.5.8-.6 1-.2a5.6 5.6 0 01-.7 2.5l-.2.4h-9.2l.1-.4zm-213-13.2l-.4-.3.9-1.3c.5-.7 1-1.3 1.2-1.3a8.69 8.69 0 012.2.4 28.76 28.76 0 01-3.4 2.7c0 .1-.3 0-.5-.2zM1.1 103h242.2v1.3H1.1V103zm92.2-2.9a2.34 2.34 0 01-1.8-2.6 2.31 2.31 0 011.5-1.7l.8-.3-.5-.2a.79.79 0 01-.5-.5c0-.3 1.2-1.3 1.5-1.3.1 0 0-.2-.2-.5a2.72 2.72 0 011.4-3.8c.8-.4 1.1-.4 4-.2 1.7.1 1.7.1 1.6.4a1 1 0 01-.1.4c0 .1-.3.1-.6.1h-.6l.1.8c.2 1.8-1.3 3.1-3.6 3.1-1.2 0-1.8.2-1.3.5.1.1.9.3 1.7.6 2.6.8 3.1 1.2 3 2.4s-1.3 2.4-2.9 2.9a8.17 8.17 0 01-3.5-.1zm3.5-.9c1.3-.6 1.8-1.7 1.1-2.3a6.93 6.93 0 00-3.1-.9c-1.1.2-2.1 1.4-1.9 2.3.3 1.2 2.2 1.7 3.9.9zm.4-6.5a2 2 0 00.7-2.8c-.9-1-2.6.1-2.6 1.8a1.16 1.16 0 00.4 1 1.09 1.09 0 001.5 0zm6.1 3.3a1.16 1.16 0 01-1.1-1.3c-.2-1.9 1.6-4.7 3.6-5.6a7.28 7.28 0 014.4-.1q.15 0-.3 1.5c-.6 2-1 3.9-.8 4.3.1.2.2.2.7.1s.5-.1.6 0c.2.3.1.4-.8.7-1.2.4-1.8.3-2-.3l-.1-.4-.6.3a5.67 5.67 0 01-3.6.8zm2.7-1.2a3.48 3.48 0 001.1-.7 16.88 16.88 0 001.1-3.7c.1-.5.1-.5-.5-.7-1.1-.3-2.1.4-3 2s-1.1 3-.5 3.4c.4.2.6.2 1.8-.3zm75.3 1.2c-.7-.2-1-.4-1.2-1-.3-1 .4-2.9 1.6-4.3a5.08 5.08 0 015.2-1.9 3.87 3.87 0 011.2.3 5.68 5.68 0 01-.4 2 16.55 16.55 0 00-.6 2.9v.9h.7c.6 0 .7 0 .7.3s-.1.4-.9.6c-1.3.4-1.8.3-1.9-.2a1 1 0 00-.1-.4 4 4 0 01-.9.3 14.79 14.79 0 01-2.6.7c-.2-.1-.5-.1-.8-.2zm2.7-1.2a4.37 4.37 0 001-.6 10.7 10.7 0 001.3-3.9c.1-.4.1-.5-.5-.6a1.67 1.67 0 00-1.2.1c-1 .4-2 1.9-2.5 3.7s0 2.1 1.9 1.3zm-172.5.9a20.26 20.26 0 01.6-3c.8-2.9.8-3.1-.1-2.9-.4.1-.5.1-.5-.2s.1-.4.9-.6a13.12 13.12 0 011.5-.3c.5 0 .6 0 .6.4a14.39 14.39 0 01-.6 2.9 15.16 15.16 0 00-.6 2.7c.1.2.2.2.8.1s.7-.1.7.2-.2.4-.9.6a10 10 0 01-1.6.2c-.6.2-.7.1-.8-.1zm6.1 0l-.4-.3 1.2-4.9c.7-2.7 1.2-5.1 1.2-5.3-.1-.4-.1-.4-.7-.3-.3.1-.4 0-.4-.3s.6-.6 2.1-.8c.9-.1.9-.1.9.3a13.14 13.14 0 01-.6 2.6c-.3 1.3-.6 2.4-.6 2.5s.2.1.7-.1c1.8-.7 3.3-.7 3.9.1s.3 2.6-.6 4.1a6.14 6.14 0 01-2.5 2.3 6.72 6.72 0 01-4.2.1zm4.1-.9a6 6 0 001.9-3.8c.3-1.5-.9-1.8-2.6-.7a1.59 1.59 0 00-.8 1 19.26 19.26 0 00-.9 3.4c-.1.6 1.5.7 2.4.1zm6 .8c-.4-.4-.5-.5-.5-1.5a5.36 5.36 0 013.6-5.2 2.86 2.86 0 012.6.3c.4.3.4.4.4 1 0 1.5-1.5 2.6-3.6 2.7-.6 0-1.2.1-1.2.2-.2.2-.1 1.1.1 1.4.4.7 1 .7 2.3.1.8-.4 1-.4 1.2-.2.3.4.1.5-1.1 1.1a5 5 0 01-2.3.5c-.9 0-1 0-1.5-.4zm2.9-3.5c1.4-.3 2.2-1.6 1.6-2.3-.4-.4-.8-.4-1.4 0a5.52 5.52 0 00-1.4 2.1c-.1.3 0 .3.3.3.1.1.6 0 .9-.1zm5.3 3.8s.3-1.1.6-2.5a25.59 25.59 0 00.6-3.1v-.6l-.6.1c-.5.2-.5.1-.5-.1s.5-.6 1.8-.8c.9-.2 1.2-.1 1.2.5v.3l.6-.3a2.29 2.29 0 012.3-.4c.4.1.6.3.6.4-.4 1.4-.7 1.8-1 1.8s-.4-.1-.4-.5c0-1-1-1-1.7 0a15 15 0 00-1.3 4.1c-.1.6-.3 1.1-.4 1.1a10.74 10.74 0 01-1.8 0zm8-.1c-.2-.2-.1-.7.8-4.4l.4-1.5h-.5c-.3 0-.5 0-.5-.1a.9.9 0 01.6-.6c.4 0 1.1-.7 1.5-1.3s.5-.8 1-.8c.3 0 .4.1.3.5s-.1.7-.2 1l-.2.4h.7c.8 0 .9.1.6.6-.1.2-.3.2-.8.2-.9 0-.7-.3-1.4 2.9-.5 2.3-.5 2.5.4 2.3.7-.2.8-.2.7.2 0 .2-.2.4-.8.6a3.68 3.68 0 01-2.6 0zm6.5-.2c-1.2-1.1-.3-4.3 1.5-5.9a5.19 5.19 0 012.7-1.1 3.36 3.36 0 011.7.7 2.13 2.13 0 01-.1 1.9 4.46 4.46 0 01-3.7 1.6h-.9v.8c0 1.5.7 1.7 2.5.9.6-.2 1.1-.4 1.1-.4a1 1 0 01.1.4c0 .2-.2.4-1.1.8a3.87 3.87 0 01-2.3.5c-1 .2-1.2.2-1.5-.2zm2.8-3.5a2.79 2.79 0 001.7-1.2c.2-.5.2-.5-.1-.9s-.9-.5-1.5 0a5.89 5.89 0 00-1.4 2.1c0 .2.6.2 1.3 0zm59.7 3.8c-.2-.2-.1-1 .7-4 1-4 1.6-6.3 1.6-6.7s-.1-.3-.6-.2-.6.1-.6-.3.4-.5 2-.8c.8-.1 1.1 0 1.1.4 0 .2-.5 2.5-1.2 5s-1.2 4.9-1.2 5.1v.5l.7-.1c.7-.1.7-.1.7.2s-.2.4-.9.6a3.44 3.44 0 01-2.3.3zm6-.1c-.2-.3-.1-.9.6-3.3a14.77 14.77 0 00.6-2.5c-.1-.2-.1-.3-.8-.1-.4.1-.4.1-.4-.2s.7-.6 1.9-.9c.9-.1 1.3-.1 1.3.3 0 .1-.3 1.4-.7 2.9a12.27 12.27 0 00-.6 2.9c.1.1.4.1.8.1.7-.1.7-.1.7.2s-.2.4-.9.6c-1.2.3-2.3.3-2.5 0zm5.8 0c-.1-.1 0-.6.1-1 .4-1.4 1.1-4.8 1.1-4.8a1.21 1.21 0 00-.5-.1c-.7 0-.6-.4.3-.8a2.31 2.31 0 001.2-1.2c.5-.8.6-.9 1-.9h.4l-.2.9c-.1.5-.2.9-.2 1s.4.1.8.1c.8 0 .9 0 .7.5-.1.3-.2.3-.9.3h-.8l-.5 2.4a9.59 9.59 0 00-.4 2.7c.1.2.2.2.6.1.7-.2.8-.2.8.2s-.1.4-.9.6c-1.4.3-2.4.3-2.6 0zm6.6-.1c-.4-.3-.5-.5-.5-1.3a5.79 5.79 0 012.2-4.8c1.5-1 3.2-1.2 4.1-.3.4.4.5.5.4 1.1-.1 1.4-1.7 2.5-3.7 2.5-1.3.1-1.4.2-1.2 1.2s.8 1.2 2.4.5c1.1-.4 1.3-.4 1.3 0s-1.9 1.2-3.3 1.3c-1.1.2-1.3.1-1.7-.2zm3.4-3.8c1-.5 1.4-1.5.9-2-.7-.7-2 .2-2.7 1.9l-.2.6.7-.1c.4-.1.8-.3 1.3-.4zm38 4.1s.3-1.1.6-2.5a14.26 14.26 0 00.6-3.1v-.6l-.6.1c-.6.1-.6.1-.6-.2s.3-.5 1.6-.8c1.1-.3 1.5-.2 1.5.4v.3l.6-.3a2.29 2.29 0 012.3-.4 1.36 1.36 0 01.6.3 2.67 2.67 0 01-.4 1c-.3.7-.4.9-.7.9s-.4-.1-.4-.5c0-1-.9-1.1-1.6-.1A8.43 8.43 0 00175 94c-.2.9-.4 1.7-.4 1.7a4.66 4.66 0 01-1.9.3zm18.3-.2c-.1-.3 0-1.2.6-3.7l.5-2.2h-.4c-.5-.1-.6-.5-.1-.7a2.56 2.56 0 001.5-1.4c.4-.7.5-.8 1-.8s.4.1.3.5-.1.7-.2 1l-.1.5h.7c.8 0 .9.1.6.6-.1.2-.3.2-.8.2-.9 0-.7-.3-1.4 2.9-.5 2.3-.5 2.5.4 2.3.7-.2.8-.2.7.2 0 .2-.2.4-.8.6-1.1.3-2.3.3-2.5 0zm6.4-.1c-1.2-1.1-.4-4.3 1.5-5.9a5.19 5.19 0 012.7-1.1 3.36 3.36 0 011.7.7 2.36 2.36 0 01-.1 2 4.46 4.46 0 01-3.7 1.6h-.9l.1.9c.1 1.4.7 1.6 2.4.8.6-.2 1.1-.4 1.1-.4a1 1 0 01.1.4c.1.2-.2.4-1.1.8a3.72 3.72 0 01-2.2.5 1.94 1.94 0 01-1.6-.3zm3.4-3.8c1.1-.5 1.6-1.6.9-2.1-.5-.3-.8-.3-1.4.2a5.42 5.42 0 00-1.4 2.2c0 .2 1.1.1 1.9-.3zm4.8 4c0-.1.3-1.2.6-2.6a17.72 17.72 0 00.6-2.9c0-.4-.1-.4-.6-.4s-.6 0-.7-.2.1-.3.7-.5a7.37 7.37 0 011.4-.4c.6-.1.6-.1 1 .7 0 0 .4-.2.9-.4 1.1-.5 1.3-.5 2-.1l.5.3-.3.9c-.3.8-.4.9-.7.9s-.4-.1-.4-.5c0-1.3-1.3-1-2 .4a15.64 15.64 0 00-.8 2.7c-.3 1.1-.5 2.1-.5 2.1a9.65 9.65 0 01-1.7 0zm8 0c0-.1.3-1 .6-2.1a17.27 17.27 0 00.6-3v-1l-.6.1c-.4 0-.6 0-.6-.2s.1-.3.7-.5c1.4-.4 1.8-.4 2.1-.2s.2.4.3.6 0 .3.1.3.5-.2 1.1-.4a7.41 7.41 0 013.5-.6c.3.2.4.2.3.9-.1.4-.3 1.5-.6 2.5a13.58 13.58 0 00-.5 2.2c0 .5 0 .5.6.5s.7.1.8.2c.1.3 0 .4-1 .7s-2.2.3-2.3 0a14.29 14.29 0 01.5-2.8c.7-2.8.7-3.1.4-3.3a4 4 0 00-2.3 1c-.6.5-.7.6-1.1 2.1-.2.8-.4 1.8-.5 2.2s-.2.7-.3.7a6.22 6.22 0 01-1.8.1zm10.9-.1a13.6 13.6 0 01.6-3 12.27 12.27 0 00.6-2.9c-.1-.1-.2-.2-.6-.1a1.27 1.27 0 01-.6.1v-.3c0-.3.1-.4.8-.5 1.9-.5 2.5-.4 2.3.3 0 .2-.4 1.4-.7 2.8a17.34 17.34 0 00-.6 2.6c.1.2.3.2.8.1.7-.1.7-.1.7.2 0 .8-3.1 1.3-3.3.7zm6 0c-.1-.2 0-.9.6-3.4.7-2.8.7-2.5.1-2.5s-.6-.4.2-.8a1.89 1.89 0 001.1-1.2c.4-.7.6-.9.9-.9.5-.1.5 0 .1 1.5l-.1.5h.8c.7 0 .8 0 .7.2a.6.6 0 00-.1.4c0 .2-.2.2-.8.2h-.8l-.5 2.4a9.59 9.59 0 00-.4 2.7c.1.2.2.2.6.1.7-.2.8-.2.8.2s-.1.4-.9.6c-1.1.4-2.1.4-2.3 0zm6.5-.1c-.4-.4-.5-.4-.5-1.8a3.49 3.49 0 01.6-2.5 4.42 4.42 0 012.8-2.4c2.3-.8 3.9.5 2.9 2.3a4.32 4.32 0 01-3.6 1.7c-.9 0-1 0-1.1.4a1.6 1.6 0 00.4 1.5c.4.4 1 .3 2.1-.2.8-.4 1-.4 1.1-.2.3.4.1.6-.9 1a4.19 4.19 0 01-2.2.5c-.9.1-1.1.1-1.6-.3zm3.5-3.9c1.1-.5 1.4-1.6.7-2.1a.78.78 0 00-.8-.1 3.47 3.47 0 00-1.7 2l-.3.7.7-.1a2.89 2.89 0 001.4-.4zM0 95.6a.45.45 0 01.4-.3 1.84 1.84 0 001.2-1.1 60.47 60.47 0 001.8-8.1c0-1.1 0-1.1-.5-1.4-1-.6-.7-.7 2-.7 2.2 0 2.5 0 2.5.2s-.2.3-.5.3c-1 .2-1.4 1.1-2.4 5.5-.9 4.2-.9 4.1-.5 4.4s.5.3 1.7.2c1.7-.1 2.3-.3 2.9-1.2.5-.4.6-.4.9-.3s.2.2 0 .8c-.2.4-.4.9-.6 1.3l-.4.6H4.2c-4 .1-4.2.1-4.2-.2zm80.4.1c0-.1.3-.3.6-.5a2 2 0 00.9-.9c.5-.8 1.8-7 1.9-8.2 0-1 0-1-.5-1.3-1.1-.6-.8-.7 4-.7 4.4 0 4.5 0 4.4.3a4.91 4.91 0 00-.3 1.3c-.2.8-.2 1-.5 1s-.3 0-.3-.3c0-1-.6-1.2-2.9-1.2h-1.5l-.4 1.8c-.2.7-.3 1.4-.5 2.1-.1.2.1.2 1.3.2 1.6 0 2.1-.2 2.5-.8s1-.6.8-.1l-.3 1.6c-.2 1-.3 1.3-.5 1.3s-.3-.2-.4-.4a1.47 1.47 0 00-.5-.6 8.2 8.2 0 00-3.1-.1 24.89 24.89 0 00-.8 3.4c-.1.6-.1.7.3.9s.7.2 1.8.2c1.7-.1 2.2-.3 2.9-1.2.3-.4.6-.6.7-.5.3.1.3.4-.2 1.4-.7 1.5-.3 1.4-5.2 1.4-3.4 0-4.1 0-4.2-.1zm80.8 0c0-.1.2-.3.5-.4 1-.3 1.3-1.1 2.3-5.8.9-4 .8-4.6-.2-4.9q-.3-.15-.3-.3a21 21 0 014.5-.2c4.3 0 4.4 0 4.3.2a6.3 6.3 0 00-.3 1.3c-.2.8-.2 1-.5 1s-.4 0-.4-.4c0-.9-.8-1.2-2.9-1.1h-1.3l-.4 1.9c-.2 1-.4 1.9-.4 2 0 .3 2.4.2 3 0a1.41 1.41 0 00.6-.7.51.51 0 01.5-.4c.4 0 .4-.1 0 1.8-.3 1.4-.4 1.6-.6 1.6a.27.27 0 01-.3-.3c0-.7-1.5-1.2-2.9-1l-.6.1-.3 1.6c-.6 2.8-.5 3.1.3 3.4 1 .4.4.5-2.1.5a11.39 11.39 0 01-2.5.1zm-93.3-3.1a2.35 2.35 0 01-1.3-1.9 2.4 2.4 0 012.4-2.2c1.5 0 2.4.8 2.4 2.1 0 1.7-1.7 2.7-3.5 2zm81 0a2 2 0 01-.9-.7 1.48 1.48 0 01-.4-1.3c0-1.3.9-2.1 2.4-2.1a2.41 2.41 0 011.5.4 2 2 0 01.4 3.1 2.83 2.83 0 01-3 .6zm-95.1-5.1c-.3-.3-.3-.3 1.5-2.1l.6-.6.9.2c.5.1.9.2.9.3s-3.4 2.6-3.5 2.6l-.4-.4zm80.9 0l-.4-.3 1.2-1.2c.7-.7 1.3-1.2 1.3-1.2a8.51 8.51 0 011.7.4c0 .1-3 2.2-3.4 2.5 0 .1-.2 0-.4-.2zm105.7 0l-.4-.3 1.2-1.2a7 7 0 011.4-1.2 5.28 5.28 0 011.7.4 37.82 37.82 0 01-3.4 2.5c0 .1-.3 0-.5-.2zm-226.9-.7c-.6-.6 0-1.7 1-1.7.7 0 1 .3 1 .9a1.19 1.19 0 01-2 .8zm107.3.1a1.09 1.09 0 010-1.5c.7-.6 1.9-.2 1.9.6a1.28 1.28 0 01-1.9.9zm105.6-.1c-.7-.6 0-1.7 1-1.7a1 1 0 01.7 1.7 1.35 1.35 0 01-1.7 0zM87.1 82.7c-.2-.2-.2-.3 1-1.5l1.2-1.2.9.2c.5.1.9.2.9.3a23.83 23.83 0 01-3.5 2.4.37.37 0 01-.5-.2z"/><path d="M139.9 74.6l.4-.9a17.84 17.84 0 012.2-4.1 15.62 15.62 0 014.1-3.8 7.87 7.87 0 014.2-.5c1.5.1 6 .8 7.9 1.2a13.18 13.18 0 004.4.1 4.37 4.37 0 003.5-3 3.85 3.85 0 000-3c-.5-1-.5-1.2.9-2.4a5.87 5.87 0 001.2-1.2 4.34 4.34 0 00-1.1-1.9 1.1 1.1 0 01-.6-.3l-.4-.3.8-.4c1.1-.5 1.9-1.3 1.9-1.8a3.62 3.62 0 00-.5-1.3 2.59 2.59 0 01-.4-2.3c.2-.3.5-.5 2.2-.9 1.4-.4 1.9-.7 2.1-1.6a2.24 2.24 0 00-.4-2c-.4-.7-2.8-4.1-3.5-4.9a15.07 15.07 0 01-2.5-4.1 3.24 3.24 0 01-.1-2.4c.5-2.8.2-5.1-1.3-9.6-1.1-3.3-1.4-4.2-1.8-4.8-.6-1.1-.6-1.4.7-2.3a9.65 9.65 0 001.3-1.1 2 2 0 00-.8-2.3c-.5-.2-.7-.1-1.2.7-.4.6-.5.7-.9.7-.6 0-.7-.2-.3-.7s.4-.7-.3-.8-.8-.3-2-1.4a13.94 13.94 0 00-4.8-3c-1-.4-1.3-.6-1-.5s1.4.1 2.4.2c2.9.1 3.7-.2 4.4-2.1.5-1.3.7-1.9-.4-2.8l-3.9-3h88.2v74.6z" fill="#e2011c"/><path d="M64.7 74.6a8.33 8.33 0 00-1.2-.1c-.1-.1.7-.5 4-2.3 1.1-.6 1.5-.9 1.4-1a13.71 13.71 0 00-2.1-.2 5.18 5.18 0 00-2.4.1c-.3.1-1.5.4-2.7.7-2.9.7-3.8 1.1-4.8 2.3l-.3.4H0V0h112.3l-2.2 1.3A16.46 16.46 0 00107 3a17.59 17.59 0 00-4.6 5.8c-.2.6-.4.8-1.1 1.2a13.17 13.17 0 00-3.2 3.1 63.26 63.26 0 00-4.4 7c-.8 1.7-.7 3.1.4 8.3.5 2.3 1 4.6 1.2 5.2a15.53 15.53 0 01.4 2.1 5.07 5.07 0 00.9 2.6 2.94 2.94 0 01.3.9.54.54 0 00.3.4.55.55 0 01.3.5q0 .3 1.2 1.5c1.8 1.8 3.1 3.5 3.1 4s-.7.6-1.9.3a8.52 8.52 0 01-4.1-2.4c-.7-.6-1.3-1.1-1.3-.9s.5.7 1.1 1.3c1.2 1.2 1.4 1.5 1.1 2s-.8.5-1.5.3c-.9-.2-1.4.1-1.2.7.1.4.1.4-.2.4a12.16 12.16 0 00-2.5-.5c-.9-.1-1-.1-1.5-.8a1.94 1.94 0 00-1.1-.8c-1.6-.4-5.5-1-8.1-1.3-4.6-.5-5.8-.5-8-.2a8.87 8.87 0 00-3.1.7c-1.7.8-4.5 3.1-4.5 3.8 0 .3.6.2 1.3-.2 2.2-1.2 9.7-2.9 13.4-3.1 1.8-.1 1.7 0-.5.4-.6.1-2 .4-3.2.7s-3.1.8-4.4 1.1-2.7.6-3.2.8l-.9.3h1.3c6.9.1 14.7 2 17.9 4.5 1.4 1.1 1.9 1.2 3.9 1a19.84 19.84 0 007.9-2.6c.7-.5 1.2-.7 1.2-.4a14.3 14.3 0 01-1.3 3.6c-.4.7-.5.8-.2 1l.2.2c-.1.1.1.1.2.2.5.2.4.3-.4.5-.5-.2-1.2.1-1.2.3s.1.1.2.1c.4 0 .1.3-.4.4s-.4.1-.3.2.2.1 0 .1-.2.1-.2.3-.2.4-.5.5c-.8.3-.6.5.5.4.6-.1.9-.1.8 0s-1 .4-2 .8-2.2.9-2.8 1.1-1.1.4-1.1.6.2.2 1 0c.1-.1.3 0 .3 0s-1.7.9-3.7 1.9a34.69 34.69 0 00-4.2 2.3 1.89 1.89 0 01-.8.5.66.66 0 00-.5.4c-.3.6-.3.7.5.6 1.1-.2 1.6-.2 1.7 0a.22.22 0 01-.2.2.76.76 0 00-.5.2 1.07 1.07 0 01-.6.2c-.3 0-.5.2-.8.5s-.5.5-.6.5.1.1.6 0c7.2-.5 8.5-.7 11.4-2a25.15 25.15 0 006.8-4.5 4.52 4.52 0 011.1-.9c.2 0 .1.8-.3 1.5-.6 1.2-2 2.4-4.7 4a26.32 26.32 0 01-3.3 1.7 45.12 45.12 0 01-5.9 1.1c-7.5 1-10.4 1.7-13.3 3.4a4.13 4.13 0 01-1.1.5 2.85 2.85 0 00-.8.4c-.8.7-.2.5 1.5-.3s2.7-1 1.2-.2c-1.8 1-3.1 1.6-4.4 1.6h-6.9zm-9.3-8.3a23.42 23.42 0 002.1-1.1c.9-.5 1.9-1 2.3-1.2l2.5-1c2-.8 5-1.6 5.1-1.3a1.85 1.85 0 001 .2c.7 0 .8.1.5.2l-.4.2c0 .3 1.5.2 2.1-.1a10.38 10.38 0 011.2-.3c.5-.1.8-.2.8-.3s.1-.2.6-.1c.7.1 2.1-.1 6-1a40.29 40.29 0 006.3-1.9l1.3-.5-1.3-.7c-3.1-1.8-6.2-2.9-13-4.6a13.18 13.18 0 01-2.3-.7c-.1-.1-.1-.1.2 0 .7.2 1.2.3 1.2.1s-.5-.4-1.5-.5-1.5-.4-.9-.4c1 0-.7-.6-2.6-.9-1.4-.2-1.5-.3-.9-.5s1.1-1.1.9-1.4-.3-.3-1 .2a10.36 10.36 0 00-3.6 3.9c-.4.9-.3.9 1.9 1 1.8.1 1.9.1 1.4.3a2.66 2.66 0 01-1.2.3c-1.3.2-2 .7-1.4 1.1.2.1.1.2-.3.4s-.4.1-.2.3a2.79 2.79 0 001 .1c.6 0 .8 0 1.1.2l.4.3-.7.3a2.93 2.93 0 00-1 .9 11.05 11.05 0 01-1.2 1.3 4.52 4.52 0 00-.9 1.1 6.14 6.14 0 01-1.6 1.4c-2.4 1.7-3.5 2.7-3.5 3.2a.62.62 0 01-.4.6c-.8.4-1.1 1-.7 1a4.08 4.08 0 00.7-.2zM74 64.6a3.94 3.94 0 001.5-.4l.4-.2-.8-.3-.8-.3-.8.3a11.21 11.21 0 01-1.3.5c-1.2.4-1.3.9-.2.8a17.66 17.66 0 012-.4zm-27-6.5a55.18 55.18 0 019.2-7.3c1.1-.7 1.8-1.1 1.9-1 .1.3.6.2 1.3-.2.9-.5 1.3-1 2.4-2.8a8.1 8.1 0 013.2-3.4 27 27 0 002.5-1.8c.9-.6 1.1-.7 1-.5s0 .3.1.3a7.09 7.09 0 002.1-.8c.1-.3-1.6-.5-2.9-.4a6.79 6.79 0 00-2.5.7c-2.9 1.4-4.9 2.9-8.9 6.5a31.1 31.1 0 01-6.2 4.8c-.4.2-.6.5-1.1 1.3a41.54 41.54 0 01-3.9 5.7c-1.4 1.8-1.7 2.4-.6 1.2.8-.8 1.6-1.6 2.4-2.3zm35.5 15.7a37.58 37.58 0 017.7-1c3.4-.1 3.8-.2 5.8-1.1.6-.3.9-.3 1-.2s1.3-.3 3.4-1.7a30.94 30.94 0 012.7-1.6 3.13 3.13 0 011.7-.5c.5.1.6 0 1.3-.5a7.34 7.34 0 014.7-2c.4 0 .6.1.6.2s.1.2.2.1c.4-.2.2 0-.9.8-1.3.9-1.2 1.2.1.3s1.3-.8 1.3-.5-.5.7-1.4 1.3a41.6 41.6 0 00-5.7 5l-2 1.9H78l4.5-.5zm0-29.2h.6c.2 0 0 .1-.3.1s-.4-.1-.3-.1z" fill="#003189"/><path d="M156.7 39.1c-.7-.1-.3-.3.5-.3s1.3-.3 1.3-.8c0-.3-.1-.3-.3-.2s-.4 0-.6-.2-.5-.3-1-.4c-.9-.1-2.4-.9-2.1-1.1a2.15 2.15 0 011-.2c.8-.1.9-.1 1.1-.6a.9.9 0 01.6-.6 1.52 1.52 0 00.8-.4 6.38 6.38 0 011.6-1c1.1-.7 1.8-1.3 1.5-1.6a12.12 12.12 0 00-3.8-.4 26 26 0 00-4.5.8c-1 .3-.7 0 .6-.7a18.34 18.34 0 017.1-1.9 15.43 15.43 0 013.5.7c.6.4-.1 1.9-1.1 2.7l-.4.3.7.7-.4.3a3.29 3.29 0 01-.6.3 2.85 2.85 0 00-.8.4c-.4.4-.5.5-.4.8a.64.64 0 010 .6 3.11 3.11 0 00-.1 1.1c.1 1-.1 1.3-.8 1.5-.3.3-2.4.3-3.4.2z" fill="#7f7f7f"/><path class="cls-8" d="M319.5 80.8h8.7V37.5h-8.7V53a15.68 15.68 0 00-10.9-4.2c-9 0-16.3 6.7-16.3 16.5a16.3 16.3 0 0016.5 16.4 15.21 15.21 0 0010.7-4.1v3.2zm-9.1-24.9c5.5 0 9.5 3.7 9.5 9.2a9.11 9.11 0 01-9.5 9.4 9 9 0 01-9.3-9.3c0-5.2 3.5-9.3 9.3-9.3zm52.2 24.9h8.7V49.5h-8.7V53a15.68 15.68 0 00-10.9-4.2c-9 0-16.3 6.7-16.3 16.5a16.3 16.3 0 0016.5 16.4 15.21 15.21 0 0010.7-4.1v3.2zm-9.1-24.9c5.5 0 9.5 3.7 9.5 9.2a9.11 9.11 0 01-9.5 9.4 9 9 0 01-9.3-9.3c-.1-5.2 3.5-9.3 9.3-9.3zm27.5-6.4h-4.4v6.7h4.4v24.5h8.7V56.3h5.2v-6.7h-5.1V38h-8.7l-.1 11.5zm44.3 31.3h8.7V49.5h-8.7V53a15.68 15.68 0 00-10.9-4.2c-9 0-16.3 6.7-16.3 16.5a16.3 16.3 0 0016.5 16.4 15.21 15.21 0 0010.7-4.1v3.2zm-9.2-24.9c5.5 0 9.5 3.7 9.5 9.2a9.11 9.11 0 01-9.5 9.4 9 9 0 01-9.3-9.3 8.92 8.92 0 019.3-9.3zm31.3 16.7a4.73 4.73 0 00-5 4.5 5 5 0 105-4.5zm47.8-23.1h-8.7V53a16.1 16.1 0 00-11-4.2c-8.8 0-16.2 6.4-16.2 16 0 9.4 7.3 16.1 16.6 16.1a14.94 14.94 0 0010.5-3.9c0 2.9-.1 5.1-2.2 6.8a11.86 11.86 0 01-7.4 2.1c-3.7 0-6.3-.8-8-2.7h-9.6c2.3 6.5 8.4 9.9 17.9 9.9 5.3 0 9.5-1.1 12.6-3.5 4-3.1 5.3-7.1 5.3-13.2l.2-26.9zm-17.7 6.4c5.7 0 9.5 3.9 9.5 8.9 0 5.3-4 8.8-9.3 8.8s-9.5-3.6-9.5-8.8c-.1-4.8 3.6-8.9 9.3-8.9zm42.8-7.2c-9.5 0-17.9 7-17.9 16.5 0 9.2 8 16.4 18 16.4 10.6 0 18.3-7.4 18.3-16.5s-8.3-16.4-18.4-16.4zm.1 7.4c5.7 0 9.5 3.8 9.5 9.1 0 5.5-4.2 9-9.5 9-5.6 0-9.3-3.8-9.3-9.1a8.91 8.91 0 019.3-9zm25.3 7.8a36.08 36.08 0 00.3 6.6c1.4 7.3 6.5 11.1 14.9 11.1 4.8 0 8.4-1.2 11.2-3.9 3.7-3.6 4.1-7.9 4.1-13.7V49.5h-8.7v16.7c0 5.3-1.9 8.2-6.5 8.2s-6.5-2.9-6.5-8.5V49.5h-8.7l-.1 14.4zM596 80.8h5.6l14.7-31.3h-8.8L598.8 68 590 49.5h-8.9L596 80.8zm27.6-6.2a4 4 0 012.8 1 3.2 3.2 0 010 5 4.42 4.42 0 01-5.6 0 3.39 3.39 0 010-5 4 4 0 012.8-1zM660 50.3l-.7 2.3h-5.6l-4.2 15.1a87.55 87.55 0 01-5.6 15.5c-2.7 5.1-5.6 8.7-8.7 10.7a13.1 13.1 0 01-7.1 2.2 6.45 6.45 0 01-3.9-1.2 2.63 2.63 0 01-1.2-2.2 2.28 2.28 0 011-1.9 3.65 3.65 0 012.4-.8 2.79 2.79 0 011.8.6 1.62 1.62 0 01.7 1.4 1.87 1.87 0 01-.8 1.4 1.49 1.49 0 00-.6.7.55.55 0 00.3.5c.2.2.6.2 1.1.2a7.91 7.91 0 003.5-.9 9.4 9.4 0 003.2-2.8 19.88 19.88 0 002.7-5.3c.4-1 1.3-4.2 2.9-9.6l6.7-23.4H641l.5-2.3a15 15 0 004.4-.4 6.51 6.51 0 002.3-1.5 32.85 32.85 0 002.8-4.2 35.08 35.08 0 014.3-6.4 20.19 20.19 0 015.9-4.6 14.15 14.15 0 015.9-1.6 7.69 7.69 0 014.7 1.3 3.63 3.63 0 011.8 2.9 2.52 2.52 0 01-.9 2 3 3 0 01-2.3.8 3.38 3.38 0 01-2-.6 1.8 1.8 0 01-.7-1.5 2.67 2.67 0 01.5-1.3 4.13 4.13 0 00.5-1.1.78.78 0 00-.3-.7 2.81 2.81 0 00-1.5-.3 7.14 7.14 0 00-4.3 1.4 16.15 16.15 0 00-4.6 5.7 94.05 94.05 0 00-3.8 10.1l5.8-.2z"/><path class="cls-8" d="M662.6 51.4l13.2-1.9-5.5 16.8c4.5-6.9 8.5-11.7 12.2-14.5q3.15-2.4 5.1-2.4a2.72 2.72 0 012 .7 2.35 2.35 0 01.7 1.9 8 8 0 01-1.3 4.4 3 3 0 01-2.6 1.6 2.2 2.2 0 01-2.3-2.1 1.9 1.9 0 00-.3-.9 1.08 1.08 0 00-.7-.3 2.66 2.66 0 00-1.2.3 10.57 10.57 0 00-3 2.7 85 85 0 00-6.9 8.8 24.84 24.84 0 00-2.8 5.1 40.72 40.72 0 00-1.8 4.7l-1.2 4.4h-5.9l7.1-21.5a20.89 20.89 0 001.2-5.3 1.1 1.1 0 00-.6-1 3.17 3.17 0 00-2-.6 28.53 28.53 0 00-3 .3l-.4-1.2z"/></g></g><path class="cls-8" d="M572.46 86.38V36.89h9.45v15.8A17.87 17.87 0 01587.5 49a18.22 18.22 0 016.65-1.1 20.44 20.44 0 0110.18 2.55 18.4 18.4 0 017.12 7A19.89 19.89 0 01614 67.57a20.13 20.13 0 01-4.62 13.18q-5.42 6.51-14.59 6.51A19.92 19.92 0 01587.3 86a19 19 0 01-6.18-4.35v4.74zm20.19-30.29a10.84 10.84 0 00-8.12 3.27 11.48 11.48 0 00-3.18 8.34 11 11 0 003.27 8.19 11.49 11.49 0 008.38 3.2 11.26 11.26 0 008.27-3.16 11 11 0 003.2-8.23 11.26 11.26 0 00-3.28-8.37 11.64 11.64 0 00-8.54-3.24zm69.65 15.7h-30.54a8.92 8.92 0 003.79 5.33 12.49 12.49 0 007.12 2 12.36 12.36 0 004.86-.84 11.12 11.12 0 003.79-2.86h10.32a15.47 15.47 0 01-3.13 5.17 20.21 20.21 0 01-15.64 6.7 23.56 23.56 0 01-8.41-1.5 21.2 21.2 0 01-6.79-4.07 19 19 0 01-4.5-6.15 17.71 17.71 0 01-1.66-7.57 18.46 18.46 0 012.76-9.86 19.8 19.8 0 017.54-7.1 21.61 21.61 0 0110.48-2.6A21.32 21.32 0 01652.75 51a18.6 18.6 0 017.25 7.1 20.18 20.18 0 012.63 10.25 16 16 0 01-.33 3.44zm-30.82-7.85h21.86a9 9 0 00-3.72-5.46 12.62 12.62 0 00-7.19-1.9 12.33 12.33 0 00-7 1.88 9.83 9.83 0 00-3.94 5.48zm41.64 22.44v-29h-4.62v-8.12h4.62V36.89h9.45v12.37h5.7v8.11h-5.7v29zm62.95-37.12v37.12h-8.65v-4.81a16.23 16.23 0 01-13.1 5.69 21 21 0 01-10.23-2.47 17.94 17.94 0 01-7.09-6.88 19.51 19.51 0 01-2.56-9.91A19.83 19.83 0 01697 57.9a18.23 18.23 0 017.16-7 21.17 21.17 0 0110.36-2.52 17.9 17.9 0 017.37 1.39 14.91 14.91 0 015.53 4.43v-5zm-20.71 7.33a10.93 10.93 0 00-8.15 3.27 11.36 11.36 0 00-3.21 8.3 10.3 10.3 0 003.25 7.9 11.88 11.88 0 008.43 3A11.34 11.34 0 00724 76a10.74 10.74 0 003.15-8 10.9 10.9 0 00-3.29-8.21 11.65 11.65 0 00-8.5-3.21zm37 23.1a3.86 3.86 0 00-3.92 3.8 3.81 3.81 0 003.84 3.62 3.87 3.87 0 004.06-3.62 4 4 0 00-3.95-3.81zm46.75-30.42h9v30.08a34.63 34.63 0 01-1 9.17 15.56 15.56 0 01-3.32 6.23q-5.63 6.44-16.09 6.44a24.44 24.44 0 01-12.55-3.11 18.12 18.12 0 01-7.71-8.7h10.74a12.58 12.58 0 004.34 3.06 15.07 15.07 0 005.56.9q5.28 0 8-2.94t3-8.93a17.77 17.77 0 01-5.78 4.43 17.3 17.3 0 01-7.18 1.36 19.81 19.81 0 01-10-2.52 17.67 17.67 0 01-6.9-7 20.75 20.75 0 01-2.47-10.16 18.48 18.48 0 015.53-13.7 19 19 0 0113.9-5.46q8.48 0 12.89 5.56zm-12 7.33a10.31 10.31 0 00-7.83 3.12 11.5 11.5 0 00-3 8.26 11.18 11.18 0 1022.34-.13 10.89 10.89 0 00-3.18-8.14 11.46 11.46 0 00-8.26-3.13zm51.59-8.2a21.39 21.39 0 0110.42 2.6 19.94 19.94 0 017.58 7.11 18.2 18.2 0 012.78 9.77 17.94 17.94 0 01-2.8 9.7 20 20 0 01-7.63 7.06 22.57 22.57 0 01-21 0 20.09 20.09 0 01-7.66-7.06 17.82 17.82 0 01-2.82-9.7 18.1 18.1 0 011.65-7.61 19.1 19.1 0 014.48-6.21 21.4 21.4 0 016.76-4.14 22.48 22.48 0 018.24-1.52zm-.38 8.18a11.22 11.22 0 00-7.89 19.2 11 11 0 008 3.3 11.19 11.19 0 008.1-3.29 10.64 10.64 0 003.37-7.9 10.77 10.77 0 00-3.37-8 11.38 11.38 0 00-8.22-3.31zm65.45-7.33v37.13H895v-3.57a17.66 17.66 0 01-5.23 3.45 18.16 18.16 0 01-13.22-.52 12.91 12.91 0 01-5.11-4.34 14.65 14.65 0 01-2.15-5 33.75 33.75 0 01-.63-7.26V49.26h9.49v18.15a31.16 31.16 0 00.45 6 7.41 7.41 0 001.53 3.42 7.1 7.1 0 005.49 2.23 10 10 0 004.4-.93 6.75 6.75 0 002.98-2.61 8.6 8.6 0 001-3.22 39.76 39.76 0 00.29-5.54v-17.5zm23.47 37.12l-15.89-37.11h10.53L931 73.85l9-24.59h10.7l-15.93 37.12zm28.41-6.7A3.75 3.75 0 00952 83.5a3.69 3.69 0 003.61 3.61 3.73 3.73 0 003.82-3.61 3.84 3.84 0 00-3.79-3.82zm-399.24 0a3.86 3.86 0 00-3.92 3.8 3.81 3.81 0 003.84 3.62 3.87 3.87 0 004.06-3.62 4 4 0 00-3.99-3.79zM281 45.87v-8.12h4.78v8.11zm0 39.46V50.11h4.78v35.22zm13.56 0V50.11h4.78v4.56a13.83 13.83 0 0111.32-5.41 16.32 16.32 0 016.82 1.4 13.51 13.51 0 015.16 4.07 14 14 0 012.39 5 29.8 29.8 0 01.69 7.14v18.46H321V66.84a23 23 0 00-.58-5.74 9.9 9.9 0 00-10.3-7.47 11.75 11.75 0 00-5.3 1.19 9.38 9.38 0 00-3.82 3.34 9.82 9.82 0 00-1.29 3.19 22.61 22.61 0 00-.38 4.61v19.37zM362.86 75h5.41a31.29 31.29 0 01-2.77 4.48 15.78 15.78 0 01-3 2.94 18 18 0 01-11.5 3.76 19.79 19.79 0 01-9.75-2.44 18 18 0 01-6.92-6.7 18.17 18.17 0 01-2.52-9.42 17.85 17.85 0 012.5-9.28 18.12 18.12 0 016.84-6.65 19.13 19.13 0 019.53-2.44 18.9 18.9 0 0110.68 3.11 17.87 17.87 0 016.84 8.43h-5.35a14.7 14.7 0 00-5.19-5.31 13.6 13.6 0 00-7-1.86 13.41 13.41 0 00-9.92 4.09 13.72 13.72 0 00-4 10 13.48 13.48 0 004.1 10 13.72 13.72 0 0010 4.07 12.93 12.93 0 006.52-1.57 19.17 19.17 0 005.5-5.21zm12 10.38V37.75h4.78v47.58zM418 50.11v35.22h-4.75v-5.47a11.75 11.75 0 01-4.53 4.8 13.87 13.87 0 01-6.82 1.53 16.48 16.48 0 01-7.25-1.53 12.71 12.71 0 01-5.11-4.42Q387 76.53 387 69.1v-19h4.78v19q0 5.79 1.79 8.49a8.4 8.4 0 003.54 3.08 11.67 11.67 0 005.14 1.1 11.46 11.46 0 005.11-1.13 9.85 9.85 0 003.79-3.24q2.14-3.18 2.14-9.21V50.11zM425.36 75H430a7.6 7.6 0 002 5 6.28 6.28 0 004.72 1.78 5.7 5.7 0 004.28-1.72 6 6 0 001.67-4.39 5 5 0 00-1.34-3.74 18.41 18.41 0 00-5.49-3q-3.81-1.6-4.61-2a9.19 9.19 0 01-1.9-1.42 8.2 8.2 0 01-2.64-6.29 9.63 9.63 0 0110-9.94 9.8 9.8 0 017 2.64 9.47 9.47 0 012.91 6.89h-4.84a5.8 5.8 0 00-1.57-3.81 5.37 5.37 0 00-7.23.16 4.89 4.89 0 00-1.49 3.62q0 3 3.3 4.72l6.57 2.77q6.1 2.55 6.1 9a10.86 10.86 0 01-3 7.91 10.36 10.36 0 01-7.77 3.07 11.1 11.1 0 01-8.19-3.05 11.22 11.22 0 01-3.12-8.2zm29.26-29.09v-8.16h4.78v8.11zm0 39.46V50.11h4.78v35.22zm29.49-36.07a18.08 18.08 0 019.26 2.41 17.11 17.11 0 016.48 6.65 19.33 19.33 0 012.34 9.5A18.05 18.05 0 01497.1 81a17.21 17.21 0 01-12.86 5.22 19.5 19.5 0 01-9.62-2.39 17.37 17.37 0 01-6.75-6.6 18.49 18.49 0 01-2.44-9.43 17.88 17.88 0 015.28-13.25 18.24 18.24 0 0113.4-5.29zm-.38 4.37a12.71 12.71 0 00-9.62 4 14.15 14.15 0 00-3.84 10.14 13.61 13.61 0 003.93 10 13.37 13.37 0 009.91 4 12.6 12.6 0 009.54-3.91 13.89 13.89 0 003.73-10 14.2 14.2 0 00-3.84-10.24 13 13 0 00-9.81-4.03zm23.82 31.7V50.11h4.78v4.56a13.83 13.83 0 0111.32-5.41 16.32 16.32 0 016.82 1.4 13.51 13.51 0 015.16 4.07 14 14 0 012.39 5 29.8 29.8 0 01.69 7.14v18.46H534V66.84a23 23 0 00-.58-5.74 9.9 9.9 0 00-10.3-7.47 11.75 11.75 0 00-5.3 1.19 9.38 9.38 0 00-3.82 3.34 9.82 9.82 0 00-1.29 3.19 22.61 22.61 0 00-.38 4.61v19.37z"/><path class="cls-8" d="M968.2 52h7.8l-7.86 36.4c-2 9.4-4.87 14.1-8.54 14.1a1.52 1.52 0 01-1.71-1.45 1.62 1.62 0 01.34-.86 2.54 2.54 0 00.43-1.45 3.36 3.36 0 00-3.38-3.33 3.4 3.4 0 00-3.16 3.67c0 2.9 3 5.21 6.75 5.21 7.78 0 13.84-8.54 17.6-24.52L982.81 52h9.49l.51-2.74h-9.31c2.56-13.67 5.89-19.74 10.68-19.74 1.19 0 1.88.43 1.88 1.11a1.89 1.89 0 01-.34.86 2.9 2.9 0 00-.51 1.8 3.12 3.12 0 003.16 3.42 3.67 3.67 0 003.67-3.5c0-3.16-3.16-5.55-7.43-5.55s-7.61 1.88-10.77 5.9c-2.57 3.42-4.36 7.35-7 15.72h-8zm30.17 34.35c4.7-15 6.15-18.46 10.08-25 3-4.87 5.38-7.52 6.83-7.52.6 0 1 .34 1.46 1.19.68 1.45 1.36 1.88 3.07 1.88 2.57 0 4-1.54 4-4.27s-1.63-4.44-4-4.44c-2 0-4.36 1.28-6.58 3.67a44.06 44.06 0 00-8.54 12.14l-1.28 3.16 4.78-18.8-.25-.17c-6.24 1.11-7.18 1.28-13.42 2.31v1.45a15.72 15.72 0 012.91-.43c1.88 0 3 .86 3 2.39a43.66 43.66 0 01-1.37 7.18l-7.26 25.29z"/></svg>