<svg width="440" height="39" xmlns="http://www.w3.org/2000/svg"><defs><style>.cls-1{fill:#fff}</style></defs><g id="_-Logo-_-Fond"><g id="icon-custom_GouvFr_BlocMarqueCompact" data-name="icon-custom/GouvFr/BlocMarqueCompact"><g id="Bloc"><g id="RepFr"><path id="REPUBLIQUE" d="M100.28 13V7.91h1.32L105 13h3.08l-4-5.61a3.48 3.48 0 001.49-1.29 3.72 3.72 0 00.53-2 3.39 3.39 0 00-1.21-2.76 5 5 0 00-3.29-1h-3.89V13zm1.45-7.31h-1.45V2.55h1.45A1.8 1.8 0 01103 3a1.48 1.48 0 01.45 1.14A1.54 1.54 0 01103 5.3a1.8 1.8 0 01-1.27.42zM117.2 13v-2.16h-4.81V7.67h4.09V5.48h-4.09V2.55h4.81V.36h-7.38V13zm5.74 0V7.91h1.61a4.9 4.9 0 003.28-1A3.38 3.38 0 00129 4.14a3.39 3.39 0 00-1.21-2.76 4.9 4.9 0 00-3.28-1h-4.18V13zm1.72-7.31h-1.72V2.55h1.72a1.8 1.8 0 011.27.42 1.46 1.46 0 01.47 1.14 1.51 1.51 0 01-.47 1.19 1.8 1.8 0 01-1.27.42zm11.43 7.67a5 5 0 003.76-1.36 5.37 5.37 0 001.38-3.9V.36h-2.57v7.93a2.78 2.78 0 01-.68 2 2.83 2.83 0 01-3.75 0 2.74 2.74 0 01-.69-2V.36H131v7.71a5.37 5.37 0 001.38 3.9 5 5 0 003.71 1.42zm12.38-.36a5.38 5.38 0 003.44-1 3.29 3.29 0 001.27-2.73 3 3 0 00-.55-1.76 3.58 3.58 0 00-1.53-1.21 3.14 3.14 0 001-1.1 2.9 2.9 0 00.34-1.4 3.07 3.07 0 00-1.13-2.52 4.79 4.79 0 00-3.1-.92h-3.6V13zm-.22-7.71h-1.08V2.55h1.08a1.68 1.68 0 011.14.37 1.3 1.3 0 01.4 1 1.31 1.31 0 01-.4 1 1.68 1.68 0 01-1.14.36zm.37 5.52h-1.45V7.53h1.45A2.16 2.16 0 01150 8a1.5 1.5 0 01.51 1.21 1.57 1.57 0 01-.51 1.23 2.07 2.07 0 01-1.4.45zM163.36 13v-2.31h-4.81V.36H156V13zm5 0V.36h-2.57V13zM185 16.18a3.91 3.91 0 00.73-.06 2.35 2.35 0 00.61-.18v-2.17a2.47 2.47 0 01-.45.11 4.14 4.14 0 01-.45 0 3.4 3.4 0 01-1.28-.28 4.64 4.64 0 01-1.38-.94L182 12a6.51 6.51 0 001.82-2.32 6.72 6.72 0 00.67-3 6.77 6.77 0 00-.49-2.56A6.24 6.24 0 00182.6 2a6.7 6.7 0 00-4.85-2 6.79 6.79 0 00-2.75.54A6.63 6.63 0 00172.88 2a6.24 6.24 0 00-1.37 2.13A6.77 6.77 0 00171 6.7a6.75 6.75 0 00.49 2.57 6.24 6.24 0 001.37 2.13 6.63 6.63 0 002.14 1.45 6.79 6.79 0 002.73.54c.3 0 .6 0 .9-.05a5.68 5.68 0 00.84-.17l1.5 1.34a6.76 6.76 0 001.92 1.24 5 5 0 002.11.43zm-7.2-5.2a4.12 4.12 0 01-1.65-.33 3.86 3.86 0 01-1.29-.91 4.05 4.05 0 01-.86-1.35 4.53 4.53 0 01-.31-1.69A4.55 4.55 0 01174 5a4.05 4.05 0 01.84-1.35 3.86 3.86 0 011.29-.91 4.12 4.12 0 011.65-.33 4 4 0 011.64.33 3.82 3.82 0 011.28.91 4.05 4.05 0 01.81 1.35 4.55 4.55 0 01.31 1.7 4.53 4.53 0 01-.31 1.69 4.05 4.05 0 01-.84 1.35 3.82 3.82 0 01-1.28.91 4 4 0 01-1.64.35zm14.11 2.41a5 5 0 003.71-1.39A5.37 5.37 0 00197 8.07V.36h-2.57v7.93a2.78 2.78 0 01-.68 2 2.83 2.83 0 01-3.75 0 2.74 2.74 0 01-.69-2V.36h-2.57v7.71a5.37 5.37 0 001.38 3.9 4.94 4.94 0 003.74 1.42zm15.84-.39v-2.16h-4.81V7.67H207V5.48h-4.09V2.55h4.81V.36h-7.38V13z"/><path id="FRANÇAISE" d="M100.28 32.93v-5.35h4.09v-2.19h-4.09v-2.93h4.82v-2.19h-7.39v12.66zm9.83 0v-5.12h1.32l3.37 5.12h3.07l-4-5.61a3.42 3.42 0 001.51-1.32 3.58 3.58 0 00.54-2 3.45 3.45 0 00-1.21-2.77 5 5 0 00-3.3-1h-3.87v12.7zm1.45-7.31h-1.45v-3.16h1.45a1.77 1.77 0 011.26.41 1.46 1.46 0 01.46 1.14 1.53 1.53 0 01-.46 1.2 1.82 1.82 0 01-1.26.41zm9.23 7.31l1.21-3.29h5.06l1.22 3.29H131l-4.8-12.66h-3.36l-4.8 12.66zm5.48-5.48h-3.48l1.74-4.76zm9.44 5.48v-9.1l5.67 9.1h3.29V20.27h-2.57v9.06l-5.66-9.06h-3.3v12.66zm17.76 2.92l1.53-2.63a6.4 6.4 0 002.5-.85 6 6 0 001.84-1.66l-2-1.56a4.31 4.31 0 01-1.34 1.26 3.81 3.81 0 01-1.93.48 4.09 4.09 0 01-2.94-1.24 4.34 4.34 0 01-.84-1.36 4.91 4.91 0 010-3.38 4.34 4.34 0 01.84-1.36 4.09 4.09 0 012.87-1.24 3.81 3.81 0 011.93.48 4.31 4.31 0 011.39 1.26l2-1.58A6.65 6.65 0 00154 19.9a6.83 6.83 0 00-2.73.55A6.49 6.49 0 00147.8 24a7 7 0 00-.49 2.58 6.86 6.86 0 00.39 2.3 6.65 6.65 0 001.11 2 6.48 6.48 0 001.72 1.48 6.61 6.61 0 002.25.83l-1.59 2.66zm9.46-2.92l1.21-3.29h5.07l1.21 3.29h2.73l-4.79-12.66H165l-4.8 12.66zm5.48-5.48h-3.47l1.74-4.76zm9.45 5.48V20.27h-2.57v12.66zm7.29.37a4.85 4.85 0 001.63-.27 3.73 3.73 0 002.22-1.94 3.87 3.87 0 00.35-1.59 3.12 3.12 0 00-.91-2.43 8.13 8.13 0 00-2-1.35l-2-1a1.38 1.38 0 01-.9-1.29 1.23 1.23 0 01.4-.94 1.48 1.48 0 011.06-.38 2.34 2.34 0 011.35.42 5.57 5.57 0 011.19 1.15l1.9-1.68a6.24 6.24 0 00-1.91-1.55 5.32 5.32 0 00-2.53-.55 4.53 4.53 0 00-1.65.29 4.13 4.13 0 00-1.28.79 3.65 3.65 0 00-.83 1.18 3.45 3.45 0 00-.3 1.42 3 3 0 00.91 2.39 8.34 8.34 0 002 1.33l2 1a1.45 1.45 0 01.47 2.37 1.73 1.73 0 01-1.2.39 3 3 0 01-1.51-.42 4.35 4.35 0 01-1.29-1.14l-1.86 1.72a5.92 5.92 0 002 1.55 6 6 0 002.69.53zm14.46-.37v-2.19h-4.81v-3.16h4.08v-2.19h-4.08v-2.93h4.81v-2.19h-7.38v12.66z"/></g></g><g id="icon-custom_GouvFr_Marianne" data-name="icon-custom/GouvFr/Marianne"><path class="cls-1" d="M0 .36h90.98v32.75H0z"/><path id="Fond" class="cls-1" d="M37.38 29.29l1.09-1.09a19.58 19.58 0 012.09-2.2 3.12 3.12 0 01.65-.55.34.34 0 01.11-.22c-.22.11-.54.44-.76.55 0 0-.11 0 0-.11a1.4 1.4 0 00.65-.55V25a2.69 2.69 0 00-2.08 1h-.22c-1 .22-1.64 1.09-2.52 1.53v-.11c-.44.11-.66.43-1.09.43a7.19 7.19 0 01-1.54 0 16.94 16.94 0 00-2.3.44 5.36 5.36 0 00-1.21.44.11.11 0 01-.11.11l-.43.43c-.44.11-.66.55-1.1.77h-.11l-1 1h-.1c0-.11.11-.11.11-.22s.11-.11.11-.22.11-.22.22-.43v-.11h-.11a4.74 4.74 0 011.1-.77h-.11l.11-.11a.24.24 0 00-.22.22c-.11.11-.22.44-.55.44H28v-.11a.11.11 0 01.11-.11V29l.44-.44c.22-.11.55-.22.66-.44a.11.11 0 00.11-.11 1.79 1.79 0 00-1 .55h-.22c0-.11.22-.11.44-.22h.11c2.08-1.53 4.71-1.2 7-2.07.11-.11.44-.22.55-.44s.55-.44 1-.66a3.14 3.14 0 001.09-1.52v-.11a12.57 12.57 0 01-2.74 2.07c-1.31.66-2.74.55-4 .77 0-.11.11-.11.22-.11s.11-.22.22-.44h.22a.11.11 0 01.11-.11h.22c-.11-.22-.55.11-.77 0 .11-.11 0-.22.11-.44h.33a.34.34 0 01.11-.21c1-.55 1.75-1 2.74-1.53a.86.86 0 01-.55 0c.11 0 0-.11.11-.11a13.31 13.31 0 001.86-.77c-.22 0-.44.11-.66 0 .11 0 .11-.11.44-.11v-.1c0-.11.22 0 .44-.11h-.2c.11-.22.55-.22.77-.44 0-.11-.22 0-.22-.11-.11 0 0-.11 0-.22A2.58 2.58 0 0037.6 20h-.11A5.32 5.32 0 0135 21.21h-.22a1.86 1.86 0 01-1.1 0 1.37 1.37 0 01-.66-.54c-.54-.22-1-.55-1.53-.77a11.58 11.58 0 00-4.71-.65 8.2 8.2 0 012.19-.66 17.78 17.78 0 013.03-.65h-.66a8.83 8.83 0 00-2.74.44c-.66.1-1.21.43-1.75.54s-.55.55-1 .44v-.11c.66-.77 1.31-1.53 2.3-1.53a16.47 16.47 0 013.29.11 8.5 8.5 0 012.3.44c.22 0 .44.54.66.54.44.11.77 0 1.09.22v-.44c.22-.21.55 0 .77 0 .55-.21-.44-.76-.66-1.31v-.11c.55.44.77 1 1.54 1.21.22.1 1.09.21 1 0-.22-.66-1-1.21-1.54-1.86V16c-.11 0-.11 0-.11-.11v-.21c-.22-.11-.11-.44-.22-.55s0-.76-.11-1.09-.11-.66-.22-1.09c-.11-1.09-.44-2.08-.54-2.95a5.06 5.06 0 011.2-3.06 6.41 6.41 0 011.75-2.07 5.12 5.12 0 011.21-2.08 6.22 6.22 0 011.86-1.2A3.41 3.41 0 0143 .36h12.14l.21.11a8 8 0 001 .55 2.67 2.67 0 011.21 1 .89.89 0 01.11.76c-.11.22-.11.77-.55 1a4.93 4.93 0 01-1.32.11 1.8 1.8 0 01-.8-.14 5.29 5.29 0 012.41 1.63c0 .11.22.11.55.11v.11c-.11.11-.22.11-.11.44h.43c.22-.11.22-.77.66-.55a.8.8 0 01.22 1c-.22.21-.55.43-.77.65v.44a2 2 0 01.22.76 4.59 4.59 0 00.44 1.31 5.26 5.26 0 01.55 2.84c0 .55-.22 1 0 1.53s.44.76.66 1.31.55.65.65 1c.44.66 1.1 1.2.77 2.08-.11.43-.77.43-1.31.65s0 .76.11 1.09c.22.55-.44 1-.77 1.09.11.11.44.11.44.22s.44.55.11.77c-.22.43-1 .54-.66 1.09a1.79 1.79 0 010 1.31c-.11.54-.66.76-1.1 1a2.22 2.22 0 01-1.2 0c-.11 0-.22-.11-.44-.11-1.1-.11-2.19-.43-3.07-.43a1.59 1.59 0 00-.77.21c-.22.22-.55.44-.76.66l-.11.11-.11.11c-.11.22-.44.43-.55.65v.11a2.88 2.88 0 00-.41 1.06 4.06 4.06 0 000 2.95c.11.11 2.08.66 3.4 1.31.66.22 1.09.55 1.53.66H30.14c1.21-.77 2.31-1.2 4.06-2.08a7.79 7.79 0 003.18-1.53m-9.54-4.36h-.22c0-.22.55-.22.77-.44.11 0 .22-.11.44-.11s.22.11.44.22c-.44.33-1 0-1.43.33M18.2 23.4a36.87 36.87 0 001.86-3.28 10.88 10.88 0 002.19-1.74 11.52 11.52 0 013.51-2.73 4.12 4.12 0 011.64 0c-.11.21-.54.11-.76.43h-.11V16c-.66.66-1.54 1-2.09 1.75s-.65 1.53-1.53 1.64c-.22 0 0-.11 0-.11a39 39 0 00-4.71 4.12m5.37-4c0 .11-.11.11-.11.22s-.11.11-.22.21h-.11c-.11-.21 0-.43.44-.43m2.85 9.28a.11.11 0 01-.11.11c.11 0 .11 0 .11.11a.56.56 0 01-.44.21h-.11l-.22.22c-.11 0-.44 0-.22-.11l.44-.43.22-.22.11-.11c-.11.11.22.11.22.22m-1.1-.55a3.49 3.49 0 00-.66.55 2.78 2.78 0 00-.76.43h-.11a1.47 1.47 0 00-.66.55l-.11.11-.11.11-.11.12-.11.11h-.33c-.11 0-.11.11-.22.11l-.44.43v-.11c0-.11.11-.11.11-.21v-.11l.11-.11C22 30 22 30 22 29.84a.11.11 0 01.11-.11.11.11 0 01.11-.11v-.33c.11-.11.11-.22.22-.22-.11 0-.11.11-.22.11a.11.11 0 01-.11-.11l.11-.1c.11-.11.11-.22.22-.22a.11.11 0 00.11-.11l.11-.11c.55-.55 1.64-.55 2.41-1 .22-.11.66 0 1 0 .11 0 .44 0 .55.11-.44-.22-1 .21-1.32.43m1.21-4.26a.36.36 0 00.22-.1h-.53v-.11a4.53 4.53 0 00-1 .21c-.44.11-.77.44-1.31.55s-1.21.76-2.09 1.09v-.11c0-.11.22-.22.44-.43v-.22A24 24 0 0124 23.07V23c.1-.22.54-.44.65-.65a.86.86 0 01.66-.55.11.11 0 01-.11-.11c-.22 0-.55.11-.77 0 .11-.11.22-.11.44-.22a.11.11 0 01-.11-.11.23.23 0 01.22-.21 1 1 0 00.77-.22c-.44 0-1 .11-1.32-.11a2.77 2.77 0 011.65-1.86h.11a.67.67 0 01-.55.66 4.15 4.15 0 011.53.43c0 .11-.11 0-.22 0 .22.11.66 0 1 .22-.11.11-.44 0-.55 0 1.87.55 4 1 5.59 2.29a18 18 0 01-4.38 1.31h-.55v.11a1.4 1.4 0 00-.66.11c-.33-.11-.65 0-.87-.22"/><path id="Rouge" d="M37.38 29.29l1.09-1.09a19.58 19.58 0 012.09-2.2 3.12 3.12 0 01.65-.55.34.34 0 01.11-.22c-.22.11-.54.44-.76.55 0 0-.11 0 0-.11a1.4 1.4 0 00.65-.55V25a2.69 2.69 0 00-2.08 1h-.22c-1 .22-1.64 1.09-2.52 1.53v-.11c-.44.11-.66.43-1.09.43a7.19 7.19 0 01-1.54 0 16.94 16.94 0 00-2.3.44 5.36 5.36 0 00-1.21.44.11.11 0 01-.11.11l-.43.43c-.44.11-.66.55-1.1.77h-.11l-1 1h-.1c0-.11.11-.11.11-.22s.11-.11.11-.22.11-.22.22-.43v-.11h-.11a4.74 4.74 0 011.1-.77h-.11l.11-.11a.24.24 0 00-.22.22c-.11.11-.22.44-.55.44H28v-.11a.11.11 0 01.11-.11V29l.44-.44c.22-.11.55-.22.66-.44a.11.11 0 00.11-.11 1.79 1.79 0 00-1 .55h-.22c0-.11.22-.11.44-.22h.11c2.08-1.53 4.71-1.2 7-2.07.11-.11.44-.22.55-.44s.55-.44 1-.66a3.14 3.14 0 001.09-1.52v-.11a12.57 12.57 0 01-2.74 2.07c-1.31.66-2.74.55-4 .77 0-.11.11-.11.22-.11s.11-.22.22-.44h.22a.11.11 0 01.11-.11h.22c-.11-.22-.55.11-.77 0 .11-.11 0-.22.11-.44h.33a.34.34 0 01.11-.21c1-.55 1.75-1 2.74-1.53a.86.86 0 01-.55 0c.11 0 0-.11.11-.11a13.31 13.31 0 001.86-.77c-.22 0-.44.11-.66 0 .11 0 .11-.11.44-.11v-.1c0-.11.22 0 .44-.11h-.2c.11-.22.55-.22.77-.44 0-.11-.22 0-.22-.11-.11 0 0-.11 0-.22A2.58 2.58 0 0037.6 20h-.11A5.32 5.32 0 0135 21.21h-.22a1.86 1.86 0 01-1.1 0 1.37 1.37 0 01-.66-.54c-.54-.22-1-.55-1.53-.77a11.58 11.58 0 00-4.71-.65 8.2 8.2 0 012.19-.66 17.78 17.78 0 013.03-.65h-.66a8.83 8.83 0 00-2.74.44c-.66.1-1.21.43-1.75.54s-.55.55-1 .44v-.11c.66-.77 1.31-1.53 2.3-1.53a16.47 16.47 0 013.29.11 8.5 8.5 0 012.3.44c.22 0 .44.54.66.54.44.11.77 0 1.09.22v-.44c.22-.21.55 0 .77 0 .55-.21-.44-.76-.66-1.31v-.11c.55.44.77 1 1.54 1.21.22.1 1.09.21 1 0-.22-.66-1-1.21-1.54-1.86V16c-.11 0-.11 0-.11-.11v-.21c-.22-.11-.11-.44-.22-.55s0-.76-.11-1.09-.11-.66-.22-1.09c-.11-1.09-.44-2.08-.54-2.95a5.06 5.06 0 011.2-3.06 6.41 6.41 0 011.75-2.07 5.12 5.12 0 011.21-2.08 6.22 6.22 0 011.86-1.2A3.41 3.41 0 0143 .36H0v32.75h30.25c1.21-.76 2.31-1.2 4.06-2.07a13.92 13.92 0 003.07-1.75m-9.54-4.36h-.22c0-.22.55-.22.77-.44.11 0 .22-.11.44-.11s.22.11.44.22c-.44.33-1 0-1.43.33m-9.43-1.53a34.74 34.74 0 001.87-3.28 10.88 10.88 0 002.19-1.74A11.52 11.52 0 0126 15.65a4.12 4.12 0 011.64 0c-.11.21-.55.11-.76.43h-.22V16c-.66.66-1.54 1-2.09 1.75s-.67 1.5-1.57 1.61c-.22 0 0-.11 0-.11a23.51 23.51 0 00-4.61 4.15m5.16-4c0 .11-.11.11-.11.22s-.11.11-.22.21h-.11c-.11-.21 0-.43.44-.43m2.85 9.28a.11.11 0 01-.11.11c.11 0 .11 0 .11.11a.56.56 0 01-.44.21h-.11l-.22.22c-.11 0-.44 0-.22-.11l.44-.43.22-.22.11-.11c-.11.11.22.11.22.22m-1.1-.55a3.49 3.49 0 00-.66.55 2.78 2.78 0 00-.76.43h-.11a1.47 1.47 0 00-.66.55l-.11.11-.11.11-.09.12-.11.11h-.33c-.11 0-.11.11-.22.11l-.44.43v-.11c0-.11.11-.11.11-.21v-.11l.11-.11C22 30 22 30 22 29.84a.11.11 0 01.11-.11.11.11 0 01.11-.11v-.33c.11-.11.11-.22.22-.22-.11 0-.11.11-.22.11a.11.11 0 01-.11-.11l.11-.1c.11-.11.11-.22.22-.22a.11.11 0 00.11-.11l.11-.11c.55-.55 1.64-.55 2.41-1 .22-.11.66 0 1 0 .11 0 .44 0 .55.11-.44-.22-.77.21-1.32.43m1.21-4.26a.36.36 0 00.22-.1h-.53v-.11a4.53 4.53 0 00-1 .21c-.44.11-.77.44-1.31.55s-1.21.76-2.09 1.09v-.11c0-.11.22-.22.44-.43v-.22A24 24 0 0124 23.07V23c.1-.22.54-.44.65-.65a.86.86 0 01.66-.55.11.11 0 01-.11-.11c-.22 0-.55.11-.77 0 .11-.11.22-.11.44-.22a.11.11 0 01-.11-.11.23.23 0 01.22-.21 1 1 0 00.77-.22c-.44 0-1 .11-1.32-.11a2.77 2.77 0 011.65-1.86h.11a.67.67 0 01-.55.66 4.15 4.15 0 011.53.43c0 .11-.11 0-.22 0 .22.11.66 0 1 .22-.11.11-.44 0-.55 0 1.87.55 4 1 5.59 2.29a18 18 0 01-4.38 1.31h-.55v.11a1.4 1.4 0 00-.66.11c-.33-.11-.65 0-.87-.22" fill="#000091"/><path id="Bleu" d="M90.65.36H55.14l.21.11a8 8 0 001 .55 2.67 2.67 0 011.21 1 .89.89 0 01.11.76c-.11.22-.11.77-.55 1a4.93 4.93 0 01-1.32.11 1.8 1.8 0 01-.8-.14 5.29 5.29 0 012.41 1.63c0 .11.22.11.55.11v.11c-.11.11-.22.11-.11.44h.43c.22-.11.22-.77.66-.55a.8.8 0 01.22 1c-.22.21-.55.43-.77.65v.44a2 2 0 01.22.76 4.59 4.59 0 00.44 1.31 5.26 5.26 0 01.55 2.84c0 .55-.22 1 0 1.53s.44.76.66 1.31.55.65.65 1c.44.66 1.1 1.2.77 2.08-.11.43-.77.43-1.31.65s0 .76.11 1.09c.22.55-.44 1-.77 1.09.11.11.44.11.44.22s.44.55.11.77c-.22.43-1 .54-.66 1.09a1.79 1.79 0 010 1.31c-.11.54-.66.76-1.1 1a2.22 2.22 0 01-1.2 0c-.11 0-.22-.11-.44-.11-1.1-.11-2.19-.43-3.07-.43a1.59 1.59 0 00-.77.21c-.22.22-.55.44-.76.66l-.11.11-.11.11c-.11.22-.44.43-.55.65v.11a2.88 2.88 0 00-.41 1.06 4.06 4.06 0 000 2.95c.11.11 2.08.66 3.4 1.31.66.22 1.09.55 1.53.66h34.86V.36z" fill="#e1000f"/><path id="Yeux" d="M57.22 12.37c.22 0 .66 0 .66.11-.11.55-.77.66-1.21 1.09h-.11c-.11.11-.11.44-.22.44h-.55a1.39 1.39 0 001 .44.34.34 0 01.11.21h.22v.22c-.11.22-.55.11-.77.11a3.63 3.63 0 001.54 0c.43-.11 0-.76.21-1.09-.1 0 0-.11-.1-.11l.43-.44a.83.83 0 00.44-.11c0-.1-.22-.1-.11-.21a.89.89 0 00.55-1c0-.11-.55-.11-.77-.21a3.54 3.54 0 00-1.09 0 4 4 0 00-1 .21 7.52 7.52 0 00-1.53.55 9.58 9.58 0 001.31-.44c.33.22.66 0 1 .22" fill="#9c9b9b"/></g></g><g id="icon-custom_GouvFr_inclusion.beta.gouv.fr" data-name="icon-custom/GouvFr/inclusion.beta.gouv.fr"><path id="inclusion.beta.gouv.fr" d="M240.48 4.46a1.39 1.39 0 001-.44 1.42 1.42 0 00.43-1 1.42 1.42 0 00-.43-1 1.39 1.39 0 00-1-.44 1.43 1.43 0 00-1 .44 1.45 1.45 0 000 2.08 1.43 1.43 0 001 .36zM241.6 15V6h-2.26v9zm5.86 0V9.14a4.6 4.6 0 01.74-.88 1.93 1.93 0 011.35-.45 1.63 1.63 0 011.29.52 2 2 0 01.47 1.42V15h2.3V9.66a5.19 5.19 0 00-.27-1.75 3.8 3.8 0 00-.75-1.24 3.08 3.08 0 00-1.11-.75 3.58 3.58 0 00-1.36-.25 3.5 3.5 0 00-1.54.31 4.16 4.16 0 00-1.12.76V6h-2.26v9zm13.92.35a4.72 4.72 0 003.8-1.81l-1.8-1.38a2.63 2.63 0 01-.83.76 2.26 2.26 0 01-1.17.3 2.47 2.47 0 01-1.86-.77 2.7 2.7 0 01-.74-1.94 2.71 2.71 0 01.73-1.95 2.61 2.61 0 013-.47 2.63 2.63 0 01.83.76l1.8-1.37a4.6 4.6 0 00-1.6-1.32 4.78 4.78 0 00-2.2-.5 5.28 5.28 0 00-2.08.39 4.48 4.48 0 00-2.53 2.59 5.29 5.29 0 000 3.73 4.48 4.48 0 001 1.54A4.56 4.56 0 00259.3 15a5.28 5.28 0 002.08.36zM270 15V1.64h-2.26V15zm7.59.35a4.12 4.12 0 003.09-1.16 4.39 4.39 0 001.14-3.19V6h-2.28v5.09a2.25 2.25 0 01-.5 1.53 2 2 0 01-2.83 0 2.21 2.21 0 01-.5-1.53V6h-2.28v5a4.43 4.43 0 001.11 3.18 4.07 4.07 0 003.07 1.18zm10.36 0a3.83 3.83 0 001.21-.19 3.2 3.2 0 001-.56 2.64 2.64 0 00.71-.91 3 3 0 00.29-1.26 2.23 2.23 0 00-.66-1.77 5.05 5.05 0 00-1.43-.9l-1.44-.59a.89.89 0 01-.66-.84.71.71 0 01.27-.59 1.16 1.16 0 01.77-.23 1.74 1.74 0 011 .3 3.2 3.2 0 01.78.74l1.51-1.36a3.74 3.74 0 00-1.3-1.08 4.22 4.22 0 00-2-.44 3.32 3.32 0 00-2.29.79 2.53 2.53 0 00-.9 2 2.25 2.25 0 00.66 1.79 5.32 5.32 0 001.43.91l1.44.6a.9.9 0 01.66.85.88.88 0 01-.29.66 1.14 1.14 0 01-.82.27 2 2 0 01-1.15-.34 4.08 4.08 0 01-.92-.85l-1.49 1.39a4.82 4.82 0 001.52 1.21 4.65 4.65 0 002.15.41zm7.36-10.9a1.41 1.41 0 001-.44 1.47 1.47 0 000-2.08 1.41 1.41 0 00-1-.44 1.44 1.44 0 00-1.05.44 1.42 1.42 0 00-.43 1 1.42 1.42 0 00.43 1 1.44 1.44 0 001.07.53zM296.45 15V6h-2.26v9zm7.87.35a5 5 0 002-.38 4.88 4.88 0 001.56-1 4.73 4.73 0 001-1.54 5.24 5.24 0 00.35-1.89 5.16 5.16 0 00-.35-1.89 4.53 4.53 0 00-1-1.54 4.74 4.74 0 00-1.56-1 5.43 5.43 0 00-4 0 4.74 4.74 0 00-1.56 1 4.53 4.53 0 00-1 1.54 5.16 5.16 0 00-.35 1.89 5.24 5.24 0 00.35 1.89 4.73 4.73 0 001 1.54 4.88 4.88 0 001.56 1 5 5 0 002 .39zm0-2.13a2.47 2.47 0 01-1.86-.77 2.7 2.7 0 01-.74-1.94 2.72 2.72 0 01.74-1.95 2.47 2.47 0 011.86-.76 2.4 2.4 0 011.8.76 2.71 2.71 0 01.73 1.95 2.7 2.7 0 01-.73 1.93 2.38 2.38 0 01-1.76.79zM314.46 15V9.14a4.6 4.6 0 01.74-.88 1.93 1.93 0 011.35-.45 1.63 1.63 0 011.29.52 2 2 0 01.47 1.42V15h2.3V9.66a5.19 5.19 0 00-.27-1.75 3.8 3.8 0 00-.75-1.24 3.08 3.08 0 00-1.11-.75 3.58 3.58 0 00-1.36-.25 3.5 3.5 0 00-1.54.31 4.16 4.16 0 00-1.12.76V6h-2.26v9zm20.21.35a4.47 4.47 0 003.33-1.43 4.72 4.72 0 00.94-1.54 5.29 5.29 0 000-3.73 4.83 4.83 0 00-.94-1.54 4.47 4.47 0 00-3.37-1.44 4.48 4.48 0 00-1.91.41 4.26 4.26 0 00-1.53 1.18V1.64h-1.05V15h1.05v-1.22a4.43 4.43 0 003.44 1.58zm-.09-1a3.82 3.82 0 01-1.9-.49 3.93 3.93 0 01-1.45-1.39v-4a3.72 3.72 0 011.45-1.39 3.91 3.91 0 011.9-.48 3.51 3.51 0 011.47.3 3.29 3.29 0 011.14.83 3.81 3.81 0 01.74 1.27 4.1 4.1 0 01.27 1.49 4.05 4.05 0 01-.27 1.48 3.81 3.81 0 01-.74 1.23 3.29 3.29 0 01-1.14.83 3.52 3.52 0 01-1.47.34zm12.42 1a4.63 4.63 0 002.2-.5 4.28 4.28 0 001.58-1.33l-.8-.64a3.61 3.61 0 01-1.26 1.1 3.53 3.53 0 01-1.7.41 3.74 3.74 0 01-2.73-1.12 3.67 3.67 0 01-.77-1.22 4 4 0 01-.28-1.51v-.3h7.25a1.93 1.93 0 00.06-.36v-.39a4.19 4.19 0 00-.26-1.49 3.35 3.35 0 00-.79-1.21 3.85 3.85 0 00-1.25-.79 4.45 4.45 0 00-1.62-.29 4.53 4.53 0 00-1.83.29 4.4 4.4 0 00-1.42 1 4.53 4.53 0 00-.9 1.54 5.55 5.55 0 00-.32 1.93 5.07 5.07 0 00.34 1.86 4.8 4.8 0 001 1.54A4.63 4.63 0 00345 15a5 5 0 002 .36zm2.5-6h-6.15a3.51 3.51 0 011.16-2 3.19 3.19 0 012.14-.73 2.7 2.7 0 012 .81 2.81 2.81 0 01.85 1.95zm8.18 5.81a4.54 4.54 0 00.77-.06 3.25 3.25 0 00.65-.16V14a3.28 3.28 0 01-.58.14 4 4 0 01-.74.06 2.51 2.51 0 01-1.48-.41 1.88 1.88 0 01-.57-1.63V7h3.37V6h-3.37V3.78h-1.07V6H353v1h1.69v5.18a2.91 2.91 0 00.82 2.33 3.31 3.31 0 002.17.68zm7.19.17a3.87 3.87 0 003.21-1.64V15h1.05V8.86a3 3 0 00-.94-2.33 3.53 3.53 0 00-2.5-.86 4.45 4.45 0 00-2.05.46 4.32 4.32 0 00-1.49 1.25L363 8a3.11 3.11 0 011.13-1 3.21 3.21 0 011.56-.37 2.56 2.56 0 011.74.58 2 2 0 01.68 1.65v.84l-3.19.53a4.08 4.08 0 00-2.16.94 2.24 2.24 0 00-.76 1.72 2.27 2.27 0 00.8 1.8 3.17 3.17 0 002.07.67zm.13-.92a2.11 2.11 0 01-1.44-.46 1.4 1.4 0 01-.52-1.11 1.57 1.57 0 01.51-1.18 3 3 0 011.57-.66l3-.5v2.1a3.83 3.83 0 01-1.36 1.4 3.35 3.35 0 01-1.76.44zm8.76.8a.82.82 0 00.63-.26.93.93 0 00.25-.63.84.84 0 00-.25-.6.85.85 0 00-.63-.25.88.88 0 00-.62.25.78.78 0 00-.27.6.86.86 0 00.27.63.85.85 0 00.62.29zm-48.36-.06a.79.79 0 00.62-.26.88.88 0 00.25-.63.8.8 0 00-.25-.6.81.81 0 00-.62-.25.86.86 0 00-.62.25.78.78 0 00-.27.6.86.86 0 00.27.63.83.83 0 00.62.29zm56.6 4.31a6.94 6.94 0 001.83-.23 4.53 4.53 0 001.42-.65 3.12 3.12 0 00.91-1 2.62 2.62 0 00-.49-3.18 3.81 3.81 0 00-2.63-.76h-2.75a.84.84 0 01-.67-.21.77.77 0 01-.18-.52 1.06 1.06 0 01.21-.59 1.93 1.93 0 01.61-.55 3.58 3.58 0 00.68.2 3.84 3.84 0 00.76.07 3.78 3.78 0 001.42-.26 3.18 3.18 0 001.07-.69 2.92 2.92 0 00.69-1 3.15 3.15 0 00.24-1.21 3.2 3.2 0 00-.17-1 3.32 3.32 0 00-.45-.88h2.24V6h-3.36a3.9 3.9 0 00-3.08-.12 3.2 3.2 0 00-1.08.7 3.09 3.09 0 00-.68 1 3.18 3.18 0 00-.24 1.21 3.11 3.11 0 00.33 1.41 3 3 0 00.93 1.1 2.71 2.71 0 00-.82.75 1.7 1.7 0 00-.3 1 1.65 1.65 0 00.17.72 1.53 1.53 0 00.51.57 3.55 3.55 0 00-1.12 1.07 2.35 2.35 0 000 2.42 2.64 2.64 0 00.88.88 4.56 4.56 0 001.36.56 7.16 7.16 0 001.76.19zm-.28-8.32a2.27 2.27 0 01-1.78-.69 2.41 2.41 0 01-.61-1.61 2.37 2.37 0 01.61-1.61 2.27 2.27 0 011.78-.69 2.21 2.21 0 011.74.69 2.33 2.33 0 01.54 1.61 2.36 2.36 0 01-.61 1.61 2.21 2.21 0 01-1.71.69zm.27 7.41a4.57 4.57 0 01-2.33-.53 1.63 1.63 0 01-.9-1.45 1.81 1.81 0 01.35-1.08 3.35 3.35 0 011-.89H383a2.72 2.72 0 011.93.51 1.72 1.72 0 01.51 1.25 1.8 1.8 0 01-.95 1.6 4.65 4.65 0 01-2.49.59zm11.22-3.19a4.75 4.75 0 002-.4 4.66 4.66 0 002.51-2.6 5 5 0 00.35-1.84 5.07 5.07 0 00-.35-1.85 4.66 4.66 0 00-1-1.54 4.81 4.81 0 00-1.53-1.06 5 5 0 00-3.93 0 4.88 4.88 0 00-1.52 1.06 4.66 4.66 0 00-1 1.54 5.07 5.07 0 00-.35 1.85 5 5 0 00.35 1.84 4.66 4.66 0 001 1.54 4.76 4.76 0 003.48 1.46zm0-1a3.58 3.58 0 01-1.51-.32 3.65 3.65 0 01-1.18-.83 3.91 3.91 0 01-.78-1.23 4.14 4.14 0 010-2.94 3.91 3.91 0 01.78-1.23 3.84 3.84 0 011.16-.81 3.58 3.58 0 011.51-.31 3.49 3.49 0 011.47.31 3.73 3.73 0 011.18.84 4.05 4.05 0 011 2.7 3.83 3.83 0 01-.24 1.46 3.92 3.92 0 01-.76 1.22 3.73 3.73 0 01-1.18.84 3.36 3.36 0 01-1.47.31zm12 1a3.68 3.68 0 002.79-1.09 4.29 4.29 0 001.06-3.09V6H408v5.16a3.32 3.32 0 01-.78 2.35 2.62 2.62 0 01-2 .83 2.65 2.65 0 01-2-.83 3.32 3.32 0 01-.78-2.35V6h-1v5.15a4.25 4.25 0 001.07 3.09 3.72 3.72 0 002.71 1.12zm11.73-.36l3.65-9h-1.14l-3.2 8L413 6h-1.1l3.65 9zm6.67.22a.8.8 0 00.62-.26.88.88 0 00.25-.63.8.8 0 00-.25-.6.83.83 0 00-.62-.25.88.88 0 00-.63.25.77.77 0 00-.26.6.89.89 0 00.89.89zm5.79-.22V7h3.37V6h-3.37V4.81a2.27 2.27 0 01.6-1.62 1.86 1.86 0 011.41-.59 1.8 1.8 0 01.89.21 2.77 2.77 0 01.66.51l.68-.79a3.47 3.47 0 00-1-.63 3.12 3.12 0 00-1.31-.26 2.8 2.8 0 00-2.15.88 3.19 3.19 0 00-.84 2.31V6h-1.69v1h1.69v8zm6.79 0V8.61a4 4 0 011.15-1.27 2.73 2.73 0 011.56-.44 2.77 2.77 0 01.42 0 1.8 1.8 0 01.39.08V6l-.37-.08h-.37a3.12 3.12 0 00-1.57.38 4.36 4.36 0 00-1.21 1.08V6h-1.05v9z"/></g><g id="icon-custom_GouvFr_PlateformeInclusion" data-name="icon-custom/GouvFr/PlateformeInclusion"><path id="Plateformedel_inclusion" data-name="Plateformedel’inclusion" d="M239.91 32.94v-4.45h1.76a3.3 3.3 0 002.22-.71 2.58 2.58 0 000-3.79 3.26 3.26 0 00-2.22-.72H239v9.67zm1.77-5.23h-1.77v-3.65h1.77a2.26 2.26 0 011.53.48 1.88 1.88 0 010 2.68 2.27 2.27 0 01-1.53.49zm5.79 5.23V22.58h-.84v10.36zm4.71.28a3.19 3.19 0 001.43-.33 3.07 3.07 0 001.12-.94v1h.84v-4.77a2.26 2.26 0 00-.76-1.81 2.84 2.84 0 00-2-.67 3.59 3.59 0 00-1.63.36A3.33 3.33 0 00250 27l.65.48a2.51 2.51 0 01.9-.78 2.63 2.63 0 011.24-.28 2.09 2.09 0 011.39.45 1.56 1.56 0 01.54 1.28v.65l-2.54.41a3.22 3.22 0 00-1.72.73 1.72 1.72 0 00-.61 1.33 1.74 1.74 0 00.64 1.4 2.58 2.58 0 001.69.55zm.1-.72a1.7 1.7 0 01-1.15-.35 1.06 1.06 0 01-.41-.86 1.21 1.21 0 01.4-.92 2.46 2.46 0 011.25-.51l2.36-.38v1.6a3 3 0 01-1 1.05 2.72 2.72 0 01-1.45.37zm8.72.58a4 4 0 00.62 0 3.81 3.81 0 00.51-.12v-.75a2.82 2.82 0 01-.46.11 3.34 3.34 0 01-.59 0 2 2 0 01-1.17-.31 1.43 1.43 0 01-.46-1.26v-4h2.68V26h-2.68v-1.76h-.85V26h-1.35v.74h1.35v4a2.22 2.22 0 00.65 1.8 2.67 2.67 0 001.75.54zm6.31.14a3.82 3.82 0 001.75-.39 3.45 3.45 0 001.26-1l-.64-.5a3 3 0 01-1 .86 2.9 2.9 0 01-1.36.31 3 3 0 01-1.22-.23 3.12 3.12 0 01-1-.64 2.73 2.73 0 01-.61-.94 3.08 3.08 0 01-.22-1.17v-.24h5.77a1.93 1.93 0 000-.27v-.31a3.3 3.3 0 00-.22-1.18 2.78 2.78 0 00-.63-.94 3.07 3.07 0 00-1-.62 3.57 3.57 0 00-1.19-.26 3.61 3.61 0 00-1.45.29 3.22 3.22 0 00-1.13.78 3.62 3.62 0 00-.72 1.2 4.28 4.28 0 00-.26 1.49 3.74 3.74 0 00.28 1.45 3.64 3.64 0 00.77 1.19 3.86 3.86 0 001.21.82 4.11 4.11 0 001.61.3zm2-4.64h-4.9a2.73 2.73 0 01.92-1.59 2.66 2.66 0 011.71-.56 2.2 2.2 0 011.61.63 2.15 2.15 0 01.66 1.52zm4.31 4.36v-6.22h2.68V26h-2.68v-1a1.7 1.7 0 01.44-1.26 1.49 1.49 0 011.12-.46 1.58 1.58 0 01.71.16 2.25 2.25 0 01.52.4l.54-.61a2.76 2.76 0 00-.76-.49 2.41 2.41 0 00-1-.2 2.32 2.32 0 00-1.72.67 2.5 2.5 0 00-.66 1.8V26h-1.35v.74h1.35v6.22zm7.27.28a3.86 3.86 0 001.57-.31 3.91 3.91 0 001.22-.82 3.46 3.46 0 00.78-1.2 3.83 3.83 0 00.28-1.43 3.87 3.87 0 00-.28-1.43 3.42 3.42 0 00-.78-1.19 3.77 3.77 0 00-1.22-.83 4.11 4.11 0 00-3.13 0 3.83 3.83 0 00-1.21.83 3.42 3.42 0 00-.78 1.19 3.87 3.87 0 00-.28 1.43 3.83 3.83 0 00.28 1.43 3.46 3.46 0 00.78 1.2 4 4 0 001.21.82 3.85 3.85 0 001.55.31zm0-.77a2.92 2.92 0 01-1.2-.24 3 3 0 01-.94-.65 3 3 0 01-.84-2.1 3 3 0 01.22-1.14 3 3 0 013.93-1.6 2.94 2.94 0 01.93.65 2.87 2.87 0 01.61.95 3 3 0 01.22 1.14 3 3 0 01-.83 2.08 3.13 3.13 0 01-.93.66 2.93 2.93 0 01-1.16.25zm6.79.49V28a3.23 3.23 0 01.92-1 2.15 2.15 0 011.24-.34 1.88 1.88 0 01.34 0 1.7 1.7 0 01.31.06v-.82a2.65 2.65 0 00-.3-.06h-.3a2.45 2.45 0 00-1.24.3 3.41 3.41 0 00-1 .83V26h-.84v7zm5.55 0v-5a2.88 2.88 0 01.92-1.06 2.31 2.31 0 011.37-.4 1.9 1.9 0 011.4.53 2.1 2.1 0 01.53 1.55v4.38h.85v-4.4a2.81 2.81 0 000-.29v-.28a3.19 3.19 0 011-1.12 2.33 2.33 0 011.31-.37A1.93 1.93 0 01302 27a2.1 2.1 0 01.54 1.55v4.38h.84v-4.4a2.82 2.82 0 00-.75-2.11 2.68 2.68 0 00-1.92-.73 2.77 2.77 0 00-1.54.42 3.72 3.72 0 00-1.1 1.1 2.31 2.31 0 00-.95-1.13 2.74 2.74 0 00-1.47-.39 2.82 2.82 0 00-1.38.33 3.3 3.3 0 00-1 .87V26h-.84v7zm16 .28a3.82 3.82 0 001.75-.39 3.37 3.37 0 001.26-1l-.64-.5a3 3 0 01-1 .86 2.86 2.86 0 01-1.35.31 3 3 0 01-1.22-.23 2.89 2.89 0 01-.95-.64 2.61 2.61 0 01-.62-.94 3.08 3.08 0 01-.22-1.17v-.24H312a1.93 1.93 0 000-.27v-.31a3.3 3.3 0 00-.22-1.18 2.78 2.78 0 00-.63-.94 3.07 3.07 0 00-1-.62 3.49 3.49 0 00-1.29-.23 3.61 3.61 0 00-1.45.29 3.22 3.22 0 00-1.13.78 3.62 3.62 0 00-.72 1.2 4.28 4.28 0 00-.26 1.49 3.94 3.94 0 00.28 1.45 3.64 3.64 0 00.77 1.19 3.79 3.79 0 001.22.82 4 4 0 001.65.27zm2-4.64h-4.9a2.69 2.69 0 01.93-1.59 2.64 2.64 0 011.7-.56 2.19 2.19 0 011.61.63 2.15 2.15 0 01.66 1.52zm9.94 4.64a3.48 3.48 0 001.52-.32 3.4 3.4 0 001.22-.91v.95h.83V22.58h-.83v4.35a3.52 3.52 0 00-1.22-.91 3.63 3.63 0 00-1.52-.32 3.66 3.66 0 00-2.68 1.12 3.69 3.69 0 00-.75 1.2 4 4 0 00-.26 1.44 4.14 4.14 0 00.26 1.45 3.58 3.58 0 003.43 2.31zm.07-.77a2.8 2.8 0 01-1.16-.24 2.68 2.68 0 01-.91-.64 3 3 0 01-.6-.95 3.22 3.22 0 01-.21-1.16 3.17 3.17 0 01.21-1.15 3.06 3.06 0 01.6-1 2.82 2.82 0 01.91-.64 2.8 2.8 0 011.16-.23 3.12 3.12 0 012.67 1.45V31a3 3 0 01-1.15 1.07 3.14 3.14 0 01-1.54.38zm9.47.77a3.86 3.86 0 001.76-.39 3.41 3.41 0 001.25-1l-.64-.5a2.82 2.82 0 01-2.35 1.17 3 3 0 01-1.22-.23 2.89 2.89 0 01-.95-.64 2.75 2.75 0 01-.62-.94 3.08 3.08 0 01-.22-1.17v-.24h5.77a1.86 1.86 0 000-.27v-.31a3.1 3.1 0 00-.22-1.18 2.78 2.78 0 00-.63-.94 3 3 0 00-1-.62 3.57 3.57 0 00-1.29-.23 3.66 3.66 0 00-1.46.29 3.18 3.18 0 00-1.12.78 3.49 3.49 0 00-.73 1.2 4.28 4.28 0 00-.25 1.49 3.93 3.93 0 00.27 1.45 3.84 3.84 0 00.78 1.19 3.75 3.75 0 001.21.82 4.09 4.09 0 001.64.27zm2-4.64h-4.89a2.73 2.73 0 01.92-1.59 2.64 2.64 0 011.7-.56 2.19 2.19 0 011.61.63 2.15 2.15 0 01.66 1.52zm7.76 4.36V22.58h-.84v10.36zm3-6.13l1.35-3.54h-1l-1.15 3.54zm4-3a.65.65 0 00.46-.18.6.6 0 00.18-.44.58.58 0 00-.18-.43.68.68 0 00-.92 0 .56.56 0 00-.19.43.58.58 0 00.19.44.65.65 0 00.49.15zm.41 9.16V26h-.83v7zm3.65 0v-5a3.33 3.33 0 011-1.07 2.54 2.54 0 011.44-.39 2 2 0 011.5.57 2.23 2.23 0 01.57 1.65v4.24h.85v-4.3a2.92 2.92 0 00-.8-2.2 2.77 2.77 0 00-2-.77 3.08 3.08 0 00-1.46.33 3.48 3.48 0 00-1.09.9V26h-.84v7zm11.19.28a3.84 3.84 0 001.74-.39 3.74 3.74 0 001.25-1l-.68-.51a2.78 2.78 0 01-1 .84 2.85 2.85 0 01-1.34.32 3 3 0 01-1.2-.24 2.75 2.75 0 01-.95-.64 2.89 2.89 0 01-.62-.95 3 3 0 01-.22-1.16 3 3 0 01.22-1.15 2.9 2.9 0 012.76-1.83 2.73 2.73 0 012.31 1.16l.68-.51a3.52 3.52 0 00-1.25-1 3.72 3.72 0 00-1.74-.4 3.87 3.87 0 00-1.58.31 3.59 3.59 0 00-2 2 3.85 3.85 0 00-.28 1.44 3.94 3.94 0 00.28 1.45 3.84 3.84 0 00.9 1.11 4 4 0 001.21.82 4 4 0 001.54.3zm5.7-.28V22.58h-.84v10.36zm5.72.28a3 3 0 002.2-.85 3.27 3.27 0 00.85-2.4v-4h-.84v4a2.5 2.5 0 01-.62 1.81 2.1 2.1 0 01-1.59.65 2.15 2.15 0 01-1.63-.65 2.5 2.5 0 01-.62-1.81v-4h-.83v4a3.23 3.23 0 00.85 2.4 3 3 0 002.26.82zm7.4 0a2.38 2.38 0 001.63-.57 1.81 1.81 0 00.65-1.46 1.55 1.55 0 00-.56-1.32 6 6 0 00-1.24-.71 11.72 11.72 0 01-1.23-.6 1.08 1.08 0 01-.57-1 1.09 1.09 0 01.35-.83 1.43 1.43 0 011-.31 2 2 0 01.94.22 2.11 2.11 0 01.72.68l.62-.49a2.82 2.82 0 00-1-.81 3 3 0 00-1.35-.31 2.28 2.28 0 00-1.55.53 1.69 1.69 0 00-.61 1.32 1.63 1.63 0 00.57 1.38 6.12 6.12 0 001.24.73c.45.19.86.39 1.24.59a1 1 0 01.57 1 1.25 1.25 0 01-.39.92 1.5 1.5 0 01-1.08.38 2.32 2.32 0 01-1.05-.25 2.69 2.69 0 01-.88-.75L379 32a3.2 3.2 0 001.12.89 3.45 3.45 0 001.45.33zm4.88-9.44a.61.61 0 00.45-.18.58.58 0 00.19-.44.56.56 0 00-.19-.43.61.61 0 00-.45-.18.65.65 0 00-.46.18.56.56 0 00-.19.43.58.58 0 00.19.44.65.65 0 00.49.15zm.41 9.16V26H386v7zm6 .28a3.86 3.86 0 001.57-.31 3.91 3.91 0 001.22-.82 3.77 3.77 0 00.78-1.2 3.92 3.92 0 000-2.86 3.72 3.72 0 00-.78-1.19 3.77 3.77 0 00-1.22-.87 4 4 0 00-1.57-.31 4 4 0 00-1.56.31 3.72 3.72 0 00-1.21.83 3.42 3.42 0 00-.78 1.19 3.79 3.79 0 000 2.86 3.46 3.46 0 00.78 1.2 3.86 3.86 0 001.21.82 3.78 3.78 0 001.56.32zm0-.77a2.92 2.92 0 01-1.2-.24 3.2 3.2 0 01-.95-.65 3.08 3.08 0 01-.83-2.1 3 3 0 01.22-1.14 2.87 2.87 0 01.61-.95 3 3 0 01.95-.65 2.94 2.94 0 013.3.65 3 3 0 01.61.95 3 3 0 01.22 1.14 2.93 2.93 0 01-.22 1.14A3 3 0 01394 32.2a2.93 2.93 0 01-1.15.25zm6.79.49v-5a3.33 3.33 0 011-1.07 2.54 2.54 0 011.44-.39 2 2 0 011.5.57 2.23 2.23 0 01.57 1.65v4.24h.87v-4.3a2.92 2.92 0 00-.79-2.2 2.81 2.81 0 00-2-.77 3.08 3.08 0 00-1.46.33 3.48 3.48 0 00-1.09.9V26h-.84v7z"/></g></g></svg>