<svg width="140" height="64" fill="none" xmlns="http://www.w3.org/2000/svg">
    <g clip-path="url(#a)">
        <path d="M.3 5.1h15.4c8.4 0 13.1 3.9 13.1 10.8 0 7-4.7 10.8-13.1 10.8H.3V5.1Zm14.3 16.3c4.2 0 6.6-2 6.6-5.5s-2.4-5.5-6.6-5.5H8v11h6.6Zm90.9-16.3h9.2l10.6 21.7h-8.2l-1.7-3.8h-10.8l-1.7 3.8h-8.2l10.8-21.7Zm8.4 13.4L110 9.9l-3.9 8.6h7.8Zm-31.1 5.2-1.4-2.3c-.9-1.3-2.2-1.9-3.7-1.9h-4.6v7.2h-7.9V5h18.3c5.8 0 9.2 2.5 9.2 6.9 0 3.2-2.3 5.5-6.3 6.3.7.3 1.4.8 1.9 1.6l1.5 2.3c.4.5.9.9 1.8.9.5 0 1.2-.3 1.6-.7l1.3 3.2c-1.2 1-3.6 1.8-5.6 1.8-3.2.1-4.9-1.8-6.1-3.6Zm-1.7-8.6c2.3 0 3.6-1 3.6-2.7 0-1.7-1.3-2.7-3.6-2.7h-8v5.4h8Z" fill="#5B12EB"/>
        <path d="M46.8 0C38 0 30.9 7.1 30.9 15.9 30.9 29 46.8 36 46.8 36s15.9-7 15.9-20.1C62.7 7.1 55.6 0 46.8 0Zm3.9 19.8c-2.1 2.1-5.6 2.1-7.7 0-2.1-2.1-2.1-5.6 0-7.7 2.1-2.1 5.6-2.1 7.7 0 2.1 2.1 2.1 5.5 0 7.7Z" fill="#9C6FF4"/>
        <path d="M0 39.6h3.1c2.5 0 4.2 1.8 4.2 4 0 2.1-1.7 4-4.2 4H0v-8Zm1.1 1v6h2c1.8 0 3.1-1.3 3.1-3s-1.3-3-3.1-3h-2Zm10.4 7.2c-1.9 0-3.1-1.4-3.1-3.1 0-1.7 1.1-3.1 2.9-3.1 1.6 0 2.6 1.1 2.6 2.5 0 .2 0 .4-.1.6H9.4c0 1.4.9 2.2 2.1 2.2.7 0 1.4-.3 1.7-.9l.7.6c-.4.7-1.3 1.2-2.4 1.2Zm-2-3.8h3.4c0-.8-.6-1.5-1.6-1.5-1-.1-1.6.5-1.8 1.5Zm1.4-3.1L12 39h1.1l-1.3 1.9h-.9Zm8.8 5.1.8.6c-.5.7-1.4 1.2-2.4 1.2-1.9 0-3.1-1.4-3.1-3.1 0-1.7 1.2-3.1 3.1-3.1 1 0 1.9.5 2.4 1.2l-.8.6c-.4-.5-.9-.8-1.6-.8-1.2 0-2.1 1-2.1 2.2 0 1.2.9 2.2 2.1 2.2.7-.1 1.3-.5 1.6-1Zm7.6-1.3c0 1.7-1.3 3.1-3.1 3.1-1.9 0-3.1-1.4-3.1-3.1 0-1.7 1.2-3.1 3.1-3.1 1.8 0 3.1 1.4 3.1 3.1Zm-1 0c0-1.2-.9-2.2-2.1-2.2-1.2 0-2.1 1-2.1 2.2 0 1.2.9 2.2 2.1 2.2 1.2 0 2.1-1 2.1-2.2Zm6.5-2.9h1V45c0 1.7-1 2.7-2.5 2.7s-2.5-1-2.5-2.7v-3.2h1v3.3c0 1.1.6 1.8 1.6 1.8s1.6-.6 1.6-1.8v-3.3h-.2Zm3.1 0 1.8 4.7 1.8-4.7h1l-2.2 5.7H37l-2.2-5.7h1.1Zm5.9 0h1v.7c.4-.5.9-.8 1.7-.8.2 0 .4 0 .5.1v.9c-.2 0-.3-.1-.6-.1-.7 0-1.2.4-1.6 1v3.9h-1v-5.7Zm4.3-2.1c0-.4.3-.7.7-.7.4 0 .7.3.7.7 0 .4-.3.7-.7.7-.4-.1-.7-.4-.7-.7Zm.2 2.1h1v5.7h-1v-5.7Zm3 0h1v.7c.4-.5.9-.8 1.7-.8.2 0 .4 0 .5.1v.9c-.2 0-.3-.1-.6-.1-.7 0-1.2.4-1.6 1v3.9h-1v-5.7Zm2.9 7.6 1-3h1.1l-1.2 3h-.9Zm14.5-5.8c0 2.3-1.7 4.2-4.2 4.2s-4.2-1.9-4.2-4.2c0-2.3 1.7-4.2 4.2-4.2s4.2 1.9 4.2 4.2Zm-1.1 0c0-1.8-1.3-3.2-3.1-3.2s-3.1 1.4-3.1 3.2c0 1.8 1.3 3.2 3.1 3.2s3.1-1.5 3.1-3.2Zm2.7-1.8h1v.7c.4-.5.9-.8 1.7-.8.2 0 .4 0 .5.1v.9c-.2 0-.3-.1-.6-.1-.7 0-1.2.4-1.6 1v3.9h-1v-5.7Zm4.3-2.1c0-.4.3-.7.7-.7.4 0 .7.3.7.7 0 .4-.3.7-.7.7-.4-.1-.7-.4-.7-.7Zm.2 2.1h1v5.7h-1v-5.7Zm5.7 6c-1.9 0-3.1-1.4-3.1-3.1 0-1.7 1.1-3.1 2.9-3.1 1.6 0 2.6 1.1 2.6 2.5 0 .2 0 .4-.1.6h-4.4c0 1.4.9 2.2 2.1 2.2.7 0 1.4-.3 1.7-.9l.7.6c-.5.7-1.4 1.2-2.4 1.2ZM76.4 44h3.4c0-.8-.6-1.5-1.6-1.5-.9-.1-1.6.5-1.8 1.5Zm6-2.2h1v.6c.5-.5 1.1-.9 1.9-.9 1.3 0 2.2.9 2.2 2.5v3.5h-1v-3.4c0-1-.6-1.6-1.5-1.6-.8 0-1.3.5-1.7 1.1v4h-1v-5.8h.1Zm7.4.9h-1.1v-.9h1.1v-1.4h1v1.4h2v.9h-2v2.9c0 .9.5 1.1 1.1 1.1.4 0 .6 0 .8-.1v.9c-.3.1-.6.2-1 .2-1.3 0-2-.6-2-2v-3h.1Zm7 5.1c-1.9 0-3.1-1.4-3.1-3.1 0-1.7 1.1-3.1 2.9-3.1 1.6 0 2.6 1.1 2.6 2.5 0 .2 0 .4-.1.6h-4.4c0 1.4.9 2.2 2.1 2.2.7 0 1.4-.3 1.7-.9l.7.6c-.5.7-1.4 1.2-2.4 1.2ZM94.7 44h3.4c0-.8-.6-1.5-1.6-1.5-.9-.1-1.6.5-1.8 1.5Zm6-2.2h1v.7c.4-.5.9-.8 1.7-.8.2 0 .4 0 .5.1v.9c-.2 0-.3-.1-.6-.1-.7 0-1.2.4-1.6 1v3.9h-1v-5.7Zm2.9 7.6 1-3h1.1l-1.2 3h-.9ZM0 53.2h2.1c1.6 0 2.6.9 2.6 2.2 0 1-.5 1.7-1.3 2L6 61.1H4.7l-2.3-3.5H1.1v3.5H0v-7.9Zm1.1.9v2.6h1.1c.9 0 1.4-.5 1.4-1.3s-.5-1.3-1.4-1.3H1.1Zm8.5 7.3c-1.9 0-3.1-1.4-3.1-3.1 0-1.7 1.1-3.1 2.9-3.1 1.6 0 2.6 1.1 2.6 2.5 0 .2 0 .4-.1.6H7.5c0 1.4.9 2.2 2.1 2.2.7 0 1.4-.3 1.7-.9l.7.6c-.5.7-1.3 1.2-2.4 1.2Zm-2.1-3.8H11c0-.8-.6-1.5-1.6-1.5-1-.1-1.7.5-1.9 1.5Zm6.1-2.2h1v.6c.5-.5 1.1-.9 1.9-.9 1.3 0 2.2.9 2.2 2.5v3.5h-1v-3.4c0-1-.6-1.6-1.5-1.6-.8 0-1.3.5-1.7 1.1v4h-1v-5.8h.1Zm7.1 4.4c.4.5.9.8 1.5.8s1-.4 1-.9c0-1.3-2.9-.8-2.9-2.8 0-.9.8-1.6 1.9-1.6.8 0 1.5.4 1.9.9l-.7.6c-.3-.4-.7-.7-1.2-.7-.6 0-.9.4-.9.8 0 1.3 2.9.9 2.9 2.8 0 1.1-.9 1.7-1.9 1.7-.9 0-1.6-.4-2.1-1l.5-.6Zm7.5 1.6c-1.9 0-3.1-1.4-3.1-3.1 0-1.7 1.1-3.1 2.9-3.1 1.6 0 2.6 1.1 2.6 2.5 0 .2 0 .4-.1.6h-4.4c0 1.4.9 2.2 2.1 2.2.7 0 1.4-.3 1.7-.9l.7.6c-.5.7-1.3 1.2-2.4 1.2Zm-2.1-3.8h3.4c0-.8-.6-1.5-1.6-1.5-.9-.1-1.6.5-1.8 1.5Zm5.9-4.3c0-.4.3-.7.7-.7.4 0 .7.3.7.7 0 .4-.3.7-.7.7-.4 0-.7-.4-.7-.7Zm.1 2.1h1v5.7h-1v-5.7Zm3.2 5.4c-.3-.2-.4-.5-.4-.8 0-.5.2-.8.7-1.1-.5-.4-.8-1-.8-1.6 0-1.1.9-2 2.2-2 .4 0 .8.1 1.1.2h2.1v.8H39c.2.3.2.6.2 1 0 1.1-.9 2-2.2 2-.3 0-.6 0-.8-.1-.2.2-.4.4-.4.6 0 .2.1.4.5.4H38c1.5 0 2.2.7 2.2 1.8 0 1.2-1.2 2.1-2.9 2.1s-2.8-.7-2.8-1.8c0-.7.3-1.1.8-1.5Zm2 2.4c1.2 0 2-.5 2-1.2 0-.5-.3-1-1.3-1h-1.9c-.4.3-.6.6-.6 1.1-.1.7.7 1.1 1.8 1.1Zm1.1-6c0-.7-.5-1.3-1.3-1.3-.9 0-1.3.6-1.3 1.3 0 .7.5 1.3 1.3 1.3s1.3-.6 1.3-1.3Zm3.1-1.8h1v.6c.5-.5 1.1-.9 1.9-.9 1.3 0 2.2.9 2.2 2.5v3.5h-1v-3.4c0-1-.6-1.6-1.5-1.6-.8 0-1.3.5-1.7 1.1v4h-1v-5.8h.1Zm9.6 6c-1.9 0-3.1-1.4-3.1-3.1 0-1.7 1.1-3.1 2.9-3.1 1.6 0 2.6 1.1 2.6 2.5 0 .2 0 .4-.1.6H49c0 1.4.9 2.2 2.1 2.2.7 0 1.4-.3 1.7-.9l.7.6c-.4.7-1.3 1.2-2.4 1.2Zm-2-3.8h3.4c0-.8-.6-1.5-1.6-1.5-1-.1-1.6.5-1.8 1.5Zm6-2.2h1v.7c.4-.5.9-.8 1.7-.8.2 0 .4 0 .5.1v.9c-.2 0-.3-.1-.6-.1-.7 0-1.2.4-1.6 1v3.9h-1v-5.7ZM58 63l1-3h1l-1.2 3H58Zm9.1-9.8h1.4l3.2 7.9h-1.1l-.9-2.3H66l-1 2.4h-1.1l3.2-8Zm2.1 4.7-1.5-3.8-1.5 3.8h3Zm8 1.7.8.6c-.5.7-1.4 1.2-2.4 1.2-1.9 0-3.1-1.4-3.1-3.1 0-1.7 1.2-3.1 3.1-3.1 1 0 1.9.5 2.4 1.2l-.8.6c-.4-.5-.9-.8-1.6-.8-1.2 0-2.1 1-2.1 2.2 0 1.2.9 2.2 2.1 2.2.7-.1 1.3-.5 1.6-1Zm6.1 0 .8.6c-.5.7-1.4 1.2-2.4 1.2-1.9 0-3.1-1.4-3.1-3.1 0-1.7 1.2-3.1 3.1-3.1 1 0 1.9.5 2.4 1.2l-.8.6c-.4-.5-.9-.8-1.6-.8-1.2 0-2.1 1-2.1 2.2 0 1.2.9 2.2 2.1 2.2.7-.1 1.3-.5 1.6-1Zm7.6-1.3c0 1.7-1.3 3.1-3.1 3.1-1.9 0-3.1-1.4-3.1-3.1 0-1.7 1.2-3.1 3.1-3.1 1.8 0 3.1 1.4 3.1 3.1Zm-1 0c0-1.2-.9-2.2-2.1-2.2-1.2 0-2.1 1-2.1 2.2 0 1.2.9 2.2 2.1 2.2 1.2 0 2.1-1 2.1-2.2Zm2.6-2.9h1v.6c.4-.5 1-.9 1.8-.9s1.5.4 1.9 1.1c.5-.6 1.1-1.1 2-1.1 1.2 0 2.1.8 2.1 2.4v3.6h-1v-3.5c0-1-.5-1.5-1.4-1.5-.7 0-1.2.4-1.6 1.1v4h-1v-3.5c0-1-.5-1.5-1.4-1.5-.8 0-1.3.5-1.6 1.1v4h-1v-5.9h.2Zm10.7 0h1v.7c.5-.6 1.2-.9 2-.9 1.8 0 2.9 1.4 2.9 3.1 0 1.7-1.1 3.1-2.9 3.1-.9 0-1.5-.3-2-.9V64h-1v-8.6Zm.9 1.8v2.2c.4.7 1.1 1.1 1.9 1.1 1.2 0 2-1 2-2.2 0-1.2-.8-2.2-2-2.2-.7 0-1.4.4-1.9 1.1Zm6.1 2.5c0-.9.7-1.5 1.9-1.7l1.9-.3v-.4c0-.8-.6-1.2-1.4-1.2-.7 0-1.2.3-1.5.8l-.7-.6c.5-.7 1.3-1.1 2.3-1.1 1.5 0 2.3.9 2.3 2.1v3.8h-1v-.7c-.4.6-1.2.9-1.9.9-1.1 0-1.9-.6-1.9-1.6Zm2.1.8c.8 0 1.4-.4 1.8-1v-1.1l-1.7.3c-.8.1-1.1.5-1.1 1-.1.5.3.8 1 .8Zm4.8.3c-.3-.2-.4-.5-.4-.8 0-.5.2-.8.7-1.1-.5-.4-.8-1-.8-1.6 0-1.1.9-2 2.2-2 .4 0 .8.1 1.1.2h2.1v.8h-1.2c.2.3.2.6.2 1 0 1.1-.9 2-2.2 2-.3 0-.6 0-.8-.1-.2.2-.4.4-.4.6 0 .2.1.4.5.4h1.6c1.5 0 2.2.7 2.2 1.8 0 1.2-1.2 2.1-2.9 2.1s-2.8-.7-2.8-1.8c.1-.7.4-1.1.9-1.5Zm2 2.4c1.2 0 2-.5 2-1.2 0-.5-.3-1-1.3-1h-1.9c-.4.3-.6.6-.6 1.1-.1.7.6 1.1 1.8 1.1Zm1.1-6c0-.7-.5-1.3-1.3-1.3-.9 0-1.3.6-1.3 1.3 0 .7.5 1.3 1.3 1.3s1.3-.6 1.3-1.3Zm3-1.8h1v.6c.5-.5 1.1-.9 1.9-.9 1.3 0 2.2.9 2.2 2.5v3.5h-1v-3.4c0-1-.6-1.6-1.5-1.6-.8 0-1.3.5-1.7 1.1v4h-1v-5.8h.1Zm9.7 6c-1.9 0-3.1-1.4-3.1-3.1 0-1.7 1.1-3.1 2.9-3.1 1.6 0 2.6 1.1 2.6 2.5 0 .2 0 .4-.1.6h-4.4c0 1.4.9 2.2 2.1 2.2.7 0 1.4-.3 1.7-.9l.7.6c-.5.7-1.3 1.2-2.4 1.2Zm-2-3.8h3.4c0-.8-.6-1.5-1.6-1.5-1-.1-1.6.5-1.8 1.5Zm6-2.2h1v.7c.4-.5.9-.8 1.7-.8.2 0 .4 0 .5.1v.9c-.2 0-.3-.1-.6-.1-.7 0-1.2.4-1.6 1v3.9h-1v-5.7Z" fill="#555"/>
    </g>
    <defs>
        <clipPath id="a">
            <path fill="#fff" d="M0 0h140v64H0z"/>
        </clipPath>
    </defs>
</svg>
