<svg id="Calque_1" data-name="Calque 1" xmlns="http://www.w3.org/2000/svg" viewBox="0 0 277.48 90"><defs><style>.cls-2{isolation:isolate;font-size:12px;fill:#1e1e1e;font-family:Arial-BoldMT,Arial;font-weight:700;letter-spacing:0}.cls-10{fill:#006adc}.cls-11{fill:#000638}</style></defs><g id="Page-1"><g id="Emploi-new-header"><g id="_01-Fondamentaux_bloc-marque_Marianne-_12" data-name="01-Fondamentaux/bloc-marque/Marianne-⭥12"><g id="devises"><path id="Shape" d="M41.7 74.6c.26 0 .49.2.37.67l-1.21.33c.19-.58.55-1 .84-1m.67 2h-.24a1.46 1.46 0 01-1 .65c-.33 0-.5-.21-.5-.65a2.42 2.42 0 01.06-.54l2-.65c.39-.91-.07-1.31-.61-1.31-.92 0-2 1.62-2 2.92 0 .61.29 1 .75 1s1.08-.53 1.53-1.37m-.31-2.93l1.12-1v-.14h-.75l-.66 1.16zm-4.18 1h.65l-1 2.84a.33.33 0 00.29.48 2.31 2.31 0 001.94-1.52h-.18a2.35 2.35 0 01-1.27.86l.95-2.66h1l.12-.4h-1l.36-1h-.37l-.67 1-.81.1v.3zm-.67-.13a.28.28 0 00-.23-.41 1.85 1.85 0 00-1.51 1.23h.18a1.37 1.37 0 01.79-.6l-1.08 2.82a.29.29 0 00.23.41A1.79 1.79 0 0037 76.71h-.19a1.37 1.37 0 01-.79.6zm.11-1.13a.44.44 0 00.44-.44.44.44 0 00-.44-.44.44.44 0 00-.44.44.44.44 0 00.44.44m-5.24 1.5c.16 0 .26.27 0 .84l-.77 1.71c-.15.32 0 .53.32.53a.32.32 0 00.36-.26l.76-2a2.58 2.58 0 011.26-.96c.2 0 .18.16 0 .42l-1.15 2.22a.33.33 0 00.28.48 1.85 1.85 0 001.52-1.23h-.18a1.39 1.39 0 01-.8.6l1-2a1.53 1.53 0 00.19-.69.49.49 0 00-.53-.54c-.49 0-.91.56-1.5 1.24v-.53c0-.37-.12-.71-.45-.71s-.76.62-1 1.23h.18c.16-.29.33-.45.48-.45m-.78.08c.13-.46.06-.87-.29-.87s-.58.3-1 1.24v-.53c0-.37-.12-.71-.46-.71s-.75.61-1 1.23h.18c.19-.28.37-.45.52-.45s.26.27 0 .84l-.77 1.71c-.15.32 0 .52.32.52a.32.32 0 00.36-.25l.76-2c.21-.26.41-.49.65-.74zm-4.17-.34c.27 0 .49.2.37.67l-1.21.33c.19-.58.55-1 .84-1m.67 2h-.24a1.46 1.46 0 01-1 .65c-.33 0-.5-.21-.5-.65a2.42 2.42 0 01.06-.54l2-.65c.38-.91-.08-1.31-.62-1.31-.92 0-2 1.62-2 2.92 0 .61.29 1 .75 1s1.08-.53 1.53-1.37m-4.48-1.95H24l-1 2.84a.33.33 0 00.29.48 2.31 2.31 0 001.94-1.52H25a2.35 2.35 0 01-1.27.86l.95-2.66h1l.12-.4h-1l.36-1h-.37l-.67 1-.8.1v.3zm-3.44 2.2c0-.88 1-2 1.52-2a.85.85 0 01.33 0l-.56 1.51c-.33.39-.83.87-1.07.87s-.22-.12-.22-.38m3-2.9h-.3l-.34.34h-.06a3.51 3.51 0 00-2.95 3.17.49.49 0 00.53.54c.42 0 .83-.6 1.28-1.24v.23c-.06.65.14 1 .48 1s.76-.62 1-1.23h-.18c-.19.28-.37.45-.51.45s-.26-.27 0-.84zm-3.05 1c.13-.46.06-.87-.29-.87s-.57.3-1 1.24v-.53c0-.37-.12-.71-.45-.71s-.76.61-1 1.23h.18c.19-.28.37-.45.5-.45s.26.27 0 .84l-.77 1.72c-.14.32 0 .53.33.53s.27 0 .36-.26l.75-2c.22-.26.41-.49.65-.74h.79zm-5 2.85l.07-.21c-.95-.18-1.07-.18-.69-1.2l.35-1h.76c.47 0 .47.2.41.72H16l.62-1.71h-.26c-.23.41-.42.72-.92.72h-.76l.52-1.4c.18-.51.26-.6.91-.6h.17c.66 0 .73.18.73.87h.26l.22-1.16h-3.68l-.07.22c.76.15.83.22.48 1.2l-.78 2.08c-.36 1-.5 1-1.37 1.2l-.07.23z"/><path id="Shape-2" data-name="Shape" d="M32.88 66.37c.26 0 .49.2.37.66l-1.25.32c.2-.56.56-1 .84-1m.67 1.95h-.24a1.46 1.46 0 01-1 .65c-.33 0-.5-.2-.5-.65a2.42 2.42 0 01.06-.54l2-.64c.38-.92-.09-1.31-.62-1.31-.92 0-2 1.62-2 2.91 0 .62.29 1 .75 1s1.08-.51 1.52-1.37m-.31-2.91l1.12-1v-.15h-.75L33 65.41zm-4.16 1h.64l-1 2.83a.33.33 0 00.29.48 2.29 2.29 0 001.94-1.51h-.18a2.33 2.33 0 01-1.27.85l1-2.65h1l.12-.41h-1l.36-1h-.37l-.67 1-.8.11v.3zm-.68-.14c.08-.27-.09-.41-.24-.41a1.87 1.87 0 00-1.51 1.22h.18a1.41 1.41 0 01.79-.6l-1.08 2.82a.28.28 0 00.23.41 1.78 1.78 0 001.44-1.22H28a1.41 1.41 0 01-.79.6zm.11-1.12a.45.45 0 00.45-.44.46.46 0 00-.45-.45.45.45 0 000 .89M25 69.07l1.79-4.75-.06-.08-1.23.15v.14l.24.18c.21.17.14.33-.05.85l-1.37 3.65a.33.33 0 00.29.48 1.77 1.77 0 001.44-1.22h-.18a1.66 1.66 0 01-.87.6m-3.66-.48c0-.88 1-2 1.52-2a1.19 1.19 0 01.33 0l-.56 1.52c-.33.39-.83.87-1.06.87s-.23-.12-.23-.38m3-2.91h-.3l-.34.34h-.06a3.51 3.51 0 00-2.95 3.16.49.49 0 00.53.54c.42 0 .83-.6 1.28-1.23v.23c-.06.64.14 1 .48 1s.76-.61 1-1.22h-.18c-.19.28-.37.44-.51.44s-.26-.26 0-.84zm-6.92 4.71c0-.37.36-.61.87-.82a4.93 4.93 0 00.77.29c.54.18.74.25.74.41 0 .35-.49.61-1.39.61-.67 0-1-.14-1-.49m1.47-2.29c-.24 0-.32-.21-.32-.42 0-.7.33-1.56.87-1.56.24 0 .33.2.33.42 0 .7-.35 1.56-.88 1.56M20.44 70c0-.46-.41-.61-1.07-.82s-.82-.21-.82-.4a.59.59 0 01.36-.46 1.65 1.65 0 001.53-1.62 1.36 1.36 0 00-.06-.36H21l.12-.41h-1.07a1 1 0 00-.53-.14 1.63 1.63 0 00-1.6 1.62.83.83 0 00.73.89c-.46.21-.72.44-.72.73a.41.41 0 00.2.38c-1.05.31-1.49.7-1.49 1.17s.65.69 1.41.69c1.31 0 2.39-.68 2.39-1.27m-4.88-2.87c.47 0 .48.21.41.72h.27l.62-1.7h-.26c-.23.41-.42.72-.93.72h-1l.5-1.41c.18-.5.27-.6.92-.6h.45c.66 0 .73.18.73.88h.27l.21-1.16h-3.94l-.07.21c.76.16.83.23.48 1.2l-.78 2.1c-.36 1-.5 1.05-1.38 1.2l-.06.23h4.34l.78-1.24h-.3a2.56 2.56 0 01-2 1c-1.15 0-1.05-.06-.67-1.13l.36-1h1zm.57-2.93l1.11-.8v-.1h-.74l-.66 1h.29z"/><path id="Shape-3" data-name="Shape" d="M32.75 58.14c.26 0 .49.2.37.66l-1.21.32c.19-.56.55-1 .84-1m.67 2h-.24a1.49 1.49 0 01-1 .65c-.34 0-.5-.2-.5-.65a2.42 2.42 0 01.06-.54l1.95-.65c.39-.91-.08-1.3-.61-1.3-.92 0-2 1.62-2 2.91 0 .61.29.94.74.94s1.08-.51 1.54-1.36m-.31-2.91l1.11-1V56h-.74l-.66 1.17zm-4.18 1h.65l-1 2.83a.32.32 0 00.29.48A2.31 2.31 0 0030.78 60h-.18a2.33 2.33 0 01-1.27.85l1-2.65h1l.12-.41h-.95l.36-1h-.37l-.67 1-.81.11v.3zm-.33.31c.13-.45.06-.86-.29-.86s-.58.3-1 1.23v-.52c0-.38-.12-.71-.46-.71s-.75.61-1 1.22H26c.19-.27.37-.44.5-.44s.27.26 0 .84l-.76 1.7c-.15.33 0 .53.32.53a.32.32 0 00.36-.25l.76-2a9.06 9.06 0 01.64-.75zm-4.18-.33c.26 0 .49.2.37.66l-1.21.32c.2-.56.55-1 .84-1m.67 2h-.24a1.46 1.46 0 01-1 .65c-.33 0-.5-.2-.5-.65a2.42 2.42 0 01.06-.54l1.95-.65c.39-.91-.07-1.3-.61-1.3-.92 0-2 1.62-2 2.91 0 .61.29.94.75.94s1.08-.51 1.53-1.36m-4.57.79c-.19 0-.47-.18-.47-.33a4.62 4.62 0 01.19-.54l.32-.84c.33-.41.86-.84 1.15-.84s.31.11.31.37c0 .78-.72 2.18-1.5 2.18m2.3-2.56c0-.58-.14-.79-.55-.79s-1 .54-1.44 1.19l1-2.7-.05-.1-1.24.15v.14l.24.18c.22.17.15.34 0 .85l-1.1 2.86a4 4 0 00-.2.6c0 .33.46.66.88.66.93 0 2.5-1.72 2.5-3.05M19 58c.07-.27-.09-.41-.24-.41a1.85 1.85 0 00-1.51 1.22h.18a1.41 1.41 0 01.79-.6l-1.08 2.82a.28.28 0 00.24.41 1.79 1.79 0 001.44-1.22h-.18a1.41 1.41 0 01-.79.6zm.12-1.13a.46.46 0 00.45-.45.45.45 0 00-.45-.44.45.45 0 000 .89m-2.76-.53h-2.55l-.07.22c.76.15.83.22.48 1.2l-.78 2.12c-.36 1-.5 1-1.37 1.2l-.07.22h3.92l.86-1.52h-.3C16 60.34 15.43 61 14.56 61c-.66 0-.76-.12-.39-1.13l.77-2.11c.36-1 .5-1 1.38-1.2z"/></g><g id="Intitulé-officiel" style="isolation:isolate"><text class="cls-2" transform="translate(12 42)">MINISTÈRE</text><text transform="translate(77.83 42)" font-size="12" fill="#1e1e1e" font-family="Arial-BoldMT,Arial" font-weight="700" letter-spacing="0"></text><text class="cls-2" transform="translate(12 54)">DU TR<tspan x="36.9" y="0" letter-spacing="-.07em">AV</tspan><tspan x="51.89" y="0">AI</tspan><tspan x="63.98" y="0" letter-spacing="-.01em">L</tspan></text></g><g id="_12" data-name="⭥12"><path id="Rectangle" fill="#fff" d="M12 12h33v12H12z"/><path id="Shape-4" data-name="Shape" d="M25.69 22.59c.13-.13.26-.27.38-.41a7.78 7.78 0 01.75-.77l.25-.2s0-.07.05-.09c-.12.05-.18.14-.3.18s-.05 0 0 0l.24-.19a.89.89 0 00-.72.34h-.12c-.33.12-.58.41-.92.54-.14 0-.27.13-.41.16a2.67 2.67 0 01-.56 0 7.4 7.4 0 00-.82.15 1.48 1.48 0 00-.42.17.43.43 0 01-.16.14 2.63 2.63 0 00-.37.29l-.36.35H22l.06-.09.04-.16a1.13 1.13 0 01.1-.13 2.14 2.14 0 01.39-.28v-.06l-.11.07c-.05 0-.09.15-.17.15v-.16a.42.42 0 01.16-.13l.26-.15a1.52 1.52 0 00-.36.18h-.05c0-.05.09-.07.14-.12.73-.57 1.72-.43 2.56-.73l.2-.13c.11-.05.2-.16.34-.23a1 1 0 00.38-.52.08.08 0 000-.05 3.55 3.55 0 01-1 .75 4 4 0 01-1.49.27c0-.05.07-.05.12-.05s0-.08.09-.13h.06s0-.05.05-.05h.09c-.02 0-.2.06-.32 0 .05-.05 0-.11.07-.14h.09l.05-.09c.33-.2.65-.36 1-.54-.07 0-.12.07-.18 0s0-.06.05-.06c.24-.07.45-.21.69-.3-.08 0-.15.07-.24 0s.06-.06.13-.06v-.07s.09 0 .14-.06-.07 0-.07 0a.43.43 0 01.29-.13c0-.05-.09 0-.09-.05s0 0 .05 0h-.05v-.09a1.41 1.41 0 00.2-.55 1.86 1.86 0 01-.93.43h-.11a.45.45 0 01-.39 0c-.09-.05-.13-.12-.22-.18a2.32 2.32 0 00-.57-.28 5.1 5.1 0 00-1.73-.24 3.58 3.58 0 01.79-.23 3.46 3.46 0 011.15-.23.89.89 0 00-.23 0 3.79 3.79 0 00-1 .14c-.23.05-.43.14-.66.18s-.2.18-.36.16v-.51a1.36 1.36 0 01.86-.57 4.4 4.4 0 011.2 0 5.4 5.4 0 01.86.16c.11 0 .13.18.22.2s.27 0 .41.09 0-.09 0-.13.2 0 .29 0-.16-.31-.25-.47a2.35 2.35 0 00.54.45c.11.05.38.12.33 0a3.24 3.24 0 00-.52-.68v-.09l-.06-.05v-.09c-.09 0-.07-.13-.11-.2s0-.27-.07-.41a1.75 1.75 0 01-.09-.38c-.07-.39-.16-.73-.21-1.09a2.15 2.15 0 01.45-1.15 1.87 1.87 0 01.64-.73 1.85 1.85 0 01.43-.72 1.78 1.78 0 01.69-.46c.32-.14.6-.23.6-.23H12V24h11.08a10.34 10.34 0 011.46-.75 5.92 5.92 0 001.15-.66M22.21 21h-.11c.02 0 .18-.11.27-.16s.12-.06.16 0 .12 0 .16.09c-.14.14-.32.07-.48.14m-3.45-.5a7.08 7.08 0 00.72-1.15 3.13 3.13 0 00.77-.64 4.21 4.21 0 011.26-1 .86.86 0 01.59 0c-.07.09-.18.07-.27.14s0 0-.07 0a.08.08 0 000-.07c-.23.25-.54.36-.72.66s-.23.52-.52.59c-.09 0 0-.07 0-.05a7.65 7.65 0 00-1.74 1.57M20.63 19c0 .05 0 .05-.06.09a.19.19 0 01-.09.09h-.05a.26.26 0 01.18-.2m1.05 3.4l-.05.06a.41.41 0 01-.17.12.3.3 0 01-.08.08h-.12a1.29 1.29 0 00.17-.16.81.81 0 00.1-.09v-.05h.12m-.4-.19l-.25.18-.3.14a1 1 0 00-.23.18l-.05.05h-.05l-.08.07-.14.14-.23.09v-.05a.86.86 0 00.07-.1v-.1a.14.14 0 000-.06.47.47 0 01.09-.12l-.09.07s-.07 0 0 0l.05-.05a1.31 1.31 0 01.11-.12h.07l.06-.06c.22-.21.58-.2.87-.33.11-.05.24 0 .36 0a.38.38 0 01.2 0c-.2.11-.39.23-.57.35m.21-3.48h.07a.23.23 0 01-.18.23 2.12 2.12 0 01.54.13c0 .05-.07 0-.09 0s.25 0 .36.12c-.07.06-.13 0-.2 0A5.81 5.81 0 0124 20a6.55 6.55 0 01-1.56.48.4.4 0 01-.18 0v.07a.32.32 0 00-.22.05.29.29 0 01-.3 0s.07 0 .09-.05h-.18l-.36.09c-.16 0-.3.16-.48.2s-.45.3-.72.39v-.05c0-.05.11-.09.16-.16a3.71 3.71 0 01.66-.59v-.07c.06-.09.18-.14.22-.25a.42.42 0 01.23-.2s-.07 0-.07-.07-.18 0-.27 0a.31.31 0 01.14-.09h-.05c-.05 0 0-.09.11-.11s.21 0 .28-.09c-.16 0-.34 0-.5-.05a1.17 1.17 0 01.49-.8z" fill="#000091"/><path id="Path" d="M45 12H32.11l.12.05.32.18a1 1 0 01.44.36c0 .07.11.2.07.29s-.07.3-.19.34a.82.82 0 01-.47 0 1.28 1.28 0 01-.27 0 2 2 0 01.88.61c0 .05.11.07.2.07s0 0 0 .07-.09.07-.06.13h.06c.12 0 .09-.27.25-.2a.25.25 0 01.09.34 2.76 2.76 0 01-.27.23.22.22 0 000 .16.57.57 0 01.11.27c.07.16.09.34.16.5a3.29 3.29 0 01.16 1c0 .18-.09.34 0 .52a2.19 2.19 0 00.25.48 3.9 3.9 0 01.25.36c.13.23.38.45.27.73s-.32.13-.48.22 0 .3 0 .41-.14.34-.29.41c0 .07.13.05.15.09s.14.18.07.3-.36.2-.22.41a.63.63 0 010 .5.56.56 0 01-.41.34 1 1 0 01-.42 0 .39.39 0 00-.14-.05 11.31 11.31 0 00-1.13-.12 1.08 1.08 0 00-.32.09 1.55 1.55 0 00-.27.24l-.02.07-.18.26a2.47 2.47 0 00-.17.42 1.41 1.41 0 000 1.07s.75.26 1.25.48a5.06 5.06 0 01.53.27H45V12z" fill="#e1000f"/><path id="Path-2" data-name="Path" d="M32.88 16.37c.09 0 .22 0 .22.07s-.31.23-.45.41h-.07c-.06 0 0 .16-.11.16a.34.34 0 00-.2 0 .39.39 0 00.33.14s.07 0 .07.09v.09c-.06.09-.18 0-.27.06a.92.92 0 00.52 0c.14 0 0-.27.09-.38s0-.07 0-.07a.58.58 0 01.13-.14.16.16 0 00.14-.07s-.09-.06-.07-.11.25-.22.2-.36-.2-.07-.32-.11a.72.72 0 00-.38 0 2.14 2.14 0 00-.34.09 2.18 2.18 0 00-.43.22c.16-.06.32-.08.5-.13a1.7 1.7 0 01.39 0" fill="gray"/></g></g></g></g><g id="Page-1-2" data-name="Page-1"><g id="Emploi-new-header-2" data-name="Emploi-new-header"><g id="Logotype_PDI_Emploi" data-name="Logotype PDI Emploi"><path id="Path-3" data-name="Path" class="cls-10" d="M156.66 48.46a1.39 1.39 0 01-.37-1v-11a1.41 1.41 0 01.41-1.1 1.43 1.43 0 011.11-.4 1.53 1.53 0 011.12.41 1.48 1.48 0 01.4 1.09v9.9h5c1 0 1.43.42 1.43 1.26s-.48 1.23-1.43 1.23h-6.64a1.38 1.38 0 01-1.05-.37z"/><path id="Shape-5" data-name="Shape" class="cls-10" d="M175.31 46.29a1.27 1.27 0 01.25.8 1.07 1.07 0 01-.2.62 1.59 1.59 0 01-.55.48 6.94 6.94 0 01-1.54.57 6.4 6.4 0 01-1.63.22 5.7 5.7 0 01-2.72-.6 4.29 4.29 0 01-1.8-1.73 5.44 5.44 0 01-.62-2.65 5.5 5.5 0 01.6-2.55 4.49 4.49 0 011.69-1.77 4.76 4.76 0 012.44-.64 4.65 4.65 0 012.31.57 4.08 4.08 0 011.53 1.66 5.32 5.32 0 01.55 2.48 1 1 0 01-.21.66.74.74 0 01-.58.23h-5.47a2.6 2.6 0 00.7 1.67 2.28 2.28 0 001.62.51 3.18 3.18 0 001-.13c.3-.09.63-.21 1-.37l.53-.21a1.42 1.42 0 01.45-.08.75.75 0 01.61.26zM170 41.56a2.56 2.56 0 00-.6 1.56h3.77a2.62 2.62 0 00-.52-1.57 1.67 1.67 0 00-1.3-.53 1.8 1.8 0 00-1.35.54z"/><path id="Path-4" data-name="Path" class="cls-10" d="M179 48.79a4.58 4.58 0 01-1.54-.62 1.3 1.3 0 01-.46-.47 1.56 1.56 0 01-.15-.67 1.09 1.09 0 01.26-.75.76.76 0 01.62-.3 1.81 1.81 0 01.51.08l.53.21a8.22 8.22 0 001.08.4 4.36 4.36 0 001.3.14 2.25 2.25 0 001-.21.64.64 0 00.38-.58.59.59 0 00-.16-.44 1.62 1.62 0 00-.63-.31c-.29-.09-.77-.2-1.42-.33a5.3 5.3 0 01-2.5-1 2.38 2.38 0 01-.77-1.86 2.58 2.58 0 01.54-1.58 3.56 3.56 0 011.53-1.07 5.46 5.46 0 012.11-.4 6.31 6.31 0 011.67.2 5.23 5.23 0 011.42.6 1.22 1.22 0 01.62 1.1 1.28 1.28 0 01-.26.78.78.78 0 01-.68.29 2.22 2.22 0 01-1-.35 5.92 5.92 0 00-.9-.38 3.4 3.4 0 00-1-.13 1.76 1.76 0 00-.95.23.67.67 0 00-.35.61.69.69 0 00.41.63 6.48 6.48 0 001.58.43 9.2 9.2 0 012 .61 2.45 2.45 0 011 .92 2.67 2.67 0 01.33 1.39 2.55 2.55 0 01-1.14 2.21A5.1 5.1 0 01181 49a9.1 9.1 0 01-2.08-.19z"/><path id="Shape-6" data-name="Shape" class="cls-10" d="M200.73 46.29a1.2 1.2 0 01.24.8 1 1 0 01-.19.62 1.69 1.69 0 01-.55.48 6.55 6.55 0 01-1.55.57 6.33 6.33 0 01-1.62.22 5.7 5.7 0 01-2.72-.6 4.17 4.17 0 01-1.8-1.73 6 6 0 010-5.25 4.52 4.52 0 011.69-1.78 4.83 4.83 0 012.44-.63 4.62 4.62 0 012.3.57 4 4 0 011.54 1.66 5.32 5.32 0 01.55 2.48 1 1 0 01-.21.66.78.78 0 01-.58.23h-5.47a2.55 2.55 0 00.7 1.67 2.33 2.33 0 001.62.51 3.48 3.48 0 001-.13c.3-.09.63-.21 1-.37l.52-.21a1.44 1.44 0 01.46-.08.74.74 0 01.59.31zm-5.35-4.73a2.51 2.51 0 00-.6 1.56h3.77a2.62 2.62 0 00-.52-1.57 1.67 1.67 0 00-1.3-.53 1.79 1.79 0 00-1.35.54z"/><path id="Path-5" data-name="Path" class="cls-10" d="M217.05 39.94a4.58 4.58 0 01.85 3.06v4.57a1.32 1.32 0 01-.41 1 1.58 1.58 0 01-1 .35 1.64 1.64 0 01-1-.35 1.24 1.24 0 01-.42-1V43a2.12 2.12 0 00-.33-1.32 1.22 1.22 0 00-1-.38 1.67 1.67 0 00-1.32.57 2.37 2.37 0 00-.53 1.62v4.08a1.27 1.27 0 01-.4 1 1.58 1.58 0 01-1 .35 1.64 1.64 0 01-1-.35 1.25 1.25 0 01-.43-1V43a2.05 2.05 0 00-.32-1.32 1.25 1.25 0 00-1-.38 1.65 1.65 0 00-1.31.57 2.31 2.31 0 00-.49 1.58v4.08a1.32 1.32 0 01-.42 1 1.73 1.73 0 01-2.13 0 1.26 1.26 0 01-.44-1v-7.1a1.24 1.24 0 01.44-1 1.7 1.7 0 011-.35 1.45 1.45 0 011 .34 1.21 1.21 0 01.39 1v.19a3.31 3.31 0 011.22-1.13 3.89 3.89 0 011.71-.39 3.54 3.54 0 011.78.39 2.78 2.78 0 011.1 1.36 3.4 3.4 0 011.28-1.3 3.8 3.8 0 011.89-.48 3.06 3.06 0 012.37.95z"/><path id="Shape-7" data-name="Shape" class="cls-10" d="M228.28 39.62a4.32 4.32 0 011.5 1.83 6.11 6.11 0 01.54 2.63 6 6 0 01-.54 2.57 4.15 4.15 0 01-5.49 1.94 3 3 0 01-1.21-1.12v3.69a1.15 1.15 0 01-.4.93 1.41 1.41 0 01-1 .36 1.58 1.58 0 01-1.1-.37 1.26 1.26 0 01-.42-1V40.43a1.35 1.35 0 01.4-1 1.49 1.49 0 011-.38 1.47 1.47 0 011 .38 1.35 1.35 0 01.4 1v.15a3.07 3.07 0 011.3-1.17 3.87 3.87 0 011.8-.42 4 4 0 012.2.63zm-1.46 6.43a3.1 3.1 0 00.57-2 3.3 3.3 0 00-.57-2 2.14 2.14 0 00-3.21 0 4 4 0 000 4.08 2.18 2.18 0 001.61.7 2.16 2.16 0 001.6-.7z"/><path id="Path-6" data-name="Path" class="cls-10" d="M232.54 48.59a1.32 1.32 0 01-.42-1V36.35a1.32 1.32 0 01.42-1 1.7 1.7 0 012 0 1.28 1.28 0 01.42 1v11.22a1.28 1.28 0 01-.42 1 1.58 1.58 0 01-1 .35 1.64 1.64 0 01-1-.35z"/><path id="Shape-8" data-name="Shape" class="cls-10" d="M239.28 48.37a4.24 4.24 0 01-1.77-1.74 5.83 5.83 0 010-5.3 4.36 4.36 0 011.77-1.74 6.29 6.29 0 015.36 0 4.29 4.29 0 011.79 1.74 6 6 0 010 5.3 4.23 4.23 0 01-1.79 1.74 6.15 6.15 0 01-5.36 0zm4.83-4.37a3.22 3.22 0 00-.55-2 1.91 1.91 0 00-1.6-.69c-1.42 0-2.15.92-2.15 2.76s.73 2.76 2.15 2.76 2.15-1.01 2.15-2.83z"/><path id="Shape-9" data-name="Shape" class="cls-10" d="M249.15 37.07a1.38 1.38 0 01-.45-1.1 1.33 1.33 0 01.45-1.07 1.79 1.79 0 011.24-.39 1.75 1.75 0 011.22.4 1.45 1.45 0 010 2.11 2.09 2.09 0 01-2.47 0zm.12 11.52a1.31 1.31 0 01-.41-1v-7.16a1.24 1.24 0 01.42-1 1.64 1.64 0 011-.35 1.56 1.56 0 011 .35 1.28 1.28 0 01.43 1v7.14a1.28 1.28 0 01-.43 1 1.54 1.54 0 01-1 .35 1.63 1.63 0 01-1-.35z"/><path id="Path-7" data-name="Path" class="cls-10" d="M255.65 48.79a4.55 4.55 0 01-1.55-.62 1.2 1.2 0 01-.45-.47 1.44 1.44 0 01-.16-.67 1.09 1.09 0 01.26-.75.79.79 0 01.62-.3 1.75 1.75 0 01.51.08l.53.21a8.65 8.65 0 001.07.4 4.49 4.49 0 001.32.14 2.25 2.25 0 001-.21.64.64 0 00.38-.58.55.55 0 00-.17-.44 1.61 1.61 0 00-.61-.31c-.3-.09-.78-.2-1.43-.33a5.38 5.38 0 01-2.51-1 2.34 2.34 0 01-.76-1.86 2.58 2.58 0 01.54-1.58 3.47 3.47 0 011.52-1.07 5.46 5.46 0 012.11-.4 6.13 6.13 0 011.65.22 5.43 5.43 0 011.43.6 1.32 1.32 0 01.35 1.88.78.78 0 01-.63.31 2.23 2.23 0 01-1.08-.35 5.7 5.7 0 00-.88-.38 3.4 3.4 0 00-1-.13 1.69 1.69 0 00-1 .23.7.7 0 00-.36.61.69.69 0 00.42.63 6.28 6.28 0 001.58.43 9 9 0 012 .61 2.54 2.54 0 011.08.92 2.8 2.8 0 01-.82 3.6 5.13 5.13 0 01-3.05.82 9.42 9.42 0 01-1.91-.24z"/><path id="Shape-10" data-name="Shape" class="cls-11" d="M162.48 55.78a.61.61 0 01.17.42v9.72a.63.63 0 01-.23.7.65.65 0 01-.73 0 .61.61 0 01-.22-.7v-.83a2.5 2.5 0 01-1 1.09 3 3 0 01-1.52.38 3.05 3.05 0 01-1.73-.49 3.26 3.26 0 01-1.22-1.36 4.93 4.93 0 01-.41-2 4.63 4.63 0 01.41-2 3.08 3.08 0 012.89-1.82 3 3 0 011.52.38 2.5 2.5 0 011 1.09V56.2a.55.55 0 01.15-.42.72.72 0 01.92 0zm-1.65 9a3.37 3.37 0 00.64-2.1 3.31 3.31 0 00-.6-2.09 2.27 2.27 0 00-3.35 0 3 3 0 00-.61 2 3.25 3.25 0 00.61 2.11 2.27 2.27 0 003.35 0z"/><path id="Shape-11" data-name="Shape" class="cls-11" d="M171 64.9a.52.52 0 01.12.36c0 .25-.18.49-.54.7a4.81 4.81 0 01-2.34.64 3.62 3.62 0 01-2.74-1 3.89 3.89 0 01-1-2.82 4.47 4.47 0 01.45-2 3.24 3.24 0 011.25-1.37 3.43 3.43 0 011.82-.49 3 3 0 012.31 1 3.68 3.68 0 01.85 2.56.66.66 0 01-.12.45.49.49 0 01-.4.13h-4.9c.09 1.76.93 2.63 2.5 2.63a2.89 2.89 0 001-.16 6 6 0 00.92-.44 1.46 1.46 0 01.53-.22.37.37 0 01.29.03zm-4.53-4.45a2.78 2.78 0 00-.7 1.72h4.32a2.67 2.67 0 00-.56-1.74 1.93 1.93 0 00-1.5-.63 2.06 2.06 0 00-1.56.6z"/><path id="Path-8" data-name="Path" class="cls-11" d="M178.86 66.22a1.32 1.32 0 01-.42-1V54a1.32 1.32 0 01.42-1 1.66 1.66 0 012 0 1.32 1.32 0 01.42 1v11.2a1.32 1.32 0 01-.42 1 1.58 1.58 0 01-1 .35 1.64 1.64 0 01-1-.33z"/><path id="Path-9" data-name="Path" class="cls-11" d="M186.27 53.11a2.54 2.54 0 01.47 1.59 5 5 0 01-1.47 3.56.78.78 0 01-.61.28.85.85 0 01-.58-.23.69.69 0 01-.25-.54.71.71 0 01.21-.51 3.65 3.65 0 00.88-1.43 1.64 1.64 0 01-1-.49 1.49 1.49 0 01-.41-1.09 1.67 1.67 0 01.39-1.25 1.49 1.49 0 011.14-.48 1.58 1.58 0 011.23.55z"/><path id="Shape-12" data-name="Shape" class="cls-11" d="M189 54.7a1.37 1.37 0 01-.44-1.09 1.32 1.32 0 01.44-1 1.79 1.79 0 011.24-.39 1.75 1.75 0 011.22.4 1.34 1.34 0 01.46 1 1.36 1.36 0 01-.44 1.08 2.1 2.1 0 01-2.48 0zm.18 11.54a1.29 1.29 0 01-.43-1v-7.16a1.24 1.24 0 01.44-1 1.77 1.77 0 012.1 0 1.3 1.3 0 01.42 1v7.14a1.32 1.32 0 01-.42 1 1.75 1.75 0 01-2.11 0z"/><path id="Path-10" data-name="Path" class="cls-11" d="M202.57 57.62a4.63 4.63 0 01.84 3.06v4.52a1.26 1.26 0 01-.41 1 1.74 1.74 0 01-2.16 0 1.38 1.38 0 01-.39-1v-4.38a2.28 2.28 0 00-.36-1.43A1.36 1.36 0 00199 59a1.9 1.9 0 00-1.48.59 2.17 2.17 0 00-.55 1.56v4.08a1.35 1.35 0 01-.4 1 1.49 1.49 0 01-1.07.37 1.54 1.54 0 01-1.09-.37 1.31 1.31 0 01-.4-1V58a1.24 1.24 0 01.42-1 1.59 1.59 0 011.09-.37 1.42 1.42 0 011 .36 1.29 1.29 0 01.39.93v.27a3.38 3.38 0 011.26-1.19 4 4 0 011.84-.41 3.18 3.18 0 012.56 1.03z"/><path id="Path-11" data-name="Path" class="cls-11" d="M207.46 66a4.11 4.11 0 01-1.71-1.72 5.41 5.41 0 01-.59-2.62 5.19 5.19 0 01.63-2.65 4.42 4.42 0 011.78-1.78 5.93 5.93 0 014.24-.4 5.23 5.23 0 011.42.6 1.21 1.21 0 01.61 1.1 1.4 1.4 0 01-.23.82.73.73 0 01-.63.33 1.28 1.28 0 01-.48-.09 1.77 1.77 0 01-.59-.26 5.4 5.4 0 00-.74-.33 2 2 0 00-.73-.13 2.07 2.07 0 00-1.68.71 3.09 3.09 0 00-.58 2 3.17 3.17 0 00.58 2 2.06 2.06 0 001.68.7 2.21 2.21 0 00.72-.11 7.35 7.35 0 00.76-.34l.59-.26a1 1 0 01.47-.1.77.77 0 01.62.34 1.4 1.4 0 01.24.84 1.15 1.15 0 01-.61 1.08 5.42 5.42 0 01-1.45.6 6.64 6.64 0 01-1.72.21 5.23 5.23 0 01-2.6-.54z"/><path id="Path-12" data-name="Path" class="cls-11" d="M215.71 66.22a1.29 1.29 0 01-.43-1V54a1.28 1.28 0 01.43-1 1.79 1.79 0 012.11 0 1.27 1.27 0 01.42 1v11.2a1.28 1.28 0 01-.42 1 1.76 1.76 0 01-2.11 0z"/><path id="Path-13" data-name="Path" class="cls-11" d="M229.36 57a1.31 1.31 0 01.41 1v7.14a1.23 1.23 0 01-.43 1 1.58 1.58 0 01-1.08.37 1.37 1.37 0 01-1-.35 1.28 1.28 0 01-.38-.94v-.2a3 3 0 01-1.16 1.14 4 4 0 01-4.36-.62 4.45 4.45 0 01-.89-3V58a1.31 1.31 0 01.4-1 1.54 1.54 0 011.09-.37A1.51 1.51 0 01223 57a1.35 1.35 0 01.4 1v4.58a1.89 1.89 0 00.35 1.26 1.44 1.44 0 001.11.41 1.8 1.8 0 001.4-.59 2.19 2.19 0 00.54-1.54v-4.04a1.34 1.34 0 01.39-1 1.53 1.53 0 011.08-.37 1.56 1.56 0 011.08.33z"/><path id="Path-14" data-name="Path" class="cls-11" d="M233.6 66.41a5.09 5.09 0 01-1.55-.62 1.35 1.35 0 01-.45-.47 1.56 1.56 0 01-.15-.67 1.08 1.08 0 01.26-.75.74.74 0 01.62-.3 1.52 1.52 0 01.51.09c.18.06.35.12.53.2a7.44 7.44 0 001 .4 4.83 4.83 0 001.31.14 2.25 2.25 0 001-.21.66.66 0 00.39-.58.58.58 0 00-.17-.44 1.45 1.45 0 00-.62-.31c-.29-.09-.77-.2-1.42-.33a5.44 5.44 0 01-2.51-1 2.38 2.38 0 01-.77-1.86 2.58 2.58 0 01.54-1.58 3.6 3.6 0 011.52-1.12 5.46 5.46 0 012.11-.4 6.2 6.2 0 011.66.22 5.23 5.23 0 011.42.6 1.21 1.21 0 01.6 1.1 1.11 1.11 0 01-.25.78.77.77 0 01-.62.31 2.16 2.16 0 01-1.08-.35 7.06 7.06 0 00-.89-.39 3.81 3.81 0 00-1-.12 1.71 1.71 0 00-1 .23.7.7 0 00.06 1.24 6.28 6.28 0 001.58.43 8.9 8.9 0 012 .61 2.52 2.52 0 011.07.92 2.81 2.81 0 01-.81 3.6 5.1 5.1 0 01-3.06.81 9.22 9.22 0 01-1.83-.18z"/><path id="Shape-13" data-name="Shape" class="cls-11" d="M241.82 54.7a1.35 1.35 0 01-.45-1.09 1.33 1.33 0 01.45-1 2.06 2.06 0 012.45 0 1.43 1.43 0 010 2.11 2.1 2.1 0 01-2.46 0zm.18 11.52a1.27 1.27 0 01-.41-1v-7.16a1.24 1.24 0 01.42-1 1.64 1.64 0 011-.35 1.56 1.56 0 011 .35 1.24 1.24 0 01.42 1v7.14a1.25 1.25 0 01-.42 1 1.75 1.75 0 01-2.11 0z"/><path id="Shape-14" data-name="Shape" class="cls-11" d="M248.72 66a4.32 4.32 0 01-1.78-1.74 6 6 0 010-5.3 4.39 4.39 0 011.78-1.74 6.31 6.31 0 015.37 0 4.39 4.39 0 011.78 1.78 6 6 0 010 5.3 4.32 4.32 0 01-1.78 1.7 6.17 6.17 0 01-5.37 0zm4.84-4.39a3.19 3.19 0 00-.56-2 2 2 0 00-1.6-.69c-1.43 0-2.15.92-2.15 2.76s.72 2.76 2.15 2.76 2.16-1 2.16-2.79z"/><path id="Path-15" data-name="Path" class="cls-11" d="M266.88 57.62a4.63 4.63 0 01.84 3.06v4.52a1.31 1.31 0 01-.4 1 1.54 1.54 0 01-1.09.37 1.49 1.49 0 01-1.07-.37 1.34 1.34 0 01-.39-1v-4.38a2.28 2.28 0 00-.37-1.43 1.34 1.34 0 00-1.12-.44 1.93 1.93 0 00-1.48.59 2.16 2.16 0 00-.56 1.56v4.08a1.37 1.37 0 01-.38 1 1.76 1.76 0 01-2.17 0 1.28 1.28 0 01-.4-1V58a1.21 1.21 0 01.43-1 1.61 1.61 0 011.08-.37 1.42 1.42 0 011 .36 1.2 1.2 0 01.37.93v.27a3.47 3.47 0 011.35-1.19 4 4 0 011.82-.41 3.16 3.16 0 012.54 1z"/><path id="Path-16" data-name="Path" d="M131.13 39.88a6.57 6.57 0 00-2 .3 6.66 6.66 0 002 13 6.47 6.47 0 002-.3 6.67 6.67 0 00-2-13" fill="#7fb4ed"/><path id="Path-17" data-name="Path" class="cls-10" d="M129.3 42.75a5 5 0 11-6.3-3.34 5 5 0 013.84.36 5.06 5.06 0 012.46 3z"/><path id="Path-18" data-name="Path" d="M140.05 15.6a10.57 10.57 0 1010.08 7.5 10.58 10.58 0 00-10.08-7.5" fill="#e5f0fb"/><path id="Path-19" data-name="Path" d="M150.35 21.55a4.37 4.37 0 00-.78 8.66 4.15 4.15 0 00.79.08 4.37 4.37 0 00.78-8.66 4.15 4.15 0 00-.79-.08" fill="#3388e3"/><path id="Path-20" data-name="Path" class="cls-10" d="M143.71 58.72a5 5 0 11-2.43-2.95 5 5 0 012.43 2.95z"/><path id="Path-21" data-name="Path" d="M112.88 51.34a3.44 3.44 0 103.28 2.43 3.43 3.43 0 00-3.28-2.43" fill="#4c96e6"/><path id="Path-22" data-name="Path" d="M144.66 45.18a2.65 2.65 0 00-.74.11 2.54 2.54 0 00.74 5 2.72 2.72 0 00.75-.11 2.54 2.54 0 00-.75-5" fill="#b2d2f4"/><path id="Path-23" data-name="Path" d="M117.32 25.47a5.68 5.68 0 100 11.36 5.85 5.85 0 001.66-.24 5.68 5.68 0 00-1.66-11.12" fill="#99c3f1"/></g></g></g></svg>