<svg xmlns="http://www.w3.org/2000/svg" width="278" height="85"><g fill="none"><path fill="#000" d="m13.92 77.4.05-.15c-.61-.11-.69-.11-.45-.78l.25-.68h.67c.3 0 .31.12.27.45h.17l.4-1.1h-.17c-.15.26-.27.45-.6.45h-.67l.36-.96c.1-.31.17-.37.58-.37h.3c.42 0 .47.11.47.54h.17l.14-.75h-2.52l-.05.14c.49.1.54.15.3.78l-.54 1.5c-.23.63-.33.68-.9.78l-.03.14zm3.51-1.85c.09-.3.04-.56-.19-.56-.27 0-.34.2-.61.8v-.34c0-.24-.08-.46-.3-.46-.25 0-.49.4-.67.8h.12c.13-.18.24-.29.33-.29.11 0 .17.17 0 .55l-.5 1.1c-.08.2.01.34.21.34.13 0 .18-.04.23-.17l.49-1.29.41-.48h.48zm2.23-.66-.2-.02-.21.21h-.05c-1.04 0-1.94 1.18-1.94 2.03 0 .24.14.38.37.38.27 0 .54-.39.84-.8l-.02.14c-.03.43.1.66.31.66.26 0 .5-.4.67-.8h-.12c-.12.18-.23.29-.33.29s-.16-.18 0-.55l.68-1.54zm-1.93 1.88c0-.56.63-1.33.98-1.33a.8.8 0 0 1 .22.03l-.37.98c-.21.25-.54.56-.69.56-.09 0-.14-.07-.14-.24zm2.31-1.42h.42l-.66 1.82c-.06.16.02.32.18.32.38 0 1-.38 1.2-.9h-.11c-.17.19-.5.42-.77.47l.6-1.71h.64l.07-.27h-.6l.23-.66H21l-.44.66-.52.08v.19zm3 1.25h-.16c-.2.23-.4.42-.62.42-.21 0-.32-.13-.32-.42 0-.12 0-.24.03-.35l1.27-.41c.25-.6-.05-.85-.4-.85-.6 0-1.28 1-1.28 1.89 0 .39.19.6.48.6.34 0 .7-.33 1-.88zm-.44-1.27c.17 0 .32.13.24.46l-.79.18c.14-.37.37-.64.55-.64zm2.81.22c.09-.3.04-.56-.18-.56-.28 0-.34.2-.62.8v-.34c0-.24-.08-.46-.3-.46-.25 0-.49.4-.67.8h.12c.13-.18.24-.29.33-.29.11 0 .17.17 0 .55l-.5 1.1c-.08.2.01.34.21.34.13 0 .18-.04.23-.17l.49-1.29.42-.48h.47zm.01 1.6c-.09.2 0 .34.2.34.13 0 .19-.04.24-.17l.48-1.29c.23-.27.69-.57.87-.57.14 0 .12.11.03.28l-.75 1.43c-.07.15.03.32.19.32.36 0 .8-.33.97-.8h-.12c-.11.17-.32.36-.5.4l.64-1.3c.08-.17.12-.33.12-.45 0-.21-.12-.35-.34-.35-.31 0-.64.36-1.02.8v-.34c0-.24-.07-.46-.3-.46-.13 0-.26.12-.39.3v.04c.24-.02.35.34.18.72l-.5 1.1zm4.04-2.8a.3.3 0 0 0 .3-.31.3.3 0 0 0-.3-.3.3.3 0 0 0-.3.3c0 .17.13.3.3.3zm-.13.9c.05-.16-.06-.26-.15-.26-.37 0-.8.33-.98.8h.12c.12-.17.32-.36.51-.4l-.7 1.83c-.06.17.06.27.15.27.35 0 .76-.34.93-.8h-.12c-.12.17-.32.36-.5.4l.74-1.83zm.57.1h.42l-.67 1.82c-.06.16.02.32.18.32.38 0 1-.38 1.21-.9h-.12c-.16.19-.49.42-.77.47l.61-1.71h.63l.08-.27h-.61l.23-.66h-.24l-.43.66-.52.08zm2.74-.6.9-.82v-.1h-.49l-.55.93zm.25 1.85h-.16c-.2.23-.4.42-.61.42-.22 0-.33-.13-.33-.42 0-.12.01-.24.04-.35l1.27-.41c.24-.6-.05-.85-.4-.85-.6 0-1.29 1-1.29 1.89 0 .39.2.6.49.6.34 0 .7-.33.99-.88zm-.43-1.27c.16 0 .31.13.23.46l-.78.18c.13-.37.36-.64.55-.64zM14.83 68.1l.9-.62v-.1h-.55l-.5.72zm-.37 1.92c.3 0 .31.12.26.45h.18l.4-1.1h-.17c-.15.26-.27.45-.6.45h-.67l.34-.92c.1-.3.17-.37.58-.37h.3c.42 0 .47.12.47.54h.17l.14-.75h-2.52l-.05.14c.49.1.54.15.3.78l-.54 1.5c-.23.63-.33.68-.9.78l-.03.15h2.81l.5-.8h-.19c-.32.3-.72.59-1.29.59-.74 0-.67-.03-.43-.71l.27-.73h.67zm3.2 1.96c0-.3-.26-.4-.68-.53-.37-.1-.53-.14-.53-.26 0-.1.07-.21.23-.3.6-.03.99-.57.99-1.02 0-.1-.02-.18-.05-.25h.5l.09-.26h-.81a.62.62 0 0 0-.33-.1c-.63 0-1.04.56-1.04 1.02 0 .34.21.56.48.6-.3.14-.46.3-.46.48 0 .1.03.18.12.25-.69.2-.96.43-.96.75s.42.45.92.45c.83 0 1.54-.45 1.54-.83zm-.99-1.26c-.15 0-.21-.13-.21-.27 0-.41.22-1.01.56-1.01.16 0 .21.13.21.27 0 .41-.22 1.01-.56 1.01zm-.95 1.48c0-.24.24-.4.57-.52l.5.18c.34.12.48.16.48.27 0 .22-.38.4-.9.4-.44 0-.65-.1-.65-.33zm4.67-3.04-.2-.01-.21.2h-.05c-1.04 0-1.94 1.18-1.94 2.03 0 .24.14.38.37.38.27 0 .54-.39.84-.8l-.02.15c-.03.42.1.65.31.65.26 0 .5-.4.67-.8h-.12c-.12.18-.24.29-.33.29-.1 0-.16-.17 0-.55l.68-1.54zm-1.93 1.88c0-.56.63-1.33.98-1.33a.8.8 0 0 1 .21.03l-.36.98c-.21.25-.54.57-.69.57-.09 0-.14-.08-.14-.25zm2.43.32L22.16 68l-.04-.05-.8.09v.1l.16.11c.14.11.1.22-.03.56l-1 2.63c-.08.14.02.3.18.3.37 0 .76-.32.93-.78h-.12c-.12.17-.37.35-.55.39zm2.43-2.74a.3.3 0 0 0 .3-.3.3.3 0 0 0-.3-.31.3.3 0 0 0-.3.3.3.3 0 0 0 .3.3zm-.12.91c.05-.17-.07-.26-.16-.26-.36 0-.8.33-.97.79h.12c.12-.17.32-.36.5-.4L22 71.5c-.06.17.07.27.16.27.34 0 .75-.34.93-.8h-.12c-.12.18-.32.36-.51.4zm.56.09h.43l-.67 1.83c-.06.15.02.3.18.3.38 0 1-.37 1.2-.88h-.11c-.17.18-.5.42-.77.47l.61-1.72h.63l.08-.26h-.61l.23-.66h-.24l-.44.66-.52.07zm2.74-.59.9-.83v-.1h-.48l-.55.93zm.26 1.84h-.16c-.2.24-.4.42-.62.42-.21 0-.32-.13-.32-.42 0-.12 0-.23.03-.34l1.27-.42c.25-.59-.05-.84-.4-.84-.6 0-1.28 1-1.28 1.88 0 .4.19.6.48.6.35 0 .7-.33 1-.88zm-.44-1.27c.17 0 .32.13.24.46l-.79.18c.14-.36.37-.64.55-.64zm-11.33-7h-1.66l-.05.14c.5.1.54.14.3.78l-.53 1.5c-.23.63-.33.68-.9.78l-.03.14h2.54l.54-.98h-.19c-.3.34-.68.77-1.24.77-.43 0-.48-.07-.25-.71l.54-1.5c.23-.63.33-.68.9-.78zm1.85.29a.3.3 0 0 0 .3-.3.3.3 0 0 0-.3-.3.3.3 0 0 0-.3.3.3.3 0 0 0 .3.3zm-.13.91c.05-.17-.06-.26-.15-.26-.37 0-.8.33-.97.8h.11c.12-.18.33-.37.51-.4l-.7 1.83c-.06.16.07.26.15.26.35 0 .76-.33.93-.8h-.12c-.11.18-.32.37-.5.4zm2.5.25c0-.37-.14-.51-.4-.51-.32 0-.62.34-.92.75l.76-2.01-.04-.05-.8.09v.1l.15.12c.15.1.1.22-.03.55l-.82 2.13c-.06.15-.14.33-.14.38 0 .22.3.43.57.43.62 0 1.66-1.12 1.66-1.98zm-1.45 1.61c-.12 0-.3-.11-.3-.22l.12-.35.2-.54c.23-.26.56-.54.75-.54.12 0 .2.07.2.24 0 .5-.46 1.41-.97 1.41zm3.11-.51h-.15c-.2.23-.41.41-.62.41-.22 0-.33-.12-.33-.41 0-.12.02-.24.04-.35l1.27-.42c.25-.58-.05-.84-.4-.84-.6 0-1.28 1-1.28 1.88 0 .4.19.61.48.61.34 0 .7-.33 1-.88zm-.43-1.27c.17 0 .31.13.24.45l-.8.18c.14-.36.37-.63.56-.63zm2.81.22c.09-.3.04-.56-.19-.56-.27 0-.34.2-.61.8V64c0-.25-.08-.46-.3-.46-.26 0-.49.4-.67.8h.12c.12-.19.24-.3.33-.3.11 0 .17.18 0 .55l-.5 1.1c-.09.2.01.34.21.34.13 0 .18-.03.23-.16l.49-1.3.41-.47h.48zm.33-.2h.33l-.66 1.82c-.06.16.02.31.18.31.38 0 1-.37 1.2-.89h-.11c-.17.18-.5.42-.78.47l.62-1.72h.63l.07-.26h-.6l.23-.66h-.24l-.44.66-.43.07zm2.63-.6.89-.83v-.1h-.48l-.55.93h.14zm.25 1.85h-.16c-.2.23-.4.41-.62.41-.21 0-.32-.12-.32-.41 0-.12.01-.24.03-.35l1.27-.42c.25-.58-.05-.84-.4-.84-.6 0-1.28 1-1.28 1.88 0 .4.19.61.48.61.35 0 .7-.33 1-.88zm-.44-1.27c.17 0 .32.13.24.45l-.79.18c.14-.36.37-.63.55-.63zM12.17 30.84h1.27v-4.47l1.39 2.33h.89l1.39-2.33v4.47h1.26V24.6H16.8l-1.53 2.62-1.52-2.62h-1.58Zm7.95 0h1.26V24.6h-1.26zm3.02 0h1.26v-4.5l2.79 4.5h1.62V24.6h-1.27v4.51l-2.78-4.5h-1.63zm7.42 0h1.27V24.6h-1.27zm2.46-.87a2.8 2.8 0 0 0 2.3 1.05c1.15 0 2.06-.7 2.08-1.88 0-2.14-2.83-1.82-2.83-2.95 0-.38.3-.66.74-.66.47 0 .88.31 1.24.78l.93-.83a2.77 2.77 0 0 0-2.18-1.05c-1.2 0-2.01.82-2.01 1.8 0 2.11 2.83 1.8 2.83 2.95 0 .45-.3.71-.8.71-.51 0-1-.28-1.38-.76l-.92.84zm5.03-4.22h1.92v5.09h1.27v-5.09h1.92V24.6h-5.1zm7.49-1.68h1.16l-1-1.2h-1.3zm-1.26 6.77h3.64v-1.05h-2.37v-1.6h2.01v-1.06h-2.01v-1.47h2.37V24.6h-3.64zm5.12 0h1.26v-2.52h.65l1.67 2.52h1.48l-1.95-2.76c.64-.3 1-.86 1-1.61 0-1.16-.84-1.87-2.2-1.87H49.4Zm1.97-5.18c.54 0 .85.32.85.79 0 .5-.31.82-.85.82h-.71v-1.61h.71zm3.9 5.18h3.64v-1.05h-2.37v-1.6h2.01v-1.06h-2.01v-1.47h2.37V24.6h-3.64Zm-43.1 9.1h2.45c1.98 0 3.32-1.43 3.32-3.12 0-1.68-1.34-3.11-3.32-3.11h-2.45Zm2.47-5.08c1.16 0 2 .85 2 1.96 0 1.1-.84 1.97-2 1.97h-1.2v-3.93zm8.2 2.75c0 .83-.48 1.32-1.25 1.32-.8 0-1.27-.49-1.27-1.32v-3.9h-1.26v3.8c0 1.63.96 2.6 2.52 2.6s2.53-.97 2.53-2.6v-3.8h-1.27v3.9zm4.53-2.75h1.92v5.08h1.26v-5.08h1.93V33.7h-5.11zm6.23 5.08h1.26v-2.52h.65l1.67 2.52h1.49l-1.96-2.76c.65-.3 1.01-.86 1.01-1.61 0-1.16-.84-1.86-2.22-1.86h-1.9v6.23zm1.98-5.18c.53 0 .84.32.84.79 0 .5-.31.82-.84.82h-.72v-1.61h.72zm3.38 5.18h1.34l.6-1.62h2.5l.6 1.62h1.34l-2.37-6.23h-1.65zm2.33-2.7.86-2.34.85 2.34zm3.68-3.53 2.36 6.23h1.66l2.36-6.23H50l-1.84 4.87-1.85-4.87zm6.01 6.23h1.35l.6-1.62h2.49l.6 1.62h1.34L55 33.71h-1.66l-2.36 6.23zm2.33-2.7.86-2.34.85 2.34zm5.02 2.7h1.26v-6.23h-1.26zm3.02 0h3.63V38.8H62.6v-5.08h-1.26zm5.52 1.43 1.03-2.67h-1.27l-.81 2.67zm-54.7 7.67h2.45c1.98 0 3.32-1.43 3.32-3.11 0-1.69-1.34-3.12-3.32-3.12h-2.45Zm2.47-5.08c1.16 0 2 .85 2 1.97 0 1.1-.84 1.96-2 1.96h-1.2v-3.93zm4.52 5.08h3.64V48h-2.37v-1.6h2.01v-1.05h-2.01v-1.48h2.37v-1.05h-3.64Zm7.44 0h3.63V47.9h-2.37v-5.08H26.6zm4.42-3.67 1.04-2.56h-1.28l-.8 2.56zm2.03 3.67h3.64V48h-2.37v-1.6h2.01v-1.05h-2.01v-1.48h2.37v-1.05h-3.64zm5.12 0h1.26v-4.47l1.4 2.34h.88l1.39-2.34v4.47h1.26v-6.23H42.8l-1.52 2.62-1.53-2.62h-1.57zm7.94 0h1.26v-2.52h.8c1.37 0 2.2-.7 2.2-1.85 0-1.16-.83-1.86-2.2-1.86H46.1Zm2.11-5.18c.53 0 .85.32.85.8 0 .5-.32.81-.85.81h-.85v-1.6h.85zm3.2 5.18h3.64V47.9h-2.37v-5.08h-1.26zm7.32-6.4a3.24 3.24 0 0 0-3.32 3.29c0 1.78 1.35 3.3 3.32 3.3 1.96 0 3.3-1.52 3.3-3.3 0-1.78-1.34-3.3-3.3-3.3zm0 5.4c-1.18 0-2.01-.92-2.01-2.11 0-1.2.83-2.11 2-2.11s2.01.91 2.01 2.1c0 1.2-.84 2.12-2 2.12zm4.52 1h1.26v-6.23h-1.26zm-51.09 9.1h3.64V57.1h-2.37v-1.6h2.01v-1.06h-2.01v-1.48h2.37v-1.05h-3.64Zm4.6-5.08h1.93v5.09h1.27v-5.09h1.92v-1.15h-5.11Zm8.56 5.09h2.45c1.98 0 3.32-1.44 3.32-3.12 0-1.68-1.34-3.12-3.32-3.12h-2.45zm2.47-5.09c1.16 0 2 .86 2 1.97 0 1.1-.84 1.97-2 1.97h-1.2v-3.94zm4.52 5.09h3.64V57.1h-2.37v-1.6h2.01v-1.06H33.6v-1.48h2.37v-1.05h-3.64zm7.44 0h3.63V57h-2.37V51.9h-1.26zm4.43-3.67 1.03-2.57h-1.28l-.8 2.57zm2.03 3.67h1.26V51.9h-1.26Zm3.02 0h1.26v-4.51l2.79 4.5h1.62v-6.23h-1.27v4.5l-2.78-4.5h-1.63zm6.86-.87a2.8 2.8 0 0 0 2.3 1.04c1.16 0 2.06-.7 2.08-1.87 0-2.14-2.83-1.82-2.83-2.95 0-.38.3-.66.74-.66.47 0 .88.31 1.25.78l.92-.84a2.77 2.77 0 0 0-2.18-1.04c-1.2 0-2.01.81-2.01 1.8 0 2.11 2.83 1.8 2.83 2.95 0 .45-.3.71-.8.71s-1-.28-1.38-.76zm5.72.87h3.63V57.1h-2.37v-1.6h2.02v-1.06h-2.02v-1.48h2.37v-1.05h-3.63zm5.1 0h1.27v-2.52h.65l1.67 2.52H72l-1.95-2.76c.64-.3 1-.86 1-1.62 0-1.15-.84-1.86-2.22-1.86h-1.9zm1.99-5.19c.53 0 .84.32.84.8 0 .5-.3.82-.84.82h-.72v-1.62h.72zm2.98.1h1.92v5.09h1.27v-5.09H77v-1.15H71.9zm6.23 5.09h1.27V51.9h-1.27zm5.8-6.41a3.24 3.24 0 0 0-3.31 3.29c0 1.78 1.34 3.3 3.3 3.3 1.97 0 3.31-1.52 3.31-3.3 0-1.78-1.34-3.3-3.3-3.3zm0 5.4c-1.18 0-2.01-.92-2.01-2.11 0-1.2.83-2.11 2-2.11 1.18 0 2.01.92 2.01 2.11 0 1.2-.83 2.11-2 2.11zm4.52 1h1.27v-4.5l2.79 4.5h1.62v-6.23h-1.27v4.5l-2.79-4.5h-1.62z"/><path fill="#000091" d="M18.7 17.95c-.02-.02.04 0 .06-.04h-.13c-.02 0-.02-.01-.02-.03l-.25.07c-.1.03-.2.1-.33.14-.17.06-.3.2-.5.26l-.01-.03c.01-.05.08-.06.1-.1v-.04c.12-.17.29-.27.45-.4v-.05c.04-.07.12-.1.15-.18.02-.04.08-.1.16-.14-.02-.01-.05-.01-.05-.04-.06 0-.12.03-.19-.02a.22.22 0 0 1 .1-.06.06.06 0 0 1-.03-.02c-.02-.03.03-.07.08-.08.06-.01.14-.01.18-.06-.1-.02-.23.03-.34-.03.08-.2.2-.38.4-.47l.04.01c0 .08-.05.14-.13.16.13.03.25.03.38.1-.02.03-.05.01-.06.01.07.05.17.02.25.08-.05.05-.1 0-.14 0 .48.14 1 .25 1.4.56-.34.18-.7.25-1.08.33l-.12-.01c0 .01 0 .04-.02.04-.06 0-.1 0-.15.04-.07.03-.16.04-.2 0zm-.33 1.09-.18.12-.2.1h-.01c0-.01-.02-.02-.03-.01a.75.75 0 0 0-.15.12l-.03.02-.02.03a.54.54 0 0 0-.04.04l-.02.02s-.04 0-.03-.01h-.03l-.03.02a.02.02 0 0 0-.02 0 1.24 1.24 0 0 0-.15.15l-.01.02-.01.01a.03.03 0 0 1-.02.01v-.02a.52.52 0 0 1-.02-.02v-.01a.97.97 0 0 0 .05-.06l.01-.02.03-.03.01-.02.05-.06v-.01a.5.5 0 0 0 .05-.07v-.01a.43.43 0 0 0 .02-.04v-.03l.01-.03a.5.5 0 0 1 .06-.1v.01l-.06.05c-.02.02-.05 0-.03-.02l.04-.03.08-.08.05-.04a.4.4 0 0 1 .04-.05c.15-.14.4-.14.6-.23.08-.03.17.02.25 0 .05 0 .1 0 .14.03l-.4.25zm.28.13-.04.04c.02 0 .04.01.02.03l-.11.08a.13.13 0 0 1-.03 0l-.06.06c-.02.01-.1 0-.07-.02l.11-.11.07-.06c0-.02.02-.03.03-.04.01 0 .1-.02.08.02zm-.73-2.35-.04.06a.12.12 0 0 1-.07.06l-.03-.01c.02-.07.07-.13.13-.15l.01.04zm-1.3 1.03-.01-.03c.2-.27.36-.52.5-.8.2-.11.37-.27.53-.44.27-.28.55-.53.88-.69a.6.6 0 0 1 .4.02c-.04.06-.12.04-.18.1-.02 0-.03 0-.05-.03.02-.01.02-.03.02-.04-.16.17-.38.25-.5.45-.1.16-.16.36-.36.41-.07.02.01-.05-.02-.03-.49.3-.83.66-1.2 1.08zm2.4.35c-.03 0-.1.01-.08-.02.02-.08.13-.08.2-.11.02-.02.07-.05.1-.03.03.05.08.03.11.06-.1.1-.22.05-.33.1zm2.41 1.12.27-.28a5.3 5.3 0 0 1 .7-.67c0-.02 0-.05.02-.06-.07.03-.12.09-.2.12-.01 0-.03-.01-.01-.03l.16-.13c-.02 0-.02-.01-.02-.03-.2-.03-.36.11-.5.24-.04.01-.07-.02-.08-.02-.24.08-.41.28-.65.38v-.03c-.1.03-.18.09-.28.1-.14.04-.27.02-.4.02-.18.02-.37.06-.56.1h-.02a1.31 1.31 0 0 0-.29.13h-.01a.46.46 0 0 1-.02.03l-.11.1c-.1.04-.18.13-.26.2a.04.04 0 0 1-.03 0l-.25.25h-.05a6.04 6.04 0 0 1 .05-.08 2.06 2.06 0 0 1 .12-.17v-.02a.03.03 0 0 0-.02 0c.07-.08.17-.15.26-.2-.01 0-.03-.01-.02-.02l.03-.04v-.03l-.08.05c-.04.03-.07.1-.13.1a.08.08 0 0 1-.02 0 .05.05 0 0 1-.02 0v-.01h.01v-.02l.02-.02.01-.03.01-.01.02-.03.01-.02.02-.03-.01-.03a.35.35 0 0 1 .1-.1c.06-.02.12-.06.18-.1l.02-.01c-.09.03-.17.07-.25.12l-.02.01-.04-.01a.02.02 0 0 1 0-.01c.01-.03.06-.05.09-.08l.03.01c.5-.39 1.2-.3 1.77-.5l.14-.1c.08-.02.14-.1.24-.15.12-.1.22-.2.26-.36l-.01-.03a2.42 2.42 0 0 1-.69.52c-.33.17-.69.14-1.04.19.02-.04.05-.04.08-.04 0-.04.03-.06.07-.09h.04c.02 0 .02-.03.03-.03.04 0 .08-.02.07-.02-.05-.06-.14.05-.22 0 .03-.03.01-.08.04-.1h.07c0-.02.03-.05.03-.05.23-.15.45-.25.67-.38-.04 0-.08.05-.12.02.03 0 0-.05.03-.05.17-.05.31-.14.49-.2-.07 0-.12.04-.18 0 .03-.02.05-.05.1-.05v-.05c0-.02.01-.02.03-.02l-.03-.01c.01-.03.06-.02.1-.05l-.06-.01c.05-.07.13-.08.2-.1 0-.03-.06 0-.06-.03 0-.02.02-.02.04-.02h-.04c-.03-.01-.01-.04-.01-.06.1-.1.1-.25.14-.37-.02 0-.03 0-.03-.02-.16.17-.4.24-.64.3h-.08a.32.32 0 0 1-.27-.02c-.06-.03-.1-.08-.16-.12a1.8 1.8 0 0 0-.39-.2c-.39-.12-.8-.18-1.2-.16.17-.1.36-.1.54-.16.27-.08.52-.17.8-.16h-.15c-.22-.01-.44.05-.68.1-.15.03-.3.1-.45.12-.1.03-.14.13-.25.11v-.05c.15-.18.34-.37.6-.39.27-.04.54 0 .82.03.2.02.4.07.6.11.08 0 .1.13.16.15.09.03.18 0 .28.06 0-.03-.02-.06 0-.1.06-.06.14.02.2-.01.13-.08-.1-.22-.17-.33 0-.02.02-.03.02-.03.12.1.21.23.37.31.08.03.27.08.24-.01-.08-.18-.24-.32-.36-.47v-.07c-.04 0-.04-.01-.05-.03v-.06c-.06-.03-.05-.1-.08-.14-.05-.08-.02-.2-.05-.29l-.06-.26-.14-.75c-.03-.3.17-.54.31-.8.11-.2.24-.38.44-.5.05-.2.18-.35.3-.5.13-.16.33-.25.48-.32a4.16 4.16 0 0 1 .42-.16H12v8.3h7.62c.3-.22.6-.32 1.01-.52.2-.1.65-.3.8-.46z"/><path fill="#e1000f" d="M34.82 12h-8.93l.09.04.22.12c.12.06.23.13.3.25.03.05.08.14.05.2-.03.08-.05.2-.13.24a.58.58 0 0 1-.33.03.78.78 0 0 1-.18-.03c.23.1.45.2.6.42.02.03.09.05.15.05l.01.05c-.03.03-.06.04-.04.1h.04c.08-.04.07-.2.18-.15.08.05.1.16.06.23-.06.07-.13.11-.19.16a.13.13 0 0 0 0 .11c.05.06.06.13.08.19.05.1.06.23.11.34.06.24.12.47.1.71 0 .13-.05.23 0 .36.02.13.1.22.17.33l.17.25c.1.16.27.31.19.5-.05.11-.22.1-.33.16-.1.08-.02.2.03.28.08.14-.1.24-.2.28.03.05.09.03.1.07.02.08.1.12.05.2-.06.1-.25.14-.16.28.07.11.03.23-.01.35-.05.14-.17.2-.28.23-.1.03-.2.03-.3.02a.22.22 0 0 0-.1-.03c-.26-.03-.53-.11-.8-.11a.9.9 0 0 0-.21.06 1.41 1.41 0 0 0-.2.17l-.03.04-.02.02-.01.02a1.42 1.42 0 0 0-.13.18v.01l-.02.02c-.05.1-.09.2-.11.3-.11.35-.06.66.01.73.02.02.52.18.86.33.17.07.28.13.37.19h8.77V12"/><path fill="#9d9d9b" d="M26.42 15.03c.07.01.16.01.16.04-.03.13-.22.16-.31.29h-.05c-.05.03-.03.1-.08.1-.05-.01-.1 0-.14.02.06.06.14.11.24.1.01 0 .04.03.04.06 0 0 .02 0 .03-.02.02 0 .04 0 .04.02v.06c-.05.06-.13.03-.2.05a.7.7 0 0 0 .37 0c.1-.03 0-.19.06-.27-.03 0 0-.05-.03-.05.03-.03.06-.07.1-.09.02 0 .07-.01.09-.05 0-.03-.07-.04-.05-.07.1-.07.17-.16.14-.26-.01-.04-.14-.04-.22-.07-.08-.04-.17 0-.26.01-.08 0-.16.05-.24.06-.11.04-.2.1-.3.16.11-.05.22-.06.35-.1.1 0 .17-.02.26 0"/><g><path d="M158.22 45.52a1.42 1.42 0 0 1-.38-1.02v-11a1.4 1.4 0 0 1 1.53-1.5c.41-.02.81.13 1.11.41.28.3.43.69.4 1.1v9.9h5.03c.94 0 1.42.41 1.42 1.25 0 .83-.48 1.23-1.43 1.23h-6.63a1.42 1.42 0 0 1-1.05-.36zm18.65-2.17c.17.23.25.51.24.8a1.02 1.02 0 0 1-.2.62 1.7 1.7 0 0 1-.54.48 6.64 6.64 0 0 1-1.54.57 6.51 6.51 0 0 1-1.63.23 5.76 5.76 0 0 1-2.73-.6 4.26 4.26 0 0 1-1.8-1.74 5.33 5.33 0 0 1-.61-2.65 5.5 5.5 0 0 1 .6-2.55 4.55 4.55 0 0 1 1.68-1.77 4.8 4.8 0 0 1 2.45-.64c.8-.01 1.6.18 2.3.57a4 4 0 0 1 1.53 1.66c.38.77.57 1.62.55 2.48a.95.95 0 0 1-.2.66.74.74 0 0 1-.58.23h-5.48a2.63 2.63 0 0 0 .7 1.67 2.3 2.3 0 0 0 1.63.51c.34.01.68-.03 1.02-.13.3-.1.63-.21 1.02-.37l.53-.21a1.55 1.55 0 0 1 .44-.08.76.76 0 0 1 .62.26zm-5.36-4.73c-.37.44-.58.99-.6 1.56h3.77a2.59 2.59 0 0 0-.52-1.57 1.64 1.64 0 0 0-1.3-.53c-.5-.02-1 .18-1.35.54zm9 7.23a4.74 4.74 0 0 1-1.53-.62 1.26 1.26 0 0 1-.46-.47 1.43 1.43 0 0 1-.15-.67 1.08 1.08 0 0 1 .25-.75.79.79 0 0 1 .62-.3c.18 0 .35.03.51.08l.53.21a4.75 4.75 0 0 0 2.39.54c.35.01.7-.06 1.02-.21a.64.64 0 0 0 .37-.58.57.57 0 0 0-.16-.44 1.52 1.52 0 0 0-.62-.3 16.44 16.44 0 0 0-1.43-.34 5.33 5.33 0 0 1-2.5-1.02 2.33 2.33 0 0 1-.76-1.86 2.54 2.54 0 0 1 .54-1.58c.4-.49.93-.86 1.53-1.07a5.33 5.33 0 0 1 2.1-.4c.57 0 1.13.06 1.67.2.5.13.99.33 1.43.6.4.22.63.65.61 1.1 0 .28-.08.56-.25.79a.8.8 0 0 1-.64.3 2.27 2.27 0 0 1-1.02-.35 5.81 5.81 0 0 0-.9-.38 3.24 3.24 0 0 0-.94-.13 1.75 1.75 0 0 0-.96.23.7.7 0 0 0-.35.61.68.68 0 0 0 .41.63 6.54 6.54 0 0 0 1.58.43c.7.13 1.39.33 2.04.61.42.2.78.52 1.02.92.24.42.36.9.34 1.39a2.58 2.58 0 0 1-1.14 2.2 5.1 5.1 0 0 1-3.06.83 9.63 9.63 0 0 1-2.08-.2zm21.78-2.5c.17.23.25.51.24.8a1.02 1.02 0 0 1-.2.62 1.7 1.7 0 0 1-.54.48 6.56 6.56 0 0 1-1.55.57 6.37 6.37 0 0 1-1.63.23 5.76 5.76 0 0 1-2.72-.6 4.21 4.21 0 0 1-1.8-1.74 5.94 5.94 0 0 1 0-5.25 4.55 4.55 0 0 1 1.69-1.77 4.75 4.75 0 0 1 2.45-.64 4.5 4.5 0 0 1 2.3.57c.65.4 1.19.97 1.53 1.66.38.77.57 1.62.55 2.48a.95.95 0 0 1-.2.66.77.77 0 0 1-.58.23h-5.48a2.63 2.63 0 0 0 .7 1.67 2.3 2.3 0 0 0 1.62.51c.35 0 .7-.04 1.03-.13.3-.1.63-.21 1.02-.37l.52-.21c.14-.05.3-.08.45-.08a.76.76 0 0 1 .6.31zm-5.36-4.73c-.37.44-.58.99-.6 1.56h3.77a2.59 2.59 0 0 0-.52-1.57 1.64 1.64 0 0 0-1.3-.53 1.78 1.78 0 0 0-1.35.54zM218.61 37c.63.89.93 1.97.84 3.06v4.57c.02.38-.13.75-.4 1.02a1.64 1.64 0 0 1-2.04 0 1.26 1.26 0 0 1-.43-1.02v-4.57a2.04 2.04 0 0 0-.33-1.32 1.21 1.21 0 0 0-1.02-.38c-.5-.02-.98.19-1.31.57a2.35 2.35 0 0 0-.53 1.62v4.08c.02.38-.13.75-.41 1.02a1.64 1.64 0 0 1-2.04 0 1.26 1.26 0 0 1-.43-1.02v-4.57a2.04 2.04 0 0 0-.31-1.32 1.24 1.24 0 0 0-1.02-.38c-.5-.02-.99.19-1.32.57a2.35 2.35 0 0 0-.49 1.58v4.08c.02.38-.13.76-.42 1.02a1.72 1.72 0 0 1-2.13.04 1.24 1.24 0 0 1-.44-1.02v-7.14c-.02-.39.14-.77.44-1.02.3-.23.65-.35 1.02-.35.37-.02.74.1 1.02.34.27.24.41.59.39.95v.2a3.25 3.25 0 0 1 1.22-1.14 3.78 3.78 0 0 1 1.72-.39 3.46 3.46 0 0 1 1.77.4c.5.3.9.78 1.1 1.35.3-.54.75-1 1.29-1.3a3.76 3.76 0 0 1 1.88-.48c.9-.04 1.76.3 2.38.95zm11.22-.32a4.26 4.26 0 0 1 1.5 1.83c.38.83.56 1.72.54 2.63a6 6 0 0 1-.54 2.57 3.92 3.92 0 0 1-3.7 2.34 3.92 3.92 0 0 1-1.78-.4 2.94 2.94 0 0 1-1.22-1.12v3.69c.02.35-.13.7-.4.94a1.45 1.45 0 0 1-1.01.35c-.4.02-.8-.11-1.1-.37a1.24 1.24 0 0 1-.42-1.02V37.5c-.02-.38.12-.75.4-1.02.28-.25.64-.39 1.02-.38a1.34 1.34 0 0 1 1.42 1.4v.15c.3-.5.76-.91 1.3-1.17a3.84 3.84 0 0 1 1.8-.42 3.96 3.96 0 0 1 2.2.64zm-1.45 6.43a3.12 3.12 0 0 0 .57-2.04 3.33 3.33 0 0 0-.57-2.04 1.92 1.92 0 0 0-1.6-.73 1.94 1.94 0 0 0-1.61.72 3.97 3.97 0 0 0 0 4.08 2.18 2.18 0 0 0 3.2 0zm5.72 2.54a1.3 1.3 0 0 1-.42-1.02V33.4a1.3 1.3 0 0 1 .42-1.02c.29-.23.65-.35 1.02-.35s.73.12 1.02.35c.28.26.43.64.41 1.02v11.22c.02.38-.13.76-.41 1.02a1.64 1.64 0 0 1-2.04 0zm6.74-.22a4.3 4.3 0 0 1-1.78-1.74 5.87 5.87 0 0 1 0-5.3 4.33 4.33 0 0 1 1.78-1.74 6.28 6.28 0 0 1 5.36 0c.75.4 1.37 1 1.78 1.74a5.96 5.96 0 0 1 0 5.3 4.26 4.26 0 0 1-1.78 1.74 6.18 6.18 0 0 1-5.36 0zm4.83-4.4a3.26 3.26 0 0 0-.55-2.03 1.96 1.96 0 0 0-1.6-.7c-1.43 0-2.15.93-2.15 2.77 0 1.83.72 2.76 2.15 2.76 1.42 0 2.15-.95 2.15-2.8zm5.04-6.9a1.37 1.37 0 0 1-.45-1.1c-.03-.4.14-.8.45-1.07a1.8 1.8 0 0 1 1.23-.4c.44-.02.88.13 1.22.41.3.26.47.63.46 1.02.02.42-.14.82-.45 1.1a2.11 2.11 0 0 1-2.46 0zm.12 11.52a1.3 1.3 0 0 1-.42-1.02v-7.14a1.26 1.26 0 0 1 .43-1.02c.29-.23.65-.35 1.02-.35a1.54 1.54 0 0 1 1.02.35c.29.26.45.63.43 1.02v7.14c.02.39-.14.76-.43 1.02a1.55 1.55 0 0 1-1.02.35 1.61 1.61 0 0 1-1.03-.35zm6.37.2a4.8 4.8 0 0 1-1.55-.62 1.23 1.23 0 0 1-.45-.47 1.43 1.43 0 0 1-.15-.67 1.08 1.08 0 0 1 .25-.75.78.78 0 0 1 .63-.3c.17 0 .34.03.5.08l.54.21a4.9 4.9 0 0 0 2.39.54c.34.02.7-.06 1.01-.21a.65.65 0 0 0 .39-.58.57.57 0 0 0-.17-.44 1.53 1.53 0 0 0-.62-.3 16.44 16.44 0 0 0-1.42-.34 5.37 5.37 0 0 1-2.51-1.02 2.33 2.33 0 0 1-.77-1.86 2.54 2.54 0 0 1 .54-1.58c.4-.49.93-.86 1.52-1.07a5.4 5.4 0 0 1 2.11-.4c.56 0 1.12.08 1.66.22.5.13.98.33 1.42.6.4.23.62.65.6 1.1.01.28-.08.56-.25.79a.78.78 0 0 1-.62.3 2.27 2.27 0 0 1-1.08-.35 6.2 6.2 0 0 0-.89-.38 3.24 3.24 0 0 0-.95-.13 1.73 1.73 0 0 0-.96.23.7.7 0 0 0 .06 1.24 6.25 6.25 0 0 0 1.58.43 8.9 8.9 0 0 1 2.04.61c.44.2.82.52 1.08.92a2.8 2.8 0 0 1-.81 3.6 5.1 5.1 0 0 1-3.06.82 9.46 9.46 0 0 1-2.06-.22z" fill="#006adc"/><path d="M164.04 52.84c.1.11.16.26.16.42v9.72a.62.62 0 1 1-1.18 0v-.82a2.42 2.42 0 0 1-1.02 1.08 2.93 2.93 0 0 1-1.52.38 3.06 3.06 0 0 1-1.72-.49 3.25 3.25 0 0 1-1.17-1.36 4.76 4.76 0 0 1-.4-2.04 4.67 4.67 0 0 1 .4-2.04 3.06 3.06 0 0 1 2.9-1.82 2.93 2.93 0 0 1 1.51.38c.44.25.8.63 1.02 1.1v-4.09a.58.58 0 0 1 .15-.42.72.72 0 0 1 .92 0zm-1.65 9.02c.44-.61.66-1.35.63-2.1a3.27 3.27 0 0 0-.6-2.1 2.04 2.04 0 0 0-1.66-.73 2.04 2.04 0 0 0-1.69.74 3.06 3.06 0 0 0-.6 2.04c-.05.75.16 1.5.6 2.1a2.26 2.26 0 0 0 3.36 0l-.04.05zm10.16.1a.52.52 0 0 1 .12.36c0 .25-.18.49-.53.7a4.84 4.84 0 0 1-2.35.64 3.66 3.66 0 0 1-2.73-1.02 3.88 3.88 0 0 1-1.02-2.82 4.4 4.4 0 0 1 .45-2.04 3.23 3.23 0 0 1 1.24-1.37 3.42 3.42 0 0 1 1.82-.49 2.96 2.96 0 0 1 2.31.95 3.66 3.66 0 0 1 .86 2.56.67.67 0 0 1-.13.45.51.51 0 0 1-.4.13h-4.9c.1 1.76.93 2.63 2.5 2.63.35 0 .7-.05 1.02-.16.31-.12.62-.27.92-.44.16-.1.34-.18.53-.22.11 0 .22.05.3.14zm-4.52-4.46a2.81 2.81 0 0 0-.7 1.73h4.31a2.65 2.65 0 0 0-.55-1.73 1.92 1.92 0 0 0-1.5-.64 2.04 2.04 0 0 0-1.56.6v.05zm12.38 5.78a1.3 1.3 0 0 1-.41-1.02V51.04a1.3 1.3 0 0 1 .41-1.02c.3-.23.65-.35 1.02-.35s.73.12 1.02.35c.29.26.44.64.42 1.02v11.22c.02.38-.13.76-.42 1.02a1.63 1.63 0 0 1-2.04 0zm7.42-13.1c.33.46.5 1.02.47 1.58a4.98 4.98 0 0 1-1.47 3.56.82.82 0 0 1-.61.28.89.89 0 0 1-.58-.23.7.7 0 0 1-.05-1.05c.4-.4.7-.9.88-1.43a1.64 1.64 0 0 1-1.02-.5 1.5 1.5 0 0 1-.4-1.08c-.04-.44.11-.88.4-1.2.3-.32.71-.5 1.14-.49a1.57 1.57 0 0 1 1.24.55zm2.72 1.59a1.4 1.4 0 0 1-.45-1.1c0-.39.16-.76.45-1.02.35-.28.79-.42 1.23-.4.45-.02.89.13 1.23.41.3.26.46.63.46 1.02.02.41-.14.8-.44 1.08a2.11 2.11 0 0 1-2.48 0zm.17 11.53a1.26 1.26 0 0 1-.43-1.02v-7.14c-.02-.39.14-.77.44-1.02a1.76 1.76 0 0 1 2.1 0c.29.26.44.63.42 1.02v7.14c.02.38-.13.76-.42 1.02a1.74 1.74 0 0 1-2.1 0zm13.4-8.62c.63.89.93 1.97.85 3.06v4.52c.02.38-.13.75-.41 1.02a1.73 1.73 0 0 1-2.16 0 1.35 1.35 0 0 1-.4-1.02v-4.38a2.27 2.27 0 0 0-.36-1.43 1.36 1.36 0 0 0-1.12-.44 1.94 1.94 0 0 0-1.48.59c-.38.42-.58.98-.55 1.56v4.08c.02.38-.12.75-.4 1.02-.29.26-.67.4-1.07.37a1.56 1.56 0 0 1-1.09-.37 1.31 1.31 0 0 1-.4-1.02V55.1a1.24 1.24 0 0 1 .42-1.02 1.6 1.6 0 0 1 1.1-.37c.37-.02.74.1 1.01.36.26.24.4.58.4.93v.27a3.37 3.37 0 0 1 1.27-1.19c.57-.28 1.2-.42 1.83-.4a3.15 3.15 0 0 1 2.56 1zm4.9 8.38a4.16 4.16 0 0 1-1.72-1.72 5.49 5.49 0 0 1-.59-2.62 5.31 5.31 0 0 1 .63-2.65 4.4 4.4 0 0 1 1.79-1.78 5.52 5.52 0 0 1 2.66-.62 6.02 6.02 0 0 1 3 .82c.39.22.62.65.6 1.1.02.3-.06.58-.23.82a.73.73 0 0 1-.63.33 1.25 1.25 0 0 1-.48-.1c-.15 0-.35-.13-.59-.25a5.5 5.5 0 0 0-.74-.33 2.04 2.04 0 0 0-.73-.13 2.04 2.04 0 0 0-1.67.7 3.06 3.06 0 0 0-.58 2.05 3.14 3.14 0 0 0 .58 2.04 2.04 2.04 0 0 0 1.67.7c.25 0 .5-.04.72-.11.26-.1.52-.2.76-.34l.6-.26c.14-.07.3-.1.46-.1.25 0 .48.13.62.34.17.25.26.54.25.84.02.45-.22.87-.62 1.08-.45.27-.93.47-1.44.6a6.82 6.82 0 0 1-1.73.21 5.32 5.32 0 0 1-2.6-.62zm8.24.22a1.26 1.26 0 0 1-.42-1.02V51.04a1.26 1.26 0 0 1 .42-1.02 1.78 1.78 0 0 1 2.11 0c.3.26.45.63.42 1.02v11.22c.03.38-.13.76-.42 1.02a1.74 1.74 0 0 1-2.1 0zm13.66-9.2c.27.27.42.64.4 1.02v7.14c.03.38-.13.76-.43 1.02a1.58 1.58 0 0 1-1.08.37 1.4 1.4 0 0 1-1.02-.35 1.25 1.25 0 0 1-.37-.94v-.2a3 3 0 0 1-1.17 1.14 4 4 0 0 1-4.36-.62 4.52 4.52 0 0 1-.89-3.06v-4.5c-.02-.38.13-.75.4-1.02a1.57 1.57 0 0 1 1.1-.37c.38-.02.77.11 1.06.37.28.27.42.64.4 1.02v4.58c-.03.45.1.9.36 1.26.29.3.7.44 1.1.41.54.02 1.05-.2 1.4-.6.38-.41.57-.97.55-1.53v-4.08c-.03-.38.11-.75.38-1.02a1.53 1.53 0 0 1 1.08-.37 1.54 1.54 0 0 1 1.08.33zm4.24 9.39a4.8 4.8 0 0 1-1.55-.62 1.23 1.23 0 0 1-.45-.47 1.43 1.43 0 0 1-.16-.67 1.08 1.08 0 0 1 .26-.75.78.78 0 0 1 .62-.3c.18 0 .35.03.51.09.18.06.36.12.53.2a4.9 4.9 0 0 0 2.34.54c.35.01.7-.06 1.02-.21a.65.65 0 0 0 .38-.58.57.57 0 0 0-.17-.44 1.46 1.46 0 0 0-.61-.3 16.44 16.44 0 0 0-1.43-.34 5.37 5.37 0 0 1-2.5-1.02 2.33 2.33 0 0 1-.77-1.86 2.54 2.54 0 0 1 .54-1.58 3.59 3.59 0 0 1 1.48-1.11 5.4 5.4 0 0 1 2.1-.4c.57 0 1.12.07 1.66.22.5.13.98.33 1.43.6.38.23.61.65.6 1.1.01.28-.08.56-.26.78a.78.78 0 0 1-.62.3 2.27 2.27 0 0 1-1.08-.34 6.2 6.2 0 0 0-.89-.38 3.24 3.24 0 0 0-.94-.13 1.73 1.73 0 0 0-.96.23.7.7 0 0 0 .06 1.24 6.25 6.25 0 0 0 1.58.43c.7.12 1.38.33 2.04.61.43.2.8.52 1.07.92a2.8 2.8 0 0 1-.82 3.6 5.1 5.1 0 0 1-3.06.81 9.46 9.46 0 0 1-1.95-.17zm8.21-11.7a1.37 1.37 0 0 1-.44-1.1 1.3 1.3 0 0 1 .44-1.02 2.04 2.04 0 0 1 2.45 0c.3.26.47.63.47 1.02.02.42-.15.82-.46 1.1a2.1 2.1 0 0 1-2.46 0zm.2 11.5a1.26 1.26 0 0 1-.42-1.01v-7.14a1.26 1.26 0 0 1 .43-1.02c.29-.23.65-.35 1.02-.35a1.57 1.57 0 0 1 1.02.35c.29.26.44.63.42 1.02v7.14c.02.38-.13.76-.42 1.02a1.74 1.74 0 0 1-2.11 0h.06zm6.7-.22a4.32 4.32 0 0 1-1.78-1.74 5.96 5.96 0 0 1 0-5.3 4.36 4.36 0 0 1 1.79-1.74 6.28 6.28 0 0 1 5.36 0c.75.4 1.37 1 1.78 1.74a5.96 5.96 0 0 1 0 5.3 4.32 4.32 0 0 1-1.78 1.74 6.18 6.18 0 0 1-5.36 0zm4.84-4.4a3.2 3.2 0 0 0-.56-2.03 1.92 1.92 0 0 0-1.59-.69c-1.44 0-2.15.92-2.15 2.76 0 1.83.71 2.76 2.15 2.76s2.15-.95 2.15-2.8zm13.33-3.97a4.66 4.66 0 0 1 .83 3.06v4.52c.02.38-.12.75-.4 1.02a1.56 1.56 0 0 1-1.09.37 1.52 1.52 0 0 1-1.07-.37 1.3 1.3 0 0 1-.38-1.02v-4.38a2.27 2.27 0 0 0-.37-1.43 1.37 1.37 0 0 0-1.12-.44 1.92 1.92 0 0 0-1.48.59c-.39.42-.6.98-.56 1.56v4.08c.02.38-.12.75-.39 1.02a1.73 1.73 0 0 1-2.16 0 1.28 1.28 0 0 1-.4-1.02V55.1a1.22 1.22 0 0 1 .42-1.02 1.58 1.58 0 0 1 1.08-.37c.38-.02.74.1 1.02.36.25.24.39.58.38.93v.27c.33-.5.78-.92 1.32-1.19a3.97 3.97 0 0 1 1.83-.4 3.15 3.15 0 0 1 2.54 1z" fill="#000638"/><path d="M132.69 36.94a6.91 6.91 0 0 0-1.96.3 6.66 6.66 0 0 0 1.96 13.02c.66 0 1.32-.1 1.95-.29a6.67 6.67 0 0 0-1.95-13.03" fill="#7fb4ed"/><path d="M130.85 39.81a5.04 5.04 0 1 1-6.3-3.34 5.03 5.03 0 0 1 6.3 3.34z" fill="#006adc"/><path d="M141.6 12.66a10.57 10.57 0 1 0 10.08 7.5 10.65 10.65 0 0 0-10.07-7.5" fill="#e5f0fb"/><path d="M151.9 18.6a4.37 4.37 0 0 0-.78 8.67 4.36 4.36 0 0 0 1.57-8.58 4.19 4.19 0 0 0-.78-.08" fill="#3388e3"/><path d="M145.27 55.78a5 5 0 1 1-6.24-3.31 4.99 4.99 0 0 1 6.24 3.31z" fill="#006adc"/><path d="M114.44 48.4a3.44 3.44 0 1 0 3.28 2.43 3.47 3.47 0 0 0-3.28-2.43" fill="#4c96e6"/><path d="M146.22 42.24c-.26 0-.5.04-.75.11a2.54 2.54 0 0 0 .75 4.98c.25 0 .5-.04.74-.11a2.54 2.54 0 0 0-.74-4.98" fill="#b2d2f4"/><path d="M118.87 22.53a5.68 5.68 0 0 0 0 11.36 5.68 5.68 0 1 0 0-11.36" fill="#99c3f1"/></g></g></svg>