<svg xmlns="http://www.w3.org/2000/svg" width="142.75" height="114.75" viewBox="0.5 -45.75 142.75 114.75" xml:space="preserve"><g fill="#1B2B66"><path d="M8.15 45.95c-4.29 0-6.43 2.58-6.43 7.73v13.8h2.7v-6.1h3.72c4.3 0 6.45-2.57 6.45-7.7 0-5.15-2.15-7.73-6.44-7.73zm3.03 11.15c-.59.86-1.6 1.29-3.04 1.29H4.43v-4.7c0-1.58.23-2.73.7-3.43.57-.87 1.57-1.31 3.01-1.31 1.44 0 2.46.44 3.05 1.31.46.7.7 1.85.7 3.42 0 1.56-.24 2.7-.7 3.42zM22.79 42.22l4.31 2.44 1.22-1.65-5.54-3.15-5.53 3.15 1.22 1.65zM22.91 45.95c-4.3 0-6.44 2.58-6.44 7.73 0 5.13 2.15 7.7 6.44 7.7 4.28 0 6.42-2.57 6.42-7.7 0-5.15-2.13-7.73-6.42-7.73zm3 11.15c-.57.86-1.56 1.29-3 1.29-1.42 0-2.43-.43-3.01-1.29-.47-.72-.7-1.86-.7-3.42 0-1.57.23-2.72.7-3.42.58-.87 1.59-1.31 3.02-1.31s2.42.44 3 1.31c.45.7.69 1.85.69 3.42 0 1.58-.24 2.72-.7 3.42zM38.43 58.38c-1.68 0-2.84-.26-3.48-.79-.49-.38-.73-.98-.73-1.77V39.86h-2.7V55.8c0 3.73 2.3 5.6 6.91 5.6v-3zM93.28 45.95c-2.28 0-3.97.78-5.07 2.33-1.1-1.55-2.8-2.33-5.1-2.33-4.27 0-6.41 2.58-6.41 7.73v7.7h2.7v-7.72c0-1.57.24-2.7.7-3.4.57-.87 1.58-1.32 3.01-1.32 1.45 0 2.46.44 3.05 1.31.47.7.7 1.84.7 3.41v7.73h2.7v-7.73c0-1.57.24-2.7.71-3.4.57-.87 1.57-1.32 3.01-1.32 1.45 0 2.46.44 3.05 1.31.46.7.7 1.84.7 3.41v7.73h2.7v-7.7c0-5.16-2.15-7.74-6.45-7.74zM108.34 45.95c-4.28 0-6.42 2.58-6.42 7.73v13.8h2.7v-6.1h3.72c4.3 0 6.44-2.57 6.44-7.7 0-5.15-2.14-7.73-6.44-7.73zm3.04 11.15c-.6.86-1.6 1.29-3.04 1.29h-3.72v-4.7c0-1.58.23-2.73.7-3.43.57-.87 1.58-1.31 3.01-1.31 1.45 0 2.46.44 3.05 1.31.46.7.7 1.85.7 3.42 0 1.56-.23 2.7-.7 3.42zM119.47 55.82V39.87h-2.71v15.92c0 3.74 2.3 5.6 6.91 5.6v-3c-1.67 0-2.84-.27-3.48-.8-.48-.38-.72-.98-.72-1.77zM130.9 45.95c-4.3 0-6.45 2.58-6.45 7.73 0 5.13 2.15 7.7 6.45 7.7 4.28 0 6.42-2.57 6.42-7.7 0-5.15-2.13-7.73-6.42-7.73zm3.02 11.15c-.57.86-1.58 1.29-3.02 1.29-1.43 0-2.44-.43-3.02-1.29-.46-.7-.7-1.84-.7-3.42 0-1.57.24-2.72.7-3.42.58-.87 1.58-1.31 3.02-1.31s2.44.44 3.02 1.31c.47.7.7 1.85.7 3.42 0 1.58-.24 2.72-.7 3.42zM139.32 39.86h2.71v3h-2.71zM139.32 45.95h2.71v15.44h-2.71zM45.83 45.95c-3.9 0-6.46 2.86-6.46 7.8 0 5.8 3.03 7.81 6.85 7.81 2.68 0 4.16-.8 5.72-2.38l-1.96-1.83a4.54 4.54 0 0 1-3.7 1.57c-2.5 0-3.88-1.66-3.88-4.28h9.9V53.3c0-4.34-2.37-7.34-6.47-7.34zm-3.43 6.56c.03-.93.1-1.38.4-2.08a3.2 3.2 0 0 1 3.03-1.92c1.44 0 2.53.78 3 1.92.31.7.4 1.15.43 2.08H42.4zM68.07 45.95c-3.91 0-6.47 2.86-6.47 7.8 0 5.8 3.04 7.81 6.86 7.81 2.67 0 4.15-.8 5.71-2.38l-1.95-1.83a4.55 4.55 0 0 1-3.7 1.57c-2.5 0-3.89-1.66-3.89-4.28h9.9V53.3c0-4.34-2.37-7.34-6.46-7.34zm-3.44 6.56c.04-.93.1-1.38.4-2.08a3.2 3.2 0 0 1 3.04-1.92c1.44 0 2.52.78 3 1.92.3.7.4 1.15.42 2.08h-6.86z"/><g><path d="M71.9 10.2C67.7 5.83 65.57-.03 65.56-7.59c0-3.55.53-6.83 1.58-9.85a21.46 21.46 0 0 1 4.57-7.72 19.66 19.66 0 0 1 7.36-4.92 26.74 26.74 0 0 1 9.8-1.72c3.73 0 7 .63 9.85 1.86a36.58 36.58 0 0 0-29.01-14.3 36.69 36.69 0 1 0 28.49 59.78 28.24 28.24 0 0 1-8.43 1.16c-7.74 0-13.64-2.2-17.85-6.52z"/><path d="M101.35-5.2H78.08c-.77 0-1.43.51-1.4 1.38.1 2.6.68 4.96 1.74 7.02a12.15 12.15 0 0 0 4.62 5.09A12.23 12.23 0 0 0 89.4 10a13.81 13.81 0 0 0 7.93-2.25 26.33 26.33 0 0 0 3.23-2.41c.97-.86 2.85-2.62 3.5-3.21.3-.28.7-.5 1.16-.64.59-2.33.95-4.74 1.07-7.21-1.36.32-3 .5-4.94.5zM88.46-24.7c-3.21 0-5.96 1.15-8.04 3.4-2.01 2.16-3.2 5.26-3.69 9.2-.11.75.64 1.35 1.4 1.36h20.74c.73 0 1.44-.6 1.4-1.27-.37-4.04-1.51-7.18-3.54-9.34-2.1-2.23-4.92-3.36-8.27-3.35zM107.07 1.33a4.22 4.22 0 0 0-1.81.16 36.55 36.55 0 0 1-7.04 14.03l.27-.07c4.6-1.62 9.8-6.22 10.68-10.55.57-2.83-1.16-3.44-2.1-3.57zM100.83-28.88a19.4 19.4 0 0 0-2.03-1 36.55 36.55 0 0 1 7.54 24.12c.8-.2 1.54-.44 2.13-.75 1.44-.74 2.25-2.38 2.27-5.36a19.83 19.83 0 0 0-9.91-17z"/></g></g></svg>