<?xml version="1.0" encoding="UTF-8"?><svg id="Calque_1" xmlns="http://www.w3.org/2000/svg" viewBox="0 0 800 800"><defs><style>.cls-1{fill:#ec4c4c;}.cls-2{fill:#083b66;}</style></defs><path class="cls-2" d="m271.54,771.99l17.6-4.32s41.99-16.85,53.79-80.46c11.79-63.58,66.91-106.43,128.57-88.26,44.36-6.31,11.88-74.45-56.24-55.98-56.28,15.28-84.69,28.41-106.74,22.09-7.25-2.1-12.73-8.04-14.27-15.43-18.37-89.2-55.17-267.31-59.55-282.65-5.26-18.32-17.38-23.67-30.51-21.11-15.41,1.95-16.39,17.95-16.72,28.3,0,13.28,8.96,118.75,13.76,174.18-4.21-17.47-14.01-34.83-36.38-32.9-22.97,1.93-27.07,30.27-26.54,53.15-4.65-18.02-16.31-36.14-45.28-27.38-10.17,3.05-14.86,17.86-16.46,36.73l-.7-1.03-59.27-90.37c-27.22-41.53-15.65-97.25,25.88-124.49L421.67,13.4c33.82-22.2,78.01-16.02,104.61,12.69l-10.7,2.63s-42.1,16.92-53.94,80.81c-11.81,63.85-67.07,106.87-128.85,88.61-44.47,6.36-11.92,74.78,56.35,56.24,56.46-15.36,84.93-28.56,107.07-22.16,7.23,2.08,12.71,8.02,14.25,15.43,18.39,89.56,55.3,268.47,59.68,283.86,5.28,18.43,17.42,23.8,30.6,21.19,15.45-1.97,16.44-18.02,16.75-28.43,0-13.33-8.99-119.23-13.79-174.9,4.23,17.56,14.03,34.96,36.47,33.05,23.04-1.95,27.13-30.4,26.61-53.39,4.65,18.08,16.35,36.3,45.41,27.51,8.13-2.45,12.76-12.43,15.12-25.97l.9,1.38,13.63,20.78v.02l41.56,63.34c27.24,41.51,15.65,97.25-25.88,124.49l-373.45,244.91c-34.78,22.82-79.69,17.95-108.82-9.18-1.45-1.35-2.86-2.75-4.23-4.21l.53-.11Z"/><g><path class="cls-1" d="m399.44,393.48l-85.57-66.54h177.71l-85.57,66.54c-1.93,1.5-4.64,1.5-6.57,0Z"/><path class="cls-1" d="m503.87,338.18v109.47c0,14.02-11.37,25.39-25.39,25.39h-151.51c-14.02,0-25.39-11.37-25.39-25.39v-109.47c0-.54.03-1.06.12-1.58l92.34,71.81c5.11,3.98,12.27,3.98,17.38,0l92.34-71.83c.08.52.12,1.06.12,1.59Z"/></g></svg>