<svg width="440" height="39" xmlns="http://www.w3.org/2000/svg"><g fill="none" fill-rule="evenodd"><g fill-rule="nonzero" fill="#000"><path d="M100.284 13.029V7.908h1.32l3.366 5.12h3.077l-3.981-5.609a3.479 3.479 0 001.493-1.294c.355-.56.533-1.221.533-1.981 0-1.17-.404-2.093-1.212-2.769-.808-.675-1.906-1.013-3.293-1.013h-3.873v12.667h2.57zm1.447-7.31h-1.447V2.55h1.447c.543 0 .966.14 1.267.417.302.277.452.657.452 1.14 0 .518-.15.916-.452 1.194-.301.277-.724.416-1.267.416zm15.472 7.31v-2.19h-4.813V7.672h4.089v-2.19h-4.09v-2.93h4.814V.361h-7.383v12.667h7.383zm5.736 0V7.908h1.61c1.388 0 2.483-.338 3.285-1.014.802-.675 1.203-1.592 1.203-2.75 0-1.17-.401-2.093-1.203-2.769C127.032.7 125.937.362 124.55.362h-4.18v12.667h2.569zm1.72-7.31h-1.72V2.55h1.72c.542 0 .967.14 1.275.417.307.277.461.657.461 1.14 0 .518-.154.916-.461 1.194-.308.277-.733.416-1.276.416zm11.435 7.671c1.58 0 2.832-.473 3.755-1.42s1.384-2.247 1.384-3.9V.362h-2.57v7.926c0 .844-.228 1.505-.687 1.981-.458.477-1.08.715-1.864.715-.796 0-1.423-.238-1.882-.715-.458-.476-.687-1.137-.687-1.981V.362h-2.57V8.07c0 1.653.459 2.953 1.376 3.9.916.947 2.165 1.42 3.745 1.42zm12.377-.361c1.448 0 2.594-.332 3.439-.996.844-.663 1.266-1.574 1.266-2.732 0-.651-.18-1.24-.543-1.764-.362-.525-.874-.938-1.538-1.24.435-.301.766-.666.995-1.095.23-.428.344-.895.344-1.402 0-1.062-.377-1.9-1.13-2.515-.755-.615-1.79-.923-3.104-.923h-3.601v12.667h3.872zm-.217-7.709h-1.085V2.551h1.085c.483 0 .86.124 1.131.371.272.248.407.582.407 1.005 0 .446-.135.79-.407 1.031-.271.241-.648.362-1.13.362zm.362 5.519h-1.447V7.528h1.447c.591 0 1.059.141 1.403.425.343.283.515.684.515 1.203s-.172.93-.515 1.23c-.344.302-.812.453-1.403.453zm14.748 2.19v-2.335h-4.814V.362h-2.569v12.667h7.383zm5.012 0V.362h-2.57v12.667h2.57zm16.575 3.148c.278 0 .52-.018.724-.054a2.97 2.97 0 00.615-.181V13.77a2.262 2.262 0 01-.452.109c-.169.024-.32.036-.452.036-.41 0-.836-.09-1.276-.271-.44-.181-.902-.495-1.384-.941l-.76-.724a6.532 6.532 0 001.827-2.316c.447-.929.67-1.918.67-2.968 0-.905-.163-1.764-.489-2.578A6.395 6.395 0 00182.6 1.99a6.707 6.707 0 00-4.85-1.99c-.989 0-1.9.181-2.732.543a6.68 6.68 0 00-2.135 1.447 6.395 6.395 0 00-1.375 2.127 6.878 6.878 0 00-.489 2.578c0 .905.163 1.765.489 2.579a6.395 6.395 0 001.375 2.126 6.68 6.68 0 002.135 1.448c.833.362 1.743.542 2.733.542.301 0 .6-.018.895-.054a5.94 5.94 0 00.842-.163l1.502 1.34a7.162 7.162 0 001.918 1.239 5.156 5.156 0 002.044.425zm-7.201-5.193a4.04 4.04 0 01-1.647-.335 3.905 3.905 0 01-1.294-.905 4.194 4.194 0 01-.841-1.357 4.607 4.607 0 01-.308-1.692c0-.603.103-1.167.308-1.692.205-.524.485-.977.841-1.357s.787-.681 1.294-.905a4.04 4.04 0 011.647-.334 3.976 3.976 0 012.922 1.24c.356.38.636.832.841 1.356.205.525.308 1.09.308 1.692 0 .603-.103 1.167-.308 1.692a4.194 4.194 0 01-.841 1.357 3.976 3.976 0 01-2.922 1.24zm14.114 2.406c1.58 0 2.832-.473 3.755-1.42.922-.947 1.384-2.247 1.384-3.9V.362h-2.57v7.926c0 .844-.229 1.505-.687 1.981-.459.477-1.08.715-1.864.715-.796 0-1.424-.238-1.882-.715-.458-.476-.688-1.137-.688-1.981V.362h-2.57V8.07c0 1.653.46 2.953 1.376 3.9.917.947 2.165 1.42 3.746 1.42zm15.887-.361v-2.19h-4.813V7.672h4.09v-2.19h-4.09v-2.93h4.813V.361h-7.382v12.667h7.382zM100.284 32.933v-5.356h4.09v-2.19h-4.09v-2.93h4.813v-2.19h-7.383v12.666h2.57zm9.826 0v-5.12h1.32l3.366 5.12h3.076l-3.98-5.61a3.479 3.479 0 001.492-1.293c.356-.561.534-1.221.534-1.981 0-1.17-.404-2.093-1.212-2.769-.809-.676-1.906-1.013-3.294-1.013h-3.872v12.666h2.57zm1.447-7.31h-1.447v-3.167h1.447c.543 0 .965.139 1.267.416.301.278.452.658.452 1.14 0 .52-.15.917-.452 1.195-.302.277-.724.416-1.267.416zm9.229 7.31l1.212-3.293h5.067l1.212 3.293h2.733l-4.796-12.666h-3.365l-4.796 12.666h2.733zm5.483-5.483h-3.475l1.737-4.759 1.738 4.76zm9.445 5.483v-9.102l5.664 9.102h3.293V20.267h-2.57v9.065l-5.663-9.065h-3.293v12.666h2.57zm17.752 2.914l1.574-2.624a6.46 6.46 0 002.497-.85 6.137 6.137 0 001.846-1.665l-2.027-1.557a4.2 4.2 0 01-1.384 1.258c-.561.32-1.203.48-1.927.48a4.04 4.04 0 01-1.647-.335 3.905 3.905 0 01-1.294-.905 4.194 4.194 0 01-.841-1.357 4.607 4.607 0 01-.308-1.692c0-.603.103-1.167.308-1.692.205-.525.485-.977.841-1.357s.787-.682 1.294-.905a4.04 4.04 0 011.647-.335c.724 0 1.366.16 1.927.48a4.2 4.2 0 011.384 1.258l2.027-1.575c-.58-.76-1.327-1.378-2.244-1.854-.917-.477-1.948-.715-3.094-.715-.99 0-1.9.18-2.733.543a6.68 6.68 0 00-2.135 1.447 6.395 6.395 0 00-1.375 2.126 6.878 6.878 0 00-.489 2.579c0 .796.13 1.562.39 2.298.259.736.627 1.396 1.103 1.982a6.545 6.545 0 003.972 2.307l-1.592 2.66h2.28zm9.464-2.914l1.212-3.293h5.067l1.212 3.293h2.732l-4.795-12.666h-3.366l-4.795 12.666h2.733zm5.482-5.483h-3.474l1.737-4.759 1.737 4.76zm9.446 5.483V20.267h-2.57v12.666h2.57zm7.292.362c.58 0 1.122-.087 1.629-.262a3.948 3.948 0 001.321-.751c.374-.326.673-.724.896-1.194.223-.47.34-1.002.353-1.593 0-1.061-.302-1.87-.905-2.425a7.991 7.991 0 00-1.99-1.348c-.724-.343-1.388-.663-1.991-.959-.603-.295-.905-.726-.905-1.293 0-.374.133-.688.398-.941.266-.254.621-.38 1.068-.38.482 0 .932.141 1.348.425.416.283.811.666 1.185 1.149l1.882-1.683a6.253 6.253 0 00-1.909-1.547c-.742-.392-1.583-.588-2.524-.588-.603 0-1.152.096-1.647.29-.495.192-.92.455-1.276.786a3.538 3.538 0 00-.832 1.177 3.49 3.49 0 00-.299 1.42c0 1.05.302 1.846.905 2.389a8.259 8.259 0 001.99 1.33c.724.343 1.388.663 1.991.959.603.295.905.727.905 1.294 0 .458-.145.817-.434 1.076-.29.26-.688.39-1.195.39a3.022 3.022 0 01-1.51-.417 4.357 4.357 0 01-1.294-1.14l-1.864 1.72a6.004 6.004 0 001.972 1.555c.76.374 1.67.561 2.732.561zm14.459-.362v-2.19h-4.814v-3.166h4.09v-2.19h-4.09v-2.93h4.814v-2.19h-7.383v12.666h7.383z"/></g><path fill="#FFF" d="M0 .362h90.979v32.752H0z"/><path d="M37.378 29.293l1.096-1.092c.658-.764 1.316-1.528 2.083-2.183.22-.218.438-.437.658-.546 0 0 0-.11.11-.218-.22.109-.549.436-.768.546 0 0-.11 0 0-.11.22-.109.438-.218.658-.545v-.11c-.768-.109-1.535.437-2.083.983h-.22c-.986.218-1.644 1.092-2.52 1.528v-.109c-.439.11-.658.437-1.097.437-.548.11-1.096 0-1.534 0-.767.11-1.535.218-2.302.437-.439.109-.767.218-1.206.436 0 0 0 .11-.11.11l-.438.436c-.438.11-.658.546-1.096.764h-.11l-.986.983h-.11c0-.11.11-.11.11-.218 0-.11.11-.11.11-.219.11-.109.11-.218.219-.436v-.11h-.11c.22-.218.658-.545 1.096-.764h-.11l.11-.109c-.11 0-.219.11-.219.218-.11.11-.22.437-.548.437h-.11v-.11s0-.108.11-.108v-.656l.438-.436c.22-.11.548-.218.658-.437 0 0 .11 0 .11-.109-.439.11-.658.218-.987.546h-.22c0-.11.22-.11.44-.218h.109c2.083-1.529 4.713-1.201 7.015-2.075.11-.109.439-.218.548-.436.22-.11.548-.437.987-.655.548-.437.767-.765 1.096-1.529v-.11a12.906 12.906 0 01-2.74 2.075c-1.316.655-2.74.546-4.056.764 0-.109.11-.109.22-.109 0-.109.109-.218.218-.436h.22s0-.11.11-.11h.218c-.11-.218-.548.11-.767 0 .11-.109 0-.218.11-.436h.329c0-.11.11-.219.11-.219.986-.546 1.753-.982 2.74-1.528-.11 0-.22.11-.549 0 .11 0 0-.11.11-.11.658-.108 1.206-.545 1.864-.763-.22 0-.439.109-.658 0 .11 0 .11-.11.438-.11v-.109h.11-.11c0-.109.22 0 .439-.109h-.11c.11-.218.548-.218.767-.437 0-.109-.219 0-.219-.109h.11-.11c-.11 0 0-.109 0-.218.439-.437.439-.983.548-1.529h-.11c-.657.655-1.644.983-2.52 1.201h-.22c-.219.11-.767.11-1.096 0-.219-.109-.438-.218-.657-.546-.549-.218-.987-.545-1.535-.764a11.494 11.494 0 00-4.713-.655c.657-.437 1.534-.437 2.192-.655 1.096-.218 2.082-.655 3.069-.655h-.658c-.767 0-1.753.11-2.74.437-.658.109-1.206.436-1.754.546-.438.109-.548.545-.986.436v-.109c.657-.764 1.315-1.528 2.302-1.528 1.096-.11 2.192 0 3.288.109.767 0 1.535.218 2.302.437.219 0 .438.545.657.545.439.11.768 0 1.097.219v-.437c.219-.218.548 0 .767 0 .548-.218-.439-.764-.658-1.31v-.11c.548.437.768.983 1.535 1.202.22.109 1.096.218.986 0-.219-.655-.986-1.201-1.534-1.856v-.546c-.11 0-.11 0-.11-.11v-.218c-.22-.109-.11-.436-.22-.546-.109-.218 0-.764-.109-1.091-.11-.437-.11-.655-.219-1.092-.11-1.092-.438-2.074-.548-2.948-.11-1.2.658-2.183 1.206-3.057.438-.764.986-1.528 1.754-2.074.11-.764.657-1.31 1.205-2.074.548-.546 1.316-.983 1.864-1.201C42.2.58 42.968.362 42.968.362h12.167l.22.11c.219.108.657.436.986.545.439.218.987.546 1.206.983.11.109.22.545.11.764-.11.218-.11.764-.549.982-.438.11-.767.11-1.315.11-.22 0-.548 0-.767-.11.986.437 1.754.765 2.411 1.638 0 .11.22.11.548.11v.108c-.11.11-.219.11-.11.437h.44c.218-.11.218-.764.657-.546.219.11.438.655.219.983-.22.218-.548.436-.767.655v.436c.11.219.219.546.219.765.11.436.22.982.438 1.31.439.982.658 1.856.549 2.838 0 .546-.22.983 0 1.529.11.546.438.764.657 1.31.22.437.548.655.658.982.438.655 1.096 1.201.767 2.075-.11.436-.767.436-1.315.655-.439.218 0 .764.11 1.092.219.545-.439.982-.768 1.091.11.11.439.11.439.219 0 .218.438.545.11.764-.22.437-.987.546-.658 1.092.219.436.11.982 0 1.31-.11.546-.658.764-1.097.982a2.26 2.26 0 01-1.205 0c-.11 0-.22-.109-.439-.109-1.096-.11-2.192-.437-3.069-.437-.22 0-.658.11-.767.219-.22.218-.548.436-.768.655l-.11.109-.109.11c-.11.217-.438.436-.548.654v.11c-.22.436-.438.764-.438 1.091-.439 1.529-.22 2.73 0 2.948.11.109 2.082.655 3.398 1.31.657.218 1.096.546 1.534.655H30.144c1.205-.764 2.301-1.201 4.055-2.074.877-.11 2.631-.983 3.18-1.529m-9.537-4.367h-.22c0-.218.549-.218.768-.437.11 0 .219-.109.438-.109.11.11.22.11.439.219-.439.327-.987 0-1.425.327m-9.646-1.528a34.63 34.63 0 001.863-3.275c.767-.437 1.535-1.092 2.192-1.747 1.097-1.092 2.193-2.184 3.508-2.73a4.168 4.168 0 011.644 0c-.11.219-.548.11-.767.437h-.11v-.11c-.657.656-1.534.983-2.082 1.748-.439.655-.658 1.528-1.535 1.637-.22 0 0-.109 0-.109-1.644 1.201-3.069 2.511-4.713 4.149m5.37-4.04c0 .11-.109.11-.109.219s-.11.109-.219.218h-.11c-.11-.218 0-.437.439-.437 0-.109 0 0 0 0m2.85 9.28c0 .11-.11.11-.11.11.11 0 .11 0 .11.108-.11.11-.22.219-.439.219h-.11l-.219.218c-.11 0-.438 0-.219-.109l.439-.437.219-.218.11-.11c-.11.11.219.11.219.22m-1.096-.547c-.22.11-.548.437-.658.546-.22.11-.548.218-.767.437h-.11c-.22.109-.438.218-.658.546l-.11.109-.109.109-.11.11-.11.108h-.219-.109c-.11 0-.11.11-.22.11l-.438.436v-.109c0-.11.11-.11.11-.218v-.11l.11-.109c.11-.109.11-.109.11-.218 0 0 0-.11.109-.11 0 0 0-.108.11-.108v-.11-.109-.109c.11-.109.11-.218.219-.218-.11 0-.11.109-.22.109 0 0-.11 0-.11-.11l.11-.108c.11-.11.11-.219.22-.219s.11-.109.11-.109l.109-.109c.548-.546 1.644-.546 2.411-.983.22-.109.658 0 .987 0 .11 0 .438 0 .548.11-.438-.219-.987.218-1.315.436m1.205-4.258s.11 0 .22-.109h-.548v-.109c-.22 0-.658.11-.987.218-.438.11-.767.437-1.315.546-.658.219-1.206.765-2.083 1.092v-.11c0-.108.22-.217.438-.436v-.218c.549-.655 1.206-1.092 1.754-1.638v-.109c.11-.218.548-.437.658-.655 0-.11.22-.437.658-.546 0 0-.11 0-.11-.109-.22 0-.548.11-.767 0 .11-.11.219-.11.438-.218 0 0-.11 0-.11-.11 0-.109.11-.218.22-.218.219 0 .548 0 .767-.218-.438 0-.986.109-1.315-.11.219-.764.767-1.528 1.644-1.855h.11c0 .218-.11.545-.549.655.549.109.987.109 1.535.436 0 .11-.11 0-.22 0 .22.11.658 0 .987.219-.11.109-.438 0-.548 0 1.864.546 3.946.982 5.59 2.292-1.315.655-2.85.983-4.384 1.31h-.548v.11c-.22 0-.439 0-.658.109-.329-.11-.657 0-.877-.219" fill="#FFF" fill-rule="nonzero"/><path d="M37.378 29.293l1.096-1.092c.658-.764 1.316-1.528 2.083-2.183.22-.218.438-.437.658-.546 0 0 0-.11.11-.218-.22.109-.549.436-.768.546 0 0-.11 0 0-.11.22-.109.438-.218.658-.545v-.11c-.768-.109-1.535.437-2.083.983h-.22c-.986.218-1.644 1.092-2.52 1.528v-.109c-.439.11-.658.437-1.097.437-.548.11-1.096 0-1.534 0-.767.11-1.535.218-2.302.437-.439.109-.767.218-1.206.436 0 0 0 .11-.11.11l-.438.436c-.438.11-.658.546-1.096.764h-.11l-.986.983h-.11c0-.11.11-.11.11-.218 0-.11.11-.11.11-.219.11-.109.11-.218.219-.436v-.11h-.11c.22-.218.658-.545 1.096-.764h-.11l.11-.109c-.11 0-.219.11-.219.218-.11.11-.22.437-.548.437h-.11v-.11s0-.108.11-.108v-.656l.438-.436c.22-.11.548-.218.658-.437 0 0 .11 0 .11-.109-.439.11-.658.218-.987.546h-.22c0-.11.22-.11.44-.218h.109c2.083-1.529 4.713-1.201 7.015-2.075.11-.109.439-.218.548-.436.22-.11.548-.437.987-.655.548-.437.767-.765 1.096-1.529v-.11a12.906 12.906 0 01-2.74 2.075c-1.316.655-2.74.546-4.056.764 0-.109.11-.109.22-.109 0-.109.109-.218.218-.436h.22s0-.11.11-.11h.218c-.11-.218-.548.11-.767 0 .11-.109 0-.218.11-.436h.329c0-.11.11-.219.11-.219.986-.546 1.753-.982 2.74-1.528-.11 0-.22.11-.549 0 .11 0 0-.11.11-.11.658-.108 1.206-.545 1.864-.763-.22 0-.439.109-.658 0 .11 0 .11-.11.438-.11v-.109h.11-.11c0-.109.22 0 .439-.109h-.11c.11-.218.548-.218.767-.437 0-.109-.219 0-.219-.109h.11-.11c-.11 0 0-.109 0-.218.439-.437.439-.983.548-1.529h-.11c-.657.655-1.644.983-2.52 1.201h-.22c-.219.11-.767.11-1.096 0-.219-.109-.438-.218-.657-.546-.549-.218-.987-.545-1.535-.764a11.494 11.494 0 00-4.713-.655c.657-.437 1.534-.437 2.192-.655 1.096-.218 2.082-.655 3.069-.655h-.658c-.767 0-1.753.11-2.74.437-.658.109-1.206.436-1.754.546-.438.109-.548.545-.986.436v-.109c.657-.764 1.315-1.528 2.302-1.528 1.096-.11 2.192 0 3.288.109.767 0 1.535.218 2.302.437.219 0 .438.545.657.545.439.11.768 0 1.097.219v-.437c.219-.218.548 0 .767 0 .548-.218-.439-.764-.658-1.31v-.11c.548.437.768.983 1.535 1.202.22.109 1.096.218.986 0-.219-.655-.986-1.201-1.534-1.856v-.546c-.11 0-.11 0-.11-.11v-.218c-.22-.109-.11-.436-.22-.546-.109-.218 0-.764-.109-1.091-.11-.437-.11-.655-.219-1.092-.11-1.092-.438-2.074-.548-2.948-.11-1.2.658-2.183 1.206-3.057.438-.764.986-1.528 1.754-2.074.11-.764.657-1.31 1.205-2.074.548-.546 1.316-.983 1.864-1.201C42.2.58 42.968.362 42.968.362H0v32.752h30.253c1.206-.764 2.302-1.2 4.056-2.074.767-.328 2.521-1.201 3.07-1.747m-9.537-4.367h-.22c0-.218.549-.218.768-.437.11 0 .219-.109.438-.109.11.11.22.11.439.219-.439.327-.987 0-1.425.327m-9.427-1.528s-.22 0 0 0a34.63 34.63 0 001.863-3.275c.768-.437 1.535-1.092 2.193-1.747 1.096-1.092 2.192-2.184 3.507-2.73a4.168 4.168 0 011.644 0c-.11.219-.548.11-.767.437h-.219v-.11c-.658.656-1.535.983-2.083 1.748-.438.655-.657 1.528-1.534 1.637-.22 0 0-.109 0-.109-1.754 1.201-3.179 2.511-4.604 4.149m5.152-4.04c0 .11-.11.11-.11.219s-.11.109-.219.218h-.11c-.11-.218 0-.437.439-.437 0-.109 0 0 0 0m2.85 9.28c0 .11-.11.11-.11.11.11 0 .11 0 .11.108-.11.11-.22.219-.439.219h-.11l-.219.218c-.11 0-.438 0-.219-.109l.439-.437.219-.218.11-.11c-.11.11.219.11.219.22m-1.096-.547c-.22.11-.548.437-.658.546-.22.11-.548.218-.767.437h-.11c-.22.109-.438.218-.658.546l-.11.109-.109.109-.11.11-.11.108h-.219-.109c-.11 0-.11.11-.22.11l-.438.436v-.109c0-.11.11-.11.11-.218v-.11l.11-.109c.11-.109.11-.109.11-.218 0 0 0-.11.109-.11 0 0 0-.108.11-.108v-.11-.109-.109c.11-.109.11-.218.219-.218-.11 0-.11.109-.22.109 0 0-.11 0-.11-.11l.11-.108c.11-.11.11-.219.22-.219s.11-.109.11-.109l.109-.109c.548-.546 1.644-.546 2.411-.983.22-.109.658 0 .987 0 .11 0 .438 0 .548.11-.438-.219-.767.218-1.315.436m1.205-4.258s.11 0 .22-.109h-.548v-.109c-.22 0-.658.11-.987.218-.438.11-.767.437-1.315.546-.658.219-1.206.765-2.083 1.092v-.11c0-.108.22-.217.438-.436v-.218c.549-.655 1.206-1.092 1.754-1.638v-.109c.11-.218.548-.437.658-.655 0-.11.22-.437.658-.546 0 0-.11 0-.11-.109-.22 0-.548.11-.767 0 .11-.11.219-.11.438-.218 0 0-.11 0-.11-.11 0-.109.11-.218.22-.218.219 0 .548 0 .767-.218-.438 0-.986.109-1.315-.11.219-.764.767-1.528 1.644-1.855h.11c0 .218-.11.545-.549.655.549.109.987.109 1.535.436 0 .11-.11 0-.22 0 .22.11.658 0 .987.219-.11.109-.438 0-.548 0 1.864.546 3.946.982 5.59 2.292-1.315.655-2.85.983-4.384 1.31h-.548v.11c-.22 0-.439 0-.658.109-.329-.11-.657 0-.877-.219" fill="#000091" fill-rule="nonzero"/><path d="M90.65.362H55.135l.22.11c.219.108.657.436.986.545.439.218.987.546 1.206.983.11.109.22.545.11.764-.11.218-.11.764-.549.982-.438.11-.767.11-1.315.11-.22 0-.548 0-.767-.11.986.437 1.754.765 2.411 1.638 0 .11.22.11.548.11v.108c-.11.11-.219.11-.11.437h.44c.218-.11.218-.764.657-.546.219.11.438.655.219.983-.22.218-.548.436-.767.655v.436c.11.219.219.546.219.765.11.436.22.982.438 1.31.439.982.658 1.856.549 2.838 0 .546-.22.983 0 1.529.11.546.438.764.657 1.31.22.437.548.655.658.982.438.655 1.096 1.201.767 2.075-.11.436-.767.436-1.315.655-.439.218 0 .764.11 1.092.219.545-.439.982-.768 1.091.11.11.439.11.439.219 0 .218.438.545.11.764-.22.437-.987.546-.658 1.092.219.436.11.982 0 1.31-.11.546-.658.764-1.097.982a2.26 2.26 0 01-1.205 0c-.11 0-.22-.109-.439-.109-1.096-.11-2.192-.437-3.069-.437-.22 0-.658.11-.767.219-.22.218-.548.436-.768.655l-.11.109-.109.11c-.11.217-.438.436-.548.654v.11c-.22.436-.438.764-.438 1.091-.439 1.529-.22 2.73 0 2.948.11.109 2.082.655 3.398 1.31.657.218 1.096.546 1.534.655H90.87V.362h-.219z" fill="#E1000F" fill-rule="nonzero"/><path d="M57.218 12.371c.22 0 .658 0 .658.11-.11.545-.768.654-1.206 1.091h-.11c-.11.11-.11.437-.219.437h-.548c.22.218.548.436.987.436 0 0 .11.11.11.219h.219v.218c-.11.218-.549.11-.768.11.548.108.987.108 1.535 0 .438-.11 0-.765.219-1.092-.11 0 0-.11-.11-.11l.439-.436c.11 0 .219 0 .438-.11 0-.109-.219-.109-.11-.218.439-.218.658-.655.549-.982 0-.11-.548-.11-.768-.219-.219-.109-.657 0-1.096 0-.219 0-.657.11-.986.219-.768.109-1.096.436-1.535.545a9.23 9.23 0 001.315-.436c.33.218.658 0 .987.218" fill="#9C9B9B" fill-rule="nonzero"/><g fill="#000" fill-rule="nonzero"><path d="M240.479 4.458c.404 0 .748-.146 1.034-.437.285-.29.427-.638.427-1.042s-.142-.751-.427-1.042a1.394 1.394 0 00-1.034-.437c-.404 0-.751.146-1.042.437A1.423 1.423 0 00239 2.979c0 .404.146.751.437 1.042.29.291.638.437 1.042.437zm1.123 10.549v-8.98h-2.263v8.98h2.263zm5.862 0V9.144a3.96 3.96 0 01.74-.882c.326-.303.775-.454 1.345-.454.546 0 .977.175 1.292.526.315.35.472.822.472 1.416v5.257h2.299V9.66c0-.665-.092-1.247-.276-1.746a3.6 3.6 0 00-.749-1.247 3.04 3.04 0 00-1.105-.749 3.682 3.682 0 00-1.363-.25c-.594 0-1.108.105-1.541.313-.434.207-.805.46-1.114.757v-.713h-2.263v8.98h2.263zm13.917.356c.82 0 1.553-.166 2.2-.499a4.627 4.627 0 001.595-1.318l-1.8-1.372a2.54 2.54 0 01-.828.757 2.287 2.287 0 01-1.167.294c-.749 0-1.37-.255-1.862-.766-.493-.511-.74-1.158-.74-1.943 0-.784.244-1.431.73-1.942.488-.51 1.1-.766 1.836-.766.464 0 .864.098 1.203.294.339.196.615.448.829.757l1.8-1.372a4.627 4.627 0 00-1.595-1.318c-.648-.333-1.381-.5-2.201-.5-.772 0-1.467.131-2.085.393a4.626 4.626 0 00-1.56 1.051c-.42.44-.745.953-.97 1.541a5.151 5.151 0 00-.339 1.862c0 .654.113 1.275.339 1.863.225.588.55 1.101.97 1.54.423.44.942.79 1.56 1.052.618.262 1.313.392 2.085.392zm8.642-.356V1.643h-2.263v13.364h2.263zm7.591.356c1.307 0 2.334-.389 3.083-1.167.748-.778 1.122-1.838 1.122-3.18v-4.99h-2.28v5.096c0 .642-.167 1.153-.5 1.533-.332.38-.801.57-1.407.57-.618 0-1.093-.19-1.426-.57-.332-.38-.499-.891-.499-1.533V6.026h-2.28v4.99c0 1.342.37 2.402 1.113 3.18s1.767 1.167 3.074 1.167zm10.353 0c.416 0 .82-.065 1.212-.196.392-.13.736-.317 1.033-.561.297-.244.535-.546.713-.909.178-.362.273-.78.285-1.256 0-.796-.22-1.387-.66-1.773a5.147 5.147 0 00-1.434-.9c-.516-.214-.995-.41-1.434-.588-.44-.178-.66-.457-.66-.837 0-.25.09-.449.268-.597.178-.149.433-.223.766-.223.357 0 .683.098.98.294.297.196.559.442.784.74l1.515-1.355c-.333-.44-.793-.805-1.381-1.096a4.259 4.259 0 00-1.916-.436c-.926 0-1.69.264-2.29.793-.6.528-.9 1.185-.9 1.969 0 .807.22 1.404.66 1.79.44.387.918.69 1.434.91.517.219.995.418 1.435.596.44.178.66.463.66.856a.868.868 0 01-.286.659c-.19.178-.463.267-.82.267-.427 0-.81-.113-1.149-.338a4.014 4.014 0 01-.918-.856l-1.496 1.39c.427.51.935.915 1.523 1.212.588.297 1.28.445 2.076.445zm7.36-10.905c.403 0 .748-.146 1.033-.437.285-.29.428-.638.428-1.042s-.143-.751-.428-1.042a1.394 1.394 0 00-1.034-.437c-.404 0-.751.146-1.042.437a1.423 1.423 0 00-.437 1.042c0 .404.146.751.437 1.042.291.291.638.437 1.042.437zm1.122 10.549v-8.98h-2.263v8.98h2.263zm7.876.356c.725 0 1.39-.127 1.996-.383a4.83 4.83 0 001.559-1.033c.434-.434.77-.948 1.007-1.542a5.038 5.038 0 00.356-1.889c0-.665-.119-1.294-.356-1.888a4.533 4.533 0 00-1.007-1.542 4.83 4.83 0 00-1.56-1.033 5.086 5.086 0 00-1.995-.383c-.725 0-1.39.127-1.996.383a4.83 4.83 0 00-1.559 1.033c-.434.434-.77.948-1.007 1.542a5.038 5.038 0 00-.356 1.888c0 .666.119 1.295.356 1.89a4.533 4.533 0 001.007 1.54 4.83 4.83 0 001.56 1.034 5.086 5.086 0 001.995.383zm.036-2.138c-.749 0-1.37-.255-1.862-.766-.493-.511-.74-1.158-.74-1.943 0-.784.247-1.431.74-1.942.493-.51 1.113-.766 1.862-.766.712 0 1.312.255 1.8.766.486.511.73 1.158.73 1.942 0 .773-.244 1.417-.73 1.934a2.376 2.376 0 01-1.8.775zm10.103 1.782V9.144a3.96 3.96 0 01.74-.882c.326-.303.775-.454 1.345-.454.546 0 .977.175 1.292.526.315.35.472.822.472 1.416v5.257h2.299V9.66c0-.665-.092-1.247-.276-1.746a3.6 3.6 0 00-.749-1.247 3.04 3.04 0 00-1.105-.749 3.682 3.682 0 00-1.363-.25c-.594 0-1.108.105-1.541.313-.434.207-.805.46-1.114.757v-.713h-2.263v8.98h2.263zm10.674.214c.416 0 .778-.155 1.087-.464.309-.308.463-.67.463-1.087 0-.415-.154-.778-.463-1.086a1.488 1.488 0 00-1.087-.464c-.428 0-.796.155-1.105.464a1.488 1.488 0 00-.463 1.086c0 .416.154.779.463 1.087.309.31.677.464 1.105.464zm9.533.142c.7 0 1.336-.13 1.907-.392a4.512 4.512 0 001.46-1.051c.405-.44.72-.953.945-1.541a5.151 5.151 0 00.339-1.863c0-.653-.113-1.274-.339-1.862a4.788 4.788 0 00-.944-1.541 4.512 4.512 0 00-1.461-1.051c-.57-.262-1.206-.392-1.907-.392a4.49 4.49 0 00-1.916.41 4.37 4.37 0 00-1.523 1.176V1.643h-1.051v13.364h1.05v-1.23c.429.511.936.903 1.524 1.176a4.49 4.49 0 001.916.41zm-.09-.998c-.676 0-1.309-.16-1.897-.48a3.916 3.916 0 01-1.452-1.39V8.538c.368-.606.85-1.07 1.443-1.39a3.952 3.952 0 011.907-.481c.534 0 1.025.1 1.47.302a3.4 3.4 0 011.14.83c.315.35.562.76.74 1.229.178.469.267.965.267 1.487 0 .523-.089 1.02-.267 1.488-.178.47-.425.88-.74 1.23a3.4 3.4 0 01-1.14.829 3.519 3.519 0 01-1.47.302zm12.42.998c.82 0 1.554-.166 2.202-.499a4.382 4.382 0 001.577-1.336l-.802-.642a3.685 3.685 0 01-1.257 1.105 3.517 3.517 0 01-1.701.41c-.559 0-1.07-.1-1.533-.303a3.686 3.686 0 01-1.194-.82 3.661 3.661 0 01-.775-1.22 4.085 4.085 0 01-.276-1.506v-.303h7.252c.024-.107.042-.226.054-.356.012-.13.018-.262.018-.392 0-.547-.092-1.055-.277-1.524a3.436 3.436 0 00-.792-1.211 3.756 3.756 0 00-1.248-.802 4.307 4.307 0 00-1.621-.294c-.666 0-1.274.121-1.827.365a4.132 4.132 0 00-1.416 1.016 4.585 4.585 0 00-.91 1.541 5.64 5.64 0 00-.32 1.924c0 .654.116 1.275.348 1.863.231.588.555 1.101.97 1.54.416.44.924.79 1.524 1.052s1.268.392 2.005.392zm2.496-5.987h-6.148c.19-.879.576-1.56 1.158-2.04.582-.481 1.295-.722 2.138-.722.82 0 1.494.267 2.023.802.529.535.805 1.188.829 1.96zm8.179 5.81c.285 0 .543-.019.775-.054.231-.036.448-.09.65-.16v-.963a3.933 3.933 0 01-1.319.196c-.605 0-1.098-.134-1.479-.4-.38-.268-.57-.812-.57-1.631V6.988h3.368v-.962h-3.368V3.781h-1.069v2.245h-1.693v.962h1.693v5.186c0 1.093.273 1.868.82 2.325.546.457 1.277.686 2.192.686zm7.198.177c.642 0 1.242-.142 1.8-.427a3.936 3.936 0 001.408-1.212v1.283h1.051V8.859c0-.986-.315-1.764-.944-2.334-.63-.57-1.461-.855-2.495-.855-.76 0-1.443.154-2.05.463a4.258 4.258 0 00-1.496 1.247l.82.624a3.177 3.177 0 011.131-1.007c.458-.243.977-.365 1.56-.365.712 0 1.294.193 1.746.579.451.386.677.936.677 1.648v.838l-3.19.534c-.938.155-1.66.467-2.165.936-.505.47-.757 1.042-.757 1.72 0 .748.267 1.348.802 1.8.534.45 1.235.676 2.102.676zm.125-.926c-.606 0-1.084-.152-1.434-.455-.35-.303-.526-.674-.526-1.113 0-.464.17-.856.508-1.176.339-.321.864-.541 1.577-.66l2.958-.499v2.067a3.797 3.797 0 01-1.319 1.355 3.365 3.365 0 01-1.764.48zm9.035.766c.249 0 .457-.09.623-.267a.885.885 0 00.25-.624.825.825 0 00-.25-.606.846.846 0 00-.623-.25.885.885 0 00-.624.25.798.798 0 00-.267.606c0 .238.089.445.267.624a.855.855 0 00.624.267zm7.929 4.259c.665 0 1.274-.078 1.826-.232a4.518 4.518 0 001.417-.65 3.08 3.08 0 00.918-1.007c.22-.392.33-.814.33-1.265 0-.772-.274-1.411-.82-1.916-.547-.505-1.426-.757-2.637-.757h-2.745c-.332 0-.558-.071-.677-.214a.78.78 0 01-.178-.517c0-.19.071-.389.214-.597.142-.208.344-.389.606-.543a4.006 4.006 0 001.443.267c.523 0 .995-.086 1.417-.258a3.305 3.305 0 001.078-.695c.297-.291.525-.633.686-1.025.16-.392.24-.796.24-1.212 0-.344-.056-.68-.169-1.006a3.347 3.347 0 00-.454-.882h2.245v-.927h-3.368a3.49 3.49 0 00-.784-.276 3.977 3.977 0 00-.89-.098c-.512 0-.978.086-1.4.258a3.305 3.305 0 00-1.078.695 3.018 3.018 0 00-.686 1.025 3.172 3.172 0 00.09 2.62c.22.439.53.807.935 1.104a2.499 2.499 0 00-.82.748 1.678 1.678 0 00-.303.963c0 .25.057.487.17.712a1.5 1.5 0 00.507.57c-.475.333-.828.687-1.06 1.06a2.338 2.338 0 00-.347 1.257c0 .428.107.817.32 1.167.214.35.508.645.882.882a4.55 4.55 0 001.355.553c.528.13 1.107.196 1.737.196zm-.285-8.322c-.772 0-1.363-.231-1.773-.695a2.348 2.348 0 01-.615-1.604c0-.617.205-1.155.615-1.612.41-.458 1-.686 1.773-.686.748 0 1.327.228 1.737.686.41.457.615.995.615 1.612 0 .606-.205 1.14-.615 1.604-.41.464-.989.695-1.737.695zm.267 7.413c-.95 0-1.725-.178-2.325-.535-.6-.356-.9-.837-.9-1.443 0-.404.116-.766.347-1.087.232-.32.58-.618 1.043-.89h2.85c.951 0 1.596.171 1.934.516.339.344.508.76.508 1.247 0 .677-.318 1.212-.953 1.604-.636.392-1.47.588-2.504.588zm11.226-3.19a4.806 4.806 0 003.501-1.461c.422-.44.75-.953.98-1.541a4.987 4.987 0 00.348-1.845c0-.641-.116-1.256-.347-1.844a4.677 4.677 0 00-.98-1.541 4.806 4.806 0 00-1.533-1.06c-.6-.268-1.256-.401-1.969-.401-.712 0-1.366.133-1.96.4a4.833 4.833 0 00-1.523 1.06c-.422.44-.749.954-.98 1.542a4.987 4.987 0 00-.348 1.844c0 .642.116 1.257.348 1.845.231.588.558 1.102.98 1.541.421.44.93.793 1.523 1.06.594.268 1.248.401 1.96.401zm.018-.998a3.596 3.596 0 01-1.506-.311 3.76 3.76 0 01-1.185-.838 3.761 3.761 0 01-.775-1.23 3.989 3.989 0 01-.276-1.47c0-.51.092-1 .276-1.47.184-.469.443-.879.775-1.23a3.76 3.76 0 011.185-.837c.458-.208.96-.311 1.506-.311a3.51 3.51 0 011.47.311c.458.208.85.487 1.176.838.327.35.582.76.766 1.23.185.469.277.959.277 1.47 0 .51-.092.997-.277 1.46-.184.464-.44.87-.766 1.221-.326.35-.718.633-1.176.847-.457.214-.947.32-1.47.32zm12.028.998c1.14 0 2.064-.365 2.77-1.096.708-.73 1.061-1.76 1.061-3.091v-5.15h-1.051v5.168c0 1.01-.259 1.79-.775 2.343-.517.552-1.185.828-2.005.828-.843 0-1.524-.276-2.04-.828-.517-.553-.775-1.334-.775-2.343V6.026h-1.052v5.15c0 1.33.357 2.36 1.07 3.091.712.731 1.645 1.096 2.797 1.096zm11.725-.356l3.653-8.98h-1.14l-3.208 7.964-3.225-7.965h-1.123l3.653 8.98h1.39zm5.88.196c.25 0 .458-.09.624-.267a.885.885 0 00.25-.624.825.825 0 00-.25-.606.846.846 0 00-.624-.25.885.885 0 00-.623.25.798.798 0 00-.268.606c0 .238.09.445.268.624a.855.855 0 00.623.267zm6.576-.196V6.988h3.367v-.962h-3.367V4.814c0-.689.184-1.23.552-1.621.368-.392.838-.588 1.408-.588.344 0 .641.068.89.205.25.136.47.306.66.508l.677-.784c-.261-.25-.579-.46-.953-.633-.374-.172-.811-.258-1.31-.258-.879 0-1.598.29-2.156.873-.558.582-.838 1.354-.838 2.316v1.194h-1.692v.962h1.692v8.019h1.07zm6.789 0V8.61c.332-.547.715-.968 1.149-1.265.434-.297.953-.446 1.56-.446a3.06 3.06 0 01.82.107l-.001-1.051a2.773 2.773 0 00-.748-.107c-.606 0-1.13.128-1.569.383-.44.255-.843.615-1.211 1.078V6.026h-1.052v8.98h1.052z"/></g><g fill="#000" fill-rule="nonzero"><path d="M239.908 32.945v-4.451h1.758c.937 0 1.679-.24 2.227-.719.549-.48.823-1.106.823-1.88 0-.792-.274-1.428-.823-1.907-.548-.48-1.29-.72-2.227-.72H239v9.677h.908zm1.773-5.239h-1.773v-3.65h1.773c.652 0 1.163.162 1.531.485.37.322.554.764.554 1.327 0 .58-.185 1.032-.554 1.354-.368.323-.879.484-1.531.484zm5.786 5.239V22.578h-.836v10.367h.836zm4.71.276c.51 0 .987-.11 1.432-.331a3.112 3.112 0 001.12-.94v.995h.837v-4.769c0-.765-.25-1.368-.752-1.81-.5-.443-1.163-.664-1.985-.664-.606 0-1.15.12-1.631.36a3.37 3.37 0 00-1.192.967l.653.483c.236-.331.536-.592.9-.78a2.655 2.655 0 011.241-.284c.568 0 1.03.15 1.39.45.36.299.54.725.54 1.278v.65l-2.54.414c-.747.12-1.321.362-1.723.726-.402.364-.603.809-.603 1.334 0 .58.213 1.046.639 1.396.425.35.983.525 1.673.525zm.098-.718c-.482 0-.862-.118-1.141-.353-.28-.235-.419-.523-.419-.864 0-.36.135-.663.405-.912.269-.249.687-.42 1.255-.512l2.354-.387v1.604a2.983 2.983 0 01-1.05 1.05 2.731 2.731 0 01-1.404.374zm8.723.58c.227 0 .433-.014.617-.041a2.92 2.92 0 00.518-.125v-.746a3.198 3.198 0 01-1.05.152c-.482 0-.874-.104-1.177-.311-.303-.207-.454-.629-.454-1.265v-4.022h2.68v-.747h-2.68v-1.742h-.85v1.742h-1.348v.747h1.347v4.022c0 .848.218 1.45.653 1.804.435.355 1.016.532 1.744.532zm6.312.138c.652 0 1.236-.129 1.751-.387a3.466 3.466 0 001.255-1.036l-.638-.498a2.858 2.858 0 01-2.354 1.175c-.445 0-.851-.078-1.22-.235a2.832 2.832 0 01-1.567-1.583 3.098 3.098 0 01-.22-1.168v-.235h5.773c.018-.083.033-.175.042-.276.01-.102.014-.203.014-.304 0-.424-.073-.818-.22-1.182a2.66 2.66 0 00-.63-.94 3 3 0 00-.994-.622 3.507 3.507 0 00-1.29-.228c-.53 0-1.014.094-1.454.283-.44.189-.816.452-1.128.788a3.538 3.538 0 00-.723 1.196c-.17.46-.255.958-.255 1.493 0 .506.092.988.276 1.444.185.456.442.855.773 1.196.331.34.736.613 1.213.815.478.203 1.01.304 1.596.304zm1.985-4.644h-4.893c.151-.682.459-1.21.922-1.583s1.03-.56 1.702-.56c.652 0 1.189.208 1.61.622.42.415.64.922.66 1.52zm4.312 4.368v-6.22h2.68v-.747h-2.68v-.94c0-.534.147-.954.44-1.258.293-.304.666-.456 1.12-.456.274 0 .51.053.71.16.198.105.373.236.524.393l.539-.608a2.762 2.762 0 00-.759-.49 2.527 2.527 0 00-1.042-.201c-.7 0-1.272.225-1.716.677-.445.452-.667 1.05-.667 1.797v.926h-1.347v.747h1.347v6.22h.851zm7.276.276a3.893 3.893 0 002.787-1.133c.336-.341.596-.74.78-1.196.184-.456.277-.933.277-1.43 0-.498-.093-.975-.277-1.431a3.618 3.618 0 00-.78-1.196 3.893 3.893 0 00-2.787-1.133 3.842 3.842 0 00-2.773 1.133c-.336.341-.596.74-.78 1.196a3.782 3.782 0 00-.277 1.43c0 .498.093.975.277 1.431.184.456.444.855.78 1.196a3.85 3.85 0 002.773 1.133zm.014-.774c-.435 0-.834-.08-1.198-.242a2.909 2.909 0 01-1.56-1.603 3.025 3.025 0 01-.22-1.14 3.025 3.025 0 01.836-2.095c.265-.272.58-.488.944-.65a2.926 2.926 0 011.198-.241 2.91 2.91 0 012.106.892c.26.271.464.59.61.953.147.364.22.744.22 1.14 0 .397-.073.775-.22 1.134-.146.36-.35.675-.61.947-.26.272-.572.49-.936.657a2.788 2.788 0 01-1.17.248zm6.794.498v-4.963c.265-.423.57-.75.915-.981.345-.23.758-.346 1.24-.346a2.492 2.492 0 01.652.083h.001v-.815a2.263 2.263 0 00-.596-.083c-.482 0-.898.099-1.248.297-.35.198-.671.477-.964.836v-.995h-.837v6.967h.837zm5.546 0v-5.004a3.02 3.02 0 01.921-1.064c.379-.268.837-.401 1.376-.401.577 0 1.043.18 1.397.539.355.36.532.875.532 1.548v4.382h.851v-4.41c0-.092-.005-.186-.014-.283l-.028-.283c.293-.498.63-.871 1.014-1.12.383-.249.82-.373 1.312-.373.576 0 1.044.18 1.404.539.359.36.539.875.539 1.548v4.382h.836v-4.41c0-.912-.25-1.612-.751-2.1-.501-.49-1.14-.733-1.915-.733-.596 0-1.109.138-1.539.414-.43.277-.796.645-1.099 1.106-.208-.497-.525-.875-.95-1.133-.426-.258-.917-.387-1.475-.387-.52 0-.979.108-1.376.325-.397.216-.742.509-1.035.877v-.926h-.837v6.967h.837zm15.984.276c.652 0 1.236-.129 1.752-.387a3.466 3.466 0 001.255-1.036l-.638-.498a2.858 2.858 0 01-2.354 1.175c-.445 0-.852-.078-1.22-.235a2.832 2.832 0 01-1.567-1.583 3.098 3.098 0 01-.22-1.168v-.235H312c.019-.083.033-.175.042-.276.01-.102.015-.203.015-.304 0-.424-.074-.818-.22-1.182a2.66 2.66 0 00-.631-.94 3 3 0 00-.993-.622 3.507 3.507 0 00-1.29-.228c-.53 0-1.015.094-1.455.283-.44.189-.815.452-1.127.788a3.538 3.538 0 00-.724 1.196c-.17.46-.255.958-.255 1.493 0 .506.092.988.277 1.444.184.456.442.855.773 1.196.33.34.735.613 1.212.815.478.203 1.01.304 1.596.304zm1.986-4.644h-4.894c.152-.682.459-1.21.922-1.583.464-.373 1.03-.56 1.702-.56.653 0 1.19.208 1.61.622.42.415.64.922.66 1.52zm9.942 4.644c.548 0 1.057-.106 1.525-.318a3.469 3.469 0 001.212-.912v.954h.837V22.578h-.837v4.354c-.34-.396-.744-.7-1.212-.912a3.652 3.652 0 00-1.525-.318 3.68 3.68 0 00-1.518.304 3.59 3.59 0 00-1.163.815c-.321.341-.57.74-.744 1.196a4 4 0 00-.263 1.445 4 4 0 00.263 1.444c.175.456.423.855.744 1.196.322.34.71.613 1.163.815.454.203.96.304 1.518.304zm.07-.774c-.415 0-.8-.078-1.155-.235a2.782 2.782 0 01-.915-.642 2.933 2.933 0 01-.596-.954 3.15 3.15 0 01-.212-1.154c0-.406.07-.79.212-1.155.142-.364.34-.682.596-.953.255-.272.56-.487.915-.643.355-.157.74-.235 1.156-.235a3.17 3.17 0 011.51.373c.468.249.854.608 1.156 1.078v3.069c-.293.47-.673.83-1.141 1.078a3.198 3.198 0 01-1.525.373zm9.475.774c.653 0 1.237-.129 1.752-.387a3.466 3.466 0 001.255-1.036l-.638-.498a2.858 2.858 0 01-2.354 1.175c-.445 0-.852-.078-1.22-.235a2.832 2.832 0 01-1.567-1.583 3.098 3.098 0 01-.22-1.168v-.235h5.772c.02-.083.033-.175.043-.276.01-.102.014-.203.014-.304 0-.424-.073-.818-.22-1.182a2.66 2.66 0 00-.631-.94 3 3 0 00-.993-.622 3.507 3.507 0 00-1.29-.228c-.53 0-1.015.094-1.454.283-.44.189-.816.452-1.128.788a3.538 3.538 0 00-.723 1.196c-.17.46-.256.958-.256 1.493 0 .506.093.988.277 1.444.184.456.442.855.773 1.196.331.34.735.613 1.213.815.477.203 1.01.304 1.595.304zm1.986-4.644h-4.893c.151-.682.458-1.21.922-1.583.463-.373 1.03-.56 1.702-.56.652 0 1.189.208 1.61.622.42.415.64.922.659 1.52zm7.758 4.368V22.578h-.837v10.367h.837zm3.035-6.137l1.348-3.54h-.965l-1.149 3.54h.766zm4.028-3.028a.625.625 0 00.639-.622.578.578 0 00-.185-.428.625.625 0 00-.454-.18.65.65 0 00-.46.18.568.568 0 00-.192.428c0 .175.064.323.191.443a.65.65 0 00.461.18zm.412 9.165v-6.967h-.837v6.967h.837zm3.645 0v-5.004a3.362 3.362 0 011-1.071c.392-.263.872-.394 1.44-.394.623 0 1.124.191 1.503.573.378.383.567.933.567 1.652v4.244h.851v-4.271c0-.959-.265-1.694-.794-2.205-.53-.512-1.201-.767-2.014-.767-.558 0-1.045.11-1.461.331-.416.222-.78.521-1.092.899v-.954h-.837v6.967h.837zm11.19.276c.643 0 1.222-.13 1.738-.394a3.593 3.593 0 001.255-1.03l-.68-.51c-.247.35-.568.63-.965.842a2.786 2.786 0 01-1.334.318c-.434 0-.836-.078-1.205-.235a2.883 2.883 0 01-.95-.642 2.909 2.909 0 01-.617-.954 3.061 3.061 0 01-.22-1.154c0-.406.073-.79.22-1.155.146-.364.352-.682.617-.953.264-.272.579-.487.943-.643a3 3 0 011.198-.235c.492 0 .939.106 1.34.318.402.212.726.493.972.843l.68-.512a3.593 3.593 0 00-1.254-1.03c-.516-.262-1.095-.393-1.738-.393-.576 0-1.101.101-1.574.304a3.618 3.618 0 00-1.993 2.011 3.818 3.818 0 00-.276 1.445c0 .506.092.988.276 1.444a3.618 3.618 0 001.993 2.011c.473.203.998.304 1.574.304zm5.702-.276V22.578h-.837v10.367h.837zm5.716.276c.907 0 1.643-.283 2.205-.85.563-.566.844-1.366.844-2.398v-3.995h-.837v4.009c0 .783-.205 1.389-.617 1.818-.41.428-.943.642-1.595.642-.672 0-1.213-.214-1.624-.642-.412-.429-.617-1.035-.617-1.818v-4.009h-.837v3.995c0 1.032.284 1.832.851 2.398.567.567 1.31.85 2.227.85zm7.403 0c.653 0 1.196-.188 1.631-.566.435-.378.653-.867.653-1.466s-.19-1.039-.567-1.32a5.986 5.986 0 00-1.234-.705 11.672 11.672 0 01-1.234-.608c-.379-.216-.568-.55-.568-1.002 0-.341.116-.617.348-.83.231-.211.565-.317 1-.317.35 0 .664.076.943.228.279.152.518.375.716.67l.624-.484a2.777 2.777 0 00-.964-.808 2.867 2.867 0 00-1.348-.311c-.633 0-1.15.177-1.553.532a1.69 1.69 0 00-.602 1.32c0 .627.189 1.085.567 1.375.378.29.792.533 1.24.726.45.194.864.392 1.242.594.378.203.567.526.567.968 0 .36-.13.666-.39.92-.26.253-.621.38-1.085.38-.378 0-.728-.083-1.05-.25a2.744 2.744 0 01-.879-.746l-.624.512c.312.387.686.682 1.12.884.436.203.918.304 1.447.304zm4.88-9.44a.625.625 0 00.638-.623.578.578 0 00-.185-.428.625.625 0 00-.454-.18.65.65 0 00-.46.18.568.568 0 00-.192.428c0 .175.064.323.191.443a.65.65 0 00.461.18zm.41 9.164v-6.967h-.836v6.967h.837zm5.972.276a3.893 3.893 0 002.787-1.133c.335-.341.596-.74.78-1.196.184-.456.276-.933.276-1.43 0-.498-.092-.975-.276-1.431a3.618 3.618 0 00-.78-1.196 3.893 3.893 0 00-2.787-1.133 3.842 3.842 0 00-2.773 1.133c-.336.341-.596.74-.78 1.196a3.782 3.782 0 00-.277 1.43c0 .498.093.975.277 1.431.184.456.444.855.78 1.196a3.85 3.85 0 002.773 1.133zm.014-.774c-.435 0-.834-.08-1.198-.242a2.909 2.909 0 01-1.56-1.603 3.025 3.025 0 01-.22-1.14 3.025 3.025 0 01.836-2.095c.265-.272.58-.488.944-.65a2.926 2.926 0 011.198-.241 2.91 2.91 0 012.106.892c.26.271.464.59.61.953.147.364.22.744.22 1.14 0 .397-.073.775-.22 1.134-.146.36-.35.675-.61.947-.26.272-.572.49-.936.657a2.788 2.788 0 01-1.17.248zm6.794.498v-5.004a3.362 3.362 0 011-1.071c.392-.263.872-.394 1.44-.394.623 0 1.124.191 1.503.573.378.383.567.933.567 1.652v4.244H405v-4.271c0-.959-.265-1.694-.794-2.205-.53-.512-1.201-.767-2.014-.767-.558 0-1.045.11-1.461.331-.416.222-.78.521-1.092.899v-.954h-.837v6.967h.837z"/></g></g></svg>