<svg width="278" height="85" xmlns="http://www.w3.org/2000/svg"><g fill="none" fill-rule="evenodd"><g fill="#000" fill-rule="nonzero"><path d="M41.7 74.6c.264 0 .492.204.372.672l-1.212.324c.192-.576.552-.996.84-.996m.672 1.968h-.24c-.3.36-.636.648-.96.648-.336 0-.504-.204-.504-.648 0-.18.024-.372.06-.54l1.956-.648c.384-.912-.072-1.308-.612-1.308-.924 0-1.98 1.62-1.98 2.916 0 .612.288.948.744.948.528-.012 1.08-.528 1.536-1.368m-.312-2.928l1.116-1.02v-.144h-.744l-.66 1.164h.288zm-4.176.984h.648L37.5 77.456c-.096.24.036.48.288.48.732 0 1.608-.624 1.944-1.512h-.18c-.264.372-.84.78-1.272.852l.948-2.652h.972l.12-.408h-.948l.36-1.02h-.372l-.672 1.02-.804.108v.3zm-.672-.132c.084-.264-.096-.408-.228-.408-.564 0-1.236.504-1.512 1.224h.18c.18-.264.492-.552.792-.6l-1.08 2.82c-.096.264.096.408.228.408.54 0 1.164-.516 1.44-1.224h-.192c-.18.264-.492.552-.792.6l1.164-2.82zm.108-1.128a.443.443 0 100-.888.443.443 0 100 .888m-5.244 1.5c.168 0 .264.264 0 .84l-.768 1.704c-.144.324.012.528.324.528.192 0 .276-.048.36-.252l.756-1.992c.348-.42.996-.876 1.272-.876.204 0 .18.168.048.42l-1.152 2.22c-.108.216.036.48.288.48.564 0 1.236-.504 1.512-1.224h-.18c-.18.264-.492.552-.792.6l.996-2.004c.132-.252.192-.492.192-.684 0-.324-.18-.54-.528-.54-.492 0-.912.552-1.5 1.236v-.528c0-.372-.12-.708-.456-.708-.396 0-.756.612-1.032 1.224h.18c.168-.288.336-.444.48-.444m-.78.072c.132-.456.06-.864-.288-.864-.444 0-.576.3-1.02 1.236v-.528c0-.372-.12-.708-.456-.708-.396 0-.756.612-1.032 1.224h.18c.192-.276.372-.444.516-.444.168 0 .264.264 0 .84l-.768 1.704c-.144.324.012.528.324.528.192 0 .276-.048.36-.252l.756-1.992c.216-.264.408-.492.648-.744h.78zm-4.164-.336c.264 0 .492.204.372.672l-1.212.324c.192-.576.552-.996.84-.996m.672 1.968h-.24c-.3.36-.636.648-.96.648-.336 0-.504-.204-.504-.648 0-.18.024-.372.06-.54l1.956-.648c.384-.912-.072-1.308-.612-1.308-.924 0-1.98 1.62-1.98 2.916 0 .612.288.948.744.948.528-.012 1.08-.528 1.536-1.368m-4.488-1.944h.648l-1.032 2.832c-.096.24.036.48.288.48.732 0 1.608-.624 1.944-1.512h-.18c-.264.372-.84.78-1.272.852l.948-2.652h.972l.12-.408h-.948l.36-1.02h-.372l-.672 1.02-.804.108v.3zm-3.432 2.196c0-.876.972-2.052 1.512-2.052.12 0 .24.012.336.048l-.564 1.512c-.324.396-.828.876-1.068.876-.132 0-.216-.12-.216-.384m2.976-2.904l-.3-.024-.336.336h-.06c-1.428 0-2.952 1.776-2.952 3.168 0 .324.18.54.528.54.42 0 .828-.6 1.284-1.236l-.024.228c-.06.648.144 1.008.48 1.008.396 0 .756-.612 1.032-1.224h-.18c-.192.276-.372.444-.516.444-.144 0-.252-.264 0-.84l1.044-2.4zm-3.048 1.02c.132-.456.06-.864-.288-.864-.444 0-.576.3-1.02 1.236v-.528c0-.372-.12-.708-.456-.708-.396 0-.756.612-1.032 1.224h.18c.192-.276.372-.444.504-.444.168 0 .264.264 0 .84l-.768 1.716c-.144.324.012.528.324.528.192 0 .276-.048.36-.252l.756-1.992c.216-.264.408-.492.648-.744h.792v-.012zm-5.016 2.856l.072-.216c-.948-.18-1.068-.18-.684-1.2l.348-.96h.756c.468 0 .468.204.408.72h.264l.624-1.704h-.264c-.228.408-.42.72-.924.72h-.756l.516-1.404c.18-.504.264-.6.912-.6h.168c.66 0 .732.18.732.876h.264l.216-1.164h-3.636l-.072.216c.756.156.828.228.48 1.2l-.78 2.088c-.36.972-.504 1.044-1.368 1.2l-.072.228h2.796zM32.88 66.368c.264 0 .492.204.372.66l-1.212.324c.204-.564.564-.984.84-.984m.672 1.956h-.24c-.3.36-.636.648-.96.648-.336 0-.504-.204-.504-.648 0-.18.024-.372.06-.54l1.968-.648c.384-.912-.084-1.308-.612-1.308-.924 0-1.98 1.62-1.98 2.916 0 .612.288.948.744.948.528 0 1.08-.516 1.524-1.368m-.312-2.916l1.116-1.02v-.144h-.744l-.66 1.164h.288zm-4.164.984h.648l-1.032 2.832c-.096.24.036.48.288.48.732 0 1.608-.624 1.944-1.512h-.18c-.264.372-.84.78-1.272.852l.948-2.652h.972l.12-.408h-.948l.36-1.02h-.372l-.672 1.02-.804.108v.3zm-.672-.144c.072-.264-.096-.408-.24-.408-.564 0-1.236.516-1.512 1.224h.18c.18-.264.492-.552.792-.6l-1.08 2.82c-.096.264.096.408.228.408.54 0 1.164-.516 1.44-1.224h-.18c-.18.264-.492.552-.792.6l1.164-2.82zm.108-1.116a.45.45 0 00.444-.444.443.443 0 10-.444.444m-3.468 3.936l1.788-4.752-.06-.072-1.236.144v.144l.24.18c.216.168.144.324-.048.852l-1.368 3.648c-.108.216.036.48.288.48.564 0 1.164-.516 1.44-1.224h-.18c-.192.264-.576.552-.864.6m-3.66-.48c0-.876.972-2.052 1.512-2.052.12 0 .228.012.336.048l-.564 1.512c-.324.396-.828.876-1.056.876-.144 0-.228-.12-.228-.384m2.976-2.904l-.3-.024-.336.336h-.06c-1.428 0-2.952 1.776-2.952 3.168 0 .324.18.54.528.54.42 0 .828-.6 1.284-1.236l-.024.228c-.06.648.144 1.008.48 1.008.396 0 .756-.612 1.032-1.224h-.18c-.192.276-.372.444-.516.444-.144 0-.252-.264 0-.84l1.044-2.4zm-6.924 4.704c0-.372.36-.612.876-.816.168.084.42.18.768.288.54.18.744.252.744.408 0 .348-.492.612-1.392.612-.672 0-.996-.144-.996-.492m1.476-2.292c-.24 0-.324-.204-.324-.42 0-.696.336-1.56.876-1.56.24 0 .324.204.324.42-.012.708-.348 1.56-.876 1.56m1.524 1.944c0-.456-.408-.612-1.068-.816-.564-.168-.816-.216-.816-.408 0-.144.12-.324.36-.456.936-.048 1.524-.888 1.524-1.62 0-.132-.024-.252-.06-.36h.636l.12-.408h-1.08a.94.94 0 00-.528-.144c-.984 0-1.608.864-1.608 1.62 0 .492.288.828.732.888-.456.216-.72.444-.72.732 0 .168.06.288.204.384-1.056.312-1.488.696-1.488 1.164 0 .492.648.696 1.404.696 1.308.012 2.388-.684 2.388-1.272m-4.872-2.868c.468 0 .48.204.408.72h.264l.624-1.704h-.264c-.228.408-.42.72-.924.72H14.64l.504-1.404c.18-.504.264-.6.912-.6h.456c.66 0 .732.18.732.876h.264l.216-1.164h-3.912l-.072.216c.756.156.828.228.48 1.2l-.78 2.1c-.36.972-.504 1.044-1.38 1.2l-.06.228h4.344l.78-1.236h-.3c-.504.492-1.008.948-1.992.948-1.152 0-1.056-.06-.672-1.128l.36-.96h1.044v-.012zm.564-2.928l1.116-.804v-.144H16.5l-.66.96h.288v-.012zM32.748 58.136c.264 0 .492.204.372.66l-1.212.324c.192-.564.552-.984.84-.984m.672 1.956h-.24c-.3.36-.636.648-.96.648-.336 0-.504-.204-.504-.648 0-.18.024-.372.06-.54l1.956-.648c.384-.912-.084-1.308-.612-1.308-.924 0-1.98 1.62-1.98 2.916 0 .612.288.936.744.936.528.012 1.08-.504 1.536-1.356m-.312-2.916l1.116-1.02v-.144h-.744l-.66 1.164h.288zm-4.176.984h.648l-1.032 2.832c-.096.24.036.48.288.48.732 0 1.608-.624 1.944-1.512h-.18c-.264.372-.84.78-1.272.852l.948-2.652h.972l.12-.408h-.948l.36-1.02h-.372l-.672 1.02-.804.108v.3zm-.336.312c.132-.456.06-.864-.288-.864-.444 0-.576.3-1.02 1.236v-.528c0-.372-.12-.708-.456-.708-.396 0-.756.612-1.032 1.224h.18c.192-.276.372-.444.504-.444.168 0 .264.264 0 .84l-.768 1.704c-.144.324.012.528.324.528.192 0 .276-.048.36-.252l.756-1.992c.216-.264.408-.492.648-.744h.792zm-4.176-.336c.264 0 .492.204.372.66l-1.212.324c.204-.564.552-.984.84-.984m.672 1.956h-.24c-.3.36-.636.648-.96.648-.336 0-.504-.204-.504-.648 0-.18.024-.372.06-.54l1.956-.648c.384-.912-.072-1.308-.612-1.308-.924 0-1.98 1.62-1.98 2.916 0 .612.288.936.744.936.528.012 1.08-.504 1.536-1.356m-4.572.792c-.192 0-.468-.18-.468-.336 0-.048.084-.264.192-.54l.312-.84c.336-.408.864-.84 1.152-.84.18 0 .312.108.312.372.012.78-.72 2.184-1.5 2.184m2.184-2.484c0-.576-.144-.792-.552-.792-.504 0-.972.54-1.44 1.188l1.008-2.7-.06-.084-1.236.144v.144l.24.18c.216.168.144.336-.048.852l-1.092 2.856c-.096.24-.204.528-.204.6 0 .336.456.66.876.66.936.012 2.508-1.716 2.508-3.048m-3.672-.384c.072-.264-.096-.408-.24-.408-.564 0-1.236.516-1.512 1.224h.18c.18-.264.492-.552.792-.6l-1.08 2.82c-.096.264.096.408.24.408.54 0 1.164-.516 1.44-1.224h-.18c-.18.264-.492.552-.792.6l1.152-2.82zm.12-1.128a.45.45 0 00.444-.444.443.443 0 10-.888 0c0 .252.192.444.444.444m-2.76-.528h-2.58l-.072.216c.756.156.828.228.48 1.2l-.78 2.124c-.36.972-.504 1.044-1.368 1.2l-.072.216h3.924l.852-1.512h-.3c-.492.54-1.044 1.224-1.92 1.224-.66 0-.756-.12-.384-1.128l.768-2.112c.36-.972.504-1.044 1.38-1.2l.072-.228z"/></g><path d="M14.94 39v-6.024l1.872 3.144h1.2l1.872-3.144V39h1.704v-8.4h-2.124l-2.052 3.528L15.36 30.6h-2.124V39h1.704zm10.867 0v-8.4h-1.704V39h1.704zm4.231 0v-6.072L33.794 39h2.184v-8.4h-1.704v6.072L30.518 30.6h-2.184V39h1.704zm10.171 0v-8.4h-1.704V39h1.704zm4.879.24c1.548 0 2.772-.948 2.796-2.532 0-2.88-3.816-2.448-3.816-3.972 0-.504.396-.888.996-.888.636 0 1.188.42 1.68 1.056l1.248-1.128c-.72-.852-1.68-1.416-2.94-1.416-1.608 0-2.712 1.104-2.712 2.436 0 2.844 3.816 2.424 3.816 3.972 0 .6-.408.96-1.08.96-.684 0-1.356-.384-1.86-1.032l-1.236 1.14c.744.888 1.692 1.404 3.108 1.404zm8.131-.24v-6.852h2.592V30.6h-6.888v1.548h2.592V39h1.704zm7.519-9.12l-1.356-1.62H57.63l1.548 1.62h1.56zM62.382 39v-1.416H59.19v-2.16h2.712v-1.416H59.19v-1.992h3.192V30.6h-4.896V39h4.896zm3.859 0v-3.396h.876L69.361 39h2.004l-2.628-3.72c.864-.396 1.356-1.152 1.356-2.172 0-1.56-1.14-2.508-2.988-2.508h-2.568V39h1.704zm.96-4.812h-.96v-2.172h.96c.72 0 1.14.432 1.14 1.068 0 .684-.42 1.104-1.14 1.104zM77.516 39v-1.416h-3.192v-2.16h2.712v-1.416h-2.712v-1.992h3.192V30.6H72.62V39h4.896zm-60.98 12C19.2 51 21 49.068 21 46.8c0-2.268-1.8-4.2-4.464-4.2h-3.3V51h3.3zm.024-1.548h-1.62v-5.304h1.62c1.56 0 2.688 1.152 2.688 2.652 0 1.488-1.128 2.652-2.688 2.652zm9.511 1.788c2.112 0 3.408-1.32 3.408-3.528V42.6h-1.704v5.256c0 1.128-.648 1.788-1.692 1.788-1.068 0-1.704-.66-1.704-1.788V42.6h-1.704v5.112c0 2.208 1.296 3.528 3.396 3.528zM38.493 51v-6.852h2.592V42.6h-6.888v1.548h2.592V51h1.704zm5.971 0v-3.396h.876L47.584 51h2.004l-2.628-3.72c.864-.396 1.356-1.152 1.356-2.172 0-1.56-1.14-2.508-2.988-2.508H42.76V51h1.704zm.96-4.812h-.96v-2.172h.96c.72 0 1.14.432 1.14 1.068 0 .684-.42 1.104-1.14 1.104zM51.959 51l.804-2.184h3.36L56.927 51h1.812l-3.18-8.4h-2.232l-3.18 8.4h1.812zm3.636-3.636h-2.304l1.152-3.156 1.152 3.156zM63.822 51l3.18-8.4H65.19l-2.484 6.564-2.484-6.564H58.41l3.18 8.4h2.232zm4.663 0l.804-2.184h3.36L73.453 51h1.812l-3.18-8.4h-2.232l-3.18 8.4h1.812zm3.636-3.636h-2.304l1.152-3.156 1.152 3.156zM78.44 51v-8.4h-1.704V51h1.704zm7.423 0v-1.548h-3.192V42.6h-1.704V51h4.896z" fill="#1E1E1E" fill-rule="nonzero"/><path fill="#FFF" d="M12 12h33v12H12z"/><path d="M25.69 22.59c.128-.13.256-.266.385-.406h-.004c.24-.273.474-.534.754-.772.085-.078.167-.144.245-.199.023-.023.023-.07.046-.09-.112.044-.179.137-.295.18-.023 0-.047-.023-.023-.047a5.6 5.6 0 00.24-.183h-.015c-.023 0-.023-.023-.023-.047-.296-.046-.521.16-.723.34-.047.023-.09-.024-.113-.024-.338.113-.587.41-.925.542v-.047c-.136.047-.268.129-.408.16-.202.047-.385.023-.564.023-.276.027-.548.09-.82.148-.008.004-.016.004-.023.008a1.7 1.7 0 00-.42.172l-.016.007c-.011.016-.023.028-.03.04a.524.524 0 01-.156.136c-.14.07-.253.195-.373.292-.008.008-.024.012-.035.012-.12.117-.241.234-.366.347-.008.007-.042.011-.07.007 0 0 .004 0 .004-.004l.012-.023.058-.093.066-.106c.031-.046.062-.093.097-.136.008-.012.008-.024 0-.031a.044.044 0 00-.03-.012 2.11 2.11 0 01.38-.285v-.003c-.015.003-.039-.008-.027-.024.016-.02.027-.043.039-.062l.008-.02c-.004-.007-.012-.011-.016-.02-.035.024-.074.048-.105.075-.054.047-.097.148-.179.148-.004 0-.023 0-.035-.004-.011 0-.019-.004-.023-.008 0-.004 0-.004.004-.004 0 0 .004-.003.004-.007 0 0 0-.004.004-.004.004-.008.008-.012.011-.02.004-.008.008-.011.012-.02.004-.003.004-.01.008-.015.004-.008.011-.02.015-.031l.012-.02c.012-.015.02-.035.031-.05a.082.082 0 01.016-.024c.007-.015.015-.027.023-.042.012-.02 0-.035-.016-.04a.524.524 0 01.156-.136h-.008c.086-.043.175-.097.26-.144a.152.152 0 01.04-.031 1.399 1.399 0 00-.358.18s-.031.01-.039.019c0 0-.023.007-.054-.02-.004-.004-.004-.008-.004-.015.023-.047.09-.067.136-.113.023 0 .042 0 .042.023.723-.565 1.718-.429 2.554-.725.066-.047.136-.09.202-.136.113-.047.202-.16.338-.226.18-.137.315-.293.385-.523 0-.023-.023-.046-.023-.046a3.575 3.575 0 01-.995.748c-.474.25-.995.206-1.489.273.024-.047.07-.047.113-.047 0-.07.043-.09.09-.137h.065c.024 0 .024-.046.047-.046.047 0 .113-.024.09-.024-.07-.09-.203.067-.315 0 .042-.046.023-.113.066-.136h.09c0-.047.046-.09.046-.09.338-.202.657-.362.971-.541-.066 0-.112.07-.178.023.046 0 0-.066.046-.066.25-.067.451-.203.7-.297-.09 0-.16.07-.249 0 .047-.023.066-.066.136-.066v-.066c0-.023.024-.023.047-.023-.023 0-.047-.024-.047-.024.024-.047.09-.023.136-.066-.023 0-.066 0-.066-.023.066-.09.179-.114.292-.137-.024-.047-.09 0-.09-.047 0-.023.024-.023.047-.023h-.047c-.046-.023-.023-.07-.023-.09.136-.16.136-.362.202-.541-.023 0-.047 0-.047-.024-.225.25-.586.34-.925.429h-.112a.446.446 0 01-.385-.023c-.09-.047-.136-.113-.226-.18a2.786 2.786 0 00-.563-.273 5.074 5.074 0 00-1.738-.249c.25-.136.521-.148.79-.226.384-.113.746-.25 1.15-.226-.066-.023-.16 0-.226 0-.314-.023-.633.066-.971.136-.226.047-.428.137-.657.18-.136.046-.202.179-.362.16v-.07c.226-.274.498-.543.86-.566.408-.066.788 0 1.197.047.291.023.563.09.859.16.112 0 .136.179.225.202.136.047.272 0 .408.09 0-.047-.023-.09 0-.136.09-.09.202.023.292-.024.182-.113-.16-.316-.25-.475 0-.024.024-.047.024-.047.179.16.315.339.54.452.113.047.385.113.339-.023-.113-.25-.338-.452-.521-.678v-.09c-.047 0-.047-.024-.066-.047v-.09c-.09-.046-.07-.136-.113-.202-.07-.113-.023-.273-.07-.41a2.305 2.305 0 01-.09-.385c-.07-.386-.159-.725-.201-1.088-.047-.428.248-.771.45-1.153.16-.273.339-.542.634-.725.066-.273.249-.499.428-.725.178-.222.482-.355.695-.452.315-.14.599-.23.603-.23H12v12h11.078c.431-.312.859-.456 1.461-.756.28-.14.93-.44 1.15-.659m-3.474-1.621c-.047 0-.136.023-.113-.024.023-.113.179-.113.272-.16.047-.023.113-.066.16-.046.046.066.112.047.159.09-.14.14-.319.07-.478.14m-3.456-.499s-.023-.023-.023-.047c.295-.386.52-.748.723-1.153.295-.16.536-.39.77-.636.384-.409.789-.771 1.263-.997.179-.07.408-.047.587.023-.066.09-.179.066-.272.136-.024 0-.047 0-.07-.023.023-.023.023-.047.023-.07-.225.25-.54.362-.723.658-.136.227-.225.523-.517.589-.09.023.023-.066-.023-.047-.7.433-1.193.955-1.738 1.567m1.874-1.497c-.023.047-.047.051-.066.09a.182.182 0 01-.09.09c-.023 0-.046 0-.046-.024.023-.09.09-.179.179-.202.023.004.023.027.023.046m1.05 3.395c-.012.023-.036.047-.055.066.027.004.047.02.031.035-.05.047-.101.098-.171.121-.004 0-.02.004-.035.004-.027.027-.054.055-.086.078-.027.023-.151.008-.112-.027.058-.051.112-.106.167-.16.031-.031.066-.059.093-.09.016-.02.027-.035.047-.05.02-.012.14-.024.12.023m-.404-.187c-.004 0-.004 0-.004.004-.085.058-.167.12-.256.171-.098.055-.199.098-.3.148 0 0 0-.004-.004-.004-.007-.011-.023-.015-.038-.007a1 1 0 00-.226.175.118.118 0 00-.03.031l-.032.031-.004.004v.004c-.015.016-.031.031-.05.055-.012.011-.016.023-.032.031-.015.008-.054.008-.05-.016v-.004a.181.181 0 01-.039.02l-.035.02c-.004-.004-.012-.004-.015-.004-.004 0-.012 0-.016.003-.027.024-.054.043-.082.07-.046.043-.089.09-.132.14 0 0 0 .005-.004.005 0 .004-.004.004-.004.008l-.007.007c-.004.004-.004.008-.008.008l-.004.004a.082.082 0 01-.016.023.03.03 0 01-.019.008c-.004-.004-.008-.008-.008-.011-.004-.004-.004-.008-.008-.012-.007-.012-.011-.023-.019-.035v-.004c0-.004-.004-.008-.004-.012l.07-.082.004-.004c.008-.007.016-.019.023-.027.012-.015.028-.031.04-.047.003-.007.007-.011.01-.019.024-.031.048-.062.07-.097v-.004c.005-.004.009-.008.009-.016.011-.016.023-.031.03-.047l.024-.047v-.003l.004-.004c0-.004.004-.004.004-.008l.023-.055v-.004l.004-.015c.004-.008.004-.016.008-.024v-.003c.004-.012.004-.024.008-.036 0-.003 0-.011-.004-.015a.646.646 0 01.09-.12c-.005 0-.009.003-.013.003-.03.02-.054.05-.085.074-.023.02-.07-.012-.039-.035.02-.016.035-.031.05-.047 0 0 0-.004.004-.004.04-.035.074-.082.117-.113a1.097 1.097 0 00.082-.062.677.677 0 01.05-.059s.004 0 .004-.003c.218-.21.58-.2.867-.332.113-.046.249.024.361 0 .066 0 .136 0 .202.047-.198.105-.384.23-.57.347m.213-3.484c.023 0 .07 0 .07.023 0 .113-.07.203-.183.226.183.047.362.047.54.137-.023.046-.066.023-.089.023.113.066.249.023.362.113-.07.066-.137 0-.203 0 .7.203 1.446.362 2.033.814-.497.25-1.018.363-1.558.476-.066 0-.113 0-.18-.023 0 .023 0 .066-.023.066-.089 0-.159 0-.225.047-.093.05-.23.074-.295.007-.024-.023.07 0 .089-.046h-.179c-.023 0-.023-.024-.023-.047-.113.023-.249.066-.362.09-.159.046-.295.16-.474.202-.249.09-.45.296-.723.386-.023 0-.023-.023-.023-.047.023-.066.113-.09.16-.16 0-.023 0-.046-.024-.046.179-.25.428-.386.657-.589v-.07c.066-.09.179-.136.225-.25a.406.406 0 01.226-.202c-.024-.023-.066-.023-.066-.066-.09 0-.183.046-.272-.024a.324.324 0 01.14-.082.08.08 0 01-.051-.03c-.023-.048.043-.098.113-.114.09-.023.202-.023.272-.09-.16-.023-.338.047-.498-.046.113-.292.296-.542.564-.678z" fill="#000091" fill-rule="nonzero"/><path d="M44.969 12H32.11s.023.004.12.055c.105.054.241.128.323.171.167.086.327.195.432.363.046.066.112.203.07.293-.047.113-.07.296-.183.34-.136.07-.315.07-.474.046-.09 0-.18-.024-.272-.047.338.137.656.297.882.613.023.046.113.066.202.066.023 0 .023.047.023.066-.046.047-.09.07-.066.137h.066c.113-.047.09-.273.249-.203.113.066.16.226.09.34-.09.089-.18.16-.273.226a.192.192 0 000 .16c.066.09.09.179.113.273.07.16.09.339.16.499.089.34.178.679.159 1.022 0 .18-.09.34-.024.523.047.18.16.316.25.476.089.136.178.226.248.363.136.226.385.452.272.725-.066.16-.315.137-.474.226-.136.114-.023.297.047.41.112.203-.137.34-.296.41.047.07.136.046.16.09.023.113.136.179.066.296-.09.136-.362.203-.226.41.09.16.031.335-.023.499-.066.203-.249.292-.408.34a.887.887 0 01-.428.023c-.047-.024-.09-.047-.136-.047-.385-.047-.77-.156-1.15-.156-.113.023-.226.043-.315.09a1.826 1.826 0 00-.272.241l-.004.004c-.016.02-.035.035-.05.055-.009.012-.02.023-.028.035-.008.008-.012.016-.02.023a2.385 2.385 0 00-.178.262c-.004.008-.008.012-.012.015-.004.012-.012.02-.02.032a2.247 2.247 0 00-.17.417c-.156.519-.086.964.023 1.073.031.031.746.253 1.244.476.233.105.396.183.532.269h12.625V12h.004z" fill="#E1000F" fill-rule="nonzero"/><path d="M32.877 16.373c.09.023.225.023.225.07-.047.178-.315.225-.45.407h-.07c-.067.047-.047.16-.113.16-.067-.024-.136 0-.203.023.09.09.203.16.339.136.023 0 .066.047.066.09 0 0 .023 0 .046-.024.024 0 .047 0 .047.023v.09c-.066.089-.183.046-.272.066a.987.987 0 00.52 0c.137-.047 0-.272.09-.385-.047 0 0-.07-.047-.07.047-.046.09-.112.137-.136.046 0 .112-.023.136-.07 0-.046-.09-.066-.07-.112.136-.09.248-.225.202-.361-.024-.07-.202-.07-.315-.113-.113-.043-.249 0-.385.023-.113 0-.225.07-.338.09-.16.046-.295.136-.428.225.16-.066.315-.09.498-.136.136.004.249-.027.385.004" fill="gray" fill-rule="nonzero"/><g fill-rule="nonzero"><path d="M158.217 45.525a1.417 1.417 0 01-.377-1.02V33.504a1.407 1.407 0 011.53-1.5c.41-.023.813.125 1.11.409.28.292.428.686.409 1.09v9.9h5.016c.948 0 1.428.419 1.428 1.255 0 .836-.48 1.234-1.428 1.234h-6.638a1.417 1.417 0 01-1.05-.367zM176.866 43.353c.171.229.258.51.245.795a1.02 1.02 0 01-.194.622 1.703 1.703 0 01-.55.48 6.638 6.638 0 01-1.54.57 6.515 6.515 0 01-1.632.225 5.76 5.76 0 01-2.722-.602 4.262 4.262 0 01-1.795-1.733 5.333 5.333 0 01-.622-2.651 5.496 5.496 0 01.602-2.55 4.547 4.547 0 011.682-1.773 4.802 4.802 0 012.447-.632c.805-.017 1.6.18 2.305.57a3.997 3.997 0 011.53 1.652c.381.773.57 1.627.55 2.488a.948.948 0 01-.204.653.744.744 0 01-.581.234h-5.476a2.63 2.63 0 00.704 1.672c.456.37 1.035.553 1.621.51.345.007.688-.038 1.02-.132.295-.092.632-.215 1.02-.367l.53-.215a1.55 1.55 0 01.448-.081.755.755 0 01.612.265zm-5.353-4.731c-.371.437-.583.987-.602 1.56h3.773a2.59 2.59 0 00-.52-1.57 1.642 1.642 0 00-1.295-.53c-.508-.02-1 .177-1.356.54zM180.516 45.851a4.741 4.741 0 01-1.54-.622 1.264 1.264 0 01-.458-.469 1.427 1.427 0 01-.153-.673 1.08 1.08 0 01.255-.744.785.785 0 01.622-.306c.173.001.344.029.51.081l.53.215c.35.157.711.29 1.08.397.427.108.866.156 1.305.143.353.01.702-.063 1.02-.214a.642.642 0 00.377-.581.571.571 0 00-.163-.439 1.52 1.52 0 00-.622-.306 16.441 16.441 0 00-1.427-.336 5.333 5.333 0 01-2.498-1.02 2.325 2.325 0 01-.765-1.855 2.539 2.539 0 01.54-1.58c.402-.492.931-.862 1.53-1.071a5.333 5.333 0 012.11-.398c.56-.01 1.12.055 1.662.194.503.13.984.332 1.428.601.393.224.63.649.612 1.101.004.283-.086.56-.255.786a.795.795 0 01-.632.305 2.274 2.274 0 01-1.02-.346 5.812 5.812 0 00-.897-.388 3.242 3.242 0 00-.949-.122 1.754 1.754 0 00-.958.224.693.693 0 00-.347.612.683.683 0 00.408.632 6.536 6.536 0 001.58.428c.702.125 1.386.33 2.04.612.421.201.775.52 1.02.918.238.422.355.902.336 1.386a2.58 2.58 0 01-1.142 2.213 5.098 5.098 0 01-3.059.816 9.625 9.625 0 01-2.08-.194zM202.285 43.353c.17.229.257.51.244.795a1.02 1.02 0 01-.193.622 1.703 1.703 0 01-.55.48 6.556 6.556 0 01-1.55.57 6.373 6.373 0 01-1.622.225 5.76 5.76 0 01-2.722-.602 4.211 4.211 0 01-1.795-1.733 5.944 5.944 0 010-5.251 4.547 4.547 0 011.683-1.774 4.751 4.751 0 012.447-.632 4.507 4.507 0 012.294.57c.663.39 1.198.964 1.54 1.652.381.773.57 1.627.55 2.488a.948.948 0 01-.204.653.765.765 0 01-.581.234h-5.475a2.63 2.63 0 00.703 1.672c.456.37 1.036.553 1.621.51.345.006.688-.039 1.02-.132.296-.092.632-.215 1.02-.367l.52-.215c.148-.048.302-.075.458-.081a.755.755 0 01.592.316zm-5.353-4.731c-.371.437-.583.987-.602 1.56h3.773a2.59 2.59 0 00-.52-1.57 1.642 1.642 0 00-1.295-.53 1.784 1.784 0 00-1.356.54zM218.609 37c.634.888.934 1.972.846 3.06v4.567c.018.383-.131.755-.408 1.02-.288.234-.648.36-1.02.357-.37 0-.73-.126-1.02-.357a1.264 1.264 0 01-.427-1.02V40.06a2.04 2.04 0 00-.327-1.316 1.213 1.213 0 00-1.02-.387c-.502-.02-.986.19-1.315.57a2.345 2.345 0 00-.53 1.622v4.078c.024.384-.126.758-.408 1.02-.287.234-.648.36-1.02.357-.37 0-.729-.126-1.019-.357a1.264 1.264 0 01-.428-1.02V40.06a2.04 2.04 0 00-.316-1.316 1.244 1.244 0 00-1.02-.387c-.502-.02-.986.19-1.315.57a2.345 2.345 0 00-.49 1.581v4.079c.02.385-.133.759-.417 1.02a1.723 1.723 0 01-2.131.04 1.244 1.244 0 01-.439-1.02V37.49c-.024-.39.14-.768.439-1.02.292-.225.65-.347 1.02-.346.37-.025.736.096 1.019.336.265.242.407.59.387.949v.193a3.253 3.253 0 011.224-1.131 3.783 3.783 0 011.713-.388 3.456 3.456 0 011.774.388c.507.317.894.794 1.101 1.356.302-.54.747-.988 1.285-1.295a3.762 3.762 0 011.886-.48c.892-.046 1.76.3 2.376.949zM229.835 36.685a4.262 4.262 0 011.498 1.825c.373.826.558 1.724.54 2.63a5.995 5.995 0 01-.54 2.57 3.925 3.925 0 01-3.711 2.335 3.915 3.915 0 01-1.774-.398 2.936 2.936 0 01-1.213-1.122v3.691c.015.357-.13.702-.398.939a1.448 1.448 0 01-1.02.356c-.4.017-.791-.113-1.1-.367a1.244 1.244 0 01-.419-1.02V37.49c-.02-.38.126-.752.398-1.02.28-.25.644-.385 1.02-.377.376-.013.742.122 1.019.378.272.267.417.638.398 1.02v.152c.31-.51.764-.917 1.305-1.172a3.844 3.844 0 011.794-.418 3.956 3.956 0 012.203.632zm-1.459 6.423a3.12 3.12 0 00.571-2.039 3.334 3.334 0 00-.57-2.04 1.917 1.917 0 00-1.601-.733 1.937 1.937 0 00-1.611.724 3.966 3.966 0 000 4.078 2.182 2.182 0 003.211 0v.01zM234.096 45.647a1.295 1.295 0 01-.418-1.02V33.412c-.019-.385.134-.76.418-1.02.291-.227.65-.35 1.02-.347.37-.006.73.117 1.02.347.284.26.437.635.418 1.02v11.215c.02.386-.134.76-.418 1.02-.289.234-.649.36-1.02.357-.37 0-.73-.126-1.02-.357zM240.836 45.433c-.75-.394-1.367-1-1.774-1.744a5.873 5.873 0 010-5.302 4.333 4.333 0 011.774-1.733 6.28 6.28 0 015.363 0c.753.39 1.373.993 1.785 1.733a5.965 5.965 0 010 5.302 4.262 4.262 0 01-1.785 1.744 6.179 6.179 0 01-5.363 0zm4.833-4.395a3.263 3.263 0 00-.55-2.039 1.958 1.958 0 00-1.601-.693c-1.428 0-2.152.928-2.152 2.763s.724 2.763 2.152 2.763c1.427 0 2.151-.948 2.151-2.794zM250.706 34.125a1.366 1.366 0 01-.449-1.09c-.026-.408.14-.804.449-1.071a1.795 1.795 0 011.234-.398c.444-.024.882.122 1.223.408.295.257.462.63.459 1.02.019.412-.145.811-.449 1.09a2.11 2.11 0 01-2.467 0v.041zm.122 11.522a1.295 1.295 0 01-.418-1.02V37.49a1.264 1.264 0 01.428-1.02c.29-.228.65-.35 1.02-.346a1.54 1.54 0 011.02.347c.291.256.45.632.428 1.02v7.136c.021.388-.137.764-.428 1.02a1.55 1.55 0 01-1.02.357 1.611 1.611 0 01-1.03-.357zM257.2 45.851a4.792 4.792 0 01-1.549-.622 1.234 1.234 0 01-.449-.469 1.427 1.427 0 01-.153-.673 1.08 1.08 0 01.255-.744.775.775 0 01.622-.306c.173.002.345.03.51.081l.53.215c.347.157.705.29 1.07.397.43.107.873.155 1.316.143.352.012.702-.062 1.02-.214a.653.653 0 00.387-.581.571.571 0 00-.173-.439 1.53 1.53 0 00-.612-.306 16.441 16.441 0 00-1.427-.336 5.373 5.373 0 01-2.509-1.02 2.325 2.325 0 01-.764-1.855 2.539 2.539 0 01.54-1.58c.401-.488.926-.858 1.52-1.071a5.404 5.404 0 012.11-.398c.557 0 1.113.072 1.652.214.502.132.982.334 1.427.602.388.228.619.651.602 1.1.01.284-.081.562-.255.786a.775.775 0 01-.622.306 2.274 2.274 0 01-1.08-.347 6.2 6.2 0 00-.888-.387 3.242 3.242 0 00-.948-.123 1.733 1.733 0 00-.959.225.693.693 0 00.061 1.244 6.25 6.25 0 001.58.428 8.891 8.891 0 012.04.612c.441.195.816.514 1.08.917a2.804 2.804 0 01-.815 3.6 5.098 5.098 0 01-3.059.815 9.462 9.462 0 01-2.06-.214z" fill="#006ADC"/><path d="M164.04 52.835c.106.117.164.27.162.429v9.716a.622.622 0 11-1.182 0v-.825a2.416 2.416 0 01-1.02 1.08 2.926 2.926 0 01-1.52.388 3.059 3.059 0 01-1.722-.49 3.253 3.253 0 01-1.163-1.366 4.762 4.762 0 01-.408-2.04 4.67 4.67 0 01.408-2.038 3.059 3.059 0 012.886-1.815 2.926 2.926 0 011.519.377c.445.249.802.63 1.02 1.091v-4.078a.581.581 0 01.153-.429.724.724 0 01.917 0h-.05zm-1.653 9.024c.441-.61.664-1.35.633-2.1a3.273 3.273 0 00-.592-2.09 2.04 2.04 0 00-1.672-.735 2.04 2.04 0 00-1.682.734 3.059 3.059 0 00-.612 2.04c-.047.753.17 1.499.612 2.11a2.264 2.264 0 003.354 0l-.04.04zM172.553 61.96a.52.52 0 01.122.358c0 .255-.183.49-.54.703a4.843 4.843 0 01-2.345.643 3.66 3.66 0 01-2.733-1.02 3.885 3.885 0 01-1.02-2.824 4.395 4.395 0 01.45-2.04 3.232 3.232 0 011.243-1.366 3.416 3.416 0 011.825-.49 2.957 2.957 0 012.305.949 3.66 3.66 0 01.856 2.56.673.673 0 01-.122.448.51.51 0 01-.398.132h-4.904c.092 1.754.928 2.63 2.498 2.63.346.005.691-.05 1.02-.162.315-.125.622-.271.917-.439.16-.11.34-.187.53-.224.115 0 .224.053.296.143zm-4.527-4.455a2.814 2.814 0 00-.704 1.723h4.323a2.651 2.651 0 00-.56-1.733 1.917 1.917 0 00-1.5-.632 2.04 2.04 0 00-1.56.601v.041zM180.414 63.276a1.295 1.295 0 01-.418-1.02V51.041c-.02-.385.134-.76.418-1.02.29-.227.65-.35 1.02-.346.37-.007.73.116 1.02.346.284.26.437.635.417 1.02v11.215c.02.386-.133.76-.418 1.02-.288.234-.648.36-1.02.357-.37 0-.73-.126-1.019-.357zM187.827 50.174c.331.462.496 1.023.469 1.59a4.976 4.976 0 01-1.469 3.56.816.816 0 01-.611.274.887.887 0 01-.581-.224.704.704 0 01-.041-1.05c.404-.401.705-.895.877-1.438a1.642 1.642 0 01-1.02-.49 1.509 1.509 0 01-.408-1.09c-.03-.44.117-.873.408-1.203.293-.318.71-.493 1.142-.48a1.57 1.57 0 011.234.551zM190.549 51.765a1.397 1.397 0 01-.449-1.091c-.004-.389.16-.76.449-1.02.348-.28.788-.421 1.234-.398.445-.024.882.122 1.223.408.295.257.463.63.46 1.02.022.408-.139.804-.44 1.08a2.11 2.11 0 01-2.477 0zm.173 11.531a1.264 1.264 0 01-.428-1.02V55.14c-.022-.39.14-.768.439-1.02a1.764 1.764 0 012.1 0c.284.26.437.634.418 1.02v7.137c.02.385-.134.759-.418 1.02a1.744 1.744 0 01-2.11 0zM204.12 54.68c.631.89.93 1.972.846 3.06v4.516c.024.384-.126.758-.408 1.02a1.733 1.733 0 01-2.161 0 1.346 1.346 0 01-.388-1.02v-4.374a2.274 2.274 0 00-.367-1.427 1.356 1.356 0 00-1.121-.449 1.937 1.937 0 00-1.479.592c-.382.427-.58.987-.55 1.56v4.078c.022.382-.124.754-.398 1.02-.294.26-.678.395-1.07.377a1.56 1.56 0 01-1.091-.377 1.315 1.315 0 01-.398-1.02V55.1a1.244 1.244 0 01.418-1.02 1.6 1.6 0 011.09-.367c.375-.025.743.104 1.02.357.256.24.396.578.388.928v.275a3.365 3.365 0 011.274-1.193c.571-.279 1.2-.419 1.836-.408a3.15 3.15 0 012.559 1.01zM209.014 63.062a4.16 4.16 0 01-1.713-1.723 5.485 5.485 0 01-.591-2.62 5.312 5.312 0 01.632-2.652 4.395 4.395 0 011.784-1.774 5.516 5.516 0 012.661-.622c.534.001 1.066.073 1.58.214.5.132.977.335 1.418.602.392.226.627.65.612 1.101.011.293-.071.583-.235.826a.734.734 0 01-.632.326 1.254 1.254 0 01-.479-.091c-.153 0-.347-.143-.591-.255a5.496 5.496 0 00-.735-.337 2.04 2.04 0 00-.734-.122 2.04 2.04 0 00-1.672.703 3.059 3.059 0 00-.581 2.04 3.14 3.14 0 00.581 2.039 2.04 2.04 0 001.672.703c.246.003.49-.035.724-.112.26-.095.511-.207.755-.336l.591-.265c.148-.063.308-.094.47-.092.25 0 .484.127.621.336.17.245.256.539.245.836.022.449-.216.87-.612 1.081-.45.271-.938.474-1.448.602a6.821 6.821 0 01-1.723.214 5.322 5.322 0 01-2.6-.622zM217.263 63.276a1.264 1.264 0 01-.428-1.02V51.041a1.264 1.264 0 01.428-1.02 1.784 1.784 0 012.11 0c.288.258.442.634.418 1.02v11.215c.024.386-.13.762-.418 1.02a1.744 1.744 0 01-2.11 0zM230.915 54.08c.276.265.425.636.408 1.019v7.137c.028.389-.131.767-.428 1.02a1.58 1.58 0 01-1.08.377 1.397 1.397 0 01-1.02-.357 1.254 1.254 0 01-.378-.938v-.194a2.998 2.998 0 01-1.162 1.132 3.997 3.997 0 01-4.364-.612 4.517 4.517 0 01-.887-3.059V55.1c-.02-.381.124-.753.398-1.02a1.57 1.57 0 011.09-.367c.392-.024.777.108 1.071.367.273.267.418.639.398 1.02v4.578c-.032.45.094.897.357 1.264.292.293.699.442 1.111.408.53.02 1.042-.196 1.397-.591.372-.424.566-.976.54-1.54V55.14c-.023-.38.118-.751.388-1.02a1.53 1.53 0 011.08-.367 1.54 1.54 0 011.081.326zM235.157 63.47a4.792 4.792 0 01-1.55-.622 1.234 1.234 0 01-.449-.47 1.427 1.427 0 01-.153-.672 1.08 1.08 0 01.255-.744.775.775 0 01.622-.306c.174 0 .347.032.51.091.18.059.358.127.53.204.33.156.672.289 1.02.398.43.107.872.155 1.315.143.352.012.702-.061 1.02-.214a.653.653 0 00.387-.582.571.571 0 00-.173-.438 1.458 1.458 0 00-.612-.306 16.441 16.441 0 00-1.427-.336 5.373 5.373 0 01-2.508-1.02 2.325 2.325 0 01-.765-1.856 2.539 2.539 0 01.54-1.58 3.589 3.589 0 011.479-1.111 5.404 5.404 0 012.11-.398c.558 0 1.113.072 1.652.214.502.132.983.334 1.427.602.387.23.617.652.602 1.1.011.285-.08.563-.255.786a.775.775 0 01-.622.306 2.274 2.274 0 01-1.08-.347 6.2 6.2 0 00-.888-.387 3.242 3.242 0 00-.948-.123 1.733 1.733 0 00-.958.225.693.693 0 00.061 1.244 6.25 6.25 0 001.58.428c.701.124 1.386.33 2.04.612.436.198.807.516 1.07.917a2.804 2.804 0 01-.816 3.6 5.098 5.098 0 01-3.058.815 9.462 9.462 0 01-1.958-.173zM243.375 51.765a1.366 1.366 0 01-.449-1.091c-.01-.39.155-.764.449-1.02a2.04 2.04 0 012.447 0c.3.253.473.627.469 1.02.02.414-.15.815-.459 1.09a2.1 2.1 0 01-2.457 0zm.194 11.511a1.264 1.264 0 01-.418-1.02V55.12a1.264 1.264 0 01.428-1.02c.29-.228.65-.35 1.02-.346a1.57 1.57 0 011.019.347c.288.258.442.633.418 1.02v7.136c.024.386-.13.762-.418 1.02a1.744 1.744 0 01-2.11 0h.06zM250.278 63.052a4.323 4.323 0 01-1.785-1.744 5.965 5.965 0 010-5.302 4.364 4.364 0 011.785-1.733 6.28 6.28 0 015.363 0c.75.392 1.37.995 1.784 1.733a5.965 5.965 0 010 5.302 4.323 4.323 0 01-1.784 1.744 6.179 6.179 0 01-5.363 0zm4.833-4.395a3.191 3.191 0 00-.561-2.039 1.917 1.917 0 00-1.59-.683c-1.438 0-2.152.918-2.152 2.753s.714 2.763 2.151 2.763c1.438 0 2.152-.948 2.152-2.794zM268.437 54.68a4.66 4.66 0 01.836 3.06v4.516c.022.382-.123.754-.398 1.02a1.56 1.56 0 01-1.09.377 1.52 1.52 0 01-1.071-.377 1.305 1.305 0 01-.388-1.02v-4.374a2.274 2.274 0 00-.367-1.427 1.366 1.366 0 00-1.121-.449 1.917 1.917 0 00-1.479.592c-.389.423-.59.985-.56 1.56v4.078c.02.38-.12.75-.388 1.02a1.733 1.733 0 01-2.162 0 1.285 1.285 0 01-.407-1.02V55.1a1.224 1.224 0 01.428-1.02 1.58 1.58 0 011.08-.367c.375-.022.742.106 1.02.357.253.241.39.579.377.928v.275c.33-.507.787-.918 1.326-1.193a3.966 3.966 0 011.825-.408 3.15 3.15 0 012.539 1.01z" fill="#000638"/><path d="M132.686 36.94a6.913 6.913 0 00-1.957.295 6.658 6.658 0 001.957 13.03c.664.002 1.324-.098 1.958-.295a6.668 6.668 0 00-1.958-13.03" fill="#7FB4ED"/><path d="M130.851 39.815a5.037 5.037 0 11-6.301-3.344 5.027 5.027 0 016.301 3.344z" fill="#006ADC"/><path d="M141.608 12.663a10.574 10.574 0 1010.074 7.494 10.655 10.655 0 00-10.074-7.494" fill="#E5F0FB"/><path d="M151.906 18.607a4.374 4.374 0 00-.785 8.667 4.364 4.364 0 001.57-8.585 4.19 4.19 0 00-.785-.082" fill="#3388E3"/><path d="M145.268 55.782a4.996 4.996 0 11-6.24-3.314 4.986 4.986 0 016.24 3.314z" fill="#006ADC"/><path d="M114.435 48.4a3.436 3.436 0 103.283 2.427 3.467 3.467 0 00-3.283-2.427" fill="#4C96E6"/><path d="M146.216 42.242c-.252.002-.502.04-.744.112a2.539 2.539 0 00.744 4.975c.253.003.504-.035.745-.112a2.539 2.539 0 00-.745-4.975" fill="#B2D2F4"/><path d="M118.87 22.533a5.68 5.68 0 000 11.358 5.68 5.68 0 100-11.358" fill="#99C3F1"/></g></g></svg>