<?xml version="1.0" encoding="UTF-8" standalone="no"?>
<!-- Created with Inkscape (http://www.inkscape.org/) -->

<svg
   xmlns:dc="http://purl.org/dc/elements/1.1/"
   xmlns:cc="http://creativecommons.org/ns#"
   xmlns:rdf="http://www.w3.org/1999/02/22-rdf-syntax-ns#"
   xmlns:svg="http://www.w3.org/2000/svg"
   xmlns="http://www.w3.org/2000/svg"
   xmlns:sodipodi="http://sodipodi.sourceforge.net/DTD/sodipodi-0.dtd"
   xmlns:inkscape="http://www.inkscape.org/namespaces/inkscape"
   version="1.1"
   id="svg2"
   xml:space="preserve"
   width="214.59399"
   height="210.00027"
   viewBox="0 0 214.59399 210.00027"
   sodipodi:docname="Ministère du Travail (depuis 2017).svg"
   inkscape:version="0.92.2 (5c3e80d, 2017-08-06)"><metadata
     id="metadata8"><rdf:RDF><cc:Work
         rdf:about=""><dc:format>image/svg+xml</dc:format><dc:type
           rdf:resource="http://purl.org/dc/dcmitype/StillImage" /><dc:title /></cc:Work></rdf:RDF></metadata><defs
     id="defs6"><clipPath
       clipPathUnits="userSpaceOnUse"
       id="clipPath22"><path
         d="m 492.378,740.063 h 61.897 v 60.781 h -61.897 z"
         id="path20"
         inkscape:connector-curvature="0" /></clipPath><clipPath
       clipPathUnits="userSpaceOnUse"
       id="clipPath108"><path
         d="m 492.378,740.063 h 61.897 v 60.781 h -61.897 z"
         id="path106"
         inkscape:connector-curvature="0" /></clipPath><clipPath
       clipPathUnits="userSpaceOnUse"
       id="clipPath300"><path
         d="m 501.184,778.865 h 44.662 v 14.986 h -44.662 z"
         id="path298"
         inkscape:connector-curvature="0" /></clipPath></defs><sodipodi:namedview
     pagecolor="#ffffff"
     bordercolor="#666666"
     borderopacity="1"
     objecttolerance="10"
     gridtolerance="10"
     guidetolerance="10"
     inkscape:pageopacity="0"
     inkscape:pageshadow="2"
     inkscape:window-width="1920"
     inkscape:window-height="1017"
     id="namedview4"
     showgrid="false"
     fit-margin-left="5"
     fit-margin-bottom="5"
     fit-margin-top="5"
     fit-margin-right="5"
     inkscape:zoom="4"
     inkscape:cx="75.225713"
     inkscape:cy="92.833401"
     inkscape:window-x="-8"
     inkscape:window-y="-8"
     inkscape:window-maximized="1"
     inkscape:current-layer="g10" /><g
     id="g10"
     inkscape:groupmode="layer"
     inkscape:label="DARES2018"
     transform="matrix(1.3333333,0,0,-1.3333333,-590.63233,1132.271)"><g
       id="g1284"><g
         style="fill:#ffffff;fill-opacity:1"
         transform="matrix(2.5400259,0,0,2.5400259,599.73161,750.59323)"
         id="g12"><path
           inkscape:connector-curvature="0"
           id="path14"
           style="fill:#ffffff;stroke:#231f20;stroke-width:0.345;stroke-linecap:butt;stroke-linejoin:miter;stroke-miterlimit:4;stroke-dasharray:none;stroke-opacity:1;fill-opacity:1"
           d="M 0,0 V -21.536 H -60.066 V 0" /></g><path
         inkscape:connector-curvature="0"
         id="path96"
         style="fill:#ffffff;fill-opacity:1;fill-rule:nonzero;stroke:none;stroke-width:2.54002595"
         d="m 599.73161,845.01514 h -152.5692 v -94.44833 h 152.5692 z" /><g
         transform="matrix(2.5400259,0,0,2.5400259,599.73161,845.01514)"
         id="g98"><path
           inkscape:connector-curvature="0"
           id="path100"
           style="fill:none;stroke:#231f20;stroke-width:0.345;stroke-linecap:butt;stroke-linejoin:miter;stroke-miterlimit:4;stroke-dasharray:none;stroke-opacity:1"
           d="M 0,0 H -60.066 V -37.184 H 0 Z" /></g><g
         transform="matrix(2.5400259,0,0,2.5400259,-806.12193,-1186.5179)"
         id="g102"><g
           clip-path="url(#clipPath108)"
           id="g104"><g
             transform="translate(502.3287,770.9154)"
             id="g110"><path
               inkscape:connector-curvature="0"
               id="path112"
               style="fill:#231f20;fill-opacity:1;fill-rule:nonzero;stroke:none"
               d="m 0,0 c -0.089,0 -0.169,-0.013 -0.267,-0.035 0,-0.262 -0.005,-0.738 -0.005,-1.108 0.05,-0.009 0.139,-0.013 0.196,-0.013 0.365,0 0.61,0.227 0.61,0.574 C 0.534,-0.245 0.307,0 0,0 m 1.143,-2.784 c -0.165,0 -0.258,0.022 -0.352,0.085 -0.146,0.098 -0.302,0.364 -0.391,0.515 -0.151,0.263 -0.32,0.543 -0.48,0.779 -0.027,-0.005 -0.049,-0.005 -0.066,-0.005 -0.045,0 -0.081,0.005 -0.126,0.005 v -0.236 c 0,-0.121 0.005,-0.239 0.005,-0.36 0.005,-0.239 0.009,-0.343 0.045,-0.436 0.044,-0.116 0.124,-0.173 0.271,-0.187 v -0.124 l -0.103,0.005 c -0.115,0.004 -0.275,0 -0.484,0 -0.205,0 -0.365,0.004 -0.48,0 l -0.107,-0.005 v 0.124 c 0.11,0.01 0.164,0.032 0.217,0.09 0.049,0.057 0.081,0.137 0.09,0.24 0.013,0.133 0.018,0.213 0.018,0.653 v 0.747 c 0,0.542 -0.018,0.676 -0.05,0.801 -0.031,0.121 -0.124,0.169 -0.275,0.187 v 0.125 c 0.089,-0.01 0.178,-0.006 0.266,-0.006 0.232,0 0.303,0 0.579,0.014 0.24,0.009 0.378,0.013 0.485,0.013 0.302,0 0.484,-0.044 0.635,-0.151 0.169,-0.12 0.281,-0.351 0.281,-0.582 0,-0.365 -0.241,-0.663 -0.65,-0.814 0.169,-0.214 0.303,-0.427 0.458,-0.671 0.143,-0.227 0.285,-0.423 0.396,-0.534 0.063,-0.067 0.102,-0.089 0.187,-0.112 V -2.748 C 1.396,-2.774 1.281,-2.784 1.143,-2.784" /></g><g
             transform="translate(505.7539,768.2225)"
             id="g114"><path
               inkscape:connector-curvature="0"
               id="path116"
               style="fill:#231f20;fill-opacity:1;fill-rule:nonzero;stroke:none"
               d="m 0,0 c -0.034,-0.055 -0.07,-0.066 -0.272,-0.066 -0.126,0 -0.246,0.007 -0.371,0.011 -0.176,0.003 -0.353,0.01 -0.53,0.01 -0.176,0 -0.352,-0.003 -0.529,-0.01 v 0.103 c 0.166,0.014 0.239,0.111 0.254,0.271 0.011,0.111 0.011,0.228 0.011,0.419 v 1.039 c 0,0.196 -0.011,0.284 -0.041,0.361 -0.032,0.096 -0.098,0.139 -0.224,0.155 v 0.102 h 1.72 C 0.018,2.289 0.014,2.179 0.014,2.072 0.014,1.984 0.011,1.899 0.018,1.811 h -0.132 c -0.027,0.283 -0.147,0.36 -0.584,0.36 -0.081,0 -0.188,-0.004 -0.276,-0.007 C -0.981,2.021 -0.986,1.973 -0.986,1.76 V 1.333 c 0.056,-0.003 0.1,-0.003 0.167,-0.003 0.381,0 0.499,0.055 0.521,0.253 h 0.132 c -0.007,-0.059 -0.007,-0.18 -0.007,-0.364 0,-0.186 0.004,-0.297 0.007,-0.356 h -0.132 c -0.011,0.209 -0.11,0.261 -0.489,0.261 -0.066,0 -0.132,-0.003 -0.199,-0.003 0,-0.232 0.005,-0.464 0.005,-0.696 0,-0.154 0.025,-0.205 0.114,-0.227 0.055,-0.015 0.139,-0.018 0.253,-0.018 0.397,0 0.536,0.088 0.621,0.389 L 0.15,0.539 C 0.099,0.283 0.04,0.069 0,0 m -0.819,2.635 -0.174,0.102 0.364,0.536 0.423,-0.077 z" /></g><g
             transform="translate(507.2856,769.2585)"
             id="g118"><path
               inkscape:connector-curvature="0"
               id="path120"
               style="fill:#231f20;fill-opacity:1;fill-rule:nonzero;stroke:none"
               d="M 0,0 C -0.037,0 -0.056,0 -0.103,0.003 L -0.184,0.19 c 0.345,0.023 0.537,0.192 0.537,0.471 0,0.293 -0.203,0.504 -0.482,0.504 -0.044,0 -0.081,-0.005 -0.139,-0.015 0,-0.228 -0.008,-0.456 -0.008,-0.684 v -0.642 c 0,-0.482 0.004,-0.563 0.041,-0.658 0.033,-0.096 0.099,-0.143 0.224,-0.154 v -0.103 l -0.088,0.003 c -0.096,0.004 -0.228,0.004 -0.404,0.004 -0.173,0 -0.309,0 -0.401,-0.004 l -0.088,-0.003 v 0.103 c 0.165,0.014 0.239,0.111 0.254,0.271 0.011,0.111 0.011,0.177 0.011,0.541 v 0.917 c 0,0.196 -0.011,0.284 -0.041,0.361 -0.033,0.096 -0.099,0.139 -0.224,0.155 v 0.102 c 0.044,-0.003 0.011,-0.003 0.169,-0.003 0.062,0 0.15,0 0.268,0.003 0.187,0.007 0.375,0.019 0.562,0.019 0.522,0 0.835,-0.258 0.835,-0.684 C 0.842,0.294 0.485,0 0,0" /></g><g
             transform="translate(510.6243,770.4341)"
             id="g122"><path
               inkscape:connector-curvature="0"
               id="path124"
               style="fill:#231f20;fill-opacity:1;fill-rule:nonzero;stroke:none"
               d="m 0,0 c -0.04,-0.055 -0.058,-0.128 -0.066,-0.276 -0.007,-0.158 -0.012,-0.279 -0.012,-0.506 0,-0.085 0.005,-0.339 0.005,-0.592 0,-0.257 -0.041,-0.412 -0.148,-0.566 -0.169,-0.246 -0.448,-0.371 -0.815,-0.371 -0.231,0 -0.408,0.044 -0.573,0.154 -0.257,0.165 -0.357,0.383 -0.357,0.772 0,0.397 0.008,0.57 0.008,0.698 0,0.188 0.011,0.382 -0.022,0.565 -0.023,0.133 -0.092,0.187 -0.246,0.203 V 0.184 L -2.141,0.18 c 0.095,-0.004 0.231,-0.004 0.407,-0.004 0.176,0 0.312,0 0.408,0.004 l 0.084,0.004 V 0.081 C -1.356,0.065 -1.411,0.036 -1.447,-0.026 -1.481,-0.081 -1.495,-0.155 -1.499,-0.316 -1.506,-0.548 -1.51,-0.775 -1.51,-1.007 c 0,-0.632 0.015,-0.752 0.129,-0.885 0.088,-0.103 0.239,-0.173 0.415,-0.173 0.246,0 0.485,0.125 0.558,0.371 0.048,0.158 0.055,0.272 0.055,0.687 v 0.364 c 0,0.419 -0.011,0.547 -0.051,0.61 -0.041,0.067 -0.095,0.102 -0.191,0.114 v 0.103 c 0.146,-0.008 0.198,-0.008 0.382,-0.008 0.187,0 0.239,0 0.385,0.008 V 0.081 C 0.091,0.069 0.04,0.048 0,0" /></g><g
             transform="translate(512.0941,769.4019)"
             id="g126"><path
               inkscape:connector-curvature="0"
               id="path128"
               style="fill:#231f20;fill-opacity:1;fill-rule:nonzero;stroke:none"
               d="m 0,0 c -0.062,0 -0.129,-0.003 -0.224,-0.011 -0.004,-0.1 -0.004,-0.119 -0.004,-0.286 v -0.218 c 0,-0.205 0.007,-0.315 0.033,-0.389 0.03,-0.092 0.118,-0.136 0.271,-0.136 0.313,0 0.49,0.173 0.49,0.482 C 0.566,-0.217 0.345,0 0,0 m -0.011,1.025 c -0.066,0 -0.132,-0.008 -0.199,-0.008 -0.004,-0.239 -0.011,-0.65 -0.014,-0.804 0.04,-0.003 0.091,-0.007 0.162,-0.007 0.359,0 0.565,0.15 0.565,0.414 0,0.254 -0.191,0.405 -0.514,0.405 m 0.8,-2.087 C 0.616,-1.194 0.422,-1.238 0.048,-1.238 c -0.2,0 -0.401,0.014 -0.599,0.014 -0.081,0 -0.232,0 -0.335,-0.007 L -0.93,-1.235 v 0.103 c 0.173,0.015 0.239,0.104 0.254,0.272 0.011,0.11 0.014,0.177 0.014,0.541 v 0.694 c 0,0.341 -0.003,0.488 -0.04,0.583 -0.037,0.096 -0.103,0.14 -0.228,0.155 v 0.103 c 0.169,-0.008 0.268,-0.008 0.503,-0.008 0.213,0 0.533,0.011 0.746,0.011 0.338,0 0.647,-0.161 0.647,-0.543 0,-0.283 -0.177,-0.474 -0.525,-0.563 0.389,-0.077 0.595,-0.301 0.595,-0.665 0,-0.219 -0.081,-0.385 -0.247,-0.51" /></g><g
             transform="translate(515.2046,768.2187)"
             id="g130"><path
               inkscape:connector-curvature="0"
               id="path132"
               style="fill:#231f20;fill-opacity:1;fill-rule:nonzero;stroke:none"
               d="m 0,0 c -0.033,-0.051 -0.076,-0.062 -0.261,-0.062 -0.092,0 -0.187,0.003 -0.279,0.007 -0.228,0.007 -0.434,0.014 -0.683,0.014 -0.188,0 -0.313,-0.003 -0.43,-0.01 v 0.102 c 0.091,0.008 0.14,0.025 0.179,0.074 0.067,0.077 0.085,0.172 0.085,0.441 0,0.183 0.004,0.33 0.004,0.52 V 1.48 c 0,0.496 -0.004,0.563 -0.04,0.661 -0.033,0.096 -0.103,0.14 -0.228,0.155 v 0.103 l 0.091,-0.003 c 0.1,-0.005 0.236,-0.005 0.419,-0.005 0.181,0 0.32,0 0.416,0.005 l 0.092,0.003 V 2.296 C -0.823,2.296 -0.904,2.197 -0.926,2.021 -0.933,1.958 -0.937,1.899 -0.937,1.48 V 0.867 c 0,-0.511 0.004,-0.573 0.051,-0.625 0.041,-0.04 0.118,-0.059 0.277,-0.059 0.201,0 0.312,0.023 0.403,0.074 0.103,0.055 0.18,0.166 0.217,0.319 L 0.15,0.539 C 0.11,0.327 0.04,0.063 0,0" /></g><g
             transform="translate(516.4827,768.1706)"
             id="g134"><path
               inkscape:connector-curvature="0"
               id="path136"
               style="fill:#231f20;fill-opacity:1;fill-rule:nonzero;stroke:none"
               d="m 0,0 c -0.093,0.004 -0.228,0.004 -0.4,0.004 -0.177,0 -0.309,0 -0.405,-0.004 l -0.088,-0.003 v 0.102 c 0.172,0.015 0.239,0.104 0.253,0.272 0.012,0.111 0.015,0.177 0.015,0.541 v 0.617 c 0,0.095 -0.003,0.195 -0.003,0.301 0,0.194 -0.008,0.282 -0.037,0.36 -0.033,0.095 -0.103,0.139 -0.228,0.154 v 0.103 l 0.088,-0.003 c 0.096,-0.005 0.228,-0.005 0.405,-0.005 0.172,0 0.307,0 0.4,0.005 L 0.088,2.447 V 2.344 C -0.07,2.333 -0.151,2.234 -0.166,2.069 -0.176,1.962 -0.176,1.86 -0.176,1.529 V 0.912 c 0,-0.482 0.003,-0.563 0.04,-0.658 0.033,-0.096 0.099,-0.143 0.224,-0.155 v -0.102 z" /></g><g
             transform="translate(518.1835,770.4119)"
             id="g138"><path
               inkscape:connector-curvature="0"
               id="path140"
               style="fill:#231f20;fill-opacity:1;fill-rule:nonzero;stroke:none"
               d="m 0,0 c -0.449,0 -0.769,-0.374 -0.769,-0.9 0,-0.639 0.379,-1.143 0.86,-1.143 0.453,0 0.771,0.383 0.771,0.915 C 0.862,-0.496 0.484,0 0,0 m 1.734,-2.906 c -0.287,0 -0.592,0.089 -0.882,0.25 -0.165,0.092 -0.397,0.25 -0.566,0.39 -0.125,-0.019 -0.172,-0.023 -0.291,-0.023 -0.741,0 -1.233,0.485 -1.233,1.216 0,0.782 0.532,1.323 1.311,1.323 0.756,0 1.26,-0.486 1.26,-1.213 0,-0.518 -0.265,-0.976 -0.683,-1.189 0.132,-0.067 0.264,-0.141 0.393,-0.217 0.375,-0.228 0.631,-0.323 0.874,-0.323 0.151,0 0.276,0.032 0.422,0.106 L 2.387,-2.715 C 2.207,-2.84 1.984,-2.906 1.734,-2.906" /></g><g
             transform="translate(522.0673,770.4341)"
             id="g142"><path
               inkscape:connector-curvature="0"
               id="path144"
               style="fill:#231f20;fill-opacity:1;fill-rule:nonzero;stroke:none"
               d="m 0,0 c -0.04,-0.055 -0.058,-0.128 -0.066,-0.276 -0.008,-0.158 -0.012,-0.279 -0.012,-0.506 0,-0.085 0.004,-0.339 0.004,-0.592 0,-0.257 -0.041,-0.412 -0.147,-0.566 -0.17,-0.246 -0.451,-0.371 -0.82,-0.371 -0.232,0 -0.408,0.044 -0.573,0.154 -0.257,0.165 -0.357,0.383 -0.357,0.772 0,0.397 0.008,0.57 0.008,0.698 0,0.188 0.011,0.382 -0.022,0.565 -0.022,0.133 -0.092,0.187 -0.246,0.203 V 0.184 L -2.147,0.18 c 0.095,-0.004 0.231,-0.004 0.408,-0.004 0.176,0 0.312,0 0.408,0.004 l 0.084,0.004 V 0.081 C -1.361,0.065 -1.416,0.036 -1.453,-0.026 -1.486,-0.081 -1.5,-0.155 -1.504,-0.316 c -0.007,-0.232 -0.011,-0.459 -0.011,-0.691 0,-0.632 0.015,-0.752 0.128,-0.885 0.089,-0.103 0.239,-0.173 0.417,-0.173 0.246,0 0.487,0.125 0.56,0.371 0.048,0.158 0.055,0.272 0.055,0.687 v 0.364 c 0,0.419 -0.01,0.547 -0.051,0.61 -0.04,0.067 -0.096,0.102 -0.192,0.114 v 0.103 c 0.148,-0.008 0.2,-0.008 0.384,-0.008 0.188,0 0.24,0 0.387,0.008 V 0.081 C 0.092,0.069 0.04,0.048 0,0" /></g><g
             transform="translate(524.3079,768.2225)"
             id="g146"><path
               inkscape:connector-curvature="0"
               id="path148"
               style="fill:#231f20;fill-opacity:1;fill-rule:nonzero;stroke:none"
               d="m 0,0 c -0.033,-0.055 -0.07,-0.066 -0.272,-0.066 -0.124,0 -0.246,0.007 -0.371,0.011 -0.176,0.003 -0.353,0.01 -0.528,0.01 -0.177,0 -0.353,-0.003 -0.53,-0.01 v 0.103 c 0.166,0.014 0.239,0.111 0.254,0.271 0.011,0.111 0.011,0.228 0.011,0.419 v 1.039 c 0,0.196 -0.011,0.284 -0.041,0.361 -0.032,0.096 -0.098,0.139 -0.224,0.155 v 0.102 h 1.72 C 0.019,2.289 0.015,2.179 0.015,2.072 0.015,1.984 0.011,1.899 0.019,1.811 h -0.133 c -0.025,0.283 -0.146,0.36 -0.584,0.36 -0.08,0 -0.186,-0.004 -0.275,-0.007 C -0.981,2.021 -0.984,1.973 -0.984,1.76 V 1.333 c 0.055,-0.003 0.1,-0.003 0.165,-0.003 0.382,0 0.499,0.055 0.522,0.253 h 0.132 c -0.008,-0.059 -0.008,-0.18 -0.008,-0.364 0,-0.186 0.005,-0.297 0.008,-0.356 h -0.132 c -0.012,0.209 -0.111,0.261 -0.489,0.261 -0.066,0 -0.132,-0.003 -0.198,-0.003 0,-0.232 0.003,-0.464 0.003,-0.696 0,-0.154 0.026,-0.205 0.114,-0.227 0.056,-0.015 0.14,-0.018 0.253,-0.018 0.397,0 0.537,0.088 0.622,0.389 L 0.151,0.539 C 0.098,0.283 0.04,0.069 0,0" /></g><g
             transform="translate(527.7073,770.4172)"
             id="g150"><path
               inkscape:connector-curvature="0"
               id="path152"
               style="fill:#231f20;fill-opacity:1;fill-rule:nonzero;stroke:none"
               d="m 0,0 c -0.005,0.32 -0.192,0.445 -0.693,0.445 -0.103,0 -0.201,-0.005 -0.312,-0.013 -0.009,-0.307 -0.009,-0.52 -0.009,-1.006 0.106,-0.004 0.16,-0.008 0.236,-0.008 0.413,0 0.538,0.071 0.56,0.311 h 0.161 c 0,-0.125 -0.009,-0.253 -0.009,-0.377 0,-0.165 0.009,-0.334 0.009,-0.499 h -0.161 c -0.032,0.267 -0.134,0.32 -0.599,0.32 -0.082,0 -0.112,0 -0.197,-0.004 V -1.33 c 0,-0.098 0,-0.204 0.005,-0.32 0.009,-0.243 0.026,-0.457 0.316,-0.475 V -2.25 L -0.8,-2.245 c -0.111,0.004 -0.276,0.004 -0.485,0.004 -0.214,0 -0.374,0 -0.49,-0.004 L -1.882,-2.25 v 0.125 c 0.201,0.018 0.29,0.133 0.308,0.329 0.013,0.133 0.013,0.213 0.013,0.653 v 1.112 c 0,0.235 -0.013,0.342 -0.049,0.436 -0.04,0.115 -0.119,0.169 -0.272,0.187 V 0.717 H 0.165 C 0.156,0.632 0.156,0.489 0.156,0.303 0.156,0.125 0.156,0.098 0.165,0 Z" /></g><g
             transform="translate(529.2222,770.4372)"
             id="g154"><path
               inkscape:connector-curvature="0"
               id="path156"
               style="fill:#231f20;fill-opacity:1;fill-rule:nonzero;stroke:none"
               d="m 0,0 c -0.073,0 -0.14,-0.011 -0.221,-0.029 0,-0.217 -0.003,-0.61 -0.003,-0.914 0.04,-0.008 0.113,-0.012 0.162,-0.012 0.301,0 0.503,0.187 0.503,0.474 C 0.441,-0.202 0.254,0 0,0 m 0.944,-2.299 c -0.135,0 -0.213,0.018 -0.29,0.07 -0.12,0.08 -0.25,0.301 -0.323,0.425 -0.125,0.216 -0.264,0.449 -0.397,0.644 -0.022,-0.005 -0.041,-0.005 -0.055,-0.005 -0.037,0 -0.067,0.005 -0.103,0.005 v -0.195 c 0,-0.1 0.003,-0.199 0.003,-0.297 0.004,-0.199 0.008,-0.283 0.037,-0.361 0.038,-0.095 0.104,-0.143 0.224,-0.154 V -2.27 l -0.083,0.003 c -0.097,0.004 -0.228,0 -0.401,0 -0.17,0 -0.301,0.004 -0.397,0 L -0.929,-2.27 v 0.103 c 0.091,0.007 0.136,0.025 0.179,0.074 0.041,0.047 0.067,0.114 0.074,0.198 0.01,0.11 0.015,0.176 0.015,0.54 v 0.617 c 0,0.448 -0.015,0.558 -0.04,0.661 -0.025,0.1 -0.104,0.139 -0.228,0.155 v 0.103 c 0.073,-0.008 0.146,-0.004 0.22,-0.004 0.191,0 0.25,0 0.478,0.011 0.197,0.007 0.312,0.011 0.4,0.011 0.25,0 0.401,-0.037 0.526,-0.125 0.139,-0.099 0.231,-0.291 0.231,-0.481 0,-0.302 -0.199,-0.548 -0.536,-0.673 0.138,-0.176 0.25,-0.352 0.378,-0.554 0.118,-0.188 0.235,-0.349 0.327,-0.442 0.052,-0.055 0.084,-0.073 0.155,-0.091 V -2.27 C 1.154,-2.292 1.059,-2.299 0.944,-2.299" /></g><g
             transform="translate(531.6281,769.9711)"
             id="g158"><path
               inkscape:connector-curvature="0"
               id="path160"
               style="fill:#231f20;fill-opacity:1;fill-rule:nonzero;stroke:none"
               d="M 0,0 C -0.095,-0.25 -0.228,-0.573 -0.283,-0.753 H 0.26 Z m 1.19,-1.801 c -0.092,0.005 -0.224,0.005 -0.393,0.005 -0.172,0 -0.305,0 -0.396,-0.005 L 0.316,-1.804 v 0.103 c 0.118,0.007 0.186,0.07 0.186,0.172 0,0.038 -0.01,0.089 -0.046,0.199 -0.045,0.137 -0.075,0.228 -0.118,0.353 H -0.367 L -0.441,-1.19 c -0.055,-0.165 -0.085,-0.287 -0.085,-0.349 0,-0.107 0.048,-0.155 0.164,-0.162 v -0.103 c -0.138,0.003 -0.189,0.008 -0.366,0.008 -0.172,0 -0.224,-0.005 -0.363,-0.008 v 0.103 c 0.054,0.007 0.073,0.015 0.114,0.052 0.068,0.061 0.139,0.19 0.249,0.47 l 0.349,0.888 c 0.096,0.24 0.239,0.626 0.338,0.938 H 0.208 C 0.241,0.533 0.319,0.353 0.37,0.22 L 0.888,-1.106 C 0.977,-1.33 1.039,-1.462 1.087,-1.546 1.139,-1.635 1.19,-1.679 1.278,-1.701 v -0.103 z" /></g><g
             transform="translate(535.4329,770.4041)"
             id="g162"><path
               inkscape:connector-curvature="0"
               id="path164"
               style="fill:#231f20;fill-opacity:1;fill-rule:nonzero;stroke:none"
               d="M 0,0 C -0.04,-0.066 -0.048,-0.128 -0.055,-0.319 -0.067,-0.65 -0.07,-1.164 -0.07,-1.41 v -0.562 c 0,-0.084 0.011,-0.213 0.011,-0.265 h -0.249 c -0.239,0.313 -0.735,0.919 -0.735,0.919 -0.058,0.073 -0.518,0.638 -0.75,0.922 0,-0.078 -0.004,-0.029 -0.004,-0.268 v -0.239 c 0,-0.276 0.004,-0.547 0.015,-0.823 0.007,-0.154 0.022,-0.232 0.059,-0.301 0.036,-0.074 0.091,-0.104 0.199,-0.107 v -0.103 c -0.128,0.008 -0.261,0.008 -0.39,0.008 -0.132,0 -0.261,0 -0.392,-0.008 v 0.103 c 0.242,0.007 0.249,0.21 0.256,0.4 0.004,0.155 0.007,0.284 0.007,0.518 v 0.775 c 0,0.305 -0.014,0.379 -0.07,0.46 -0.036,0.059 -0.084,0.08 -0.193,0.092 v 0.103 c 0.121,-0.008 0.165,-0.008 0.318,-0.008 0.152,0 0.195,0 0.317,0.008 0.043,-0.081 0.114,-0.155 0.367,-0.464 0.36,-0.436 0.684,-0.807 0.988,-1.189 v 0.8 c 0,0.367 -0.007,0.46 -0.026,0.555 -0.025,0.117 -0.095,0.177 -0.231,0.195 v 0.103 c 0.151,-0.008 0.202,-0.008 0.39,-0.008 0.187,0 0.238,0 0.389,0.008 V 0.111 C 0.107,0.107 0.052,0.089 0,0" /></g><g
             transform="translate(537.9966,768.2556)"
             id="g166"><path
               inkscape:connector-curvature="0"
               id="path168"
               style="fill:#231f20;fill-opacity:1;fill-rule:nonzero;stroke:none"
               d="M 0,0 C -0.238,-0.095 -0.448,-0.133 -0.738,-0.133 L -0.771,-0.28 c 0.017,0.004 0.055,0 0.07,0 0.14,0 0.231,-0.099 0.231,-0.219 0,-0.199 -0.158,-0.339 -0.408,-0.339 -0.073,0 -0.14,0.015 -0.22,0.048 l 0.051,0.143 c 0.048,-0.018 0.092,-0.03 0.133,-0.03 0.102,0 0.172,0.052 0.172,0.144 0,0.073 -0.036,0.118 -0.092,0.118 -0.029,0 -0.055,-0.011 -0.08,-0.029 l -0.082,0.022 0.075,0.297 c -0.324,0.03 -0.559,0.136 -0.758,0.342 -0.227,0.231 -0.349,0.547 -0.349,0.918 0,0.794 0.512,1.271 1.352,1.271 0.254,0 0.5,-0.037 0.712,-0.106 C 0.03,2.215 0.03,2.131 0.03,2.05 0.03,1.988 0.034,1.855 0.036,1.771 h -0.143 c -0.058,0.261 -0.267,0.4 -0.601,0.4 -0.518,0 -0.835,-0.346 -0.835,-0.918 0,-0.661 0.372,-1.143 0.881,-1.143 0.31,0 0.519,0.155 0.604,0.448 L 0.081,0.529 C 0.048,0.404 0.015,0.194 0,0" /></g><g
             transform="translate(539.3563,769.9711)"
             id="g170"><path
               inkscape:connector-curvature="0"
               id="path172"
               style="fill:#231f20;fill-opacity:1;fill-rule:nonzero;stroke:none"
               d="M 0,0 C -0.096,-0.25 -0.229,-0.573 -0.284,-0.753 H 0.26 Z m 1.189,-1.801 c -0.091,0.005 -0.223,0.005 -0.392,0.005 -0.172,0 -0.305,0 -0.398,-0.005 L 0.315,-1.804 v 0.103 c 0.117,0.007 0.188,0.07 0.188,0.172 0,0.038 -0.011,0.089 -0.049,0.199 -0.043,0.137 -0.073,0.228 -0.116,0.353 H -0.367 L -0.442,-1.19 c -0.054,-0.165 -0.084,-0.287 -0.084,-0.349 0,-0.107 0.047,-0.155 0.165,-0.162 v -0.103 c -0.139,0.003 -0.191,0.008 -0.368,0.008 -0.171,0 -0.224,-0.005 -0.364,-0.008 v 0.103 c 0.056,0.007 0.074,0.015 0.114,0.052 0.07,0.061 0.141,0.19 0.25,0.47 l 0.349,0.888 c 0.096,0.24 0.239,0.626 0.338,0.938 H 0.209 C 0.241,0.533 0.319,0.353 0.37,0.22 l 0.518,-1.326 c 0.089,-0.224 0.151,-0.356 0.199,-0.44 0.051,-0.089 0.102,-0.133 0.191,-0.155 v -0.103 z" /></g><g
             transform="translate(541.7474,768.1706)"
             id="g174"><path
               inkscape:connector-curvature="0"
               id="path176"
               style="fill:#231f20;fill-opacity:1;fill-rule:nonzero;stroke:none"
               d="m 0,0 c -0.093,0.004 -0.229,0.004 -0.401,0.004 -0.176,0 -0.309,0 -0.404,-0.004 l -0.088,-0.003 v 0.102 c 0.173,0.015 0.238,0.104 0.252,0.272 0.012,0.111 0.016,0.177 0.016,0.541 v 0.617 c 0,0.095 -0.004,0.195 -0.004,0.301 0,0.194 -0.006,0.282 -0.037,0.36 -0.033,0.095 -0.102,0.139 -0.227,0.154 v 0.103 l 0.088,-0.003 c 0.095,-0.005 0.228,-0.005 0.404,-0.005 0.172,0 0.308,0 0.401,0.005 L 0.088,2.447 V 2.344 C -0.071,2.333 -0.152,2.234 -0.166,2.069 -0.177,1.962 -0.177,1.86 -0.177,1.529 V 0.912 c 0,-0.482 0.004,-0.563 0.042,-0.658 0.031,-0.096 0.098,-0.143 0.223,-0.155 v -0.102 z" /></g><g
             transform="translate(542.8886,768.1227)"
             id="g178"><path
               inkscape:connector-curvature="0"
               id="path180"
               style="fill:#231f20;fill-opacity:1;fill-rule:nonzero;stroke:none"
               d="m 0,0 c -0.214,0 -0.367,0.03 -0.618,0.125 -0.011,0.14 -0.036,0.353 -0.065,0.53 l 0.138,0.022 c 0.09,-0.298 0.283,-0.452 0.567,-0.452 0.261,0 0.437,0.136 0.437,0.341 0,0.165 -0.114,0.279 -0.279,0.383 l -0.387,0.244 c -0.264,0.17 -0.419,0.347 -0.419,0.67 0,0.411 0.314,0.676 0.798,0.676 0.235,0 0.431,-0.044 0.602,-0.133 C 0.771,2.318 0.771,2.289 0.771,2.176 c 0,-0.133 0,-0.17 0.003,-0.272 H 0.635 c -0.05,0.265 -0.217,0.41 -0.469,0.41 -0.229,0 -0.393,-0.142 -0.393,-0.344 0,-0.177 0.12,-0.294 0.314,-0.419 L 0.4,1.349 C 0.698,1.154 0.867,0.966 0.867,0.672 0.867,0.272 0.514,0 0,0" /></g><g
             transform="translate(545.8422,768.2225)"
             id="g182"><path
               inkscape:connector-curvature="0"
               id="path184"
               style="fill:#231f20;fill-opacity:1;fill-rule:nonzero;stroke:none"
               d="m 0,0 c -0.032,-0.055 -0.069,-0.066 -0.272,-0.066 -0.124,0 -0.245,0.007 -0.371,0.011 -0.176,0.003 -0.353,0.01 -0.529,0.01 -0.176,0 -0.353,-0.003 -0.528,-0.01 v 0.103 c 0.164,0.014 0.238,0.111 0.253,0.271 0.01,0.111 0.01,0.228 0.01,0.419 v 1.039 c 0,0.196 -0.01,0.284 -0.04,0.361 C -1.509,2.234 -1.575,2.277 -1.7,2.293 V 2.395 H 0.019 C 0.019,2.289 0.015,2.179 0.015,2.072 0.015,1.984 0.01,1.899 0.019,1.811 h -0.134 c -0.025,0.283 -0.147,0.36 -0.583,0.36 -0.08,0 -0.187,-0.004 -0.276,-0.007 C -0.981,2.021 -0.984,1.973 -0.984,1.76 V 1.333 C -0.929,1.33 -0.885,1.33 -0.819,1.33 c 0.382,0 0.499,0.055 0.522,0.253 h 0.132 c -0.008,-0.059 -0.008,-0.18 -0.008,-0.364 0,-0.186 0.004,-0.297 0.008,-0.356 h -0.132 c -0.011,0.209 -0.11,0.261 -0.489,0.261 -0.066,0 -0.132,-0.003 -0.198,-0.003 0,-0.232 0.003,-0.464 0.003,-0.696 0,-0.154 0.026,-0.205 0.114,-0.227 0.055,-0.015 0.14,-0.018 0.253,-0.018 0.397,0 0.537,0.088 0.621,0.389 L 0.15,0.539 C 0.1,0.283 0.04,0.069 0,0" /></g><g
             transform="translate(502.4627,774.4554)"
             id="g186"><path
               inkscape:connector-curvature="0"
               id="path188"
               style="fill:#231f20;fill-opacity:1;fill-rule:nonzero;stroke:none"
               d="m 0,0 c -0.033,-0.043 -0.086,-0.057 -0.215,-0.057 -0.175,0 -0.347,0.011 -0.522,0.014 -0.151,0.004 -0.265,0.007 -0.344,0.007 -0.107,0 -0.368,-0.003 -0.443,-0.007 l -0.05,-0.003 0.014,0.075 c 0.108,0.01 0.172,0.042 0.222,0.11 0.057,0.072 0.093,0.172 0.143,0.373 0.046,0.196 0.067,0.315 0.143,0.682 l 0.057,0.283 c 0.057,0.286 0.079,0.455 0.079,0.544 0,0.158 -0.058,0.223 -0.212,0.24 l 0.016,0.079 c 0.021,-0.004 0.039,-0.004 0.049,-0.004 0.133,0 0.261,-0.004 0.394,-0.004 0.208,0 0.343,0.004 0.404,0.004 0.011,0 0.032,0 0.057,0.004 L -0.222,2.261 C -0.333,2.254 -0.394,2.225 -0.447,2.153 -0.536,2.039 -0.588,1.885 -0.72,1.194 L -0.765,0.956 C -0.823,0.662 -0.844,0.561 -0.862,0.429 -0.869,0.387 -0.873,0.339 -0.873,0.319 c 0,-0.14 0.071,-0.183 0.3,-0.183 0.404,0 0.554,0.083 0.687,0.376 L 0.211,0.476 C 0.125,0.24 0.042,0.057 0,0" /></g><g
             transform="translate(503.1349,774.3698)"
             id="g190"><path
               inkscape:connector-curvature="0"
               id="path192"
               style="fill:#231f20;fill-opacity:1;fill-rule:nonzero;stroke:none"
               d="m 0,0 c -0.072,0 -0.119,0.039 -0.119,0.104 0,0.032 0.012,0.089 0.03,0.167 0.046,0.191 0.11,0.448 0.146,0.584 0.05,0.186 0.071,0.315 0.071,0.365 0,0.047 -0.021,0.068 -0.06,0.068 -0.032,0 -0.065,-0.011 -0.14,-0.032 L -0.097,1.248 -0.107,1.349 C 0.089,1.424 0.282,1.47 0.379,1.47 0.432,1.47 0.454,1.453 0.454,1.409 0.454,1.366 0.436,1.252 0.372,1.001 L 0.318,0.791 C 0.229,0.443 0.208,0.322 0.208,0.265 c 0,-0.054 0.028,-0.086 0.082,-0.086 0.032,0 0.096,0.014 0.196,0.05 L 0.493,0.128 C 0.304,0.054 0.099,0 0,0 M 0.39,1.828 C 0.279,1.828 0.208,1.896 0.208,2 c 0,0.129 0.092,0.218 0.22,0.218 0.108,0 0.177,-0.065 0.177,-0.168 0,-0.129 -0.09,-0.222 -0.215,-0.222" /></g><g
             transform="translate(505.1012,775.6857)"
             id="g194"><path
               inkscape:connector-curvature="0"
               id="path196"
               style="fill:#231f20;fill-opacity:1;fill-rule:nonzero;stroke:none"
               d="m 0,0 c -0.064,0 -0.143,-0.025 -0.243,-0.078 -0.104,-0.054 -0.179,-0.111 -0.218,-0.164 -0.047,-0.065 -0.086,-0.177 -0.14,-0.412 -0.054,-0.222 -0.079,-0.361 -0.079,-0.411 0,-0.068 0.079,-0.108 0.222,-0.108 0.147,0 0.272,0.068 0.365,0.201 0.143,0.203 0.25,0.529 0.25,0.762 C 0.157,-0.075 0.104,0 0,0 M 0.004,-1.148 C -0.136,-1.269 -0.3,-1.32 -0.554,-1.32 c -0.279,0 -0.447,0.047 -0.447,0.119 0,0.028 0.003,0.064 0.039,0.214 l 0.186,0.812 c 0.061,0.261 0.107,0.469 0.171,0.762 0.036,0.172 0.051,0.265 0.051,0.311 0,0.043 -0.022,0.068 -0.061,0.068 -0.025,0 -0.104,-0.018 -0.158,-0.036 l -0.003,0.105 0.043,0.013 c 0.193,0.065 0.354,0.101 0.429,0.101 0.046,0 0.075,-0.022 0.075,-0.061 0,-0.04 -0.018,-0.129 -0.079,-0.394 L -0.415,0.222 c -0.036,-0.153 -0.046,-0.211 -0.057,-0.261 0.225,0.132 0.422,0.193 0.6,0.193 0.218,0 0.326,-0.111 0.326,-0.336 0,-0.333 -0.189,-0.74 -0.45,-0.966" /></g><g
             transform="translate(506.7039,775.6967)"
             id="g198"><path
               inkscape:connector-curvature="0"
               id="path200"
               style="fill:#231f20;fill-opacity:1;fill-rule:nonzero;stroke:none"
               d="m 0,0 c -0.172,0 -0.354,-0.236 -0.444,-0.583 h 0.036 c 0.333,0 0.583,0.175 0.583,0.404 C 0.175,-0.078 0.096,0 0,0 m -0.368,-0.715 c -0.026,0 -0.057,0 -0.104,0.004 -0.011,-0.065 -0.015,-0.119 -0.015,-0.173 0,-0.182 0.064,-0.279 0.189,-0.279 0.116,0 0.259,0.061 0.47,0.194 L 0.21,-1.091 c -0.264,-0.164 -0.464,-0.24 -0.647,-0.24 -0.221,0 -0.343,0.133 -0.343,0.372 0,0.591 0.4,1.102 0.862,1.102 0.225,0 0.358,-0.104 0.358,-0.282 0,-0.329 -0.351,-0.576 -0.808,-0.576" /></g><g
             transform="translate(508.5781,775.3786)"
             id="g202"><path
               inkscape:connector-curvature="0"
               id="path204"
               style="fill:#231f20;fill-opacity:1;fill-rule:nonzero;stroke:none"
               d="m 0,0 -0.118,0.011 c 0.007,0.043 0.011,0.093 0.011,0.139 0,0.064 -0.058,0.111 -0.147,0.111 -0.053,0 -0.107,-0.032 -0.154,-0.086 -0.136,-0.154 -0.189,-0.397 -0.268,-0.794 l -0.068,-0.347 c -0.136,-0.007 -0.172,-0.011 -0.311,-0.028 0.035,0.136 0.06,0.243 0.089,0.364 l 0.079,0.333 c 0.054,0.226 0.079,0.364 0.079,0.44 0,0.089 -0.022,0.128 -0.064,0.128 -0.022,0 -0.055,-0.006 -0.091,-0.017 L -1.051,0.226 -1.062,0.333 c 0.175,0.071 0.375,0.128 0.465,0.128 0.035,0 0.057,-0.014 0.064,-0.05 0.011,-0.043 0.018,-0.093 0.022,-0.153 0.16,0.132 0.304,0.206 0.404,0.206 0.068,0 0.154,-0.035 0.236,-0.096 C 0.072,0.24 0.029,0.122 0,0" /></g><g
             transform="translate(509.7908,775.6219)"
             id="g206"><path
               inkscape:connector-curvature="0"
               id="path208"
               style="fill:#231f20;fill-opacity:1;fill-rule:nonzero;stroke:none"
               d="m 0,0 -0.297,0.007 -0.151,-0.733 c -0.039,-0.19 -0.043,-0.244 -0.043,-0.272 0,-0.05 0.026,-0.078 0.072,-0.078 0.025,0 0.079,0.013 0.165,0.039 l 0.036,0.01 0.01,-0.104 c -0.186,-0.074 -0.379,-0.125 -0.482,-0.125 -0.076,0 -0.122,0.036 -0.122,0.104 0,0.061 0.014,0.15 0.042,0.261 0.033,0.125 0.058,0.229 0.087,0.368 l 0.11,0.53 -0.189,-0.003 0.025,0.113 c 0.243,0.044 0.326,0.237 0.393,0.445 l 0.172,0.035 -0.089,-0.422 0.297,0.004 z" /></g><g
             transform="translate(510.8597,775.6967)"
             id="g210"><path
               inkscape:connector-curvature="0"
               id="path212"
               style="fill:#231f20;fill-opacity:1;fill-rule:nonzero;stroke:none"
               d="m 0,0 c -0.171,0 -0.354,-0.236 -0.444,-0.583 h 0.036 c 0.333,0 0.583,0.175 0.583,0.404 C 0.175,-0.078 0.096,0 0,0 m -0.368,-0.715 c -0.025,0 -0.057,0 -0.104,0.004 -0.011,-0.065 -0.014,-0.119 -0.014,-0.173 0,-0.182 0.064,-0.279 0.189,-0.279 0.115,0 0.258,0.061 0.469,0.194 l 0.04,-0.122 c -0.265,-0.164 -0.466,-0.24 -0.648,-0.24 -0.222,0 -0.343,0.133 -0.343,0.372 0,0.591 0.4,1.102 0.862,1.102 0.225,0 0.357,-0.104 0.357,-0.282 0,-0.329 -0.35,-0.576 -0.808,-0.576 m 0.397,1.08 -0.114,0.093 0.436,0.493 0.322,-0.078 z" /></g><g
             transform="translate(517.7142,776.2726)"
             id="g214"><path
               inkscape:connector-curvature="0"
               id="path216"
               style="fill:#231f20;fill-opacity:1;fill-rule:nonzero;stroke:none"
               d="m 0,0 h -0.103 c 0.003,0.04 0.007,0.054 0.007,0.079 0,0.196 -0.129,0.264 -0.487,0.264 -0.117,0 -0.233,0 -0.35,-0.01 -0.075,-0.297 -0.125,-0.555 -0.186,-0.873 h 0.133 c 0.228,0 0.325,0.003 0.407,0.018 0.132,0.025 0.211,0.103 0.25,0.246 h 0.097 c -0.049,-0.21 -0.111,-0.511 -0.136,-0.693 h -0.096 c 0.003,0.025 0.006,0.046 0.006,0.061 0,0.153 -0.096,0.203 -0.39,0.203 -0.175,0 -0.239,-0.003 -0.304,-0.006 -0.017,-0.09 0,-0.011 -0.082,-0.423 -0.039,-0.2 -0.054,-0.326 -0.054,-0.39 0,-0.125 0.064,-0.157 0.305,-0.157 0.45,0 0.59,0.071 0.73,0.379 l 0.089,-0.036 c -0.079,-0.236 -0.165,-0.425 -0.215,-0.486 -0.036,-0.039 -0.082,-0.05 -0.233,-0.05 -0.124,0 -0.253,0.004 -0.378,0.007 -0.165,0.004 -0.333,0.007 -0.498,0.007 -0.168,0 -0.332,-0.003 -0.5,-0.003 l 0.014,0.075 c 0.107,0.01 0.171,0.042 0.222,0.11 0.057,0.072 0.093,0.172 0.143,0.373 0.046,0.2 0.061,0.282 0.143,0.682 l 0.057,0.283 c 0.057,0.28 0.079,0.455 0.079,0.543 0,0.158 -0.057,0.223 -0.211,0.241 l 0.014,0.079 H 0.101 C 0.062,0.361 0.026,0.168 0,0 m -0.679,0.762 -0.114,0.094 0.436,0.493 0.326,-0.079 z" /></g><g
             transform="translate(518.8515,774.2554)"
             id="g218"><path
               inkscape:connector-curvature="0"
               id="path220"
               style="fill:#231f20;fill-opacity:1;fill-rule:nonzero;stroke:none"
               d="m 0,0 c -0.122,0.047 -0.268,0.096 -0.418,0.139 -0.247,-0.061 -0.418,-0.243 -0.418,-0.45 0,-0.194 0.164,-0.323 0.422,-0.323 0.311,0 0.597,0.212 0.597,0.44 C 0.183,-0.107 0.129,-0.05 0,0 m -0.053,1.449 c -0.194,0 -0.35,-0.204 -0.35,-0.448 0,-0.167 0.096,-0.282 0.235,-0.282 0.19,0 0.344,0.196 0.344,0.44 0,0.178 -0.09,0.29 -0.229,0.29 M 0.629,1.37 0.387,1.373 C 0.43,1.298 0.444,1.241 0.444,1.159 c 0,-0.33 -0.276,-0.583 -0.633,-0.583 -0.068,0 -0.118,0.007 -0.193,0.028 C -0.472,0.55 -0.5,0.525 -0.5,0.493 c 0,-0.039 0.039,-0.057 0.197,-0.107 l 0.286,-0.089 c 0.285,-0.089 0.425,-0.176 0.425,-0.383 0,-0.379 -0.375,-0.677 -0.855,-0.677 -0.393,0 -0.632,0.187 -0.632,0.491 0,0.279 0.178,0.411 0.472,0.486 -0.18,0.064 -0.219,0.094 -0.219,0.154 0,0.079 0.104,0.176 0.318,0.294 -0.11,0.078 -0.164,0.182 -0.164,0.325 0,0.34 0.271,0.597 0.63,0.597 0.093,0 0.16,-0.01 0.239,-0.039 H 0.67 Z" /></g><g
             transform="translate(520.6615,775.6899)"
             id="g222"><path
               inkscape:connector-curvature="0"
               id="path224"
               style="fill:#231f20;fill-opacity:1;fill-rule:nonzero;stroke:none"
               d="m 0,0 c -0.144,0 -0.287,-0.107 -0.409,-0.308 -0.135,-0.218 -0.232,-0.508 -0.232,-0.698 0,-0.11 0.054,-0.172 0.143,-0.172 0.133,0 0.365,0.119 0.454,0.208 0.05,0.05 0.08,0.122 0.115,0.258 0.057,0.218 0.111,0.422 0.143,0.658 C 0.136,-0.018 0.06,0 0,0 m 0.164,-1.324 c -0.065,0 -0.086,0.04 -0.118,0.215 -0.265,-0.15 -0.457,-0.218 -0.647,-0.218 -0.215,0 -0.341,0.11 -0.341,0.308 0,0.189 0.094,0.457 0.236,0.678 0.194,0.301 0.434,0.491 0.799,0.491 0.16,0 0.308,-0.029 0.462,-0.068 L 0.537,0.024 c -0.128,-0.41 -0.223,-0.865 -0.223,-1.018 0,-0.097 0.022,-0.15 0.064,-0.15 0.031,0 0.104,0.021 0.195,0.053 l 0.01,-0.111 C 0.401,-1.27 0.224,-1.324 0.164,-1.324" /></g><g
             transform="translate(522.4153,776.4692)"
             id="g226"><path
               inkscape:connector-curvature="0"
               id="path228"
               style="fill:#231f20;fill-opacity:1;fill-rule:nonzero;stroke:none"
               d="m 0,0 c -0.118,-0.476 -0.236,-1.005 -0.351,-1.509 -0.035,-0.165 -0.053,-0.272 -0.053,-0.326 0,-0.054 0.025,-0.079 0.079,-0.079 0.035,0 0.099,0.015 0.196,0.043 l 0.007,-0.1 c -0.182,-0.072 -0.405,-0.132 -0.501,-0.132 -0.069,0 -0.108,0.04 -0.108,0.107 0,0.05 0.01,0.115 0.064,0.34 0.112,0.473 0.234,0.976 0.331,1.427 0.042,0.208 0.065,0.311 0.065,0.344 0,0.042 -0.023,0.064 -0.062,0.064 -0.035,0 -0.1,-0.014 -0.157,-0.036 l -0.008,0.108 c 0.183,0.065 0.384,0.114 0.484,0.114 0.05,0 0.075,-0.021 0.075,-0.06 C 0.061,0.268 0.047,0.187 0,0" /></g><g
             transform="translate(522.9124,774.3698)"
             id="g230"><path
               inkscape:connector-curvature="0"
               id="path232"
               style="fill:#231f20;fill-opacity:1;fill-rule:nonzero;stroke:none"
               d="m 0,0 c -0.071,0 -0.118,0.039 -0.118,0.104 0,0.032 0.011,0.089 0.029,0.167 0.047,0.191 0.11,0.448 0.146,0.584 0.051,0.186 0.072,0.315 0.072,0.365 0,0.047 -0.021,0.068 -0.061,0.068 -0.032,0 -0.065,-0.011 -0.139,-0.032 L -0.097,1.248 -0.107,1.349 C 0.089,1.424 0.282,1.47 0.38,1.47 0.432,1.47 0.454,1.453 0.454,1.409 0.454,1.366 0.437,1.252 0.372,1.001 L 0.318,0.791 C 0.229,0.443 0.208,0.322 0.208,0.265 c 0,-0.054 0.028,-0.086 0.081,-0.086 0.033,0 0.097,0.014 0.197,0.05 L 0.494,0.128 C 0.304,0.054 0.1,0 0,0 M 0.39,1.828 C 0.279,1.828 0.208,1.896 0.208,2 0.208,2.129 0.3,2.218 0.429,2.218 0.536,2.218 0.604,2.153 0.604,2.05 0.604,1.921 0.515,1.828 0.39,1.828" /></g><g
             transform="translate(524.7106,775.6219)"
             id="g234"><path
               inkscape:connector-curvature="0"
               id="path236"
               style="fill:#231f20;fill-opacity:1;fill-rule:nonzero;stroke:none"
               d="m 0,0 -0.296,0.007 -0.151,-0.733 c -0.039,-0.19 -0.043,-0.244 -0.043,-0.272 0,-0.05 0.025,-0.078 0.072,-0.078 0.024,0 0.078,0.013 0.165,0.039 l 0.035,0.01 0.01,-0.104 c -0.186,-0.074 -0.378,-0.125 -0.483,-0.125 -0.075,0 -0.121,0.036 -0.121,0.104 0,0.061 0.015,0.15 0.043,0.261 0.032,0.125 0.057,0.229 0.086,0.368 l 0.111,0.53 -0.19,-0.003 0.025,0.113 c 0.243,0.044 0.326,0.237 0.394,0.445 L -0.171,0.597 -0.26,0.175 0.036,0.179 Z" /></g><g
             transform="translate(525.7803,775.6967)"
             id="g238"><path
               inkscape:connector-curvature="0"
               id="path240"
               style="fill:#231f20;fill-opacity:1;fill-rule:nonzero;stroke:none"
               d="m 0,0 c -0.171,0 -0.354,-0.236 -0.444,-0.583 h 0.036 c 0.332,0 0.583,0.175 0.583,0.404 C 0.175,-0.078 0.096,0 0,0 m -0.369,-0.715 c -0.025,0 -0.057,0 -0.104,0.004 -0.01,-0.065 -0.014,-0.119 -0.014,-0.173 0,-0.182 0.064,-0.279 0.19,-0.279 0.114,0 0.258,0.061 0.469,0.194 l 0.039,-0.122 c -0.265,-0.164 -0.465,-0.24 -0.648,-0.24 -0.221,0 -0.343,0.133 -0.343,0.372 0,0.591 0.401,1.102 0.861,1.102 0.227,0 0.359,-0.104 0.359,-0.282 0,-0.329 -0.35,-0.576 -0.809,-0.576 M 0.028,0.365 -0.086,0.458 0.35,0.951 0.672,0.873 Z" /></g><g
             transform="translate(532.5859,776.2767)"
             id="g242"><path
               inkscape:connector-curvature="0"
               id="path244"
               style="fill:#231f20;fill-opacity:1;fill-rule:nonzero;stroke:none"
               d="m 0,0 h -0.103 c 0.002,0.036 0.007,0.064 0.007,0.081 0,0.073 -0.026,0.129 -0.069,0.172 -0.068,0.065 -0.193,0.09 -0.465,0.09 -0.076,0 -0.175,-0.004 -0.264,-0.007 -0.064,-0.294 -0.123,-0.576 -0.187,-0.88 0.068,0 0.136,-0.004 0.205,-0.004 0.398,0 0.475,0.037 0.55,0.268 h 0.098 c -0.059,-0.231 -0.104,-0.461 -0.137,-0.697 h -0.101 c 0.005,0.026 0.008,0.047 0.008,0.06 0,0.062 -0.024,0.119 -0.067,0.151 -0.062,0.047 -0.133,0.057 -0.348,0.057 -0.114,0 -0.146,-0.003 -0.24,-0.006 l -0.046,-0.24 c -0.068,-0.343 -0.093,-0.505 -0.093,-0.605 0,-0.147 0.064,-0.215 0.211,-0.232 l -0.014,-0.076 -0.058,0.004 c -0.028,0 -0.186,0.004 -0.321,0.004 -0.144,0 -0.408,0 -0.455,-0.004 l -0.061,-0.004 0.015,0.076 c 0.106,0.01 0.172,0.042 0.222,0.11 0.056,0.072 0.096,0.172 0.142,0.372 0.052,0.204 0.068,0.312 0.144,0.683 l 0.056,0.283 c 0.058,0.283 0.079,0.455 0.079,0.543 0,0.158 -0.056,0.223 -0.211,0.241 l 0.016,0.079 H 0.1 C 0.064,0.357 0.029,0.171 0,0" /></g><g
             transform="translate(533.804,775.3786)"
             id="g246"><path
               inkscape:connector-curvature="0"
               id="path248"
               style="fill:#231f20;fill-opacity:1;fill-rule:nonzero;stroke:none"
               d="m 0,0 -0.117,0.011 c 0.006,0.043 0.011,0.093 0.011,0.139 0,0.064 -0.058,0.111 -0.147,0.111 -0.055,0 -0.107,-0.032 -0.155,-0.086 -0.136,-0.154 -0.189,-0.397 -0.267,-0.794 l -0.069,-0.347 c -0.136,-0.007 -0.171,-0.011 -0.311,-0.028 0.037,0.136 0.061,0.243 0.09,0.364 l 0.079,0.333 c 0.053,0.226 0.078,0.364 0.078,0.44 0,0.089 -0.021,0.128 -0.065,0.128 -0.021,0 -0.053,-0.006 -0.089,-0.017 L -1.051,0.226 -1.062,0.333 c 0.176,0.071 0.375,0.128 0.465,0.128 0.035,0 0.057,-0.014 0.065,-0.05 0.01,-0.043 0.019,-0.093 0.021,-0.153 0.162,0.132 0.304,0.206 0.405,0.206 0.068,0 0.153,-0.035 0.235,-0.096 C 0.073,0.24 0.029,0.122 0,0" /></g><g
             transform="translate(535.0511,775.6899)"
             id="g250"><path
               inkscape:connector-curvature="0"
               id="path252"
               style="fill:#231f20;fill-opacity:1;fill-rule:nonzero;stroke:none"
               d="m 0,0 c -0.143,0 -0.287,-0.107 -0.408,-0.308 -0.136,-0.218 -0.233,-0.508 -0.233,-0.698 0,-0.11 0.055,-0.172 0.145,-0.172 0.132,0 0.363,0.119 0.453,0.208 0.051,0.05 0.078,0.122 0.114,0.258 0.058,0.218 0.112,0.422 0.143,0.658 C 0.136,-0.018 0.061,0 0,0 m 0.165,-1.324 c -0.064,0 -0.086,0.04 -0.118,0.215 -0.265,-0.15 -0.458,-0.218 -0.648,-0.218 -0.214,0 -0.339,0.11 -0.339,0.308 0,0.189 0.092,0.457 0.235,0.678 0.193,0.301 0.433,0.491 0.798,0.491 0.161,0 0.307,-0.029 0.461,-0.068 L 0.536,0.024 c -0.128,-0.41 -0.221,-0.865 -0.221,-1.018 0,-0.097 0.02,-0.15 0.065,-0.15 0.028,0 0.103,0.021 0.192,0.053 L 0.583,-1.202 C 0.4,-1.27 0.225,-1.324 0.165,-1.324" /></g><g
             transform="translate(536.9221,775.6219)"
             id="g254"><path
               inkscape:connector-curvature="0"
               id="path256"
               style="fill:#231f20;fill-opacity:1;fill-rule:nonzero;stroke:none"
               d="m 0,0 -0.297,0.007 -0.15,-0.733 c -0.039,-0.19 -0.043,-0.244 -0.043,-0.272 0,-0.05 0.025,-0.078 0.071,-0.078 0.025,0 0.079,0.013 0.164,0.039 l 0.036,0.01 0.013,-0.104 c -0.188,-0.074 -0.381,-0.125 -0.485,-0.125 -0.074,0 -0.121,0.036 -0.121,0.104 0,0.061 0.015,0.15 0.043,0.261 0.032,0.125 0.057,0.229 0.086,0.368 l 0.11,0.53 -0.189,-0.003 0.025,0.113 c 0.242,0.044 0.326,0.237 0.392,0.445 l 0.173,0.035 -0.089,-0.422 0.296,0.004 z" /></g><g
             transform="translate(537.9918,775.6967)"
             id="g258"><path
               inkscape:connector-curvature="0"
               id="path260"
               style="fill:#231f20;fill-opacity:1;fill-rule:nonzero;stroke:none"
               d="m 0,0 c -0.172,0 -0.355,-0.236 -0.444,-0.583 h 0.035 c 0.333,0 0.584,0.175 0.584,0.404 C 0.175,-0.078 0.096,0 0,0 m -0.369,-0.715 c -0.025,0 -0.057,0 -0.103,0.004 -0.011,-0.065 -0.015,-0.119 -0.015,-0.173 0,-0.182 0.065,-0.279 0.19,-0.279 0.115,0 0.257,0.061 0.468,0.194 l 0.04,-0.122 c -0.264,-0.164 -0.464,-0.24 -0.648,-0.24 -0.221,0 -0.343,0.133 -0.343,0.372 0,0.591 0.4,1.102 0.862,1.102 0.225,0 0.357,-0.104 0.357,-0.282 0,-0.329 -0.35,-0.576 -0.808,-0.576" /></g><g
             transform="translate(539.8656,775.3786)"
             id="g262"><path
               inkscape:connector-curvature="0"
               id="path264"
               style="fill:#231f20;fill-opacity:1;fill-rule:nonzero;stroke:none"
               d="m 0,0 -0.117,0.011 c 0.006,0.043 0.01,0.093 0.01,0.139 0,0.064 -0.057,0.111 -0.146,0.111 -0.055,0 -0.108,-0.032 -0.155,-0.086 -0.135,-0.154 -0.189,-0.397 -0.268,-0.794 l -0.068,-0.347 c -0.136,-0.007 -0.171,-0.011 -0.311,-0.028 0.037,0.136 0.061,0.243 0.089,0.364 l 0.078,0.333 c 0.056,0.226 0.08,0.364 0.08,0.44 0,0.089 -0.022,0.128 -0.065,0.128 -0.021,0 -0.054,-0.006 -0.089,-0.017 L -1.051,0.226 -1.062,0.333 c 0.174,0.071 0.375,0.128 0.465,0.128 0.035,0 0.057,-0.014 0.064,-0.05 0.011,-0.043 0.018,-0.093 0.021,-0.153 0.162,0.132 0.305,0.206 0.405,0.206 0.069,0 0.154,-0.035 0.236,-0.096 C 0.071,0.24 0.029,0.122 0,0" /></g><g
             transform="translate(541.2928,774.366)"
             id="g266"><path
               inkscape:connector-curvature="0"
               id="path268"
               style="fill:#231f20;fill-opacity:1;fill-rule:nonzero;stroke:none"
               d="m 0,0 c -0.071,0 -0.115,0.043 -0.115,0.107 0,0.043 0.014,0.122 0.058,0.301 l 0.036,0.15 C 0.085,1.005 0.11,1.156 0.11,1.217 0.11,1.271 0.085,1.299 0.036,1.299 -0.026,1.299 -0.126,1.263 -0.233,1.198 -0.346,1.134 -0.432,1.059 -0.477,0.994 -0.509,0.941 -0.534,0.848 -0.577,0.659 -0.633,0.397 -0.669,0.219 -0.698,0.051 -0.837,0.04 -0.873,0.036 -1.013,0.018 c 0.072,0.268 0.125,0.49 0.179,0.737 0.054,0.243 0.076,0.358 0.076,0.423 0,0.082 -0.026,0.121 -0.079,0.121 -0.03,0 -0.09,-0.015 -0.176,-0.043 l -0.008,0.1 c 0.173,0.067 0.359,0.118 0.444,0.118 0.08,0 0.104,-0.046 0.104,-0.214 V 1.231 C -0.2,1.384 0.078,1.474 0.272,1.474 0.39,1.474 0.436,1.445 0.436,1.373 0.436,1.299 0.414,1.181 0.338,0.891 0.297,0.726 0.257,0.551 0.243,0.472 0.221,0.369 0.21,0.305 0.21,0.265 c 0,-0.054 0.029,-0.083 0.079,-0.083 0.033,0 0.101,0.015 0.187,0.047 L 0.487,0.125 C 0.297,0.057 0.081,0 0,0" /></g><g
             transform="translate(542.4077,774.3698)"
             id="g270"><path
               inkscape:connector-curvature="0"
               id="path272"
               style="fill:#231f20;fill-opacity:1;fill-rule:nonzero;stroke:none"
               d="m 0,0 c -0.071,0 -0.118,0.039 -0.118,0.104 0,0.032 0.011,0.089 0.029,0.167 0.047,0.191 0.111,0.448 0.146,0.584 0.052,0.186 0.072,0.315 0.072,0.365 0,0.047 -0.02,0.068 -0.062,0.068 -0.031,0 -0.063,-0.011 -0.138,-0.032 L -0.096,1.248 -0.107,1.349 C 0.09,1.424 0.283,1.47 0.381,1.47 0.433,1.47 0.454,1.453 0.454,1.409 0.454,1.366 0.437,1.252 0.372,1.001 L 0.318,0.791 C 0.229,0.443 0.208,0.322 0.208,0.265 c 0,-0.054 0.029,-0.086 0.082,-0.086 0.033,0 0.097,0.014 0.198,0.05 L 0.495,0.128 C 0.305,0.054 0.101,0 0,0 M 0.391,1.828 C 0.279,1.828 0.208,1.896 0.208,2 c 0,0.129 0.093,0.218 0.222,0.218 0.107,0 0.174,-0.065 0.174,-0.168 0,-0.129 -0.089,-0.222 -0.213,-0.222" /></g><g
             transform="translate(544.2065,775.6219)"
             id="g274"><path
               inkscape:connector-curvature="0"
               id="path276"
               style="fill:#231f20;fill-opacity:1;fill-rule:nonzero;stroke:none"
               d="m 0,0 -0.296,0.007 -0.151,-0.733 c -0.039,-0.19 -0.043,-0.244 -0.043,-0.272 0,-0.05 0.026,-0.078 0.072,-0.078 0.024,0 0.079,0.013 0.164,0.039 l 0.035,0.01 0.01,-0.104 c -0.185,-0.074 -0.377,-0.125 -0.482,-0.125 -0.074,0 -0.121,0.036 -0.121,0.104 0,0.061 0.014,0.15 0.043,0.261 0.032,0.125 0.057,0.229 0.085,0.368 l 0.112,0.53 -0.189,-0.003 0.024,0.113 c 0.242,0.044 0.326,0.237 0.394,0.445 l 0.172,0.035 -0.091,-0.422 0.298,0.004 z" /></g><g
             transform="translate(545.2756,775.6967)"
             id="g278"><path
               inkscape:connector-curvature="0"
               id="path280"
               style="fill:#231f20;fill-opacity:1;fill-rule:nonzero;stroke:none"
               d="m 0,0 c -0.171,0 -0.354,-0.236 -0.443,-0.583 h 0.035 c 0.332,0 0.584,0.175 0.584,0.404 C 0.176,-0.078 0.097,0 0,0 m -0.367,-0.715 c -0.026,0 -0.058,0 -0.105,0.004 -0.011,-0.065 -0.014,-0.119 -0.014,-0.173 0,-0.182 0.063,-0.279 0.189,-0.279 0.115,0 0.259,0.061 0.469,0.194 l 0.04,-0.122 c -0.266,-0.164 -0.466,-0.24 -0.649,-0.24 -0.221,0 -0.342,0.133 -0.342,0.372 0,0.591 0.4,1.102 0.863,1.102 0.224,0 0.356,-0.104 0.356,-0.282 0,-0.329 -0.35,-0.576 -0.807,-0.576 M 0.03,0.365 -0.086,0.458 0.352,0.951 0.673,0.873 Z" /></g><g
             transform="translate(528.5329,775.0324)"
             id="g282"><path
               inkscape:connector-curvature="0"
               id="path284"
               style="fill:#231f20;fill-opacity:1;fill-rule:nonzero;stroke:none"
               d="M 0,0 C 0.24,0 0.433,0.194 0.433,0.434 0.433,0.674 0.24,0.869 0,0.869 -0.24,0.869 -0.434,0.674 -0.434,0.434 -0.434,0.194 -0.24,0 0,0" /></g><g
             transform="translate(513.6224,775.0324)"
             id="g286"><path
               inkscape:connector-curvature="0"
               id="path288"
               style="fill:#231f20;fill-opacity:1;fill-rule:nonzero;stroke:none"
               d="M 0,0 C 0.239,0 0.433,0.194 0.433,0.434 0.433,0.674 0.239,0.869 0,0.869 -0.24,0.869 -0.434,0.674 -0.434,0.434 -0.434,0.194 -0.24,0 0,0" /></g><g
             transform="translate(501.121,772.7888)"
             id="g290"><path
               inkscape:connector-curvature="0"
               id="path292"
               style="fill:#231f20;fill-opacity:1;fill-rule:nonzero;stroke:#231f20;stroke-width:0.17299999;stroke-linecap:butt;stroke-linejoin:miter;stroke-miterlimit:4;stroke-dasharray:none;stroke-opacity:1"
               d="M 0,0 H 44.619" /></g></g></g><g
         transform="matrix(2.5400259,0,0,2.5400259,-806.12193,-1186.5179)"
         id="g294"><g
           clip-path="url(#clipPath300)"
           id="g296"><g
             transform="translate(514.5093,784.5398)"
             id="g302"><path
               inkscape:connector-curvature="0"
               id="path304"
               style="fill:#254aa5;fill-opacity:1;fill-rule:nonzero;stroke:none"
               d="m 0,0 c -0.405,-0.12 -0.819,-0.137 -1.195,-0.342 0.887,0.035 1.774,-0.102 2.627,-0.375 0.307,-0.102 0.58,-0.238 0.853,-0.409 0.137,-0.102 0.205,-0.205 0.341,-0.273 0.17,-0.102 0.409,-0.102 0.58,-0.034 h 0.169 c 0.513,0.137 1.059,0.273 1.4,0.648 0,-0.034 0.034,-0.034 0.068,-0.034 C 4.74,-1.092 4.74,-1.399 4.536,-1.638 4.536,-1.672 4.501,-1.74 4.57,-1.774 h 0.068 c -0.034,0 -0.068,0 -0.068,-0.033 0,-0.069 0.102,0 0.136,-0.069 -0.17,-0.034 -0.34,-0.068 -0.443,-0.205 0,-0.034 0.068,-0.034 0.103,-0.034 -0.069,-0.069 -0.171,-0.034 -0.205,-0.102 0,0 0.034,-0.035 0.068,-0.035 -0.034,0 -0.068,0 -0.068,-0.034 v -0.102 c -0.102,0 -0.137,-0.068 -0.205,-0.102 0.137,-0.103 0.239,0 0.375,0 -0.375,-0.136 -0.682,-0.341 -1.057,-0.444 -0.068,0 0,-0.102 -0.068,-0.102 0.102,-0.069 0.169,0.034 0.273,0.034 -0.478,-0.274 -0.955,-0.511 -1.467,-0.818 0,0 -0.068,-0.069 -0.068,-0.137 H 1.807 C 1.739,-3.991 1.772,-4.094 1.705,-4.162 c 0.171,-0.103 0.375,0.136 0.477,0 0.035,0 -0.068,-0.034 -0.136,-0.034 -0.034,0 -0.034,-0.069 -0.069,-0.069 H 1.876 C 1.807,-4.333 1.739,-4.366 1.739,-4.469 c -0.068,0 -0.136,0 -0.17,-0.068 0.75,0.103 1.534,0.034 2.25,0.409 0.547,0.273 1.058,0.649 1.501,1.126 0,0 0.034,-0.034 0.034,-0.068 C 5.252,-3.411 5.048,-3.65 4.775,-3.855 4.57,-3.957 4.434,-4.128 4.263,-4.196 4.161,-4.265 4.059,-4.333 3.956,-4.401 2.694,-4.844 1.193,-4.64 0.102,-5.492 c 0,0.034 -0.035,0.034 -0.069,0.034 -0.067,-0.068 -0.17,-0.102 -0.204,-0.17 0,-0.069 0.102,-0.034 0.137,-0.034 0.204,0.136 0.409,0.238 0.648,0.306 -0.273,-0.136 -0.547,-0.341 -0.819,-0.409 -0.58,-0.102 -1.126,-0.068 -1.705,0 0.34,0.205 0.682,0.444 1.058,0.648 -0.104,0.069 -0.206,0.069 -0.308,0.069 -0.171,-0.034 -0.375,0.068 -0.545,0 -0.512,-0.239 -1.195,-0.171 -1.468,-0.717 -3.41,-0.068 -6.856,0 -10.266,0 0.068,3.718 0,7.402 0.102,11.119 0.034,1.331 -0.034,2.662 -0.034,3.991 0.921,0.171 1.842,0.069 2.763,0.034 5.9,0 11.767,0.035 17.67,0 C 6.651,9.174 6.173,9.004 5.866,8.629 5.593,8.288 5.32,7.947 5.218,7.537 4.775,7.265 4.501,6.856 4.263,6.446 3.956,5.866 3.512,5.354 3.581,4.706 3.649,4.161 3.785,3.649 3.888,3.069 3.922,2.865 3.956,2.694 4.024,2.49 4.093,2.285 4.024,2.046 4.127,1.875 4.195,1.773 4.161,1.637 4.297,1.568 V 1.432 C 4.331,1.398 4.331,1.364 4.399,1.364 V 1.227 C 4.672,0.886 5.014,0.579 5.184,0.204 5.252,0 4.843,0.102 4.672,0.17 4.331,0.341 4.127,0.614 3.854,0.852 3.854,0.852 3.819,0.818 3.819,0.784 3.956,0.545 4.468,0.239 4.195,0.068 4.059,0 3.888,0.17 3.751,0.034 c -0.034,-0.068 0,-0.137 0,-0.205 C 3.547,-0.034 3.342,-0.103 3.137,-0.034 3.001,0 2.967,0.272 2.796,0.272 2.353,0.374 1.944,0.477 1.5,0.511 0.886,0.579 0.306,0.682 -0.308,0.579 -0.852,0.545 -1.262,0.136 -1.603,-0.273 v -0.103 c 0.238,-0.034 0.341,0.171 0.545,0.239 0.341,0.069 0.648,0.205 0.989,0.273 0.512,0.103 0.989,0.238 1.467,0.205 0.102,0 0.239,0.033 0.341,0 C 1.125,0.374 0.579,0.17 0,0" /></g><g
             transform="translate(512.5989,782.9022)"
             id="g306"><path
               inkscape:connector-curvature="0"
               id="path308"
               style="fill:#ffffff;fill-opacity:1;fill-rule:nonzero;stroke:none"
               d="m 0,0 c -0.105,-0.026 -0.205,-0.102 -0.171,-0.17 0.103,-0.137 0.308,0.033 0.478,0.033 -0.205,-0.067 -0.444,-0.033 -0.614,-0.204 0.136,-0.103 0.273,-0.034 0.409,-0.034 0,-0.069 0.069,-0.069 0.103,-0.103 -0.171,-0.068 -0.308,-0.204 -0.342,-0.307 -0.068,-0.17 -0.238,-0.238 -0.341,-0.375 v -0.102 c -0.341,-0.307 -0.715,-0.512 -0.989,-0.887 0.034,0 0.034,-0.034 0.034,-0.068 -0.068,-0.103 -0.204,-0.136 -0.238,-0.239 0,-0.034 0,-0.069 0.034,-0.069 0.409,0.137 0.716,0.444 1.091,0.581 0.273,0.068 0.478,0.239 0.717,0.306 0.17,0.035 0.375,0.103 0.545,0.137 0,-0.034 0,-0.068 0.034,-0.068 H 1.024 C 0.989,-1.638 0.853,-1.603 0.886,-1.638 c 0.103,-0.102 0.307,-0.067 0.444,0 0.102,0.069 0.205,0.069 0.341,0.069 0.034,0 0.034,0.068 0.034,0.102 0.103,-0.034 0.171,-0.034 0.273,-0.034 0.818,0.17 1.604,0.341 2.354,0.716 -0.887,0.683 -2.013,0.921 -3.07,1.228 0.102,0 0.204,-0.102 0.307,0 -0.17,0.137 -0.376,0.068 -0.545,0.171 0.034,0 0.101,-0.034 0.135,0.034 -0.273,0.137 -0.545,0.137 -0.818,0.205 0.17,0.033 0.273,0.17 0.273,0.34 0,0.035 -0.068,0.035 -0.103,0.035 C 0.102,1.023 -0.171,0.648 -0.342,0.204 -0.103,0.068 0.171,0.171 0.409,0.136 0.307,0.034 0.137,0.034 0,0" /></g><g
             transform="translate(511.2,784.2324)"
             id="g310"><path
               inkscape:connector-curvature="0"
               id="path312"
               style="fill:#ffffff;fill-opacity:1;fill-rule:nonzero;stroke:none"
               d="m 0,0 c -0.347,-0.369 -0.716,-0.716 -1.159,-0.955 -0.307,-0.614 -0.648,-1.16 -1.092,-1.74 0,-0.034 0.034,-0.068 0.034,-0.068 0.819,0.921 1.569,1.706 2.626,2.353 0.069,0.034 -0.102,-0.102 0.035,-0.067 0.443,0.101 0.58,0.545 0.784,0.886 C 1.501,0.853 1.979,1.023 2.32,1.398 2.32,1.364 2.32,1.33 2.285,1.296 2.32,1.262 2.354,1.262 2.388,1.262 2.524,1.364 2.695,1.33 2.798,1.466 2.524,1.569 2.184,1.603 1.909,1.5 1.194,1.16 0.58,0.614 0,0" /></g><g
             transform="translate(511.7118,783.5847)"
             id="g314"><path
               inkscape:connector-curvature="0"
               id="path316"
               style="fill:#ffffff;fill-opacity:1;fill-rule:nonzero;stroke:none"
               d="m 0,0 c 0.031,0.06 0.068,0.068 0.103,0.136 0,0.034 0,0.068 -0.035,0.068 -0.136,-0.034 -0.239,-0.171 -0.273,-0.307 0,-0.033 0.034,-0.033 0.069,-0.033 C -0.068,-0.103 -0.034,-0.069 0,0" /></g><g
             transform="translate(514.4406,780.9916)"
             id="g318"><path
               inkscape:connector-curvature="0"
               id="path320"
               style="fill:#ffffff;fill-opacity:1;fill-rule:nonzero;stroke:none"
               d="m 0,0 c -0.136,-0.068 -0.375,-0.068 -0.41,-0.238 -0.033,-0.069 0.103,-0.034 0.171,-0.034 0.239,0.102 0.511,0 0.717,0.204 C 0.409,0 0.307,-0.034 0.239,0.069 0.17,0.103 0.069,0.035 0,0" /></g><g
             transform="translate(518.1583,779.1501)"
             id="g322"><path
               inkscape:connector-curvature="0"
               id="path324"
               style="fill:#254aa5;fill-opacity:1;fill-rule:nonzero;stroke:none"
               d="M 0,0 C 0.21,0.047 0.41,0.171 0.614,0.238 V 0.171 c 0.512,0.204 0.887,0.648 1.399,0.818 0.033,0 0.102,-0.068 0.17,-0.034 0.307,0.272 0.648,0.58 1.093,0.511 0,-0.034 0,-0.067 0.035,-0.067 0.034,0 0.068,0 0.068,0.033 C 3.242,1.33 3.106,1.227 2.968,1.125 2.934,1.092 2.968,1.057 3.002,1.057 3.174,1.125 3.276,1.262 3.448,1.33 3.413,1.296 3.413,1.227 3.379,1.194 2.729,0.717 2.251,0.171 1.739,-0.41 H 0.682 c 0,0.035 0,0.069 -0.034,0.069 -1.194,-0.102 -2.354,-0.069 -3.546,-0.069 0.681,0.103 1.363,0.308 2.045,0.376 0.273,0 0.546,-0.034 0.853,0.034" /></g><g
             transform="translate(531.6011,780.8901)"
             id="g326"><path
               inkscape:connector-curvature="0"
               id="path328"
               style="fill:#ed1c24;fill-opacity:1;fill-rule:nonzero;stroke:none"
               d="M 0,0 C 0.083,0.246 0.172,0.511 0.035,0.75 -0.169,1.057 0.24,1.159 0.376,1.364 0.48,1.534 0.308,1.637 0.273,1.807 0.24,1.875 0.103,1.842 0.035,1.944 0.273,2.046 0.65,2.251 0.48,2.558 0.376,2.728 0.206,3.001 0.411,3.172 0.65,3.308 1.025,3.274 1.126,3.513 1.298,3.922 0.922,4.263 0.717,4.604 0.614,4.808 0.48,4.945 0.343,5.15 0.206,5.389 0.035,5.593 -0.033,5.866 -0.134,6.139 0,6.378 0,6.651 0.035,7.163 -0.101,7.674 -0.238,8.185 -0.34,8.424 -0.374,8.697 -0.477,8.936 -0.51,9.073 -0.544,9.209 -0.648,9.345 c -0.034,0.068 -0.034,0.171 0,0.239 0.138,0.103 0.274,0.205 0.41,0.341 0.104,0.17 0.035,0.41 -0.136,0.512 -0.238,0.102 -0.204,-0.239 -0.375,-0.308 h -0.103 c -0.035,0.103 0.035,0.137 0.103,0.206 0,0.033 0,0.102 -0.034,0.102 -0.136,0 -0.273,0.034 -0.307,0.102 -0.342,0.478 -0.819,0.716 -1.33,0.921 0.136,-0.034 0.272,-0.068 0.409,-0.068 0.238,-0.034 0.512,-0.034 0.715,0.068 0.172,0.069 0.206,0.34 0.274,0.511 0.068,0.136 -0.034,0.341 -0.102,0.444 -0.172,0.273 -0.443,0.443 -0.716,0.58 H 14.326 C 14.36,7.947 14.292,2.899 14.258,-2.149 c -6.378,-0.102 -12.756,0 -19.134,0 0.205,0.681 0.58,1.33 1.194,1.773 0.135,0.068 0.306,0.102 0.477,0.137 0.579,0 1.16,-0.171 1.74,-0.239 0.067,0 0.135,-0.035 0.205,-0.068 0.204,-0.035 0.443,-0.035 0.648,0.033 C -0.374,-0.444 -0.101,-0.308 0,0" /></g><g
             transform="translate(530.3054,787.6089)"
             id="g330"><path
               inkscape:connector-curvature="0"
               id="path332"
               style="fill:#918f90;fill-opacity:1;fill-rule:nonzero;stroke:none"
               d="m 0,0 c -0.2,0.051 -0.375,0 -0.579,0 -0.273,-0.068 -0.512,-0.102 -0.751,-0.204 0.206,0.136 0.41,0.272 0.649,0.341 0.171,0.034 0.34,0.136 0.512,0.136 C 0.035,0.307 0.239,0.376 0.409,0.307 0.58,0.239 0.854,0.239 0.888,0.137 0.956,-0.068 0.786,-0.272 0.58,-0.41 0.546,-0.477 0.683,-0.511 0.683,-0.579 0.648,-0.648 0.546,-0.682 0.478,-0.682 0.409,-0.716 0.342,-0.818 0.274,-0.887 c 0.068,0 0,-0.102 0.068,-0.102 -0.136,-0.171 0.067,-0.511 -0.136,-0.58 -0.24,-0.068 -0.513,-0.068 -0.785,0 0.137,0.035 0.307,-0.034 0.41,0.102 v 0.137 c 0,0.034 -0.035,0.034 -0.07,0.034 -0.033,-0.034 -0.068,-0.034 -0.068,-0.034 0,0.068 -0.068,0.136 -0.102,0.136 -0.204,-0.033 -0.374,0.069 -0.511,0.205 0.103,0.034 0.204,0.068 0.307,0.034 0.103,0 0.069,0.17 0.171,0.239 h 0.101 c 0.205,0.273 0.615,0.341 0.683,0.614 C 0.342,-0.034 0.137,-0.034 0,0" /></g></g></g><g
         transform="matrix(2.5400259,0,0,2.5400259,-806.12193,-1186.5179)"
         id="g16"><g
           clip-path="url(#clipPath22)"
           id="g18"><g
             transform="translate(503.0298,750.5011)"
             id="g24"><path
               inkscape:connector-curvature="0"
               id="path26"
               style="fill:#231f20;fill-opacity:1;fill-rule:nonzero;stroke:none"
               d="M 0,0 -0.972,2.117 V 0.436 c 0,-0.155 0.017,-0.251 0.05,-0.29 0.046,-0.052 0.118,-0.077 0.217,-0.077 h 0.089 V 0 h -0.875 v 0.069 h 0.089 c 0.106,0 0.182,0.032 0.226,0.096 0.027,0.04 0.041,0.13 0.041,0.271 v 1.643 c 0,0.112 -0.013,0.192 -0.037,0.241 -0.018,0.036 -0.049,0.066 -0.096,0.09 -0.046,0.025 -0.121,0.036 -0.223,0.036 v 0.069 h 0.712 L 0.134,0.547 1.031,2.515 H 1.744 V 2.446 H 1.656 C 1.549,2.446 1.473,2.414 1.428,2.35 1.401,2.31 1.388,2.221 1.388,2.079 V 0.436 C 1.388,0.281 1.404,0.185 1.439,0.146 1.485,0.094 1.557,0.069 1.656,0.069 H 1.744 V 0 H 0.675 v 0.069 h 0.089 c 0.108,0 0.183,0.032 0.226,0.096 0.028,0.04 0.041,0.13 0.041,0.271 V 2.117 L 0.061,0 Z" /></g><g
             transform="translate(506.0633,750.5699)"
             id="g28"><path
               inkscape:connector-curvature="0"
               id="path30"
               style="fill:#231f20;fill-opacity:1;fill-rule:nonzero;stroke:none"
               d="M 0,0 V -0.069 H -1.078 V 0 h 0.089 c 0.104,0 0.18,0.03 0.227,0.091 0.029,0.039 0.044,0.134 0.044,0.285 v 1.625 c 0,0.128 -0.008,0.212 -0.024,0.252 -0.012,0.031 -0.038,0.058 -0.076,0.08 -0.054,0.03 -0.111,0.045 -0.171,0.045 H -1.078 V 2.446 H 0 V 2.378 h -0.091 c -0.103,0 -0.177,-0.03 -0.224,-0.091 C -0.346,2.247 -0.362,2.152 -0.362,2.001 V 0.376 c 0,-0.127 0.008,-0.211 0.024,-0.252 C -0.325,0.093 -0.299,0.067 -0.26,0.045 -0.206,0.015 -0.15,0 -0.091,0 Z" /></g><g
             transform="translate(506.1439,753.0163)"
             id="g32"><path
               inkscape:connector-curvature="0"
               id="path34"
               style="fill:#231f20;fill-opacity:1;fill-rule:nonzero;stroke:none"
               d="M 0,0 H 0.683 L 2.22,-1.887 v 1.451 c 0,0.155 -0.017,0.251 -0.052,0.29 -0.045,0.052 -0.118,0.077 -0.217,0.077 H 1.864 V 0 H 2.74 V -0.069 H 2.65 c -0.106,0 -0.181,-0.032 -0.226,-0.096 -0.027,-0.04 -0.041,-0.13 -0.041,-0.271 v -2.12 H 2.316 L 0.659,-0.53 v -1.549 c 0,-0.155 0.016,-0.251 0.05,-0.29 0.047,-0.052 0.119,-0.077 0.216,-0.077 h 0.09 V -2.515 H 0.139 v 0.069 h 0.087 c 0.108,0 0.184,0.032 0.228,0.096 0.028,0.04 0.041,0.129 0.041,0.271 V -0.33 C 0.422,-0.245 0.367,-0.189 0.329,-0.161 0.291,-0.134 0.236,-0.109 0.163,-0.085 0.127,-0.074 0.073,-0.069 0,-0.069 Z" /></g><g
             transform="translate(510.1476,750.5699)"
             id="g36"><path
               inkscape:connector-curvature="0"
               id="path38"
               style="fill:#231f20;fill-opacity:1;fill-rule:nonzero;stroke:none"
               d="M 0,0 V -0.069 H -1.078 V 0 h 0.089 c 0.104,0 0.179,0.03 0.227,0.091 0.03,0.039 0.044,0.134 0.044,0.285 v 1.625 c 0,0.128 -0.008,0.212 -0.024,0.252 -0.012,0.031 -0.038,0.058 -0.076,0.08 -0.054,0.03 -0.111,0.045 -0.171,0.045 H -1.078 V 2.446 H 0 V 2.378 h -0.091 c -0.102,0 -0.177,-0.03 -0.224,-0.091 C -0.346,2.247 -0.362,2.152 -0.362,2.001 V 0.376 c 0,-0.127 0.008,-0.211 0.025,-0.252 C -0.325,0.093 -0.299,0.067 -0.26,0.045 -0.207,0.015 -0.15,0 -0.091,0 Z" /></g><g
             transform="translate(512.02,753.0736)"
             id="g40"><path
               inkscape:connector-curvature="0"
               id="path42"
               style="fill:#231f20;fill-opacity:1;fill-rule:nonzero;stroke:none"
               d="m 0,0 v -0.87 h -0.069 c -0.022,0.167 -0.062,0.3 -0.119,0.399 -0.058,0.099 -0.14,0.177 -0.246,0.235 -0.106,0.059 -0.216,0.088 -0.33,0.088 -0.129,0 -0.235,-0.039 -0.319,-0.118 -0.084,-0.079 -0.126,-0.168 -0.126,-0.268 0,-0.077 0.026,-0.147 0.079,-0.21 0.077,-0.092 0.259,-0.216 0.548,-0.371 0.235,-0.126 0.395,-0.223 0.481,-0.29 0.086,-0.068 0.152,-0.147 0.198,-0.238 0.047,-0.092 0.07,-0.188 0.07,-0.288 0,-0.19 -0.074,-0.354 -0.222,-0.492 -0.147,-0.138 -0.338,-0.207 -0.57,-0.207 -0.073,0 -0.142,0.005 -0.206,0.017 -0.038,0.006 -0.118,0.029 -0.239,0.068 -0.12,0.038 -0.196,0.058 -0.228,0.058 -0.031,0 -0.056,-0.009 -0.074,-0.028 C -1.39,-2.533 -1.403,-2.572 -1.411,-2.63 H -1.48 v 0.863 h 0.069 c 0.032,-0.181 0.075,-0.316 0.129,-0.406 0.055,-0.09 0.138,-0.164 0.25,-0.223 0.112,-0.06 0.234,-0.089 0.368,-0.089 0.155,0 0.277,0.041 0.366,0.122 0.09,0.082 0.135,0.178 0.135,0.29 0,0.061 -0.017,0.124 -0.051,0.187 -0.034,0.063 -0.087,0.122 -0.159,0.176 -0.048,0.037 -0.18,0.116 -0.395,0.236 -0.215,0.121 -0.368,0.217 -0.459,0.289 -0.091,0.072 -0.16,0.151 -0.207,0.237 -0.047,0.087 -0.07,0.182 -0.07,0.286 0,0.181 0.069,0.336 0.208,0.467 0.138,0.13 0.314,0.195 0.528,0.195 0.134,0 0.275,-0.033 0.425,-0.098 0.069,-0.031 0.118,-0.046 0.146,-0.046 0.033,0 0.059,0.009 0.079,0.028 0.021,0.02 0.037,0.058 0.049,0.116 z" /></g><g
             transform="translate(514.6269,753.0163)"
             id="g44"><path
               inkscape:connector-curvature="0"
               id="path46"
               style="fill:#231f20;fill-opacity:1;fill-rule:nonzero;stroke:none"
               d="m 0,0 0.028,-0.59 h -0.071 c -0.013,0.104 -0.032,0.178 -0.055,0.223 -0.039,0.072 -0.09,0.124 -0.153,0.158 -0.064,0.034 -0.148,0.051 -0.252,0.051 h -0.354 v -1.921 c 0,-0.155 0.017,-0.251 0.05,-0.29 0.047,-0.052 0.119,-0.077 0.217,-0.077 h 0.087 v -0.069 h -1.066 v 0.069 h 0.089 c 0.106,0 0.182,0.032 0.226,0.096 0.027,0.04 0.041,0.129 0.041,0.271 v 1.921 h -0.302 c -0.118,0 -0.201,-0.009 -0.251,-0.025 -0.064,-0.024 -0.119,-0.069 -0.165,-0.136 -0.046,-0.067 -0.073,-0.157 -0.082,-0.271 h -0.07 L -2.053,0 Z" /></g><g
             transform="translate(515.5405,753.8344)"
             id="g48"><path
               inkscape:connector-curvature="0"
               id="path50"
               style="fill:#231f20;fill-opacity:1;fill-rule:nonzero;stroke:none"
               d="M 0,0 H 0.414 L 0.61,-0.64 H 0.545 Z m 0.041,-0.956 v -0.993 h 0.553 c 0.143,0 0.239,0.021 0.287,0.064 0.064,0.057 0.1,0.157 0.108,0.301 H 1.057 V -2.46 H 0.989 c -0.018,0.123 -0.035,0.201 -0.052,0.236 -0.023,0.043 -0.059,0.077 -0.11,0.102 -0.05,0.025 -0.128,0.037 -0.233,0.037 H 0.041 v -0.829 c 0,-0.112 0.005,-0.179 0.015,-0.203 0.009,-0.025 0.027,-0.044 0.052,-0.058 0.024,-0.014 0.071,-0.021 0.141,-0.021 h 0.426 c 0.142,0 0.246,0.01 0.31,0.03 0.064,0.02 0.126,0.058 0.185,0.117 0.077,0.076 0.155,0.192 0.236,0.346 H 1.48 l -0.217,-0.63 h -1.938 v 0.069 h 0.089 c 0.059,0 0.115,0.014 0.169,0.042 0.039,0.02 0.066,0.05 0.08,0.089 0.014,0.039 0.022,0.121 0.022,0.243 v 1.634 c 0,0.16 -0.017,0.258 -0.049,0.295 -0.044,0.049 -0.118,0.074 -0.222,0.074 h -0.089 v 0.069 H 1.263 L 1.291,-1.369 H 1.219 c -0.026,0.132 -0.055,0.223 -0.087,0.273 -0.031,0.049 -0.078,0.087 -0.14,0.112 -0.049,0.019 -0.136,0.028 -0.261,0.028 z" /></g><g
             transform="translate(517.9266,751.7941)"
             id="g52"><path
               inkscape:connector-curvature="0"
               id="path54"
               style="fill:#231f20;fill-opacity:1;fill-rule:nonzero;stroke:none"
               d="m 0,0 c 0.023,0 0.044,0 0.061,-0.001 0.017,-0.001 0.032,-0.001 0.043,-0.001 0.24,0 0.421,0.052 0.542,0.156 C 0.768,0.258 0.829,0.39 0.829,0.551 0.829,0.708 0.78,0.835 0.682,0.934 0.583,1.032 0.453,1.081 0.291,1.081 0.219,1.081 0.122,1.07 0,1.046 Z M 1.786,-1.293 H 1.115 L 0.263,-0.117 C 0.2,-0.119 0.149,-0.121 0.109,-0.121 0.093,-0.121 0.076,-0.12 0.058,-0.12 0.039,-0.119 0.02,-0.118 0,-0.117 v -0.731 c 0,-0.158 0.017,-0.256 0.052,-0.295 0.047,-0.054 0.117,-0.081 0.211,-0.081 h 0.099 v -0.069 h -1.078 v 0.069 h 0.095 c 0.106,0 0.182,0.034 0.228,0.104 0.026,0.038 0.039,0.129 0.039,0.272 v 1.625 c 0,0.158 -0.018,0.257 -0.052,0.295 -0.048,0.055 -0.12,0.081 -0.215,0.081 H -0.716 V 1.222 H 0.2 C 0.467,1.222 0.664,1.203 0.791,1.164 0.918,1.125 1.025,1.053 1.114,0.949 1.202,0.844 1.246,0.72 1.246,0.575 1.246,0.42 1.196,0.286 1.095,0.172 0.995,0.059 0.838,-0.022 0.627,-0.069 L 1.146,-0.79 c 0.119,-0.166 0.221,-0.276 0.306,-0.33 0.086,-0.055 0.197,-0.089 0.334,-0.104 z" /></g><g
             transform="translate(520.5112,752.879)"
             id="g56"><path
               inkscape:connector-curvature="0"
               id="path58"
               style="fill:#231f20;fill-opacity:1;fill-rule:nonzero;stroke:none"
               d="m 0,0 v -0.994 h 0.553 c 0.143,0 0.239,0.022 0.287,0.065 0.064,0.057 0.1,0.157 0.108,0.3 H 1.016 V -1.504 H 0.948 C 0.93,-1.382 0.913,-1.303 0.896,-1.269 0.874,-1.226 0.837,-1.191 0.786,-1.167 0.736,-1.142 0.658,-1.13 0.553,-1.13 H 0 v -0.829 c 0,-0.111 0.005,-0.179 0.015,-0.203 0.01,-0.024 0.027,-0.043 0.052,-0.057 0.025,-0.015 0.071,-0.022 0.141,-0.022 h 0.426 c 0.143,0 0.246,0.01 0.31,0.03 0.064,0.02 0.126,0.059 0.186,0.117 0.076,0.077 0.155,0.192 0.235,0.347 H 1.439 L 1.223,-2.378 h -1.939 v 0.069 h 0.089 c 0.059,0 0.116,0.014 0.169,0.042 0.039,0.02 0.066,0.05 0.081,0.089 0.014,0.04 0.021,0.121 0.021,0.243 V -0.3 c 0,0.159 -0.016,0.257 -0.048,0.294 -0.045,0.05 -0.119,0.074 -0.223,0.074 H -0.716 V 0.137 H 1.223 L 1.25,-0.414 H 1.178 C 1.152,-0.281 1.123,-0.191 1.092,-0.141 1.06,-0.092 1.014,-0.054 0.951,-0.028 0.902,-0.009 0.815,0 0.69,0 Z" /></g><g
             transform="translate(523.8463,750.6829)"
             id="g60"><path
               inkscape:connector-curvature="0"
               id="path62"
               style="fill:#231f20;fill-opacity:1;fill-rule:nonzero;stroke:none"
               d="m 0,0 c 0.157,-0.035 0.289,-0.052 0.395,-0.052 0.287,0 0.525,0.101 0.714,0.303 0.189,0.201 0.284,0.475 0.284,0.819 0,0.348 -0.095,0.621 -0.284,0.822 C 0.92,2.092 0.677,2.193 0.38,2.193 0.269,2.193 0.142,2.175 0,2.138 Z m -0.718,-0.182 v 0.069 h 0.095 c 0.106,0 0.182,0.034 0.226,0.102 0.027,0.041 0.041,0.132 0.041,0.274 v 1.625 c 0,0.157 -0.018,0.255 -0.052,0.295 -0.048,0.054 -0.12,0.082 -0.215,0.082 H -0.718 V 2.333 H 0.306 C 0.682,2.333 0.968,2.291 1.164,2.205 1.36,2.12 1.518,1.978 1.637,1.779 1.756,1.58 1.816,1.35 1.816,1.089 1.816,0.739 1.709,0.447 1.497,0.211 1.258,-0.051 0.895,-0.182 0.406,-0.182 Z" /></g><g
             transform="translate(527.6567,752.9475)"
             id="g64"><path
               inkscape:connector-curvature="0"
               id="path66"
               style="fill:#231f20;fill-opacity:1;fill-rule:nonzero;stroke:none"
               d="M 0,0 V 0.069 H 0.89 V 0 H 0.796 C 0.697,0 0.621,-0.041 0.568,-0.124 0.542,-0.163 0.529,-0.252 0.529,-0.391 v -1.02 c 0,-0.253 -0.025,-0.448 -0.076,-0.587 -0.049,-0.139 -0.148,-0.259 -0.294,-0.358 -0.147,-0.1 -0.346,-0.15 -0.599,-0.15 -0.274,0 -0.482,0.048 -0.625,0.143 -0.142,0.095 -0.242,0.223 -0.302,0.384 -0.039,0.11 -0.059,0.317 -0.059,0.619 v 0.984 c 0,0.154 -0.021,0.255 -0.064,0.304 C -1.533,-0.024 -1.602,0 -1.697,0 h -0.095 v 0.069 h 1.087 V 0 H -0.801 C -0.905,0 -0.979,-0.033 -1.024,-0.098 -1.055,-0.143 -1.07,-0.236 -1.07,-0.376 v -1.097 c 0,-0.097 0.009,-0.209 0.027,-0.335 0.018,-0.127 0.05,-0.225 0.097,-0.295 0.047,-0.071 0.115,-0.129 0.204,-0.175 0.088,-0.045 0.196,-0.068 0.325,-0.068 0.165,0 0.311,0.036 0.441,0.107 0.13,0.072 0.219,0.164 0.266,0.276 0.048,0.112 0.072,0.301 0.072,0.568 v 1.019 c 0,0.157 -0.017,0.255 -0.052,0.294 C 0.262,-0.027 0.19,0 0.095,0 Z" /></g><g
             transform="translate(531.7431,753.0163)"
             id="g68"><path
               inkscape:connector-curvature="0"
               id="path70"
               style="fill:#231f20;fill-opacity:1;fill-rule:nonzero;stroke:none"
               d="m 0,0 0.028,-0.59 h -0.071 c -0.013,0.104 -0.032,0.178 -0.055,0.223 -0.038,0.072 -0.09,0.124 -0.153,0.158 -0.064,0.034 -0.148,0.051 -0.252,0.051 h -0.354 v -1.921 c 0,-0.155 0.016,-0.251 0.05,-0.29 0.047,-0.052 0.119,-0.077 0.217,-0.077 h 0.087 v -0.069 h -1.066 v 0.069 h 0.089 c 0.106,0 0.182,0.032 0.226,0.096 0.027,0.04 0.041,0.129 0.041,0.271 v 1.921 h -0.303 c -0.117,0 -0.201,-0.009 -0.25,-0.025 -0.064,-0.024 -0.119,-0.069 -0.165,-0.136 -0.046,-0.067 -0.073,-0.157 -0.082,-0.271 h -0.07 L -2.053,0 Z" /></g><g
             transform="translate(532.6843,751.7941)"
             id="g72"><path
               inkscape:connector-curvature="0"
               id="path74"
               style="fill:#231f20;fill-opacity:1;fill-rule:nonzero;stroke:none"
               d="m 0,0 c 0.023,0 0.044,0 0.061,-0.001 0.018,-0.001 0.032,-0.001 0.043,-0.001 0.24,0 0.421,0.052 0.542,0.156 C 0.768,0.258 0.829,0.39 0.829,0.551 0.829,0.708 0.78,0.835 0.682,0.934 0.584,1.032 0.453,1.081 0.291,1.081 0.22,1.081 0.122,1.07 0,1.046 Z M 1.786,-1.293 H 1.115 L 0.263,-0.117 C 0.2,-0.119 0.149,-0.121 0.109,-0.121 0.094,-0.121 0.076,-0.12 0.057,-0.12 0.039,-0.119 0.02,-0.118 0,-0.117 v -0.731 c 0,-0.158 0.017,-0.256 0.052,-0.295 0.047,-0.054 0.117,-0.081 0.211,-0.081 h 0.099 v -0.069 h -1.078 v 0.069 h 0.094 c 0.107,0 0.183,0.034 0.229,0.104 0.026,0.038 0.039,0.129 0.039,0.272 v 1.625 c 0,0.158 -0.018,0.257 -0.052,0.295 -0.048,0.055 -0.12,0.081 -0.216,0.081 H -0.716 V 1.222 H 0.2 C 0.467,1.222 0.664,1.203 0.791,1.164 0.918,1.125 1.025,1.053 1.114,0.949 1.202,0.844 1.246,0.72 1.246,0.575 1.246,0.42 1.196,0.286 1.095,0.172 0.995,0.059 0.839,-0.022 0.627,-0.069 L 1.146,-0.79 c 0.119,-0.166 0.221,-0.276 0.306,-0.33 0.085,-0.055 0.197,-0.089 0.334,-0.104 z" /></g><g
             transform="translate(536.1613,751.4805)"
             id="g76"><path
               inkscape:connector-curvature="0"
               id="path78"
               style="fill:#231f20;fill-opacity:1;fill-rule:nonzero;stroke:none"
               d="M 0,0 -0.427,1.016 -0.864,0 Z m 0.052,-0.137 h -0.974 l -0.171,-0.397 c -0.042,-0.098 -0.063,-0.171 -0.063,-0.219 0,-0.039 0.018,-0.072 0.055,-0.101 0.036,-0.029 0.115,-0.048 0.237,-0.057 v -0.068 h -0.793 v 0.068 c 0.106,0.019 0.173,0.043 0.205,0.072 0.063,0.06 0.132,0.181 0.209,0.362 l 0.885,2.07 h 0.065 l 0.875,-2.092 c 0.071,-0.168 0.135,-0.277 0.192,-0.327 0.058,-0.05 0.138,-0.078 0.241,-0.085 V -0.979 H 0.022 v 0.068 c 0.1,0.005 0.168,0.022 0.203,0.05 0.035,0.029 0.053,0.063 0.053,0.104 0,0.055 -0.025,0.141 -0.074,0.258 z" /></g><g
             transform="translate(539.4636,753.0163)"
             id="g80"><path
               inkscape:connector-curvature="0"
               id="path82"
               style="fill:#231f20;fill-opacity:1;fill-rule:nonzero;stroke:none"
               d="m 0,0 v -0.069 c -0.089,-0.016 -0.156,-0.044 -0.202,-0.085 -0.066,-0.06 -0.124,-0.153 -0.174,-0.278 l -0.878,-2.14 h -0.068 l -0.943,2.168 c -0.048,0.111 -0.082,0.179 -0.102,0.204 -0.031,0.038 -0.069,0.068 -0.114,0.09 -0.045,0.021 -0.106,0.035 -0.183,0.041 V 0 h 1.028 v -0.069 c -0.116,-0.01 -0.192,-0.03 -0.226,-0.059 -0.035,-0.028 -0.052,-0.065 -0.052,-0.109 0,-0.062 0.028,-0.159 0.085,-0.29 l 0.64,-1.474 0.594,1.456 c 0.058,0.143 0.087,0.243 0.087,0.298 0,0.036 -0.018,0.07 -0.054,0.103 -0.036,0.033 -0.096,0.056 -0.182,0.07 -0.006,0.001 -0.016,0.003 -0.031,0.005 V 0 Z" /></g><g
             transform="translate(540.7444,751.4805)"
             id="g84"><path
               inkscape:connector-curvature="0"
               id="path86"
               style="fill:#231f20;fill-opacity:1;fill-rule:nonzero;stroke:none"
               d="M 0,0 -0.427,1.016 -0.864,0 Z m 0.052,-0.137 h -0.974 l -0.171,-0.397 c -0.041,-0.098 -0.063,-0.171 -0.063,-0.219 0,-0.039 0.018,-0.072 0.055,-0.101 0.037,-0.029 0.115,-0.048 0.237,-0.057 v -0.068 h -0.793 v 0.068 c 0.106,0.019 0.174,0.043 0.204,0.072 0.064,0.06 0.133,0.181 0.21,0.362 l 0.885,2.07 h 0.065 l 0.876,-2.092 c 0.07,-0.168 0.134,-0.277 0.191,-0.327 0.058,-0.05 0.138,-0.078 0.241,-0.085 V -0.979 H 0.022 v 0.068 c 0.101,0.005 0.168,0.022 0.203,0.05 0.036,0.029 0.053,0.063 0.053,0.104 0,0.055 -0.025,0.141 -0.074,0.258 z" /></g><g
             transform="translate(543.0117,750.5699)"
             id="g88"><path
               inkscape:connector-curvature="0"
               id="path90"
               style="fill:#231f20;fill-opacity:1;fill-rule:nonzero;stroke:none"
               d="M 0,0 V -0.069 H -1.077 V 0 h 0.089 c 0.103,0 0.179,0.03 0.226,0.091 0.03,0.039 0.044,0.134 0.044,0.285 v 1.625 c 0,0.128 -0.008,0.212 -0.024,0.252 -0.012,0.031 -0.037,0.058 -0.076,0.08 -0.054,0.03 -0.111,0.045 -0.17,0.045 H -1.077 V 2.446 H 0 V 2.378 h -0.091 c -0.102,0 -0.177,-0.03 -0.224,-0.091 C -0.346,2.247 -0.362,2.152 -0.362,2.001 V 0.376 c 0,-0.127 0.009,-0.211 0.024,-0.252 C -0.325,0.093 -0.299,0.067 -0.26,0.045 -0.207,0.015 -0.15,0 -0.091,0 Z" /></g><g
             transform="translate(545.3201,751.1965)"
             id="g92"><path
               inkscape:connector-curvature="0"
               id="path94"
               style="fill:#231f20;fill-opacity:1;fill-rule:nonzero;stroke:none"
               d="m 0,0 0.061,-0.013 -0.215,-0.682 h -1.947 v 0.069 h 0.094 c 0.106,0 0.183,0.034 0.228,0.103 0.026,0.04 0.039,0.131 0.039,0.275 v 1.623 c 0,0.157 -0.017,0.255 -0.052,0.294 -0.048,0.055 -0.12,0.082 -0.215,0.082 H -2.101 V 1.82 h 1.139 V 1.751 C -1.096,1.752 -1.19,1.74 -1.244,1.714 -1.297,1.688 -1.334,1.655 -1.354,1.616 -1.374,1.576 -1.384,1.482 -1.384,1.332 v -1.58 c 0,-0.103 0.01,-0.174 0.03,-0.212 0.015,-0.026 0.038,-0.045 0.069,-0.057 0.03,-0.013 0.127,-0.019 0.289,-0.019 h 0.184 c 0.192,0 0.328,0.014 0.406,0.043 0.078,0.028 0.149,0.079 0.213,0.151 C -0.128,-0.27 -0.064,-0.156 0,0" /></g></g></g></g></g></svg>