<?xml version="1.0" encoding="UTF-8"?>
<svg width="367px" height="38px" viewBox="0 0 367 38" version="1.1" xmlns="http://www.w3.org/2000/svg" xmlns:xlink="http://www.w3.org/1999/xlink">
    <!-- Generator: Sketch 64 (93537) - https://sketch.com -->
    <title>pe-connect-popin-b</title>
    <desc>Created with Sketch.</desc>
    <g id="Page-1" stroke="none" stroke-width="1" fill="none" fill-rule="evenodd">
        <g id="pe-connect-popin-b" fill-rule="nonzero">
            <rect id="Rectangle" fill="#1B2E57" x="0" y="0" width="367" height="38" rx="4"></rect>
            <path d="M92,13.76 C91.9509575,13.8729634 91.8712879,13.9699525 91.77,14.04 C91.6764315,14.095735 91.5688541,14.1234969 91.46,14.12 C91.3164044,14.1106348 91.1780942,14.0622262 91.06,13.98 L90.53,13.67 C90.2999636,13.54491 90.0589578,13.4411436 89.81,13.36 C89.4869709,13.2571682 89.1488492,13.2098312 88.81,13.22 C88.5121886,13.213602 88.2152249,13.2540971 87.93,13.34 C87.6999651,13.4114697 87.4860028,13.5269414 87.3,13.68 C87.1332364,13.8201378 87.0028598,13.9985479 86.92,14.2 C86.8331383,14.4091449 86.7889398,14.6335371 86.79,14.86 C86.7825004,15.1363495 86.8748014,15.4061525 87.05,15.62 C87.2393313,15.8373623 87.4706247,16.0142337 87.73,16.14 C88.0515925,16.2983002 88.3861475,16.4287766 88.73,16.53 L89.83,16.89 C90.2046842,17.019601 90.571912,17.1698305 90.93,17.34 C91.2952308,17.5031178 91.6326545,17.7224432 91.93,17.99 C92.2221965,18.2737194 92.4535629,18.6139642 92.61,18.99 C92.7943706,19.4261095 92.8830323,19.8966986 92.87,20.37 C92.8747532,20.9339807 92.7729702,21.4937873 92.57,22.02 C92.3750211,22.5240226 92.0750484,22.9807992 91.69,23.36 C91.2832021,23.7539608 90.7999054,24.0602756 90.27,24.26 C89.6563166,24.4892798 89.0050196,24.6012215 88.35,24.59 C87.9403645,24.5904665 87.5316943,24.5502694 87.13,24.47 C86.7331786,24.3901058 86.344788,24.272919 85.97,24.12 C85.6203318,23.9720456 85.2854968,23.7912347 84.97,23.58 C84.6582663,23.3792744 84.3698263,23.1444976 84.11,22.88 L84.81,21.72 C84.8765428,21.6359676 84.9578781,21.5647992 85.05,21.51 C85.142735,21.4512699 85.2502321,21.420061 85.36,21.42 C85.5380379,21.4277823 85.7092614,21.4906807 85.85,21.6 L86.47,22.01 C86.7357128,22.1741809 87.0170981,22.3115237 87.31,22.42 C87.6824813,22.5501303 88.0755988,22.6111313 88.47,22.6 C89.0451715,22.6366442 89.6139869,22.4624445 90.07,22.11 C90.4637432,21.7505855 90.6733553,21.2320714 90.64,20.7 C90.6527014,20.3984072 90.5608578,20.1016817 90.38,19.86 C90.193848,19.6341647 89.9621329,19.4501556 89.7,19.32 C89.3803096,19.1625313 89.0451945,19.0385387 88.7,18.95 L87.6,18.62 C87.2247785,18.4995955 86.8574036,18.3559853 86.5,18.19 C86.1316799,18.0282472 85.7935313,17.8050692 85.5,17.53 C85.2078035,17.2462806 84.9764371,16.9060358 84.82,16.53 C84.6346161,16.0522177 84.5462308,15.5423022 84.56,15.03 C84.5631181,14.0547042 84.9640115,13.122898 85.67,12.45 C86.0576042,12.0852814 86.5128214,11.7999213 87.01,11.61 C87.587552,11.389411 88.2018242,11.2808104 88.82,11.29 C89.54246,11.2828749 90.2603898,11.4047875 90.94,11.65 C91.555688,11.8667487 92.1205806,12.2070455 92.6,12.65 L92,13.76 Z" id="Path" fill="#FFFFFF"></path>
            <path d="M98.38,15 C98.9292761,14.9940636 99.4749792,15.0889685 99.99,15.28 C100.463249,15.4564748 100.892977,15.7327288 101.25,16.09 C101.615155,16.46388 101.897899,16.910139 102.08,17.4 C102.287162,17.9702191 102.388818,18.5733798 102.38,19.18 C102.388945,19.3198571 102.388945,19.4601429 102.38,19.6 C102.371118,19.6911704 102.343907,19.7796063 102.3,19.86 C102.261918,19.9193079 102.205848,19.9648651 102.14,19.99 C102.057428,20.005927 101.972572,20.005927 101.89,19.99 L96.18,19.99 C96.1763167,20.7567122 96.4497692,21.4989404 96.95,22.08 C97.4195992,22.5358114 98.0561687,22.7781418 98.71,22.75 C99.0248521,22.7549344 99.3385695,22.7110815 99.64,22.62 C99.8742632,22.5463021 100.101765,22.4526247 100.32,22.34 L100.83,22.06 C100.959284,21.9793357 101.107681,21.9344718 101.26,21.93 C101.339628,21.92732 101.418671,21.9445032 101.49,21.98 C101.557203,22.0166119 101.615305,22.0678784 101.66,22.13 L102.31,22.94 C102.070498,23.2197615 101.790781,23.4624077 101.48,23.66 C101.166623,23.8560224 100.830899,24.0138124 100.48,24.13 C100.1556,24.2456877 99.8206768,24.3294184 99.48,24.38 C99.1486644,24.4262197 98.8145435,24.4496082 98.48,24.45 C97.8686728,24.4550126 97.2617258,24.3465081 96.69,24.13 C96.1466143,23.9218433 95.6551866,23.5976375 95.25,23.18 C94.8113669,22.7394118 94.4706144,22.2112454 94.25,21.63 C94.0043305,20.9438439 93.8857273,20.21867 93.9,19.49 C93.8965711,18.8829455 94.0015516,18.2801546 94.21,17.71 C94.4036659,17.1728011 94.7028736,16.6797884 95.09,16.26 C95.4814918,15.8323079 95.9584561,15.4916191 96.49,15.26 C97.094908,15.0422073 97.738753,14.953636 98.38,15 L98.38,15 Z M98.38,16.59 C97.8195607,16.558588 97.2705726,16.757235 96.86,17.14 C96.4644371,17.5708366 96.2188764,18.1180861 96.16,18.7 L100.340004,18.7 C100.340349,18.4255461 100.299907,18.1525642 100.22,17.89 C100.146902,17.6444716 100.024396,17.416473 99.86,17.22 C99.6928925,17.0262537 99.4844381,16.8724759 99.25,16.77 C98.9895123,16.6654441 98.7106327,16.6144295 98.43,16.62 L98.38,16.59 Z" id="Shape" fill="#FFFFFF"></path>
            <path d="M114.15,17.13 C114.095072,17.2041761 114.031264,17.2713432 113.96,17.33 C113.879686,17.3813411 113.785142,17.4058523 113.69,17.4 C113.572672,17.3990976 113.458093,17.3643769 113.36,17.3 L112.97,17.07 C112.798333,16.9750806 112.617387,16.898011 112.43,16.84 C112.180246,16.7661147 111.920342,16.732361 111.66,16.74 C111.315299,16.7358066 110.973896,16.8075012 110.66,16.95 C110.371146,17.0916598 110.120729,17.3009122 109.93,17.56 C109.718401,17.8608176 109.568825,18.2007618 109.49,18.56 C109.391001,18.9759162 109.343975,19.4025064 109.35,19.83 C109.345218,20.2718181 109.399019,20.7123209 109.51,21.14 C109.596158,21.500313 109.752469,21.8401184 109.97,22.14 C110.160255,22.3905583 110.406936,22.5926996 110.69,22.73 C111.002713,22.8751582 111.345512,22.943718 111.69,22.93 C111.982232,22.9400902 112.273807,22.8960148 112.55,22.8 C112.743889,22.7248358 112.928446,22.6275241 113.1,22.51 L113.49,22.22 C113.594902,22.1357453 113.725451,22.0898767 113.86,22.09 C114.024852,22.0794411 114.182237,22.1600529 114.27,22.3 L114.91,23.11 C114.676987,23.3849442 114.407885,23.6271361 114.11,23.83 C113.829422,24.0213401 113.527356,24.1790859 113.21,24.3 C112.887086,24.4205351 112.551647,24.5043948 112.21,24.55 C111.878839,24.5978687 111.5446,24.6212654 111.21,24.6201148 C110.657249,24.6229534 110.109609,24.5141055 109.6,24.3 C109.097843,24.0892508 108.647459,23.7719347 108.28,23.37 C107.888138,22.9329813 107.585767,22.4233681 107.39,21.87 C107.163046,21.2279773 107.051329,20.5509008 107.06,19.87 C107.052537,19.2283715 107.150508,18.5898734 107.35,17.98 C107.531116,17.4264692 107.823811,16.9159554 108.21,16.48 C108.597302,16.0476038 109.075365,15.7061304 109.61,15.48 C110.221984,15.2294097 110.878828,15.1068895 111.54,15.12 C112.159444,15.1064372 112.775199,15.218702 113.35,15.45 C113.877403,15.6888655 114.352997,16.0285753 114.75,16.45 L114.15,17.13 Z" id="Path" fill="#FFFFFF"></path>
            <path d="M120.19,15 C120.831946,14.9894929 121.470008,15.1014931 122.07,15.33 C122.612473,15.5352284 123.103826,15.855973 123.51,16.27 C123.918429,16.6961388 124.231975,17.2039472 124.43,17.76 C124.873431,19.056465 124.873431,20.463535 124.43,21.76 C124.230801,22.3184509 123.917483,22.8292965 123.51,23.26 C123.109853,23.6957165 122.618042,24.0372522 122.07,24.26 C120.856195,24.7051611 119.523805,24.7051611 118.31,24.26 C117.761958,24.0372522 117.270147,23.6957165 116.87,23.26 C116.45962,22.8296815 116.142951,22.3189247 115.94,21.76 C115.491195,20.4644341 115.491195,19.0555659 115.94,17.76 C116.141795,17.2034718 116.458691,16.6957574 116.87,16.27 C117.277767,15.8579203 117.768669,15.5374702 118.31,15.33 C118.91025,15.1024333 119.548131,14.990465 120.19,15 Z M120.19,22.8 C120.852468,22.8430426 121.49312,22.5545617 121.9,22.03 C122.312136,21.3477853 122.504173,20.5551972 122.45,19.76 C122.503651,18.9616795 122.311725,18.1660586 121.9,17.48 C121.495279,16.9516845 120.854274,16.6592962 120.19,16.7 C119.517013,16.6547618 118.866557,16.9517905 118.46,17.49 C118.045577,18.1715905 117.850125,18.9638692 117.9,19.76 C117.849596,20.5530162 118.045162,21.3422649 118.46,22.02 C118.862127,22.5657408 119.513326,22.870637 120.19,22.83 L120.19,22.8 Z" id="Shape" fill="#FFFFFF"></path>
            <path d="M126.48,24.41 L126.48,15.18 L127.84,15.18 C128.100961,15.1607648 128.339344,15.3280506 128.41,15.58 L128.56,16.31 C128.74285,16.1215933 128.940115,15.9477328 129.15,15.79 C129.356934,15.6362117 129.577913,15.5022852 129.81,15.39 C130.045635,15.2746562 130.294004,15.1873916 130.55,15.13 C130.832444,15.0682151 131.120884,15.0380296 131.41,15.04 C131.86988,15.032626 132.326249,15.1211753 132.75,15.3 C133.135461,15.4577583 133.478128,15.7044784 133.75,16.02 C134.018792,16.3469053 134.219402,16.7243248 134.34,17.13 C134.478754,17.5903506 134.546202,18.069233 134.54,18.55 L134.54,24.43 L132.3,24.43 L132.3,18.53 C132.327875,18.0610831 132.189807,17.5973167 131.91,17.22 C131.610206,16.8967795 131.17965,16.7275009 130.74,16.76 C130.364257,16.7579291 129.993633,16.8471533 129.66,17.02 C129.291134,17.2021558 128.953585,17.4418156 128.66,17.73 L128.66,24.41 L126.48,24.41 Z" id="Path" fill="#FFFFFF"></path>
            <path d="M136.71,24.41 L136.71,15.18 L138.07,15.18 C138.330961,15.1607648 138.569344,15.3280506 138.64,15.58 L138.79,16.31 C138.973098,16.1218534 139.170342,15.9480114 139.38,15.79 C139.586934,15.6362117 139.807913,15.5022852 140.04,15.39 C140.27549,15.2743109 140.5239,15.1870317 140.78,15.13 C141.062431,15.0681331 141.350879,15.0379466 141.64,15.04 C142.09988,15.032626 142.556249,15.1211753 142.98,15.3 C143.365094,15.4584198 143.707617,15.7050364 143.98,16.02 C144.249018,16.3467542 144.449654,16.7242216 144.57,17.13 C144.708754,17.5903506 144.776202,18.069233 144.77,18.55 L144.77,24.43 L142.55,24.43 L142.55,18.53 C142.577875,18.0610831 142.439807,17.5973167 142.16,17.22 C141.860206,16.8967795 141.42965,16.7275009 140.99,16.76 C140.614211,16.7575277 140.243492,16.8467747 139.91,17.02 C139.540959,17.2018618 139.203366,17.4415532 138.91,17.73 L138.91,24.41 L136.71,24.41 Z" id="Path" fill="#FFFFFF"></path>
            <path d="M150.76,15 C151.309276,14.9940636 151.854979,15.0889685 152.37,15.28 C152.84339,15.4561929 153.273175,15.7324834 153.63,16.09 C153.995389,16.4636948 154.278167,16.9100063 154.46,17.4 C154.667162,17.9702191 154.768818,18.5733798 154.76,19.18 C154.768945,19.3198571 154.768945,19.4601429 154.76,19.6 C154.751393,19.6912253 154.724165,19.7797156 154.68,19.86 C154.642468,19.9197969 154.586214,19.9655031 154.52,19.99 C154.437405,20.005685 154.352595,20.005685 154.27,19.99 L148.56,19.99 C148.554431,20.7552764 148.824168,21.4970513 149.32,22.08 C149.789599,22.5358114 150.426169,22.7781418 151.08,22.75 C151.394842,22.7547739 151.708535,22.7109244 152.01,22.62 C152.244197,22.5461185 152.471683,22.4524474 152.69,22.34 L153.2,22.06 C153.329284,21.9793357 153.477681,21.9344718 153.63,21.93 C153.709628,21.92732 153.788671,21.9445032 153.86,21.98 C153.927009,22.016888 153.985056,22.0681051 154.03,22.13 L154.68,22.94 C154.44071,23.2199716 154.160959,23.4626468 153.85,23.66 C153.536669,23.8561069 153.200935,24.0139019 152.85,24.13 C152.5256,24.2456877 152.190677,24.3294184 151.85,24.38 C151.518661,24.4261884 151.184542,24.4495767 150.85,24.45 C150.238653,24.455245 149.631664,24.3467329 149.06,24.13 C148.516614,23.9218433 148.025187,23.5976375 147.62,23.18 C147.182067,22.7388481 146.841417,22.2108397 146.62,21.63 C146.374331,20.9438439 146.255727,20.21867 146.27,19.49 C146.266571,18.8829455 146.371552,18.2801546 146.58,17.71 C146.773666,17.1728011 147.072874,16.6797884 147.46,16.26 C147.848385,15.8332211 148.321894,15.492567 148.85,15.26 C149.461159,15.0394123 150.112116,14.9508004 150.76,15 L150.76,15 Z M150.76,16.59 C150.199388,16.5574075 149.64995,16.7562175 149.24,17.14 C148.843828,17.5704351 148.598171,18.1178978 148.54,18.7 L152.720004,18.7 C152.720349,18.4255461 152.679907,18.1525642 152.6,17.89 C152.527165,17.6443631 152.404631,17.4163135 152.24,17.22 C152.072893,17.0262537 151.864438,16.8724759 151.63,16.77 C151.369512,16.6654441 151.090633,16.6144295 150.81,16.62 L150.76,16.59 Z" id="Shape" fill="#FFFFFF"></path>
            <path d="M163.05,17.13 C162.995072,17.2041761 162.931264,17.2713432 162.86,17.33 C162.779686,17.3813411 162.685142,17.4058523 162.59,17.4 C162.472672,17.3990976 162.358093,17.3643769 162.26,17.3 L161.87,17.07 C161.698333,16.9750806 161.517387,16.898011 161.33,16.84 C161.080246,16.7661147 160.820342,16.732361 160.56,16.74 C160.215299,16.7358066 159.873896,16.8075012 159.56,16.95 C159.271146,17.0916598 159.020729,17.3009122 158.83,17.56 C158.618401,17.8608176 158.468825,18.2007618 158.39,18.56 C158.291001,18.9759162 158.243975,19.4025064 158.25,19.83 C158.245218,20.2718181 158.299019,20.7123209 158.41,21.14 C158.496158,21.500313 158.652469,21.8401184 158.87,22.14 C159.060255,22.3905583 159.306936,22.5926996 159.59,22.73 C159.902713,22.8751582 160.245512,22.943718 160.59,22.93 C160.882232,22.9400902 161.173807,22.8960148 161.45,22.8 C161.643889,22.7248358 161.828446,22.6275241 162,22.51 L162.39,22.22 C162.494902,22.1357453 162.625451,22.0898767 162.76,22.09 C162.924852,22.0794411 163.082237,22.1600529 163.17,22.3 L163.81,23.11 C163.576987,23.3849442 163.307885,23.6271361 163.01,23.83 C162.729422,24.0213401 162.427356,24.1790859 162.11,24.3 C161.787086,24.4205351 161.451647,24.5043948 161.11,24.55 C160.778839,24.5978687 160.4446,24.6212654 160.11,24.6201148 C159.557249,24.6229534 159.009609,24.5141055 158.5,24.3 C157.997843,24.0892508 157.547459,23.7719347 157.18,23.37 C156.788138,22.9329813 156.485767,22.4233681 156.29,21.87 C156.063046,21.2279773 155.951329,20.5509008 155.96,19.87 C155.952537,19.2283715 156.050508,18.5898734 156.25,17.98 C156.431116,17.4264692 156.723811,16.9159554 157.11,16.48 C157.497302,16.0476038 157.975365,15.7061304 158.51,15.48 C159.121984,15.2294097 159.778828,15.1068895 160.44,15.12 C161.059444,15.1064372 161.675199,15.218702 162.25,15.45 C162.777403,15.6888655 163.252997,16.0285753 163.65,16.45 L163.05,17.13 Z" id="Path" fill="#FFFFFF"></path>
            <path d="M168.18,24.55 C167.498362,24.5919608 166.83053,24.3451533 166.34,23.87 C165.88366,23.3537054 165.650004,22.6779 165.69,21.99 L165.69,16.84 L164.75,16.84 C164.626948,16.8434009 164.50834,16.7939013 164.424211,16.7040366 C164.340082,16.6141719 164.298502,16.4925605 164.31,16.37 L164.31,15.49 L165.8,15.25 L166.27,12.73 C166.288518,12.6182657 166.349409,12.5179754 166.44,12.45 C166.535778,12.3808151 166.651929,12.3456181 166.77,12.35 L167.92,12.35 L167.92,15.26 L170.35,15.26 L170.35,16.84 L167.92,16.84 L167.92,21.84 C167.907064,22.0860283 167.985405,22.3281727 168.14,22.52 C168.287314,22.6832786 168.500386,22.7714462 168.72,22.76 C168.835759,22.7805754 168.954241,22.7805754 169.07,22.76 L169.31,22.66 L169.49,22.56 C169.542415,22.5459994 169.597585,22.5459994 169.65,22.56 C169.701893,22.5424725 169.758107,22.5424725 169.81,22.56 C169.859873,22.603935 169.9036,22.6543887 169.94,22.71 L170.61,23.79 C170.278895,24.062766 169.898756,24.2698061 169.49,24.4 C169.064184,24.5198331 168.621882,24.5704784 168.18,24.55 Z" id="Path" fill="#FFFFFF"></path>
            <path d="M175.93,15 C176.479276,14.9940636 177.024979,15.0889685 177.54,15.28 C178.013249,15.4564748 178.442977,15.7327288 178.8,16.09 C179.165155,16.46388 179.447899,16.910139 179.63,17.4 C179.837162,17.9702191 179.938818,18.5733798 179.93,19.18 C179.938945,19.3198571 179.938945,19.4601429 179.93,19.6 C179.921118,19.6911704 179.893907,19.7796063 179.85,19.86 C179.811918,19.9193079 179.755848,19.9648651 179.69,19.99 C179.607428,20.005927 179.522572,20.005927 179.44,19.99 L173.73,19.99 C173.726317,20.7567122 173.999769,21.4989404 174.5,22.08 C174.969599,22.5358114 175.606169,22.7781418 176.26,22.75 C176.574852,22.7549344 176.888569,22.7110815 177.19,22.62 C177.424263,22.5463021 177.651765,22.4526247 177.87,22.34 L178.38,22.06 C178.509284,21.9793357 178.657681,21.9344718 178.81,21.93 C178.889628,21.92732 178.968671,21.9445032 179.04,21.98 C179.107203,22.0166119 179.165305,22.0678784 179.21,22.13 L179.86,22.94 C179.620498,23.2197615 179.340781,23.4624077 179.03,23.66 C178.716623,23.8560224 178.380899,24.0138124 178.03,24.13 C177.7056,24.2456877 177.370677,24.3294184 177.03,24.38 C176.698664,24.4262197 176.364544,24.4496082 176.03,24.45 C175.418673,24.4550126 174.811726,24.3465081 174.24,24.13 C173.696614,23.9218433 173.205187,23.5976375 172.8,23.18 C172.361367,22.7394118 172.020614,22.2112454 171.8,21.63 C171.554331,20.9438439 171.435727,20.21867 171.45,19.49 C171.446571,18.8829455 171.551552,18.2801546 171.76,17.71 C171.953666,17.1728011 172.252874,16.6797884 172.64,16.26 C173.031492,15.8323079 173.508456,15.4916191 174.04,15.26 C174.644908,15.0422073 175.288753,14.953636 175.93,15 Z M175.93,16.59 C175.369561,16.558588 174.820573,16.757235 174.41,17.14 C174.014437,17.5708366 173.768876,18.1180861 173.71,18.7 L177.890004,18.7 C177.890349,18.4255461 177.849907,18.1525642 177.77,17.89 C177.696902,17.6444716 177.574396,17.416473 177.41,17.22 C177.242893,17.0262537 177.034438,16.8724759 176.8,16.77 C176.54574,16.6680553 176.27392,16.617089 176,16.62 L175.93,16.59 Z" id="Shape" fill="#FFFFFF"></path>
            <path d="M181.74,24.41 L181.74,15.18 L183,15.18 C183.170518,15.1631237 183.341304,15.2093782 183.48,15.31 C183.585381,15.4298096 183.648606,15.5808467 183.66,15.74 L183.79,16.86 C184.093881,16.3271044 184.506075,15.8638124 185,15.5 C185.429202,15.1771316 185.952941,15.0048954 186.49,15.01 C186.889691,14.9937315 187.284561,15.1020588 187.62,15.32 L187.34,17 C187.33197,17.0895134 187.288826,17.1722064 187.22,17.23 C187.149534,17.2783761 187.065424,17.3029081 186.98,17.3 C186.854653,17.2954448 186.730363,17.2752895 186.61,17.24 C186.406693,17.1939166 186.198371,17.1737564 185.99,17.18 C185.561729,17.1681274 185.142131,17.3021166 184.8,17.56 C184.435588,17.861861 184.147751,18.2456437 183.96,18.68 L183.96,24.43 L181.74,24.41 Z" id="Path" fill="#FFFFFF"></path>
            <path d="M199.8,24.41 L198.8,24.41 C198.628525,24.4205754 198.457025,24.3897054 198.3,24.32 C198.162462,24.2349011 198.065105,24.09788 198.03,23.94 L197.83,23.28 C197.61059,23.4762391 197.38022,23.6598677 197.14,23.83 C196.919772,23.9850618 196.6854,24.1189892 196.44,24.23 C196.193045,24.338354 195.934785,24.4188508 195.67,24.47 C195.373326,24.5259455 195.071891,24.5527398 194.77,24.55 C194.403915,24.552515 194.039632,24.4985472 193.69,24.39 C193.376678,24.2950626 193.086997,24.1348861 192.84,23.92 C192.599052,23.7018516 192.41096,23.4316842 192.29,23.13 C192.15138,22.7836198 192.083382,22.4130293 192.09,22.04 C192.097561,21.6897016 192.190226,21.3465009 192.36,21.04 C192.580604,20.6612763 192.89371,20.34473 193.27,20.12 C193.79724,19.8050589 194.371005,19.5755528 194.97,19.44 C195.835653,19.2424149 196.722271,19.151738 197.61,19.17 L197.61,18.63 C197.649476,18.1381369 197.511084,17.648444 197.22,17.25 C196.926797,16.9365069 196.508279,16.7713025 196.08,16.8 C195.774865,16.793089 195.470707,16.8370229 195.18,16.93 C194.961321,17.0024336 194.750303,17.0962192 194.55,17.21 L194.06,17.49 C193.907597,17.5763804 193.735176,17.6212098 193.56,17.62 C193.420389,17.6236234 193.283425,17.5814806 193.17,17.5 C193.06363,17.4229968 192.974977,17.3241145 192.91,17.21 L192.51,16.5 C193.554012,15.512846 194.943415,14.9743178 196.38,15 C196.873152,14.9936534 197.362644,15.0854331 197.82,15.27 C198.228722,15.4366959 198.596987,15.6890253 198.9,16.01 C199.200027,16.3355722 199.428292,16.7205569 199.57,17.14 C199.727524,17.6035456 199.805293,18.090449 199.8,18.58 L199.8,24.41 Z M195.48,23 C195.691528,23.0022677 195.902703,22.9821558 196.11,22.94 C196.296857,22.8981638 196.478115,22.8343881 196.65,22.75 C196.826645,22.6637029 196.994156,22.5598462 197.15,22.44 C197.320273,22.3085646 197.480701,22.1648476 197.63,22.01 L197.63,20.49 C197.087498,20.4814651 196.545324,20.5216261 196.01,20.61 C195.665284,20.6722168 195.329463,20.7763215 195.01,20.92 C194.787062,21.0134691 194.593561,21.1655056 194.45,21.36 C194.340647,21.5227067 194.281531,21.7139666 194.28,21.91 C194.255129,22.229939 194.385312,22.5423775 194.63,22.75 C194.881697,22.9170192 195.177957,23.0041545 195.48,23 Z" id="Shape" fill="#FFFFFF"></path>
            <path d="M206.29,24.41 L204.29,24.41 L200.62,15.18 L202.46,15.18 C202.605832,15.1763012 202.749176,15.2182555 202.87,15.3 C202.976989,15.3726056 203.057661,15.47783 203.1,15.6 L204.88,20.53 C204.98,20.82 205.07,21.1 205.14,21.38 C205.21,21.66 205.27,21.93 205.32,22.21 C205.373333,21.9366667 205.433333,21.66 205.5,21.38 C205.573217,21.0916067 205.663373,20.8077809 205.77,20.53 L207.6,15.6 C207.640307,15.479532 207.717218,15.3746531 207.82,15.3 C207.933749,15.2191747 208.070489,15.1771008 208.21,15.18 L210,15.18 L206.29,24.41 Z" id="Path" fill="#FFFFFF"></path>
            <path d="M214.78,15 C215.329276,14.9940636 215.874979,15.0889685 216.39,15.28 C216.863249,15.4564748 217.292977,15.7327288 217.65,16.09 C218.015155,16.46388 218.297899,16.910139 218.48,17.4 C218.687162,17.9702191 218.788818,18.5733798 218.78,19.18 C218.788945,19.3198571 218.788945,19.4601429 218.78,19.6 C218.771393,19.6912253 218.744165,19.7797156 218.7,19.86 C218.661918,19.9193079 218.605848,19.9648651 218.54,19.99 C218.457405,20.005685 218.372595,20.005685 218.29,19.99 L212.58,19.99 C212.573535,20.7554307 212.843381,21.4975089 213.34,22.08 C213.809599,22.5358114 214.446169,22.7781418 215.1,22.75 C215.414852,22.7549344 215.728569,22.7110815 216.03,22.62 C216.26423,22.5462099 216.491724,22.4525356 216.71,22.34 L217.22,22.06 C217.349284,21.9793357 217.497681,21.9344718 217.65,21.93 C217.729628,21.92732 217.808671,21.9445032 217.88,21.98 C217.947009,22.016888 218.005056,22.0681051 218.05,22.13 L218.7,22.94 C218.46071,23.2199716 218.180959,23.4626468 217.87,23.66 C217.556669,23.8561069 217.220935,24.0139019 216.87,24.13 C216.545618,24.2457489 216.210689,24.3294811 215.87,24.38 C215.538664,24.4262197 215.204544,24.4496082 214.87,24.45 C214.258653,24.455245 213.651664,24.3467329 213.08,24.13 C212.536614,23.9218433 212.045187,23.5976375 211.64,23.18 C211.201601,22.739223 210.860883,22.2111096 210.64,21.63 C210.394331,20.9438439 210.275727,20.21867 210.29,19.49 C210.286571,18.8829455 210.391552,18.2801546 210.6,17.71 C210.793174,17.1725663 211.092438,16.6794607 211.48,16.26 C211.868385,15.8332211 212.341894,15.492567 212.87,15.26 C213.481159,15.0394123 214.132116,14.9508004 214.78,15 Z M214.78,16.59 C214.219388,16.5574075 213.66995,16.7562175 213.26,17.14 C212.863828,17.5704351 212.618171,18.1178978 212.56,18.7 L216.740004,18.7 C216.740349,18.4255461 216.699907,18.1525642 216.62,17.89 C216.546385,17.6446852 216.423932,17.4167864 216.26,17.22 C216.092893,17.0262537 215.884438,16.8724759 215.65,16.77 C215.389512,16.6654441 215.110633,16.6144295 214.83,16.62 L214.78,16.59 Z" id="Shape" fill="#FFFFFF"></path>
            <path d="M227.08,17.13 C227.025562,17.2045857 226.961698,17.271811 226.89,17.33 C226.809973,17.3819973 226.71521,17.4065656 226.62,17.4 C226.502672,17.3990976 226.388093,17.3643769 226.29,17.3 L225.9,17.07 C225.728212,16.9753301 225.547292,16.8982715 225.36,16.84 C225.110246,16.7661147 224.850342,16.732361 224.59,16.74 C224.245299,16.7358066 223.903896,16.8075012 223.59,16.95 C223.299811,17.0895959 223.048935,17.2992318 222.86,17.56 C222.647452,17.8602812 222.497789,18.2004246 222.42,18.56 C222.320488,18.975827 222.273455,19.4024816 222.28,19.83 C222.275218,20.2718181 222.329019,20.7123209 222.44,21.14 C222.522623,21.4997351 222.675555,21.8395848 222.89,22.14 C223.080255,22.3905583 223.326936,22.5926996 223.61,22.73 C223.922713,22.8751582 224.265512,22.943718 224.61,22.93 C224.902245,22.9403222 225.193863,22.8962403 225.47,22.8 C225.663889,22.7248358 225.848446,22.6275241 226.02,22.51 L226.41,22.22 C226.514902,22.1357453 226.645451,22.0898767 226.78,22.09 C226.944852,22.0794411 227.102237,22.1600529 227.19,22.3 L227.83,23.11 C227.596987,23.3849442 227.327885,23.6271361 227.03,23.83 C226.749566,24.0215793 226.44747,24.1793404 226.13,24.3 C225.807161,24.4207791 225.471695,24.5046458 225.13,24.55 C224.798831,24.5977967 224.464598,24.621193 224.13,24.6201367 C223.577223,24.6232297 223.029527,24.5143709 222.52,24.3 C222.017687,24.0895318 221.567246,23.7721758 221.2,23.37 C220.808138,22.9329813 220.505767,22.4233681 220.31,21.87 C220.083453,21.2278728 219.971747,20.5508691 219.98,19.87 C219.972537,19.2283715 220.070508,18.5898734 220.27,17.98 C220.451376,17.4265847 220.744041,16.9161211 221.13,16.48 C221.518608,16.0490641 221.996323,15.7078389 222.53,15.48 C223.141984,15.2294097 223.798828,15.1068895 224.46,15.12 C225.079444,15.1064372 225.695199,15.218702 226.27,15.45 C226.797532,15.6886407 227.273167,16.0283799 227.67,16.45 L227.08,17.13 Z" id="Path" fill="#FFFFFF"></path>
            <path d="M232.65,27.42 L232.65,15.18 L234,15.18 C234.13051,15.176 234.259274,15.210801 234.37,15.28 C234.47613,15.3517569 234.548369,15.4637275 234.57,15.59 L234.75,16.44 C235.114976,16.0344548 235.548194,15.696003 236.03,15.44 C236.553454,15.1643329 237.138545,15.0266645 237.73,15.04 C238.208133,15.0318701 238.681282,15.1381571 239.11,15.35 C239.535421,15.5658951 239.905075,15.8773627 240.19,16.26 C240.514074,16.7050745 240.751536,17.207137 240.89,17.74 C241.063913,18.3921925 241.148023,19.0650655 241.14,19.74 C241.145733,20.3905756 241.051294,21.0381576 240.86,21.66 C240.689884,22.2149365 240.418662,22.7336496 240.06,23.19 C239.366584,24.0780071 238.296509,24.588977 237.17,24.57 C236.714857,24.5826101 236.262029,24.5008967 235.84,24.33 C235.468644,24.1738767 235.129549,23.9500741 234.84,23.67 L234.84,27.45 L232.65,27.42 Z M237,16.76 C236.587622,16.7476404 236.179672,16.8478993 235.82,17.05 C235.469789,17.2663404 235.161512,17.5441286 234.91,17.87 L234.91,22 C235.124422,22.2820796 235.406426,22.5056198 235.73,22.65 C236.047338,22.7783731 236.387816,22.8396592 236.73,22.83 C237.04356,22.8337873 237.354152,22.7689383 237.64,22.64 C237.916199,22.5094524 238.153907,22.3096398 238.33,22.06 C238.539127,21.7577934 238.68848,21.4183538 238.77,21.06 C238.877868,20.6047517 238.92826,20.1377801 238.92,19.67 C238.927805,19.2099177 238.884202,18.7504028 238.79,18.3 C238.724458,17.9762582 238.598969,17.6676231 238.42,17.39 C238.272466,17.1703096 238.068725,16.9941951 237.83,16.88 C237.566259,16.7766436 237.282215,16.735577 237,16.76 Z" id="Shape" fill="#FFFFFF"></path>
            <path d="M246.77,15 C247.411927,14.9897374 248.049943,15.1017296 248.65,15.33 C249.191613,15.5369186 249.682625,15.8574407 250.09,16.27 C250.499172,16.7091191 250.809474,17.2308363 251,17.8 C251.44192,19.0967159 251.44192,20.5032841 251,21.8 C250.800012,22.3580727 250.486788,22.8687641 250.08,23.3 C249.679853,23.7357165 249.188042,24.0772522 248.64,24.3 C247.426041,24.7442945 246.093959,24.7442945 244.88,24.3 C244.331958,24.0772522 243.840147,23.7357165 243.44,23.3 C243.029389,22.8698603 242.712688,22.3590522 242.51,21.8 C242.059634,20.5046972 242.059634,19.0953028 242.51,17.8 C242.711523,17.2433395 243.028452,16.7355713 243.44,16.31 C243.847767,15.8979203 244.338669,15.5774702 244.88,15.37 C245.480715,15.1275196 246.122195,15.0019388 246.77,15 L246.77,15 Z M249.88,13.87 L248.4,13.87 C248.234814,13.8777943 248.073187,13.8203268 247.95,13.71 L247.01,12.86 L246.92,12.77 L246.83,12.66 L246.74,12.77 L246.65,12.86 L245.65,13.71 C245.592847,13.756432 245.528725,13.7935552 245.46,13.82 C245.374165,13.8369772 245.285835,13.8369772 245.2,13.82 L243.66,13.82 L245.72,11.32 L247.81,11.32 L249.88,13.87 Z M246.77,22.81 C247.432468,22.8530426 248.07312,22.5645617 248.48,22.04 C248.891531,21.3575364 249.083521,20.5651416 249.03,19.77 C249.083008,18.9717343 248.891128,18.1763031 248.48,17.49 C248.075279,16.9616845 247.434274,16.6692962 246.77,16.71 C246.097013,16.6647618 245.446557,16.9617905 245.04,17.5 C244.625577,18.1815905 244.430125,18.9738692 244.48,19.77 C244.429596,20.5630162 244.625162,21.3522649 245.04,22.03 C245.44435,22.5719727 246.095174,22.8729318 246.77,22.83 L246.77,22.81 Z" id="Shape" fill="#FFFFFF"></path>
            <polygon id="Path" fill="#FFFFFF" points="255.43 11 255.43 24.41 253.21 24.41 253.21 11"></polygon>
            <path d="M261.76,15 C262.309276,14.9940636 262.854979,15.0889685 263.37,15.28 C263.843249,15.4564748 264.272977,15.7327288 264.63,16.09 C264.995155,16.46388 265.277899,16.910139 265.46,17.4 C265.667162,17.9702191 265.768818,18.5733798 265.76,19.18 C265.768945,19.3198571 265.768945,19.4601429 265.76,19.6 C265.751393,19.6912253 265.724165,19.7797156 265.68,19.86 C265.641918,19.9193079 265.585848,19.9648651 265.52,19.99 C265.437405,20.005685 265.352595,20.005685 265.27,19.99 L259.56,19.99 C259.553535,20.7554307 259.823381,21.4975089 260.32,22.08 C260.789599,22.5358114 261.426169,22.7781418 262.08,22.75 C262.394852,22.7549344 262.708569,22.7110815 263.01,22.62 C263.24423,22.5462099 263.471724,22.4525356 263.69,22.34 L264.2,22.06 C264.329284,21.9793357 264.477681,21.9344718 264.63,21.93 C264.709628,21.92732 264.788671,21.9445032 264.86,21.98 C264.927009,22.016888 264.985056,22.0681051 265.03,22.13 L265.68,22.94 C265.44071,23.2199716 265.160959,23.4626468 264.85,23.66 C264.536669,23.8561069 264.200935,24.0139019 263.85,24.13 C263.525618,24.2457489 263.190689,24.3294811 262.85,24.38 C262.518664,24.4262197 262.184544,24.4496082 261.85,24.45 C261.238653,24.455245 260.631664,24.3467329 260.06,24.13 C259.516614,23.9218433 259.025187,23.5976375 258.62,23.18 C258.181601,22.739223 257.840883,22.2111096 257.62,21.63 C257.374331,20.9438439 257.255727,20.21867 257.27,19.49 C257.266571,18.8829455 257.371552,18.2801546 257.58,17.71 C257.773174,17.1725663 258.072438,16.6794607 258.46,16.26 C258.848385,15.8332211 259.321894,15.492567 259.85,15.26 C260.461159,15.0394123 261.112116,14.9508004 261.76,15 Z M261.76,16.59 C261.199388,16.5574075 260.64995,16.7562175 260.24,17.14 C259.843828,17.5704351 259.598171,18.1178978 259.54,18.7 L263.720004,18.7 C263.720349,18.4255461 263.679907,18.1525642 263.6,17.89 C263.526385,17.6446852 263.403932,17.4167864 263.24,17.22 C263.072893,17.0262537 262.864438,16.8724759 262.63,16.77 C262.366402,16.6641133 262.083986,16.6130742 261.8,16.62 L261.76,16.59 Z" id="Shape" fill="#FFFFFF"></path>
            <path d="M274.85,15 C275.399276,14.9940636 275.944979,15.0889685 276.46,15.28 C276.933249,15.4564748 277.362977,15.7327288 277.72,16.09 C278.085155,16.46388 278.367899,16.910139 278.55,17.4 C278.757162,17.9702191 278.858818,18.5733798 278.85,19.18 C278.858945,19.3198571 278.858945,19.4601429 278.85,19.6 C278.841393,19.6912253 278.814165,19.7797156 278.77,19.86 C278.731918,19.9193079 278.675848,19.9648651 278.61,19.99 C278.527405,20.005685 278.442595,20.005685 278.36,19.99 L272.65,19.99 C272.643535,20.7554307 272.913381,21.4975089 273.41,22.08 C273.879599,22.5358114 274.516169,22.7781418 275.17,22.75 C275.484852,22.7549344 275.798569,22.7110815 276.1,22.62 C276.33423,22.5462099 276.561724,22.4525356 276.78,22.34 L277.29,22.06 C277.419284,21.9793357 277.567681,21.9344718 277.72,21.93 C277.799628,21.92732 277.878671,21.9445032 277.95,21.98 C278.017009,22.016888 278.075056,22.0681051 278.12,22.13 L278.77,22.94 C278.53071,23.2199716 278.250959,23.4626468 277.94,23.66 C277.626669,23.8561069 277.290935,24.0139019 276.94,24.13 C276.615618,24.2457489 276.280689,24.3294811 275.94,24.38 C275.608664,24.4262197 275.274544,24.4496082 274.94,24.45 C274.328653,24.455245 273.721664,24.3467329 273.15,24.13 C272.606614,23.9218433 272.115187,23.5976375 271.71,23.18 C271.271601,22.739223 270.930883,22.2111096 270.71,21.63 C270.464331,20.9438439 270.345727,20.21867 270.36,19.49 C270.356571,18.8829455 270.461552,18.2801546 270.67,17.71 C270.863174,17.1725663 271.162438,16.6794607 271.55,16.26 C271.938385,15.8332211 272.411894,15.492567 272.94,15.26 C273.551159,15.0394123 274.202116,14.9508004 274.85,15 Z M274.85,16.59 C274.289388,16.5574075 273.73995,16.7562175 273.33,17.14 C272.933828,17.5704351 272.688171,18.1178978 272.63,18.7 L276.810004,18.7 C276.810349,18.4255461 276.769907,18.1525642 276.69,17.89 C276.616385,17.6446852 276.493932,17.4167864 276.33,17.22 C276.162893,17.0262537 275.954438,16.8724759 275.72,16.77 C275.459512,16.6654441 275.180633,16.6144295 274.9,16.62 L274.85,16.59 Z" id="Shape" fill="#FFFFFF"></path>
            <path d="M280.66,24.41 L280.66,15.18 L282,15.18 C282.260961,15.1607648 282.499344,15.3280506 282.57,15.58 L282.71,16.26 C282.86863,16.0821181 283.039012,15.9150765 283.22,15.76 C283.395608,15.6101234 283.586687,15.4793854 283.79,15.37 C283.995777,15.2582633 284.213929,15.1710027 284.44,15.11 C284.688223,15.0464413 284.943797,15.016176 285.2,15.02 C285.721123,14.9967906 286.23291,15.1638324 286.64,15.49 C287.028878,15.826233 287.3192,16.261715 287.48,16.75 C287.611616,16.4735136 287.787232,16.2202208 288,16 C288.208434,15.7856239 288.447746,15.6036124 288.71,15.46 C288.968331,15.3206596 289.244097,15.2164066 289.53,15.15 C289.818727,15.084195 290.113869,15.0506561 290.41,15.05 C290.873742,15.0407436 291.335091,15.1187657 291.77,15.28 C292.151799,15.4255856 292.494254,15.6584547 292.77,15.96 C293.052365,16.278529 293.263712,16.6535002 293.39,17.06 C293.537021,17.5393036 293.607883,18.0387168 293.6,18.54 L293.6,24.42 L291.4,24.42 L291.4,18.53 C291.42982,18.0531188 291.287925,17.5813187 291,17.2 C290.709891,16.8881096 290.295095,16.7229252 289.87,16.75 C289.654289,16.7496676 289.440485,16.7903922 289.24,16.87 C289.048544,16.9472752 288.874968,17.0629922 288.73,17.21 C288.575421,17.3662557 288.45608,17.5537905 288.38,17.76 C288.290028,18.0065793 288.245968,18.2675497 288.25,18.53 L288.25,24.41 L286,24.41 L286,18.53 C286.04331,18.0501222 285.911924,17.5707396 285.63,17.18 C285.343667,16.8839446 284.940783,16.7301163 284.53,16.76 C284.214015,16.7586975 283.90338,16.8415337 283.63,17 C283.334957,17.1707756 283.07118,17.3905898 282.85,17.65 L282.85,24.41 L280.66,24.41 Z" id="Path" fill="#FFFFFF"></path>
            <path d="M295.81,27.42 L295.81,15.18 L297.17,15.18 C297.30051,15.176 297.429274,15.210801 297.54,15.28 C297.64613,15.3517569 297.718369,15.4637275 297.74,15.59 L297.92,16.44 C298.284976,16.0344548 298.718194,15.696003 299.2,15.44 C299.723454,15.1643329 300.308545,15.0266645 300.9,15.04 C301.378133,15.0318701 301.851282,15.1381571 302.28,15.35 C302.705421,15.5658951 303.075075,15.8773627 303.36,16.26 C303.684074,16.7050745 303.921536,17.207137 304.06,17.74 C304.233913,18.3921925 304.318023,19.0650655 304.31,19.74 C304.315733,20.3905756 304.221294,21.0381576 304.03,21.66 C303.859884,22.2149365 303.588662,22.7336496 303.23,23.19 C302.536584,24.0780071 301.466509,24.588977 300.34,24.57 C299.884857,24.5826101 299.432029,24.5008967 299.01,24.33 C298.638644,24.1738767 298.299549,23.9500741 298.01,23.67 L298.01,27.45 L295.81,27.42 Z M300.13,16.76 C299.717622,16.7476404 299.309672,16.8478993 298.95,17.05 C298.599789,17.2663404 298.291512,17.5441286 298.04,17.87 L298.04,22 C298.254422,22.2820796 298.536426,22.5056198 298.86,22.65 C299.177338,22.7783731 299.517816,22.8396592 299.86,22.83 C300.17356,22.8337873 300.484152,22.7689383 300.77,22.64 C301.046199,22.5094524 301.283907,22.3096398 301.46,22.06 C301.669127,21.7577934 301.81848,21.4183538 301.9,21.06 C302.007868,20.6047517 302.05826,20.1377801 302.05,19.67 C302.057805,19.2099177 302.014202,18.7504028 301.92,18.3 C301.854458,17.9762582 301.728969,17.6676231 301.55,17.39 C301.402466,17.1703096 301.198725,16.9941951 300.96,16.88 C300.696259,16.7766436 300.412215,16.735577 300.13,16.76 L300.13,16.76 Z" id="Shape" fill="#FFFFFF"></path>
            <polygon id="Path" fill="#FFFFFF" points="308.36 11 308.36 24.41 306.14 24.41 306.14 11"></polygon>
            <path d="M314.81,15 C315.451927,14.9897374 316.089943,15.1017296 316.69,15.33 C317.231613,15.5369186 317.722625,15.8574407 318.13,16.27 C318.524805,16.7128302 318.821315,17.2342781 319,17.8 C319.44192,19.0967159 319.44192,20.5032841 319,21.8 C318.800012,22.3580727 318.486788,22.8687641 318.08,23.3 C317.679853,23.7357165 317.188042,24.0772522 316.64,24.3 C315.426041,24.7442945 314.093959,24.7442945 312.88,24.3 C312.331958,24.0772522 311.840147,23.7357165 311.44,23.3 C311.029389,22.8698603 310.712688,22.3590522 310.51,21.8 C310.059634,20.5046972 310.059634,19.0953028 310.51,17.8 C310.711523,17.2433395 311.028452,16.7355713 311.44,16.31 C311.847767,15.8979203 312.338669,15.5774702 312.88,15.37 C313.493191,15.1224695 314.14874,14.9967944 314.81,15 L314.81,15 Z M314.81,22.8 C315.472468,22.8430426 316.11312,22.5545617 316.52,22.03 C316.931531,21.3475364 317.123521,20.5551416 317.07,19.76 C317.123008,18.9617343 316.931128,18.1663031 316.52,17.48 C316.115279,16.9516845 315.474274,16.6592962 314.81,16.7 C314.137013,16.6547618 313.486557,16.9517905 313.08,17.49 C312.665577,18.1715905 312.470125,18.9638692 312.52,19.76 C312.469596,20.5530162 312.665162,21.3422649 313.08,22.02 C313.482127,22.5657408 314.133326,22.870637 314.81,22.83 L314.81,22.8 Z" id="Shape" fill="#FFFFFF"></path>
            <path d="M323.800002,12.48 C323.799838,12.666595 323.758882,12.8508983 323.68,13.02 C323.525178,13.3544741 323.25036,13.6185855 322.91,13.76 C322.732951,13.8350049 322.542266,13.872461 322.35,13.87 C322.164323,13.8711426 321.980435,13.8336839 321.81,13.76 C321.642399,13.6893187 321.489706,13.5875237 321.36,13.46 C321.233871,13.3329656 321.13218,13.1838183 321.06,13.02 C320.985459,12.8498359 320.947962,12.6657635 320.95,12.48 C320.947539,12.2877343 320.984995,12.0970492 321.06,11.92 C321.202857,11.5819145 321.471914,11.3128575 321.81,11.17 C321.980435,11.0963161 322.164323,11.0588574 322.35,11.06 C322.542266,11.057539 322.732951,11.0949951 322.91,11.17 C323.080489,11.2408394 323.236435,11.3425437 323.37,11.47 C323.500733,11.5991533 323.605908,11.7518269 323.68,11.92 C323.759296,12.0960329 323.800203,12.2869317 323.800002,12.48 Z M323.47,15.17 L323.47,24.4 L321.25,24.4 L321.25,15.18 L323.47,15.17 Z" id="Shape" fill="#FFFFFF"></path>
            <path d="M57.8260423,25.2923936 C56.3447558,23.7541459 55.5933786,21.6814835 55.5933786,18.9805228 C55.583436,17.7920227 55.7721364,16.6103379 56.1515445,15.4851618 C56.4893839,14.4692867 57.0355641,13.5366658 57.7544825,12.748092 C58.4722039,11.9793585 59.3528828,11.384368 60.3306329,11.0076333 C61.4298292,10.5875439 62.5973693,10.3793234 63.7726561,10.3937786 C64.8739106,10.3757737 65.9687041,10.5668594 67,10.9570806 C63.6191575,6.62482768 57.8977191,4.91678388 52.7256054,6.69568865 C47.5534916,8.47459342 44.0563799,13.3532795 44.0006748,18.8675039 C43.9449697,24.3817283 47.342795,29.3313554 52.4778961,31.2163095 C57.6129973,33.1012636 63.3677524,31.5112966 66.8354126,27.2495069 C65.9376158,27.4950611 65.0104853,27.6141453 64.0803629,27.6033761 C61.382561,27.6033761 59.3073287,26.8306413 57.8260423,25.2923936 Z" id="Path" fill="#FFFFFF"></path>
            <path d="M60.5031427,17.9997472 L67.5314464,17.9997472 C67.777523,18.0081164 67.9852055,17.8076565 68,17.5474887 C67.9664336,16.3206551 67.5441566,15.1414059 66.8010541,14.199317 C66.0734599,13.3947415 65.0548457,12.9591572 64.0035135,13.0030203 C62.9605769,12.9620704 61.9531343,13.4073384 61.247316,14.2212005 C60.5132372,15.1533063 60.0766638,16.3074551 60.0001366,17.5183108 C59.9932461,17.7809125 60.2481944,17.9997472 60.5031427,17.9997472 Z" id="Path" fill="#FFFFFF"></path>
            <path d="M68.4798568,20.1554278 L60.481672,20.1554278 C60.3529834,20.1479197 60.2269426,20.1916709 60.1351035,20.2757285 C60.0432644,20.3597861 59.9943209,20.4761928 60.0005258,20.5958067 C60.0216145,21.3723926 60.2263468,22.135168 60.6002153,22.8300819 C61.2916511,24.1740046 62.762116,25.0212228 64.3657077,24.9995955 C64.8532182,25.0031672 65.3389332,24.9443283 65.8091464,24.8247392 C66.2619794,24.6990983 66.6920804,24.5113796 67.08523,24.2677894 C67.472336,24.0363448 67.8405818,23.7787617 68.1869852,23.4971264 C68.5216956,23.2251277 69.1632239,22.6681779 69.3863642,22.4738931 C69.4555706,22.416705 69.5330198,22.368752 69.6164776,22.3314176 C69.8288559,21.5683184 69.9573542,20.7871824 70,20 C69.5003396,20.099939 68.9909601,20.1520208 68.4798568,20.1554278 L68.4798568,20.1554278 Z" id="Path" fill="#FFFFFF"></path>
            <path d="M67.2869421,26.9011299 C68.8686229,26.3361582 70.6532627,24.7471751 70.9612006,23.2429379 C71.157161,22.2612994 70.5622811,22.049435 70.2613418,22 L70.0653814,22 C69.8544688,22.0001896 69.6463255,22.0484732 69.4565043,22.1412429 C68.9969786,23.921594 68.1587195,25.5795993 67,27 L67.2869421,26.9011299 Z" id="Path" fill="#FFFFFF"></path>
            <path d="M70.0787781,20 C70.4355138,19.9357281 70.7815015,19.8279142 71.107717,19.6793703 C71.6784566,19.4109362 72,18.8069594 72,17.7183099 C71.9885333,16.507311 71.6514468,15.3181103 71.0192926,14.2584921 C70.1244311,12.7751038 68.7045853,11.6240166 67,11 C69.0147317,13.3649575 70.1082411,16.2923166 70.1028939,19.3065452 C70.1028939,19.5501243 70.0948553,19.7812759 70.0787781,20 Z" id="Path" fill="#FFFFFF"></path>
            <path d="M67.9562321,23.2982426 C67.6048702,23.6213579 67.2318709,23.916577 66.8402184,24.1815378 C66.4433191,24.4595424 66.0101158,24.6732437 65.5546837,24.8156985 C65.0783852,24.9551085 64.5863842,25.0236995 64.0925646,25.0195358 C62.4682198,25.0447477 60.9787247,24.0571099 60.2783407,22.4904428 C59.8996337,21.6803524 59.6922518,20.7911531 59.6708902,19.8858544 C59.664605,19.7464154 59.714182,19.6107152 59.8072096,19.5127258 C59.9002372,19.4147363 60.0279091,19.3637337 60.1582633,19.3724863 L68.2528939,19.3724863 C68.7793191,19.3780463 69.3048515,19.3249122 69.8209979,19.2139461 C69.8209979,18.9773941 69.8209979,18.7408421 69.8209979,18.5042901 C69.8256622,15.4524559 68.8648129,12.4885748 67.0945,10.094112 C66.0765487,9.68618341 64.9959214,9.48642661 63.9089167,9.50524859 C62.7488378,9.49013739 61.5964052,9.70780657 60.5114321,10.1469588 C59.5405903,10.5409703 58.6662481,11.1657053 57.9544895,11.9739454 C57.2448736,12.7983031 56.7057607,13.7732444 56.3722929,14.8352178 C55.9977942,16.0114521 55.8115355,17.2467593 55.8213494,18.4891911 C55.8213494,21.2976168 56.5276872,23.4718819 58.0251232,25.0874816 C59.5225593,26.7030813 61.556812,27.5033317 64.2197054,27.5033317 C65.1377923,27.5145896 66.052926,27.3901016 66.9391057,27.1334046 C68.1062234,25.6069665 68.9475137,23.8266136 69.4042245,21.9166784 C69.3196865,21.9602007 69.241235,22.0161014 69.171133,22.0827681 C68.9592317,22.3319026 68.2952742,22.9811623 67.9562321,23.2982426 Z M59.8253984,17.0223429 C59.9018847,15.8114873 60.3382245,14.6573385 61.0719104,13.7252326 C61.7773511,12.9113706 62.7842545,12.4661026 63.8266331,12.5070525 C64.8774026,12.4631893 65.8954717,12.8987736 66.6226766,13.7033492 C67.3653814,14.645438 67.7874325,15.8246873 67.8209809,17.0515209 C67.8061944,17.3116887 67.598623,17.5121485 67.3526781,17.5037794 L60.3281353,17.5037794 C60.0388894,17.5110739 59.7840776,17.2922391 59.8253984,17.0223429 Z" id="Shape" fill="#1B2E57"></path>
        </g>
    </g>
</svg>