<svg width="228" height="205" xmlns="http://www.w3.org/2000/svg"><g fill-rule="nonzero" fill="none"><path d="M201.73 155.7a122.96 122.96 0 0 1-15.16 30.65l-.45.65-20.12-6.25.28-.7c6.07-15.21 42.56-107.91 38.23-127.05.4 1.57 13.8 53.53-2.78 102.7Z" fill="#E6E6E6"/><path d="M191.22 189.43c-.25.2-.5.38-.76.57L175 185.23l.63-.6a840.17 840.17 0 0 0 27.14-27.61c12.25-13.13 24.05-27.04 25.23-33.02-.22 1.36-7.15 42.88-36.78 65.43Z" fill="#E6E6E6"/><ellipse fill="#E6E6E6" cx="28" cy="202" rx="28" ry="3"/><path d="M47.22 142.99a3.47 3.47 0 0 1-2.56-1.5c-.6-.87-.8-1.96-.56-3L46.54 128H51v11.35c0 1.02-.4 2-1.13 2.68a3.41 3.41 0 0 1-2.65.96Z" fill="#A0616A"/><path d="M43 74.64A80.86 80.86 0 0 1 28.66 76c-4.57 0-9.13-.3-13.66-.9 0 0 .68-25.55 13.66-25.1C42.56 50.5 43 74.65 43 74.65Z" fill="#2F2E41"/><circle fill="#2F2E41" cx="30" cy="50" r="4"/><path fill="#A0616A" d="m37.02 193.34 5.68.66 3.3-43-10 2.87zM19.09 191.72 13.52 194 10 152l10 2.82z"/><ellipse fill="#A0616A" cx="29" cy="64.5" rx="8" ry="7.5"/><path d="M35.73 98H23V79.26c3.22-2.1 2.08-5.84 0-9.94L34.33 69c-1.7 5.04-1.1 8.81 3.67 10.27L35.73 98Z" fill="#A0616A"/><path d="M48 157.32c-6.36-2.05-11.08.36-14.74 5.68l-4.12-16.17-6.07 13.33c-5.24-5.8-11.75-8.09-19.07-8.09.9-17.97 3.88-32.03 11.7-43.7.7-1.03.96-4.5 1.74-5.46l-4.67-14.76a7.64 7.64 0 0 1 4.17-5.82l7-3.46 5.85 9.84L35 78l8.77 2.89c1.5.5 2.53 1.89 2.57 3.48l-7 27.06C37.98 123.3 42.1 139.6 48 157.32Z" fill="#2F2E41"/><path d="m51 131-6.6-.87-3.4-25.11.85-24.02 2.07.4a7.5 7.5 0 0 1 5.99 7.19L51 131Z" fill="#2F2E41"/><path d="M3.82 142.91c1.04.23 2.12.01 2.98-.6a3.49 3.49 0 0 0 1.46-2.58L9 129.36 4.58 128l-3.41 10.42c-.3.94-.2 1.95.3 2.8.51.86 1.36 1.47 2.35 1.7Z" fill="#A0616A"/><path d="M9.42 131 4 129.68l7.4-41.24A7.06 7.06 0 0 1 16.2 83l1.8 17.61L9.42 131ZM22.72 61h12.75l.46-2.57a4.61 4.61 0 0 0-4.6-5.43l-4.78.06a4.61 4.61 0 0 0-4.4 5.79l.57 2.15ZM16.67 203a4.33 4.33 0 0 1-4.19-3.18l-.38-1.43a2.8 2.8 0 0 1-.08-1.04l.73-6.76c1.4-1.72 3.45-2.14 6.35-.78l1.8 7.95a4.28 4.28 0 0 1-.85 3.63 4.34 4.34 0 0 1-3.38 1.61ZM40.67 203a4.33 4.33 0 0 1-4.19-3.18l-.38-1.43a2.8 2.8 0 0 1-.08-1.04l.73-6.76c1.4-1.72 3.45-2.14 6.35-.78l1.8 7.95a4.28 4.28 0 0 1-.85 3.63 4.34 4.34 0 0 1-3.38 1.61Z" fill="#2F2E41"/><circle fill="#E6E6E6" cx="30.5" cy="98.5" r="1.5"/><circle fill="#E6E6E6" cx="30.5" cy="106.5" r="1.5"/><circle fill="#E6E6E6" cx="30.5" cy="114.5" r="1.5"/><path d="M194 48h-1.12V17.6c0-9.72-7.98-17.6-17.82-17.6h-65.24A17.71 17.71 0 0 0 92 17.6v166.8c0 9.72 7.98 17.6 17.82 17.6h65.23c9.85 0 17.83-7.88 17.83-17.6V69.65H194V48Z" fill="#3F3D56"/><path d="M175.72 3h-8.5a6.32 6.32 0 0 1-5.85 8.7h-37.3a6.31 6.31 0 0 1-5.84-8.7h-7.95A13.29 13.29 0 0 0 97 16.29v168.42c0 7.34 5.95 13.29 13.28 13.29h65.44c7.33 0 13.28-5.95 13.28-13.29V16.3C189 8.95 183.05 3 175.72 3Z" fill="#FFF"/><circle fill="#E6E6E6" cx="143.5" cy="176.5" r="7.5"/><path fill="#E6E6E6" d="M102.11 92.12h78.86v14.68h-78.86z"/><path fill="#FFF" d="M103.79 105.21h75.5v-11.5h-75.5z"/><path d="M110.4 94.98c2.57 0 4.65 1.96 4.65 4.38 0 2.43-2.08 4.39-4.65 4.39-2.57 0-4.65-1.96-4.65-4.39 0-2.42 2.08-4.38 4.65-4.38Z" fill="#007BFF"/><path fill="#E6E6E6" d="M121.52 97.65h45.9v1h-45.9zM121.52 100.13h45.9v1h-45.9z"/><g transform="translate(102 115)"><path fill="#E6E6E6" d="M.11.12h78.86V14.8H.11z"/><path fill="#FFF" d="M1.79 13.21h75.5V1.71H1.79z"/><ellipse fill="#007BFF" cx="8.4" cy="7.36" rx="4.65" ry="4.38"/><path fill="#E6E6E6" d="M19.52 5.65h45.9v1h-45.9zM19.52 8.13h45.9v1h-45.9z"/></g><g transform="translate(102 139)"><path fill="#E6E6E6" d="M.11.12h78.86V14.8H.11z"/><path fill="#FFF" d="M1.79 13.21h75.5V1.71H1.79z"/><ellipse fill="#007BFF" cx="8.4" cy="7.36" rx="4.65" ry="4.38"/><path fill="#E6E6E6" d="M19.52 5.65h45.9v1h-45.9zM19.52 8.13h45.9v1h-45.9z"/></g><circle fill="#007BFF" cx="142" cy="55" r="22"/><path d="M150.87 45h-18.75c-1.72 0-3.12 1.28-3.12 2.86v12.28c0 1.58 1.4 2.86 3.12 2.86h18.75c1.73 0 3.13-1.28 3.13-2.86V47.86c0-1.58-1.4-2.86-3.13-2.86Zm0 1.64c.12 0 .23.01.34.04l-9.7 7.09-9.66-7.1c.1-.03.18-.03.27-.03h18.75Zm0 14.72h-18.75c-.73 0-1.33-.55-1.33-1.22V47.97l10.15 7.49c.33.24.79.24 1.12 0l10.15-7.43v12.1c0 .68-.6 1.23-1.34 1.23Z" fill="#FFF"/></g></svg>