<svg width="297" height="60" viewBox="0 0 297 60" fill="none" xmlns="http://www.w3.org/2000/svg">
<path d="M0 4C0 1.79086 1.79086 0 4 0H293C295.209 0 297 1.79086 297 4V56C297 58.2091 295.209 60 293 60H4C1.79087 60 0 58.2091 0 56V4Z" fill="#1B2E57"/>
<path d="M30 0H267C283.6 0 297 13.4 297 30C297 46.6 283.6 60 267 60H30C13.4 60 0 46.6 0 30C0 13.4 13.4 0 30 0Z" fill="#1B2E57"/>
<path d="M36.6 37.3998C34.7 35.2998 33.7 32.5998 33.9 29.7998C33.9 28.2998 34.1 26.8998 34.6 25.4998C35 24.2998 35.7 23.0998 36.6 22.1998C37.5 21.2998 38.6 20.4998 39.8 20.0998C41.1 19.5998 42.6 19.2998 44 19.3998C45.3 19.3998 46.7 19.5998 48 20.0998C42.6 13.2998 32.7 12.0998 25.9 17.4998C19.1 22.8998 17.9 32.7998 23.3 39.5998C28.7 46.3998 38.6 47.5998 45.4 42.1998C46.3 41.4998 47.1 40.6998 47.8 39.7998C46.7 40.0998 45.6 40.1998 44.4 40.1998C40.9 40.1998 38.4 39.2998 36.6 37.3998Z" fill="white"/>
<path d="M39.2001 28.3999H48.1001C48.4001 28.3999 48.7001 28.1999 48.7001 27.8999C48.7001 26.3999 48.1001 24.9999 47.2001 23.8999C46.3001 22.8999 45.0001 22.3999 43.7001 22.4999C42.4001 22.4999 41.1001 22.9999 40.2001 23.9999C39.3001 25.0999 38.7001 26.4999 38.6001 27.9999C38.6001 28.0999 38.9001 28.3999 39.2001 28.3999Z" fill="white"/>
<path d="M49.2001 30.7996H39.2001C38.9001 30.7996 38.6001 30.9996 38.6001 31.2996C38.6001 31.2996 38.6001 31.2996 38.6001 31.3996C38.6001 32.3996 38.9001 33.4996 39.4001 34.3996C40.3001 36.1996 42.1001 37.3996 44.1001 37.2996C44.7001 37.2996 45.3001 37.1996 45.9001 37.0996C46.5001 36.8996 47.0001 36.6996 47.5001 36.3996C48.0001 36.0996 48.5001 35.7996 48.9001 35.3996C49.3001 34.9996 50.1001 34.2996 50.4001 33.9996C50.5001 33.8996 50.6001 33.8996 50.7001 33.7996C51.0001 32.7996 51.1001 31.6996 51.2001 30.5996C50.5001 30.7996 49.9001 30.7996 49.2001 30.7996Z" fill="white"/>
<path d="M48.0001 39.7002C50.0001 39.0002 52.2001 37.0002 52.6001 35.2002C52.8001 34.0002 52.1001 33.7002 51.7001 33.7002H51.5001C51.2001 33.7002 51.0001 33.8002 50.7001 33.9002C50.1001 36.1002 49.1001 38.1002 47.6001 39.9002L48.0001 39.7002Z" fill="white"/>
<path d="M51.1998 30.6C51.5998 30.5 51.9998 30.4 52.2998 30.2C52.8998 29.9 53.2998 29.2 53.2998 27.9C53.2998 26.5 52.8998 25.1 52.1998 23.8C51.1998 22.1 49.6998 20.7 47.7998 20C49.9998 22.8 51.1998 26.2 51.1998 29.7C51.1998 30.1 51.1998 30.3 51.1998 30.6Z" fill="white"/>
<path d="M48.9 35.2998C48.5 35.6998 48 35.9998 47.5 36.2998C47 36.5998 46.5 36.8998 45.9 36.9998C45.3 37.1998 44.7 37.1998 44.1 37.1998C42.1 37.1998 40.2 36.0998 39.4 34.2998C38.9 33.3998 38.7 32.2998 38.6 31.2998C38.6 30.9998 38.8 30.6998 39.1 30.6998C39.1 30.6998 39.1 30.6998 39.2 30.6998H49.2C49.9 30.6998 50.5 30.5998 51.1 30.4998C51.1 30.1998 51.1 29.9998 51.1 29.6998C51.1 26.1998 49.9 22.6998 47.7 19.9998C46.4 19.4998 45.1 19.2998 43.7 19.2998C42.3 19.2998 40.8 19.4998 39.5 19.9998C38.3 20.4998 37.3 21.1998 36.4 22.0998C35.5 22.9998 34.8 24.1998 34.4 25.3998C33.9 26.7998 33.7 28.1998 33.7 29.5998C33.5 32.3998 34.5 35.1998 36.4 37.1998C38.2 39.0998 40.7 39.9998 44.1 39.9998C45.2 39.9998 46.4 39.8998 47.5 39.5998C48.9 37.7998 50 35.7998 50.6 33.5998C50.5 33.5998 50.4 33.6998 50.3 33.7998C50.1 34.1998 49.3 34.9998 48.9 35.2998ZM38.6 27.7998C38.7 26.2998 39.2 24.8998 40.2 23.7998C41.1 22.7998 42.3 22.2998 43.7 22.2998C45 22.2998 46.3 22.7998 47.2 23.6998C48.1 24.7998 48.7 26.1998 48.7 27.6998C48.7 27.9998 48.4 28.2998 48.1 28.1998H39.2C38.9 28.3998 38.6 28.0998 38.6 27.7998Z" fill="#1B2E57"/>
<path d="M69.3 25.5008C69.2 25.6008 69.2 25.7008 69.1 25.8008C69 25.9008 68.9 25.9008 68.8 25.9008C68.7 25.9008 68.6 25.9008 68.4 25.8008C68.2 25.7008 68.1 25.6008 67.9 25.5008C67.7 25.4008 67.5 25.3008 67.2 25.2008C66.9 25.1008 66.6 25.1008 66.3 25.1008C66 25.1008 65.7 25.1008 65.5 25.2008C65.3 25.3008 65.1 25.4008 64.9 25.5008C64.7 25.6008 64.6 25.8008 64.5 26.0008C64.4 26.2008 64.4 26.4008 64.4 26.6008C64.4 26.9008 64.5 27.1008 64.6 27.3008C64.8 27.5008 65 27.7008 65.2 27.8008C65.5 27.9008 65.8 28.1008 66.1 28.2008C66.4 28.3008 66.8 28.4008 67.1 28.5008C67.5 28.6008 67.8 28.8008 68.1 28.9008C68.4 29.1008 68.7 29.3008 69 29.5008C69.3 29.7008 69.5 30.0008 69.6 30.4008C69.8 30.8008 69.8 31.2008 69.8 31.7008C69.8 32.3008 69.7 32.8008 69.5 33.3008C69.3 33.8008 69 34.2008 68.7 34.6008C68.3 35.0008 67.9 35.2008 67.4 35.5008C66.9 35.7008 66.3 35.8008 65.6 35.8008C65.2 35.8008 64.8 35.8008 64.4 35.7008C64 35.6008 63.7 35.5008 63.3 35.4008C63 35.3008 62.6 35.1008 62.3 34.9008C62 34.7008 61.7 34.5008 61.5 34.2008L62.2 33.1008C62.3 33.0008 62.3 33.0008 62.4 32.9008C62.5 32.8008 62.6 32.8008 62.7 32.8008C62.8 32.8008 63 32.9008 63.2 33.0008C63.4 33.1008 63.6 33.2008 63.8 33.4008C64 33.5008 64.3 33.7008 64.6 33.8008C64.9 33.9008 65.3 34.0008 65.7 34.0008C66.4 34.0008 66.9 33.8008 67.2 33.5008C67.6 33.2008 67.7 32.7008 67.7 32.2008C67.7 31.9008 67.6 31.6008 67.5 31.4008C67.3 31.2008 67.1 31.0008 66.9 30.9008C66.6 30.8008 66.3 30.6008 66 30.5008C65.7 30.4008 65.3 30.3008 65 30.2008C64.6 30.1008 64.3 30.0008 64 29.8008C63.7 29.6008 63.4 29.4008 63.1 29.2008C62.8 28.9008 62.6 28.6008 62.5 28.2008C62.3 27.8008 62.3 27.3008 62.3 26.8008C62.3 26.4008 62.4 25.9008 62.6 25.5008C62.8 25.1008 63 24.7008 63.4 24.4008C63.7 24.1008 64.2 23.8008 64.7 23.6008C65.2 23.4008 65.8 23.3008 66.4 23.3008C67.1 23.3008 67.8 23.4008 68.4 23.6008C69 23.8008 69.5 24.1008 70 24.6008L69.3 25.5008Z" fill="white"/>
<path d="M74.8998 26.7002C75.3998 26.7002 75.9998 26.8002 76.3998 27.0002C76.8998 27.2002 77.2998 27.4002 77.5998 27.8002C77.8998 28.1002 78.1998 28.6002 78.3998 29.0002C78.5998 29.5002 78.6998 30.0002 78.6998 30.7002C78.6998 30.9002 78.6998 31.0002 78.6998 31.1002C78.6998 31.2002 78.6998 31.3002 78.5998 31.3002C78.5998 31.4002 78.4998 31.4002 78.4998 31.4002C78.4998 31.4002 78.3998 31.4002 78.2998 31.4002H72.8998C72.9998 32.3002 73.1998 33.0002 73.5998 33.4002C73.9998 33.8002 74.5998 34.0002 75.2998 34.0002C75.5998 34.0002 75.8998 34.0002 76.1998 33.9002C76.3998 33.8002 76.6998 33.7002 76.7998 33.6002C76.9998 33.5002 77.0998 33.4002 77.2998 33.3002C77.3998 33.2002 77.5998 33.2002 77.6998 33.2002C77.7998 33.2002 77.8998 33.2002 77.8998 33.3002C77.8998 33.4002 77.9998 33.4002 78.0998 33.4002L78.6998 34.2002C78.4998 34.5002 78.1998 34.7002 77.8998 34.9002C77.5998 35.1002 77.2998 35.2002 76.9998 35.3002C76.6998 35.4002 76.3998 35.5002 75.9998 35.5002C75.6998 35.5002 75.3998 35.6002 75.0998 35.6002C74.4998 35.6002 73.8998 35.5002 73.3998 35.3002C72.8998 35.1002 72.3998 34.8002 71.9998 34.4002C71.5998 34.0002 71.2998 33.5002 71.0998 32.9002C70.8998 32.3002 70.7998 31.6002 70.7998 30.9002C70.7998 30.3002 70.8998 29.7002 71.0998 29.2002C71.2998 28.7002 71.5998 28.2002 71.8998 27.8002C72.1998 27.4002 72.6998 27.1002 73.1998 26.9002C73.6998 26.7002 74.2998 26.7002 74.8998 26.7002ZM74.9998 28.2002C74.3998 28.2002 73.8998 28.4002 73.5998 28.7002C73.2998 29.0002 72.9998 29.5002 72.8998 30.2002H76.7998C76.7998 29.9002 76.7998 29.7002 76.6998 29.4002C76.5998 29.2002 76.4998 28.9002 76.3998 28.8002C76.1998 28.6002 76.0998 28.5002 75.7998 28.4002C75.4998 28.2002 75.2998 28.2002 74.9998 28.2002Z" fill="white"/>
<path d="M88.9999 28.6008C88.8999 28.7008 88.8999 28.7008 88.7999 28.8008C88.6999 28.9008 88.6999 28.9008 88.4999 28.9008C88.3999 28.9008 88.2999 28.9008 88.1999 28.8008C88.0999 28.7008 87.9999 28.7008 87.7999 28.6008C87.6999 28.5008 87.4999 28.4008 87.2999 28.4008C87.0999 28.3008 86.8999 28.3008 86.5999 28.3008C86.1999 28.3008 85.8999 28.4008 85.5999 28.5008C85.2999 28.6008 85.0999 28.8008 84.8999 29.1008C84.6999 29.3008 84.5999 29.7008 84.4999 30.0008C84.3999 30.4008 84.3999 30.8008 84.3999 31.2008C84.3999 31.7008 84.3999 32.1008 84.4999 32.4008C84.5999 32.8008 84.6999 33.1008 84.8999 33.3008C85.0999 33.5008 85.2999 33.7008 85.5999 33.9008C85.8999 34.0008 86.1999 34.1008 86.4999 34.1008C86.7999 34.1008 87.0999 34.1008 87.2999 34.0008C87.4999 33.9008 87.6999 33.8008 87.7999 33.7008C87.8999 33.6008 88.0999 33.5008 88.1999 33.4008C88.2999 33.3008 88.3999 33.3008 88.5999 33.3008C88.7999 33.3008 88.8999 33.4008 88.9999 33.5008L89.5999 34.3008C89.3999 34.6008 89.0999 34.8008 88.7999 35.0008C88.4999 35.2008 88.1999 35.3008 87.9999 35.4008C87.6999 35.5008 87.3999 35.6008 87.0999 35.6008C86.7999 35.6008 86.4999 35.7008 86.1999 35.7008C85.6999 35.7008 85.1999 35.6008 84.6999 35.4008C84.1999 35.2008 83.7999 34.9008 83.4999 34.5008C83.0999 34.1008 82.8999 33.6008 82.6999 33.1008C82.4999 32.5008 82.3999 31.9008 82.3999 31.2008C82.3999 30.6008 82.4999 30.0008 82.6999 29.4008C82.8999 28.8008 83.1999 28.4008 83.4999 28.0008C83.7999 27.6008 84.2999 27.3008 84.7999 27.1008C85.2999 26.9008 85.8999 26.8008 86.5999 26.8008C87.2999 26.8008 87.7999 26.9008 88.2999 27.1008C88.7999 27.3008 89.1999 27.6008 89.5999 28.0008L88.9999 28.6008Z" fill="white"/>
<path d="M94.1998 26.7002C94.8998 26.7002 95.3998 26.8002 95.9998 27.0002C96.5998 27.2002 96.9998 27.5002 97.3998 27.9002C97.7998 28.3002 98.0998 28.8002 98.2998 29.3002C98.4998 29.9002 98.5998 30.5002 98.5998 31.2002C98.5998 31.9002 98.4998 32.5002 98.2998 33.1002C98.0998 33.7002 97.7998 34.1002 97.3998 34.5002C96.9998 34.9002 96.5998 35.2002 95.9998 35.4002C95.4998 35.6002 94.8998 35.7002 94.1998 35.7002C93.4998 35.7002 92.9998 35.6002 92.3998 35.4002C91.8998 35.2002 91.3998 34.9002 90.9998 34.5002C90.5998 34.1002 90.2998 33.6002 90.0998 33.1002C89.8998 32.5002 89.7998 31.9002 89.7998 31.2002C89.7998 30.5002 89.8998 29.9002 90.0998 29.3002C90.2998 28.7002 90.5998 28.3002 90.9998 27.9002C91.3998 27.5002 91.7998 27.2002 92.3998 27.0002C92.9998 26.8002 93.5998 26.7002 94.1998 26.7002ZM94.1998 34.0002C94.8998 34.0002 95.4998 33.8002 95.7998 33.3002C96.0998 32.8002 96.2998 32.1002 96.2998 31.2002C96.2998 30.3002 96.0998 29.5002 95.7998 29.0002C95.4998 28.5002 94.8998 28.3002 94.1998 28.3002C93.4998 28.3002 92.8998 28.5002 92.5998 29.0002C92.1998 29.5002 92.0998 30.2002 92.0998 31.1002C92.0998 32.0002 92.2998 32.7002 92.5998 33.2002C92.9998 33.8002 93.4998 34.0002 94.1998 34.0002Z" fill="white"/>
<path d="M99.7998 35.5002V26.8002H101.1C101.4 26.8002 101.6 26.9002 101.6 27.2002L101.7 27.9002C101.9 27.7002 102.1 27.6002 102.3 27.4002C102.5 27.3002 102.7 27.1002 102.9 27.0002C103.1 26.9002 103.4 26.8002 103.6 26.8002C103.8 26.8002 104.1 26.7002 104.4 26.7002C104.9 26.7002 105.3 26.8002 105.7 26.9002C106.1 27.0002 106.4 27.3002 106.6 27.6002C106.8 27.9002 107 28.2002 107.2 28.6002C107.4 29.0002 107.4 29.5002 107.4 29.9002V35.5002H105.3V29.9002C105.3 29.4002 105.2 29.0002 104.9 28.7002C104.7 28.4002 104.3 28.3002 103.8 28.3002C103.4 28.3002 103.1 28.4002 102.8 28.5002C102.5 28.7002 102.2 28.9002 101.9 29.2002V35.5002H99.7998Z" fill="white"/>
<path d="M109 35.5002V26.8002H110.3C110.6 26.8002 110.8 26.9002 110.8 27.2002L110.9 27.9002C111.1 27.7002 111.3 27.6002 111.5 27.4002C111.7 27.3002 111.9 27.1002 112.1 27.0002C112.3 26.9002 112.6 26.8002 112.8 26.8002C113 26.8002 113.3 26.7002 113.6 26.7002C114.1 26.7002 114.5 26.8002 114.9 26.9002C115.3 27.0002 115.6 27.3002 115.8 27.6002C116 27.9002 116.2 28.2002 116.4 28.6002C116.6 29.0002 116.6 29.5002 116.6 29.9002V35.5002H114.5V29.9002C114.5 29.4002 114.4 29.0002 114.1 28.7002C113.9 28.4002 113.5 28.3002 113 28.3002C112.6 28.3002 112.3 28.4002 112 28.5002C111.7 28.7002 111.4 28.9002 111.1 29.2002V35.5002H109Z" fill="white"/>
<path d="M121.8 26.7002C122.3 26.7002 122.9 26.8002 123.3 27.0002C123.8 27.2002 124.2 27.4002 124.5 27.8002C124.8 28.1002 125.1 28.6002 125.3 29.0002C125.5 29.5002 125.6 30.0002 125.6 30.7002C125.6 30.9002 125.6 31.0002 125.6 31.1002C125.6 31.2002 125.6 31.3002 125.5 31.3002C125.5 31.4002 125.4 31.4002 125.4 31.4002C125.4 31.4002 125.3 31.4002 125.2 31.4002H119.8C119.9 32.3002 120.1 33.0002 120.5 33.4002C120.9 33.8002 121.5 34.0002 122.2 34.0002C122.5 34.0002 122.8 34.0002 123.1 33.9002C123.3 33.8002 123.6 33.7002 123.7 33.6002C123.9 33.5002 124 33.4002 124.2 33.3002C124.3 33.2002 124.5 33.2002 124.6 33.2002C124.7 33.2002 124.8 33.2002 124.8 33.3002C124.8 33.4002 124.9 33.4002 125 33.4002L125.6 34.2002C125.4 34.5002 125.1 34.7002 124.8 34.9002C124.5 35.1002 124.2 35.2002 123.9 35.3002C123.6 35.4002 123.3 35.5002 122.9 35.5002C122.6 35.5002 122.3 35.6002 122 35.6002C121.4 35.6002 120.8 35.5002 120.3 35.3002C119.8 35.1002 119.3 34.8002 118.9 34.4002C118.5 34.0002 118.2 33.5002 118 32.9002C117.8 32.3002 117.7 31.6002 117.7 30.9002C117.7 30.3002 117.8 29.7002 118 29.2002C118.2 28.7002 118.5 28.2002 118.8 27.8002C119.1 27.4002 119.6 27.1002 120.1 26.9002C120.6 26.7002 121.2 26.7002 121.8 26.7002ZM121.9 28.2002C121.3 28.2002 120.8 28.4002 120.5 28.7002C120.2 29.0002 119.9 29.5002 119.8 30.2002H123.7C123.7 29.9002 123.7 29.7002 123.6 29.4002C123.5 29.2002 123.4 28.9002 123.3 28.8002C123.1 28.6002 123 28.5002 122.7 28.4002C122.5 28.2002 122.2 28.2002 121.9 28.2002Z" fill="white"/>
<path d="M133 28.6008C132.9 28.7008 132.9 28.7008 132.8 28.8008C132.7 28.9008 132.7 28.9008 132.5 28.9008C132.4 28.9008 132.3 28.9008 132.2 28.8008C132.1 28.7008 132 28.7008 131.8 28.6008C131.7 28.5008 131.5 28.4008 131.3 28.4008C131.1 28.3008 130.9 28.3008 130.6 28.3008C130.2 28.3008 129.9 28.4008 129.6 28.5008C129.3 28.6008 129.1 28.8008 128.9 29.1008C128.7 29.3008 128.6 29.7008 128.5 30.0008C128.4 30.4008 128.4 30.8008 128.4 31.2008C128.4 31.7008 128.4 32.1008 128.5 32.4008C128.6 32.8008 128.7 33.1008 128.9 33.3008C129.1 33.5008 129.3 33.7008 129.6 33.9008C129.9 34.0008 130.2 34.1008 130.5 34.1008C130.8 34.1008 131.1 34.1008 131.3 34.0008C131.5 33.9008 131.7 33.8008 131.8 33.7008C131.9 33.6008 132.1 33.5008 132.2 33.4008C132.3 33.3008 132.4 33.3008 132.6 33.3008C132.8 33.3008 132.9 33.4008 133 33.5008L133.6 34.3008C133.4 34.6008 133.1 34.8008 132.8 35.0008C132.5 35.2008 132.2 35.3008 132 35.4008C131.7 35.5008 131.4 35.6008 131.1 35.6008C130.8 35.6008 130.5 35.7008 130.2 35.7008C129.7 35.7008 129.2 35.6008 128.7 35.4008C128.2 35.2008 127.8 34.9008 127.5 34.5008C127.1 34.1008 126.9 33.6008 126.7 33.1008C126.5 32.5008 126.4 31.9008 126.4 31.2008C126.4 30.6008 126.5 30.0008 126.7 29.4008C126.9 28.8008 127.2 28.4008 127.5 28.0008C127.8 27.6008 128.3 27.3008 128.8 27.1008C129.3 26.9008 129.9 26.8008 130.6 26.8008C131.3 26.8008 131.8 26.9008 132.3 27.1008C132.8 27.3008 133.2 27.6008 133.6 28.0008L133 28.6008Z" fill="white"/>
<path d="M137.4 35.6006C136.6 35.6006 136.1 35.4006 135.7 35.0006C135.3 34.6006 135.1 34.0006 135.1 33.2006V28.3006H134.2C134.1 28.3006 134 28.3006 133.9 28.2006C133.8 28.1006 133.8 28.0006 133.8 27.9006V27.1006L135.2 26.9006L135.6 24.5006C135.6 24.4006 135.7 24.3006 135.8 24.2006C135.9 24.1006 136 24.1006 136.1 24.1006H137.2V26.8006H139.5V28.3006H137.2V33.0006C137.2 33.3006 137.3 33.5006 137.4 33.6006C137.5 33.8006 137.7 33.8006 137.9 33.8006C138 33.8006 138.1 33.8006 138.2 33.8006C138.3 33.8006 138.4 33.7006 138.4 33.7006C138.5 33.7006 138.5 33.6006 138.6 33.6006C138.7 33.6006 138.7 33.6006 138.8 33.6006C138.9 33.6006 138.9 33.6006 139 33.6006L139.1 33.7006L139.7 34.7006C139.4 35.0006 139 35.1006 138.6 35.3006C138.3 35.6006 137.9 35.6006 137.4 35.6006Z" fill="white"/>
<path d="M144.3 26.7002C144.8 26.7002 145.4 26.8002 145.8 27.0002C146.3 27.2002 146.7 27.4002 147 27.8002C147.3 28.1002 147.6 28.6002 147.8 29.0002C148 29.5002 148.1 30.0002 148.1 30.7002C148.1 30.9002 148.1 31.0002 148.1 31.1002C148.1 31.2002 148.1 31.3002 148 31.3002C148 31.4002 147.9 31.4002 147.9 31.4002C147.9 31.4002 147.8 31.4002 147.7 31.4002H142.3C142.4 32.3002 142.6 33.0002 143 33.4002C143.4 33.8002 144 34.0002 144.7 34.0002C145 34.0002 145.3 34.0002 145.6 33.9002C145.8 33.8002 146.1 33.7002 146.2 33.6002C146.4 33.5002 146.5 33.4002 146.7 33.3002C146.8 33.2002 147 33.2002 147.1 33.2002C147.2 33.2002 147.3 33.2002 147.3 33.3002C147.3 33.4002 147.4 33.4002 147.5 33.4002L148.1 34.2002C147.9 34.5002 147.6 34.7002 147.3 34.9002C147 35.1002 146.7 35.2002 146.4 35.3002C146.1 35.4002 145.8 35.5002 145.4 35.5002C145.1 35.5002 144.8 35.6002 144.5 35.6002C143.9 35.6002 143.3 35.5002 142.8 35.3002C142.3 35.1002 141.8 34.8002 141.4 34.4002C141 34.0002 140.7 33.5002 140.5 32.9002C140.3 32.3002 140.2 31.6002 140.2 30.9002C140.2 30.3002 140.3 29.7002 140.5 29.2002C140.7 28.7002 141 28.2002 141.3 27.8002C141.6 27.4002 142.1 27.1002 142.6 26.9002C143.1 26.7002 143.7 26.7002 144.3 26.7002ZM144.4 28.2002C143.8 28.2002 143.3 28.4002 143 28.7002C142.7 29.0002 142.4 29.5002 142.3 30.2002H146.2C146.2 29.9002 146.2 29.7002 146.1 29.4002C146 29.2002 145.9 28.9002 145.8 28.8002C145.6 28.6002 145.5 28.5002 145.2 28.4002C145 28.2002 144.7 28.2002 144.4 28.2002Z" fill="white"/>
<path d="M149.4 35.5006V26.8006H150.6C150.8 26.8006 151 26.8006 151.1 26.9006C151.2 27.0006 151.2 27.1006 151.3 27.3006L151.4 28.4006C151.7 27.9006 152.1 27.4006 152.5 27.1006C152.9 26.8006 153.4 26.6006 153.9 26.6006C154.3 26.6006 154.7 26.7006 155 26.9006L154.7 28.5006C154.7 28.6006 154.6 28.7006 154.6 28.7006C154.6 28.7006 154.5 28.8006 154.4 28.8006C154.3 28.8006 154.2 28.8006 154.1 28.7006C154 28.6006 153.8 28.6006 153.5 28.6006C153.1 28.6006 152.7 28.7006 152.4 29.0006C152.1 29.2006 151.8 29.6006 151.6 30.1006V35.5006H149.4Z" fill="white"/>
<path d="M165.6 35.5006H164.7C164.5 35.5006 164.3 35.5006 164.2 35.4006C164.1 35.3006 164 35.2006 163.9 35.0006L163.7 34.4006C163.5 34.6006 163.3 34.8006 163 34.9006C162.8 35.1006 162.6 35.2006 162.3 35.3006C162 35.4006 161.8 35.5006 161.6 35.5006C161.3 35.6006 161.1 35.6006 160.8 35.6006C160.4 35.6006 160.1 35.5006 159.8 35.4006C159.5 35.3006 159.2 35.2006 159 35.0006C158.8 34.8006 158.6 34.6006 158.5 34.3006C158.4 34.0006 158.3 33.7006 158.3 33.3006C158.3 33.0006 158.4 32.6006 158.6 32.3006C158.8 32.0006 159.1 31.7006 159.5 31.4006C159.9 31.1006 160.4 30.9006 161.1 30.8006C161.8 30.6006 162.6 30.5006 163.6 30.5006V30.0006C163.6 29.4006 163.5 29.0006 163.2 28.7006C163 28.4006 162.6 28.3006 162.1 28.3006C161.8 28.3006 161.5 28.3006 161.3 28.4006C161.1 28.5006 160.9 28.6006 160.7 28.7006C160.5 28.8006 160.4 28.9006 160.2 29.0006C160.1 29.1006 159.9 29.1006 159.7 29.1006C159.6 29.1006 159.4 29.1006 159.3 29.0006C159.2 28.9006 159.1 28.8006 159.1 28.7006L158.7 28.0006C159.7 27.1006 160.9 26.6006 162.3 26.6006C162.8 26.6006 163.3 26.7006 163.7 26.9006C164.1 27.1006 164.4 27.3006 164.7 27.6006C165 27.9006 165.2 28.3006 165.3 28.7006C165.4 29.1006 165.5 29.6006 165.5 30.1006V35.5006H165.6ZM161.5 34.2006C161.7 34.2006 161.9 34.2006 162.1 34.1006C162.3 34.1006 162.5 34.0006 162.6 33.9006C162.7 33.8006 162.9 33.7006 163.1 33.6006C163.3 33.5006 163.4 33.4006 163.6 33.2006V31.7006C163 31.7006 162.5 31.7006 162.1 31.8006C161.7 31.9006 161.4 32.0006 161.1 32.1006C160.9 32.2006 160.7 32.4006 160.6 32.5006C160.5 32.6006 160.4 32.8006 160.4 33.0006C160.4 33.4006 160.5 33.6006 160.7 33.8006C160.9 34.1006 161.2 34.2006 161.5 34.2006Z" fill="white"/>
<path d="M171.3 35.5008H169.4L165.9 26.8008H167.6C167.8 26.8008 167.9 26.8008 168 26.9008C168.1 27.0008 168.2 27.1008 168.2 27.2008L169.9 31.9008C170 32.2008 170.1 32.4008 170.1 32.7008C170.1 33.0008 170.2 33.2008 170.3 33.5008C170.4 33.2008 170.4 33.0008 170.5 32.7008C170.6 32.4008 170.6 32.2008 170.7 31.9008L172.4 27.2008C172.4 27.1008 172.5 27.0008 172.6 26.9008C172.7 26.8008 172.8 26.8008 173 26.8008H174.7L171.3 35.5008Z" fill="white"/>
<path d="M178.9 26.7002C179.4 26.7002 180 26.8002 180.4 27.0002C180.9 27.2002 181.3 27.4002 181.6 27.8002C181.9 28.1002 182.2 28.6002 182.4 29.0002C182.6 29.5002 182.7 30.0002 182.7 30.7002C182.7 30.9002 182.7 31.0002 182.7 31.1002C182.7 31.2002 182.7 31.3002 182.6 31.3002C182.5 31.3002 182.5 31.4002 182.5 31.4002C182.5 31.4002 182.4 31.4002 182.3 31.4002H176.9C177 32.3002 177.2 33.0002 177.6 33.4002C178 33.8002 178.6 34.0002 179.3 34.0002C179.6 34.0002 179.9 34.0002 180.2 33.9002C180.4 33.8002 180.7 33.7002 180.8 33.6002C181 33.5002 181.1 33.4002 181.3 33.3002C181.4 33.2002 181.6 33.2002 181.7 33.2002C181.8 33.2002 181.9 33.2002 181.9 33.3002C181.9 33.4002 182 33.4002 182.1 33.4002L182.7 34.2002C182.5 34.5002 182.2 34.7002 181.9 34.9002C181.6 35.1002 181.3 35.2002 181 35.3002C180.7 35.4002 180.4 35.5002 180 35.5002C179.6 35.5002 179.4 35.6002 179.1 35.6002C178.5 35.6002 177.9 35.5002 177.4 35.3002C176.9 35.1002 176.4 34.8002 176 34.4002C175.6 34.0002 175.3 33.5002 175.1 32.9002C174.9 32.3002 174.8 31.6002 174.8 30.9002C174.8 30.3002 174.9 29.7002 175.1 29.2002C175.3 28.7002 175.6 28.2002 175.9 27.8002C176.2 27.4002 176.7 27.1002 177.2 26.9002C177.7 26.7002 178.3 26.7002 178.9 26.7002ZM179 28.2002C178.4 28.2002 177.9 28.4002 177.6 28.7002C177.3 29.0002 177 29.5002 176.9 30.2002H180.8C180.8 29.9002 180.8 29.7002 180.7 29.4002C180.6 29.2002 180.5 28.9002 180.4 28.8002C180.2 28.6002 180.1 28.5002 179.8 28.4002C179.5 28.2002 179.3 28.2002 179 28.2002Z" fill="white"/>
<path d="M190.1 28.6008C190 28.7008 190 28.7008 189.9 28.8008C189.8 28.9008 189.8 28.9008 189.6 28.9008C189.5 28.9008 189.4 28.9008 189.3 28.8008C189.2 28.7008 189.1 28.7008 188.9 28.6008C188.8 28.5008 188.6 28.4008 188.4 28.4008C188.2 28.3008 188 28.3008 187.7 28.3008C187.3 28.3008 187 28.4008 186.7 28.5008C186.4 28.6008 186.2 28.8008 186 29.1008C185.8 29.3008 185.7 29.7008 185.6 30.0008C185.5 30.4008 185.5 30.8008 185.5 31.2008C185.5 31.7008 185.5 32.1008 185.6 32.4008C185.7 32.8008 185.8 33.1008 186 33.3008C186.2 33.5008 186.4 33.7008 186.7 33.9008C187 34.0008 187.3 34.1008 187.6 34.1008C187.9 34.1008 188.2 34.1008 188.4 34.0008C188.6 33.9008 188.8 33.8008 188.9 33.7008C189 33.6008 189.2 33.5008 189.3 33.4008C189.4 33.3008 189.5 33.3008 189.7 33.3008C189.9 33.3008 190 33.4008 190.1 33.5008L190.7 34.3008C190.5 34.6008 190.2 34.8008 189.9 35.0008C189.6 35.2008 189.3 35.3008 189.1 35.4008C188.8 35.5008 188.5 35.6008 188.2 35.6008C187.9 35.6008 187.6 35.7008 187.3 35.7008C186.8 35.7008 186.3 35.6008 185.8 35.4008C185.3 35.2008 184.9 34.9008 184.6 34.5008C184.2 34.1008 184 33.6008 183.8 33.1008C183.6 32.5008 183.5 31.9008 183.5 31.2008C183.5 30.6008 183.6 30.0008 183.8 29.4008C184 28.9008 184.3 28.4008 184.6 28.0008C184.9 27.6008 185.4 27.3008 185.9 27.1008C186.4 26.9008 187 26.8008 187.7 26.8008C188.4 26.8008 188.9 26.9008 189.4 27.1008C189.9 27.3008 190.3 27.6008 190.7 28.0008L190.1 28.6008Z" fill="white"/>
<path d="M197 31.2002V35.5002H194.7V23.2002H198.7C199.5 23.2002 200.2 23.3002 200.8 23.5002C201.4 23.7002 201.9 24.0002 202.3 24.3002C202.7 24.6002 203 25.1002 203.2 25.5002C203.4 26.0002 203.5 26.5002 203.5 27.1002C203.5 27.7002 203.4 28.2002 203.2 28.7002C203 29.2002 202.7 29.6002 202.3 30.0002C201.9 30.4002 201.4 30.6002 200.8 30.8002C200.2 31.0002 199.5 31.1002 198.7 31.1002H197V31.2002ZM197 29.4002H198.7C199.1 29.4002 199.5 29.3002 199.8 29.2002C200.1 29.1002 200.4 28.9002 200.6 28.7002C200.8 28.5002 201 28.3002 201.1 28.0002C201.2 27.7002 201.3 27.4002 201.3 27.1002C201.3 26.8002 201.2 26.5002 201.1 26.2002C201 25.9002 200.8 25.7002 200.6 25.5002C200.4 25.3002 200.1 25.2002 199.8 25.1002C199.5 25.0002 199.1 25.0002 198.7 25.0002H197V29.4002Z" fill="white"/>
<path d="M208.2 26.7006C208.9 26.7006 209.4 26.8006 210 27.0006C210.6 27.2006 211 27.5006 211.4 27.9006C211.8 28.3006 212.1 28.8006 212.3 29.3006C212.5 29.9006 212.6 30.5006 212.6 31.2006C212.6 31.9006 212.5 32.5006 212.3 33.1006C212.1 33.7006 211.8 34.1006 211.4 34.5006C211 34.9006 210.6 35.2006 210 35.4006C209.5 35.6006 208.9 35.7006 208.2 35.7006C207.5 35.7006 207 35.6006 206.4 35.4006C205.9 35.2006 205.4 34.9006 205 34.5006C204.6 34.1006 204.3 33.6006 204.1 33.1006C203.9 32.5006 203.8 31.9006 203.8 31.2006C203.8 30.5006 203.9 29.9006 204.1 29.3006C204.3 28.7006 204.6 28.3006 205 27.9006C205.4 27.5006 205.8 27.2006 206.4 27.0006C206.9 26.8006 207.5 26.7006 208.2 26.7006ZM211.1 25.6006H209.7C209.5 25.6006 209.4 25.5006 209.3 25.4006L208.4 24.6006L208.3 24.5006L208.2 24.4006L208.1 24.5006L208 24.6006L207.1 25.4006C207.1 25.4006 207 25.5006 206.9 25.5006C206.8 25.5006 206.7 25.5006 206.7 25.5006H205.2L207.1 23.1006H209.1L211.1 25.6006ZM208.2 34.0006C208.9 34.0006 209.5 33.8006 209.8 33.3006C210.1 32.8006 210.3 32.1006 210.3 31.2006C210.3 30.3006 210.1 29.5006 209.8 29.0006C209.5 28.5006 208.9 28.3006 208.2 28.3006C207.5 28.3006 206.9 28.5006 206.6 29.0006C206.2 29.5006 206.1 30.2006 206.1 31.1006C206.1 32.0006 206.3 32.7006 206.6 33.2006C206.9 33.7006 207.4 34.0006 208.2 34.0006Z" fill="white"/>
<path d="M215.9 22.9004V35.5004H213.8V22.9004H215.9Z" fill="white"/>
<path d="M221.5 26.7002C222 26.7002 222.6 26.8002 223 27.0002C223.5 27.2002 223.9 27.4002 224.2 27.8002C224.5 28.1002 224.8 28.6002 225 29.0002C225.2 29.5002 225.3 30.0002 225.3 30.7002C225.3 30.9002 225.3 31.0002 225.3 31.1002C225.3 31.2002 225.3 31.3002 225.2 31.3002C225.1 31.3002 225.1 31.4002 225.1 31.4002C225 31.4002 225 31.4002 224.9 31.4002H219.5C219.6 32.3002 219.8 33.0002 220.2 33.4002C220.6 33.8002 221.2 34.0002 221.9 34.0002C222.2 34.0002 222.5 34.0002 222.8 33.9002C223 33.8002 223.3 33.7002 223.4 33.6002C223.6 33.5002 223.7 33.4002 223.9 33.3002C224 33.2002 224.2 33.2002 224.3 33.2002C224.4 33.2002 224.5 33.2002 224.5 33.3002C224.6 33.3002 224.6 33.4002 224.7 33.4002L225.3 34.2002C225.1 34.5002 224.8 34.7002 224.5 34.9002C224.2 35.1002 223.9 35.2002 223.6 35.3002C223.3 35.4002 223 35.5002 222.6 35.5002C222.3 35.5002 222 35.6002 221.7 35.6002C221.1 35.6002 220.5 35.5002 220 35.3002C219.5 35.1002 219 34.8002 218.6 34.4002C218.2 34.0002 217.9 33.5002 217.7 32.9002C217.5 32.3002 217.4 31.6002 217.4 30.9002C217.4 30.3002 217.5 29.7002 217.7 29.2002C217.9 28.7002 218.2 28.2002 218.5 27.8002C218.9 27.4002 219.3 27.1002 219.8 26.9002C220.3 26.7002 220.8 26.7002 221.5 26.7002ZM221.5 28.2002C220.9 28.2002 220.4 28.4002 220.1 28.7002C219.8 29.0002 219.5 29.5002 219.4 30.2002H223.3C223.3 29.9002 223.3 29.7002 223.2 29.4002C223.1 29.2002 223 28.9002 222.9 28.8002C222.7 28.6002 222.6 28.5002 222.3 28.4002C222.1 28.2002 221.8 28.2002 221.5 28.2002Z" fill="white"/>
<path d="M233 26.7002C233.5 26.7002 234.1 26.8002 234.5 27.0002C235 27.2002 235.4 27.4002 235.7 27.8002C236 28.1002 236.3 28.6002 236.5 29.0002C236.7 29.5002 236.8 30.0002 236.8 30.7002C236.8 30.9002 236.8 31.0002 236.8 31.1002C236.8 31.2002 236.8 31.3002 236.7 31.3002C236.6 31.3002 236.6 31.4002 236.6 31.4002C236.5 31.4002 236.5 31.4002 236.4 31.4002H231C231.1 32.3002 231.3 33.0002 231.7 33.4002C232.1 33.8002 232.7 34.0002 233.4 34.0002C233.7 34.0002 234 34.0002 234.3 33.9002C234.5 33.8002 234.8 33.7002 234.9 33.6002C235.1 33.5002 235.2 33.4002 235.4 33.3002C235.5 33.2002 235.7 33.2002 235.8 33.2002C235.9 33.2002 236 33.2002 236 33.3002C236.1 33.3002 236.1 33.4002 236.2 33.4002L236.8 34.2002C236.6 34.5002 236.3 34.7002 236 34.9002C235.7 35.1002 235.4 35.2002 235.1 35.3002C234.8 35.4002 234.5 35.5002 234.1 35.5002C233.8 35.5002 233.5 35.6002 233.2 35.6002C232.6 35.6002 232 35.5002 231.5 35.3002C231 35.1002 230.5 34.8002 230.1 34.4002C229.7 34.0002 229.4 33.5002 229.2 32.9002C229 32.3002 228.9 31.6002 228.9 30.9002C228.9 30.3002 229 29.7002 229.2 29.2002C229.4 28.7002 229.7 28.2002 230 27.8002C230.4 27.4002 230.8 27.1002 231.3 26.9002C231.8 26.7002 232.3 26.7002 233 26.7002ZM233 28.2002C232.4 28.2002 231.9 28.4002 231.6 28.7002C231.3 29.0002 231 29.5002 230.9 30.2002H234.8C234.8 29.9002 234.8 29.7002 234.7 29.4002C234.6 29.2002 234.5 28.9002 234.4 28.8002C234.2 28.6002 234.1 28.5002 233.8 28.4002C233.6 28.2002 233.3 28.2002 233 28.2002Z" fill="white"/>
<path d="M238.1 35.5006V26.8006H239.4C239.7 26.8006 239.9 26.9006 239.9 27.2006L240 27.8006C240.2 27.6006 240.3 27.5006 240.5 27.3006C240.7 27.2006 240.8 27.0006 241 26.9006C241.2 26.8006 241.4 26.7006 241.6 26.7006C241.8 26.6006 242.1 26.6006 242.3 26.6006C242.8 26.6006 243.3 26.7006 243.7 27.0006C244.1 27.3006 244.3 27.7006 244.5 28.2006C244.6 27.9006 244.8 27.7006 245 27.5006C245.2 27.3006 245.4 27.1006 245.7 27.0006C245.9 26.9006 246.2 26.8006 246.5 26.7006C246.8 26.6006 247.1 26.6006 247.3 26.6006C247.8 26.6006 248.2 26.7006 248.6 26.8006C249 26.9006 249.3 27.2006 249.5 27.4006C249.8 27.7006 249.9 28.0006 250.1 28.4006C250.2 28.8006 250.3 29.3006 250.3 29.8006V35.5006H248.2V29.9006C248.2 29.3006 248.1 28.9006 247.8 28.6006C247.6 28.3006 247.2 28.2006 246.7 28.2006C246.5 28.2006 246.3 28.2006 246.1 28.3006C245.9 28.4006 245.8 28.5006 245.6 28.6006C245.5 28.7006 245.4 28.9006 245.3 29.1006C245.2 29.3006 245.2 29.6006 245.2 29.8006V35.5006H243.1V29.9006C243.1 29.3006 243 28.9006 242.7 28.6006C242.5 28.3006 242.1 28.2006 241.7 28.2006C241.4 28.2006 241.1 28.3006 240.9 28.4006C240.6 28.5006 240.4 28.8006 240.2 29.0006V35.5006H238.1Z" fill="white"/>
<path d="M251.9 38.4006V26.8006H253.2C253.3 26.8006 253.5 26.8006 253.5 26.9006C253.5 27.0006 253.7 27.1006 253.7 27.2006L253.9 28.0006C254.3 27.6006 254.7 27.3006 255.1 27.0006C255.6 26.8006 256.1 26.6006 256.7 26.6006C257.2 26.6006 257.6 26.7006 258 26.9006C258.4 27.1006 258.7 27.4006 259 27.8006C259.3 28.2006 259.5 28.6006 259.7 29.2006C259.9 29.8006 259.9 30.4006 259.9 31.1006C259.9 31.8006 259.8 32.4006 259.6 32.9006C259.4 33.5006 259.2 33.9006 258.8 34.3006C258.5 34.7006 258.1 35.0006 257.6 35.3006C257.1 35.5006 256.6 35.6006 256 35.6006C255.5 35.6006 255.1 35.5006 254.7 35.4006C254.3 35.3006 254 35.0006 253.8 34.8006V38.4006H251.9ZM256 28.3006C255.6 28.3006 255.2 28.4006 254.9 28.6006C254.6 28.8006 254.3 29.0006 254 29.4006V33.3006C254.2 33.6006 254.5 33.8006 254.8 33.9006C255.1 34.0006 255.4 34.1006 255.7 34.1006C256 34.1006 256.3 34.0006 256.6 33.9006C256.9 33.8006 257.1 33.6006 257.3 33.4006C257.5 33.2006 257.6 32.8006 257.7 32.5006C257.8 32.2006 257.8 31.7006 257.8 31.2006C257.8 30.7006 257.8 30.3006 257.7 29.9006C257.6 29.5006 257.5 29.3006 257.3 29.0006C257.1 28.8006 257 28.6006 256.7 28.5006C256.5 28.3006 256.3 28.3006 256 28.3006Z" fill="white"/>
<path d="M263.4 22.9004V35.5004H261.3V22.9004H263.4Z" fill="white"/>
<path d="M269 26.7002C269.7 26.7002 270.2 26.8002 270.8 27.0002C271.4 27.2002 271.8 27.5002 272.2 27.9002C272.6 28.3002 272.9 28.8002 273.1 29.3002C273.3 29.9002 273.4 30.5002 273.4 31.2002C273.4 31.9002 273.3 32.5002 273.1 33.1002C272.9 33.7002 272.6 34.1002 272.2 34.5002C271.8 34.9002 271.4 35.2002 270.8 35.4002C270.3 35.6002 269.7 35.7002 269 35.7002C268.3 35.7002 267.8 35.6002 267.2 35.4002C266.7 35.2002 266.2 34.9002 265.8 34.5002C265.4 34.1002 265.1 33.6002 264.9 33.1002C264.7 32.5002 264.6 31.9002 264.6 31.2002C264.6 30.5002 264.7 29.9002 264.9 29.3002C265.1 28.7002 265.4 28.3002 265.8 27.9002C266.2 27.5002 266.6 27.2002 267.2 27.0002C267.8 26.8002 268.4 26.7002 269 26.7002ZM269 34.0002C269.7 34.0002 270.3 33.8002 270.6 33.3002C270.9 32.8002 271.1 32.1002 271.1 31.2002C271.1 30.3002 270.9 29.5002 270.6 29.0002C270.3 28.5002 269.7 28.3002 269 28.3002C268.3 28.3002 267.7 28.5002 267.4 29.0002C267 29.5002 266.9 30.2002 266.9 31.1002C266.9 32.0002 267.1 32.7002 267.4 33.2002C267.7 33.7002 268.3 34.0002 269 34.0002Z" fill="white"/>
<path d="M277.1 24.2004C277.1 24.4004 277.1 24.6004 277 24.7004C276.9 24.9004 276.8 25.0004 276.7 25.1004C276.6 25.2004 276.4 25.3004 276.3 25.4004C276.2 25.5004 276 25.5004 275.8 25.5004C275.6 25.5004 275.4 25.5004 275.3 25.4004C275.2 25.3004 275 25.2004 274.9 25.1004C274.8 25.0004 274.7 24.8004 274.6 24.7004C274.5 24.5004 274.5 24.4004 274.5 24.2004C274.5 24.0004 274.5 23.8004 274.6 23.7004C274.7 23.5004 274.8 23.4004 274.9 23.3004C275 23.2004 275.2 23.1004 275.3 23.0004C275.4 22.9004 275.6 22.9004 275.8 22.9004C276 22.9004 276.2 22.9004 276.3 23.0004C276.4 23.1004 276.6 23.2004 276.7 23.3004C276.8 23.4004 276.9 23.6004 277 23.7004C277.1 23.9004 277.1 24.1004 277.1 24.2004ZM276.8 26.8004V35.5004H274.7V26.8004H276.8Z" fill="white"/>
</svg>
