<svg width="297" height="60" fill="none" xmlns="http://www.w3.org/2000/svg"><path d="M0 4a4 4 0 0 1 4-4h289a4 4 0 0 1 4 4v52a4 4 0 0 1-4 4H4a4 4 0 0 1-4-4V4Z" fill="#1B2E57"/><path d="M30 0h237c16.6 0 30 13.4 30 30s-13.4 30-30 30H30C13.4 60 0 46.6 0 30S13.4 0 30 0Z" fill="#1B2E57"/><path d="M36.6 37.4c-1.9-2.1-2.9-4.8-2.7-7.6 0-1.5.2-2.9.7-4.3.4-1.2 1.1-2.4 2-3.3.9-.9 2-1.7 3.2-2.1 1.3-.5 2.8-.8 4.2-.7 1.3 0 2.7.2 4 .7a15.74 15.74 0 0 0-24.7 19.5c5.4 6.8 15.3 8 22.1 2.6.9-.7 1.7-1.5 2.4-2.4-1.1.3-2.2.4-3.4.4-3.5 0-6-.9-7.8-2.8Z" fill="#fff"/><path d="M39.2 28.4h8.9c.3 0 .6-.2.6-.5 0-1.5-.6-2.9-1.5-4-.9-1-2.2-1.5-3.5-1.4-1.3 0-2.6.5-3.5 1.5a7.1 7.1 0 0 0-1.6 4c0 .1.3.4.6.4ZM49.2 30.8h-10c-.3 0-.6.2-.6.5v.1c0 1 .3 2.1.8 3 .9 1.8 2.7 3 4.7 2.9.6 0 1.2-.1 1.8-.2.6-.2 1.1-.4 1.6-.7.5-.3 1-.6 1.4-1 .4-.4 1.2-1.1 1.5-1.4.1-.1.2-.1.3-.2.3-1 .4-2.1.5-3.2-.7.2-1.3.2-2 .2ZM48 39.7c2-.7 4.2-2.7 4.6-4.5.2-1.2-.5-1.5-.9-1.5h-.2c-.3 0-.5.1-.8.2-.6 2.2-1.6 4.2-3.1 6l.4-.2ZM51.2 30.6c.4-.1.8-.2 1.1-.4.6-.3 1-1 1-2.3a8.63 8.63 0 0 0-5.5-7.9c2.2 2.8 3.4 6.2 3.4 9.7v.9Z" fill="#fff"/><path d="M48.9 35.3c-.4.4-.9.7-1.4 1-.5.3-1 .6-1.6.7-.6.2-1.2.2-1.8.2-2 0-3.9-1.1-4.7-2.9-.5-.9-.7-2-.8-3 0-.3.2-.6.5-.6h10.1c.7 0 1.3-.1 1.9-.2v-.8c0-3.5-1.2-7-3.4-9.7-1.3-.5-2.6-.7-4-.7s-2.9.2-4.2.7c-1.2.5-2.2 1.2-3.1 2.1-.9.9-1.6 2.1-2 3.3-.5 1.4-.7 2.8-.7 4.2-.2 2.8.8 5.6 2.7 7.6 1.8 1.9 4.3 2.8 7.7 2.8 1.1 0 2.3-.1 3.4-.4 1.4-1.8 2.5-3.8 3.1-6-.1 0-.2.1-.3.2-.2.4-1 1.2-1.4 1.5Zm-10.3-7.5c.1-1.5.6-2.9 1.6-4 .9-1 2.1-1.5 3.5-1.5a5 5 0 0 1 3.5 1.4c.9 1.1 1.5 2.5 1.5 4 0 .3-.3.6-.6.5h-8.9c-.3.2-.6-.1-.6-.4Z" fill="#1B2E57"/><path d="M69.3 25.5c-.1.1-.1.2-.2.3-.1.1-.2.1-.3.1-.1 0-.2 0-.4-.1s-.3-.2-.5-.3c-.2-.1-.4-.2-.7-.3-.3-.1-.6-.1-.9-.1-.3 0-.6 0-.8.1l-.6.3c-.2.1-.3.3-.4.5-.1.2-.1.4-.1.6 0 .3.1.5.2.7.2.2.4.4.6.5.3.1.6.3.9.4l1 .3c.4.1.7.3 1 .4l.9.6c.3.2.5.5.6.9.2.4.2.8.2 1.3 0 .6-.1 1.1-.3 1.6-.2.5-.5.9-.8 1.3-.4.4-.8.6-1.3.9-.5.2-1.1.3-1.8.3-.4 0-.8 0-1.2-.1l-1.1-.3a4.67 4.67 0 0 1-1.8-1.2l.7-1.1.2-.2c.1-.1.2-.1.3-.1.1 0 .3.1.5.2s.4.2.6.4c.2.1.5.3.8.4.3.1.7.2 1.1.2.7 0 1.2-.2 1.5-.5.4-.3.5-.8.5-1.3 0-.3-.1-.6-.2-.8-.2-.2-.4-.4-.6-.5-.3-.1-.6-.3-.9-.4l-1-.3a3 3 0 0 1-1-.4l-.9-.6c-.3-.3-.5-.6-.6-1-.2-.4-.2-.9-.2-1.4 0-.4.1-.9.3-1.3.2-.4.4-.8.8-1.1.3-.3.8-.6 1.3-.8.5-.2 1.1-.3 1.7-.3.7 0 1.4.1 2 .3.6.2 1.1.5 1.6 1l-.7.9ZM74.9 26.7c.5 0 1.1.1 1.5.3.5.2.9.4 1.2.8.3.3.6.8.8 1.2.2.5.3 1 .3 1.7v.4c0 .1 0 .2-.1.2 0 .1-.1.1-.1.1H72.9c.1.9.3 1.6.7 2 .4.4 1 .6 1.7.6.3 0 .6 0 .9-.1.2-.1.5-.2.6-.3.2-.1.3-.2.5-.3.1-.1.3-.1.4-.1.1 0 .2 0 .2.1s.1.1.2.1l.6.8a3.55 3.55 0 0 1-1.7 1.1c-.3.1-.6.2-1 .2-.3 0-.6.1-.9.1a4.2 4.2 0 0 1-3.1-1.2c-.4-.4-.7-.9-.9-1.5-.2-.6-.3-1.3-.3-2 0-.6.1-1.2.3-1.7.2-.5.5-1 .8-1.4.3-.4.8-.7 1.3-.9.5-.2 1.1-.2 1.7-.2Zm.1 1.5c-.6 0-1.1.2-1.4.5-.3.3-.6.8-.7 1.5h3.9c0-.3 0-.5-.1-.8-.1-.2-.2-.5-.3-.6-.2-.2-.3-.3-.6-.4-.3-.2-.5-.2-.8-.2ZM89 28.6l-.2.2c-.1.1-.1.1-.3.1-.1 0-.2 0-.3-.1-.1-.1-.2-.1-.4-.2-.1-.1-.3-.2-.5-.2-.2-.1-.4-.1-.7-.1-.4 0-.7.1-1 .2-.3.1-.5.3-.7.6-.2.2-.3.6-.4.9-.1.4-.1.8-.1 1.2 0 .5 0 .9.1 1.2.1.4.2.7.4.9.2.2.4.4.7.6.3.1.6.2.9.2.3 0 .6 0 .8-.1.2-.1.4-.2.5-.3.1-.1.3-.2.4-.3.1-.1.2-.1.4-.1s.3.1.4.2l.6.8c-.2.3-.5.5-.8.7-.3.2-.6.3-.8.4-.3.1-.6.2-.9.2-.3 0-.6.1-.9.1-.5 0-1-.1-1.5-.3-.5-.2-.9-.5-1.2-.9-.4-.4-.6-.9-.8-1.4a5.82 5.82 0 0 1 0-3.7c.2-.6.5-1 .8-1.4.3-.4.8-.7 1.3-.9.5-.2 1.1-.3 1.8-.3s1.2.1 1.7.3c.5.2.9.5 1.3.9l-.6.6ZM94.2 26.7c.7 0 1.2.1 1.8.3.6.2 1 .5 1.4.9.4.4.7.9.9 1.4.2.6.3 1.2.3 1.9s-.1 1.3-.3 1.9c-.2.6-.5 1-.9 1.4-.4.4-.8.7-1.4.9-.5.2-1.1.3-1.8.3s-1.2-.1-1.8-.3c-.5-.2-1-.5-1.4-.9-.4-.4-.7-.9-.9-1.4-.2-.6-.3-1.2-.3-1.9s.1-1.3.3-1.9c.2-.6.5-1 .9-1.4.4-.4.8-.7 1.4-.9.6-.2 1.2-.3 1.8-.3Zm0 7.3c.7 0 1.3-.2 1.6-.7.3-.5.5-1.2.5-2.1 0-.9-.2-1.7-.5-2.2-.3-.5-.9-.7-1.6-.7-.7 0-1.3.2-1.6.7-.4.5-.5 1.2-.5 2.1 0 .9.2 1.6.5 2.1.4.6.9.8 1.6.8ZM99.8 35.5v-8.7h1.3c.3 0 .5.1.5.4l.1.7c.2-.2.4-.3.6-.5.2-.1.4-.3.6-.4.2-.1.5-.2.7-.2.2 0 .5-.1.8-.1.5 0 .9.1 1.3.2s.7.4.9.7c.2.3.4.6.6 1 .2.4.2.9.2 1.3v5.6h-2.1v-5.6c0-.5-.1-.9-.4-1.2-.2-.3-.6-.4-1.1-.4-.4 0-.7.1-1 .2-.3.2-.6.4-.9.7v6.3h-2.1ZM109 35.5v-8.7h1.3c.3 0 .5.1.5.4l.1.7c.2-.2.4-.3.6-.5.2-.1.4-.3.6-.4.2-.1.5-.2.7-.2.2 0 .5-.1.8-.1.5 0 .9.1 1.3.2s.7.4.9.7c.2.3.4.6.6 1 .2.4.2.9.2 1.3v5.6h-2.1v-5.6c0-.5-.1-.9-.4-1.2-.2-.3-.6-.4-1.1-.4-.4 0-.7.1-1 .2-.3.2-.6.4-.9.7v6.3H109ZM121.8 26.7c.5 0 1.1.1 1.5.3.5.2.9.4 1.2.8.3.3.6.8.8 1.2.2.5.3 1 .3 1.7v.4c0 .1 0 .2-.1.2 0 .1-.1.1-.1.1H119.8c.1.9.3 1.6.7 2 .4.4 1 .6 1.7.6.3 0 .6 0 .9-.1.2-.1.5-.2.6-.3.2-.1.3-.2.5-.3.1-.1.3-.1.4-.1.1 0 .2 0 .2.1s.1.1.2.1l.6.8a3.55 3.55 0 0 1-1.7 1.1c-.3.1-.6.2-1 .2-.3 0-.6.1-.9.1a4.2 4.2 0 0 1-3.1-1.2c-.4-.4-.7-.9-.9-1.5-.2-.6-.3-1.3-.3-2 0-.6.1-1.2.3-1.7.2-.5.5-1 .8-1.4.3-.4.8-.7 1.3-.9.5-.2 1.1-.2 1.7-.2Zm.1 1.5c-.6 0-1.1.2-1.4.5-.3.3-.6.8-.7 1.5h3.9c0-.3 0-.5-.1-.8-.1-.2-.2-.5-.3-.6-.2-.2-.3-.3-.6-.4-.2-.2-.5-.2-.8-.2ZM133 28.6l-.2.2c-.1.1-.1.1-.3.1-.1 0-.2 0-.3-.1-.1-.1-.2-.1-.4-.2-.1-.1-.3-.2-.5-.2-.2-.1-.4-.1-.7-.1-.4 0-.7.1-1 .2-.3.1-.5.3-.7.6-.2.2-.3.6-.4.9-.1.4-.1.8-.1 1.2 0 .5 0 .9.1 1.2.1.4.2.7.4.9.2.2.4.4.7.6.3.1.6.2.9.2.3 0 .6 0 .8-.1.2-.1.4-.2.5-.3.1-.1.3-.2.4-.3.1-.1.2-.1.4-.1s.3.1.4.2l.6.8c-.2.3-.5.5-.8.7-.3.2-.6.3-.8.4-.3.1-.6.2-.9.2-.3 0-.6.1-.9.1-.5 0-1-.1-1.5-.3-.5-.2-.9-.5-1.2-.9-.4-.4-.6-.9-.8-1.4a5.82 5.82 0 0 1 0-3.7c.2-.6.5-1 .8-1.4.3-.4.8-.7 1.3-.9.5-.2 1.1-.3 1.8-.3s1.2.1 1.7.3c.5.2.9.5 1.3.9l-.6.6ZM137.4 35.6c-.8 0-1.3-.2-1.7-.6-.4-.4-.6-1-.6-1.8v-4.9h-.9c-.1 0-.2 0-.3-.1-.1-.1-.1-.2-.1-.3v-.8l1.4-.2.4-2.4c0-.1.1-.2.2-.3.1-.1.2-.1.3-.1h1.1v2.7h2.3v1.5h-2.3V33c0 .3.1.5.2.6.1.2.3.2.5.2h.3c.1 0 .2-.1.2-.1.1 0 .1-.1.2-.1h.4l.1.1.6 1c-.3.3-.7.4-1.1.6-.3.3-.7.3-1.2.3ZM144.3 26.7c.5 0 1.1.1 1.5.3.5.2.9.4 1.2.8.3.3.6.8.8 1.2.2.5.3 1 .3 1.7v.4c0 .1 0 .2-.1.2 0 .1-.1.1-.1.1H142.3c.1.9.3 1.6.7 2 .4.4 1 .6 1.7.6.3 0 .6 0 .9-.1.2-.1.5-.2.6-.3.2-.1.3-.2.5-.3.1-.1.3-.1.4-.1.1 0 .2 0 .2.1s.1.1.2.1l.6.8c-.2.3-.5.5-.8.7-.3.2-.6.3-.9.4-.3.1-.6.2-1 .2-.3 0-.6.1-.9.1a4.2 4.2 0 0 1-3.1-1.2c-.4-.4-.7-.9-.9-1.5-.2-.6-.3-1.3-.3-2 0-.6.1-1.2.3-1.7.2-.5.5-1 .8-1.4.3-.4.8-.7 1.3-.9.5-.2 1.1-.2 1.7-.2Zm.1 1.5c-.6 0-1.1.2-1.4.5-.3.3-.6.8-.7 1.5h3.9c0-.3 0-.5-.1-.8-.1-.2-.2-.5-.3-.6-.2-.2-.3-.3-.6-.4-.2-.2-.5-.2-.8-.2ZM149.4 35.5v-8.7h1.2c.2 0 .4 0 .5.1.1.1.1.2.2.4l.1 1.1c.3-.5.7-1 1.1-1.3.4-.3.9-.5 1.4-.5.4 0 .8.1 1.1.3l-.3 1.6c0 .1-.1.2-.1.2s-.1.1-.2.1-.2 0-.3-.1c-.1-.1-.3-.1-.6-.1-.4 0-.8.1-1.1.4-.3.2-.6.6-.8 1.1v5.4h-2.2ZM165.6 35.5h-.9c-.2 0-.4 0-.5-.1-.1-.1-.2-.2-.3-.4l-.2-.6c-.2.2-.4.4-.7.5-.2.2-.4.3-.7.4-.3.1-.5.2-.7.2-.3.1-.5.1-.8.1-.4 0-.7-.1-1-.2-.3-.1-.6-.2-.8-.4-.2-.2-.4-.4-.5-.7-.1-.3-.2-.6-.2-1 0-.3.1-.7.3-1 .2-.3.5-.6.9-.9.4-.3.9-.5 1.6-.6a9 9 0 0 1 2.5-.3V30c0-.6-.1-1-.4-1.3-.2-.3-.6-.4-1.1-.4-.3 0-.6 0-.8.1l-.6.3c-.2.1-.3.2-.5.3-.1.1-.3.1-.5.1-.1 0-.3 0-.4-.1-.1-.1-.2-.2-.2-.3l-.4-.7c1-.9 2.2-1.4 3.6-1.4.5 0 1 .1 1.4.3.4.2.7.4 1 .7.3.3.5.7.6 1.1.1.4.2.9.2 1.4v5.4h.1Zm-4.1-1.3c.2 0 .4 0 .6-.1.2 0 .4-.1.5-.2.1-.1.3-.2.5-.3.2-.1.3-.2.5-.4v-1.5c-.6 0-1.1 0-1.5.1-.4.1-.7.2-1 .3-.2.1-.4.3-.5.4-.1.1-.2.3-.2.5 0 .4.1.6.3.8.2.3.5.4.8.4ZM171.3 35.5h-1.9l-3.5-8.7h1.7c.2 0 .3 0 .4.1.1.1.2.2.2.3l1.7 4.7c.1.3.2.5.2.8 0 .3.1.5.2.8.1-.3.1-.5.2-.8.1-.3.1-.5.2-.8l1.7-4.7c0-.1.1-.2.2-.3.1-.1.2-.1.4-.1h1.7l-3.4 8.7ZM178.9 26.7c.5 0 1.1.1 1.5.3.5.2.9.4 1.2.8.3.3.6.8.8 1.2.2.5.3 1 .3 1.7v.4c0 .1 0 .2-.1.2s-.1.1-.1.1H176.9c.1.9.3 1.6.7 2 .4.4 1 .6 1.7.6.3 0 .6 0 .9-.1.2-.1.5-.2.6-.3.2-.1.3-.2.5-.3.1-.1.3-.1.4-.1.1 0 .2 0 .2.1s.1.1.2.1l.6.8a3.55 3.55 0 0 1-1.7 1.1c-.3.1-.6.2-1 .2s-.6.1-.9.1a4.2 4.2 0 0 1-3.1-1.2c-.4-.4-.7-.9-.9-1.5-.2-.6-.3-1.3-.3-2 0-.6.1-1.2.3-1.7.2-.5.5-1 .8-1.4.3-.4.8-.7 1.3-.9.5-.2 1.1-.2 1.7-.2Zm.1 1.5c-.6 0-1.1.2-1.4.5-.3.3-.6.8-.7 1.5h3.9c0-.3 0-.5-.1-.8-.1-.2-.2-.5-.3-.6-.2-.2-.3-.3-.6-.4-.3-.2-.5-.2-.8-.2ZM190.1 28.6l-.2.2c-.1.1-.1.1-.3.1-.1 0-.2 0-.3-.1-.1-.1-.2-.1-.4-.2-.1-.1-.3-.2-.5-.2-.2-.1-.4-.1-.7-.1-.4 0-.7.1-1 .2-.3.1-.5.3-.7.6-.2.2-.3.6-.4.9-.1.4-.1.8-.1 1.2 0 .5 0 .9.1 1.2.1.4.2.7.4.9.2.2.4.4.7.6.3.1.6.2.9.2.3 0 .6 0 .8-.1.2-.1.4-.2.5-.3.1-.1.3-.2.4-.3.1-.1.2-.1.4-.1s.3.1.4.2l.6.8c-.2.3-.5.5-.8.7-.3.2-.6.3-.8.4-.3.1-.6.2-.9.2-.3 0-.6.1-.9.1-.5 0-1-.1-1.5-.3-.5-.2-.9-.5-1.2-.9-.4-.4-.6-.9-.8-1.4a5.82 5.82 0 0 1 0-3.7c.2-.5.5-1 .8-1.4.3-.4.8-.7 1.3-.9.5-.2 1.1-.3 1.8-.3s1.2.1 1.7.3c.5.2.9.5 1.3.9l-.6.6ZM197 31.2v4.3h-2.3V23.2h4c.8 0 1.5.1 2.1.3.6.2 1.1.5 1.5.8.4.3.7.8.9 1.2.2.5.3 1 .3 1.6a3.8 3.8 0 0 1-1.2 2.9c-.4.4-.9.6-1.5.8-.6.2-1.3.3-2.1.3H197v.1Zm0-1.8h1.7c.4 0 .8-.1 1.1-.2.3-.1.6-.3.8-.5.2-.2.4-.4.5-.7.1-.3.2-.6.2-.9 0-.3-.1-.6-.2-.9-.1-.3-.3-.5-.5-.7-.2-.2-.5-.3-.8-.4-.3-.1-.7-.1-1.1-.1H197v4.4ZM208.2 26.7c.7 0 1.2.1 1.8.3.6.2 1 .5 1.4.9.4.4.7.9.9 1.4.2.6.3 1.2.3 1.9s-.1 1.3-.3 1.9c-.2.6-.5 1-.9 1.4-.4.4-.8.7-1.4.9-.5.2-1.1.3-1.8.3s-1.2-.1-1.8-.3c-.5-.2-1-.5-1.4-.9-.4-.4-.7-.9-.9-1.4-.2-.6-.3-1.2-.3-1.9s.1-1.3.3-1.9c.2-.6.5-1 .9-1.4.4-.4.8-.7 1.4-.9.5-.2 1.1-.3 1.8-.3Zm2.9-1.1h-1.4c-.2 0-.3-.1-.4-.2l-.9-.8-.1-.1-.1-.1-.1.1-.1.1-.9.8s-.1.1-.2.1h-1.7l1.9-2.4h2l2 2.5Zm-2.9 8.4c.7 0 1.3-.2 1.6-.7.3-.5.5-1.2.5-2.1 0-.9-.2-1.7-.5-2.2-.3-.5-.9-.7-1.6-.7-.7 0-1.3.2-1.6.7-.4.5-.5 1.2-.5 2.1 0 .9.2 1.6.5 2.1s.8.8 1.6.8ZM215.9 22.9v12.6h-2.1V22.9h2.1ZM221.5 26.7c.5 0 1.1.1 1.5.3.5.2.9.4 1.2.8.3.3.6.8.8 1.2.2.5.3 1 .3 1.7v.4c0 .1 0 .2-.1.2s-.1.1-.1.1H219.5c.1.9.3 1.6.7 2 .4.4 1 .6 1.7.6.3 0 .6 0 .9-.1.2-.1.5-.2.6-.3.2-.1.3-.2.5-.3.1-.1.3-.1.4-.1.1 0 .2 0 .2.1.1 0 .1.1.2.1l.6.8a3.55 3.55 0 0 1-1.7 1.1c-.3.1-.6.2-1 .2-.3 0-.6.1-.9.1a4.2 4.2 0 0 1-3.1-1.2c-.4-.4-.7-.9-.9-1.5-.2-.6-.3-1.3-.3-2 0-.6.1-1.2.3-1.7.2-.5.5-1 .8-1.4.4-.4.8-.7 1.3-.9.5-.2 1-.2 1.7-.2Zm0 1.5c-.6 0-1.1.2-1.4.5-.3.3-.6.8-.7 1.5h3.9c0-.3 0-.5-.1-.8-.1-.2-.2-.5-.3-.6-.2-.2-.3-.3-.6-.4-.2-.2-.5-.2-.8-.2ZM233 26.7c.5 0 1.1.1 1.5.3.5.2.9.4 1.2.8.3.3.6.8.8 1.2.2.5.3 1 .3 1.7v.4c0 .1 0 .2-.1.2s-.1.1-.1.1H231c.1.9.3 1.6.7 2 .4.4 1 .6 1.7.6.3 0 .6 0 .9-.1.2-.1.5-.2.6-.3.2-.1.3-.2.5-.3.1-.1.3-.1.4-.1.1 0 .2 0 .2.1.1 0 .1.1.2.1l.6.8a3.55 3.55 0 0 1-1.7 1.1c-.3.1-.6.2-1 .2-.3 0-.6.1-.9.1a4.2 4.2 0 0 1-3.1-1.2c-.4-.4-.7-.9-.9-1.5-.2-.6-.3-1.3-.3-2 0-.6.1-1.2.3-1.7.2-.5.5-1 .8-1.4.4-.4.8-.7 1.3-.9.5-.2 1-.2 1.7-.2Zm0 1.5c-.6 0-1.1.2-1.4.5-.3.3-.6.8-.7 1.5h3.9c0-.3 0-.5-.1-.8-.1-.2-.2-.5-.3-.6-.2-.2-.3-.3-.6-.4-.2-.2-.5-.2-.8-.2ZM238.1 35.5v-8.7h1.3c.3 0 .5.1.5.4l.1.6.5-.5c.2-.1.3-.3.5-.4.2-.1.4-.2.6-.2.2-.1.5-.1.7-.1.5 0 1 .1 1.4.4.4.3.6.7.8 1.2.1-.3.3-.5.5-.7.2-.2.4-.4.7-.5.2-.1.5-.2.8-.3.3-.1.6-.1.8-.1.5 0 .9.1 1.3.2s.7.4.9.6c.3.3.4.6.6 1 .1.4.2.9.2 1.4v5.7h-2.1v-5.6c0-.6-.1-1-.4-1.3-.2-.3-.6-.4-1.1-.4-.2 0-.4 0-.6.1-.2.1-.3.2-.5.3-.1.1-.2.3-.3.5-.1.2-.1.5-.1.7v5.7h-2.1v-5.6c0-.6-.1-1-.4-1.3-.2-.3-.6-.4-1-.4-.3 0-.6.1-.8.2-.3.1-.5.4-.7.6v6.5h-2.1ZM251.9 38.4V26.8h1.3c.1 0 .3 0 .3.1s.2.2.2.3l.2.8c.4-.4.8-.7 1.2-1 .5-.2 1-.4 1.6-.4.5 0 .9.1 1.3.3.4.2.7.5 1 .9.3.4.5.8.7 1.4.2.6.2 1.2.2 1.9s-.1 1.3-.3 1.8c-.2.6-.4 1-.8 1.4a4 4 0 0 1-1.2 1c-.5.2-1 .3-1.6.3-.5 0-.9-.1-1.3-.2s-.7-.4-.9-.6v3.6h-1.9Zm4.1-10.1c-.4 0-.8.1-1.1.3-.3.2-.6.4-.9.8v3.9c.2.3.5.5.8.6.3.1.6.2.9.2.3 0 .6-.1.9-.2.3-.1.5-.3.7-.5.2-.2.3-.6.4-.9.1-.3.1-.8.1-1.3s0-.9-.1-1.3-.2-.6-.4-.9c-.2-.2-.3-.4-.6-.5-.2-.2-.4-.2-.7-.2ZM263.4 22.9v12.6h-2.1V22.9h2.1ZM269 26.7c.7 0 1.2.1 1.8.3.6.2 1 .5 1.4.9.4.4.7.9.9 1.4.2.6.3 1.2.3 1.9s-.1 1.3-.3 1.9c-.2.6-.5 1-.9 1.4-.4.4-.8.7-1.4.9-.5.2-1.1.3-1.8.3s-1.2-.1-1.8-.3c-.5-.2-1-.5-1.4-.9-.4-.4-.7-.9-.9-1.4-.2-.6-.3-1.2-.3-1.9s.1-1.3.3-1.9c.2-.6.5-1 .9-1.4.4-.4.8-.7 1.4-.9.6-.2 1.2-.3 1.8-.3Zm0 7.3c.7 0 1.3-.2 1.6-.7.3-.5.5-1.2.5-2.1 0-.9-.2-1.7-.5-2.2-.3-.5-.9-.7-1.6-.7-.7 0-1.3.2-1.6.7-.4.5-.5 1.2-.5 2.1 0 .9.2 1.6.5 2.1s.9.8 1.6.8ZM277.1 24.2c0 .2 0 .4-.1.5-.1.2-.2.3-.3.4-.1.1-.3.2-.4.3-.1.1-.3.1-.5.1s-.4 0-.5-.1c-.1-.1-.3-.2-.4-.3-.1-.1-.2-.3-.3-.4-.1-.2-.1-.3-.1-.5s0-.4.1-.5c.1-.2.2-.3.3-.4.1-.1.3-.2.4-.3.1-.1.3-.1.5-.1s.4 0 .5.1c.1.1.3.2.4.3.1.1.2.3.3.4.1.2.1.4.1.5Zm-.3 2.6v8.7h-2.1v-8.7h2.1Z" fill="#fff"/></svg>