<svg width="112" height="178" fill="none" xmlns="http://www.w3.org/2000/svg"><path fill-rule="evenodd" clip-rule="evenodd" d="M60.73.96C59.78.96 59 .19 59-.75c0-.95.77-1.71 1.73-1.71.95 0 1.73.76 1.73 1.7 0 .95-.78 1.72-1.73 1.72ZM73.4.96c-.95 0-1.73-.77-1.73-1.71 0-.95.78-1.71 1.73-1.71s1.73.76 1.73 1.7c0 .95-.78 1.72-1.73 1.72ZM85.5.96c-.95 0-1.73-.77-1.73-1.71 0-.95.78-1.71 1.73-1.71s1.73.76 1.73 1.7c0 .95-.78 1.72-1.73 1.72ZM98.17.96c-.95 0-1.72-.77-1.72-1.71 0-.95.77-1.71 1.72-1.71.96 0 1.73.76 1.73 1.7 0 .95-.77 1.72-1.73 1.72ZM110.27.96c-.95 0-1.73-.77-1.73-1.71 0-.95.78-1.71 1.73-1.71S112-1.7 112-.76c0 .95-.78 1.72-1.73 1.72ZM60.73 12.92c-.95 0-1.73-.77-1.73-1.7 0-.95.77-1.72 1.73-1.72.95 0 1.73.77 1.73 1.71s-.78 1.71-1.73 1.71ZM73.4 12.92c-.95 0-1.73-.77-1.73-1.7 0-.95.78-1.72 1.73-1.72s1.73.77 1.73 1.71-.78 1.71-1.73 1.71ZM85.5 12.92c-.95 0-1.73-.77-1.73-1.7 0-.95.78-1.72 1.73-1.72s1.73.77 1.73 1.71-.78 1.71-1.73 1.71ZM98.17 12.92c-.95 0-1.72-.77-1.72-1.7a1.72 1.72 0 0 1 3.46 0c0 .93-.78 1.7-1.74 1.7ZM110.27 12.92c-.95 0-1.73-.77-1.73-1.7 0-.95.78-1.72 1.73-1.72s1.73.77 1.73 1.71-.78 1.71-1.73 1.71ZM60.73 25.46c-.95 0-1.73-.77-1.73-1.71s.77-1.71 1.73-1.71c.95 0 1.73.77 1.73 1.7 0 .95-.78 1.72-1.73 1.72ZM73.4 25.46c-.95 0-1.73-.77-1.73-1.71s.78-1.71 1.73-1.71 1.73.77 1.73 1.7c0 .95-.78 1.72-1.73 1.72ZM85.5 25.46c-.95 0-1.73-.77-1.73-1.71s.78-1.71 1.73-1.71 1.73.77 1.73 1.7c0 .95-.78 1.72-1.73 1.72ZM98.17 25.46c-.95 0-1.72-.77-1.72-1.71s.77-1.71 1.72-1.71c.96 0 1.73.77 1.73 1.7 0 .95-.77 1.72-1.73 1.72ZM110.27 25.46c-.95 0-1.73-.77-1.73-1.71s.78-1.71 1.73-1.71 1.73.77 1.73 1.7c0 .95-.78 1.72-1.73 1.72ZM60.73 38c-.95 0-1.73-.77-1.73-1.71 0-.95.77-1.71 1.73-1.71.95 0 1.73.76 1.73 1.7 0 .95-.78 1.71-1.73 1.71ZM73.4 38c-.95 0-1.73-.77-1.73-1.71 0-.95.78-1.71 1.73-1.71s1.73.76 1.73 1.7c0 .95-.78 1.71-1.73 1.71ZM85.5 38c-.95 0-1.73-.77-1.73-1.71 0-.95.78-1.71 1.73-1.71s1.73.76 1.73 1.7c0 .95-.78 1.71-1.73 1.71ZM98.17 38c-.95 0-1.72-.77-1.72-1.71 0-.95.77-1.71 1.72-1.71.96 0 1.73.76 1.73 1.7 0 .95-.77 1.71-1.73 1.71ZM110.27 38c-.95 0-1.73-.77-1.73-1.71 0-.95.78-1.71 1.73-1.71s1.73.76 1.73 1.7c0 .95-.78 1.71-1.73 1.71ZM60.73 49.96c-.95 0-1.73-.77-1.73-1.7 0-.95.77-1.72 1.73-1.72.95 0 1.73.77 1.73 1.71s-.78 1.71-1.73 1.71ZM73.4 49.96c-.95 0-1.73-.77-1.73-1.7 0-.95.78-1.72 1.73-1.72s1.73.77 1.73 1.71-.78 1.71-1.73 1.71ZM85.5 49.96c-.95 0-1.73-.77-1.73-1.7 0-.95.78-1.72 1.73-1.72s1.73.77 1.73 1.71-.78 1.71-1.73 1.71ZM98.17 49.96c-.95 0-1.72-.77-1.72-1.7a1.72 1.72 0 0 1 3.46 0c0 .93-.78 1.7-1.74 1.7ZM110.27 49.96c-.95 0-1.73-.77-1.73-1.7 0-.95.78-1.72 1.73-1.72s1.73.77 1.73 1.71-.78 1.71-1.73 1.71ZM60.73 62.5c-.95 0-1.73-.77-1.73-1.71 0-.95.77-1.71 1.73-1.71.95 0 1.73.76 1.73 1.7 0 .95-.78 1.72-1.73 1.72ZM73.4 62.5c-.95 0-1.73-.77-1.73-1.71 0-.95.78-1.71 1.73-1.71s1.73.76 1.73 1.7c0 .95-.78 1.72-1.73 1.72ZM85.5 62.5c-.95 0-1.73-.77-1.73-1.71 0-.95.78-1.71 1.73-1.71s1.73.76 1.73 1.7c0 .95-.78 1.72-1.73 1.72ZM98.17 62.5c-.95 0-1.72-.77-1.72-1.71 0-.95.77-1.71 1.72-1.71.96 0 1.73.76 1.73 1.7 0 .95-.77 1.72-1.73 1.72ZM110.27 62.5c-.95 0-1.73-.77-1.73-1.71 0-.95.78-1.71 1.73-1.71s1.73.76 1.73 1.7c0 .95-.78 1.72-1.73 1.72ZM60.73 74.46c-.95 0-1.73-.76-1.73-1.7 0-.95.77-1.72 1.73-1.72.95 0 1.73.77 1.73 1.71 0 .95-.78 1.71-1.73 1.71ZM73.4 74.46c-.95 0-1.73-.76-1.73-1.7 0-.95.78-1.72 1.73-1.72s1.73.77 1.73 1.71c0 .95-.78 1.71-1.73 1.71ZM85.5 74.46c-.95 0-1.73-.76-1.73-1.7 0-.95.78-1.72 1.73-1.72s1.73.77 1.73 1.71c0 .95-.78 1.71-1.73 1.71ZM98.17 74.46c-.95 0-1.72-.76-1.72-1.7a1.72 1.72 0 0 1 3.46 0c0 .94-.78 1.7-1.74 1.7ZM110.27 74.46c-.95 0-1.73-.76-1.73-1.7 0-.95.78-1.72 1.73-1.72s1.73.77 1.73 1.71c0 .95-.78 1.71-1.73 1.71ZM60.73 87c-.95 0-1.73-.77-1.73-1.7 0-.95.77-1.72 1.73-1.72.95 0 1.73.77 1.73 1.71S61.68 87 60.73 87ZM73.4 87c-.95 0-1.73-.77-1.73-1.7 0-.95.78-1.72 1.73-1.72s1.73.77 1.73 1.71S74.35 87 73.4 87ZM85.5 87c-.95 0-1.73-.77-1.73-1.7 0-.95.78-1.72 1.73-1.72s1.73.77 1.73 1.71S86.45 87 85.5 87ZM98.17 87c-.95 0-1.72-.77-1.72-1.7a1.72 1.72 0 0 1 3.46 0c0 .93-.78 1.7-1.74 1.7ZM110.27 87c-.95 0-1.73-.77-1.73-1.7 0-.95.78-1.72 1.73-1.72s1.73.77 1.73 1.71-.78 1.71-1.73 1.71Z" fill="#000638"/><path fill-rule="evenodd" clip-rule="evenodd" d="M43 158.35a19.35 19.35 0 1 0 38.7 0 19.35 19.35 0 0 0-38.7 0Zm28.7 0a9.35 9.35 0 1 1-18.7 0 9.35 9.35 0 0 1 18.7 0ZM19 85.5h-6.5V79h-6v6.5H0v6h6.5V98h6v-6.5H19v-6Z" fill="#007BFF"/></svg>