<svg width="215" height="304" fill="none" xmlns="http://www.w3.org/2000/svg"><path fill-rule="evenodd" clip-rule="evenodd" d="M36.73 215.42c-.95 0-1.73-.77-1.73-1.71s.77-1.71 1.73-1.71c.95 0 1.73.77 1.73 1.7 0 .95-.78 1.72-1.73 1.72M49.4 215.42c-.95 0-1.73-.77-1.73-1.71s.78-1.71 1.73-1.71 1.73.77 1.73 1.7c0 .95-.78 1.72-1.73 1.72M61.5 215.42c-.95 0-1.73-.77-1.73-1.71s.78-1.71 1.73-1.71 1.73.77 1.73 1.7c0 .95-.78 1.72-1.73 1.72M74.17 215.42c-.95 0-1.72-.77-1.72-1.71s.77-1.71 1.72-1.71c.96 0 1.73.77 1.73 1.7 0 .95-.77 1.72-1.73 1.72M86.27 215.42c-.95 0-1.73-.77-1.73-1.71s.78-1.71 1.73-1.71 1.73.77 1.73 1.7c0 .95-.78 1.72-1.73 1.72M36.73 227.96c-.95 0-1.73-.77-1.73-1.71 0-.95.77-1.71 1.73-1.71.95 0 1.73.76 1.73 1.7 0 .95-.78 1.72-1.73 1.72M49.4 227.96c-.95 0-1.73-.77-1.73-1.71 0-.95.78-1.71 1.73-1.71s1.73.76 1.73 1.7c0 .95-.78 1.72-1.73 1.72M61.5 227.96c-.95 0-1.73-.77-1.73-1.71 0-.95.78-1.71 1.73-1.71s1.73.76 1.73 1.7c0 .95-.78 1.72-1.73 1.72M74.17 227.96c-.95 0-1.72-.77-1.72-1.71 0-.95.77-1.71 1.72-1.71.96 0 1.73.76 1.73 1.7 0 .95-.77 1.72-1.73 1.72M86.27 227.96c-.95 0-1.73-.77-1.73-1.71 0-.95.78-1.71 1.73-1.71s1.73.76 1.73 1.7c0 .95-.78 1.72-1.73 1.72M36.73 239.92c-.95 0-1.73-.76-1.73-1.7 0-.95.77-1.72 1.73-1.72.95 0 1.73.77 1.73 1.71s-.78 1.71-1.73 1.71M49.4 239.92c-.95 0-1.73-.76-1.73-1.7 0-.95.78-1.72 1.73-1.72s1.73.77 1.73 1.71-.78 1.71-1.73 1.71M61.5 239.92c-.95 0-1.73-.76-1.73-1.7 0-.95.78-1.72 1.73-1.72s1.73.77 1.73 1.71-.78 1.71-1.73 1.71M74.17 239.92c-.95 0-1.72-.76-1.72-1.7a1.72 1.72 0 0 1 3.46 0c0 .94-.78 1.7-1.74 1.7M86.27 239.92c-.95 0-1.73-.76-1.73-1.7 0-.95.78-1.72 1.73-1.72s1.73.77 1.73 1.71-.78 1.71-1.73 1.71M36.73 252.46c-.95 0-1.73-.77-1.73-1.71s.77-1.71 1.73-1.71c.95 0 1.73.77 1.73 1.7 0 .95-.78 1.72-1.73 1.72M49.4 252.46c-.95 0-1.73-.77-1.73-1.71s.78-1.71 1.73-1.71 1.73.77 1.73 1.7c0 .95-.78 1.72-1.73 1.72M61.5 252.46c-.95 0-1.73-.77-1.73-1.71s.78-1.71 1.73-1.71 1.73.77 1.73 1.7c0 .95-.78 1.72-1.73 1.72M74.17 252.46c-.95 0-1.72-.77-1.72-1.71s.77-1.71 1.72-1.71c.96 0 1.73.77 1.73 1.7 0 .95-.77 1.72-1.73 1.72M86.27 252.46c-.95 0-1.73-.77-1.73-1.71s.78-1.71 1.73-1.71 1.73.77 1.73 1.7c0 .95-.78 1.72-1.73 1.72M36.73 265c-.95 0-1.73-.77-1.73-1.71 0-.95.77-1.72 1.73-1.72.95 0 1.73.77 1.73 1.72 0 .94-.78 1.7-1.73 1.7M49.4 265c-.95 0-1.73-.77-1.73-1.71 0-.95.78-1.72 1.73-1.72s1.73.77 1.73 1.72c0 .94-.78 1.7-1.73 1.7M61.5 265c-.95 0-1.73-.77-1.73-1.71 0-.95.78-1.72 1.73-1.72s1.73.77 1.73 1.72c0 .94-.78 1.7-1.73 1.7M74.17 265c-.95 0-1.72-.77-1.72-1.71a1.72 1.72 0 0 1 3.46 0c0 .94-.78 1.7-1.74 1.7M86.27 265c-.95 0-1.73-.77-1.73-1.71 0-.95.78-1.72 1.73-1.72s1.73.77 1.73 1.72c0 .94-.78 1.7-1.73 1.7M36.73 276.96c-.95 0-1.73-.77-1.73-1.7 0-.95.77-1.72 1.73-1.72.95 0 1.73.77 1.73 1.71s-.78 1.71-1.73 1.71M49.4 276.96c-.95 0-1.73-.77-1.73-1.7 0-.95.78-1.72 1.73-1.72s1.73.77 1.73 1.71-.78 1.71-1.73 1.71M61.5 276.96c-.95 0-1.73-.77-1.73-1.7 0-.95.78-1.72 1.73-1.72s1.73.77 1.73 1.71-.78 1.71-1.73 1.71M74.17 276.96c-.95 0-1.72-.77-1.72-1.7a1.72 1.72 0 0 1 3.46 0c0 .93-.78 1.7-1.74 1.7M86.27 276.96c-.95 0-1.73-.77-1.73-1.7 0-.95.78-1.72 1.73-1.72s1.73.77 1.73 1.71-.78 1.71-1.73 1.71M36.73 289.5c-.95 0-1.73-.77-1.73-1.71s.77-1.71 1.73-1.71c.95 0 1.73.77 1.73 1.7 0 .95-.78 1.72-1.73 1.72M49.4 289.5c-.95 0-1.73-.77-1.73-1.71s.78-1.71 1.73-1.71 1.73.77 1.73 1.7c0 .95-.78 1.72-1.73 1.72M61.5 289.5c-.95 0-1.73-.77-1.73-1.71s.78-1.71 1.73-1.71 1.73.77 1.73 1.7c0 .95-.78 1.72-1.73 1.72M74.17 289.5c-.95 0-1.72-.77-1.72-1.71s.77-1.71 1.72-1.71c.96 0 1.73.77 1.73 1.7 0 .95-.77 1.72-1.73 1.72M86.27 289.5c-.95 0-1.73-.77-1.73-1.71s.78-1.71 1.73-1.71 1.73.77 1.73 1.7c0 .95-.78 1.72-1.73 1.72M36.73 301.46c-.95 0-1.73-.76-1.73-1.7 0-.95.77-1.71 1.73-1.71.95 0 1.73.76 1.73 1.7 0 .95-.78 1.71-1.73 1.71M49.4 301.46c-.95 0-1.73-.76-1.73-1.7 0-.95.78-1.71 1.73-1.71s1.73.76 1.73 1.7c0 .95-.78 1.71-1.73 1.71M61.5 301.46c-.95 0-1.73-.76-1.73-1.7 0-.95.78-1.71 1.73-1.71s1.73.76 1.73 1.7c0 .95-.78 1.71-1.73 1.71M74.17 301.46c-.95 0-1.72-.76-1.72-1.7 0-.95.77-1.71 1.72-1.71.96 0 1.73.76 1.73 1.7 0 .95-.77 1.71-1.73 1.71M86.27 301.46c-.95 0-1.73-.76-1.73-1.7 0-.95.78-1.71 1.73-1.71s1.73.76 1.73 1.7c0 .95-.78 1.71-1.73 1.71M46.5-19a67.5 67.5 0 1 0 0 135 67.5 67.5 0 0 0 0-135Z" fill="#000638"/><path fill-rule="evenodd" clip-rule="evenodd" d="M7.01 52.25-21.75 81a33.02 33.02 0 0 0-.25 4.02L11.03 52c-1.34 0-2.68.09-4.02.25ZM16.53 53.07l-37.46 37.46c.17 1.02.4 2.03.68 3.03l39.8-39.81c-1-.28-2-.5-3.02-.68ZM23.5 55.2l-42.3 42.3c.36.83.77 1.65 1.21 2.45l43.54-43.54a31.6 31.6 0 0 0-2.45-1.21ZM30.27 58.4l-45.88 45.87c.53.71 1.1 1.4 1.69 2.07l46.26-46.26c-.67-.6-1.36-1.16-2.07-1.69ZM34.92 62.66l-46.26 46.27c.67.59 1.36 1.15 2.07 1.68L36.6 64.73c-.53-.71-1.1-1.4-1.69-2.07ZM38.59 69.05l-43.54 43.54c.8.44 1.62.84 2.45 1.21l42.3-42.3a31.9 31.9 0 0 0-1.21-2.45ZM41.25 75.44l-39.8 39.81c1 .28 2 .5 3.02.68l37.46-37.46c-.17-1.02-.4-2.03-.68-3.03ZM43 83.97 9.97 117c1.34 0 2.68-.08 4.02-.25L42.75 88c.17-1.34.25-2.68.25-4.02ZM22.75 114.87a32.36 32.36 0 0 0 10.92-7.2 32.35 32.35 0 0 0 7.2-10.92l-18.12 18.12Z" fill="#FFFFFE"/><path fill-rule="evenodd" clip-rule="evenodd" d="M117 133a27 27 0 1 0 54 0 27 27 0 0 0-54 0m40.06 0a13.06 13.06 0 1 1-26.11 0 13.06 13.06 0 0 1 26.11 0M215 41.9h-8.9V33h-8.2v8.9H189v8.2h8.9V59h8.2v-8.9h8.9v-8.2Z" fill="#007BFF"/></svg>