<svg width="80" height="81" viewBox="0 0 80 81" fill="none" xmlns="http://www.w3.org/2000/svg">
<path d="M14.253 61.0072C14.4441 60.8703 14.6358 60.7329 14.8257 60.5968C14.9395 60.4987 15.0809 60.4384 15.2304 60.4242C15.3814 60.4226 15.5861 60.3726 15.6711 60.4393C15.9003 60.6202 16.2558 60.6711 16.4877 60.8514C16.6537 60.9767 16.7583 61.1602 16.5835 61.5018C16.5176 61.6305 16.4982 61.7325 16.6375 61.7448C16.6688 61.7463 16.6994 61.7543 16.7274 61.7684C16.7554 61.7824 16.7802 61.8022 16.8002 61.8263C16.8202 61.8505 16.8349 61.8785 16.8434 61.9087C16.8519 61.9389 16.8541 61.9705 16.8497 62.0015C16.8482 62.2304 16.8611 62.4591 16.8885 62.6864C16.8928 62.7209 17.0293 62.6961 17.1156 62.6651C17.2777 62.6066 17.4118 62.5778 17.4523 62.6679C17.6123 63.1252 17.9029 63.5254 18.2882 63.819C18.3714 63.8997 18.4467 63.988 18.5132 64.0829C18.7457 64.375 18.8855 64.7235 19.3141 64.8873C19.3824 64.9205 19.4396 64.9727 19.479 65.0377C19.5184 65.1026 19.5382 65.1775 19.5362 65.2534C19.5505 65.3534 19.5851 65.4495 19.638 65.5356C19.6908 65.6217 19.7608 65.6961 19.8435 65.7541C19.9909 65.8864 20.0042 66.1068 20.1671 66.2444C20.326 66.3791 20.355 66.6007 20.4776 66.7622C20.5659 66.8795 20.4295 67.1003 20.5975 67.1748C20.7669 67.2506 20.723 67.4229 20.6906 67.5936C20.6517 67.7973 21.0784 67.7527 20.9484 68.0171C20.9246 68.0655 21.0156 68.1016 21.0798 68.1219C21.23 68.1687 21.2932 68.2639 21.2387 68.4104C21.1813 68.5638 21.211 68.6605 21.362 68.7105C21.439 68.7249 21.5085 68.7656 21.5586 68.8258C21.6088 68.8859 21.6364 68.9616 21.6368 69.0398C21.6335 69.1642 21.6047 69.2939 21.7409 69.357C21.9653 69.4616 22.0049 69.6707 22.0521 69.8664C22.0894 70.1485 22.2244 70.4087 22.4336 70.6017C22.6711 70.7925 22.7776 71.0642 23.0054 71.2623C23.163 71.392 23.29 71.5547 23.3775 71.7391C23.4701 71.946 23.6163 72.127 23.6094 72.3809C23.6018 72.6357 23.9621 72.7007 24.0172 72.9272C24.0472 73.0069 24.0842 73.0838 24.1277 73.157C24.2986 73.5438 24.4795 73.9298 24.6659 74.3035L24.6979 74.3659L24.7097 74.3863L24.7324 74.4216C24.7479 74.4443 24.7653 74.4656 24.7845 74.4853C24.8204 74.5248 24.869 74.5505 24.9218 74.5579C24.9859 74.565 25.0132 74.5232 25.0718 74.7674C25.0769 74.7852 25.0939 74.7501 25.0949 74.7177C25.1076 74.4491 25.1061 74.4075 25.1214 74.4271C25.1286 74.4374 25.1395 74.4619 25.1518 74.4837C25.1895 74.5008 25.2316 74.5058 25.2722 74.4981C25.6198 74.3836 26.0217 74.4856 26.2969 74.0811C26.3046 74.0677 26.3164 74.0572 26.3307 74.0511C26.3449 74.0451 26.3607 74.0439 26.3757 74.0476C26.6879 74.1497 26.9013 73.8382 27.1733 73.7734C27.394 73.7209 27.6088 73.6387 27.8327 73.6034C28.0846 73.5633 28.3455 73.5695 28.5994 73.5388C28.67 73.5296 28.74 73.5164 28.8091 73.4993L28.8613 73.4867L28.864 73.4843L28.8695 73.4804C28.8778 73.4776 28.8857 73.4869 28.9319 73.5388C28.9792 73.5888 28.9739 73.5466 28.9455 73.5047C28.9202 73.4621 28.8722 73.4197 28.9174 73.4519C28.9599 73.4792 28.9416 73.4596 28.9817 73.4793C29.1176 73.5479 29.234 73.6066 29.3675 73.674C29.544 73.7623 29.6544 73.7988 29.6066 73.7568C29.3609 73.5445 29.2717 73.5289 29.6169 73.5186C29.6682 73.5153 29.6063 73.4815 29.5138 73.4635C29.2031 73.4013 29.107 73.4017 29.1834 73.3776C29.3244 73.3315 29.2789 73.1896 29.0426 73.2368C28.935 73.2678 29.08 73.1503 28.9762 73.1772C28.808 73.1352 28.899 72.8933 28.8123 72.7838C28.7433 72.6965 28.7112 72.5782 28.6437 72.4891C28.5589 72.3778 28.4535 72.2828 28.4639 72.1C28.4733 71.9182 28.2046 71.9633 28.2596 71.7402C28.2631 71.7252 28.2634 71.7096 28.2604 71.6945C28.2574 71.6795 28.2512 71.6652 28.2422 71.6527C28.2333 71.6402 28.2217 71.6298 28.2084 71.6221C28.1951 71.6144 28.1802 71.6097 28.1649 71.6083C27.7686 71.5627 27.6214 71.2799 27.3955 71.0674C27.1279 70.8143 26.8586 70.5677 26.6016 70.3016C26.5004 70.196 26.2916 70.2077 26.1944 70.114C26.0765 69.9987 26.0962 69.7587 25.9963 69.623C25.752 69.2312 25.4375 68.8878 25.0685 68.6101C24.9207 68.5141 24.6163 68.5626 24.6019 68.3493C24.5881 68.1344 24.3006 68.1606 24.3097 67.9295C24.3114 67.8712 24.2171 67.8624 24.1588 67.8401C23.9895 67.7747 24.0221 67.5874 24.0998 67.3702C24.1438 67.2464 24.1839 67.1192 24.0454 67.1115C23.812 67.0974 23.7216 66.9354 23.5487 66.8595C23.256 66.7284 22.9328 66.6257 22.9966 66.2066C22.9983 66.1986 22.9984 66.1903 22.9968 66.1823C22.9952 66.1743 22.9919 66.1667 22.9872 66.16C22.9824 66.1533 22.9764 66.1477 22.9693 66.1435C22.9623 66.1393 22.9545 66.1367 22.9463 66.1357C22.6754 66.1263 22.7137 65.8928 22.6529 65.724C22.6144 65.5884 22.5395 65.4658 22.4364 65.3695C22.3333 65.2733 22.2058 65.2071 22.0678 65.178C22.0101 65.1706 21.9549 65.1504 21.906 65.119C21.8571 65.0876 21.8158 65.0457 21.7851 64.9963C21.7544 64.947 21.7351 64.8914 21.7286 64.8336C21.722 64.7759 21.7284 64.7174 21.7473 64.6624C21.8409 64.234 21.5136 64.0373 21.5644 63.6407C21.591 63.4282 21.2754 63.4251 21.1479 63.2967C20.98 63.1057 20.8361 62.8948 20.7195 62.6688C20.601 62.4328 20.4216 62.2327 20.2 62.0892C20.1555 62.0627 20.1929 61.9582 20.2396 61.8872C20.3828 61.6689 20.4354 61.5229 20.0218 61.6257C19.9764 61.6368 19.9138 61.622 19.9072 61.5981C19.8428 61.3661 19.7227 61.1534 19.5572 60.9785C19.4433 60.7992 19.3658 60.5992 19.3289 60.39C19.3211 60.3615 19.3187 60.3091 19.346 60.2925C19.5053 60.1961 19.8661 60.1558 19.7113 59.9831C19.6304 59.8924 19.5047 59.8236 19.4336 59.727C19.2734 59.5074 19.5353 59.1027 19.9894 58.8601C20.3576 58.6568 20.7528 58.5069 21.1632 58.4147C21.2533 58.3903 21.3487 58.3937 21.4369 58.4245C21.5321 58.4868 21.607 58.5756 21.6524 58.6799C21.7351 58.9066 21.7292 59.1751 21.8626 59.3784C22.0557 59.6554 22.22 59.9514 22.3527 60.2618C22.4957 60.5648 22.6438 60.8655 22.8056 61.159C23.0326 61.5507 23.2018 61.9884 23.6485 62.237C23.6868 62.4232 23.796 62.5873 23.9531 62.6944C23.8908 63.1373 24.221 63.3489 24.3633 63.6733C24.4924 63.9771 24.7692 64.181 24.7374 64.6028C24.7301 64.7 24.8037 64.7574 24.8503 64.8253C25.0711 65.1419 25.3044 65.4538 25.5431 65.7592C25.7663 66.0944 26.0881 66.3522 26.464 66.4968C26.5707 66.5392 26.6636 66.6103 26.7324 66.7022C26.8647 66.8455 27.0269 66.9641 27.0464 67.2015C27.0674 67.4466 27.4304 67.3696 27.4983 67.5728C27.527 67.6576 27.5911 67.7176 27.6052 67.8116C27.612 67.8546 27.6315 67.8946 27.6611 67.9264C27.6908 67.9582 27.7293 67.9804 27.7717 67.9902C27.9185 68.0254 28.0558 68.0927 28.1736 68.1871C28.4402 68.4973 28.7783 68.738 29.1587 68.8885C29.2861 68.9365 29.2337 69.1095 29.0975 69.311C29.0211 69.4237 29.0577 69.4529 29.1507 69.4585C29.1898 69.4558 29.229 69.4609 29.266 69.4738C29.303 69.4866 29.337 69.5068 29.366 69.5331C29.3949 69.5595 29.4183 69.5915 29.4345 69.6271C29.4508 69.6627 29.4596 69.7013 29.4605 69.7404C29.4698 69.8812 29.5054 69.9776 29.6555 70.0017C29.774 70.0279 29.8822 70.0882 29.9667 70.1753C30.0697 70.2759 30.1646 70.3845 30.2506 70.4999C30.3409 70.6126 30.4296 70.7267 30.5143 70.8444C30.5656 70.9142 30.6379 70.9731 30.648 71.0697C30.6627 71.1728 30.7032 71.2707 30.7656 71.3541C30.7927 71.3956 30.8206 71.4364 30.8448 71.4801C30.8728 71.533 30.8959 71.5883 30.9139 71.6454C30.9636 71.823 31.0505 71.988 31.1688 72.1295C31.2871 72.271 31.4342 72.3857 31.6002 72.466C31.7409 72.5363 31.866 72.6342 31.9678 72.7541C32.377 73.1949 32.5778 73.7133 32.2922 74.0941C32.1911 74.2214 32.3269 74.3903 32.3498 74.5646C32.3534 74.6265 32.3418 74.6884 32.3162 74.7449C32.2906 74.8014 32.2517 74.8508 32.2029 74.889C32.0692 75.0045 31.8946 75.06 31.8878 75.21C31.8815 75.3939 31.7081 75.4751 31.5753 75.5989C31.3919 75.747 31.1818 75.8587 30.9565 75.9278C30.7015 76.0032 30.4709 76.1447 30.2883 76.338C30.0646 76.3626 29.8471 76.3818 29.6371 76.4201L29.4808 76.4528C29.4536 76.46 29.4269 76.469 29.4009 76.4796C29.3457 76.5024 29.2942 76.5333 29.2482 76.5714C29.1573 76.6466 29.0244 76.597 28.9096 76.5981C28.8779 76.5916 28.8474 76.58 28.8193 76.5638C28.6997 76.4985 28.5613 76.4762 28.4273 76.5006C28.2932 76.5249 28.1716 76.5945 28.0826 76.6977C28.0657 76.7172 28.0189 76.7062 28.0032 76.6756C27.8412 76.3572 27.7417 76.5003 27.6171 76.5841C27.5223 76.6474 27.3949 76.6125 27.2788 76.5954C27.0182 76.5569 26.7641 76.5316 26.5664 76.784C26.5089 76.8552 26.4282 76.9037 26.3384 76.9211L25.9653 77.0073L25.7783 77.048L25.5084 77.1C25.0744 77.2055 24.6177 77.1628 24.2109 76.9787C24.0405 76.9156 23.8756 76.8388 23.7177 76.7489C23.5366 76.6056 23.3395 76.4837 23.1304 76.3857C23.0397 76.3403 22.9632 76.2709 22.9091 76.1851C22.8551 76.0993 22.8255 76.0004 22.8236 75.899C22.8161 75.8024 22.7972 75.6738 22.7306 75.6416C22.6481 75.6017 22.5741 75.5461 22.5127 75.478C22.4694 75.441 22.432 75.3978 22.4017 75.3496C22.355 75.2619 22.3163 75.1702 22.2862 75.0755C22.1775 74.7808 22.0539 74.4919 21.9159 74.2098C21.7979 73.9826 21.6332 73.7773 21.685 73.4769C21.7031 73.3696 21.5845 73.3413 21.5339 73.2745C21.4475 73.1604 21.2879 73.0648 21.317 72.9147C21.3623 72.6794 21.1577 72.5591 21.2077 72.3268C21.2289 72.2606 21.2366 72.1909 21.2301 72.1217C21.2237 72.0525 21.2034 71.9853 21.1704 71.9242C21.1374 71.8631 21.0923 71.8092 21.038 71.7659C20.9837 71.7226 20.9212 71.6907 20.8542 71.6722C20.7853 71.6428 20.7233 71.5995 20.672 71.545C20.6206 71.4905 20.5811 71.426 20.5559 71.3555C20.478 71.1748 20.3889 70.9991 20.2891 70.8294C20.1945 70.6376 20.0297 70.4895 19.8289 70.4158C19.7848 70.4068 19.7452 70.383 19.7166 70.3483C19.6881 70.3136 19.6723 70.2701 19.6719 70.2251C19.699 69.7915 19.5784 69.3615 19.3297 69.0053L18.9937 68.4281C18.8478 68.2251 18.7326 68.0016 18.6519 67.7649C18.5966 67.5321 18.263 67.4976 18.1583 67.3006C18.0734 67.1384 18.0472 66.9238 17.7835 66.872C17.8382 66.5917 17.5737 66.5015 17.4474 66.3301C17.3273 66.1745 17.2558 65.9869 17.2418 65.7908C17.2323 65.71 17.2051 65.6324 17.1622 65.5634C17.1193 65.4943 17.0618 65.4355 16.9937 65.3911C16.5624 65.0813 16.2678 64.6168 16.1713 64.0947C16.1597 64.0544 16.138 64.0178 16.1082 63.9884C16.0783 63.9591 16.0414 63.9379 16.001 63.9269C15.8209 63.85 15.67 63.7176 15.5703 63.549C15.4744 63.4211 15.5416 63.1751 15.3472 63.1206C15.1434 63.0637 15.2455 62.8026 15.1891 62.6461C15.0519 62.3581 14.8445 62.1092 14.586 61.9223C14.4512 61.7499 14.2848 61.5369 14.118 61.3237C14.0499 61.2348 14.1028 61.116 14.253 61.0072Z" fill="#80829B"/>
<path d="M7.40036 49.8161L7.44475 49.7786C7.92141 49.4081 8.4559 49.1188 9.02671 48.9222L9.23638 48.8419L9.35189 48.797C9.38421 48.7878 9.41519 48.7744 9.44402 48.7572C9.50474 48.7227 9.56366 48.6852 9.62056 48.6448C9.73881 48.5596 9.84667 48.4609 9.94193 48.3507C10.006 48.2794 10.0838 48.2217 10.1706 48.181C10.2574 48.1403 10.3515 48.1174 10.4473 48.1137C11.252 48.1454 11.8758 47.6725 12.2499 46.9446C12.2802 46.879 12.3345 46.8276 12.4017 46.8011C13.0138 46.65 13.223 46.0353 13.6297 45.6313C13.8497 45.3843 14.1002 45.1663 14.3752 44.9824C14.3874 44.9222 14.3989 44.8619 14.413 44.8018C14.4414 44.7064 14.4757 44.6133 14.5104 44.5195C14.5752 44.3325 14.6596 44.1529 14.7621 43.9837C14.8485 43.8318 14.9427 43.6845 15.0445 43.5425C15.3836 43.089 15.7517 42.658 16.1465 42.252C16.3302 42.1191 16.4714 41.9356 16.5528 41.7239C16.7497 40.8742 17.3002 40.2113 17.8033 39.528C18.1864 39.0408 18.4706 38.4834 18.64 37.8872C18.8477 37.047 19.3466 36.3077 20.0481 35.8007C20.7344 35.2743 21.2614 34.5681 21.5709 33.7604C21.7534 33.3347 21.8191 32.881 22.214 32.5358C22.6249 32.1776 22.5915 31.5465 22.9969 31.1219C23.3247 30.7699 23.5774 30.355 23.7396 29.9022C23.8856 29.4931 24.2645 29.2916 24.4133 28.9426C24.6368 28.4189 25.1159 28.2713 25.5192 28.024C25.6682 27.9658 25.7918 27.8568 25.8682 27.7162C25.9446 27.5757 25.9688 27.4126 25.9365 27.2559C25.9048 26.9447 26.3179 26.9368 26.5076 26.7569C26.6497 26.6204 26.7822 26.4577 26.9555 26.2922C27.046 26.2043 27.1428 26.1232 27.2451 26.0495C27.3711 25.9623 27.507 25.8904 27.65 25.8354L27.8035 25.7808C27.8604 25.7636 27.9266 25.7475 27.988 25.7336C28.0522 25.7198 28.1104 25.7073 28.1795 25.6974C28.255 25.6881 28.3306 25.6816 28.4063 25.6777C28.7625 25.6599 29.1178 25.726 29.4437 25.8708C29.6119 25.9466 29.7693 26.0442 29.9119 26.1612C29.9784 26.2149 30.0421 26.2721 30.1026 26.3324C30.1531 26.3876 30.2018 26.4442 30.2487 26.5021C30.3838 26.6718 30.4958 26.8587 30.5818 27.0578C30.8222 27.5742 30.9911 28.121 31.0839 28.6831C31.1843 29.2417 31.2319 29.7868 31.3187 30.3344C31.3637 30.6071 31.0406 30.9752 30.8434 30.9455C30.552 30.9102 30.2684 30.8333 29.9782 30.7909C29.7865 30.7632 29.681 30.8429 29.7079 30.9667C29.7262 31.0388 29.7687 31.1025 29.8284 31.1469C30.0066 31.2763 30.1992 31.3836 30.371 31.5248C30.6312 31.7374 30.6682 32.0562 30.5036 32.4548C30.3968 32.8082 30.18 33.1183 29.8848 33.34C29.3789 33.6503 28.9369 34.0545 28.5827 34.5307C28.262 34.901 27.9671 35.2929 27.6999 35.7035C27.4069 36.1877 26.7579 36.2839 26.5963 36.8951C26.4676 37.1766 26.2616 37.4157 26.0023 37.5849C25.7024 37.8273 25.3128 37.9645 25.0407 38.2289C24.8029 38.5269 24.5829 38.8387 24.3821 39.1628C24.2732 39.267 24.1274 39.3238 23.9767 39.3206C23.8368 39.2867 23.703 39.2313 23.5802 39.1562C23.4483 39.1074 23.3096 39.0761 23.1734 39.0366C23.2115 39.1746 23.2144 39.3419 23.2947 39.4463C23.6501 39.9064 23.3299 40.0163 22.9498 40.198C22.7843 40.277 22.6965 40.5691 22.5993 40.7752C22.5151 40.9939 22.3873 41.1931 22.2236 41.3608C22.06 41.5285 21.8639 41.6611 21.6474 41.7505C21.3529 41.8531 21.0831 42.0161 20.8552 42.229C20.6273 42.4419 20.4465 42.7001 20.3242 42.987C20.0562 43.643 19.5403 44.1668 18.8885 44.4447C18.5647 44.576 18.2726 44.7749 18.0318 45.0281C17.791 45.2813 17.607 45.5829 17.492 45.9128C17.4242 46.099 17.309 46.2642 17.1577 46.3921C17.2624 46.5361 17.1961 46.5573 16.9162 46.7569C16.6356 47.0075 16.445 47.3432 16.3737 47.7126C16.2949 47.9493 16.2967 48.2055 16.3789 48.4412C16.461 48.6768 16.6189 48.8785 16.8278 49.015C17.2518 49.3141 17.4833 49.7604 17.779 50.1845C18.2455 50.868 18.7462 51.5276 19.2791 52.1608C19.5223 52.4575 19.8703 52.6494 20.251 52.6968C20.4735 52.7367 20.6911 52.8005 20.8999 52.8871C21.1127 52.9764 21.2939 53.1272 21.4203 53.3201C21.5467 53.5131 21.6127 53.7394 21.6096 53.9701C21.583 54.1871 21.5281 54.3997 21.4465 54.6026C21.384 54.7962 21.4278 54.9244 21.5909 54.9062C21.8891 54.873 22.1712 54.8187 22.3043 55.221C22.4009 55.5171 22.5233 55.8044 22.6164 56.1015C22.6327 56.179 22.6715 56.2499 22.7278 56.3055C22.7842 56.3611 22.8556 56.3989 22.9333 56.4142C23.3107 56.4832 23.6904 56.5501 24.0741 56.6378C24.1882 56.6606 24.2933 56.7158 24.3768 56.7969C24.4603 56.8779 24.5186 56.9813 24.5448 57.0947C24.6911 57.5562 24.9643 57.9673 25.3332 58.2809C25.4752 58.4302 25.6658 58.5239 25.8707 58.5453C26.0735 58.5514 26.2722 58.4872 26.433 58.3636C26.6061 58.2411 26.6609 58.2933 26.7702 58.5684C26.8252 58.7024 26.8693 58.8448 26.9951 58.831C27.1965 58.8078 27.3934 58.7544 27.579 58.6726C27.8097 58.5435 28.0718 58.481 28.336 58.4923C28.6002 58.5035 28.856 58.5881 29.0749 58.7364C29.4037 58.9366 29.7455 59.1146 30.0979 59.2694C30.3488 59.3947 30.5435 59.2767 30.5472 59.0009C30.552 58.6954 30.6598 58.5997 30.9089 58.6946C31.4856 58.9144 32.0648 59.1278 32.6311 59.3695C32.7675 59.4409 32.9175 59.4829 33.0712 59.4927C33.2248 59.5024 33.3789 59.4797 33.5232 59.4261C33.6618 59.357 33.8122 59.3151 33.9665 59.3024C34.5917 59.3079 35.2168 59.3281 35.8417 59.363C36.385 59.3942 37 59.2816 37.4439 59.5902C38.0648 60.0224 38.656 59.4507 39.2387 59.6815C39.5329 59.7752 39.8222 59.8836 40.1055 60.0065C40.2427 60.0769 40.3937 60.1158 40.5477 60.1207C40.7018 60.1255 40.855 60.0961 40.9962 60.0345C41.2953 59.9274 41.3804 60.1291 41.5153 60.3078C41.7652 60.6376 42.0266 60.7195 42.2874 60.5765C42.4872 60.4672 42.6713 60.333 42.8599 60.2061C43.1654 60.0014 43.4566 60.3326 43.7362 60.2445C44.3465 60.1007 44.9763 60.0591 45.6002 60.1213C46.1437 60.1528 46.6827 60.2392 47.2088 60.3793C47.9334 60.6371 48.6045 61.026 49.1883 61.5268C49.2307 61.5834 49.2578 61.65 49.2669 61.7201C49.276 61.7903 49.2669 61.8616 49.2404 61.9272C49.0963 62.187 48.9248 62.4306 48.7289 62.6539C48.6547 62.7419 48.5612 62.8116 48.4558 62.8576C48.3503 62.9036 48.2356 62.9246 48.1207 62.9191C47.6526 62.9033 47.1849 62.8794 46.7181 62.8513L42.2739 62.5799C41.7564 62.738 41.2061 62.7554 40.6796 62.6302C40.0442 62.518 39.4483 62.7085 38.8293 62.6479C37.0404 62.4736 35.2492 62.3245 33.4576 62.1762C32.8331 62.1663 32.216 62.0399 31.6379 61.8036C31.3442 61.6942 31.0251 61.672 30.719 61.7395C30.3355 61.8006 29.9475 61.8288 29.5592 61.824C28.9278 61.7967 28.3274 61.7665 27.6716 61.725C26.9108 61.6917 26.1575 61.5597 25.4308 61.3321C25.011 61.1895 24.6114 60.9931 24.2421 60.7477C23.9014 60.5191 23.5825 60.2595 23.2897 59.972C23.1931 59.8782 23.105 59.7848 23.0157 59.6915C22.9703 59.7412 22.9168 59.7828 22.8573 59.8144C22.6534 59.9037 22.4251 60.0915 22.139 60.009C21.7835 59.8683 21.3887 59.863 21.0295 59.994C20.6441 60.1708 20.2356 59.9572 19.8312 59.9804C19.5226 60.0027 19.2239 60.0983 18.9598 60.2595C18.6407 60.4536 18.298 60.6059 17.9401 60.7125C17.5328 60.8389 17.136 60.9968 16.7533 61.1848C16.3054 61.3952 15.824 61.5254 15.3311 61.5697C14.9092 61.6013 14.4566 61.6352 14.0569 61.6649C13.6306 61.7015 13.2021 61.6283 12.8122 61.4523C12.4223 61.2763 12.0839 61.0034 11.8293 60.6596C11.5444 60.2629 11.1896 59.9213 10.7823 59.6516C10.4511 59.4343 10.1708 59.1478 9.96079 58.8119L9.88605 58.6881L9.83232 58.5845C9.79807 58.5144 9.7668 58.4429 9.73868 58.3689C9.6815 58.2179 9.63849 58.0618 9.61022 57.9028C9.55102 57.6758 9.43759 57.4665 9.27969 57.293C8.75835 56.5622 8.32868 55.7702 8.00031 54.9347C7.78086 54.3966 7.6053 53.8303 7.41365 53.2136L7.27066 52.7215L7.1868 52.3907L7.10997 52.0306C7.00307 51.5449 6.97005 51.0458 7.01202 50.5503C7.05092 50.2674 7.18845 50.0074 7.40036 49.8161ZM22.9237 36.2402C22.9667 36.2146 23.0076 36.1873 23.0514 36.1625C23.1552 36.0951 23.2425 36.0052 23.3068 35.8994C23.2516 35.9521 23.1905 35.9981 23.1247 36.0366C23.0386 36.0826 22.9686 36.1535 22.9237 36.2402ZM24.7913 34.3914C24.9423 33.9971 25.4578 34.0071 25.624 33.6763C25.7865 33.3532 26.0158 33.0684 26.2967 32.8406C26.3853 32.3549 26.7324 32.1356 27.0971 31.9078C27.1428 31.8789 27.1505 31.7811 27.1594 31.7128C27.165 31.5452 27.2247 31.384 27.3295 31.2531C27.4344 31.1222 27.5787 31.0287 27.7409 30.9865C28.0289 30.8859 28.0643 30.5962 28.1482 30.3778C28.0469 30.0947 28.0103 29.7925 28.041 29.4935C27.9577 29.5497 27.8692 29.6043 27.7837 29.6626C27.6107 29.7803 27.3208 29.8528 27.2609 30.0204C27.0709 30.5488 26.6181 30.7993 26.2405 31.155C26.059 31.2931 25.9258 31.485 25.8597 31.7033C25.7936 31.9215 25.7981 32.1551 25.8726 32.3707C25.9079 32.4375 25.9287 32.5111 25.9337 32.5865C25.9388 32.6619 25.9279 32.7376 25.9018 32.8086C25.8756 32.8795 25.8349 32.9442 25.7821 32.9983C25.7294 33.0525 25.6658 33.095 25.5956 33.123C25.0748 33.3307 24.8558 33.8891 24.3827 34.1654C24.0427 34.3648 24.0929 34.8411 23.8511 35.1543C23.8447 35.1628 23.8388 35.1718 23.8325 35.1802C23.9211 35.1007 24.0214 35.0353 24.1299 34.9863C24.2759 34.9394 24.4103 34.8622 24.5243 34.7596C24.6383 34.6571 24.7293 34.5316 24.7913 34.3914ZM9.5762 52.181C9.72509 52.4053 9.89269 52.6167 10.0772 52.8128C10.6085 53.3203 10.9394 54.002 11.0095 54.7333C11.0811 55.1767 11.2057 55.6099 11.3805 56.0237C11.5284 56.3776 11.694 56.7238 11.8766 57.061L12.0139 57.3154L12.0836 57.4424L12.1457 57.5484C12.2268 57.6894 12.3159 57.8257 12.4128 57.9564C12.8028 58.4755 13.2487 58.9502 13.7426 59.3717C13.8293 59.4508 13.9907 59.4084 14.1051 59.4377C14.3948 59.5013 14.6922 59.5234 14.9882 59.5035C15.5023 59.4617 16.0036 59.3214 16.4647 59.0902C17.0247 58.8088 17.556 58.4737 18.0512 58.0896C18.2436 57.9578 18.4613 57.8675 18.6905 57.8245C18.9197 57.7814 19.1553 57.7866 19.3824 57.8397C19.709 57.9242 20.0558 57.8788 20.3496 57.7129C20.5921 57.5978 20.8561 57.5354 21.1245 57.5299C21.1155 57.5166 21.1063 57.5052 21.0975 57.4916C20.6346 56.8746 20.1391 56.2827 19.6129 55.7187C19.3224 55.3638 19.0802 54.9645 18.8175 54.5814C17.8042 54.0337 17.2696 52.9794 16.5237 52.1108C16.3869 51.91 16.295 51.6821 16.2544 51.4427C16.2376 51.3636 16.2045 51.2889 16.1573 51.2233C16.11 51.1577 16.0496 51.1027 15.98 51.0617C15.6085 50.7711 15.3045 50.4035 15.0889 49.9841C14.8751 49.6311 14.6885 49.2506 14.4439 48.8889C14.4101 48.9214 14.3777 48.9549 14.3429 48.9864C14.2324 49.1026 14.0867 49.1792 13.9284 49.2047C13.77 49.2301 13.6077 49.2029 13.4663 49.1272C13.2977 49.0347 13.1261 49.068 13.0868 49.2303C12.9011 50.0498 12.2937 50.6289 11.3963 50.9336C11.1941 51.0008 10.9911 51.0683 10.7874 51.1361L10.4781 51.2286L10.3236 51.2745L10.2575 51.2937C10.2806 51.2837 10.2572 51.29 10.2512 51.2904C10.0877 51.305 9.92931 51.3544 9.78647 51.4352C9.65619 51.5359 9.55229 51.6667 9.48369 51.8164C9.45494 51.8785 9.44844 51.9487 9.46529 52.0151C9.48213 52.0815 9.52129 52.1401 9.5762 52.181Z" fill="#000638"/>
<path d="M27.195 25.398C27.2704 25.2691 27.3524 25.1418 27.4323 25.0132C27.518 24.8883 27.6154 24.7718 27.7233 24.6655C27.8346 24.5625 27.9524 24.4668 28.0759 24.3789C28.2045 24.2986 28.3375 24.2255 28.4742 24.16C28.934 23.9519 29.4377 23.8598 29.9414 23.8916C30.4735 23.9171 30.9983 24.026 31.4966 24.2143C31.8513 24.3463 32.1941 24.5084 32.5211 24.699C32.6841 24.7907 32.8405 24.8935 32.9972 25.0001L33.2294 25.167L33.4073 25.3087L34.8224 26.4407L36.1835 27.6327C37.9416 29.2719 39.6066 31.0082 41.1706 32.8335C41.7534 33.4761 42.2809 34.1667 42.7475 34.8981C42.7752 34.9409 42.8038 34.9841 42.8315 35.0271C43.0147 35.0634 43.2023 35.102 43.3996 35.1482C43.707 35.2163 44.0025 35.3202 44.3007 35.4161C44.8629 35.6306 45.4017 35.902 45.9086 36.2263C46.5096 36.6252 47.0232 37.142 47.4182 37.7455C47.5305 37.7936 47.6426 37.8457 47.7539 37.9061C48.5635 38.3528 49.2083 39.0477 49.5934 39.8884C50.1436 41.0806 50.2467 42.4309 49.8838 43.6928C49.8545 43.7898 49.8199 43.8828 49.7867 43.9767C49.7418 44.3213 49.6505 44.6583 49.515 44.9784C49.431 45.1797 49.3285 45.3728 49.2087 45.5551C49.3199 45.7637 49.4325 45.971 49.5494 46.1752C49.735 46.5489 49.8742 46.9438 49.964 47.3512C50.0313 47.6219 50.1628 47.8724 50.3475 48.0814C50.8317 48.709 51.2497 49.3849 51.5949 50.0984C51.9542 50.8175 52.3622 51.5112 52.8161 52.1746C53.0496 52.8799 53.2307 53.6061 53.4482 54.3415C53.6692 55.0786 53.8471 55.9224 54.0791 56.6154C54.1915 56.9462 54.2793 57.2847 54.3419 57.6284C54.3696 57.8029 54.3962 57.9785 54.4173 58.1553L54.4358 58.4344C54.4394 58.5722 54.4484 58.7136 54.443 58.8483C54.4374 59.3827 54.3603 59.9138 54.2137 60.4277C54.0605 60.8941 53.7888 61.3128 53.4251 61.6426C53.1423 61.8839 52.8123 62.0635 52.4561 62.1699C52.1002 62.2705 51.7265 62.2917 51.3615 62.2319C50.9903 62.1656 50.6324 62.0393 50.3018 61.8579C49.9579 61.6587 49.6381 61.4206 49.3485 61.1483C49.2196 61.0201 49.0965 60.89 48.9831 60.7551C48.8782 60.6231 48.7436 60.4677 48.6774 60.3679C48.6013 60.2654 48.5258 60.1601 48.4438 60.055C48.3736 59.9633 48.296 59.8775 48.2118 59.7985C47.0554 58.7231 46.1897 57.3446 45.3118 56.0139C45.2627 55.9397 45.2127 55.8692 45.1634 55.796C45.3048 56.116 45.4335 56.4351 45.5444 56.7516C45.5585 56.7889 45.5645 56.8289 45.562 56.8687C45.5594 56.9086 45.5484 56.9474 45.5297 56.9827C45.511 57.018 45.4849 57.0489 45.4533 57.0733C45.4218 57.0977 45.3853 57.1152 45.3465 57.1245C44.9586 57.1225 44.5723 57.0728 44.1966 56.9763C43.8162 56.864 43.4768 56.6431 43.2202 56.3407C42.6337 55.671 42.042 55.0048 41.482 54.3139C39.6907 52.1328 38.0124 49.8611 36.4539 47.5079C35.7441 46.7823 35.1548 45.948 34.7082 45.0364C34.5643 44.7669 34.408 44.5131 34.2448 44.2677C34.0874 44.0191 33.9245 43.7781 33.76 43.539C33.4162 43.0679 33.1028 42.5754 32.8216 42.0645C31.216 39.0405 29.7819 35.9285 28.5261 32.7432C28.0648 31.6659 27.7332 30.5376 27.5382 29.382C27.4952 29.0972 27.4206 28.8181 27.3159 28.5499L27.2149 28.2634C27.1746 28.1435 27.135 28.0228 27.0996 27.9004C27.0275 27.6573 26.9724 27.4095 26.9348 27.1587C26.8408 26.559 26.9316 25.9449 27.195 25.398ZM37.7086 39.616C37.7556 39.7676 37.812 39.916 37.8777 40.0605C38.2066 39.9121 38.5109 39.7142 38.7798 39.4737C38.738 39.3239 38.6798 39.1792 38.6064 39.0422C38.2974 39.2454 37.999 39.435 37.7086 39.616ZM43.9253 41.9768C43.5852 41.6414 43.3109 41.2454 43.1163 40.8092C43.081 40.8604 43.0483 40.9127 43.0177 40.9661C43.0438 41.0184 43.0696 41.0705 43.0957 41.1232L43.1952 41.3393C43.2277 41.4161 43.2576 41.4776 43.3022 41.5893C43.4676 41.9886 43.5808 42.4076 43.639 42.8359C43.653 42.9413 43.661 43.0473 43.663 43.1536C43.9698 42.9715 44.2604 42.7633 44.5314 42.5312C44.3282 42.3617 44.1246 42.1674 43.9253 41.9768ZM43.3235 47.732L43.1663 47.7444C43.1482 47.7469 43.1296 47.7474 43.1113 47.7487C43.1393 47.8145 43.173 47.8778 43.2118 47.9379C43.323 47.8738 43.4405 47.7977 43.5621 47.7125C43.4812 47.7191 43.3986 47.7258 43.3235 47.732ZM39.4011 42.8642C39.5027 42.7803 39.6222 42.7208 39.7504 42.6903C39.8786 42.6598 40.0121 42.659 40.1407 42.688C40.1729 42.489 40.2037 42.2887 40.2265 42.0825C40.2318 42.0362 40.2429 41.9927 40.2503 41.9473C40.2211 41.8756 40.1915 41.8029 40.1592 41.7278C40.1505 41.7108 40.1401 41.6949 40.1281 41.6801C40.0042 41.7649 39.8754 41.8423 39.7423 41.9118C39.4972 42.0343 39.2634 42.1754 39.0172 42.3282C39.1233 42.5215 39.2522 42.7015 39.4011 42.8642ZM33.9679 33.9175C33.9818 34.0148 34.0038 34.1108 34.0338 34.2044C34.0448 34.2884 33.968 34.3127 33.9417 34.3913C33.9119 34.4329 33.8845 34.4763 33.8597 34.5211C33.848 34.5514 33.8471 34.5847 33.8572 34.6156C33.8673 34.6464 33.8878 34.6728 33.9151 34.6903C33.9983 34.7457 34.0723 34.8139 34.1343 34.8923C34.1464 34.9087 34.1575 34.9254 34.1679 34.9425L34.2295 35.0454C34.2928 35.1504 34.3528 35.2563 34.4105 35.363C34.6421 35.7895 34.8402 36.226 35.068 36.6567C35.2249 36.9609 35.4096 37.2499 35.6198 37.52C35.7695 37.3875 35.9284 37.2656 36.0952 37.1553C36.3144 37.0136 36.545 36.8902 36.7845 36.7862C36.4191 36.2977 36.081 35.7915 35.7101 35.3417C35.5448 35.1427 35.3717 34.9521 35.2025 34.769C35.1186 34.6793 35.0352 34.5903 34.9523 34.5019L34.8911 34.4379C34.8668 34.4126 34.8809 34.422 34.874 34.4119L34.8603 34.3739C34.8213 34.2537 34.7649 34.1399 34.6928 34.036C34.5869 33.8809 34.4474 33.7515 34.2847 33.6573C34.169 33.5903 34.075 33.6032 34.0238 33.6554C33.9967 33.6928 33.9778 33.7354 33.9681 33.7806C33.9585 33.8257 33.9584 33.8724 33.9679 33.9175ZM39.4779 34.8977C39.5508 34.9665 39.6223 35.0372 39.6972 35.1034C39.7615 35.1639 39.8156 35.2344 39.8576 35.312C39.9634 35.3321 40.0746 35.3574 40.197 35.3925C40.3031 35.4259 40.4124 35.4483 40.5231 35.4593C40.1792 35.2605 39.8293 35.0774 39.4779 34.8977ZM46.8145 52.7392C47.2363 53.3096 47.7332 53.816 48.1985 54.3495C48.6208 55.4942 49.6155 56.554 49.9949 57.6969C50.0651 57.9667 50.2212 58.2062 50.4396 58.3793C50.495 58.4252 50.5481 58.4692 50.5981 58.5107C50.6345 58.545 50.6671 58.5832 50.6951 58.6247C50.7598 58.7201 50.7337 58.7524 50.7015 58.8238C50.6666 58.889 50.6453 58.9606 50.6391 59.0343C50.6328 59.108 50.6418 59.1822 50.6653 59.2523C50.6741 59.285 50.6904 59.3153 50.713 59.3406C50.7356 59.366 50.7637 59.3857 50.7953 59.3982C50.8268 59.4107 50.8608 59.4157 50.8946 59.4128C50.9284 59.4098 50.9611 59.399 50.9899 59.3812C51.1012 59.3131 51.2049 59.2334 51.2992 59.1433C51.3777 59.0662 51.4339 58.9693 51.4619 58.8629C51.4847 58.7807 51.4812 58.6935 51.452 58.6133C51.4227 58.5332 51.3692 58.4642 51.2988 58.416C51.2901 58.4117 51.334 58.4096 51.3932 58.4011C51.4081 58.3944 51.4238 58.4051 51.4403 58.3822C51.4573 58.3593 51.4742 58.3364 51.4907 58.3142C51.5255 58.269 51.558 58.2267 51.5843 58.1926C51.6565 58.1142 51.6971 58.0119 51.6983 57.9053C51.6995 57.7988 51.6612 57.6955 51.5908 57.6155C51.4428 57.3947 51.3189 57.2348 51.2274 57.101C51.1504 56.9937 51.0887 56.8763 51.0439 56.752C50.9972 56.4518 51.0153 56.1451 51.0969 55.8525C51.1652 55.1203 51.1342 54.3822 51.0048 53.6583C50.8894 52.6903 50.4846 51.7797 49.8433 51.0454C49.241 50.2485 48.7315 49.3854 48.3248 48.4729C48.0848 48.0035 47.844 47.5346 47.6026 47.066C47.4604 47.2393 47.329 47.4212 47.2094 47.6108C46.9061 48.0963 46.493 48.5653 46.1898 49.017C45.8489 49.541 45.4154 49.9986 44.9106 50.3673C45.6125 51.1015 46.2495 51.8951 46.8145 52.7392ZM38.0179 46.2437C38.3073 46.4669 38.6085 46.6745 38.9201 46.8655C39.1974 47.0904 39.4089 47.3858 39.5323 47.7208C39.5468 47.6574 39.5613 47.5943 39.5808 47.5332C39.1119 46.7866 38.5941 46.0718 38.0306 45.3938C37.8278 45.1479 37.6182 44.9198 37.4143 44.686C37.413 44.7566 37.4093 44.8277 37.4096 44.9023C37.3998 45.1578 37.4496 45.412 37.5552 45.6449C37.6608 45.8777 37.8192 46.0828 38.0179 46.2437ZM29.4491 26.9878C29.4811 27.0411 29.5235 27.0875 29.5738 27.1241C29.624 27.1607 29.6811 27.1869 29.7417 27.2011C29.8535 27.2413 29.9625 27.2887 30.0681 27.3431C30.125 27.3749 30.1303 27.3836 30.0921 27.4062C30.0691 27.421 30.049 27.4399 30.0328 27.4619C30.0236 27.4742 30.0153 27.4872 30.0079 27.5006C30.0045 27.5076 30.0006 27.5143 29.9962 27.5207L30.0075 27.6096L30.1457 28.4086C30.2376 28.949 30.3291 29.4864 30.42 30.0206C30.4648 30.2828 30.5314 30.5408 30.619 30.7919C30.6645 30.7594 30.7095 30.7282 30.75 30.7024L31.1919 30.4196C31.3616 30.3538 31.5263 30.2701 31.6987 30.2101C32.0789 30.102 32.4737 30.0549 32.8686 30.0704C33.4369 30.1046 33.9938 30.2448 34.5107 30.4836L34.9198 30.6771L35.3224 30.9152L35.5217 31.0328L35.7171 31.1717C35.8469 31.2619 35.9771 31.3523 36.1076 31.4429C36.3576 31.656 36.6176 31.8458 36.8536 32.075L37.1158 32.3311L37.3285 32.5571C37.3617 32.5923 37.392 32.6276 37.4246 32.6628C37.411 32.6457 37.3982 32.6282 37.3846 32.6111C37.0774 32.2231 36.7203 31.871 36.3893 31.5002C36.221 31.312 36.0417 31.1338 35.8524 30.9667C35.6708 30.8147 35.4809 30.673 35.2835 30.5423C34.918 30.2942 34.5181 30.101 34.0966 29.9688C33.714 29.8602 33.5574 29.6784 33.4102 29.225C33.3379 29.0023 33.3064 28.8007 33.082 28.6492C32.7414 28.4333 32.3848 28.2438 32.0152 28.0823C31.7954 27.9877 31.5846 27.8879 31.3833 27.7777C31.2717 27.7111 31.2135 27.6969 31.1389 27.6562C31.0652 27.622 30.9917 27.5851 30.9204 27.5462C30.7749 27.4701 30.6338 27.3859 30.4977 27.2941L30.3967 27.2218L30.372 27.2042C30.3709 27.2011 30.3734 27.1993 30.374 27.1963C30.3768 27.1897 30.3785 27.1828 30.3793 27.1756C30.3686 27.1353 30.355 27.0958 30.3386 27.0575C30.267 26.9232 30.15 26.8188 30.0084 26.763C29.8669 26.7072 29.7101 26.7036 29.5661 26.7529C29.5417 26.7586 29.5188 26.7696 29.4991 26.7851C29.4794 26.8007 29.4634 26.8204 29.4523 26.8428C29.4411 26.8652 29.435 26.8899 29.4344 26.915C29.4339 26.94 29.4389 26.9649 29.4491 26.9878Z" fill="#000638"/>
<path d="M21.5097 36.5997C21.6106 36.4401 21.7153 36.284 21.8218 36.1309C21.9199 35.9923 22.0431 35.8732 22.1849 35.7798C22.3312 35.6779 22.4931 35.6007 22.6643 35.5512C22.9199 35.4804 23.1892 35.4745 23.4477 35.534C23.5442 35.0817 23.6543 34.6448 23.7806 34.2384C23.9178 33.7282 24.1779 33.2593 24.5383 32.873C24.6769 32.7096 24.8499 32.5789 25.045 32.4903C25.1699 32.4395 25.3029 32.4116 25.4377 32.4078C25.5635 32.4076 25.6888 32.4241 25.8103 32.4569C25.9013 32.4815 25.9906 32.5121 26.0775 32.5486C26.1235 32.4804 26.1696 32.4109 26.2146 32.3424C26.5213 31.9219 26.9517 31.6076 27.4457 31.4435C27.7234 31.3636 28.0149 31.344 28.3008 31.386C28.5681 31.4312 28.8244 31.5268 29.056 31.6677C29.2875 31.8065 29.4996 31.9753 29.6869 32.1696C29.7855 32.27 29.8786 32.4044 29.9768 32.5199C30.0857 32.6396 30.1817 32.7706 30.263 32.9105C30.3685 33.0904 30.4632 33.2764 30.5465 33.4676C30.6134 33.6579 30.6699 33.8518 30.7157 34.0484C30.7914 34.3922 30.8309 34.7429 30.8337 35.0949C30.8379 35.1706 30.8377 35.2465 30.8332 35.3221C30.8297 35.3939 30.8196 35.4403 30.8142 35.5004C30.801 35.6141 30.7941 35.7266 30.7897 35.8413C30.7776 36.0841 30.8035 36.3272 30.8665 36.562C31.062 37.2567 31.174 37.9723 31.2001 38.6935C31.2296 39.4066 31.1257 40.1189 30.8937 40.7938C30.826 41.0463 30.6834 41.2724 30.4847 41.4424C30.524 41.6614 30.5488 41.8828 30.559 42.105C30.5616 42.2062 30.5646 42.3052 30.558 42.4181C30.5548 42.5336 30.545 42.6489 30.5288 42.7633C30.4931 43.0529 30.4171 43.3362 30.303 43.6049C30.1301 44.0167 29.8505 44.375 29.493 44.6427C29.2841 44.7973 29.0517 44.9173 28.8047 44.9982C28.5913 45.0646 28.3702 45.103 28.1469 45.1123C27.9755 45.1094 27.805 45.0883 27.6381 45.0494C27.5943 45.0398 27.571 45.0368 27.511 45.0203L27.3458 44.9712C27.2376 44.9368 27.1317 44.8956 27.0286 44.848C26.8459 44.7567 26.6754 44.6428 26.521 44.509C26.4525 44.4478 26.3864 44.3847 26.3231 44.3201C26.2701 44.2615 26.2201 44.2002 26.1733 44.1366C26.0902 44.0239 26.0145 43.906 25.9466 43.7837C25.9203 43.7971 25.8958 43.8123 25.8671 43.8244C25.7968 43.8524 25.7248 43.8757 25.6514 43.8942C25.5045 43.9293 25.353 43.9417 25.2023 43.9308C25.1371 43.9239 25.0723 43.9136 25.0082 43.8998C24.9515 43.8885 24.8956 43.8732 24.8411 43.8541C24.7693 43.8276 24.6979 43.7977 24.6281 43.7651C24.5092 43.7096 24.3974 43.6401 24.295 43.558C24.3672 43.7735 24.4794 43.9734 24.6256 44.1473C24.967 44.5069 24.9666 44.5135 24.661 44.7869C24.582 44.9045 24.4782 45.0033 24.3569 45.0763C24.2356 45.1494 24.0997 45.1949 23.9589 45.2096C23.2952 44.9698 22.6846 44.603 22.1612 44.1297C22.0363 44.0116 21.933 43.8726 21.8558 43.719C21.7682 43.561 21.6943 43.3956 21.6352 43.2249C21.5684 43.0536 21.5015 42.8821 21.4368 42.7159C21.3676 42.5517 21.2831 42.3943 21.1844 42.2459C20.8244 41.7409 20.88 41.1748 20.9593 40.6363C21.0162 40.3642 21.0558 40.0939 21.0928 39.8149C21.0992 39.7555 21.1067 39.6562 21.1109 39.5544C21.1145 39.4554 21.1188 39.3537 21.1262 39.252C21.1386 39.0293 21.1362 38.806 21.1191 38.5836C21.1083 38.3583 21.1183 38.1326 21.1491 37.9092C21.1622 37.7916 21.1782 37.6718 21.1971 37.5516C21.2203 37.4393 21.2501 37.3284 21.2862 37.2196L21.39 36.8986L21.4442 36.7389L21.4721 36.6598L21.5097 36.5997ZM27.3998 39.6394C27.35 39.3397 27.2994 39.0336 27.2481 38.7211C27.2302 38.6127 27.2124 38.505 27.1945 38.3966C27.1902 38.4974 27.1814 38.6011 27.1789 38.7009C27.1835 39.0261 27.2589 39.3463 27.3998 39.6394L27.3998 39.6394ZM29.1041 34.7518C29.0997 34.6317 28.9594 34.6317 28.8935 34.6052C28.7677 34.5391 28.6454 34.4666 28.5271 34.3879C28.4563 34.3423 28.3757 34.314 28.2919 34.3055C28.2081 34.297 28.1235 34.3084 28.0449 34.3388C28.1211 34.4584 28.1959 34.581 28.2671 34.7113C28.5935 35.2869 28.8578 35.7533 29.1377 36.2471C29.1675 36.3029 29.196 36.3561 29.2244 36.4095C29.1905 36.2247 29.1561 36.0374 29.1238 35.8614C29.1052 35.5658 29.1096 35.2392 29.1041 34.7518L29.1041 34.7518ZM29.4592 37.6916C29.4406 37.981 29.4851 38.2711 29.5894 38.5417C29.5948 38.5547 29.6029 38.5665 29.6086 38.5793C29.5629 38.2841 29.5133 37.9869 29.4592 37.6916L29.4592 37.6916ZM27.6682 42.5684C27.7118 42.6608 27.7812 42.7386 27.8679 42.7924C27.879 42.8018 27.8883 42.7942 27.8964 42.8021C27.8989 42.8096 27.9436 42.8065 27.9637 42.8108C27.9848 42.8149 28.0065 42.815 28.0277 42.8112C28.0461 42.8107 28.0639 42.8109 28.0705 42.8048C28.113 42.7925 28.1075 42.7875 28.1181 42.7645C28.1276 42.7478 28.1306 42.7282 28.1266 42.7094C27.8986 42.202 27.742 41.6654 27.6613 41.115C27.6185 40.8974 27.5764 40.6651 27.5342 40.4268C27.5148 40.6199 27.4603 40.8079 27.3733 40.9815C27.3293 41.185 27.329 41.3956 27.3726 41.5992C27.4117 41.9375 27.5119 42.2659 27.6682 42.5684L27.6682 42.5684Z" fill="#006ADC"/>
<path d="M22.8655 38.6644C23.0635 38.3659 23.3221 38.1125 23.6244 37.9206C23.9268 37.7287 24.2662 37.6025 24.6205 37.5504C25.099 37.4835 25.5867 37.547 26.0321 37.7343C25.9608 37.5192 25.8803 37.2943 25.8056 37.0735C25.5698 36.3766 25.7237 36.4216 25.8569 36.504C25.9989 36.5957 26.1338 36.7132 26.0718 36.3993C25.9925 36.1509 25.9398 35.8948 25.9145 35.6353C25.9519 35.5243 26.175 35.8032 26.1535 35.4786C26.1317 35.2466 26.1629 35.0127 26.2447 34.7944C26.3264 34.5762 26.4567 34.3794 26.6255 34.2188C26.8151 34.0485 27.0358 33.9166 27.2756 33.8303C27.5365 33.7331 27.8118 33.68 28.0902 33.6732C28.2952 33.7352 28.4868 33.8348 28.6553 33.9669C28.8156 34.102 28.9664 34.248 29.1065 34.404C29.5934 34.7637 29.9954 35.2258 30.2843 35.7578C30.3955 35.9325 30.4966 36.1134 30.5869 36.2997C30.6851 36.4844 30.7823 36.6673 30.8784 36.8482C31.0679 37.2299 31.2474 37.6188 31.4271 37.9109C31.7081 38.3557 32.0353 38.7696 32.4031 39.1458C32.8534 39.6474 33.2303 40.2104 33.5224 40.8179C33.6325 41.1341 33.7414 41.4473 33.8493 41.7573L34.0043 42.211L34.082 42.436L34.1153 42.5578C34.2037 42.8838 34.2941 43.2029 34.3958 43.5144C34.5875 44.1473 34.8638 44.7514 35.2172 45.3103C35.4416 45.6544 35.3667 46.0371 35.3067 46.4187C35.2381 46.8056 35.1982 47.1808 35.4522 47.479C35.7841 47.8543 36.1483 48.2148 36.489 48.542C36.8322 48.8742 37.1395 49.1643 37.4372 49.4829C37.7351 49.7927 37.8273 50.0524 37.7544 50.2824C37.7161 50.3858 37.6514 50.4773 37.5667 50.5479C37.4821 50.6185 37.3804 50.6658 37.2718 50.6849C36.706 50.7476 36.1341 50.6443 35.626 50.3875C35.0625 50.1125 34.5596 49.7277 34.147 49.2555C33.3555 48.3397 32.9252 47.2883 33.0165 46.4055C33.0171 46.3905 33.0137 46.3756 33.0067 46.3623C32.9974 46.4038 32.9915 46.4463 32.9801 46.4868C32.9633 46.5485 32.9416 46.6088 32.9155 46.6671C32.8869 46.7341 32.8549 46.8005 32.8197 46.865C32.7514 46.9946 32.668 47.1157 32.5712 47.2257C32.4672 47.3386 32.3521 47.4408 32.2275 47.5306C32.1714 47.5716 32.1129 47.6093 32.0523 47.6435L31.9752 47.6787C31.8208 47.7477 31.6575 47.7946 31.4901 47.818C31.3676 47.8556 31.2387 47.8672 31.1115 47.8523C30.6234 47.8109 30.1566 47.6341 29.7636 47.3417C29.6293 47.2421 29.5002 47.1356 29.3768 47.0227L29.1748 46.8077L29.0742 46.7005C29.0409 46.6625 29.008 46.6099 28.9749 46.5654C28.6908 46.18 28.4496 45.7647 28.2555 45.327C28.1216 45.4546 27.969 45.5612 27.803 45.6429C27.1322 45.687 26.4586 45.6279 25.8058 45.4677C25.215 45.2966 25.03 44.6189 24.435 44.3823C23.9116 44.1696 23.8209 43.7134 23.757 43.2687C23.69 42.8173 23.6591 42.375 23.1946 42.0131C23.0898 41.9317 22.9939 41.8396 22.9083 41.7382C22.8652 41.6872 22.8247 41.6343 22.7868 41.5794C22.7445 41.521 22.7087 41.4582 22.6799 41.3921C22.526 41.0527 22.4379 40.6872 22.4201 40.315C22.4087 40.0618 22.4305 39.8083 22.4848 39.5608C22.5549 39.241 22.684 38.937 22.8655 38.6644ZM30.612 45.0842C30.5794 45.0267 30.5536 44.9814 30.6118 45.0842L30.612 45.0842ZM30.0726 40.7097C29.9764 40.1859 29.7929 39.6821 29.5298 39.2191C29.445 39.0042 29.2803 38.8304 29.0704 38.7341C29.0395 38.7239 29.0067 38.7213 28.9746 38.7266C28.9426 38.732 28.9123 38.745 28.8864 38.7647C28.8605 38.7843 28.8398 38.81 28.8261 38.8394C28.8124 38.8689 28.806 38.9012 28.8076 38.9337C28.8493 39.388 28.8971 39.7829 28.945 40.1277C29.3522 40.478 29.748 40.8346 30.1327 41.2053C30.1149 41.0621 30.0952 40.899 30.0726 40.7097ZM30.4354 41.5035C30.5063 41.5745 30.5775 41.6453 30.6476 41.7176C30.6223 41.6533 30.5987 41.5896 30.5724 41.5252C30.5285 41.4159 30.4809 41.433 30.4354 41.5035ZM31.1066 45.9476L31.098 45.9401L31.0989 45.9414L31.1066 45.9476ZM30.153 45.9459L30.1531 45.9457L30.152 45.9459L30.153 45.9459Z" fill="#80829B"/>
<path d="M16.554 61.0882C16.6069 61.0007 16.6669 60.9177 16.7334 60.84C16.986 60.5503 17.3267 60.3513 17.7033 60.2737C17.7808 60.2574 17.8593 60.2459 17.9382 60.2391C18.0454 60.2337 18.1528 60.2373 18.2594 60.2499C18.3132 60.2562 18.3664 60.2647 18.419 60.2756L18.5021 60.2953C18.551 60.3081 18.6001 60.3225 18.6487 60.3387C18.6748 60.3476 18.6954 60.3549 18.714 60.3617C18.7935 60.322 18.8755 60.2875 18.9594 60.2584C19.397 60.1102 19.8735 60.1268 20.2997 60.3049C20.4612 60.372 20.6137 60.459 20.7537 60.5639C20.8323 60.6229 20.9073 60.6864 20.9785 60.7541C21.0118 60.7877 21.0447 60.8209 21.0773 60.8536C21.14 60.9161 21.2008 60.9769 21.2597 61.0358C21.7111 61.4645 22.1149 61.9405 22.4643 62.4558C22.6253 62.681 22.7213 62.9462 22.7418 63.2224C22.7544 63.6818 22.8705 64.1324 23.0814 64.5407C23.2576 64.7804 23.4314 65.0288 23.5991 65.3011C23.8444 65.692 24.0492 66.1069 24.2102 66.5394C24.4139 67.085 24.5 67.6676 24.4627 68.2488C24.454 68.3832 24.4337 68.5166 24.4021 68.6475C24.3393 68.9086 24.2241 69.1542 24.0635 69.3694C24.0225 69.4235 23.9783 69.4752 23.9312 69.5241C24.4253 69.7514 24.7912 70.0686 24.8291 70.6703C24.8857 70.9949 25.0137 71.3029 25.2039 71.572C25.47 72.088 25.2053 72.587 24.8269 72.9962C24.5492 73.2471 24.245 73.4668 23.9196 73.6516C23.6796 73.8135 23.5764 73.7963 23.4374 73.4425C23.3776 73.2893 23.3424 73.1806 23.1566 73.125C22.9236 73.0776 22.7141 72.9511 22.5637 72.767C22.4132 72.5828 22.331 72.3524 22.3311 72.1146C22.3271 71.8304 22.2254 71.5563 22.0429 71.3385C21.8604 71.1207 21.6084 70.9724 21.3293 70.9187C21.2095 70.894 21.1 70.8335 21.0152 70.7453C20.9304 70.6571 20.8744 70.5453 20.8544 70.4246C20.7804 69.8918 20.5988 69.5098 20.025 69.3343C19.8247 69.2655 19.6493 69.1388 19.521 68.9703C19.3928 68.8018 19.3175 68.5989 19.3046 68.3875C19.2785 67.9653 19.1412 67.5576 18.9065 67.2057C18.55 66.7388 18.2733 66.2069 17.9569 65.6974C17.8185 65.4785 17.6388 65.2887 17.4278 65.1386C17.356 65.0937 17.2983 65.0294 17.2615 64.9532C17.2247 64.8769 17.2103 64.7918 17.2199 64.7077C17.2065 64.469 17.1909 64.2724 17.1656 64.1007C17.1524 63.9417 17.1233 63.7843 17.0785 63.6312C17.0569 63.5601 17.0309 63.4905 17.0008 63.4226C16.9754 63.3601 16.9436 63.3005 16.9057 63.2448C16.8393 63.1417 16.7339 63.0038 16.6004 62.7807C16.5318 62.6677 16.4742 62.5484 16.4283 62.4245C16.3964 62.3361 16.3717 62.2454 16.3545 62.1531C16.3291 61.9948 16.3281 61.8337 16.3514 61.6751C16.3581 61.6219 16.3678 61.5691 16.3804 61.5169C16.4003 61.4434 16.4244 61.3711 16.4528 61.3004C16.4817 61.2275 16.5155 61.1566 16.554 61.0882Z" fill="#006ADC"/>
<path d="M49.8395 45.0744C49.8925 44.5515 49.502 44.0477 49.4853 43.5902C49.4872 43.2576 49.5171 42.9258 49.5746 42.5983C49.6301 42.2539 49.6344 41.9032 49.5874 41.5575C49.6191 41.2772 49.6439 40.9928 49.6655 40.7008C49.6032 40.4214 49.4834 40.158 49.3136 39.9275C49.1438 39.6969 48.9278 39.5043 48.6794 39.362C48.5217 39.288 48.6447 39.0881 48.575 38.9887C48.5006 38.8846 48.2975 38.8745 48.1926 38.7928C47.8822 38.5639 48.199 38.0332 47.6725 37.9001C47.4839 37.8801 47.3044 37.8084 47.1537 37.6931C46.6059 37.1313 46.0165 36.6116 45.3905 36.1384C44.721 35.6548 43.9496 35.3309 43.1356 35.1915C42.3356 35.0776 41.5225 35.0935 40.7276 35.2385C40.4943 35.2663 40.2591 35.2739 40.0245 35.2611C39.7852 35.2426 39.5455 35.2244 39.3033 35.2197C39.182 35.2166 39.0594 35.2146 38.9377 35.2203C38.8181 35.2309 38.6992 35.2487 38.5817 35.2738C38.3391 35.3184 38.111 35.4219 37.9176 35.5751C37.8094 35.666 37.7241 35.7812 37.6689 35.9112C37.5352 36.2249 37.3082 36.2149 37.0738 36.2065C36.8417 36.1974 36.6154 36.211 36.5341 36.5312C36.4422 36.8971 36.0855 36.9103 36.0052 37.2545C35.9365 37.6689 35.9084 38.0889 35.9211 38.5087C36.0162 38.7664 36.158 39.0043 36.3396 39.2105C36.573 39.5397 36.5867 39.5535 36.722 39.3657C36.8149 39.2341 37.0897 39.1726 37.3471 39.1136C37.6006 39.0429 37.8394 38.9823 37.8769 38.7833C37.9217 38.5412 37.9982 38.3538 38.1761 38.3017C38.2909 38.2666 38.396 38.2064 38.5098 38.171C38.6358 38.1346 38.7706 38.1445 38.8898 38.1991C39.1305 38.3018 39.4243 38.1638 39.7265 37.9855C39.8798 37.9004 40.0341 37.8146 40.173 37.7373C40.2906 37.6778 40.4176 37.6392 40.5484 37.6233C40.9854 37.6205 41.0355 37.3756 41.1825 37.346C41.361 37.6413 41.5265 37.6062 41.7205 37.4946C41.9083 37.3959 42.1236 37.2454 42.3115 37.2954C42.431 37.3423 42.5223 37.5043 42.6376 37.5272C42.7234 37.5437 42.8504 37.3875 42.949 37.3895C43.0285 37.4031 43.1066 37.4234 43.1826 37.4504C43.2422 37.4701 43.3117 37.4878 43.3809 37.5163C43.4489 37.5479 43.5203 37.5812 43.5912 37.6143C43.7866 37.6933 43.9687 37.8019 44.131 37.9364C44.2061 38.2019 44.628 38.9164 44.9361 38.8822C45.6173 38.7831 45.9638 39.4021 46.1945 39.9722C46.436 40.5602 46.5819 41.0803 47.3539 41.225C47.4087 41.2335 47.5357 41.5291 47.6011 41.8458C47.6696 42.1623 47.6676 42.4923 47.5844 42.5514C47.407 42.6917 47.3378 42.8199 47.3773 42.9527C47.5008 43.0886 47.7384 43.2084 47.7297 43.3967C47.7082 43.8725 47.655 44.3463 47.5705 44.8151C47.5145 45.059 47.4304 45.2956 47.3199 45.5202C47.2028 45.743 47.1521 45.9948 47.174 46.2455C47.1865 46.3203 47.2531 46.45 47.1956 46.4653C46.9791 46.5251 46.7769 46.6281 46.6013 46.7682C46.4257 46.9083 46.2804 47.0825 46.1741 47.2804C45.9384 47.6935 45.7773 48.1449 45.698 48.6139C45.6843 48.7017 45.6926 48.7915 45.7219 48.8754C45.7513 48.9593 45.8008 49.0346 45.8662 49.0948C45.9316 49.1549 46.0109 49.198 46.0969 49.2203C46.1829 49.2425 46.2731 49.2432 46.3595 49.2223C46.9576 49.0788 47.3644 48.5036 47.6118 47.9894C47.7154 47.7943 47.9477 47.7549 48.2091 47.705C48.4594 47.6515 48.726 47.5782 48.8218 47.3333C49.121 46.5371 49.5543 45.8982 49.8395 45.0744Z" fill="#80829B"/>
<path d="M47.2032 54.1794C46.7607 53.7506 46.0572 53.5992 45.6415 53.165C45.1222 52.59 44.7673 51.6548 44.3094 50.9936C44.184 50.6773 44.0632 50.362 43.96 50.0378C43.5993 49.4546 43.0919 48.9762 42.4884 48.6504C42.3036 48.5616 42.3908 48.3269 42.2969 48.2115C42.1971 48.0894 41.9797 48.0621 41.8497 47.9552C41.4603 47.6409 41.7811 47.076 41.2125 46.8129C40.9933 46.734 40.7983 46.5997 40.6464 46.4229C39.4571 44.7347 38.7708 42.9593 37.7192 41.1688C37.1984 40.291 36.6769 39.4114 36.1909 38.5102C35.6102 37.4127 35.7542 36.0614 34.995 34.9924C34.8907 34.8519 34.7603 34.7329 34.6108 34.6419C33.9173 34.2094 34.591 33.4126 33.9147 33.0297C33.5179 32.8042 33.54 32.3226 33.1888 32.0815C32.7884 31.8101 32.3258 31.5943 31.8802 31.3542C31.6016 31.3362 31.3238 31.4002 31.0811 31.5381C30.7025 31.677 30.6877 31.6922 30.8862 32.0254C31.028 32.394 31.1161 32.781 31.1479 33.1746C31.2239 33.6255 31.3367 34.054 31.557 34.2019C31.8243 34.3467 32.0277 34.5863 32.1272 34.8735C32.251 35.268 32.4731 35.6272 32.4148 36.0787C32.3605 36.4665 32.6384 37.0054 32.9625 37.5271C33.1264 37.7867 33.2911 38.0475 33.4395 38.2827C33.5738 38.4759 33.6885 38.6821 33.7819 38.8981C34.0635 39.6408 34.3433 39.6465 34.4673 39.8707C34.1918 40.6691 35.1958 40.9922 35.4466 41.6193C35.529 41.8263 35.5041 42.0838 35.6048 42.2795C35.68 42.4249 35.9081 42.4848 36.0139 42.6206C36.1131 42.7564 37.1042 44.655 37.113 44.7106C37.0864 45.1034 37.5992 46.5869 38.0113 46.7602C38.8671 47.1513 39.3235 48.1389 39.8194 49.0995C40.0513 49.5638 40.3303 50.0031 40.652 50.4104C40.9502 50.7779 41.3685 51.0286 41.8332 51.1183C41.9488 51.15 43.1649 52.7326 43.1138 52.9738C43.0926 53.0924 43.1007 53.2143 43.1373 53.329C43.1739 53.4438 43.238 53.5478 43.3239 53.6322C43.5887 53.7658 43.9012 53.8042 44.0996 54.0523C44.5986 54.6722 45.1432 55.3344 45.6973 55.903C46.2095 56.4252 46.869 57.3992 47.6038 57.6424C47.7153 57.6822 47.9063 57.6835 47.9298 57.7604C48.1225 58.3957 48.7704 59.0131 49.5945 59.373C50.3566 59.7241 51.2194 59.7901 52.026 59.5591C52.101 59.5303 52.1682 59.4845 52.2224 59.4252C52.2765 59.3659 52.3161 59.2948 52.338 59.2176C52.3773 59.0473 52.2994 58.8373 51.986 58.6524C51.3675 58.2532 50.6142 58.0557 49.9216 57.754C49.6558 57.6396 49.5733 57.3625 49.5045 57.0847C49.4765 56.8031 49.3412 56.5432 49.1266 56.3588C48.2992 55.807 47.7925 55.0071 47.2032 54.1794Z" fill="#CCE1F8"/>
<path d="M54.3446 39.9264C54.5592 39.7521 54.751 39.5515 54.9156 39.3294C55.0284 39.1383 55.1465 38.949 55.2727 38.7638C55.3357 38.6712 55.4013 38.5801 55.4693 38.4905L55.5216 38.423L55.6046 38.3269C55.661 38.2604 55.7209 38.1971 55.7817 38.1343C55.9877 37.8829 56.2656 37.7006 56.5781 37.6116C56.8907 37.5226 57.2229 37.5313 57.5304 37.6364C57.813 37.7586 58.056 37.9569 58.2323 38.2093C58.3272 38.339 58.4131 38.475 58.4896 38.6164L58.6082 38.8336L58.6566 38.9191L58.6959 38.9845C58.7654 39.0623 58.86 39.1134 58.9632 39.1288C59.2532 39.2167 58.9709 39.4955 59.1362 39.6226C59.1922 39.6657 59.3145 39.6672 59.35 39.7195C59.3835 39.7688 59.2875 39.8827 59.3793 39.9149C59.5128 39.966 59.6335 40.0456 59.7332 40.1479C59.8329 40.2503 59.9092 40.3731 59.9567 40.5079L59.9479 40.7302L59.9467 40.8402C59.934 40.853 59.9221 40.8666 59.9109 40.8808C59.912 40.9139 59.8769 40.9927 59.8714 41.0933C59.8631 41.1911 59.8886 41.3082 59.9479 41.3272C59.9977 41.3455 60.0686 41.2385 60.0974 41.1278C60.113 41.0613 60.125 40.994 60.1335 40.9262C60.1512 40.9471 60.1736 40.9634 60.1989 40.9738C60.2241 40.9843 60.2515 40.9885 60.2787 40.9863C60.31 40.9842 60.3392 40.9704 60.3608 40.9477C60.4089 40.8932 60.4461 40.8301 60.4704 40.7616C60.4972 40.6782 60.6396 40.6831 60.7799 40.6696C60.9236 40.6586 61.0639 40.6267 61.065 40.5283C61.0667 40.4023 61.0399 40.285 61.0337 40.1817C61.0186 40.0736 61.0261 39.9635 61.0557 39.8585C61.067 39.7971 61.0903 39.7386 61.1244 39.6863C61.1585 39.634 61.2026 39.5891 61.2542 39.554C61.2932 39.5261 61.3376 39.5067 61.3845 39.497C61.4314 39.4874 61.4798 39.4876 61.5266 39.4978C61.7156 39.5659 61.874 39.6992 61.9732 39.8738C62.0887 40.0717 62.1442 40.2989 62.1328 40.5277C62.1397 40.7206 62.0834 40.9105 61.9724 41.0685C61.8613 41.2264 61.7017 41.3437 61.5179 41.4026C61.4775 41.4112 61.511 41.5057 61.51 41.5634C61.5042 41.6608 61.4718 41.7547 61.4162 41.8349C61.3474 41.9402 61.2651 42.036 61.1715 42.1201C60.9979 42.271 60.8128 42.4081 60.6179 42.5301C60.4657 42.6382 60.2892 42.707 60.104 42.7304C59.8723 42.7496 59.6413 42.6856 59.4526 42.5499C59.3242 42.4582 59.1738 42.5124 59.0203 42.4681C58.9654 42.4142 58.926 42.3464 58.9065 42.2719C58.8869 42.1975 58.8878 42.1191 58.9091 42.0452C58.8752 41.8389 58.8083 41.6394 58.7112 41.4543C58.6659 41.3184 58.5916 41.194 58.4933 41.0897C57.9743 41.0593 57.844 40.6739 57.7312 40.271C57.6858 40.0721 57.6178 39.8789 57.5285 39.6954C57.4154 39.4921 57.3392 39.4734 57.1857 39.558C57.1149 39.5991 57.1143 39.5688 57.1118 39.4835C57.1059 39.3787 57.0934 39.2744 57.0742 39.1711C57.0749 39.1554 56.9798 39.1172 56.885 39.1518C56.8142 39.1726 56.7511 39.2138 56.7036 39.2703C56.6888 39.3116 56.7343 39.4306 56.7206 39.444C56.6978 39.4663 56.6254 39.4052 56.5698 39.4428C56.3664 39.5928 56.6123 40.1065 56.1746 40.0206C56.1283 40.0977 56.2387 40.231 56.0613 40.4314C56.0144 40.4969 55.982 40.5716 55.9663 40.6506C55.9556 40.6975 55.9443 40.7472 55.9327 40.798C55.9299 40.8336 55.9298 40.8694 55.9324 40.905C55.9328 41.0459 55.9479 41.1471 55.8199 41.1704C55.7431 41.1884 55.7189 41.2168 55.7125 41.2328C55.707 41.2449 55.7113 41.2444 55.7104 41.2486C55.7208 41.2501 55.6879 41.2526 55.66 41.2577C55.6321 41.2629 55.6046 41.2701 55.5777 41.2792C55.5508 41.2869 55.5317 41.2942 55.5123 41.3017C55.6697 41.4391 55.7708 41.6299 55.796 41.8374C55.8157 42.0771 55.587 42.2018 55.4441 42.3914L55.4041 42.4443L54.914 42.3954C54.8714 42.3913 54.8286 42.3908 54.786 42.3938C54.4769 42.4128 54.2948 42.1131 54.2653 41.8734C54.2274 41.6225 54.2696 41.4404 54.1046 41.2377C54.0334 41.1489 53.9868 41.0429 53.9695 40.9304C53.9534 40.7457 53.9787 40.5597 54.0436 40.386C54.1085 40.2123 54.2113 40.0553 54.3446 39.9264Z" fill="#CCE1F8"/>
<path d="M60.3192 21.6111C60.4633 21.3439 60.6248 21.0864 60.8026 20.8403C60.9627 20.636 61.2295 20.7124 61.3892 20.4886C61.6647 20.1032 62.0425 20.6452 62.3494 20.2704C62.4124 20.19 62.4918 20.1239 62.5823 20.0766C63.1433 19.8045 63.7428 19.9879 64.3101 19.9536C64.3682 19.8222 64.3861 19.6785 64.4443 19.548C64.4947 19.4923 64.5598 19.4519 64.6321 19.4313C64.7044 19.4107 64.781 19.4107 64.8532 19.4313C65.0688 19.3717 65.2708 19.2708 65.4478 19.1341C65.6309 19.0341 65.8011 18.9121 65.9546 18.7709C66.0592 18.1837 66.6335 17.913 67.3079 17.7657C67.4882 17.727 67.6709 17.7007 67.8548 17.6869C68.082 17.6643 68.3114 17.6786 68.5341 17.7293C68.6836 17.7654 68.8246 17.8306 68.9491 17.921C69.0782 18.0143 69.188 18.1315 69.2728 18.2662C69.3109 18.3232 69.3451 18.3827 69.3752 18.4443C69.4075 18.5051 69.4332 18.5605 69.4543 18.6095C69.4766 18.6638 69.5024 18.7075 69.5229 18.7718C69.542 18.8397 69.5597 18.9099 69.5757 18.9812C69.5937 19.068 69.5913 19.1578 69.5687 19.2435C69.5568 19.301 69.5414 19.3577 69.5225 19.4132C69.5 19.4678 69.474 19.5208 69.4446 19.572C69.3312 19.7713 69.1702 19.9395 68.9759 20.0615C68.7489 20.2176 68.4792 20.2998 68.2037 20.2967C68.1825 20.2994 67.8687 20.4269 67.5553 20.5299C67.2416 20.635 66.9261 20.719 66.8831 20.7427C66.7963 20.7898 66.7399 20.927 66.65 20.9499C66.529 20.9819 66.3866 20.922 66.2624 20.9364C65.9235 20.9777 65.6549 21.4619 65.3061 21.3167C65.3097 21.3222 65.3129 21.328 65.3159 21.3339C65.3086 21.8108 65.4661 22.2756 65.7617 22.6499C65.9701 22.9505 65.5777 23.3656 65.7852 23.6333C65.798 23.6498 65.8111 23.667 65.824 23.6836C65.8347 23.6383 65.8424 23.5824 65.8617 23.5731C65.888 23.5606 65.9449 23.6893 65.9637 23.6172C66.0301 23.3619 66.1543 23.3227 66.2839 23.3065C66.3611 23.3683 66.4374 23.4244 66.5128 23.4748C66.6694 23.4698 66.8967 23.656 67.0359 23.6065C67.1438 23.5682 67.189 23.2699 67.2985 23.2171C67.5106 23.2613 67.7161 23.353 67.9002 23.2515C68.0126 23.1898 68.1912 23.708 68.2905 23.6337C68.419 23.5376 68.5657 23.4338 68.7426 23.5705C68.8105 23.647 68.8611 23.7372 68.8908 23.8351C68.9205 23.9329 68.9287 24.0361 68.9147 24.1374C68.8101 24.6113 68.4702 24.8883 68.1657 24.4506C68.1472 24.424 68.1389 24.5059 68.1261 24.5389C68.045 24.7499 67.8102 24.6423 67.6816 24.6872C67.5358 24.7265 67.3862 24.75 67.2353 24.7574C67.1766 24.7642 67.1668 24.9124 67.1353 24.9983C67.0945 25.0214 67.0429 24.9727 66.9809 24.8529C66.9249 24.7351 66.5577 24.788 66.554 24.8504C66.5257 25.3332 66.3052 25.2881 66.0834 25.2417C66.0389 25.2424 65.9947 25.2345 65.9533 25.2182C65.7999 25.1995 65.6651 25.2332 65.6187 25.5117C65.5901 25.6843 65.2701 25.5414 65.1779 25.4113C65.0318 25.4088 64.8861 25.4293 64.7462 25.4717C64.7205 25.4991 64.7181 25.6192 64.6889 25.6256C64.6495 25.6342 64.5894 25.5515 64.5463 25.5462C64.4147 25.53 64.4016 26.0646 64.2042 25.6993C64.1604 25.7184 64.1772 25.8913 64.0286 25.8913C63.8914 25.8919 63.6741 26.3437 63.4974 26.132C63.394 26.0082 63.3314 26.0756 63.2545 26.077C63.1953 26.0785 63.1714 26.1785 63.155 26.3157C63.1278 26.542 62.8175 26.2766 62.7437 26.376C62.6899 26.4484 62.6854 26.4367 62.6209 26.1759C62.5692 26.0014 62.5317 25.823 62.5089 25.6425C62.5213 25.3994 62.528 25.1412 62.5536 24.9309C62.5762 24.7443 62.6851 24.8385 62.704 24.6319C62.7368 24.2763 62.9662 24.8317 63.013 24.489C63.0177 24.4288 63.0351 24.3704 63.0642 24.3176C63.2534 24.0513 63.5752 24.4338 63.7924 24.3339C63.9726 24.251 64.1482 24.1495 64.3303 24.0743C64.4752 24.0195 64.6285 23.99 64.7834 23.9872C64.6723 23.7487 64.6345 23.4825 64.6749 23.2225C64.6837 23.1769 64.5774 23.1464 64.5232 23.1097C64.1864 22.889 63.9822 22.2443 63.8552 21.7607L63.855 21.7601C63.5053 21.8955 63.1399 22.0163 62.9149 21.9128C62.6947 21.8478 62.4606 21.8462 62.2396 21.9081C62.1559 21.9221 62.0761 21.9538 62.0057 22.0013C61.9354 22.0488 61.876 22.1108 61.8318 22.1832C61.6376 22.4296 60.8844 22.2135 60.6286 22.3375C60.4432 22.4277 60.4362 22.4163 60.3795 22.1532C60.3166 21.9799 60.2959 21.794 60.3192 21.6111Z" fill="#CCE1F8"/>
<path d="M48.0864 10.0349C47.9704 9.54258 48.6515 9.52163 48.5515 9.00029C48.5285 8.88908 48.5261 8.77458 48.5444 8.6625C48.7074 7.83249 49.4227 7.31012 49.6667 6.54387C49.8644 5.91256 50.0317 5.27412 50.1925 4.63584C50.2439 4.4367 50.2992 4.2423 50.3554 4.04971C50.3309 3.97095 50.3057 3.88861 50.283 3.80554C50.2195 3.56297 50.1399 3.3249 50.0446 3.09294C49.9185 3.00874 49.8119 2.89852 49.7319 2.76968C49.6519 2.64085 49.6005 2.49639 49.581 2.34601C49.5118 1.92699 49.5933 1.49701 49.8112 1.13244C49.8777 1.02244 49.956 0.920038 50.0448 0.827039C50.1439 0.721509 50.2592 0.632506 50.3864 0.5634C50.6114 0.440027 50.8621 0.371013 51.1185 0.361881C51.3781 0.349268 51.6369 0.399751 51.8727 0.509008C52.1431 0.638008 52.3616 0.855201 52.4921 1.12486L52.4993 1.14002L52.5202 1.46711C52.5285 1.61538 52.5622 1.76112 52.6199 1.89794C52.7418 2.16663 52.3154 3.10557 52.1178 3.27618C52.1063 3.29669 51.9283 3.87985 51.8018 4.30993C51.8575 4.54241 51.9536 4.76329 52.0858 4.96248C52.2117 5.10029 52.3627 5.21282 52.5308 5.29404C52.7023 5.36751 52.8626 5.46461 53.0072 5.58249C53.3161 6.10007 53.7546 6.5281 54.2795 6.8243C54.6179 6.98227 54.5287 7.55905 54.9016 7.66545C55.1327 7.74318 55.3901 7.78375 55.6285 7.86727C55.6609 7.87514 55.6909 7.88911 55.7227 7.89848C55.7499 7.83349 55.773 7.76683 55.7916 7.69889C55.8078 7.64197 55.7466 7.56886 55.6872 7.49425C55.5292 7.29808 55.9107 7.36064 55.8689 7.2211C55.8545 7.17399 55.7658 7.10518 55.7716 7.06654C55.7769 7.03013 55.9186 7.04232 55.8698 6.97931C55.8047 6.90842 55.7631 6.8191 55.7507 6.72363C55.7384 6.62815 55.7559 6.53119 55.8009 6.44607C55.8975 6.39509 55.9889 6.34115 56.0753 6.28423C56.1636 6.10679 56.4469 5.94717 56.4822 5.75948C56.5111 5.61413 56.2718 5.40398 56.2837 5.25226C56.4617 5.06437 56.5783 4.82677 56.6181 4.57102C56.6157 4.41007 57.1642 4.44767 57.1451 4.29131C57.1225 4.09039 57.0893 3.86598 57.2938 3.71321C57.3868 3.66426 57.4918 3.64273 57.5966 3.65112C57.7013 3.65952 57.8016 3.69749 57.8856 3.76062C58.2723 4.10822 58.3561 4.6887 57.815 4.84594C57.782 4.8553 57.8501 4.90702 57.8727 4.93956C58.0159 5.14792 57.804 5.386 57.7707 5.56627C57.7271 5.76637 57.6646 5.96189 57.584 6.15016C57.5564 6.22492 57.6775 6.31944 57.7328 6.40652C57.7288 6.46952 57.6582 6.50535 57.5197 6.51234C57.3858 6.51337 57.2116 6.98166 57.2608 7.02238C57.6267 7.32421 57.4843 7.56154 57.3084 7.78402C57.1348 8.00931 56.9355 8.22138 57.1886 8.53139C57.3087 8.67703 56.9672 8.9588 56.7988 8.97738C56.692 9.14489 56.6023 9.32268 56.531 9.50807C56.5329 9.55548 56.6233 9.63945 56.6065 9.6772C56.5839 9.72772 56.4763 9.73917 56.4387 9.78331C56.3263 9.91676 56.7172 10.3048 56.2913 10.27C56.2707 10.3314 56.4119 10.4344 56.2933 10.599C56.1886 10.7499 56.3321 11.3159 56.034 11.3544C55.8606 11.3758 55.8536 11.4909 55.7895 11.5747C55.7404 11.6389 55.7903 11.7386 55.8717 11.8596C56.0077 12.0618 55.5488 12.188 55.5531 12.3412C55.555 12.4536 55.543 12.4494 55.31 12.3156C55.1465 12.235 54.9924 12.1367 54.8505 12.0223C54.6953 11.824 54.5237 11.6227 54.3994 11.4408C54.2887 11.2795 54.4461 11.2427 54.3166 11.0717C54.0907 10.7799 54.6703 10.957 54.4642 10.662C54.424 10.6111 54.3959 10.5517 54.3822 10.4883C54.336 10.1125 54.8652 10.0588 54.9549 9.76262C55.0291 9.52008 55.0793 9.26803 55.1526 9.02787C55.1704 8.96846 55.1915 8.91007 55.2157 8.85296C55.0752 8.83332 54.9365 8.80246 54.801 8.76067C54.55 8.69901 54.3143 8.58641 54.1086 8.42988C53.903 8.27335 53.7317 8.07621 53.6054 7.85071C53.5844 7.80167 53.4609 7.81534 53.3829 7.80033C53.1034 7.72137 52.8486 7.57266 52.6423 7.36817C52.4117 7.15505 52.1992 6.92114 52.0216 6.74369C51.821 6.55078 51.6347 6.3434 51.4644 6.12323C51.4502 6.10258 51.4356 6.08237 51.4212 6.06186C51.4267 6.3414 51.4126 6.6089 51.1128 6.7431C51.0641 6.9036 51.196 7.04046 50.9722 7.51098C50.77 7.93988 50.6728 9.13696 50.2437 9.43285C50.0435 9.62051 49.8871 9.85002 49.7857 10.105C49.6937 10.2825 49.6694 10.4874 49.7172 10.6815C49.7765 11.0349 49.0535 11.6347 48.9434 11.9618C48.8652 12.2042 48.8509 12.2036 48.6149 12.0746C48.4396 12.0129 48.2856 11.9023 48.1712 11.7558C48.0927 11.4314 47.9966 11.112 47.9497 10.798C47.9045 10.5185 48.1537 10.3255 48.0864 10.0349Z" fill="#80829B"/>
<path d="M31.9016 8.07124C31.7789 8.00074 31.6742 7.90276 31.5957 7.785C31.5173 7.66724 31.4672 7.5329 31.4493 7.39252C31.4197 7.21809 31.4186 7.04002 31.4461 6.86524C31.466 6.72871 31.5042 6.59549 31.5598 6.46919C31.5803 6.42135 31.6047 6.37527 31.6327 6.33142C31.6678 6.2737 31.7089 6.21994 31.7555 6.17107C31.7851 6.14048 31.8165 6.1116 31.8494 6.08457C31.8735 6.06284 31.9001 6.04408 31.9286 6.0287L32.0301 5.97848C32.0979 5.94672 32.1673 5.91854 32.238 5.89407C32.3264 5.87391 32.4161 5.8604 32.5064 5.85364C32.5972 5.84686 32.6886 5.85494 32.7768 5.87757C32.8617 5.89178 32.9438 5.91963 33.0199 5.96005C33.0884 5.9956 33.1549 6.0349 33.219 6.07775L33.3571 6.20244C33.4332 6.27692 33.5035 6.3571 33.5674 6.4423C33.7355 6.71193 33.9481 6.95119 34.196 7.14998C34.3436 7.33462 34.4185 7.5669 34.4066 7.80298C34.4269 8.03364 34.3936 8.26586 34.3094 8.48155C34.3067 8.55527 34.3079 8.62908 34.3128 8.70268C34.3176 8.84075 34.3144 8.98446 34.3141 9.13381C34.3133 9.43341 34.3119 9.74045 34.3217 9.78488C34.3427 9.87509 34.4593 9.95995 34.4592 10.0473C34.4578 10.0616 34.4552 10.0757 34.4515 10.0895C34.6747 10.2862 34.9638 10.3917 35.2613 10.3851C35.5262 10.3734 35.6772 10.9169 35.9797 10.8414C36.0309 10.8278 36.0823 10.8133 36.1339 10.7986C36.1833 10.7393 36.3201 10.6902 36.266 10.6196C36.2376 10.5825 36.1309 10.547 36.1248 10.5113C36.1192 10.4774 36.258 10.4486 36.1928 10.4065C36.1107 10.3655 36.0445 10.2985 36.0043 10.2161C35.9641 10.1336 35.9522 10.0402 35.9704 9.95029C36.0494 9.8791 36.1225 9.80738 36.1899 9.73511C36.2237 9.55365 36.4601 9.34545 36.4464 9.17144C36.4359 9.03635 36.158 8.89962 36.1338 8.75903C36.2633 8.55591 36.3267 8.31765 36.3152 8.07702C36.2833 7.93049 36.8296 7.87253 36.7819 7.73729C36.7204 7.56238 36.6562 7.36427 36.8323 7.19976C36.9196 7.14381 37.0198 7.1111 37.1233 7.10473C37.2269 7.09835 37.3303 7.11853 37.4239 7.16335C37.8575 7.41822 38.0423 7.88754 37.5429 8.11299C37.5128 8.12651 37.59 8.15951 37.6189 8.18358C37.8033 8.3368 37.6413 8.57607 37.653 8.73657C37.6553 8.91506 37.6412 9.09339 37.6111 9.26934C37.6034 9.33874 37.7445 9.3921 37.8199 9.45273C37.8323 9.50638 37.7724 9.55171 37.6412 9.58886C37.5129 9.61977 37.4738 10.0568 37.5334 10.0787C38.415 10.4034 37.2519 10.9867 37.9439 11.3415C38.1041 11.4235 37.8868 11.7506 37.738 11.8195C37.6996 11.9878 37.6835 12.1604 37.6903 12.3329C37.7104 12.3702 37.8262 12.407 37.8253 12.4425C37.8238 12.4902 37.729 12.5357 37.7132 12.5837C37.6649 12.7305 38.1799 12.8974 37.7771 13.0203C37.785 13.0762 37.9567 13.1061 37.9201 13.2768C37.8868 13.4347 38.2711 13.8127 38.0227 13.9556C37.8772 14.0392 37.9268 14.1303 37.9094 14.2192C37.8962 14.2877 37.9873 14.3434 38.1161 14.4014C38.3289 14.497 37.9952 14.7781 38.0733 14.8912C38.1302 14.9736 38.1178 14.9755 37.8491 14.9753C37.6673 14.9852 37.4849 14.9775 37.3046 14.9525C37.0718 14.8691 36.8233 14.7879 36.6258 14.6989C36.4505 14.6199 36.5686 14.5215 36.373 14.4409C36.0364 14.3021 36.6312 14.1965 36.3106 14.0453C36.2519 14.0216 36.1995 13.9847 36.1573 13.9376C35.9458 13.6445 36.3958 13.3836 36.3525 13.1055C36.3164 12.8749 36.2613 12.6442 36.2333 12.4136C36.2159 12.2329 36.2248 12.0506 36.2598 11.8725C36.061 11.9199 35.8539 11.9204 35.6549 11.874C35.4558 11.8275 35.2703 11.7354 35.1131 11.6048C35.0795 11.5715 34.9889 11.6425 34.9218 11.6596C34.7663 11.6969 34.6039 11.6953 34.4491 11.6549C34.5056 11.7952 34.5189 11.9491 34.4871 12.097C34.4332 12.4794 34.7239 13.4376 34.4276 13.7705C34.3034 13.9593 34.2337 14.1786 34.2263 14.4044C34.2144 14.4877 34.2203 14.5727 34.2437 14.6535C34.2672 14.7344 34.3076 14.8094 34.3623 14.8734C34.4039 14.9523 34.4143 15.0439 34.3914 15.13C34.3812 15.1851 34.3675 15.2394 34.3504 15.2926C34.3214 15.3965 34.2856 15.4984 34.2433 15.5976C34.1768 15.7561 34.0885 15.9045 33.9808 16.0385C33.8203 16.2382 33.6084 16.3904 33.368 16.4787C33.3324 16.4909 33.3167 16.4973 33.265 16.5117C33.211 16.5262 33.1562 16.5375 33.1009 16.5453C32.9944 16.5598 32.8865 16.5599 32.78 16.5454C32.6876 16.5321 32.5968 16.5087 32.5094 16.4756C32.4385 16.4475 32.37 16.4135 32.3048 16.3739C32.1253 16.2618 31.9728 16.1115 31.8579 15.9337C31.7084 15.7132 31.6408 15.4472 31.6668 15.1821C31.6735 15.1094 31.6879 15.0377 31.7099 14.9682C31.7296 14.9028 31.7558 14.8395 31.7879 14.7792C31.8413 14.6787 31.9117 14.5883 31.996 14.512C32.0746 14.4295 32.1823 14.3809 32.2962 14.3764C32.3568 14.3911 32.4107 14.4258 32.4492 14.4748C32.4835 14.4827 32.5165 14.4956 32.547 14.5132C32.5852 14.2895 32.8994 14.1183 32.6941 13.8252C32.6353 13.7475 32.594 13.6578 32.5733 13.5625C32.4483 12.8763 32.9493 12.3024 32.9438 11.6489C32.9402 11.338 32.9248 11.0281 32.9068 10.7185C32.8968 10.7066 32.8855 10.6944 32.8768 10.6828C32.7256 10.4812 32.5991 10.2623 32.5 10.0306C32.4253 9.86528 32.2431 9.80406 32.1126 9.6883C32.0805 9.62512 32.0667 9.55419 32.073 9.48359C32.0792 9.41299 32.1051 9.34555 32.1478 9.28898C32.164 9.07373 32.1369 8.85742 32.0683 8.65276C32.0362 8.45295 31.9802 8.25771 31.9016 8.07124ZM32.8407 15.2078C32.8108 15.182 32.7788 15.1589 32.745 15.1387C32.7319 15.133 32.7207 15.124 32.7123 15.1125C32.7021 15.0885 32.6978 15.0623 32.6999 15.0363C32.6987 14.9915 32.6944 14.9468 32.6873 14.9025C32.678 14.8602 32.6617 14.8197 32.639 14.7828C32.6255 14.8551 32.6014 14.9314 32.5788 15.032C32.5536 15.0687 32.5374 15.1107 32.5314 15.1548C32.5254 15.1989 32.5298 15.2438 32.5443 15.2858C32.5638 15.3374 32.6012 15.3802 32.6497 15.4063C32.6834 15.4258 32.7211 15.4372 32.7599 15.4396C32.7988 15.4421 32.8376 15.4355 32.8735 15.4205C32.8953 15.4107 32.9129 15.3934 32.923 15.3717L32.8864 15.2598L32.8838 15.2552C32.8713 15.2378 32.8568 15.2219 32.8407 15.2078V15.2078ZM32.4456 6.78768C32.4427 6.78367 32.4372 6.77594 32.4293 6.76494L32.4456 6.78768ZM32.4278 6.76303L32.4171 6.74802V6.74817L32.4174 6.74861L32.4195 6.75203L32.4237 6.75842L32.4278 6.76303ZM32.4278 6.76303L32.4281 6.76318C32.3493 6.65361 32.3956 6.71796 32.4278 6.76299V6.76303ZM32.3776 7.29387C32.3742 7.29566 32.37 7.29521 32.3669 7.29774L32.3578 7.31141C32.3526 7.31821 32.369 7.30216 32.3776 7.29383L32.3776 7.29387Z" fill="#000638"/>
<path d="M45.7947 25.0758C45.7863 24.6655 46.3012 25.0241 46.3156 24.6111C46.3149 24.5298 46.3334 24.4495 46.3696 24.3766C46.5889 23.9901 47.0539 23.9559 47.4016 23.7671L47.4011 23.7611C47.4065 23.6044 47.2705 23.4809 47.2144 23.3325C47.2181 23.2683 47.2425 23.2071 47.284 23.158C47.3255 23.1089 47.3818 23.0746 47.4445 23.0603C47.5133 23.0386 47.612 22.8148 47.7123 22.6062C47.7927 22.4667 47.8537 22.3168 47.8936 22.1608C47.6521 21.6779 47.9788 21.2483 48.4907 20.9408C48.6342 20.855 48.787 20.7857 48.9461 20.7343C49.1564 20.6582 49.3826 20.6364 49.6035 20.671C49.8245 20.7055 50.0332 20.7952 50.2103 20.9318C50.3814 21.0508 50.5379 21.1895 50.6767 21.3451C50.7181 21.3946 50.7482 21.4526 50.7647 21.5151C50.7922 21.5972 50.806 21.6834 50.8054 21.7701C50.8089 21.8623 50.7991 21.9546 50.7764 22.0441C50.7588 22.1285 50.7303 22.2103 50.6916 22.2873C50.6055 22.4959 50.4464 22.666 50.2441 22.7659C50.2282 22.7722 50.0781 22.9927 49.9158 23.1782C49.7556 23.3704 49.5874 23.5457 49.5712 23.5793C49.5383 23.6471 49.5759 23.7741 49.5278 23.8248C49.4628 23.8933 49.3311 23.8896 49.2555 23.9444C49.1336 24.0302 49.1112 24.2362 49.0489 24.3901C49.0803 24.6407 49.2045 24.8704 49.3968 25.0339C49.5619 25.1637 49.2693 25.6316 49.4752 25.7498C49.5707 25.8018 49.6694 25.8553 49.7654 25.9133C49.7649 25.9096 49.7685 25.9099 49.7657 25.9036C49.66 25.6739 49.7202 25.5969 49.7965 25.5325C49.8849 25.5505 49.9699 25.564 50.0509 25.5728C50.1533 25.507 50.4184 25.555 50.4816 25.4573C50.5312 25.382 50.3722 25.1332 50.4101 25.0473C50.5774 24.9917 50.7688 24.9672 50.8232 24.81C50.8544 24.7141 51.3105 25.0155 51.327 24.9131C51.3487 24.782 51.371 24.6361 51.5779 24.6502C51.7757 24.6976 51.9505 24.8133 52.0714 24.9769C52.3229 25.3746 52.267 25.7635 51.7776 25.5831C51.7479 25.5721 51.7949 25.6377 51.8073 25.669C51.8862 25.8679 51.6574 25.9027 51.5957 25.9971C51.5192 26.0973 51.4291 26.1862 51.3279 26.2613C51.2909 26.2936 51.3743 26.4141 51.404 26.4966C51.389 26.5339 51.3232 26.5198 51.2071 26.4536C51.0959 26.3863 50.8684 26.5914 50.9023 26.6427C51.3983 27.4119 50.2729 26.924 50.5954 27.5819C50.6691 27.7381 50.3499 27.7521 50.212 27.6791C50.1026 27.7351 50.0037 27.8096 49.9198 27.8994C49.9147 27.9325 49.9751 28.0352 49.9562 28.0521C49.9308 28.0749 49.8431 28.0278 49.8073 28.0392C49.7 28.0735 49.9574 28.5378 49.6239 28.2981C49.5998 28.3303 49.6979 28.473 49.5826 28.5275C49.4794 28.5781 49.5212 29.0498 49.2828 28.9275C49.1445 28.8552 49.1259 28.9345 49.0658 28.9622C49.0199 28.9835 49.0468 29.0798 49.0954 29.2069C49.1757 29.4188 48.8079 29.2841 48.7934 29.3968C48.7818 29.4793 48.7731 29.4702 48.6092 29.2574C48.4927 29.1177 48.3858 28.9703 48.2893 28.8162C48.1924 28.5955 48.0829 28.3645 48.0074 28.1716C47.9399 28.0006 48.0643 28.0523 47.9835 27.8655C47.842 27.5449 48.2699 27.9619 48.1437 27.6494C48.1193 27.5978 48.1043 27.5423 48.0996 27.4855C48.1068 27.1992 48.5261 27.4299 48.6344 27.272C48.7229 27.1429 48.7957 26.998 48.8856 26.8736C48.928 26.8159 48.9792 26.7652 49.0373 26.7234C49.0097 26.7085 48.98 26.698 48.9535 26.681C48.8045 26.5992 48.6809 26.4779 48.5963 26.3304C48.5117 26.1829 48.4694 26.015 48.4741 25.8451C48.477 25.8057 48.379 25.8109 48.3265 25.7939C48.1889 25.7426 48.0726 25.6464 47.9964 25.5208C47.8505 25.7073 47.6906 25.8636 47.5161 25.8485C47.3018 25.8299 47.1994 25.9697 47.057 26.0545C46.9475 26.1191 46.9214 26.2526 46.9133 26.4175C46.8998 26.693 46.2747 26.729 46.1502 26.9097C46.0588 27.0424 46.0484 27.0344 45.8907 26.8168C45.7689 26.68 45.6721 26.5229 45.6046 26.3526C45.592 26.0782 45.5641 25.7945 45.5754 25.5446C45.585 25.3228 45.7979 25.3152 45.7947 25.0758Z" fill="#006ADC"/>
<path d="M18.3342 14.0048C18.3423 13.757 18.3793 13.5109 18.4446 13.2717C18.494 13.13 18.5833 13.0057 18.7018 12.9137C18.8204 12.8218 18.963 12.7662 19.1125 12.7536C19.3635 12.7249 19.5641 12.7768 19.7688 12.7449C19.9101 12.7226 20.0491 12.6379 20.1754 12.6607C20.2947 12.6839 20.3485 12.8455 20.487 12.8284C20.7279 12.8039 20.9708 12.8494 21.1864 12.9596C21.2405 12.9867 21.2931 13.0167 21.3441 13.0492C21.3891 13.0776 21.4187 13.0983 21.4555 13.125C21.5257 13.176 21.5932 13.2308 21.6597 13.2868C21.7398 13.45 21.8194 13.611 21.9026 13.7658C22.1931 14.0544 22.3746 14.5447 22.6511 14.8014C22.8638 15.0023 23.2679 15.0249 23.4947 15.2466C23.7209 15.7055 23.9883 16.1429 24.2935 16.5535C24.5058 16.8036 24.1315 17.2245 24.3224 17.4398C24.5331 17.6529 24.6965 17.908 24.8022 18.1884C24.9088 18.2877 24.9935 18.4083 25.0508 18.5422C25.1056 18.6559 25.1614 18.7713 25.211 18.8741C25.2444 18.9648 25.2942 19.0487 25.358 19.1214C25.5165 19.274 25.5088 19.2871 25.2774 19.4229C25.1311 19.5352 24.962 19.6142 24.782 19.6542C24.4826 19.6161 24.2009 19.6081 23.9408 19.5929C23.7104 19.5833 23.6989 19.358 23.4473 19.3829C23.2379 19.4058 23.2214 19.2801 23.1768 19.1523C23.1358 19.0251 23.097 18.883 22.8824 18.9141C22.7986 18.9293 22.7124 18.9253 22.6303 18.9023C22.0839 18.7244 21.9079 18.0582 21.4047 17.7602C20.9911 17.5167 20.5524 17.2798 20.1321 16.9745C19.7031 16.6617 19.3317 16.2766 19.0346 15.8365C18.9543 15.7282 18.881 15.6148 18.8153 15.497C18.7445 15.3729 18.6787 15.2809 18.6032 15.1314C18.5241 14.9796 18.4592 14.8207 18.4094 14.6569C18.3434 14.4462 18.3179 14.225 18.3342 14.0048ZM20.2365 15.006C20.2579 15.0504 20.2842 15.0923 20.3149 15.1308C20.3714 15.1956 20.4457 15.2811 20.5211 15.3676C20.6347 15.4938 20.7587 15.6102 20.8919 15.7156C20.9605 15.7464 21.0883 15.699 21.1408 15.7425C21.2124 15.8008 21.2221 15.9334 21.29 16.0035C21.4975 16.2206 22.0551 15.9861 22.0383 16.4657C22.1383 16.5257 22.2806 16.4149 22.5539 16.65C22.6022 16.6875 22.6547 16.7193 22.7103 16.7448C22.6226 16.594 22.5224 16.4508 22.411 16.3166C22.1774 16.0632 21.9455 15.7674 21.7098 15.5101C21.615 15.4074 21.4448 15.4365 21.306 15.414C21.2617 15.3755 21.23 15.3246 21.2151 15.2678C21.2003 15.2111 21.2029 15.1512 21.2227 15.0959C21.2644 14.9531 20.6038 14.3588 20.5276 14.3893C20.3942 14.426 20.2568 14.4466 20.1185 14.4508C20.1906 14.6274 20.2305 14.8154 20.2365 15.006Z" fill="#80829B"/>
<path d="M24.5315 20.7499C24.6507 20.5611 24.8079 20.3992 24.9931 20.2745C25.1665 20.163 25.3529 20.0731 25.548 20.0068C25.9072 19.9076 26.257 19.7772 26.5935 19.6171C26.7334 19.5746 26.884 19.5859 27.016 19.6486C27.2029 19.7195 27.3715 19.8315 27.5091 19.9765C27.6342 20.1012 27.72 20.2598 27.756 20.4327C27.7546 20.444 27.8124 20.5125 27.8753 20.6259C27.9535 20.7587 28.0159 20.9002 28.0612 21.0475C28.1275 21.2718 28.1626 21.5041 28.1657 21.738C28.1857 21.8337 28.2911 21.9413 28.2743 22.044C28.2498 22.1816 28.123 22.288 28.06 22.4065C27.9622 22.5855 27.9547 22.8352 27.8411 23.066C27.799 23.1887 27.7113 23.2906 27.5962 23.3505C27.4811 23.4105 27.3473 23.4239 27.2226 23.388C27.1388 23.427 27.0923 23.4952 26.9722 23.5643C26.8671 23.6194 26.7519 23.6523 26.6336 23.6609C26.5152 23.6695 26.3964 23.6536 26.2845 23.6142L26.2785 23.6172L26.2651 23.6095C26.2585 23.6077 26.253 23.6068 26.2464 23.6049C26.1621 23.5771 26.0794 23.5448 25.9986 23.5083C25.9401 23.4818 25.8838 23.4508 25.8302 23.4155C25.8134 23.4099 25.7959 23.4057 25.7794 23.3996C25.7276 23.3796 25.6723 23.3705 25.6168 23.373C25.4943 23.3807 25.3714 23.3787 25.2492 23.3671C25.183 23.3303 25.1304 23.2733 25.099 23.2044C25.0677 23.1356 25.0592 23.0585 25.0748 22.9844C25.0091 22.7903 24.9299 22.6011 24.8378 22.418C24.7408 22.1666 24.6969 21.9061 24.6681 21.8835C24.5853 21.8299 24.5158 21.7583 24.4648 21.6738C24.4139 21.5894 24.3828 21.4945 24.374 21.3963C24.3579 21.1697 24.413 20.9437 24.5315 20.7499Z" fill="#80829B"/>
<path d="M1.5881 10.7603C1.64147 10.7238 1.67891 10.6683 1.6928 10.6052C1.70669 10.542 1.69598 10.4759 1.66285 10.4204C1.61993 10.351 1.59961 10.27 1.6047 10.1885C1.60978 10.1071 1.64002 10.0292 1.69124 9.96567C1.77253 9.86565 1.85739 9.78168 1.84163 9.64288C1.83529 9.53343 1.85336 9.42394 1.89454 9.32234C1.93571 9.22074 1.99896 9.12956 2.07971 9.05541C2.17111 8.93652 2.26667 8.82699 2.35672 8.7139C2.44423 8.59353 2.51759 8.46348 2.57533 8.32632C2.63366 8.1799 2.71788 8.04519 2.82396 7.92863C2.91892 7.80232 3.03797 7.68654 3.14066 7.54848C3.21964 7.44571 3.31263 7.35452 3.41693 7.27756C3.46281 7.24021 3.51156 7.20652 3.56272 7.1768C3.60845 7.14976 3.65552 7.12506 3.70375 7.1028C3.91611 6.97616 4.15507 6.9008 4.40165 6.8827C4.65949 6.89756 4.82133 6.60479 5.08482 6.59201C5.17934 6.58651 5.27192 6.5562 5.36659 6.54223C5.84733 6.48166 6.33375 6.48151 6.81453 6.54178C7.05574 6.57215 7.29469 6.61842 7.5298 6.68029L7.53827 6.68267C7.54585 6.65725 7.5518 6.63169 7.55967 6.60627C7.60812 6.45573 7.53515 6.27353 7.59014 6.13041C7.65077 5.95446 7.86432 5.84657 7.9578 5.68829C8.22989 5.2539 8.56325 4.86735 8.88039 4.4126C9.00284 4.25195 9.02039 3.94878 9.26604 3.90746C9.49386 3.86481 9.59135 3.60132 9.83983 3.60682C9.90344 3.61217 9.95961 3.52924 10.0158 3.47871C10.1775 3.32684 10.3777 3.3943 10.5566 3.50665C10.66 3.56892 10.7602 3.63639 10.8553 3.53548C11.0198 3.36458 11.2459 3.36295 11.4438 3.28834C11.7798 3.15756 12.1603 3.05116 12.4429 3.35226C12.455 3.36508 12.4706 3.37401 12.4877 3.37791C12.5049 3.3818 12.5228 3.38048 12.5392 3.37411C12.7693 3.25195 12.9167 3.43637 13.0805 3.53624C13.2038 3.61307 13.3351 3.67621 13.4721 3.72454C13.6204 3.76758 13.7755 3.7824 13.9294 3.76823C14.0518 3.75125 14.1762 3.77946 14.2793 3.84757C14.3824 3.91568 14.4572 4.01902 14.4896 4.13827C14.6186 4.52467 14.9826 4.6556 15.0716 5.03233C15.1205 5.22597 15.384 5.21334 15.5393 5.32718C15.9664 5.6727 16.1186 6.20667 16.568 6.57107C16.6071 6.6051 16.5806 6.70675 16.5442 6.7711C16.4317 6.97039 16.3919 7.0979 16.7319 7.07531C16.7695 7.07278 16.8208 7.10118 16.8255 7.12732C16.8831 7.37871 16.9708 7.62221 17.0868 7.85256C17.1566 8.07415 17.1841 8.30693 17.1678 8.5387C17.1681 8.5711 17.1589 8.62638 17.1342 8.63352C16.9899 8.67379 16.7022 8.58953 16.7841 8.81259C16.8403 8.92793 16.8864 9.04798 16.9217 9.17135C16.9843 9.45891 16.6184 9.73697 16.2131 9.74024C15.8764 9.74877 15.5405 9.70464 15.2174 9.60946C15.145 9.59249 15.0787 9.55575 15.026 9.50335C14.983 9.4299 14.961 9.34606 14.9624 9.26096C14.9698 9.16863 14.9847 9.07705 15.0067 8.98707C15.019 8.8948 15.0143 8.80104 14.9927 8.7105C14.8657 8.2047 14.6837 7.71433 14.4499 7.24815C14.2675 6.95033 14.0894 6.60956 13.707 6.50761C13.6803 6.44199 13.6386 6.38356 13.5852 6.337C13.5318 6.29044 13.4682 6.25705 13.3996 6.23951C13.3499 5.89325 13.0444 5.84689 12.8477 5.67627C12.648 5.53093 12.4053 5.50373 12.2289 5.23474C12.1872 5.17158 12.1148 5.175 12.0545 5.16058C11.7823 5.09014 11.4991 5.07264 11.2203 5.10901C11.0837 5.11439 10.9513 5.15808 10.8384 5.23511C10.7254 5.31213 10.6364 5.41938 10.5815 5.5446C10.5548 5.61426 10.5051 5.67268 10.4405 5.71015C10.3589 5.8203 10.2403 5.89734 10.1064 5.92713C9.92379 5.95923 10.0413 6.21826 9.9122 6.2951C9.85528 6.32838 9.82377 6.38278 9.76002 6.41428C9.73028 6.42825 9.7057 6.45123 9.68977 6.47996C9.67384 6.5087 9.66738 6.54172 9.67129 6.57434C9.68926 6.68724 9.68411 6.80262 9.65614 6.91347C9.57448 7.09548 9.53369 7.29316 9.53665 7.49262C9.76567 7.69535 10.0527 7.82091 10.357 7.85152C10.3729 7.85149 10.3886 7.85544 10.4026 7.86302C10.4167 7.8706 10.4285 7.88157 10.4372 7.89492C10.5979 8.18322 10.9529 8.21086 11.1825 8.41773C11.4063 8.60151 11.6067 8.81198 11.7794 9.04443C11.9708 9.34186 12.1181 9.66549 12.2166 10.0052C12.2914 10.217 12.3466 10.4352 12.3816 10.657C12.4217 10.9234 12.3935 11.1955 12.2997 11.448C12.1016 11.9555 11.9313 12.5634 11.387 12.8207C11.1719 12.9315 10.9405 13.0076 10.7015 13.0461C10.625 13.0601 10.5462 13.0502 10.4755 13.0178C10.4049 12.9853 10.346 12.9319 10.3068 12.8648C10.2506 12.7642 10.1822 12.7077 10.1051 12.7382C9.93126 12.8197 9.73383 12.8357 9.54912 12.7833C9.3644 12.7309 9.20479 12.6137 9.0996 12.453C9.0752 12.4251 9.04363 12.4045 9.00831 12.3933C8.973 12.382 8.93529 12.3807 8.89927 12.3894C8.80349 12.4265 8.69769 12.4284 8.60061 12.3949C8.50353 12.3615 8.42144 12.2947 8.36887 12.2065C8.17019 11.8394 7.91446 11.5063 7.61124 11.2195C7.44689 11.0859 7.52965 10.8789 7.39382 10.7492C7.26364 10.6086 7.38357 10.4045 7.35325 10.2476C7.33592 10.1186 7.32585 9.98868 7.32308 9.85852C7.27894 9.70268 7.29018 9.53636 7.35488 9.38787C7.44584 9.2391 7.24892 9.09138 7.40051 8.94411C7.42089 8.92023 7.43302 8.89042 7.43511 8.85909C7.4372 8.82777 7.42913 8.79661 7.4121 8.77023C7.37752 8.71569 7.34992 8.65702 7.32993 8.59561C7.24209 8.55924 7.14397 8.55628 7.0541 8.58729C7.03229 8.59539 7.00909 8.59909 6.98584 8.59816C6.96259 8.59723 6.93977 8.5917 6.91868 8.58189C6.89758 8.57208 6.87864 8.55817 6.86296 8.54099C6.84727 8.5238 6.83517 8.50368 6.82732 8.48178C6.80443 8.43645 6.76133 8.39053 6.72879 8.41906C6.56769 8.56322 6.44791 8.50585 6.30955 8.48267C6.09006 8.44655 5.86617 8.44625 5.64659 8.48178C5.46535 8.55393 5.26626 8.56836 5.07651 8.52309C4.99641 8.49441 4.96312 8.58447 4.90902 8.61895C4.81437 8.67498 4.73723 8.79535 4.62279 8.76563C4.44461 8.71748 4.32543 8.89344 4.20772 8.83637C4.00798 8.77663 3.83886 8.91617 3.84986 9.16703C3.85217 9.22075 3.84286 9.27434 3.82254 9.32413C3.80223 9.37392 3.77139 9.41873 3.73216 9.45549C3.64012 9.55975 3.56277 9.6761 3.50225 9.80131C3.47446 9.8645 3.4531 9.93032 3.4385 9.99778C3.43286 10.0783 3.45122 10.1587 3.49125 10.2287C3.50928 10.252 3.51757 10.2813 3.51438 10.3106C3.51119 10.3398 3.49678 10.3667 3.47416 10.3855C3.34654 10.4597 3.25021 10.5778 3.20309 10.7177C3.17947 10.7813 3.16321 10.8475 3.15465 10.9149L3.15717 11.1158C3.15489 11.1876 3.16422 11.2592 3.18481 11.328C3.19983 11.398 3.2129 11.4679 3.22212 11.5385C3.25006 11.6162 3.28617 11.6915 3.31218 11.7688C3.32553 11.8075 3.33596 11.8472 3.34338 11.8875C3.35958 11.9275 3.37086 11.9693 3.37697 12.0119C3.40372 12.1822 3.63898 12.2028 3.73439 12.3286C3.81092 12.4334 3.81256 12.6036 4.03741 12.6004C4.03012 12.8164 4.2416 12.8468 4.36242 12.9501C4.4912 13.0404 4.58855 13.1687 4.64091 13.317C4.66417 13.3778 4.70256 13.4317 4.75244 13.4735C4.80232 13.5153 4.86203 13.5437 4.92594 13.556C5.33515 13.6682 5.70179 13.8994 5.97931 14.2203C6.00488 14.2445 6.03602 14.2619 6.06996 14.2711C6.1039 14.2803 6.13959 14.281 6.17385 14.2731C6.34003 14.2533 6.50832 14.2841 6.65669 14.3615C6.7845 14.412 6.86133 14.6086 7.02807 14.5632C7.20403 14.5117 7.26541 14.7345 7.39039 14.8188C7.64808 14.958 7.93466 15.0351 8.22738 15.0442C8.42548 15.102 8.67025 15.1734 8.91531 15.2449C9.01771 15.2744 9.0446 15.3776 8.99214 15.5173C8.92512 15.6938 8.85795 15.8708 8.79107 16.0468C8.75827 16.1658 8.68588 16.2702 8.58584 16.3427C8.47512 16.4115 8.35222 16.5356 8.25324 16.5283C7.98544 16.5088 7.69876 16.6244 7.42651 16.61C7.31636 16.6111 7.21 16.5698 7.12945 16.4947C7.04889 16.4196 7.00031 16.3163 6.99374 16.2064C6.9713 16.0888 6.92954 16.0105 6.82016 16.0603C6.76828 16.0847 6.7093 16.0894 6.65419 16.0736C6.59909 16.0577 6.5516 16.0224 6.52056 15.9742C6.38993 15.8078 6.25975 15.6497 6.12629 15.5043C6.10519 15.4813 6.01602 15.5531 5.96698 15.6091C5.87573 15.7146 5.7885 15.7868 5.70958 15.7373C5.34272 15.4663 4.9295 15.2645 4.49021 15.1417C4.38567 15.102 4.28616 15.0501 4.19373 14.9871C4.0368 14.898 3.89784 14.7807 3.74432 14.6846C3.59289 14.57 3.41751 14.4912 3.23131 14.4541C3.15921 14.4358 3.09311 14.399 3.03954 14.3474C2.98596 14.2958 2.94675 14.2312 2.92576 14.1598C2.84463 13.9743 2.70556 13.8202 2.52941 13.7204C2.37292 13.5981 2.32745 13.3774 2.161 13.2398C1.98861 13.1081 1.96766 12.8612 1.85159 12.6832C1.81896 12.6125 1.80765 12.5338 1.81904 12.4567C1.82804 12.4184 1.8274 12.3785 1.81719 12.3406C1.80697 12.3026 1.78749 12.2677 1.76049 12.2391C1.63179 12.1133 1.66969 11.9517 1.73537 11.7948C1.81607 11.6145 1.47173 11.482 1.64338 11.2789C1.67801 11.2434 1.62704 11.1673 1.58944 11.1159C1.54495 11.0675 1.52016 11.0041 1.51991 10.9384C1.51967 10.8726 1.54398 10.8091 1.5881 10.7603ZM9.94252 10.9049C9.9455 10.9177 9.94831 10.9287 9.95129 10.9425C9.95384 10.953 9.95942 10.9625 9.96734 10.9698C9.96944 10.9678 9.97098 10.9653 9.97181 10.9625C9.97264 10.9597 9.97274 10.9568 9.9721 10.9539C9.96892 10.9344 9.95832 10.9168 9.94252 10.9049ZM10.341 11.0385L10.3398 11.037L10.3399 11.0372L10.341 11.0385ZM10.2814 10.9657L10.2815 10.9639L10.2684 10.9473L10.2687 10.948L10.2699 10.9498L10.2748 10.9569L10.2814 10.9657ZM10.3408 11.0385H10.341L10.3399 11.0373L10.3401 11.0375L10.3408 11.0385ZM10.2717 11.0104L10.2167 10.9987C10.2372 11.0303 10.2586 11.0452 10.2717 11.0104V11.0104ZM10.0234 10.9883C10.0263 10.9868 10.0293 10.9837 10.0324 10.9817C10.0137 10.981 9.99469 10.9791 9.97655 10.9797L9.97329 10.9798C9.98001 10.9858 9.98827 10.9897 9.99712 10.9912C10.006 10.9927 10.0151 10.9917 10.0234 10.9883V10.9883ZM9.95367 10.9817C9.95515 10.9824 9.9553 10.981 9.95605 10.9806L9.9507 10.9809L9.95367 10.9817ZM9.26737 10.1066C9.25317 10.1456 9.2483 10.1875 9.25315 10.2288C9.258 10.2701 9.27244 10.3097 9.29531 10.3444C9.31818 10.3791 9.34885 10.408 9.38487 10.4288C9.42089 10.4495 9.46127 10.4616 9.50278 10.464C9.57129 10.476 9.64069 10.4787 9.66566 10.5118C9.69026 10.5456 9.72023 10.5752 9.75438 10.5994C9.78306 10.6289 9.81457 10.6497 9.84102 10.6754C9.85008 10.6869 9.85737 10.7012 9.86584 10.713C9.86975 10.6976 9.87447 10.6824 9.87996 10.6674C9.93167 10.4935 9.85826 10.3252 9.65777 10.3388C9.64202 10.3402 9.63949 10.3127 9.65004 10.2867C9.79137 10.0407 9.65035 10.0327 9.53725 9.99332C9.45269 9.96077 9.4133 9.86432 9.36604 9.78169C9.34182 9.73993 9.31626 9.69876 9.28862 9.65998C9.28698 9.66818 9.28464 9.67624 9.28163 9.68405C9.20852 9.83934 9.29725 9.95971 9.26737 10.1066V10.1066Z" fill="#006ADC"/>
<path d="M57.8015 57.4593C57.8734 57.2745 57.9719 57.1012 58.0939 56.9449C58.2685 56.7185 58.5022 56.5445 58.7693 56.4422C58.9868 56.3502 59.2317 56.3468 59.4516 56.433C59.5694 56.4927 59.5824 56.56 59.518 56.6223C59.3579 56.7661 59.2453 56.9553 59.1951 57.1646C59.1621 57.3218 59.1132 57.4484 59.0875 57.5633C59.0499 57.7192 59.1395 57.8748 59.1181 57.9851C59.0956 58.1091 59.113 58.2372 59.1679 58.3507L59.3122 58.6639L59.3768 58.8154C59.4045 58.864 59.4299 58.9127 59.4523 58.9622C59.5172 59.0835 59.5512 59.2188 59.5515 59.3563C59.5517 59.4938 59.5181 59.6293 59.4537 59.7507C59.4356 59.7757 59.4232 59.8044 59.4174 59.8346C59.4116 59.8649 59.4124 59.8961 59.4199 59.926C59.4274 59.9559 59.4413 59.9838 59.4607 60.0078C59.4801 60.0318 59.5044 60.0512 59.5321 60.0648C59.602 60.1043 59.6613 60.1601 59.705 60.2274C59.7543 60.2934 59.7895 60.369 59.8084 60.4492C59.8815 60.7413 59.9976 61.0209 60.1529 61.2789C60.1796 61.3198 60.3177 61.307 60.3929 61.2789C60.5348 61.2269 60.6582 61.1999 60.754 61.2993C60.9057 61.4378 61.0645 61.5684 61.2297 61.6903C61.3586 61.7777 61.4918 61.8584 61.6289 61.9321C61.9277 62.0657 62.2435 62.1572 62.5674 62.2039C62.7279 62.2367 62.8909 62.2671 63.0505 62.3048C63.564 62.3981 64.1063 62.5221 64.6071 62.2837C64.7935 62.2174 64.9945 62.2039 65.188 62.2448C65.4629 62.277 65.7409 62.2225 65.9833 62.0889C66.2442 62.0188 66.4986 61.9264 66.7437 61.8129C66.969 61.6595 67.255 61.604 67.4816 61.4467C67.6437 61.34 67.8901 61.3928 68.0038 61.2018C68.1156 61.0134 68.3062 60.9804 68.5067 60.9206C68.7494 60.841 68.675 60.4696 68.9625 60.4143C69.0159 60.4018 69.046 60.2938 69.0505 60.2175C69.0527 60.1397 69.0764 60.0639 69.1188 59.9986C69.1613 59.9332 69.221 59.8809 69.2912 59.8472C69.3627 59.8258 69.4233 59.7779 69.4606 59.7134C69.498 59.6489 69.5093 59.5725 69.4923 59.4999C69.4499 59.3107 69.4815 59.1125 69.5806 58.9459C69.6322 58.8856 69.6702 58.8149 69.692 58.7387C69.7139 58.6624 69.719 58.5823 69.7072 58.5039C69.6585 58.2235 69.674 57.9357 69.7525 57.6621C69.7586 57.6265 69.764 57.5907 69.7695 57.5548C69.7435 57.5467 69.7183 57.541 69.6922 57.5327C69.4585 57.4643 69.2314 57.3751 69.0136 57.2662C68.7467 57.1316 68.5182 56.9316 68.3493 56.6849C68.1461 56.4659 67.9842 56.2119 67.8714 55.9353C67.8298 55.7693 67.8154 55.5976 67.8289 55.427C67.8374 55.342 67.851 55.2575 67.8696 55.1741C67.8895 55.1036 67.9143 55.0347 67.9438 54.9676C67.9702 54.9033 68.0013 54.841 68.0369 54.7813C68.0683 54.7345 68.1016 54.6893 68.1364 54.6466C68.1703 54.6051 68.2065 54.5654 68.2448 54.5279C68.2777 54.501 68.3126 54.4767 68.3493 54.4554C68.5891 54.2875 68.8479 54.1486 69.1203 54.0415C69.2197 54.0108 69.3221 53.9905 69.4257 53.981C69.5431 53.9727 69.661 53.9803 69.7763 54.0037C69.9916 54.0479 70.1884 54.1566 70.3406 54.3152C70.5509 54.5772 70.711 54.8758 70.8126 55.196C70.8989 55.4245 71.0078 55.6438 71.1379 55.8505C71.1484 55.8669 71.1547 55.8846 71.1642 55.9014C72.0149 56.0732 72.8897 56.0884 73.7459 55.9464C74.0076 55.8543 74.2899 55.8373 74.5607 55.8972C74.5817 55.9042 74.6186 55.8617 74.6141 55.8364C74.5818 55.6207 74.5911 55.5793 74.674 55.5514C74.7587 55.516 74.88 55.5186 74.9525 55.4642C75.2873 55.1895 75.7377 54.9411 75.7841 54.4221C75.7885 54.3866 75.8068 54.3543 75.8349 54.3322C76.1484 54.1161 76.1346 53.7034 76.2707 53.3931C76.3744 53.1293 76.449 52.855 76.5284 52.5811C76.6346 52.2739 76.7201 51.96 76.7844 51.6414C76.8425 51.2788 76.7843 50.9086 76.8619 50.554C76.9309 50.196 76.6577 49.9243 76.6532 49.5995C76.6361 49.455 76.6105 49.3116 76.5765 49.1701C76.5684 49.1092 76.5765 49.0472 76.5998 48.9904C76.6232 48.9336 76.6611 48.8839 76.7097 48.8463C76.7935 48.7742 76.824 48.6941 76.7696 48.6424C76.6322 48.538 76.5217 48.4023 76.4473 48.2466C76.3729 48.0909 76.3367 47.9198 76.3417 47.7473C76.3358 47.7111 76.3188 47.6775 76.2932 47.6513C76.2675 47.6251 76.2344 47.6073 76.1983 47.6006C76.1158 47.5979 76.0357 47.5728 75.9663 47.528C75.897 47.4832 75.8412 47.4205 75.8048 47.3465C75.463 47.5195 75.079 47.5914 74.6977 47.5538C74.3256 47.4841 74.0028 47.7501 73.6362 47.6649C73.4845 47.6437 73.335 47.6092 73.1893 47.5619C73.0498 47.5057 72.899 47.4829 72.749 47.4952C72.4829 47.516 72.2152 47.4889 71.9586 47.4151C71.5477 47.2744 71.1596 47.0743 70.8067 46.8213C70.5705 46.6449 70.3677 46.4278 70.2078 46.1803C70.0103 45.8593 69.9 45.4923 69.8878 45.1157C69.8649 44.9483 69.9031 44.7782 69.9953 44.6367C70.0876 44.4952 70.2278 44.3918 70.3903 44.3453C70.5213 44.3117 70.583 44.2204 70.6481 44.0471C70.6803 43.9574 70.7248 43.8727 70.7804 43.7952C70.8457 43.7171 70.918 43.6452 70.9966 43.5803C71.1525 43.4524 71.3401 43.3691 71.5396 43.3394C71.6951 43.3048 71.8223 43.3183 71.9535 43.291C72.0826 43.2696 72.2103 43.2404 72.3359 43.2035C72.5745 43.1348 72.8254 43.1203 73.0703 43.161C73.2115 43.183 73.3514 43.213 73.4891 43.251L73.8748 43.3824C74.114 43.4761 74.3472 43.5846 74.573 43.7071C74.7104 43.7659 74.8372 43.8469 74.9482 43.947C75.1795 44.1977 75.4889 44.3368 75.7051 44.5862C75.7448 44.6334 75.7867 44.6759 75.8277 44.7196C75.8637 44.7125 75.9001 44.7058 75.9383 44.6984C76.0486 44.6781 76.1825 44.6486 76.1486 44.5087C76.1004 44.2863 76.1912 44.1045 76.1676 43.8985C76.1288 43.549 76.022 43.2564 76.251 42.9186C76.2618 42.9038 76.2675 42.8859 76.2672 42.8676C76.2669 42.8492 76.2607 42.8315 76.2493 42.8171C76.0706 42.6279 76.1854 42.4372 76.1897 42.2252C76.2022 42.0659 76.1733 41.9062 76.1058 41.7614C76.0383 41.6166 75.9346 41.4918 75.8047 41.3989C75.6985 41.3326 75.613 41.238 75.5578 41.1257C75.5026 41.0134 75.4799 40.8879 75.4923 40.7634C75.5033 40.3118 75.1224 40.048 74.9956 39.6189C74.9233 39.3776 74.6066 39.3743 74.4109 39.2526C73.8553 38.8989 73.3743 38.3652 72.6638 38.226C72.6015 38.2141 72.549 38.1048 72.5288 38.0251C72.4686 37.7803 72.3777 37.621 72.1048 37.8507C72.0869 37.8634 72.0659 37.8713 72.0441 37.8734C72.0222 37.8756 72.0001 37.8721 71.98 37.8632C71.7504 37.6963 71.4823 37.5902 71.2007 37.5547C70.9719 37.522 70.7712 37.4099 70.5817 37.3706C70.5543 37.3625 70.5127 37.3445 70.5117 37.3206C70.4971 37.1729 70.6291 36.8992 70.3932 36.9506C70.292 36.9896 70.197 37.0433 70.1113 37.1099C70.0232 37.153 69.9502 37.1245 69.8107 37.0613C69.7266 37.0247 69.6487 36.9908 69.5785 36.9604C69.4861 36.9231 69.3962 36.8796 69.3096 36.8302C68.9947 36.6924 68.7333 36.4558 68.565 36.1561C68.5472 36.1002 68.5426 36.0409 68.5516 35.9829C68.5605 35.9248 68.5828 35.8697 68.6166 35.8217C68.7982 35.5922 69.0381 35.4157 69.3112 35.3106C69.5994 35.2066 69.9048 35.1584 70.211 35.1686C70.4959 35.1695 70.7508 35.2072 71.0009 35.2252C71.6557 35.295 72.2899 35.495 72.8662 35.8135C73.3832 36.0901 73.8641 36.3866 74.3593 36.7048C75.0304 37.1368 75.6228 37.6795 76.3474 38.1242C76.5482 38.4057 76.7783 38.6651 77.0339 38.898C77.2407 39.5404 77.6814 40.0254 77.89 40.6956C78.0724 41.2837 78.287 41.8989 78.1141 42.506C78.0916 42.6549 78.0869 42.806 78.1 42.956C78.0973 43.6713 77.9535 44.3791 77.6766 45.0387C77.567 45.3015 77.4346 45.5541 77.2809 45.7938C77.6207 46.1295 77.8465 46.5634 77.9263 47.0344C77.9428 47.2505 78.1265 47.3514 78.2495 47.5036C78.3358 47.6203 78.3877 47.7588 78.3996 47.9035C78.3888 48.0976 78.4406 48.29 78.5472 48.4525C78.683 48.6565 78.7784 48.8847 78.8282 49.1247C79.0091 49.6368 78.9932 50.1871 79.2822 50.6854C79.2355 51.0828 79.2257 51.4838 79.2531 51.8831C79.2486 52.0858 79.2089 52.2862 79.1358 52.4754C79.1169 52.5224 79.0936 52.5675 79.0663 52.6101C78.8428 53.0019 78.7162 53.4415 78.6971 53.8922C78.6947 53.9155 78.6866 53.9379 78.6734 53.9573C78.6602 53.9767 78.6425 53.9926 78.6217 54.0035C78.3001 54.0576 78.3166 54.2947 78.2439 54.5358C78.1759 54.7233 78.0676 54.8936 77.9267 55.0347C77.6197 55.3511 77.3695 55.7182 77.1872 56.1197C77.1264 56.2633 77.0373 56.3932 76.9254 56.5018C76.5931 56.8387 76.2207 57.1335 75.8166 57.3795C75.6985 57.45 75.5763 57.5133 75.4506 57.569C75.3282 57.6186 75.2033 57.6615 75.0763 57.6977C74.8424 57.7631 74.6016 57.8007 74.3588 57.8096C74.1497 57.8201 73.9653 57.8748 73.7801 57.8797C73.5405 57.8807 73.3025 57.9207 73.0757 57.9982C72.9842 58.0297 72.8872 58.0423 72.7906 58.0353C72.694 58.0283 72.5999 58.0018 72.5138 57.9575C72.4355 57.9172 72.3184 57.8741 72.2546 57.9054C71.9718 58.0165 71.6601 58.0308 71.3683 57.9462C71.3679 58.1729 71.3977 58.3987 71.4572 58.6176C71.4988 58.7625 71.4886 58.9175 71.4282 59.0557C71.2491 59.4046 71.1091 59.757 70.9214 60.1455C70.7367 60.5164 70.5196 60.8702 70.2727 61.203C70.0213 61.5375 69.7379 61.8468 69.4265 62.1265C69.0939 62.4459 68.7107 62.7082 68.2925 62.9025C67.9044 63.0604 67.6757 63.4066 67.2816 63.5494C66.9389 63.6228 66.6113 63.7543 66.3129 63.9382C65.8916 63.8819 65.54 64.0865 65.1199 64.1363C64.7568 64.1835 64.3879 64.1571 64.0351 64.0587C63.7482 63.9856 63.4532 63.9491 63.1571 63.9501C62.1678 63.9345 61.2165 63.5665 60.4742 62.9123C60.3566 62.8156 60.2225 62.7408 60.0785 62.6915C59.9012 62.6366 59.7354 62.55 59.5891 62.4359C59.4369 62.3257 59.2937 62.2034 59.1611 62.0703C59.0547 61.9484 58.9603 61.8165 58.8792 61.6765C58.8023 61.5326 58.6983 61.405 58.5729 61.3008C58.4359 61.2008 58.3403 61.0542 58.304 60.8885C58.2577 60.7307 58.2321 60.5708 58.1752 60.4231C58.1331 60.2749 58.085 60.1318 58.0318 59.9896L57.95 59.7759C57.9279 59.7017 57.9057 59.627 57.8833 59.5516C57.8395 59.4005 57.7823 59.2483 57.7432 59.0869C57.7126 58.9227 57.6812 58.7537 57.6486 58.5782L57.6359 58.4431C57.6228 58.1073 57.6792 57.7723 57.8015 57.4593ZM73.7181 45.5067C73.6354 45.4639 73.5504 45.4249 73.4713 45.376C73.3883 45.3341 73.3156 45.2744 73.2582 45.2013C73.1307 45.0494 72.9106 45.1699 72.7994 44.9971C72.7788 44.9691 72.7491 44.9492 72.7153 44.9409C72.6838 44.9364 72.6516 44.9416 72.623 44.9558C72.5841 44.9769 72.5436 44.995 72.5019 45.0098C72.4659 45.0277 72.4377 45.0485 72.4071 45.0608C72.3595 45.079 72.3132 45.1001 72.2683 45.1241C72.244 45.1259 72.2374 45.14 72.2278 45.1473C72.2186 45.1555 72.2041 45.1552 72.1938 45.1601C72.1902 45.17 72.1833 45.1784 72.1742 45.1837C72.1695 45.1862 72.1646 45.1883 72.1595 45.1898L72.1562 45.2005C72.1771 45.2181 72.1989 45.2346 72.2216 45.2499C72.3102 45.3109 72.4835 45.2548 72.6055 45.2977C72.7577 45.3517 72.9003 45.5432 73.0998 45.597C73.4025 45.6843 73.7162 45.728 74.0313 45.7266C73.9307 45.648 73.8262 45.5745 73.7181 45.5067Z" fill="#80829B"/>
</svg>
