<svg width="30" height="24" viewBox="0 0 30 24" fill="none" xmlns="http://www.w3.org/2000/svg">
<path fill-rule="evenodd" clip-rule="evenodd" d="M27.1148 2.48545C27.0864 2.29661 26.9714 2.12525 26.7762 2.12819C26.1728 2.1373 25.5689 2.16363 24.9656 2.20559C23.118 2.05334 21.2799 2.12695 19.4802 2.42373C19.8248 2.3285 20.1713 2.24013 20.52 2.16221C21.782 1.88171 23.07 1.72235 24.3693 1.69459C25.3388 1.67358 26.6504 1.73484 27.5035 2.55628C27.3741 2.53126 27.2446 2.50819 27.1148 2.48545ZM13.4563 4.77837C14.8718 4.22078 16.3508 3.78588 17.8724 3.47864C15.8618 3.96869 13.93 4.63657 12.1289 5.49911C12.5623 5.24636 13.005 5.00604 13.4563 4.77837ZM6.63714 11.2676C6.44579 11.4769 6.25652 11.6906 6.06922 11.9071C7.68948 9.65697 9.72972 7.76711 12.0497 6.34749C13.9236 5.20097 15.9404 4.37299 18.0426 3.82302C16.3713 4.3945 14.7582 5.12306 13.2255 6.00027C10.7898 7.39472 8.55705 9.16459 6.63714 11.2676ZM6.99643 9.47468C5.78819 11.0192 4.72808 12.7302 3.84329 14.5837C4.54829 12.6568 5.67081 10.9484 6.99643 9.47468ZM3.47821 17.7651C3.44047 17.1523 3.43999 16.556 3.46476 15.9721C3.58946 16.0701 3.72795 16.1465 3.86177 16.1891C3.72162 16.705 3.59182 17.2283 3.47821 17.7651ZM1.04098 15.0163C0.961031 14.532 0.877637 14.0469 0.792787 13.5617C0.849851 13.5482 0.900971 13.527 0.941893 13.4983C0.956828 13.6872 0.975697 13.8769 0.992087 14.0659C1.0084 14.3828 1.02472 14.6998 1.04098 15.0163ZM15.0175 3.31888C14.3752 3.64248 13.7479 3.9982 13.1362 4.38202C12.7702 4.56479 12.4076 4.75659 12.0499 4.95976C7.48761 7.5532 2.56107 12.3775 2.62137 18.8902C2.57676 18.2478 2.50747 17.6028 2.4498 16.9634C2.27604 15.0221 2.0815 13.0805 1.87024 11.1396C1.81696 10.65 1.21477 10.6377 1.2138 11.1199C1.21343 11.3706 1.21356 11.6214 1.21319 11.8721C1.20023 11.9117 1.19203 11.9553 1.19204 12.0059C1.19105 12.2198 1.19409 12.4341 1.19535 12.648C1.16191 12.4006 1.12673 12.1534 1.08425 11.9054C1.0053 11.4407 0.483867 11.3847 0.41551 11.7995C0.370033 11.8586 0.342276 11.9404 0.346947 12.0479C0.36224 12.3826 0.380292 12.7174 0.398593 13.0522C0.387897 16.088 0.496573 19.1322 0.740004 22.1868C0.750718 22.3222 0.802481 22.419 0.872264 22.481C0.884065 22.6682 1.00784 22.8538 1.15954 22.8826C1.03625 23.1863 1.34361 23.6435 1.61904 23.4065C3.29234 21.9683 4.95742 20.5074 6.39565 18.7907C7.34624 17.9239 8.26196 17.0088 9.13257 16.0383C9.38416 15.7574 8.95624 15.2966 8.70023 15.5633C8.60842 15.6604 8.51471 15.7552 8.42209 15.8514C8.47887 15.6415 8.31598 15.4389 8.13351 15.3905C8.2682 15.2212 8.40401 15.0537 8.53871 14.8845C8.80802 14.5448 8.33824 14.0398 8.04689 14.3443C6.52612 15.933 5.00536 17.5217 3.48436 19.1107C3.52019 18.9834 3.55577 18.8561 3.59367 18.7297C4.48961 16.2018 6.08392 14.0807 7.75064 12.2217C9.59985 10.1586 11.7222 8.41813 14.0317 7.04683C18.033 4.67089 22.5454 3.44315 27.2103 3.44149C27.7356 3.48028 28.2613 3.53204 28.7865 3.59703C28.8655 3.60689 28.9399 3.56651 28.9958 3.50198C29.1508 3.51238 29.3056 3.51933 29.4608 3.53205C29.8189 3.56209 29.8618 2.90353 29.4993 2.80945C29.2693 2.74987 29.0391 2.69459 28.8088 2.64132C27.5069 0.479647 24.5643 0.834416 22.7098 1.03182C20.0183 1.3184 17.4271 2.10374 15.0175 3.31888Z" fill="#000638"/>
</svg>
