<svg width="113" height="140" viewBox="0 0 113 140" fill="none" xmlns="http://www.w3.org/2000/svg">
<path fill-rule="evenodd" clip-rule="evenodd" d="M112.667 19.2902L95.9577 0.376598C95.4436 -0.125533 94.5581 -0.125533 94.044 0.376598L77.3348 19.2902C76.5922 20.0155 77.1635 21.1592 78.2774 21.1592H86.1036V36H103.841V21.1592H111.667C112.838 21.1592 113.409 20.0155 112.667 19.2902ZM18 43H82V48H18V43ZM18 51H82V56H18V51ZM82 60H18V65H82V60ZM18 69H82V74H18V69ZM68 78H18V83H68V78ZM103 39H86V46H103V39ZM86 51.0698C86 51.5814 86.5475 52 87.2319 52H101.768C102.452 52 103 51.5814 103 51.0698V49H86V51.0698ZM84.3225 136.329C88.7471 136.329 92.3315 132.768 92.3315 128.374H92.3035V55H96V129.709C96 135.383 91.3794 140 85.6387 140H13.3613C7.6486 140 3 135.411 3 129.709V125.926H6.69648V128.374C6.69648 132.768 10.2809 136.329 14.7055 136.329H84.3225ZM6.70228 28.671C6.70228 24.2489 10.3198 20.6664 14.7851 20.6664H75.0391C74.6434 19.4349 74.9543 18.0635 75.887 17.112L76 17H13.4568C7.66318 17 3 21.646 3 27.3555V91H6.73055V28.671H6.70228ZM66.483 94C74.5077 94 81 100.519 81 108.514C81 116.509 74.5077 123 66.5108 123H0V94H66.483Z" fill="#006ADC"/>
<path fill-rule="evenodd" clip-rule="evenodd" d="M41.6251 115.659C40.8956 115.886 40.0511 116 39.0915 116C38.316 116 37.5634 115.903 36.8339 115.709C36.1044 115.515 35.4603 115.21 34.9017 114.795C34.343 114.38 33.8994 113.851 33.5708 113.209C33.2422 112.566 33.0844 111.803 33.0976 110.92H36.0945C36.0945 111.402 36.18 111.81 36.3509 112.145C36.5217 112.479 36.7485 112.75 37.0311 112.958C37.3137 113.165 37.6456 113.319 38.0268 113.42C38.408 113.52 38.8023 113.57 39.2098 113.57C39.4858 113.57 39.7816 113.547 40.0971 113.5C40.4125 113.453 40.7083 113.363 40.9843 113.229C41.2604 113.095 41.4904 112.911 41.6744 112.677C41.8584 112.442 41.9505 112.145 41.9505 111.783C41.9505 111.395 41.8289 111.08 41.5857 110.839C41.3425 110.598 41.0238 110.398 40.6294 110.237C40.2351 110.076 39.7882 109.936 39.2887 109.815C38.7892 109.695 38.2831 109.561 37.7705 109.414C37.2447 109.28 36.7321 109.116 36.2326 108.922C35.7331 108.728 35.2861 108.477 34.8918 108.169C34.4975 107.861 34.1787 107.476 33.9355 107.014C33.6924 106.552 33.5708 105.993 33.5708 105.337C33.5708 104.601 33.7252 103.962 34.0341 103.42C34.343 102.878 34.7472 102.426 35.2467 102.064C35.7462 101.703 36.3114 101.435 36.9424 101.261C37.5733 101.087 38.2042 101 38.8352 101C39.5713 101 40.2778 101.084 40.9548 101.251C41.6317 101.418 42.2331 101.689 42.7588 102.064C43.2846 102.439 43.702 102.918 44.0109 103.5C44.3198 104.082 44.4742 104.788 44.4742 105.618H41.4772C41.451 105.19 41.3622 104.835 41.2111 104.554C41.0599 104.273 40.8595 104.052 40.6097 103.892C40.36 103.731 40.0741 103.617 39.752 103.55C39.43 103.483 39.0784 103.45 38.6972 103.45C38.4474 103.45 38.1977 103.477 37.9479 103.53C37.6982 103.584 37.4714 103.677 37.2677 103.811C37.064 103.945 36.8964 104.112 36.7649 104.313C36.6335 104.514 36.5677 104.768 36.5677 105.076C36.5677 105.357 36.6203 105.585 36.7255 105.759C36.8306 105.933 37.0377 106.094 37.3466 106.241C37.6555 106.388 38.0827 106.535 38.6282 106.683C39.1737 106.83 39.8868 107.017 40.7674 107.245C41.0303 107.299 41.3951 107.396 41.8617 107.536C42.3284 107.677 42.7917 107.901 43.2518 108.209C43.7118 108.517 44.1095 108.928 44.4446 109.444C44.7798 109.959 44.9474 110.618 44.9474 111.422C44.9474 112.078 44.8225 112.687 44.5728 113.249C44.3231 113.811 43.9517 114.297 43.4588 114.705C42.9659 115.113 42.3547 115.431 41.6251 115.659ZM22.1153 115.679L23.2194 112.486H28.4838L29.5485 115.679H32.7624L27.498 101.341H24.3236L19 115.679H22.1153ZM27.6754 110.137H24.0278L25.8615 104.876H25.9009L27.6754 110.137ZM49.8766 115.679V110.538H53.1299C54.0106 110.538 54.7599 110.408 55.3777 110.147C55.9954 109.886 56.4982 109.541 56.886 109.112C57.2738 108.684 57.5564 108.192 57.7338 107.637C57.9113 107.081 58 106.515 58 105.94C58 105.351 57.9113 104.782 57.7338 104.233C57.5564 103.684 57.2738 103.195 56.886 102.767C56.4982 102.339 55.9954 101.994 55.3777 101.733C54.7599 101.472 54.0106 101.341 53.1299 101.341H46.7811V115.679H49.8766ZM49.8766 108.088H52.2821C52.637 108.088 52.9788 108.062 53.3074 108.008C53.636 107.954 53.9252 107.851 54.1749 107.697C54.4247 107.543 54.6251 107.325 54.7763 107.044C54.9275 106.763 55.003 106.395 55.003 105.94C55.003 105.485 54.9275 105.116 54.7763 104.835C54.6251 104.554 54.4247 104.337 54.1749 104.183C53.9252 104.029 53.636 103.925 53.3074 103.871C52.9788 103.818 52.637 103.791 52.2821 103.791H49.8766V108.088Z" fill="white"/>
</svg>
