<?xml version="1.0" encoding="UTF-8"?>
<svg width="258px" height="159px" viewBox="0 0 258 159" version="1.1" xmlns="http://www.w3.org/2000/svg" xmlns:xlink="http://www.w3.org/1999/xlink">
    <title>undraw_welcoming_xvuq (1)</title>
    <g id="💻-Tableu-de-Bord" stroke="none" stroke-width="1" fill="none" fill-rule="evenodd">
        <g id="TdB---Employeur---Walkthrough-1" transform="translate(-592.000000, -212.000000)" fill-rule="nonzero">
            <g id="undraw_welcoming_xvuq-(1)" transform="translate(592.000000, 212.000000)">
                <path d="M121.030215,158 L120.705811,157.662712 C120.770028,157.601014 127.154125,151.35024 129.587096,139.669055 C131.834041,128.882504 131.075081,111.123303 114.69994,87.7755629 C107.857977,78.0202972 103.192113,68.803408 100.831929,60.3811799 C98.9034461,53.4993634 98.49517,47.1018838 99.6184154,41.3665215 C101.838963,30.0270818 109.386526,25.0489033 109.462512,25 L109.716071,25.3932741 C109.641684,25.4412602 102.25181,30.3259773 100.074796,41.4709527 C97.5771495,54.2575627 102.626722,69.7463725 115.083191,87.5068297 C122.356961,97.8779418 127.198916,108.033338 129.474657,117.691256 C131.297663,125.428058 131.487584,132.864591 130.039136,139.794513 C127.570285,151.605946 121.095359,157.937387 121.030215,158 Z" id="Path" fill="#F2F2F2"></path>
                <circle id="Oval" fill="#F2F2F2" cx="106" cy="33" r="18"></circle>
                <path d="M109.000059,50 C95.1929405,50 84,38.807178 84,25.0000593 C84,11.1929405 95.192822,0 108.999941,0 C122.807059,0 134,11.192822 134,24.9999407 C133.984374,38.8005684 122.800687,49.984309 109.000059,50 Z M109.000059,0.474033488 C99.080221,0.474033488 90.1371417,6.44956064 86.3409729,15.6142916 C82.544804,24.7790225 84.6431379,35.3280923 91.6575228,42.3424772 C98.6719077,49.3568621 109.220977,51.455196 118.385708,47.6590271 C127.550439,43.8628583 133.525967,34.919779 133.525967,24.9999407 C133.510623,11.4610168 122.538983,0.489377064 109.000059,0.474033488 Z" id="Shape" fill="#F2F2F2"></path>
                <circle id="Oval" fill="#F2F2F2" cx="123" cy="73" r="15"></circle>
                <circle id="Oval" fill="#F2F2F2" cx="116" cy="126" r="15"></circle>
                <rect id="Rectangle" fill="#007BFF" x="124" y="27" width="55" height="36"></rect>
                <path d="M251.471727,158 L201.065211,158 C201.065211,158 200.043456,142.525614 206.088834,142.34977 C212.134212,142.173926 211.453039,149.207736 219.031047,139.536246 C226.609054,129.864755 235.804838,130.392291 236.996882,136.107263 C238.188927,141.822235 234.697938,146.394212 241.083899,144.98745 C247.46986,143.580688 256.665643,147.273439 251.471727,158 Z" id="Path" fill="#F2F2F2"></path>
                <path d="M226.174394,158 L226,157.992987 C226.406709,147.841616 228.524945,141.319257 230.230289,137.635321 C232.081902,133.635232 233.866178,132.015913 233.883991,132 L234,132.130936 C233.982431,132.146678 232.218965,133.749915 230.382184,137.722922 C228.686257,141.391288 226.579615,147.886872 226.174394,158 Z" id="Path" fill="#FFFFFF"></path>
                <path d="M244.169151,158 L244,157.952922 C245.311667,153.813656 247.676147,150.050302 250.881615,147 L251,147.124779 C247.818252,150.153852 245.471271,153.890421 244.169151,158 L244.169151,158 Z" id="Path" fill="#FFFFFF"></path>
                <path d="M209.782786,157 L209.602257,156.976279 C210.19033,153.234477 209.568096,149.412018 207.817204,146.010468 C207.099014,144.583717 206.148377,143.272374 205,142.124315 L205.126079,142 C206.289486,143.162109 207.252705,144.489661 207.980561,145.93418 C209.747672,149.366679 210.37589,153.223987 209.782786,157 L209.782786,157 Z" id="Path" fill="#FFFFFF"></path>
                <path d="M20.3242092,157 L20.2057394,156.758188 C20.1696662,156.684685 16.6210819,149.314927 18.5995872,142.048673 C20.5782058,134.78219 27.3825385,130.194868 27.4509935,130.149528 L27.6758347,130 L27.7943162,130.241812 C27.830387,130.315318 31.3789737,137.685073 29.4003528,144.951327 C27.4218498,152.21781 20.6175171,156.805132 20.5490622,156.850472 L20.3242092,157 Z M27.4854522,130.699559 C26.2941767,131.560554 20.782983,135.825918 19.0552598,142.170952 C17.3262597,148.521026 19.9224693,154.96086 20.5145916,156.300443 C21.7058647,155.439446 27.217049,151.174082 28.944666,144.829048 L28.944666,144.829048 C30.6737841,138.478977 28.0775745,132.03914 27.4854522,130.699559 Z" id="Shape" fill="#3F3D56"></path>
                <path d="M10.5694801,144.926568 C12.4552711,152.382411 18.9145223,157 18.9145223,157 C18.9145223,157 22.3163109,149.529284 20.4305199,142.073434 C18.5447289,134.617584 12.0854777,130 12.0854777,130 C12.0854777,130 8.68368912,137.470725 10.5694801,144.926568 Z" id="Path" fill="#007BFF"></path>
                <path d="M20,158 L19.7321896,157.984977 C19.6506107,157.980518 11.5138052,157.465264 6.13108327,152.082698 C0.748590639,146.700131 0.0284487,138.358211 0.0218220576,138.27441 L0,138 L0.267810418,138.015023 C0.349389253,138.019482 8.48619479,138.534736 13.8688068,143.917302 C19.251414,149.300102 19.9715536,157.641789 19.9781803,157.72559 L20,158 Z M0.518256318,138.518068 C0.694777249,140.007252 1.75745015,147.038156 6.4576209,151.73809 C11.1577893,156.438505 18.0277526,157.340607 19.4817437,157.48192 C19.3052228,155.9925 18.2425475,148.962066 13.5422644,144.261886 L13.5422644,144.261886 C8.83866805,139.557962 1.97156183,138.658677 0.518256318,138.518068 Z" id="Shape" fill="#3F3D56"></path>
                <path d="M26.1974232,143.687888 C20.6745772,148.934592 20,157 20,157 C20,157 28.2797308,156.558818 33.8025768,151.312112 C39.3254228,146.065405 40,138 40,138 C40,138 31.7202716,138.441182 26.1974232,143.687888 Z" id="Path" fill="#3F3D56"></path>
                <path d="M70.1974232,98.6878885 C64.6745772,103.934592 64,112 64,112 C64,112 72.2797308,111.558818 77.8025768,106.312112 C83.3254228,101.065405 84,93 84,93 C84,93 75.7202716,93.4411822 70.1974232,98.6878885 Z" id="Path" fill="#3F3D56"></path>
                <circle id="Oval" fill="#007BFF" cx="19.5" cy="126.5" r="3.5"></circle>
                <path d="M62.9184293,157 L62.5880367,156.661863 C62.6399398,156.612834 67.7970436,151.640681 69.7612448,142.350192 C71.575321,133.769649 70.9592244,119.641707 57.7225691,101.064391 C47.5707036,86.8164077 43.4625127,74.3683774 45.5122274,64.0658846 C47.3128018,55.0150288 53.43688,51.0390612 53.4985598,51 L53.7567976,51.3942642 C53.6968649,51.4324058 47.7333866,55.3146698 45.9770336,64.1706936 C43.9602311,74.3404286 48.0432963,86.6626872 58.1128849,100.794983 C64.0016487,109.059839 67.9219046,117.153566 69.7646101,124.851199 C71.2411937,131.019889 71.394927,136.949638 70.2215058,142.475732 C68.2208865,151.897262 62.9712642,156.950059 62.9184293,157 Z" id="Path" fill="#3F3D56"></path>
                <ellipse id="Oval" fill="#007BFF" cx="60" cy="56.5" rx="42" ry="7.5"></ellipse>
                <path d="M52,61 C22.8411788,61 0,57.0467269 0,52 C0,46.9532731 22.8411788,43 52,43 C81.1588212,43 104,46.9532754 104,52 C104,57.0467246 81.1588212,61 52,61 Z M52,43.4615385 C24.066432,43.4615385 0.46741573,47.3716577 0.46741573,52 C0.46741573,56.6283423 24.066432,60.5384615 52,60.5384615 C79.933568,60.5384615 103.532584,56.6283446 103.532584,52 C103.532584,47.3716554 79.933568,43.4615385 52,43.4615385 Z" id="Shape" fill="#3F3D56"></path>
                <path d="M63.8764804,16.1517492 C63.8764804,16.1517492 57.7477829,14.3716367 55.9350726,23.0051811 C54.1223624,31.6387256 55.503473,36 55.503473,36 L69.1851425,34.3533965 C69.1851425,34.3533965 73.0695255,18.7774133 63.8764804,16.1517492 Z" id="Path" fill="#2F2E41"></path>
                <path d="M54.0414878,53 C54.0414878,53 44.5039247,53.9126126 46.2026933,57.6119773 C47.901462,61.311342 47.9014498,61.6377591 47.9014498,61.6377591 L56.2819857,76 L59,73.2798793 C59,73.2798793 55.9422339,66.8603915 55.9422339,64.7931001 C55.9422339,62.7258088 52.7712189,59.1352473 52.7712189,59.1352473 L58.3204964,58.700027 L54.0414878,53 Z" id="Path" fill="#A0616A"></path>
                <path d="M79.8888905,58.4341001 L83,65.0542558 C83,65.0542558 85.3333333,67.3333263 87.8888881,76.4496061 C90.4444429,85.5658859 91,85.240309 91,85.240309 L87.1111119,86 C87.1111119,86 82.7777786,76.1240293 81.3333333,75.3643407 C79.8888881,74.604652 78.1111143,67.6589125 78.1111143,67.6589125 L73,61.364343 L74.5555548,58 L79.8888905,58.4341001 Z" id="Path" fill="#A0616A"></path>
                <path d="M76.2031954,50.4999821 L81,59.5909104 C81,59.5909104 74.9760918,56.7499996 74.0836618,63 L68.6175245,58.6818176 C68.6175245,58.6818176 61.0318632,61.1818119 56.4581679,60.2727215 C56.4581679,60.2727215 57.7968046,55.9545391 53,54.0227186 L63.8207199,52.6590916 L63.3745061,50.2727296 L64.4900431,48 L76.2031954,50.4999821 Z" id="Path" fill="#2F2E41"></path>
                <path d="M57.4895287,74.1457018 C57.4895287,74.1457018 54.3127323,73.705058 55.136347,76.348916 L56.7835739,81.6366296 C56.7835739,81.6366296 54.6657096,87.0345071 57.960166,85.8227373 C61.2546224,84.6109675 63.3724892,77.1200397 63.3724892,77.1200397 C63.3724892,77.1200397 64.7843885,71.3916823 63.3724892,71.3916823 C61.9605898,71.3916823 57.4895337,70.5103971 57.960166,71.3916823 C58.4307983,72.2729675 57.4895287,74.1457018 57.4895287,74.1457018 Z" id="Path" fill="#2F2E41"></path>
                <path d="M89.967644,83.3043232 C89.967644,83.3043232 86.4353478,82.3425107 85.6279642,83.838665 C84.8205806,85.3348193 85.0224276,90.250746 85.0224276,90.3576148 C85.0224276,90.4644836 86.2334921,91.5331626 86.6371926,91.5331626 C87.0408931,91.5331626 89.56395,96.3422251 92.9953249,94.6323331 C96.4266998,92.9224412 89.967644,83.3043232 89.967644,83.3043232 Z" id="Path" fill="#2F2E41"></path>
                <circle id="Oval" fill="#A0616A" cx="62.5" cy="25.5" r="4.5"></circle>
                <path d="M66.3647566,27 C66.3647566,27 67.2050601,31.6666659 67.940327,32.3333328 C68.675594,33 62.3733123,34 62.3733123,34 C62.3733123,34 63.3186545,30.7777799 62.163237,29.1111102 C61.0078194,27.4444406 66.3647566,27 66.3647566,27 Z" id="Path" fill="#A0616A"></path>
                <path d="M78.1626366,51.9734714 C77.4086342,51.9734714 75.4887697,51.6741238 73.3363863,51.2887919 C71.4741135,50.9554728 69.4357577,50.5595278 67.8281174,50.2389468 C66.1064447,49.8950145 64.8763584,49.6381289 64.8763584,49.6381289 C64.8763584,49.6381289 64.4334816,52.2919274 62.994129,51.9734714 C61.7540811,51.6995978 58.0483197,39.2893734 57.0463078,35.8596033 C56.8958221,35.3449812 57.1206547,34.7971945 57.5965823,34.5189035 L62.6863232,31.5392048 L63.9905976,32.0168888 C63.9905976,32.0168888 66.1939071,30.3842694 67.472703,30.3513627 C68.7514989,30.318456 70.9658925,30 70.9658925,30 C70.9658925,30 73.5124288,30.2123055 73.9553057,32.0168888 C74.3981825,33.8214721 74.6196197,45.0735829 76.2804047,47.0904694 C77.9411898,49.1073559 80.2662984,51.9734714 78.1626366,51.9734714 Z" id="Path" fill="#D0CDE1"></path>
                <path d="M63,58.8445242 C63,58.8445242 63,62.5041293 65.7298107,61.9411131 C68.4596214,61.3780969 65.9397954,58 65.9397954,58 L63,58.8445242 Z" id="Path" fill="#A0616A"></path>
                <path d="M70,58.9235518 C70,58.9235518 69.0121946,63.6439309 66.9268291,62.9256098 C64.8414636,62.2072888 66.9268291,58 66.9268291,58 L70,58.9235518 Z" id="Path" fill="#A0616A"></path>
                <path d="M76,47.3296745 C76,47.3296745 74.8369439,49.893688 73.9102978,52 C71.9121044,51.6553489 69.7249763,51.2459427 68,50.9144629 C68.1239254,50.6113253 68.2978478,50.3277184 68.5156006,50.0736977 C69.3472014,49.195609 68.8720006,48.976088 68.8720006,48.976088 C68.1592032,47.6589667 68.7532023,45.9027845 68.7532023,45.9027845 C67.3276126,42.3904366 69.4660022,38 69.4660022,38 L76,47.3296745 Z" id="Path" fill="#000000" opacity="0.15"></path>
                <path d="M69.8125011,38.0159148 C69.8125011,38.0159148 67.7875009,42.3265214 69.137501,45.7750053 C69.137501,45.7750053 68.5749993,47.4992461 69.2499994,48.7924279 C69.2499994,48.7924279 69.7000002,49.0079574 68.9124994,49.8700801 C68.1249985,50.7322028 67.4500008,53.7496231 68.0125001,54.3962139 C68.5749993,55.0428048 67.2250016,56.2282276 67.5625017,56.8748115 C67.9000017,57.5213955 67,58.3835251 67,58.3835251 C67,58.3835251 70.3750003,59.030116 70.9374995,60 C70.9374995,60 71.6124996,59.2456455 71.2749996,58.3835251 C70.9374995,57.5214047 71.1625012,57.198107 71.5,56.659282 C71.8375012,56.1204571 72.8499916,54.9350412 72.9624997,54.3962139 C73.0750078,53.8573867 76,47.1759507 76,47.1759507 L74.6282305,35 L69.8125011,38.0159148 Z" id="Path" fill="#D0CDE1"></path>
                <path d="M58.2201862,34 L58.0148657,34.0370828 C57.4238838,34.1435442 56.9956364,34.6568579 57,35.2534994 C57.0078584,36.349602 57.0700223,38.294837 57.341017,40.9868971 C57.7805993,45.3537072 59.3191336,51.9039248 59.6488197,52.5589465 C60.1723898,53.7180356 60.7593742,54.8478149 61.407144,55.943224 C62.3962022,57.5807784 62.6159946,57.0349277 62.3962022,57.7991252 C62.2596116,58.2290083 62.3885126,58.6985275 62.7258883,59 C62.7258883,59 64.7040049,56.8165926 66.6821215,58.0174674 C66.8235344,57.708759 66.8983999,57.3740855 66.9019114,57.0349347 C66.9019114,56.4890817 67.2315975,55.943231 66.6821215,55.6157202 C66.1326455,55.2882093 67.0118076,53.8689971 66.1326455,53.1048042 C65.2534833,52.3406114 65.1435872,52.4497825 65.253481,51.6855897 C65.3047836,51.1659881 65.2293959,50.641754 65.033691,50.1572063 L58.2201862,34 Z" id="Path" fill="#D0CDE1"></path>
                <path d="M65,20 C65,20 63.1818179,24.9466681 58.7272729,27 L58,22.6133322 L65,20 Z" id="Path" fill="#2F2E41"></path>
                <ellipse id="Oval" fill="#A0616A" cx="67.5" cy="23.5" rx="1" ry="1.5"></ellipse>
                <circle id="Oval" fill="#2F2E41" cx="190.5" cy="76.5" r="7.5"></circle>
                <circle id="Oval" fill="#2F2E41" cx="189.5" cy="66.5" r="2.5"></circle>
                <path d="M186.882265,67.9073249 C186.129974,67.0342041 186.216996,65.7778368 187.08364,65 C187.017793,65.0390592 186.953489,65.0814515 186.890728,65.127177 C186.231564,65.6098477 185.901816,66.3800152 186.025699,67.1475648 C186.149581,67.9151143 186.708272,68.563437 187.491319,68.8483158 C188.274365,69.1331947 189.162804,69.0113498 189.821968,68.5286791 C189.884591,68.4828246 189.943935,68.4346767 190,68.3842351 C188.981996,68.986429 187.634702,68.7803375 186.882265,67.9073249 L186.882265,67.9073249 Z" id="Path" fill="#2F2E41"></path>
                <path d="M178.381654,104 L174.12684,107.932278 C174.12684,107.932278 167.744618,110.077157 170.853906,112.400773 C173.963193,114.72439 175.763307,109.540936 175.763307,109.540936 L181,105.966139 L178.381654,104 Z" id="Path" fill="#FFB9B9"></path>
                <path d="M187,88.3448282 L186.484374,88 C186.484374,88 184.421874,88 184.078124,90.0689668 C183.734373,92.1379337 182.703124,96.4482791 182.703124,96.4482791 C182.703124,96.4482791 179.265624,98.5172459 179.609375,102.310349 L176,105.4138 C176,105.4138 180.296876,106.793111 179.4375,108 L185.796869,102.13794 L185.968744,90.9310373 L187,88.3448282 Z" id="Path" fill="#2F2E41"></path>
                <circle id="Oval" fill="#FFB9B9" cx="189.5" cy="79.5" r="4.5"></circle>
                <path d="M187.272726,82.0606045 C187.272726,82.0606045 190.181818,85.1515136 188.363637,86.8686855 C186.545455,88.5858575 186,97 186,97 L194,85.4949484 C194,85.4949484 191.818182,81.3737347 192,80 L187.272726,82.0606045 Z" id="Path" fill="#FFB9B9"></path>
                <path d="M187.044775,94.5758655 C187.044775,94.5758655 191.16659,85.6190673 193.399242,85 L199.238481,86.4199155 C199.238481,86.4199155 194.601438,102.222066 195.116665,103.751306 C195.631893,105.280546 198.551513,107.489449 197.521057,120.91278 C197.521057,120.91278 210.745221,144.870878 207.482116,148.948853 C204.219011,153.026828 192.025303,156.085306 191.853561,154.895897 C191.681818,153.706489 186.186062,135.355606 187.044775,129.748391 C187.044775,129.748391 187.044775,154.046321 186.014319,154.556066 C184.983864,155.065811 168.496597,158.803957 169.011825,155.91539 C169.527053,153.026823 177.770686,121.252612 177.770686,121.252612 L184.125153,101.542405 L184.296896,98.6538335 C184.296896,98.6538335 181.549019,96.7847618 183.609927,92.5368733 C185.670836,88.2889849 186.357804,87.6093216 186.357804,87.6093216 L188.832047,87.1497655 C188.832047,87.1497655 186.529547,93.3864524 187.044775,94.5758655 Z" id="Path" fill="#2F2E41"></path>
                <path d="M196.825949,108 L194.821284,112.331625 C194.821284,112.331625 189.642569,117.829453 193.317787,117.996054 C196.993004,118.162655 197.327116,112.998027 197.327116,112.998027 L200,108 L196.825949,108 Z" id="Path" fill="#FFB9B9"></path>
                <path d="M196.939195,87.1046856 L199.185596,87.1046856 C199.185596,87.1046856 199.876798,86.1094449 200.568,90.2562836 C201.259202,94.4031222 200.913599,100.70632 200.913599,100.70632 L199.876805,109 C199.876805,109 196.248,107.673012 195.384,108.004759 C194.52,108.336507 195.384,107.838886 195.384,107.838886 L196.939202,102.199171 L195.038399,94.0713608 L196.939195,87.1046856 Z" id="Path" fill="#2F2E41"></path>
                <path d="M189.217407,72.3299789 C186.490425,73.1507586 184.63015,75.2446319 185.062366,77.0067755 C185.255758,77.7952359 185.876863,78.3820787 186.746902,78.7180136 L187.510316,77.6689596 L187.544988,78.9420186 C187.665751,78.9647976 187.788341,78.9851267 187.91465,79 L188.884535,76.7373726 L189.43753,78.9919368 C189.89191,78.938161 190.341692,78.8443051 190.782593,78.7112626 C193.509575,77.8904853 195.36985,75.7966096 194.937634,74.034466 C194.505418,72.2723225 191.944386,71.5091991 189.217407,72.3299789 Z" id="Path" fill="#2F2E41"></path>
                <ellipse id="Oval" fill="#FFB9B9" cx="193.5" cy="78" rx="1" ry="1"></ellipse>
                <ellipse id="Oval" fill="#2F2E41" cx="177" cy="156.5" rx="4" ry="1.5"></ellipse>
                <ellipse id="Oval" fill="#2F2E41" transform="translate(197.494355, 154.808063) rotate(-21.512950) translate(-197.494355, -154.808063) " cx="197.494355" cy="154.808063" rx="5.34627587" ry="2.34517602"></ellipse>
                <path d="M171.726515,110 C171.656574,109.982792 164.692443,108.209199 162.042454,101.164618 C159.021888,93.1353844 162.573092,81.8127268 172.597233,67.5113316 C184.840705,50.0435093 185.505494,44.1742479 183.907375,42.326432 C181.885716,39.9890968 175.541885,43.1540319 175.478364,43.1862669 L175.266476,42.766847 C175.540512,42.6282621 182.00152,39.4056234 184.262128,42.0186342 C186.74632,44.8901105 182.950889,53.5577695 172.98156,67.7811545 C167.549724,75.5309296 163.999208,82.4871749 162.429072,88.4565881 C161.155904,93.2961086 161.172872,97.5134971 162.479293,100.992078 C165.038013,107.804692 171.770307,109.526889 171.837954,109.543409 L171.726515,110 Z" id="Path" fill="#3F3D56"></path>
                <path d="M175,57 L117,57 L117,18 L175,18 L175,57 Z M117.462151,56.5243902 L174.537849,56.5243902 L174.537849,18.4756098 L117.462151,18.4756098 L117.462151,56.5243902 Z" id="Shape" fill="#3F3D56"></path>
                <circle id="Oval" fill="#3F3D56" cx="141.5" cy="40.5" r="2.5"></circle>
                <circle id="Oval" fill="#3F3D56" cx="161.5" cy="40.5" r="2.5"></circle>
                <path d="M163,50.271478 C163,50.9747079 158.075133,53 152,53 C145.924867,53 141,50.9747034 141,50.271478 C141,49.5682527 145.924867,50.4533798 152,50.4533798 C158.075133,50.4533798 163,49.5682482 163,50.271478 Z" id="Path" fill="#3F3D56"></path>
                <rect id="Rectangle" fill="#3F3D56" x="0" y="157" width="258" height="1"></rect>
            </g>
        </g>
    </g>
</svg>