<svg width="997" height="511" viewBox="0 0 997 511" fill="none" xmlns="http://www.w3.org/2000/svg">
<rect width="997" height="511" fill="white"/>
<g clip-path="url(#clip0_2805_30684)">
<path d="M671.181 240.939L641.623 247.787C639.337 248.317 636.934 247.935 634.925 246.721C632.916 245.507 631.459 243.558 630.865 241.287V241.287C630.52 239.971 630.477 238.593 630.741 237.258C631.004 235.922 631.567 234.664 632.386 233.577C633.205 232.489 634.259 231.602 635.47 230.98C636.681 230.359 638.017 230.02 639.378 229.988L667.929 229.324L671.181 240.939Z" fill="#FFB9B9"/>
<path d="M668.043 245.276L661.479 225.582L700.834 212.14L690.389 120.154C709.195 123.573 718.145 138.362 717.307 157.458L722.398 220.226L668.043 245.276Z" fill="#3F3D56"/>
<path d="M695.235 99.8737H759.533V67.8982C759.556 59.2624 756.172 50.9661 750.116 44.8097C747.159 41.7767 743.623 39.3674 739.718 37.7244C735.813 36.0815 731.619 35.2381 727.382 35.2441C718.922 35.2597 710.808 38.6045 704.794 44.5552C698.78 50.5059 695.35 58.5844 695.245 67.0441C695.24 67.3369 695.235 67.6151 695.235 67.8982L695.235 99.8737Z" fill="#2F2E41"/>
<path d="M786.418 475.63L765.864 473.271L741.267 307.158L690.389 473.945L668.15 474.619L693.421 269.42L689.715 222.585L752.723 202.705C797.35 233.858 796.427 343.893 786.418 475.63Z" fill="#2F2E41"/>
<path d="M721.725 93.5354C735.123 93.5354 745.985 82.6739 745.985 69.2755C745.985 55.877 735.123 45.0155 721.725 45.0155C708.326 45.0155 697.465 55.877 697.465 69.2755C697.465 82.6739 708.326 93.5354 721.725 93.5354Z" fill="#FFB9B9"/>
<path d="M745.984 113.078L704.877 123.86C711.803 110.541 714.019 98.1079 710.268 86.7966L739.245 82.0793C737.383 92.8953 739.799 104.012 745.984 113.078V113.078Z" fill="#FFB9B9"/>
<path d="M759.799 211.803C736.743 226.466 709.886 243.31 690.052 226.965L680.618 181.141C673.119 174.462 676.444 153.853 686.581 124.477C687.225 122.612 688.285 120.918 689.681 119.524C691.076 118.13 692.771 117.072 694.636 116.43L710.269 111.057C717.197 116.883 728.553 113.408 741.941 105.665L757.441 109.709L764.18 160.25C754.452 174.825 756.151 194.232 759.799 211.803Z" fill="#3F3D56"/>
<path d="M740.592 231.504L711.034 238.353C708.748 238.883 706.345 238.5 704.336 237.286C702.327 236.073 700.87 234.124 700.276 231.853C699.931 230.536 699.889 229.159 700.152 227.823C700.415 226.488 700.978 225.229 701.797 224.142C702.616 223.055 703.67 222.167 704.881 221.546C706.092 220.924 707.428 220.585 708.789 220.553L737.34 219.889L740.592 231.504Z" fill="#FFB9B9"/>
<path d="M782.845 507.389C779.393 508.964 776.502 499.2 773.59 502.061C765.445 510.065 745.906 508.271 745.906 508.271C745.25 508.06 744.644 507.719 744.124 507.266C743.604 506.814 743.181 506.261 742.881 505.641C742.581 505.021 742.41 504.346 742.378 503.658C742.347 502.969 742.455 502.282 742.697 501.636V501.636C742.987 500.864 743.46 500.174 744.075 499.625C744.69 499.076 745.43 498.685 746.23 498.485L754.891 496.319L768.492 472.401L783.314 470.525L783.688 471.138C786.554 475.756 788.401 480.932 789.108 486.321C789.814 491.709 789.363 497.187 787.784 502.388C786.551 506.337 784.873 506.463 782.845 507.389Z" fill="#2F2E41"/>
<path d="M685.131 507.389C681.679 508.964 678.788 499.2 675.876 502.061C667.731 510.065 648.192 508.271 648.192 508.271C647.536 508.06 646.93 507.719 646.41 507.266C645.89 506.814 645.467 506.261 645.167 505.641C644.867 505.021 644.696 504.346 644.665 503.658C644.633 502.969 644.741 502.282 644.983 501.636V501.636C645.273 500.864 645.746 500.174 646.361 499.625C646.976 499.076 647.716 498.685 648.516 498.485L657.178 496.319L670.778 472.401L685.6 470.525L685.975 471.138C688.84 475.756 690.688 480.932 691.394 486.321C692.1 491.709 691.649 497.187 690.07 502.388C688.837 506.337 687.16 506.463 685.131 507.389Z" fill="#2F2E41"/>
<path d="M750.165 49.0406L744.055 68.4802L691.229 67.5413C691.409 60.7399 693.71 54.1647 697.809 48.7342C701.908 43.3038 707.601 39.2893 714.092 37.2515C720.584 35.2138 727.55 35.2545 734.017 37.3681C740.484 39.4817 746.13 43.5625 750.165 49.0406H750.165Z" fill="#2F2E41"/>
<path d="M737.454 235.842L730.89 216.148L770.245 202.705L755.358 108.726C764.452 110.38 772.639 115.271 778.405 122.496C784.17 129.721 787.123 138.789 786.718 148.023L791.809 210.792L737.454 235.842Z" fill="#3F3D56"/>
<path d="M96.3349 510.34L71.2169 498.411L57.3389 445.155L57.6099 445.052L93.8109 460.325L96.3349 510.34Z" fill="#FFCD61"/>
<path d="M603 260L584.965 251.595L575 214.073L575.195 214L601.188 224.761L603 260Z" fill="#FFCD61"/>
<path opacity="0.2" d="M96.9655 509.731L77.8595 473.117L80.3135 462.738L68.7565 449.128L67.7725 449.964L78.9065 463.076L70.5895 498.262L71.8465 498.559L77.4055 475.039L95.8205 510.329L96.9655 509.731Z" fill="black"/>
<path d="M108.785 434.768L95.4902 439.433L95.9177 440.651L109.213 435.986L108.785 434.768Z" fill="#CCCCCC"/>
<path d="M612.387 206.146L602.853 209.491L603.159 210.365L612.693 207.019L612.387 206.146Z" fill="#CCCCCC"/>
<path d="M36 507.786H9L5 455.786H40L36 507.786Z" fill="#FFCD61"/>
<path d="M40.5 476.786H4.5V484.786H40.5V476.786Z" fill="#E6E6E6"/>
<path d="M42 452.786H36L35.333 450.786H8.667L8 452.786H2L0 458.786H44L42 452.786Z" fill="#3F3D56"/>
</g>
<path d="M499 468H94V469H499V468Z" fill="#3F3D56"/>
<path d="M308.181 230.752C308.181 230.752 299.457 270.173 316.906 263.165C334.355 256.157 323.885 229 323.885 229L308.181 230.752Z" fill="#FFB9B9"/>
<path d="M468.786 244C468.786 244 489.827 268.351 476.676 273.389C463.526 278.427 456.512 250.718 458.266 248.198C460.019 245.679 468.786 244 468.786 244Z" fill="#FFB9B9"/>
<path d="M420 67C434.359 67 446 55.5833 446 41.5C446 27.4167 434.359 16 420 16C405.641 16 394 27.4167 394 41.5C394 55.5833 405.641 67 420 67Z" fill="#FFB9B9"/>
<path d="M400.5 51L397 77.6746L425.875 88L432 57.8834L400.5 51Z" fill="#FFB9B9"/>
<path d="M416.485 78.0133C416.485 78.0133 401.923 70.841 398.896 65L392.434 71.1572C392.434 71.1572 346.048 66.8721 339.176 90.0115C332.304 113.151 338.317 197.138 338.317 197.138C338.317 197.138 328.868 234.847 331.445 235.704C334.022 236.561 365.805 251.987 410.472 243.417C410.472 243.417 430.229 239.989 433.665 242.56C437.101 245.131 431.947 201.423 431.947 201.423C431.947 201.423 466.307 124.292 460.294 114.865C454.281 105.438 427.652 85.7264 427.652 85.7264L429.37 76.2993C429.37 76.2993 417.344 81.4414 416.485 78.0133Z" fill="#CFCCE0"/>
<path d="M345.507 83C345.507 83 330.329 90.7727 327.799 102.864C325.27 114.955 301.66 215.136 304.189 221.182C306.719 227.227 305.876 235 305.876 235L327.799 232.409C327.799 232.409 323.583 226.364 326.113 223.773C328.642 221.182 331.172 212.545 329.486 209.091C327.799 205.636 326.113 211.682 335.388 200.455C344.663 189.227 365.743 86.4546 345.507 83Z" fill="#CFCCE0"/>
<path d="M455.26 113C455.26 113 462.609 113.429 464.338 125.441C466.068 137.454 469.094 211.673 469.094 211.673C469.094 211.673 480.333 235.698 476.01 239.13C471.687 242.562 474.281 247.71 474.281 247.71L458.719 252L425 199.661L455.26 113Z" fill="#CFCCE0"/>
<path d="M333.66 232C333.66 232 328.473 232.863 328.473 251.855C328.473 270.848 318.963 329.551 325.015 339.047C331.067 348.543 331.931 434.008 331.931 434.008C331.931 434.008 348.358 440.914 362.191 418.469L363.92 406.383L367.378 347.68L381.211 274.301L400.231 355.449C400.231 355.449 397.637 453 407.147 453C416.657 453 434.813 445.23 434.813 445.23C434.813 445.23 439.135 436.598 437.406 432.281C435.677 427.965 433.948 428.828 435.677 425.375C437.406 421.922 440 332.141 440 332.141C440 332.141 436.542 239.77 432.219 237.18C427.896 234.59 333.66 232 333.66 232Z" fill="#2F2E41"/>
<path d="M333.987 429.892L320.201 444.652C320.201 444.652 295.215 468.095 316.755 468.963C338.295 469.831 350.357 455.071 350.357 453.335C350.357 451.598 351.219 445.52 357.25 445.52C363.281 445.52 377.928 430.76 374.482 424.682C371.035 418.605 360.696 416 360.696 416L333.987 429.892Z" fill="#2F2E41"/>
<path d="M407.255 448.74C407.255 448.74 396.819 469.629 402.907 473.981C408.995 478.333 410.734 480.074 410.734 480.074C410.734 480.074 415.952 479.204 415.082 487.037C414.213 494.871 446.391 499.223 448.13 493.13C449.87 487.037 449 474.852 445.521 471.37C442.043 467.889 431.606 443.518 431.606 443.518C431.606 443.518 420.3 430.462 407.255 448.74Z" fill="#2F2E41"/>
<path d="M446.121 20.6631L451 19.9714C451 19.9714 444.207 7.49391 431.06 5.22824L435.675 2.11962C435.675 2.11962 427.656 -3.60002 417.291 3.75187C411.843 7.61657 405.517 12.1785 400.864 17.9204L396.104 16.7595L397.022 21.6095L389 24.2791L396.329 25.2356C395.318 27.5225 394.655 29.9471 394.362 32.4294C394.078 34.9146 394.772 37.4128 396.299 39.3967C396.299 39.3967 404.599 29.3545 405.034 27.5787L403.947 32.0181C403.947 32.0181 409.37 29.1067 410.022 26.443L411.685 30.1419L414.093 25.5541L427.848 34.0839L426.402 29.4971L435.369 33.0955L432.928 27.3251C432.928 27.3251 442.02 35.6587 441.228 40.6408C440.436 45.6227 442.378 51 442.378 51C442.378 51 456.207 30.1802 446.121 20.6631Z" fill="#2F2E41"/>
<path d="M169 440H136V474H169V440Z" fill="#CFCCE0"/>
<path d="M656 210H632V234H656V210Z" fill="#CFCCE0"/>
<path d="M165 469H130V434H165V469ZM131.75 467.25H163.25V435.75H131.75L131.75 467.25Z" fill="#3F3D56"/>
<path d="M653 231H628V206H653V231ZM629.25 229.75H651.75V207.25H629.25L629.25 229.75Z" fill="#3F3D56"/>
<path d="M205.692 149.942L184.669 158.073L192.518 178.368L213.541 170.237L205.692 149.942Z" fill="#F2F2F2"/>
<path d="M210 168.419L188.156 177L180 155.581L201.844 147L210 168.419ZM188.84 175.5L208.5 167.777L201.16 148.5L181.5 156.223L188.84 175.5Z" fill="#3F3D56"/>
<path d="M591.991 397.354L584.663 376.038L564.085 383.113L571.414 404.428L591.991 397.354Z" fill="#F2F2F2"/>
<path d="M573.616 401L566 378.476L587.384 371L595 393.524L573.616 401ZM567.45 379.228L574.304 399.5L593.55 392.772L586.696 372.5L567.45 379.228Z" fill="#3F3D56"/>
<path d="M123.689 291.006C136.115 291.279 146 300.494 146 300.494C146 300.494 135.738 309.267 123.311 308.994C110.885 308.721 101 299.506 101 299.506C101 299.506 111.262 290.733 123.689 291.006Z" fill="#FFCD61"/>
<path d="M623.134 103.005C631.971 103.201 639 109.857 639 109.857C639 109.857 631.702 116.193 622.866 115.995C614.029 115.798 607 109.143 607 109.143C607 109.143 614.298 102.807 623.134 103.005Z" fill="#FFCD61"/>
<path d="M61.6956 249.18C73.0175 254.339 86 250.841 86 250.841C86 250.841 80.6262 238.978 69.3044 233.82C57.9825 228.661 45 232.159 45 232.159C45 232.159 50.3738 244.022 61.6956 249.18Z" fill="#FFCD61"/>
<path d="M578.809 72.986C586.817 76.6709 596 74.1721 596 74.1721C596 74.1721 592.199 65.6989 584.191 62.014C576.183 58.3291 567 60.8279 567 60.8279C567 60.8279 570.801 69.3011 578.809 72.986Z" fill="#FFCD61"/>
<path d="M62.6968 244.113C75.1232 242.965 86 250.921 86 250.921C86 250.921 76.7296 260.738 64.3032 261.887C51.8768 263.035 41 255.079 41 255.079C41 255.079 50.2704 245.262 62.6968 244.113Z" fill="#3F3D56"/>
<path d="M579.429 69.0818C588.265 68.2526 596 73.9985 596 73.9985C596 73.9985 589.408 81.0889 580.571 81.9182C571.735 82.7474 564 77.0016 564 77.0016C564 77.0016 570.592 69.9111 579.429 69.0818Z" fill="#3F3D56"/>
<path d="M108.118 245.657C106.981 258.084 114.442 269 114.442 269C114.442 269 123.746 259.769 124.882 247.343C126.019 234.916 118.558 224 118.558 224C118.558 224 109.254 233.231 108.118 245.657Z" fill="#3F3D56"/>
<path d="M612.083 70.4007C611.281 79.2372 616.548 87 616.548 87C616.548 87 623.115 80.4359 623.917 71.5993C624.719 62.7628 619.452 55 619.452 55C619.452 55 612.885 61.5642 612.083 70.4007Z" fill="#3F3D56"/>
<path d="M165.581 321.454C159.157 331.947 161.367 345 161.367 345C161.367 345 173.994 341.04 180.419 330.546C186.843 320.053 184.633 307 184.633 307C184.633 307 172.006 310.96 165.581 321.454Z" fill="#3F3D56"/>
<path d="M147.093 436L148.035 435.363C144.713 430.545 142.899 424.848 142.824 418.997C142.85 410.438 147.057 402.521 151.125 394.865C151.88 393.444 152.633 392.027 153.357 390.612C156.396 384.839 158.817 378.763 160.582 372.483C166.892 349.047 160.679 321.397 143.964 298.518C130.703 280.369 110.936 264.499 83.5321 250L83 251.005C110.247 265.421 129.888 281.182 143.045 299.189C159.56 321.792 165.705 349.081 159.483 372.188C157.739 378.391 155.346 384.393 152.344 390.095C151.622 391.505 150.872 392.916 150.12 394.332C145.987 402.11 141.714 410.153 141.686 418.994C141.762 425.073 143.643 430.992 147.093 436V436Z" fill="#3F3D56"/>
<path d="M639.666 207L640.338 206.545C637.971 203.099 636.678 199.026 636.625 194.842C636.643 188.722 639.64 183.061 642.539 177.586C643.077 176.57 643.613 175.557 644.129 174.545C646.294 170.417 648.02 166.072 649.277 161.582C653.773 144.824 649.347 125.052 637.437 108.693C627.988 95.7156 613.904 84.3674 594.379 74L594 74.7185C613.414 85.0267 627.408 96.2969 636.782 109.173C648.549 125.335 652.927 144.848 648.494 161.371C647.252 165.806 645.547 170.098 643.408 174.175C642.893 175.183 642.359 176.193 641.823 177.205C638.878 182.767 635.833 188.518 635.814 194.839C635.868 199.186 637.208 203.419 639.666 207V207Z" fill="#3F3D56"/>
<path d="M29.5 252C35.299 252 40 247.299 40 241.5C40 235.701 35.299 231 29.5 231C23.701 231 19 235.701 19 241.5C19 247.299 23.701 252 29.5 252Z" fill="#3F3D56"/>
<path d="M555.5 75C559.642 75 563 71.6421 563 67.5C563 63.3579 559.642 60 555.5 60C551.358 60 548 63.3579 548 67.5C548 71.6421 551.358 75 555.5 75Z" fill="#3F3D56"/>
<path d="M288.151 468L180 467.942L180.849 407L234.597 431.247L289 408.518L288.151 468Z" fill="#3F3D56"/>
<path d="M204.334 440.595L188.486 440.373L188.398 446.712L204.245 446.934L204.334 440.595Z" fill="#FFCD61"/>
<path d="M290 408.636L234.729 437L180 408.636V407H290V408.636Z" fill="#FFCD61"/>
<g filter="url(#filter0_dd_2805_30684)">
<path d="M461.238 131.624L475.908 138.123C479.864 139.876 484.472 139.24 487.804 136.48L500.162 126.245C503.459 123.515 508.306 123.802 511.259 126.901L522.325 138.52C525.309 141.653 529.809 142.828 533.944 141.554L549.278 136.828C553.369 135.567 557.738 137.687 559.279 141.68L565.057 156.65C566.615 160.686 570.323 163.494 574.63 163.899L590.606 165.401C594.868 165.801 598.093 169.431 597.988 173.711L597.598 189.752C597.492 194.077 599.843 198.09 603.669 200.113L617.853 207.614C621.637 209.615 623.227 214.203 621.494 218.117L614.994 232.787C613.241 236.743 613.878 241.35 616.638 244.683L626.872 257.041C629.602 260.338 629.316 265.185 626.216 268.137L614.597 279.204C611.464 282.188 610.289 286.688 611.563 290.823L616.29 306.157C617.55 310.248 615.431 314.616 611.437 316.158L596.468 321.935C592.431 323.493 589.623 327.201 589.218 331.509L587.717 347.484C587.316 351.746 583.686 354.971 579.407 354.867L563.366 354.476C559.04 354.371 555.027 356.722 553.004 360.547L545.504 374.732C543.503 378.516 538.914 380.106 535.001 378.372L520.33 371.872C516.374 370.12 511.767 370.756 508.435 373.516L496.077 383.751C492.78 386.481 487.932 386.194 484.98 383.095L473.914 371.476C470.93 368.342 466.429 367.168 462.295 368.442L446.961 373.168C442.87 374.429 438.501 372.309 436.96 368.316L431.182 353.346C429.624 349.31 425.916 346.502 421.608 346.097L405.633 344.595C401.371 344.195 398.146 340.564 398.25 336.285L398.641 320.244C398.747 315.918 396.395 311.906 392.57 309.883L378.386 302.382C374.602 300.381 373.011 295.793 374.745 291.879L381.245 277.209C382.998 273.253 382.361 268.646 379.601 265.313L369.367 252.955C366.637 249.658 366.923 244.811 370.023 241.859L381.642 230.792C384.775 227.808 385.95 223.308 384.675 219.173L379.949 203.839C378.688 199.748 380.808 195.38 384.802 193.838L399.771 188.061C403.808 186.503 406.615 182.795 407.02 178.487L408.522 162.512C408.923 158.25 412.553 155.025 416.832 155.129L432.873 155.52C437.199 155.625 441.212 153.274 443.234 149.449L450.735 135.264C452.736 131.48 457.324 129.89 461.238 131.624Z" fill="#000638" stroke="black" stroke-width="3.25898"/>
<path d="M428.504 285.412L433.468 283.691L427.336 266.002L444.41 279.899L450.773 277.693L442.29 253.222L437.326 254.942L443.458 272.632L426.384 258.735L420.021 260.941L428.504 285.412ZM458.824 254.383C453.091 256.37 450.642 261.957 452.471 267.236C454.301 272.515 459.683 275.388 465.416 273.401C471.15 271.413 473.599 265.826 471.769 260.547C469.939 255.268 464.558 252.396 458.824 254.383ZM464.032 269.181C461.095 270.199 458.152 268.713 457.086 265.637C456.02 262.56 457.412 259.572 460.348 258.554C463.18 257.572 466.088 259.07 467.154 262.147C468.209 265.188 466.864 268.2 464.032 269.181ZM487.837 256.309C488.722 258.861 487.939 260.895 485.526 261.731C483.079 262.579 481.205 261.467 480.321 258.915L476.855 248.916L472.38 250.467L475.773 260.256C477.603 265.535 481.771 267.732 486.945 265.938C492.119 264.145 494.069 259.827 492.239 254.548L488.846 244.76L484.371 246.311L487.837 256.309ZM491.517 243.834L504.022 259.236L509.86 257.212L510.185 237.363L505.396 239.023L505.214 253.184L496.272 242.186L491.517 243.834ZM534.112 245.595L530.058 244.181C529.55 245.767 528.163 247.187 526.24 247.854C523.479 248.811 520.991 248.185 519.432 245.045L531.773 240.767C531.707 240.124 531.531 239.167 531.192 238.188C529.593 233.573 525.225 231.367 520.331 233.064C514.562 235.063 512.767 240.502 514.572 245.711C516.354 250.85 521.399 253.996 527.657 251.827C530.978 250.676 533.232 248.367 534.112 245.595ZM521.486 236.736C523.968 235.875 525.88 237.21 526.568 238.969L518.457 241.78C518.147 239.303 519.214 237.523 521.486 236.736ZM544.037 245.954C546.099 245.239 547.894 243.638 548.54 241.887L549.134 243.6L553.573 242.061L549.623 230.664C548.278 226.783 544.602 224.651 539.498 226.42C536.282 227.535 534.155 229.76 533.333 232.473L537.445 233.828C537.94 232.207 538.99 230.943 540.703 230.349C542.731 229.646 544.541 230.35 545.183 232.203L545.341 232.657L540.272 235.432C536.715 237.37 535.343 240.078 536.264 242.735C537.391 245.986 540.506 247.178 544.037 245.954ZM540.596 240.998C540.22 239.915 540.723 238.879 542.466 237.922L546.419 235.769L547.28 238.251C546.89 239.952 545.749 241.405 543.722 242.108C542.218 242.629 541.008 242.187 540.596 240.998ZM567.623 228.654C568.507 231.206 567.724 233.24 565.312 234.076C562.865 234.924 560.991 233.812 560.106 231.259L556.641 221.261L552.166 222.812L555.559 232.601C557.388 237.88 561.557 240.077 566.731 238.283C571.905 236.49 573.854 232.172 572.025 226.893L568.632 217.105L564.157 218.656L567.623 228.654Z" fill="white"/>
</g>
<defs>
<filter id="filter0_dd_2805_30684" x="309" y="73.8785" width="378.239" height="378.239" filterUnits="userSpaceOnUse" color-interpolation-filters="sRGB">
<feFlood flood-opacity="0" result="BackgroundImageFix"/>
<feColorMatrix in="SourceAlpha" type="matrix" values="0 0 0 0 0 0 0 0 0 0 0 0 0 0 0 0 0 0 127 0" result="hardAlpha"/>
<feOffset dy="8"/>
<feGaussianBlur stdDeviation="8"/>
<feColorMatrix type="matrix" values="0 0 0 0 0 0 0 0 0 0 0 0 0 0 0 0 0 0 0.1 0"/>
<feBlend mode="normal" in2="BackgroundImageFix" result="effect1_dropShadow_2805_30684"/>
<feColorMatrix in="SourceAlpha" type="matrix" values="0 0 0 0 0 0 0 0 0 0 0 0 0 0 0 0 0 0 127 0" result="hardAlpha"/>
<feMorphology radius="16" operator="erode" in="SourceAlpha" result="effect2_dropShadow_2805_30684"/>
<feOffset dy="16"/>
<feGaussianBlur stdDeviation="8"/>
<feColorMatrix type="matrix" values="0 0 0 0 0 0 0 0 0 0 0 0 0 0 0 0 0 0 0.32 0"/>
<feBlend mode="normal" in2="effect1_dropShadow_2805_30684" result="effect2_dropShadow_2805_30684"/>
<feBlend mode="normal" in="SourceGraphic" in2="effect2_dropShadow_2805_30684" result="shape"/>
</filter>
<clipPath id="clip0_2805_30684">
<rect width="996.312" height="510.676" fill="white"/>
</clipPath>
</defs>
</svg>
