<svg id="ed15083a-efbd-40a8-bcf0-5dc6fb1adb49" data-name="Layer 1" xmlns="http://www.w3.org/2000/svg" width="880.44024" height="572.99471" viewBox="0 0 880.44024 572.99471"><path d="M980.86736,471.84424l-2.32781,31.81339a7.08623,7.08623,0,0,1-6.596,6.55343h0a7.08624,7.08624,0,0,1-7.55561-7.23923l.74113-31.12759,27.38508-87.834-3.31475-53.81064,25.92189-.92579-1.85156,62.02739Z" transform="translate(-159.77988 -163.50264)" fill="#a0616a"/><path d="M1020.47777,340.20392c-11.56052-2.66659-21.45679.44149-29.13357,11.25093l-5.94381-44.96278a11.80857,11.80857,0,0,1,8.8674-12.66615h0a11.80858,11.80858,0,0,1,14.14588,7.918Z" transform="translate(-159.77988 -163.50264)" fill="#5ca0ff"/><path d="M1021.84212,287.42953c-26.71326-11.36205-54.156-4.16317-86.64948.83314-.30237-6.05058-3.96748-13.41437-.12824-17.63559,4.66434-5.12838,4.235-10.51682,1.42819-15.93633-7.17737-13.85855,3.1058-28.60476,13.48865-40.86608a22.99491,22.99491,0,0,1,19.19245-8.05553l19.23339,1.37382c9.58418.68458,11.9075,7.24667,14.624,16.46327v0c4.59254,6.246,7.05057,12.47466,5.503,18.67092,6.8789,4.70093,8.03463,10.37545,4.94352,16.77246-2.62113,4.02778-2.59322,7.94847.11925,11.76065a54.29814,54.29814,0,0,1,8.07332,16.03577Z" transform="translate(-159.77988 -163.50264)" fill="#2f2e41"/><polygon points="766.709 538.607 753.931 538.607 746.342 433.068 778.744 432.142 766.709 538.607" fill="#a0616a"/><path d="M927.41471,736.36384c-3.40716,1.555-6.26111-11.04355-9.13511-8.21923-8.039,7.9-27.32392,6.12918-27.32392,6.12918a5.02522,5.02522,0,0,1-3.16744-6.5486h0a5.02523,5.02523,0,0,1,3.48646-3.11071l8.54944-2.13736L913.248,698.86968l13.70383-.92579h0a32.74,32.74,0,0,1,6.05529,27.92984C931.76357,730.94944,929.84376,735.25524,927.41471,736.36384Z" transform="translate(-159.77988 -163.50264)" fill="#2f2e41"/><polygon points="851.79 538.607 839.011 538.607 831.422 433.068 864.75 426.588 851.79 538.607" fill="#a0616a"/><path d="M1012.4952,736.36384c-3.40716,1.555-6.26111-11.04355-9.13511-8.21923-8.039,7.9-27.32392,6.12918-27.32392,6.12918a5.02522,5.02522,0,0,1-3.16744-6.5486h0a5.02523,5.02523,0,0,1,3.48646-3.11071l8.54944-2.13736,13.42384-23.60743,14.62962-1.85157.3695.60429a37.72074,37.72074,0,0,1,4.04225,30.84406C1016.15321,732.36474,1014.49716,735.45016,1012.4952,736.36384Z" transform="translate(-159.77988 -163.50264)" fill="#2f2e41"/><path d="M1040.22012,601.33747c-20.65185,9.13751-33.02167-.75212-54.04423,2.23721-6.0029.85359-13.07277-87.41626-19.10493-87.04783-7.67834.469-14.328,89.42684-22.05292,89.12291a255.4193,255.4193,0,0,1-57.412-9.079c20.01927-77.64425,43.65731-147.8517,43.51175-205.52358l60.05615-4.62891,8.2674,13.10686c13.25431,31.09711,26.794,65.63208,33.54054,101.7744Z" transform="translate(-159.77988 -163.50264)" fill="#2f2e41"/><circle cx="800.96298" cy="80.34522" r="27.77346" fill="#a0616a"/><polygon points="831.514 129.412 797.26 131.263 791.705 100.712 819.479 96.084 831.514 129.412" fill="#a0616a"/><path d="M993.95134,391.04719l-43.88741,1.05708-18.94609,2.646c-9.3-30.72015-17.12931-61.36989,1.85157-87.0235l22.21876-22.21876,33.32815-.92579.44148.25228a26.83849,26.83849,0,0,1,12.29635,31.22376C992.98347,342.93461,994.0318,368.31431,993.95134,391.04719Z" transform="translate(-159.77988 -163.50264)" fill="#5ca0ff"/><path d="M992.27126,243.70774a33.769,33.769,0,0,0-8.5391-22.49055v-9.86514H953.61549a17.487,17.487,0,0,0-17.4871,17.487v.00006h20.0743c-5.41348,9.96469-7.74785,20.41223-2.535,30.47731,3.14459,6.07209,3.28429,18.13491-1.02368,23.927a59.67311,59.67311,0,0,0,6.80053,0c9.30378,0,34.677,1.21023,40.80323-4.85753C1006.45154,272.24133,992.27126,253.12928,992.27126,243.70774Z" transform="translate(-159.77988 -163.50264)" fill="#2f2e41"/><path d="M945.57144,474.75759H767.66a4.253,4.253,0,0,0-4.24053,4.24053V665.74053a4.253,4.253,0,0,0,4.24053,4.24053H945.57144a4.253,4.253,0,0,0,4.24053-4.24053V478.99812A4.253,4.253,0,0,0,945.57144,474.75759Z" transform="translate(-159.77988 -163.50264)" fill="#e6e6e6"/><path d="M941.33091,480.05825H771.90055a3.19214,3.19214,0,0,0-3.1804,3.1804V661.5a3.18976,3.18976,0,0,0,3.1804,3.1804H941.33091a3.18976,3.18976,0,0,0,3.1804-3.1804V483.23865A3.18976,3.18976,0,0,0,941.33091,480.05825Z" transform="translate(-159.77988 -163.50264)" fill="#fff"/><path d="M930.19206,477.1449l-2.32781,31.81339a7.08626,7.08626,0,0,1-6.596,6.55344h0a7.08626,7.08626,0,0,1-7.55562-7.23923l.74114-31.1276,23.14455-87.94928.92578-53.69535,25.92189-.92578-1.85156,62.02739Z" transform="translate(-159.77988 -163.50264)" fill="#a0616a"/><path d="M967.22334,339.2034c-10.99019-4.469-21.25451-2.97235-30.55081,6.48047l1.27359-45.336A11.80858,11.80858,0,0,1,948.71285,289.251h0a11.80858,11.80858,0,0,1,12.70858,10.06446Z" transform="translate(-159.77988 -163.50264)" fill="#5ca0ff"/><path d="M928.75827,525.14984a1.82639,1.82639,0,0,1,1.82639,1.82639V530.629a1.82639,1.82639,0,0,1-1.82639,1.82639H784.47319a1.82637,1.82637,0,0,1-1.82639-1.82639v-3.65279a1.82637,1.82637,0,0,1,1.82639-1.82639H928.75827" transform="translate(-159.77988 -163.50264)" fill="#e6e6e6"/><path d="M928.75827,542.50057a1.8264,1.8264,0,0,1,1.82639,1.8264v3.65278a1.8264,1.8264,0,0,1-1.82639,1.8264H784.47319a1.82638,1.82638,0,0,1-1.82639-1.8264V544.327a1.82638,1.82638,0,0,1,1.82639-1.8264H928.75827" transform="translate(-159.77988 -163.50264)" fill="#e6e6e6"/><path d="M928.75827,559.85131a1.82641,1.82641,0,0,1,1.82639,1.82639v3.65279a1.82641,1.82641,0,0,1-1.82639,1.82639H784.47319a1.82639,1.82639,0,0,1-1.82639-1.82639V561.6777a1.82639,1.82639,0,0,1,1.82639-1.82639H928.75827" transform="translate(-159.77988 -163.50264)" fill="#5ca0ff"/><path d="M928.75827,577.58177a1.82639,1.82639,0,0,1,1.82639,1.82639V583.061a1.82639,1.82639,0,0,1-1.82639,1.82639H784.47319a1.82637,1.82637,0,0,1-1.82639-1.82639v-3.65279a1.82637,1.82637,0,0,1,1.82639-1.82639H928.75827" transform="translate(-159.77988 -163.50264)" fill="#e6e6e6"/><path d="M928.75827,594.9325a1.8264,1.8264,0,0,1,1.82639,1.8264v3.65278a1.8264,1.8264,0,0,1-1.82639,1.8264H784.47319a1.82638,1.82638,0,0,1-1.82639-1.8264V596.7589a1.82638,1.82638,0,0,1,1.82639-1.8264H928.75827" transform="translate(-159.77988 -163.50264)" fill="#e6e6e6"/><path d="M928.75827,612.28324a1.82641,1.82641,0,0,1,1.82639,1.82639v3.65279a1.82641,1.82641,0,0,1-1.82639,1.82639H784.47319a1.82639,1.82639,0,0,1-1.82639-1.82639v-3.65279a1.82639,1.82639,0,0,1,1.82639-1.82639H928.75827" transform="translate(-159.77988 -163.50264)" fill="#e6e6e6"/><path d="M292.00616,697.14952l-14.1671.78706-32.26951-217.2289L215.2677,697.54305,199.92,694.00127c-8.52278-93.471-19.61946-190.08537-11.80592-232.18306H295.94147C311.95382,503.66543,301.26528,601.91751,292.00616,697.14952Z" transform="translate(-159.77988 -163.50264)" fill="#2f2e41"/><path d="M203.865,736.48059h0A12.684,12.684,0,0,1,192.1982,720.7815l6.44678-26.19c5.38915-6.69584,10.21327-6.40252,14.544,0l4.42643-1.8974,3.16173,22.76485-4.36058,12.73921A12.684,12.684,0,0,1,203.865,736.48059Z" transform="translate(-159.77988 -163.50264)" fill="#2f2e41"/><path d="M289.63531,736.48059h0a12.684,12.684,0,0,0,11.66675-15.69908l-6.44677-26.19c-5.38915-6.69584-10.21327-6.40252-14.544,0l-4.42643-1.8974-3.16174,22.76485,4.36058,12.73921A12.684,12.684,0,0,0,289.63531,736.48059Z" transform="translate(-159.77988 -163.50264)" fill="#2f2e41"/><circle cx="88.93792" cy="44.88185" r="31.48245" fill="#ffb8b8"/><polygon points="107.827 103.124 67.687 103.124 70.048 61.41 107.827 61.41 107.827 103.124" fill="#ffb8b8"/><path d="M310.10857,466.54058H182.60465c18.59029-62.68378,15.32214-129.83431,1.57413-199.12649l34.63069-11.01886,9.44474-7.87061c11.852,14.43479,24.95729,14.31554,39.35306-.78706l11.80592,8.65767,34.63069,11.80592C295.77795,334.96019,292.80706,401.13655,310.10857,466.54058Z" transform="translate(-159.77988 -163.50264)" fill="#5ca0ff"/><path d="M215.09338,200.24985a28.49042,28.49042,0,0,1,1.932-23.14887c3.84718-6.82268,11.256-13.21824,25.49918-13.579,31.07612-.78707,44.54244,22.64392,42.79158,29.51479s-8.015,23.21831-8.015,23.21831,3.88452-15.74123-3.88451-17.31535-37.874-7.87061-46.61419-.78706a17.7641,17.7641,0,0,0-6.7979,16.52829Z" transform="translate(-159.77988 -163.50264)" fill="#2f2e41"/><path d="M342.35591,475.81772H164.44449a4.27139,4.27139,0,0,0-4.24053,4.24053V666.80066a4.253,4.253,0,0,0,4.24053,4.24053H342.35591a4.253,4.253,0,0,0,4.24053-4.24053V480.05825A4.253,4.253,0,0,0,342.35591,475.81772Z" transform="translate(-159.77988 -163.50264)" fill="#e6e6e6"/><path d="M338.11538,481.11839H168.685a3.18975,3.18975,0,0,0-3.1804,3.18039V662.56013a3.18976,3.18976,0,0,0,3.1804,3.1804H338.11538a3.18976,3.18976,0,0,0,3.1804-3.1804V484.29878A3.18975,3.18975,0,0,0,338.11538,481.11839Z" transform="translate(-159.77988 -163.50264)" fill="#fff"/><path d="M305.9801,491.03926h0A12.89271,12.89271,0,0,1,298.7897,473.975l10.53181-24.74975-1.57412-78.70612L302.238,343.759l28.3342-11.01886,5.50943,36.99188L325.8498,454.73466l-2.359,25.47722A12.89271,12.89271,0,0,1,305.9801,491.03926Z" transform="translate(-159.77988 -163.50264)" fill="#ffb8b8"/><path d="M189.88137,491.03926h0a12.89271,12.89271,0,0,0,7.19037-17.06427L186.54,449.22523l1.57412-78.70612,5.50943-26.76008-28.3342-11.01886-5.50943,36.99188,10.23179,85.00261,2.359,25.47722A12.8927,12.8927,0,0,0,189.88137,491.03926Z" transform="translate(-159.77988 -163.50264)" fill="#ffb8b8"/><path d="M332.93335,335.10135a100.46691,100.46691,0,0,0-31.48245,14.1671l-7.08355-21.25065,18.10241-60.60371h0a25.85716,25.85716,0,0,1,17.62874,22.897A246.55367,246.55367,0,0,0,332.93335,335.10135Z" transform="translate(-159.77988 -163.50264)" fill="#5ca0ff"/><path d="M162.92812,335.10135a100.4668,100.4668,0,0,1,31.48245,14.1671l7.08355-21.25065L185.7529,266.627h0c-9.99071,3.33024-19.32468,13.1739-19.98991,23.684A246.55459,246.55459,0,0,1,162.92812,335.10135Z" transform="translate(-159.77988 -163.50264)" fill="#5ca0ff"/><path d="M325.54274,525.22514a1.82639,1.82639,0,0,1,1.82639,1.82639v3.65279a1.82639,1.82639,0,0,1-1.82639,1.82639H181.25766a1.82637,1.82637,0,0,1-1.82639-1.82639v-3.65279a1.82637,1.82637,0,0,1,1.82639-1.82639H325.54274" transform="translate(-159.77988 -163.50264)" fill="#e6e6e6"/><path d="M325.54274,542.57587a1.8264,1.8264,0,0,1,1.82639,1.8264v3.65278a1.8264,1.8264,0,0,1-1.82639,1.8264H181.25766a1.82638,1.82638,0,0,1-1.82639-1.8264v-3.65278a1.82638,1.82638,0,0,1,1.82639-1.8264H325.54274" transform="translate(-159.77988 -163.50264)" fill="#e6e6e6"/><path d="M325.54274,559.92661a1.82641,1.82641,0,0,1,1.82639,1.8264v3.65278a1.82641,1.82641,0,0,1-1.82639,1.8264H181.25766a1.8264,1.8264,0,0,1-1.82639-1.8264V561.753a1.8264,1.8264,0,0,1,1.82639-1.8264H325.54274" transform="translate(-159.77988 -163.50264)" fill="#5ca0ff"/><path d="M325.54274,577.65707a1.82639,1.82639,0,0,1,1.82639,1.82639v3.65279a1.82639,1.82639,0,0,1-1.82639,1.82639H181.25766a1.82637,1.82637,0,0,1-1.82639-1.82639v-3.65279a1.82637,1.82637,0,0,1,1.82639-1.82639H325.54274" transform="translate(-159.77988 -163.50264)" fill="#e6e6e6"/><path d="M325.54274,595.00781a1.82639,1.82639,0,0,1,1.82639,1.82639V600.487a1.82639,1.82639,0,0,1-1.82639,1.82639H181.25766a1.82637,1.82637,0,0,1-1.82639-1.82639V596.8342a1.82637,1.82637,0,0,1,1.82639-1.82639H325.54274" transform="translate(-159.77988 -163.50264)" fill="#e6e6e6"/><path d="M325.54274,612.35854a1.82641,1.82641,0,0,1,1.82639,1.8264v3.65278a1.82641,1.82641,0,0,1-1.82639,1.8264H181.25766a1.8264,1.8264,0,0,1-1.82639-1.8264v-3.65278a1.8264,1.8264,0,0,1,1.82639-1.8264H325.54274" transform="translate(-159.77988 -163.50264)" fill="#e6e6e6"/><path d="M685.60572,350.086H507.69423a4.24614,4.24614,0,0,0-4.24053,4.24053V665.76169a4.253,4.253,0,0,0,4.24053,4.24053H685.60572a4.253,4.253,0,0,0,4.24053-4.24053V354.32654A4.24614,4.24614,0,0,0,685.60572,350.086Z" transform="translate(-159.77988 -163.50264)" fill="#e6e6e6"/><path d="M684.47137,357.88857a3.4181,3.4181,0,0,0-.44524-1.07075,3.20914,3.20914,0,0,0-2.66094-1.43115H511.93477a3.18292,3.18292,0,0,0-3.1804,3.1804V661.52116a3.18976,3.18976,0,0,0,3.1804,3.1804H681.36519a3.18972,3.18972,0,0,0,3.1804-3.1804V358.56707A2.89481,2.89481,0,0,0,684.47137,357.88857Z" transform="translate(-159.77988 -163.50264)" fill="#fff"/><path d="M668.79252,519.92447a1.8264,1.8264,0,0,1,1.82639,1.8264v3.65278a1.8264,1.8264,0,0,1-1.82639,1.8264H524.50744a1.82638,1.82638,0,0,1-1.8264-1.8264v-3.65278a1.82638,1.82638,0,0,1,1.8264-1.8264H668.79252" transform="translate(-159.77988 -163.50264)" fill="#e6e6e6"/><path d="M668.79252,537.27521a1.82639,1.82639,0,0,1,1.82639,1.82639v3.65279a1.82639,1.82639,0,0,1-1.82639,1.82639H524.50744a1.82638,1.82638,0,0,1-1.8264-1.82639V539.1016a1.82638,1.82638,0,0,1,1.8264-1.82639H668.79252" transform="translate(-159.77988 -163.50264)" fill="#e6e6e6"/><path d="M668.79252,554.626a1.82641,1.82641,0,0,1,1.82639,1.82639v3.65279a1.82641,1.82641,0,0,1-1.82639,1.82639H524.50744a1.8264,1.8264,0,0,1-1.8264-1.82639v-3.65279a1.8264,1.8264,0,0,1,1.8264-1.82639H668.79252" transform="translate(-159.77988 -163.50264)" fill="#5ca0ff"/><path d="M668.79252,572.35641a1.82639,1.82639,0,0,1,1.82639,1.82639v3.65279a1.82639,1.82639,0,0,1-1.82639,1.82639H524.50744a1.82638,1.82638,0,0,1-1.8264-1.82639V574.1828a1.82638,1.82638,0,0,1,1.8264-1.82639H668.79252" transform="translate(-159.77988 -163.50264)" fill="#e6e6e6"/><path d="M668.79252,589.70714a1.8264,1.8264,0,0,1,1.82639,1.8264v3.65278a1.8264,1.8264,0,0,1-1.82639,1.8264H524.50744a1.82639,1.82639,0,0,1-1.8264-1.8264v-3.65278a1.82638,1.82638,0,0,1,1.8264-1.8264H668.79252" transform="translate(-159.77988 -163.50264)" fill="#e6e6e6"/><path d="M668.79252,607.05788a1.82641,1.82641,0,0,1,1.82639,1.82639v3.65279a1.82641,1.82641,0,0,1-1.82639,1.82639H524.50744a1.8264,1.8264,0,0,1-1.8264-1.82639v-3.65279a1.8264,1.8264,0,0,1,1.8264-1.82639H668.79252" transform="translate(-159.77988 -163.50264)" fill="#e6e6e6"/><path d="M525.55172,384.48945a2.12237,2.12237,0,0,0-2.12027,2.12027v98.50279a2.1227,2.1227,0,0,0,2.12027,2.12027H667.74823a2.1227,2.1227,0,0,0,2.12027-2.12027V386.60972a2.12237,2.12237,0,0,0-2.12027-2.12027Z" transform="translate(-159.77988 -163.50264)" fill="#5ca0ff"/><path d="M746.38425,307.99055c3.86368,1.642,7.70563,3.46251,11.41713,5.41144l.98559-1.877c-3.76223-1.97584-7.657-3.82124-11.57242-5.486Z" transform="translate(-159.77988 -163.50264)" fill="#ccc"/><path d="M790.28762,333.36955l-1.4142,1.58088c3.12759,2.7963,6.17444,5.75774,9.05771,8.801l1.53844-1.45768C796.547,339.208,793.45766,336.20519,790.28762,333.36955Z" transform="translate(-159.77988 -163.50264)" fill="#ccc"/><path d="M768.73918,319.72758c3.54274,2.24761,7.0358,4.66914,10.37977,7.19783l1.27961-1.69166c-3.39056-2.56285-6.93227-5.018-10.52471-7.29669Z" transform="translate(-159.77988 -163.50264)" fill="#ccc"/><path d="M722.43394,300.03852c4.08007.99594,8.16323,2.17047,12.13666,3.49l.66879-2.0126c-4.02829-1.33707-8.16737-2.52765-12.3023-3.53757Z" transform="translate(-159.77988 -163.50264)" fill="#ccc"/><path d="M838.77212,421.38541l-2.09334.336c.66258,4.13079,1.15434,8.34855,1.46078,12.53628l2.11406-.1553C839.943,429.85457,839.44506,425.57625,838.77212,421.38541Z" transform="translate(-159.77988 -163.50264)" fill="#ccc"/><path d="M830.53435,397.26377c1.37072,3.95945,2.583,8.02916,3.60383,12.09576l2.05608-.51661c-1.03528-4.12561-2.26624-8.25485-3.65559-12.27279Z" transform="translate(-159.77988 -163.50264)" fill="#ccc"/><path d="M820.26639,374.23228c2.03123,3.67216,3.9258,7.47269,5.63195,11.295l1.936-.86343c-1.73-3.87766-3.65249-7.73255-5.71271-11.45751Z" transform="translate(-159.77988 -163.50264)" fill="#ccc"/><path d="M806.22481,353.275c2.6203,3.27512,5.13191,6.7014,7.46544,10.18255l1.76206-1.18022c-2.36666-3.53085-4.9145-7.00527-7.57105-10.32646Z" transform="translate(-159.77988 -163.50264)" fill="#ccc"/><path d="M703.374,285.23348c-4.81007,3.82234-12.44679,7.28977-18.56339,9.245,5.913,2.5063,13.20222,6.65476,17.64418,10.8993l-2.845-9.14973c3.49823.3245,7.002.7599,10.44519,1.31177l.33543-2.09334c-3.52411-.56527-7.11151-1.0096-10.6923-1.33947Z" transform="translate(-159.77988 -163.50264)" fill="#ccc"/><path d="M365.80539,384.66434l1.936.86343c1.7046-3.82073,3.59917-7.62126,5.63143-11.295l-1.85523-1.026C369.45581,376.93334,367.53432,380.78823,365.80539,384.66434Z" transform="translate(-159.77988 -163.50264)" fill="#ccc"/><path d="M357.44494,408.8424l2.05608.51661c1.01976-4.06091,2.23208-8.13062,3.60383-12.09628l-2.00431-.6926C359.70963,400.59325,358.47919,404.72248,357.44494,408.8424Z" transform="translate(-159.77988 -163.50264)" fill="#ccc"/><path d="M353.38507,434.10234l2.11509.1553c.30541-4.18773.79665-8.40549,1.46027-12.53628l-2.09335-.33647C354.19414,425.57573,353.69565,429.85457,353.38507,434.10234Z" transform="translate(-159.77988 -163.50264)" fill="#ccc"/><path d="M378.18741,362.2768l1.761,1.18022c2.332-3.47856,4.84359-6.90432,7.466-10.18255l-1.65542-1.32413C383.09933,355.27412,380.552,358.74854,378.18741,362.2768Z" transform="translate(-159.77988 -163.50264)" fill="#ccc"/><path d="M434.8512,311.525l.98559,1.877c3.71616-1.95048,7.55759-3.771,11.41713-5.41144l-.82926-1.95152C442.51231,307.70222,438.6186,309.54762,434.8512,311.525Z" transform="translate(-159.77988 -163.50264)" fill="#ccc"/><path d="M458.40084,301.51587l.66776,2.0126c3.97343-1.31948,8.05712-2.494,12.13718-3.49l-.50315-2.06022C466.56718,298.98822,462.42811,300.1788,458.40084,301.51587Z" transform="translate(-159.77988 -163.50264)" fill="#ccc"/><path d="M394.1686,342.29319l1.53947,1.45768c2.88069-3.04115,5.928-6.00258,9.0572-8.801l-1.41316-1.58088C400.179,336.20675,397.08914,339.20908,394.1686,342.29319Z" transform="translate(-159.77988 -163.50264)" fill="#ccc"/><path d="M413.24064,325.23323l1.27858,1.69166c3.346-2.5292,6.83858-4.95074,10.38133-7.19731l-1.13571-1.79052C420.17343,320.21469,416.63275,322.66935,413.24064,325.23323Z" transform="translate(-159.77988 -163.50264)" fill="#ccc"/><path d="M508.82858,294.47851c-6.11672-1.9574-13.75345-5.42476-18.56345-9.24711l3.676,8.87564c-3.5806.3298-7.16787.7742-10.69185,1.33947l.33543,2.09334c3.44291-.5518,6.94677-.98721,10.44461-1.3117l-2.845,9.14759C495.6263,301.13126,502.91548,296.98274,508.82858,294.47851Z" transform="translate(-159.77988 -163.50264)" fill="#ccc"/><path d="M596.64981,327.34263a32.86412,32.86412,0,1,1,32.86412-32.86412A32.9016,32.9016,0,0,1,596.64981,327.34263Zm0-63.608a30.74385,30.74385,0,1,0,30.74385,30.74385A30.77858,30.77858,0,0,0,596.64981,263.73466Z" transform="translate(-159.77988 -163.50264)" fill="#5ca0ff"/><rect x="433.6897" y="115.07388" width="6.3608" height="31.80398" fill="#5ca0ff"/><rect x="593.46958" y="278.57652" width="6.3608" height="31.80398" transform="translate(731.34861 -465.67411) rotate(90)" fill="#5ca0ff"/></svg>